%FSAX43Y43*%
%MOMM*%
G71*
G01*
G75*
G04 Layer_Color=16711935*
%ADD10C,0.175*%
G04:AMPARAMS|DCode=11|XSize=0.8mm|YSize=1mm|CornerRadius=0.08mm|HoleSize=0mm|Usage=FLASHONLY|Rotation=180.000|XOffset=0mm|YOffset=0mm|HoleType=Round|Shape=RoundedRectangle|*
%AMROUNDEDRECTD11*
21,1,0.800,0.840,0,0,180.0*
21,1,0.640,1.000,0,0,180.0*
1,1,0.160,-0.320,0.420*
1,1,0.160,0.320,0.420*
1,1,0.160,0.320,-0.420*
1,1,0.160,-0.320,-0.420*
%
%ADD11ROUNDEDRECTD11*%
G04:AMPARAMS|DCode=12|XSize=0.8mm|YSize=1mm|CornerRadius=0.08mm|HoleSize=0mm|Usage=FLASHONLY|Rotation=90.000|XOffset=0mm|YOffset=0mm|HoleType=Round|Shape=RoundedRectangle|*
%AMROUNDEDRECTD12*
21,1,0.800,0.840,0,0,90.0*
21,1,0.640,1.000,0,0,90.0*
1,1,0.160,0.420,0.320*
1,1,0.160,0.420,-0.320*
1,1,0.160,-0.420,-0.320*
1,1,0.160,-0.420,0.320*
%
%ADD12ROUNDEDRECTD12*%
%ADD13R,0.762X2.540*%
%ADD14R,3.048X3.048*%
%ADD15O,6.000X2.100*%
%ADD16O,6.000X2.100*%
%ADD17O,1.270X0.762*%
%ADD18R,1.270X0.762*%
%ADD19R,2.108X1.270*%
G04:AMPARAMS|DCode=20|XSize=2.108mm|YSize=1.27mm|CornerRadius=0mm|HoleSize=0mm|Usage=FLASHONLY|Rotation=180.000|XOffset=0mm|YOffset=0mm|HoleType=Round|Shape=Octagon|*
%AMOCTAGOND20*
4,1,8,-1.054,0.318,-1.054,-0.318,-0.737,-0.635,0.737,-0.635,1.054,-0.318,1.054,0.318,0.737,0.635,-0.737,0.635,-1.054,0.318,0.0*
%
%ADD20OCTAGOND20*%

%ADD21R,4.300X4.300*%
%ADD22O,0.300X1.800*%
%ADD23O,1.800X0.300*%
%ADD24R,1.650X0.300*%
%ADD25C,0.254*%
%ADD26C,0.500*%
%ADD27C,1.000*%
%ADD28C,0.200*%
%ADD29C,0.400*%
%ADD30C,1.524*%
%ADD31C,0.300*%
%ADD32R,1.850X1.850*%
%ADD33C,1.850*%
%ADD34C,2.438*%
%ADD35C,1.575*%
%ADD36R,1.575X1.575*%
%ADD37R,1.000X1.000*%
%ADD38C,1.000*%
%ADD39C,1.200*%
%ADD40C,1.300*%
%ADD41C,0.800*%
%ADD42C,0.660*%
G04:AMPARAMS|DCode=43|XSize=0.4mm|YSize=0.6mm|CornerRadius=0.04mm|HoleSize=0mm|Usage=FLASHONLY|Rotation=90.000|XOffset=0mm|YOffset=0mm|HoleType=Round|Shape=RoundedRectangle|*
%AMROUNDEDRECTD43*
21,1,0.400,0.520,0,0,90.0*
21,1,0.320,0.600,0,0,90.0*
1,1,0.080,0.260,0.160*
1,1,0.080,0.260,-0.160*
1,1,0.080,-0.260,-0.160*
1,1,0.080,-0.260,0.160*
%
%ADD43ROUNDEDRECTD43*%
G04:AMPARAMS|DCode=44|XSize=0.4mm|YSize=0.6mm|CornerRadius=0.04mm|HoleSize=0mm|Usage=FLASHONLY|Rotation=180.000|XOffset=0mm|YOffset=0mm|HoleType=Round|Shape=RoundedRectangle|*
%AMROUNDEDRECTD44*
21,1,0.400,0.520,0,0,180.0*
21,1,0.320,0.600,0,0,180.0*
1,1,0.080,-0.160,0.260*
1,1,0.080,0.160,0.260*
1,1,0.080,0.160,-0.260*
1,1,0.080,-0.160,-0.260*
%
%ADD44ROUNDEDRECTD44*%
%ADD45C,0.250*%
%ADD46C,0.600*%
%ADD47C,0.203*%
%ADD48C,0.305*%
G04:AMPARAMS|DCode=49|XSize=1.003mm|YSize=1.203mm|CornerRadius=0.182mm|HoleSize=0mm|Usage=FLASHONLY|Rotation=180.000|XOffset=0mm|YOffset=0mm|HoleType=Round|Shape=RoundedRectangle|*
%AMROUNDEDRECTD49*
21,1,1.003,0.840,0,0,180.0*
21,1,0.640,1.203,0,0,180.0*
1,1,0.363,-0.320,0.420*
1,1,0.363,0.320,0.420*
1,1,0.363,0.320,-0.420*
1,1,0.363,-0.320,-0.420*
%
%ADD49ROUNDEDRECTD49*%
G04:AMPARAMS|DCode=50|XSize=1.003mm|YSize=1.203mm|CornerRadius=0.182mm|HoleSize=0mm|Usage=FLASHONLY|Rotation=90.000|XOffset=0mm|YOffset=0mm|HoleType=Round|Shape=RoundedRectangle|*
%AMROUNDEDRECTD50*
21,1,1.003,0.840,0,0,90.0*
21,1,0.640,1.203,0,0,90.0*
1,1,0.363,0.420,0.320*
1,1,0.363,0.420,-0.320*
1,1,0.363,-0.420,-0.320*
1,1,0.363,-0.420,0.320*
%
%ADD50ROUNDEDRECTD50*%
%ADD51R,0.965X2.743*%
%ADD52R,3.251X3.251*%
%ADD53O,6.203X2.303*%
%ADD54O,6.203X2.303*%
%ADD55O,1.473X0.965*%
%ADD56R,1.473X0.965*%
%ADD57R,2.311X1.473*%
G04:AMPARAMS|DCode=58|XSize=2.311mm|YSize=1.473mm|CornerRadius=0mm|HoleSize=0mm|Usage=FLASHONLY|Rotation=180.000|XOffset=0mm|YOffset=0mm|HoleType=Round|Shape=Octagon|*
%AMOCTAGOND58*
4,1,8,-1.156,0.368,-1.156,-0.368,-0.787,-0.737,0.787,-0.737,1.156,-0.368,1.156,0.368,0.787,0.737,-0.787,0.737,-1.156,0.368,0.0*
%
%ADD58OCTAGOND58*%

%ADD59R,4.503X4.503*%
%ADD60O,0.503X2.003*%
%ADD61O,2.003X0.503*%
%ADD62R,1.853X0.503*%
%ADD63R,2.053X2.053*%
%ADD64C,2.053*%
%ADD65C,2.642*%
%ADD66C,1.778*%
%ADD67R,1.778X1.778*%
%ADD68R,1.203X1.203*%
%ADD69C,1.203*%
%ADD70C,1.403*%
%ADD71C,1.503*%
%ADD72C,1.003*%
G04:AMPARAMS|DCode=73|XSize=0.603mm|YSize=0.803mm|CornerRadius=0.142mm|HoleSize=0mm|Usage=FLASHONLY|Rotation=90.000|XOffset=0mm|YOffset=0mm|HoleType=Round|Shape=RoundedRectangle|*
%AMROUNDEDRECTD73*
21,1,0.603,0.520,0,0,90.0*
21,1,0.320,0.803,0,0,90.0*
1,1,0.283,0.260,0.160*
1,1,0.283,0.260,-0.160*
1,1,0.283,-0.260,-0.160*
1,1,0.283,-0.260,0.160*
%
%ADD73ROUNDEDRECTD73*%
G04:AMPARAMS|DCode=74|XSize=0.603mm|YSize=0.803mm|CornerRadius=0.142mm|HoleSize=0mm|Usage=FLASHONLY|Rotation=180.000|XOffset=0mm|YOffset=0mm|HoleType=Round|Shape=RoundedRectangle|*
%AMROUNDEDRECTD74*
21,1,0.603,0.520,0,0,180.0*
21,1,0.320,0.803,0,0,180.0*
1,1,0.283,-0.160,0.260*
1,1,0.283,0.160,0.260*
1,1,0.283,0.160,-0.260*
1,1,0.283,-0.160,-0.260*
%
%ADD74ROUNDEDRECTD74*%
%ADD75C,0.863*%
D26*
X0025000Y0025000D02*
X0130000D01*
Y0145000D01*
X0025000Y0025000D02*
Y0145000D01*
X0130000D01*
D49*
X0078000Y0091600D02*
D03*
X0076200D02*
D03*
X0081000Y0069500D02*
D03*
X0082800D02*
D03*
D50*
X0074000Y0077200D02*
D03*
Y0079000D02*
D03*
X0081500D02*
D03*
Y0077200D02*
D03*
X0076500D02*
D03*
Y0079000D02*
D03*
X0077500Y0069500D02*
D03*
Y0067700D02*
D03*
X0079300Y0069500D02*
D03*
Y0067700D02*
D03*
X0075700Y0069500D02*
D03*
Y0067700D02*
D03*
X0075000Y0083200D02*
D03*
Y0085000D02*
D03*
X0105000Y0054000D02*
D03*
Y0055800D02*
D03*
X0093500Y0058300D02*
D03*
Y0056500D02*
D03*
D52*
X0063800Y0108000D02*
D03*
Y0115620D02*
D03*
X0082700Y0108000D02*
D03*
Y0115620D02*
D03*
X0073500Y0108000D02*
D03*
Y0115620D02*
D03*
D63*
X0095500Y0102000D02*
D03*
X0054000Y0044000D02*
D03*
D64*
X0100580Y0102000D02*
D03*
X0059080Y0044000D02*
D03*
D65*
X0036000Y0055000D02*
D03*
X0038540Y0052460D02*
D03*
Y0057540D02*
D03*
X0033460D02*
D03*
Y0052460D02*
D03*
X0036000Y0075000D02*
D03*
X0038540Y0072460D02*
D03*
Y0077540D02*
D03*
X0033460D02*
D03*
Y0072460D02*
D03*
X0036000Y0095000D02*
D03*
X0038540Y0092460D02*
D03*
Y0097540D02*
D03*
X0033460D02*
D03*
Y0092460D02*
D03*
X0036000Y0115000D02*
D03*
X0038540Y0112460D02*
D03*
Y0117540D02*
D03*
X0033460D02*
D03*
Y0112460D02*
D03*
X0116000Y0099000D02*
D03*
X0113460Y0096460D02*
D03*
X0118540D02*
D03*
Y0101540D02*
D03*
X0113460D02*
D03*
X0116000Y0110000D02*
D03*
X0113460Y0107460D02*
D03*
X0118540D02*
D03*
Y0112540D02*
D03*
X0113460D02*
D03*
X0116000Y0121000D02*
D03*
X0113460Y0118460D02*
D03*
X0118540D02*
D03*
Y0123540D02*
D03*
X0113460D02*
D03*
X0116000Y0131500D02*
D03*
X0113460Y0128960D02*
D03*
X0118540D02*
D03*
Y0134040D02*
D03*
X0113460D02*
D03*
D66*
X0078920Y0042960D02*
D03*
Y0045500D02*
D03*
X0081460D02*
D03*
X0076380D02*
D03*
X0073840D02*
D03*
X0076380Y0042960D02*
D03*
X0081460D02*
D03*
X0084000D02*
D03*
X0073840D02*
D03*
X0096370Y0043010D02*
D03*
Y0045550D02*
D03*
X0098910D02*
D03*
X0093830D02*
D03*
X0091290D02*
D03*
X0093830Y0043010D02*
D03*
X0098910D02*
D03*
X0101450D02*
D03*
X0091290D02*
D03*
D67*
X0084000Y0045500D02*
D03*
X0101450Y0045550D02*
D03*
D68*
X0125000Y0073500D02*
D03*
D69*
X0123730D02*
D03*
X0125000Y0074770D02*
D03*
X0123730D02*
D03*
X0125000Y0076040D02*
D03*
X0123730D02*
D03*
X0125000Y0077310D02*
D03*
X0123730D02*
D03*
X0125000Y0078580D02*
D03*
X0123730D02*
D03*
X0125000Y0079850D02*
D03*
X0123730D02*
D03*
X0125000Y0081120D02*
D03*
X0123730D02*
D03*
X0125000Y0082390D02*
D03*
X0123730D02*
D03*
X0125000Y0083660D02*
D03*
X0123730D02*
D03*
X0125000Y0084930D02*
D03*
X0123730D02*
D03*
D70*
X0067100Y0122500D02*
D03*
X0076600D02*
D03*
X0086600D02*
D03*
X0088000Y0111000D02*
D03*
X0078000D02*
D03*
X0068500D02*
D03*
X0105500Y0048500D02*
D03*
Y0065500D02*
D03*
Y0082500D02*
D03*
Y0099500D02*
D03*
Y0116500D02*
D03*
X0045000Y0116500D02*
D03*
Y0099500D02*
D03*
Y0082500D02*
D03*
Y0065500D02*
D03*
Y0048500D02*
D03*
X0072500Y0089000D02*
D03*
X0079000Y0080000D02*
D03*
X0084000Y0088000D02*
D03*
X0082700Y0105500D02*
D03*
X0073500D02*
D03*
X0063800D02*
D03*
X0093500Y0055000D02*
D03*
X0104700Y0053000D02*
D03*
X0080500Y0067700D02*
D03*
X0103500Y0079300D02*
D03*
Y0086300D02*
D03*
Y0093300D02*
D03*
X0103500Y0083000D02*
D03*
X0103500Y0089500D02*
D03*
D71*
X0071960Y0141500D02*
D03*
X0077040D02*
D03*
X0074500D02*
D03*
D72*
X0092000Y0078000D02*
D03*
Y0081000D02*
D03*
Y0086000D02*
D03*
X0065500Y0089600D02*
D03*
Y0087600D02*
D03*
Y0083100D02*
D03*
Y0079100D02*
D03*
X0071200Y0071800D02*
D03*
X0077700D02*
D03*
X0082700D02*
D03*
X0086700D02*
D03*
X0077300Y0098300D02*
D03*
X0078200Y0092900D02*
D03*
X0071800Y0077200D02*
D03*
X0070300D02*
D03*
X0070900Y0079500D02*
D03*
Y0086000D02*
D03*
X0074300Y0077200D02*
D03*
X0076800D02*
D03*
X0080300D02*
D03*
X0084300D02*
D03*
X0086300D02*
D03*
X0086600Y0080100D02*
D03*
X0084700Y0092900D02*
D03*
X0087200D02*
D03*
X0070900Y0093500D02*
D03*
Y0090500D02*
D03*
X0072700Y0092900D02*
D03*
X0082200D02*
D03*
X0079300Y0070500D02*
D03*
X0077500D02*
D03*
X0075700D02*
D03*
X0076200Y0092900D02*
D03*
X0072500Y0065000D02*
D03*
X0092000Y0055500D02*
D03*
X0096700Y0056800D02*
D03*
X0096000Y0050500D02*
D03*
X0072000Y0070500D02*
D03*
X0070800Y0098300D02*
D03*
X0086300D02*
D03*
X0083800D02*
D03*
X0092000Y0089000D02*
D03*
X0109300Y0074500D02*
D03*
X0109500Y0075700D02*
D03*
X0110500Y0076500D02*
D03*
X0111500Y0078000D02*
D03*
X0113500Y0078300D02*
D03*
X0112500Y0077000D02*
D03*
X0114500Y0079400D02*
D03*
X0115000Y0080500D02*
D03*
X0113000Y0091500D02*
D03*
Y0090300D02*
D03*
X0114000Y0089500D02*
D03*
Y0088400D02*
D03*
X0115000Y0087500D02*
D03*
Y0086300D02*
D03*
X0116200Y0081300D02*
D03*
X0116500Y0082500D02*
D03*
X0116500Y0086500D02*
D03*
X0117000Y0085500D02*
D03*
X0117500Y0084300D02*
D03*
Y0083100D02*
D03*
D73*
X0085300Y0078200D02*
D03*
Y0077200D02*
D03*
X0085000Y0070800D02*
D03*
Y0071800D02*
D03*
X0083500Y0091900D02*
D03*
Y0092900D02*
D03*
X0085000Y0099300D02*
D03*
Y0098300D02*
D03*
X0074100Y0099300D02*
D03*
Y0098300D02*
D03*
X0071000Y0078200D02*
D03*
Y0077200D02*
D03*
X0072000Y0094500D02*
D03*
Y0093500D02*
D03*
X0073700Y0070800D02*
D03*
Y0071800D02*
D03*
D74*
X0085600Y0079400D02*
D03*
X0086600D02*
D03*
X0093000Y0079500D02*
D03*
X0092000D02*
D03*
X0086000Y0091800D02*
D03*
X0087000D02*
D03*
X0093000Y0087500D02*
D03*
X0092000D02*
D03*
X0071900Y0083000D02*
D03*
X0070900D02*
D03*
X0064500Y0081000D02*
D03*
X0065500D02*
D03*
X0071900Y0091700D02*
D03*
X0070900D02*
D03*
X0064500Y0088500D02*
D03*
X0065500D02*
D03*
D75*
X0076950Y0083250D02*
D03*
Y0084450D02*
D03*
Y0085650D02*
D03*
Y0086850D02*
D03*
X0078150Y0083250D02*
D03*
X0078150Y0084450D02*
D03*
Y0085650D02*
D03*
Y0086850D02*
D03*
X0079350Y0083250D02*
D03*
Y0084450D02*
D03*
Y0085650D02*
D03*
Y0086850D02*
D03*
X0080550Y0083250D02*
D03*
Y0084450D02*
D03*
Y0085650D02*
D03*
Y0086850D02*
D03*
M02*
