%FSAX43Y43*%
%MOMM*%
G71*
G01*
G75*
G04 Layer_Physical_Order=2*
G04 Layer_Color=16711680*
%ADD10C,0.200*%
G04:AMPARAMS|DCode=11|XSize=0.8mm|YSize=1mm|CornerRadius=0.08mm|HoleSize=0mm|Usage=FLASHONLY|Rotation=180.000|XOffset=0mm|YOffset=0mm|HoleType=Round|Shape=RoundedRectangle|*
%AMROUNDEDRECTD11*
21,1,0.800,0.840,0,0,180.0*
21,1,0.640,1.000,0,0,180.0*
1,1,0.160,-0.320,0.420*
1,1,0.160,0.320,0.420*
1,1,0.160,0.320,-0.420*
1,1,0.160,-0.320,-0.420*
%
%ADD11ROUNDEDRECTD11*%
%ADD12R,3.048X3.048*%
G04:AMPARAMS|DCode=13|XSize=0.8mm|YSize=1mm|CornerRadius=0.08mm|HoleSize=0mm|Usage=FLASHONLY|Rotation=270.000|XOffset=0mm|YOffset=0mm|HoleType=Round|Shape=RoundedRectangle|*
%AMROUNDEDRECTD13*
21,1,0.800,0.840,0,0,270.0*
21,1,0.640,1.000,0,0,270.0*
1,1,0.160,-0.420,-0.320*
1,1,0.160,-0.420,0.320*
1,1,0.160,0.420,0.320*
1,1,0.160,0.420,-0.320*
%
%ADD13ROUNDEDRECTD13*%
%ADD14R,3.300X2.400*%
%ADD15R,1.000X2.400*%
%ADD16R,5.500X5.500*%
%ADD17R,0.250X0.750*%
%ADD18O,0.250X0.750*%
%ADD19O,0.750X0.250*%
%ADD20R,2.340X2.340*%
%ADD21R,0.900X0.250*%
%ADD22O,0.900X0.250*%
%ADD23O,0.250X0.900*%
%ADD24O,0.762X1.270*%
%ADD25R,0.762X1.270*%
%ADD26C,0.500*%
%ADD27C,0.400*%
%ADD28C,0.175*%
%ADD29C,1.700*%
%ADD30C,4.000*%
%ADD31C,1.524*%
%ADD32C,3.000*%
%ADD33C,0.700*%
%ADD34C,1.500*%
%ADD35C,1.300*%
%ADD36C,0.600*%
%ADD37C,0.800*%
G54D10*
X0070200Y0092200D02*
X0070500Y0092500D01*
X0065800Y0092200D02*
X0070200D01*
X0063500Y0094500D02*
X0065800Y0092200D01*
X0065600Y0106600D02*
X0068000Y0109000D01*
X0065600Y0096900D02*
Y0106600D01*
X0065000Y0107500D02*
X0066500Y0109000D01*
X0065000Y0096000D02*
Y0107500D01*
X0064000Y0108000D02*
X0065000Y0109000D01*
X0064000Y0095000D02*
Y0108000D01*
X0063500Y0094500D02*
Y0109000D01*
X0065600Y0096900D02*
X0067500Y0095000D01*
X0065000Y0096000D02*
X0066000Y0095000D01*
X0065500Y0093500D02*
X0066000Y0093000D01*
X0065500Y0093500D02*
Y0094000D01*
X0064000Y0095000D02*
X0064500Y0094500D01*
X0065000D01*
X0065500Y0094000D01*
X0068625Y0093000D02*
X0069500D01*
X0068125Y0093500D02*
X0068625Y0093000D01*
X0066000D02*
X0066875D01*
X0067375Y0093500D01*
X0068125D01*
X0063500Y0071500D02*
Y0085000D01*
X0067000Y0088500D01*
X0069500D01*
X0070000Y0087700D02*
X0070800Y0088500D01*
X0067400Y0087700D02*
X0070000D01*
X0064000Y0084300D02*
X0067400Y0087700D01*
X0064000Y0079000D02*
Y0084300D01*
Y0079000D02*
X0065000Y0078000D01*
Y0071500D02*
Y0078000D01*
X0066500Y0071500D02*
Y0078000D01*
X0065000Y0079500D02*
X0066500Y0078000D01*
X0065000Y0079500D02*
Y0084000D01*
X0068000Y0071500D02*
Y0077500D01*
X0065500Y0080000D02*
X0068000Y0077500D01*
X0065500Y0080000D02*
Y0083500D01*
X0065000Y0084000D02*
X0067500Y0086500D01*
X0065500Y0083500D02*
X0067500Y0085500D01*
X0074500Y0101400D02*
Y0102000D01*
X0074700Y0077500D02*
Y0079000D01*
X0074500Y0086500D02*
X0075500Y0087500D01*
X0074500Y0085900D02*
Y0086500D01*
X0071800Y0085900D02*
Y0087500D01*
X0068000Y0081000D02*
X0069300D01*
X0069500Y0078500D02*
Y0079000D01*
X0071800Y0077500D02*
Y0079000D01*
Y0093000D02*
Y0094500D01*
X0069500Y0094000D02*
Y0094500D01*
X0068000Y0096500D02*
X0069300D01*
X0068000Y0100000D02*
X0069300D01*
X0070000Y0101400D02*
Y0102000D01*
X0069500Y0102500D02*
X0070000Y0102000D01*
X0071800Y0101400D02*
Y0103000D01*
X0074500Y0102000D02*
X0075500Y0103000D01*
X0074700Y0093000D02*
Y0094500D01*
X0076500Y0078000D02*
X0076500Y0078000D01*
X0078000Y0085500D02*
X0078100Y0085600D01*
X0089408Y0086627D02*
X0090470Y0085565D01*
X0092607D01*
X0077500Y0086500D02*
X0078100Y0087100D01*
X0086500Y0083000D02*
X0087200D01*
X0088495Y0084295D01*
X0090702D01*
X0088227Y0086627D02*
X0089408D01*
X0087200Y0085600D02*
X0088227Y0086627D01*
X0078100Y0087100D02*
X0084700D01*
X0086200Y0085600D01*
X0087200D01*
X0078100Y0085600D02*
X0079800D01*
X0080400Y0085000D01*
X0080700D01*
X0081300Y0085600D01*
X0081600D01*
X0082200Y0085000D01*
X0082500D01*
X0083100Y0085600D01*
X0083400D01*
X0084900D02*
X0085200D01*
X0083400D02*
X0083900Y0085100D01*
X0084400D01*
X0084900Y0085600D01*
X0085200D02*
X0085830Y0084970D01*
Y0083670D02*
X0086500Y0083000D01*
X0085830Y0083670D02*
Y0084970D01*
X0092607Y0088105D02*
Y0088972D01*
X0090879Y0090700D02*
X0092607Y0088972D01*
X0090300Y0090700D02*
X0090879D01*
X0089100Y0091900D02*
X0090300Y0090700D01*
X0089100Y0089400D02*
X0090702Y0087798D01*
Y0086835D02*
Y0087798D01*
X0088500Y0089400D02*
X0089100D01*
X0087200Y0090700D02*
X0088500Y0089400D01*
X0088500Y0091900D02*
X0089100D01*
X0087200Y0093200D02*
X0088500Y0091900D01*
X0086400Y0093200D02*
X0087200D01*
X0085500Y0094100D02*
X0086400Y0093200D01*
X0084900Y0092100D02*
X0086300Y0090700D01*
X0087200D01*
X0078000Y0099500D02*
Y0101000D01*
X0077500Y0102000D02*
X0079000D01*
X0085500Y0095500D01*
Y0094100D02*
Y0095500D01*
X0078000Y0099500D02*
X0078575Y0098925D01*
X0079725Y0097975D02*
X0080500Y0097200D01*
X0082725Y0095175D02*
X0082875Y0095025D01*
X0080500Y0097200D02*
X0081500D01*
X0082725Y0095975D01*
Y0095175D02*
Y0095975D01*
X0082875Y0095025D02*
X0083675D01*
X0084900Y0093800D01*
Y0092100D02*
Y0093800D01*
X0078575Y0098925D02*
X0079475D01*
X0079725Y0098675D01*
Y0097975D02*
Y0098675D01*
G54D26*
X0075500Y0077000D02*
Y0079000D01*
X0086892Y0076675D02*
X0087527D01*
X0075825D02*
X0086892D01*
X0075500Y0077000D02*
X0075825Y0076675D01*
X0087527D02*
X0088797Y0077945D01*
X0076500Y0078000D02*
Y0102400D01*
X0076500Y0078000D02*
X0083137D01*
X0086892Y0081755D01*
G54D27*
X0075500Y0079000D02*
X0075700Y0079200D01*
X0075500Y0085900D02*
X0075700Y0085700D01*
Y0079200D02*
Y0085700D01*
X0075500Y0087500D02*
Y0094500D01*
Y0085900D02*
Y0087500D01*
X0069500Y0079000D02*
X0071800D01*
X0061000Y0119000D02*
X0066798Y0124798D01*
X0061000Y0119000D02*
Y0123500D01*
Y0115500D02*
Y0119000D01*
Y0065000D02*
Y0115500D01*
X0071800Y0079000D02*
X0075500D01*
X0074500Y0085900D02*
X0075500D01*
X0074700Y0094500D02*
X0075500D01*
X0071800Y0101400D02*
X0074500D01*
X0069300Y0079200D02*
X0069500Y0079000D01*
X0069300Y0085200D02*
X0070000Y0085900D01*
X0071800D01*
X0074500D01*
X0069300Y0081000D02*
Y0085200D01*
Y0079200D02*
Y0081000D01*
X0071800Y0094500D02*
X0074700D01*
X0069500D02*
X0071800D01*
X0069300Y0096500D02*
Y0100000D01*
Y0094700D02*
Y0096500D01*
Y0100000D02*
Y0100700D01*
X0070000Y0101400D02*
X0071800D01*
X0069300Y0100700D02*
X0070000Y0101400D01*
X0069300Y0094700D02*
X0069500Y0094500D01*
X0061000Y0057000D02*
Y0065000D01*
X0066798Y0124798D02*
X0083000D01*
G54D31*
X0092607Y0088105D02*
D03*
Y0085565D02*
D03*
X0090702Y0084295D02*
D03*
Y0086835D02*
D03*
X0086892Y0081755D02*
D03*
Y0076675D02*
D03*
X0088797Y0077945D02*
D03*
G54D33*
X0061000Y0123500D02*
D03*
Y0115500D02*
D03*
Y0065000D02*
D03*
Y0057000D02*
D03*
G54D35*
X0083000Y0124800D02*
D03*
G54D36*
X0072700Y0102700D02*
D03*
X0074200D02*
D03*
X0069500Y0093000D02*
D03*
X0070500Y0092500D02*
D03*
X0067500Y0085500D02*
D03*
Y0086500D02*
D03*
X0069500Y0088500D02*
D03*
X0070800D02*
D03*
X0069500Y0078500D02*
D03*
X0074700Y0077500D02*
D03*
X0071800D02*
D03*
X0075500Y0087500D02*
D03*
X0071800D02*
D03*
X0068000Y0081000D02*
D03*
Y0096500D02*
D03*
X0067500Y0095000D02*
D03*
X0066000D02*
D03*
X0068000Y0100000D02*
D03*
X0069500Y0102500D02*
D03*
X0071800Y0103000D02*
D03*
X0075500D02*
D03*
X0071800Y0093000D02*
D03*
X0074700D02*
D03*
X0069500Y0094000D02*
D03*
X0072700Y0102700D02*
D03*
X0074200D02*
D03*
X0078000Y0101000D02*
D03*
X0076500Y0093500D02*
D03*
X0076500Y0102400D02*
D03*
X0077500Y0102000D02*
D03*
Y0086500D02*
D03*
X0076500Y0086900D02*
D03*
X0078000Y0085500D02*
D03*
X0076500Y0078000D02*
D03*
G54D37*
X0063500Y0109000D02*
D03*
X0065000D02*
D03*
X0066500D02*
D03*
X0068000D02*
D03*
X0063500Y0071500D02*
D03*
X0065000D02*
D03*
X0066500D02*
D03*
X0068000D02*
D03*
M02*
