%FSAX43Y43*%
%MOMM*%
G71*
G01*
G75*
G04 Layer_Color=32896*
%ADD10C,0.200*%
G04:AMPARAMS|DCode=11|XSize=0.8mm|YSize=1mm|CornerRadius=0.08mm|HoleSize=0mm|Usage=FLASHONLY|Rotation=180.000|XOffset=0mm|YOffset=0mm|HoleType=Round|Shape=RoundedRectangle|*
%AMROUNDEDRECTD11*
21,1,0.800,0.840,0,0,180.0*
21,1,0.640,1.000,0,0,180.0*
1,1,0.160,-0.320,0.420*
1,1,0.160,0.320,0.420*
1,1,0.160,0.320,-0.420*
1,1,0.160,-0.320,-0.420*
%
%ADD11ROUNDEDRECTD11*%
%ADD12R,3.048X3.048*%
G04:AMPARAMS|DCode=13|XSize=0.8mm|YSize=1mm|CornerRadius=0.08mm|HoleSize=0mm|Usage=FLASHONLY|Rotation=270.000|XOffset=0mm|YOffset=0mm|HoleType=Round|Shape=RoundedRectangle|*
%AMROUNDEDRECTD13*
21,1,0.800,0.840,0,0,270.0*
21,1,0.640,1.000,0,0,270.0*
1,1,0.160,-0.420,-0.320*
1,1,0.160,-0.420,0.320*
1,1,0.160,0.420,0.320*
1,1,0.160,0.420,-0.320*
%
%ADD13ROUNDEDRECTD13*%
%ADD14R,3.300X2.400*%
%ADD15R,1.000X2.400*%
%ADD16R,5.500X5.500*%
%ADD17R,0.250X0.750*%
%ADD18O,0.250X0.750*%
%ADD19O,0.750X0.250*%
%ADD20R,2.340X2.340*%
%ADD21R,0.900X0.250*%
%ADD22O,0.900X0.250*%
%ADD23O,0.250X0.900*%
%ADD24O,0.762X1.270*%
%ADD25R,0.762X1.270*%
%ADD26C,0.500*%
%ADD27C,0.400*%
%ADD28C,0.175*%
%ADD29C,1.700*%
%ADD30C,4.000*%
%ADD31C,1.524*%
%ADD32C,3.000*%
%ADD33C,0.700*%
%ADD34C,1.500*%
%ADD35C,1.300*%
%ADD36C,0.600*%
%ADD37C,0.800*%
G04:AMPARAMS|DCode=38|XSize=0.8mm|YSize=1mm|CornerRadius=0.08mm|HoleSize=0mm|Usage=FLASHONLY|Rotation=225.000|XOffset=0mm|YOffset=0mm|HoleType=Round|Shape=RoundedRectangle|*
%AMROUNDEDRECTD38*
21,1,0.800,0.840,0,0,225.0*
21,1,0.640,1.000,0,0,225.0*
1,1,0.160,-0.523,0.071*
1,1,0.160,-0.071,0.523*
1,1,0.160,0.523,-0.071*
1,1,0.160,0.071,-0.523*
%
%ADD38ROUNDEDRECTD38*%
G04:AMPARAMS|DCode=39|XSize=1mm|YSize=2mm|CornerRadius=0.1mm|HoleSize=0mm|Usage=FLASHONLY|Rotation=270.000|XOffset=0mm|YOffset=0mm|HoleType=Round|Shape=RoundedRectangle|*
%AMROUNDEDRECTD39*
21,1,1.000,1.800,0,0,270.0*
21,1,0.800,2.000,0,0,270.0*
1,1,0.200,-0.900,-0.400*
1,1,0.200,-0.900,0.400*
1,1,0.200,0.900,0.400*
1,1,0.200,0.900,-0.400*
%
%ADD39ROUNDEDRECTD39*%
G04:AMPARAMS|DCode=40|XSize=1mm|YSize=2mm|CornerRadius=0.1mm|HoleSize=0mm|Usage=FLASHONLY|Rotation=0.000|XOffset=0mm|YOffset=0mm|HoleType=Round|Shape=RoundedRectangle|*
%AMROUNDEDRECTD40*
21,1,1.000,1.800,0,0,0.0*
21,1,0.800,2.000,0,0,0.0*
1,1,0.200,0.400,-0.900*
1,1,0.200,-0.400,-0.900*
1,1,0.200,-0.400,0.900*
1,1,0.200,0.400,0.900*
%
%ADD40ROUNDEDRECTD40*%
%ADD41C,0.250*%
%ADD42C,0.203*%
%ADD43C,0.100*%
%ADD44C,0.254*%
G04:AMPARAMS|DCode=45|XSize=1mm|YSize=1.2mm|CornerRadius=0.18mm|HoleSize=0mm|Usage=FLASHONLY|Rotation=180.000|XOffset=0mm|YOffset=0mm|HoleType=Round|Shape=RoundedRectangle|*
%AMROUNDEDRECTD45*
21,1,1.000,0.840,0,0,180.0*
21,1,0.640,1.200,0,0,180.0*
1,1,0.360,-0.320,0.420*
1,1,0.360,0.320,0.420*
1,1,0.360,0.320,-0.420*
1,1,0.360,-0.320,-0.420*
%
%ADD45ROUNDEDRECTD45*%
%ADD46R,3.248X3.248*%
G04:AMPARAMS|DCode=47|XSize=1mm|YSize=1.2mm|CornerRadius=0.18mm|HoleSize=0mm|Usage=FLASHONLY|Rotation=270.000|XOffset=0mm|YOffset=0mm|HoleType=Round|Shape=RoundedRectangle|*
%AMROUNDEDRECTD47*
21,1,1.000,0.840,0,0,270.0*
21,1,0.640,1.200,0,0,270.0*
1,1,0.360,-0.420,-0.320*
1,1,0.360,-0.420,0.320*
1,1,0.360,0.420,0.320*
1,1,0.360,0.420,-0.320*
%
%ADD47ROUNDEDRECTD47*%
%ADD48R,3.500X2.600*%
%ADD49R,1.200X2.600*%
%ADD50R,5.700X5.700*%
%ADD51R,0.450X0.950*%
%ADD52O,0.450X0.950*%
%ADD53O,0.950X0.450*%
%ADD54R,2.540X2.540*%
%ADD55R,1.100X0.450*%
%ADD56O,1.100X0.450*%
%ADD57O,0.450X1.100*%
%ADD58O,0.962X1.470*%
%ADD59R,0.962X1.470*%
%ADD60C,1.900*%
%ADD61C,4.200*%
%ADD62C,1.724*%
%ADD63C,3.200*%
%ADD64C,0.900*%
%ADD65C,0.800*%
%ADD66C,1.000*%
G04:AMPARAMS|DCode=67|XSize=1mm|YSize=1.2mm|CornerRadius=0.18mm|HoleSize=0mm|Usage=FLASHONLY|Rotation=225.000|XOffset=0mm|YOffset=0mm|HoleType=Round|Shape=RoundedRectangle|*
%AMROUNDEDRECTD67*
21,1,1.000,0.840,0,0,225.0*
21,1,0.640,1.200,0,0,225.0*
1,1,0.360,-0.523,0.071*
1,1,0.360,-0.071,0.523*
1,1,0.360,0.523,-0.071*
1,1,0.360,0.071,-0.523*
%
%ADD67ROUNDEDRECTD67*%
G04:AMPARAMS|DCode=68|XSize=1.2mm|YSize=2.2mm|CornerRadius=0.2mm|HoleSize=0mm|Usage=FLASHONLY|Rotation=270.000|XOffset=0mm|YOffset=0mm|HoleType=Round|Shape=RoundedRectangle|*
%AMROUNDEDRECTD68*
21,1,1.200,1.800,0,0,270.0*
21,1,0.800,2.200,0,0,270.0*
1,1,0.400,-0.900,-0.400*
1,1,0.400,-0.900,0.400*
1,1,0.400,0.900,0.400*
1,1,0.400,0.900,-0.400*
%
%ADD68ROUNDEDRECTD68*%
G04:AMPARAMS|DCode=69|XSize=1.2mm|YSize=2.2mm|CornerRadius=0.2mm|HoleSize=0mm|Usage=FLASHONLY|Rotation=0.000|XOffset=0mm|YOffset=0mm|HoleType=Round|Shape=RoundedRectangle|*
%AMROUNDEDRECTD69*
21,1,1.200,1.800,0,0,0.0*
21,1,0.800,2.200,0,0,0.0*
1,1,0.400,0.400,-0.900*
1,1,0.400,-0.400,-0.900*
1,1,0.400,-0.400,0.900*
1,1,0.400,0.400,0.900*
%
%ADD69ROUNDEDRECTD69*%
G54D10*
X0057710Y0066141D02*
X0058841Y0065010D01*
X0057710Y0066141D02*
X0059831Y0068263D01*
X0060963Y0067131D01*
X0058841Y0065010D02*
X0060963Y0067131D01*
X0056559Y0065090D02*
X0057690Y0063959D01*
X0055569Y0061837D02*
X0057690Y0063959D01*
X0054437Y0062969D02*
X0055569Y0061837D01*
X0054437Y0062969D02*
X0056559Y0065090D01*
X0057710Y0116641D02*
X0058841Y0115510D01*
X0057710Y0116641D02*
X0059831Y0118763D01*
X0060963Y0117631D01*
X0058841Y0115510D02*
X0060963Y0117631D01*
X0057710Y0124641D02*
X0058841Y0123510D01*
X0057710Y0124641D02*
X0059831Y0126763D01*
X0060963Y0125631D01*
X0058841Y0123510D02*
X0060963Y0125631D01*
X0056559Y0123590D02*
X0057690Y0122459D01*
X0055569Y0120337D02*
X0057690Y0122459D01*
X0054437Y0121469D02*
X0055569Y0120337D01*
X0054437Y0121469D02*
X0056559Y0123590D01*
X0072600Y0079800D02*
X0075600D01*
X0072600Y0078200D02*
Y0079800D01*
Y0078200D02*
X0075600D01*
Y0079800D01*
X0072100Y0078700D02*
Y0080300D01*
X0069100Y0078700D02*
X0072100D01*
X0069100D02*
Y0080300D01*
X0072100D01*
X0068600Y0083300D02*
X0071600D01*
X0068600Y0081700D02*
Y0083300D01*
Y0081700D02*
X0071600D01*
Y0083300D01*
X0068400Y0085200D02*
Y0086800D01*
X0071400D01*
Y0085200D02*
Y0086800D01*
X0068400Y0085200D02*
X0071400D01*
X0072900D02*
X0075900D01*
Y0086800D01*
X0072900D02*
X0075900D01*
X0072900Y0085200D02*
Y0086800D01*
X0058841Y0057010D02*
X0060963Y0059131D01*
X0059831Y0060263D02*
X0060963Y0059131D01*
X0057710Y0058141D02*
X0059831Y0060263D01*
X0057710Y0058141D02*
X0058841Y0057010D01*
X0058300Y0095700D02*
Y0097300D01*
X0061300D01*
Y0095700D02*
Y0097300D01*
X0058300Y0095700D02*
X0061300D01*
X0058300Y0080200D02*
X0061300D01*
Y0081800D01*
X0058300D02*
X0061300D01*
X0058300Y0080200D02*
Y0081800D01*
X0061700Y0095900D02*
X0063300D01*
X0061700D02*
Y0098900D01*
X0063300D01*
Y0095900D02*
Y0098900D01*
Y0080400D02*
Y0083400D01*
X0061700D02*
X0063300D01*
X0061700Y0080400D02*
Y0083400D01*
Y0080400D02*
X0063300D01*
X0061300Y0097500D02*
Y0099100D01*
X0058300Y0097500D02*
X0061300D01*
X0058300D02*
Y0099100D01*
X0061300D01*
X0058300Y0083600D02*
X0061300D01*
X0058300Y0082000D02*
Y0083600D01*
Y0082000D02*
X0061300D01*
Y0083600D01*
X0073700Y0067400D02*
X0075300D01*
X0073700D02*
Y0070400D01*
X0075300D01*
Y0067400D02*
Y0070400D01*
X0072200Y0067400D02*
Y0070400D01*
Y0067400D02*
X0073800D01*
Y0070400D01*
X0072200D02*
X0073800D01*
X0069200D02*
X0070800D01*
Y0067400D02*
Y0070400D01*
X0069200Y0067400D02*
X0070800D01*
X0069200D02*
Y0070400D01*
X0051100Y0127300D02*
X0054100D01*
X0051100Y0125700D02*
Y0127300D01*
Y0125700D02*
X0054100D01*
Y0127300D01*
Y0121700D02*
Y0123300D01*
X0051100Y0121700D02*
X0054100D01*
X0051100D02*
Y0123300D01*
X0054100D01*
X0051100Y0119300D02*
X0054100D01*
X0051100Y0117700D02*
Y0119300D01*
Y0117700D02*
X0054100D01*
Y0119300D01*
Y0113700D02*
Y0115300D01*
X0051100Y0113700D02*
X0054100D01*
X0051100D02*
Y0115300D01*
X0054100D01*
X0049800Y0123900D02*
Y0126900D01*
X0048200D02*
X0049800D01*
X0048200Y0123900D02*
Y0126900D01*
Y0123900D02*
X0049800D01*
X0048200Y0119900D02*
X0049800D01*
X0048200D02*
Y0122900D01*
X0049800D01*
Y0119900D02*
Y0122900D01*
Y0115900D02*
Y0118900D01*
X0048200D02*
X0049800D01*
X0048200Y0115900D02*
Y0118900D01*
Y0115900D02*
X0049800D01*
X0048200Y0111900D02*
X0049800D01*
X0048200D02*
Y0114900D01*
X0049800D01*
Y0111900D02*
Y0114900D01*
X0075300Y0110100D02*
Y0113100D01*
X0073700D02*
X0075300D01*
X0073700Y0110100D02*
Y0113100D01*
Y0110100D02*
X0075300D01*
X0072200Y0113100D02*
X0073800D01*
Y0110100D02*
Y0113100D01*
X0072200Y0110100D02*
X0073800D01*
X0072200D02*
Y0113100D01*
X0072300Y0110100D02*
Y0113100D01*
X0070700D02*
X0072300D01*
X0070700Y0110100D02*
Y0113100D01*
Y0110100D02*
X0072300D01*
X0069200Y0113100D02*
X0070800D01*
Y0110100D02*
Y0113100D01*
X0069200Y0110100D02*
X0070800D01*
X0069200D02*
Y0113100D01*
X0068800Y0110100D02*
Y0113100D01*
X0067200D02*
X0068800D01*
X0067200Y0110100D02*
Y0113100D01*
Y0110100D02*
X0068800D01*
X0065700Y0113100D02*
X0067300D01*
Y0110100D02*
Y0113100D01*
X0065700Y0110100D02*
X0067300D01*
X0065700D02*
Y0113100D01*
X0065800Y0110100D02*
Y0113100D01*
X0064200D02*
X0065800D01*
X0064200Y0110100D02*
Y0113100D01*
Y0110100D02*
X0065800D01*
X0062700Y0113100D02*
X0064300D01*
Y0110100D02*
Y0113100D01*
X0062700Y0110100D02*
X0064300D01*
X0062700D02*
Y0113100D01*
X0051100Y0068800D02*
X0054100D01*
X0051100Y0067200D02*
Y0068800D01*
Y0067200D02*
X0054100D01*
Y0068800D01*
Y0063200D02*
Y0064800D01*
X0051100Y0063200D02*
X0054100D01*
X0051100D02*
Y0064800D01*
X0054100D01*
X0051100Y0060800D02*
X0054100D01*
X0051100Y0059200D02*
Y0060800D01*
Y0059200D02*
X0054100D01*
Y0060800D01*
Y0055200D02*
Y0056800D01*
X0051100Y0055200D02*
X0054100D01*
X0051100D02*
Y0056800D01*
X0054100D01*
X0049800Y0065400D02*
Y0068400D01*
X0048200D02*
X0049800D01*
X0048200Y0065400D02*
Y0068400D01*
Y0065400D02*
X0049800D01*
X0048200Y0061400D02*
X0049800D01*
X0048200D02*
Y0064400D01*
X0049800D01*
Y0061400D02*
Y0064400D01*
Y0057400D02*
Y0060400D01*
X0048200D02*
X0049800D01*
X0048200Y0057400D02*
Y0060400D01*
Y0057400D02*
X0049800D01*
X0048200Y0053400D02*
X0049800D01*
X0048200D02*
Y0056400D01*
X0049800D01*
Y0053400D02*
Y0056400D01*
X0062700Y0067400D02*
Y0070400D01*
Y0067400D02*
X0064300D01*
Y0070400D01*
X0062700D02*
X0064300D01*
X0064200Y0067400D02*
X0065800D01*
X0064200D02*
Y0070400D01*
X0065800D01*
Y0067400D02*
Y0070400D01*
X0054437Y0113469D02*
X0056559Y0115590D01*
X0054437Y0113469D02*
X0055569Y0112337D01*
X0057690Y0114459D01*
X0056559Y0115590D02*
X0057690Y0114459D01*
X0067200Y0067400D02*
X0068800D01*
X0067200D02*
Y0070400D01*
X0068800D01*
Y0067400D02*
Y0070400D01*
X0072300Y0067400D02*
Y0070400D01*
X0070700D02*
X0072300D01*
X0070700Y0067400D02*
Y0070400D01*
Y0067400D02*
X0072300D01*
X0065700Y0070400D02*
X0067300D01*
Y0067400D02*
Y0070400D01*
X0065700Y0067400D02*
X0067300D01*
X0065700D02*
Y0070400D01*
X0072900Y0100700D02*
Y0102300D01*
X0075900D01*
Y0100700D02*
Y0102300D01*
X0072900Y0100700D02*
X0075900D01*
X0068400D02*
X0071400D01*
Y0102300D01*
X0068400D02*
X0071400D01*
X0068400Y0100700D02*
Y0102300D01*
X0071600Y0097200D02*
Y0098800D01*
X0068600Y0097200D02*
X0071600D01*
X0068600D02*
Y0098800D01*
X0071600D01*
X0069100Y0095800D02*
X0072100D01*
X0069100Y0094200D02*
Y0095800D01*
Y0094200D02*
X0072100D01*
Y0095800D01*
X0075600Y0093700D02*
Y0095300D01*
X0072600Y0093700D02*
X0075600D01*
X0072600D02*
Y0095300D01*
X0075600D01*
X0042900Y0125700D02*
Y0127300D01*
X0045900D01*
Y0125700D02*
Y0127300D01*
X0042900Y0125700D02*
X0045900D01*
X0044900Y0123700D02*
X0047900D01*
Y0125300D01*
X0044900D02*
X0047900D01*
X0044900Y0123700D02*
Y0125300D01*
X0042900Y0121700D02*
Y0123300D01*
X0045900D01*
Y0121700D02*
Y0123300D01*
X0042900Y0121700D02*
X0045900D01*
X0044900Y0119700D02*
X0047900D01*
Y0121300D01*
X0044900D02*
X0047900D01*
X0044900Y0119700D02*
Y0121300D01*
X0042900Y0117700D02*
Y0119300D01*
X0045900D01*
Y0117700D02*
Y0119300D01*
X0042900Y0117700D02*
X0045900D01*
X0044900Y0115700D02*
X0047900D01*
Y0117300D01*
X0044900D02*
X0047900D01*
X0044900Y0115700D02*
Y0117300D01*
X0042900Y0113700D02*
Y0115300D01*
X0045900D01*
Y0113700D02*
Y0115300D01*
X0042900Y0113700D02*
X0045900D01*
X0044900Y0111700D02*
X0047900D01*
Y0113300D01*
X0044900D02*
X0047900D01*
X0044900Y0111700D02*
Y0113300D01*
X0042900Y0067200D02*
Y0068800D01*
X0045900D01*
Y0067200D02*
Y0068800D01*
X0042900Y0067200D02*
X0045900D01*
X0044900Y0065200D02*
X0047900D01*
Y0066800D01*
X0044900D02*
X0047900D01*
X0044900Y0065200D02*
Y0066800D01*
X0042900Y0063200D02*
Y0064800D01*
X0045900D01*
Y0063200D02*
Y0064800D01*
X0042900Y0063200D02*
X0045900D01*
X0044900Y0061200D02*
X0047900D01*
Y0062800D01*
X0044900D02*
X0047900D01*
X0044900Y0061200D02*
Y0062800D01*
X0042900Y0059200D02*
Y0060800D01*
X0045900D01*
Y0059200D02*
Y0060800D01*
X0042900Y0059200D02*
X0045900D01*
X0044900Y0057200D02*
X0047900D01*
Y0058800D01*
X0044900D02*
X0047900D01*
X0044900Y0057200D02*
Y0058800D01*
X0042900Y0055200D02*
Y0056800D01*
X0045900D01*
Y0055200D02*
Y0056800D01*
X0042900Y0055200D02*
X0045900D01*
X0044900Y0053200D02*
X0047900D01*
Y0054800D01*
X0044900D02*
X0047900D01*
X0044900Y0053200D02*
Y0054800D01*
X0054437Y0054969D02*
X0056559Y0057090D01*
X0054437Y0054969D02*
X0055569Y0053837D01*
X0057690Y0055959D01*
X0056559Y0057090D02*
X0057690Y0055959D01*
X0057400Y0068500D02*
X0057600Y0068700D01*
X0058000D01*
X0058200Y0068500D01*
Y0067700D01*
X0058000Y0067500D01*
X0057600D01*
X0057400Y0067700D01*
X0056201Y0068700D02*
X0057000D01*
Y0068100D01*
X0056601Y0068300D01*
X0056401D01*
X0056201Y0068100D01*
Y0067700D01*
X0056401Y0067500D01*
X0056800D01*
X0057000Y0067700D01*
X0055001Y0068700D02*
X0055401Y0068500D01*
X0055801Y0068100D01*
Y0067700D01*
X0055601Y0067500D01*
X0055201D01*
X0055001Y0067700D01*
Y0067900D01*
X0055201Y0068100D01*
X0055801D01*
X0060100Y0063000D02*
X0060300Y0063200D01*
X0060700D01*
X0060900Y0063000D01*
Y0062200D01*
X0060700Y0062000D01*
X0060300D01*
X0060100Y0062200D01*
X0058901Y0063200D02*
X0059700D01*
Y0062600D01*
X0059301Y0062800D01*
X0059101D01*
X0058901Y0062600D01*
Y0062200D01*
X0059101Y0062000D01*
X0059500D01*
X0059700Y0062200D01*
X0057701Y0062000D02*
X0058501D01*
X0057701Y0062800D01*
Y0063000D01*
X0057901Y0063200D01*
X0058301D01*
X0058501Y0063000D01*
X0061900Y0115400D02*
X0062100Y0115600D01*
X0062500D01*
X0062700Y0115400D01*
Y0114600D01*
X0062500Y0114400D01*
X0062100D01*
X0061900Y0114600D01*
X0060701Y0115600D02*
X0061500D01*
Y0115000D01*
X0061101Y0115200D01*
X0060901D01*
X0060701Y0115000D01*
Y0114600D01*
X0060901Y0114400D01*
X0061300D01*
X0061500Y0114600D01*
X0059501Y0115600D02*
X0060301D01*
Y0115000D01*
X0059901Y0115200D01*
X0059701D01*
X0059501Y0115000D01*
Y0114600D01*
X0059701Y0114400D01*
X0060101D01*
X0060301Y0114600D01*
X0063100Y0124500D02*
X0063300Y0124700D01*
X0063700D01*
X0063900Y0124500D01*
Y0123700D01*
X0063700Y0123500D01*
X0063300D01*
X0063100Y0123700D01*
X0061901Y0124700D02*
X0062700D01*
Y0124100D01*
X0062301Y0124300D01*
X0062101D01*
X0061901Y0124100D01*
Y0123700D01*
X0062101Y0123500D01*
X0062500D01*
X0062700Y0123700D01*
X0060901Y0123500D02*
Y0124700D01*
X0061501Y0124100D01*
X0060701D01*
X0059600Y0121300D02*
X0059800Y0121500D01*
X0060200D01*
X0060400Y0121300D01*
Y0120500D01*
X0060200Y0120300D01*
X0059800D01*
X0059600Y0120500D01*
X0058401Y0121500D02*
X0059200D01*
Y0120900D01*
X0058801Y0121100D01*
X0058601D01*
X0058401Y0120900D01*
Y0120500D01*
X0058601Y0120300D01*
X0059000D01*
X0059200Y0120500D01*
X0058001Y0121300D02*
X0057801Y0121500D01*
X0057401D01*
X0057201Y0121300D01*
Y0120500D01*
X0057401Y0120300D01*
X0057801D01*
X0058001Y0120500D01*
Y0121300D01*
X0064000Y0087100D02*
X0063800Y0087300D01*
Y0087700D01*
X0064000Y0087900D01*
X0064800D01*
X0065000Y0087700D01*
Y0087300D01*
X0064800Y0087100D01*
X0063800Y0085901D02*
Y0086700D01*
X0064400D01*
X0064200Y0086301D01*
Y0086101D01*
X0064400Y0085901D01*
X0064800D01*
X0065000Y0086101D01*
Y0086500D01*
X0064800Y0086700D01*
Y0085501D02*
X0065000Y0085301D01*
Y0084901D01*
X0064800Y0084701D01*
X0064000D01*
X0063800Y0084901D01*
Y0085301D01*
X0064000Y0085501D01*
X0064200D01*
X0064400Y0085301D01*
Y0084701D01*
X0064300Y0102700D02*
X0064100Y0102900D01*
Y0103300D01*
X0064300Y0103500D01*
X0065100D01*
X0065300Y0103300D01*
Y0102900D01*
X0065100Y0102700D01*
X0064100Y0101501D02*
Y0102300D01*
X0064700D01*
X0064500Y0101901D01*
Y0101701D01*
X0064700Y0101501D01*
X0065100D01*
X0065300Y0101701D01*
Y0102100D01*
X0065100Y0102300D01*
X0064300Y0101101D02*
X0064100Y0100901D01*
Y0100501D01*
X0064300Y0100301D01*
X0064500D01*
X0064700Y0100501D01*
X0064900Y0100301D01*
X0065100D01*
X0065300Y0100501D01*
Y0100901D01*
X0065100Y0101101D01*
X0064900D01*
X0064700Y0100901D01*
X0064500Y0101101D01*
X0064300D01*
X0064700Y0100901D02*
Y0100501D01*
X0053700Y0108500D02*
X0053900Y0108700D01*
X0054300D01*
X0054500Y0108500D01*
Y0107700D01*
X0054300Y0107500D01*
X0053900D01*
X0053700Y0107700D01*
X0053300Y0107500D02*
X0052901D01*
X0053100D01*
Y0108700D01*
X0053300Y0108500D01*
X0078400Y0079800D02*
X0078600Y0080000D01*
X0079000D01*
X0079200Y0079800D01*
Y0079000D01*
X0079000Y0078800D01*
X0078600D01*
X0078400Y0079000D01*
X0078000Y0080000D02*
X0077201D01*
Y0079800D01*
X0078000Y0079000D01*
Y0078800D01*
X0076801Y0079000D02*
X0076601Y0078800D01*
X0076201D01*
X0076001Y0079000D01*
Y0079800D01*
X0076201Y0080000D01*
X0076601D01*
X0076801Y0079800D01*
Y0079600D01*
X0076601Y0079400D01*
X0076001D01*
X0071600Y0076700D02*
X0071800Y0076900D01*
X0072200D01*
X0072400Y0076700D01*
Y0075900D01*
X0072200Y0075700D01*
X0071800D01*
X0071600Y0075900D01*
X0071200Y0076900D02*
X0070401D01*
Y0076700D01*
X0071200Y0075900D01*
Y0075700D01*
X0070001Y0076700D02*
X0069801Y0076900D01*
X0069401D01*
X0069201Y0076700D01*
Y0076500D01*
X0069401Y0076300D01*
X0069201Y0076100D01*
Y0075900D01*
X0069401Y0075700D01*
X0069801D01*
X0070001Y0075900D01*
Y0076100D01*
X0069801Y0076300D01*
X0070001Y0076500D01*
Y0076700D01*
X0069801Y0076300D02*
X0069401D01*
X0076200Y0082800D02*
X0076400Y0083000D01*
X0076800D01*
X0077000Y0082800D01*
Y0082000D01*
X0076800Y0081800D01*
X0076400D01*
X0076200Y0082000D01*
X0075800Y0083000D02*
X0075001D01*
Y0082800D01*
X0075800Y0082000D01*
Y0081800D01*
X0074601Y0083000D02*
X0073801D01*
Y0082800D01*
X0074601Y0082000D01*
Y0081800D01*
X0068000Y0088400D02*
X0068200Y0088600D01*
X0068600D01*
X0068800Y0088400D01*
Y0087600D01*
X0068600Y0087400D01*
X0068200D01*
X0068000Y0087600D01*
X0067600Y0088600D02*
X0066801D01*
Y0088400D01*
X0067600Y0087600D01*
Y0087400D01*
X0065601Y0088600D02*
X0066001Y0088400D01*
X0066401Y0088000D01*
Y0087600D01*
X0066201Y0087400D01*
X0065801D01*
X0065601Y0087600D01*
Y0087800D01*
X0065801Y0088000D01*
X0066401D01*
X0074400Y0089500D02*
X0074600Y0089700D01*
X0075000D01*
X0075200Y0089500D01*
Y0088700D01*
X0075000Y0088500D01*
X0074600D01*
X0074400Y0088700D01*
X0074000Y0089700D02*
X0073201D01*
Y0089500D01*
X0074000Y0088700D01*
Y0088500D01*
X0072001Y0089700D02*
X0072801D01*
Y0089100D01*
X0072401Y0089300D01*
X0072201D01*
X0072001Y0089100D01*
Y0088700D01*
X0072201Y0088500D01*
X0072601D01*
X0072801Y0088700D01*
X0057100Y0060100D02*
X0057300Y0060300D01*
X0057700D01*
X0057900Y0060100D01*
Y0059300D01*
X0057700Y0059100D01*
X0057300D01*
X0057100Y0059300D01*
X0055901Y0060300D02*
X0056700D01*
Y0059700D01*
X0056301Y0059900D01*
X0056101D01*
X0055901Y0059700D01*
Y0059300D01*
X0056101Y0059100D01*
X0056500D01*
X0056700Y0059300D01*
X0055501Y0060300D02*
X0054701D01*
Y0060100D01*
X0055501Y0059300D01*
Y0059100D01*
X0060400Y0095000D02*
X0060600Y0095200D01*
X0061000D01*
X0061200Y0095000D01*
Y0094200D01*
X0061000Y0094000D01*
X0060600D01*
X0060400Y0094200D01*
X0059201Y0095200D02*
X0059601Y0095000D01*
X0060000Y0094600D01*
Y0094200D01*
X0059800Y0094000D01*
X0059401D01*
X0059201Y0094200D01*
Y0094400D01*
X0059401Y0094600D01*
X0060000D01*
X0058001Y0094000D02*
X0058801D01*
X0058001Y0094800D01*
Y0095000D01*
X0058201Y0095200D01*
X0058601D01*
X0058801Y0095000D01*
X0060500Y0079500D02*
X0060700Y0079700D01*
X0061100D01*
X0061300Y0079500D01*
Y0078700D01*
X0061100Y0078500D01*
X0060700D01*
X0060500Y0078700D01*
X0059301Y0079700D02*
X0059701Y0079500D01*
X0060100Y0079100D01*
Y0078700D01*
X0059900Y0078500D01*
X0059501D01*
X0059301Y0078700D01*
Y0078900D01*
X0059501Y0079100D01*
X0060100D01*
X0058101Y0079700D02*
X0058901D01*
Y0079100D01*
X0058501Y0079300D01*
X0058301D01*
X0058101Y0079100D01*
Y0078700D01*
X0058301Y0078500D01*
X0058701D01*
X0058901Y0078700D01*
X0062200Y0101400D02*
X0062000Y0101600D01*
Y0102000D01*
X0062200Y0102200D01*
X0063000D01*
X0063200Y0102000D01*
Y0101600D01*
X0063000Y0101400D01*
X0062000Y0100201D02*
X0062200Y0100601D01*
X0062600Y0101000D01*
X0063000D01*
X0063200Y0100800D01*
Y0100401D01*
X0063000Y0100201D01*
X0062800D01*
X0062600Y0100401D01*
Y0101000D01*
X0063200Y0099801D02*
Y0099401D01*
Y0099601D01*
X0062000D01*
X0062200Y0099801D01*
X0062000Y0086700D02*
X0061800Y0086900D01*
Y0087300D01*
X0062000Y0087500D01*
X0062800D01*
X0063000Y0087300D01*
Y0086900D01*
X0062800Y0086700D01*
X0061800Y0085501D02*
X0062000Y0085901D01*
X0062400Y0086300D01*
X0062800D01*
X0063000Y0086100D01*
Y0085701D01*
X0062800Y0085501D01*
X0062600D01*
X0062400Y0085701D01*
Y0086300D01*
X0063000Y0084501D02*
X0061800D01*
X0062400Y0085101D01*
Y0084301D01*
X0060400Y0100500D02*
X0060600Y0100700D01*
X0061000D01*
X0061200Y0100500D01*
Y0099700D01*
X0061000Y0099500D01*
X0060600D01*
X0060400Y0099700D01*
X0059201Y0100700D02*
X0059601Y0100500D01*
X0060000Y0100100D01*
Y0099700D01*
X0059800Y0099500D01*
X0059401D01*
X0059201Y0099700D01*
Y0099900D01*
X0059401Y0100100D01*
X0060000D01*
X0058801Y0100500D02*
X0058601Y0100700D01*
X0058201D01*
X0058001Y0100500D01*
Y0099700D01*
X0058201Y0099500D01*
X0058601D01*
X0058801Y0099700D01*
Y0100500D01*
X0060400Y0085000D02*
X0060600Y0085200D01*
X0061000D01*
X0061200Y0085000D01*
Y0084200D01*
X0061000Y0084000D01*
X0060600D01*
X0060400Y0084200D01*
X0059201Y0085200D02*
X0059601Y0085000D01*
X0060000Y0084600D01*
Y0084200D01*
X0059800Y0084000D01*
X0059401D01*
X0059201Y0084200D01*
Y0084400D01*
X0059401Y0084600D01*
X0060000D01*
X0058801Y0085000D02*
X0058601Y0085200D01*
X0058201D01*
X0058001Y0085000D01*
Y0084800D01*
X0058201Y0084600D01*
X0058401D01*
X0058201D01*
X0058001Y0084400D01*
Y0084200D01*
X0058201Y0084000D01*
X0058601D01*
X0058801Y0084200D01*
X0077000Y0065700D02*
X0076800Y0065900D01*
Y0066300D01*
X0077000Y0066500D01*
X0077800D01*
X0078000Y0066300D01*
Y0065900D01*
X0077800Y0065700D01*
X0078000Y0064701D02*
X0076800D01*
X0077400Y0065300D01*
Y0064501D01*
X0077800Y0064101D02*
X0078000Y0063901D01*
Y0063501D01*
X0077800Y0063301D01*
X0077000D01*
X0076800Y0063501D01*
Y0063901D01*
X0077000Y0064101D01*
X0077200D01*
X0077400Y0063901D01*
Y0063301D01*
X0075000Y0065700D02*
X0074800Y0065900D01*
Y0066300D01*
X0075000Y0066500D01*
X0075800D01*
X0076000Y0066300D01*
Y0065900D01*
X0075800Y0065700D01*
X0076000Y0064701D02*
X0074800D01*
X0075400Y0065300D01*
Y0064501D01*
X0075000Y0064101D02*
X0074800Y0063901D01*
Y0063501D01*
X0075000Y0063301D01*
X0075200D01*
X0075400Y0063501D01*
X0075600Y0063301D01*
X0075800D01*
X0076000Y0063501D01*
Y0063901D01*
X0075800Y0064101D01*
X0075600D01*
X0075400Y0063901D01*
X0075200Y0064101D01*
X0075000D01*
X0075400Y0063901D02*
Y0063501D01*
X0071000Y0065700D02*
X0070800Y0065900D01*
Y0066300D01*
X0071000Y0066500D01*
X0071800D01*
X0072000Y0066300D01*
Y0065900D01*
X0071800Y0065700D01*
X0072000Y0064701D02*
X0070800D01*
X0071400Y0065300D01*
Y0064501D01*
X0070800Y0063301D02*
X0071000Y0063701D01*
X0071400Y0064101D01*
X0071800D01*
X0072000Y0063901D01*
Y0063501D01*
X0071800Y0063301D01*
X0071600D01*
X0071400Y0063501D01*
Y0064101D01*
X0053200Y0128800D02*
X0053400Y0129000D01*
X0053800D01*
X0054000Y0128800D01*
Y0128000D01*
X0053800Y0127800D01*
X0053400D01*
X0053200Y0128000D01*
X0052001Y0127800D02*
X0052800D01*
X0052001Y0128600D01*
Y0128800D01*
X0052201Y0129000D01*
X0052600D01*
X0052800Y0128800D01*
X0053200Y0124800D02*
X0053400Y0125000D01*
X0053800D01*
X0054000Y0124800D01*
Y0124000D01*
X0053800Y0123800D01*
X0053400D01*
X0053200Y0124000D01*
X0052800Y0124800D02*
X0052600Y0125000D01*
X0052201D01*
X0052001Y0124800D01*
Y0124600D01*
X0052201Y0124400D01*
X0052401D01*
X0052201D01*
X0052001Y0124200D01*
Y0124000D01*
X0052201Y0123800D01*
X0052600D01*
X0052800Y0124000D01*
X0053200Y0120800D02*
X0053400Y0121000D01*
X0053800D01*
X0054000Y0120800D01*
Y0120000D01*
X0053800Y0119800D01*
X0053400D01*
X0053200Y0120000D01*
X0052201Y0119800D02*
Y0121000D01*
X0052800Y0120400D01*
X0052001D01*
X0053200Y0116800D02*
X0053400Y0117000D01*
X0053800D01*
X0054000Y0116800D01*
Y0116000D01*
X0053800Y0115800D01*
X0053400D01*
X0053200Y0116000D01*
X0052001Y0117000D02*
X0052800D01*
Y0116400D01*
X0052401Y0116600D01*
X0052201D01*
X0052001Y0116400D01*
Y0116000D01*
X0052201Y0115800D01*
X0052600D01*
X0052800Y0116000D01*
X0048500Y0133700D02*
X0048300Y0133900D01*
Y0134300D01*
X0048500Y0134500D01*
X0049300D01*
X0049500Y0134300D01*
Y0133900D01*
X0049300Y0133700D01*
X0049500Y0133300D02*
Y0132901D01*
Y0133100D01*
X0048300D01*
X0048500Y0133300D01*
X0049500Y0131701D02*
X0048300D01*
X0048900Y0132301D01*
Y0131501D01*
X0048500Y0130200D02*
X0048300Y0130400D01*
Y0130800D01*
X0048500Y0131000D01*
X0049300D01*
X0049500Y0130800D01*
Y0130400D01*
X0049300Y0130200D01*
X0049500Y0129800D02*
Y0129401D01*
Y0129600D01*
X0048300D01*
X0048500Y0129800D01*
X0048300Y0128001D02*
Y0128801D01*
X0048900D01*
X0048700Y0128401D01*
Y0128201D01*
X0048900Y0128001D01*
X0049300D01*
X0049500Y0128201D01*
Y0128601D01*
X0049300Y0128801D01*
X0048500Y0109700D02*
X0048300Y0109900D01*
Y0110300D01*
X0048500Y0110500D01*
X0049300D01*
X0049500Y0110300D01*
Y0109900D01*
X0049300Y0109700D01*
X0049500Y0109300D02*
Y0108901D01*
Y0109100D01*
X0048300D01*
X0048500Y0109300D01*
X0048300Y0107501D02*
X0048500Y0107901D01*
X0048900Y0108301D01*
X0049300D01*
X0049500Y0108101D01*
Y0107701D01*
X0049300Y0107501D01*
X0049100D01*
X0048900Y0107701D01*
Y0108301D01*
X0048500Y0105700D02*
X0048300Y0105900D01*
Y0106300D01*
X0048500Y0106500D01*
X0049300D01*
X0049500Y0106300D01*
Y0105900D01*
X0049300Y0105700D01*
X0049500Y0105300D02*
Y0104901D01*
Y0105100D01*
X0048300D01*
X0048500Y0105300D01*
X0048300Y0104301D02*
Y0103501D01*
X0048500D01*
X0049300Y0104301D01*
X0049500D01*
X0077500Y0116200D02*
X0077300Y0116400D01*
Y0116800D01*
X0077500Y0117000D01*
X0078300D01*
X0078500Y0116800D01*
Y0116400D01*
X0078300Y0116200D01*
X0078500Y0115800D02*
Y0115401D01*
Y0115600D01*
X0077300D01*
X0077500Y0115800D01*
Y0114801D02*
X0077300Y0114601D01*
Y0114201D01*
X0077500Y0114001D01*
X0077700D01*
X0077900Y0114201D01*
X0078100Y0114001D01*
X0078300D01*
X0078500Y0114201D01*
Y0114601D01*
X0078300Y0114801D01*
X0078100D01*
X0077900Y0114601D01*
X0077700Y0114801D01*
X0077500D01*
X0077900Y0114601D02*
Y0114201D01*
X0075500Y0116200D02*
X0075300Y0116400D01*
Y0116800D01*
X0075500Y0117000D01*
X0076300D01*
X0076500Y0116800D01*
Y0116400D01*
X0076300Y0116200D01*
X0076500Y0115800D02*
Y0115401D01*
Y0115600D01*
X0075300D01*
X0075500Y0115800D01*
X0076300Y0114801D02*
X0076500Y0114601D01*
Y0114201D01*
X0076300Y0114001D01*
X0075500D01*
X0075300Y0114201D01*
Y0114601D01*
X0075500Y0114801D01*
X0075700D01*
X0075900Y0114601D01*
Y0114001D01*
X0073500Y0116200D02*
X0073300Y0116400D01*
Y0116800D01*
X0073500Y0117000D01*
X0074300D01*
X0074500Y0116800D01*
Y0116400D01*
X0074300Y0116200D01*
X0074500Y0115001D02*
Y0115800D01*
X0073700Y0115001D01*
X0073500D01*
X0073300Y0115201D01*
Y0115600D01*
X0073500Y0115800D01*
Y0114601D02*
X0073300Y0114401D01*
Y0114001D01*
X0073500Y0113801D01*
X0074300D01*
X0074500Y0114001D01*
Y0114401D01*
X0074300Y0114601D01*
X0073500D01*
X0071500Y0116200D02*
X0071300Y0116400D01*
Y0116800D01*
X0071500Y0117000D01*
X0072300D01*
X0072500Y0116800D01*
Y0116400D01*
X0072300Y0116200D01*
X0072500Y0115001D02*
Y0115800D01*
X0071700Y0115001D01*
X0071500D01*
X0071300Y0115201D01*
Y0115600D01*
X0071500Y0115800D01*
X0072500Y0114601D02*
Y0114201D01*
Y0114401D01*
X0071300D01*
X0071500Y0114601D01*
X0069500Y0116200D02*
X0069300Y0116400D01*
Y0116800D01*
X0069500Y0117000D01*
X0070300D01*
X0070500Y0116800D01*
Y0116400D01*
X0070300Y0116200D01*
X0070500Y0115001D02*
Y0115800D01*
X0069700Y0115001D01*
X0069500D01*
X0069300Y0115201D01*
Y0115600D01*
X0069500Y0115800D01*
X0070500Y0113801D02*
Y0114601D01*
X0069700Y0113801D01*
X0069500D01*
X0069300Y0114001D01*
Y0114401D01*
X0069500Y0114601D01*
X0067500Y0116200D02*
X0067300Y0116400D01*
Y0116800D01*
X0067500Y0117000D01*
X0068300D01*
X0068500Y0116800D01*
Y0116400D01*
X0068300Y0116200D01*
X0068500Y0115001D02*
Y0115800D01*
X0067700Y0115001D01*
X0067500D01*
X0067300Y0115201D01*
Y0115600D01*
X0067500Y0115800D01*
Y0114601D02*
X0067300Y0114401D01*
Y0114001D01*
X0067500Y0113801D01*
X0067700D01*
X0067900Y0114001D01*
Y0114201D01*
Y0114001D01*
X0068100Y0113801D01*
X0068300D01*
X0068500Y0114001D01*
Y0114401D01*
X0068300Y0114601D01*
X0065500Y0116200D02*
X0065300Y0116400D01*
Y0116800D01*
X0065500Y0117000D01*
X0066300D01*
X0066500Y0116800D01*
Y0116400D01*
X0066300Y0116200D01*
X0066500Y0115001D02*
Y0115800D01*
X0065700Y0115001D01*
X0065500D01*
X0065300Y0115201D01*
Y0115600D01*
X0065500Y0115800D01*
X0066500Y0114001D02*
X0065300D01*
X0065900Y0114601D01*
Y0113801D01*
X0063500Y0116200D02*
X0063300Y0116400D01*
Y0116800D01*
X0063500Y0117000D01*
X0064300D01*
X0064500Y0116800D01*
Y0116400D01*
X0064300Y0116200D01*
X0064500Y0115001D02*
Y0115800D01*
X0063700Y0115001D01*
X0063500D01*
X0063300Y0115201D01*
Y0115600D01*
X0063500Y0115800D01*
X0063300Y0113801D02*
Y0114601D01*
X0063900D01*
X0063700Y0114201D01*
Y0114001D01*
X0063900Y0113801D01*
X0064300D01*
X0064500Y0114001D01*
Y0114401D01*
X0064300Y0114601D01*
X0053500Y0066500D02*
X0053700Y0066700D01*
X0054100D01*
X0054300Y0066500D01*
Y0065700D01*
X0054100Y0065500D01*
X0053700D01*
X0053500Y0065700D01*
X0052301Y0065500D02*
X0053100D01*
X0052301Y0066300D01*
Y0066500D01*
X0052501Y0066700D01*
X0052900D01*
X0053100Y0066500D01*
X0051101Y0066700D02*
X0051501Y0066500D01*
X0051901Y0066100D01*
Y0065700D01*
X0051701Y0065500D01*
X0051301D01*
X0051101Y0065700D01*
Y0065900D01*
X0051301Y0066100D01*
X0051901D01*
X0053400Y0062500D02*
X0053600Y0062700D01*
X0054000D01*
X0054200Y0062500D01*
Y0061700D01*
X0054000Y0061500D01*
X0053600D01*
X0053400Y0061700D01*
X0052201Y0061500D02*
X0053000D01*
X0052201Y0062300D01*
Y0062500D01*
X0052401Y0062700D01*
X0052800D01*
X0053000Y0062500D01*
X0051801Y0062700D02*
X0051001D01*
Y0062500D01*
X0051801Y0061700D01*
Y0061500D01*
X0053500Y0058500D02*
X0053700Y0058700D01*
X0054100D01*
X0054300Y0058500D01*
Y0057700D01*
X0054100Y0057500D01*
X0053700D01*
X0053500Y0057700D01*
X0052301Y0057500D02*
X0053100D01*
X0052301Y0058300D01*
Y0058500D01*
X0052501Y0058700D01*
X0052900D01*
X0053100Y0058500D01*
X0051901D02*
X0051701Y0058700D01*
X0051301D01*
X0051101Y0058500D01*
Y0058300D01*
X0051301Y0058100D01*
X0051101Y0057900D01*
Y0057700D01*
X0051301Y0057500D01*
X0051701D01*
X0051901Y0057700D01*
Y0057900D01*
X0051701Y0058100D01*
X0051901Y0058300D01*
Y0058500D01*
X0051701Y0058100D02*
X0051301D01*
X0053600Y0054300D02*
X0053800Y0054500D01*
X0054200D01*
X0054400Y0054300D01*
Y0053500D01*
X0054200Y0053300D01*
X0053800D01*
X0053600Y0053500D01*
X0052401Y0053300D02*
X0053200D01*
X0052401Y0054100D01*
Y0054300D01*
X0052601Y0054500D01*
X0053000D01*
X0053200Y0054300D01*
X0052001Y0053500D02*
X0051801Y0053300D01*
X0051401D01*
X0051201Y0053500D01*
Y0054300D01*
X0051401Y0054500D01*
X0051801D01*
X0052001Y0054300D01*
Y0054100D01*
X0051801Y0053900D01*
X0051201D01*
X0048500Y0075700D02*
X0048300Y0075900D01*
Y0076300D01*
X0048500Y0076500D01*
X0049300D01*
X0049500Y0076300D01*
Y0075900D01*
X0049300Y0075700D01*
X0048500Y0075300D02*
X0048300Y0075100D01*
Y0074701D01*
X0048500Y0074501D01*
X0048700D01*
X0048900Y0074701D01*
Y0074901D01*
Y0074701D01*
X0049100Y0074501D01*
X0049300D01*
X0049500Y0074701D01*
Y0075100D01*
X0049300Y0075300D01*
X0048500Y0074101D02*
X0048300Y0073901D01*
Y0073501D01*
X0048500Y0073301D01*
X0048700D01*
X0048900Y0073501D01*
X0049100Y0073301D01*
X0049300D01*
X0049500Y0073501D01*
Y0073901D01*
X0049300Y0074101D01*
X0049100D01*
X0048900Y0073901D01*
X0048700Y0074101D01*
X0048500D01*
X0048900Y0073901D02*
Y0073501D01*
X0048500Y0071700D02*
X0048300Y0071900D01*
Y0072300D01*
X0048500Y0072500D01*
X0049300D01*
X0049500Y0072300D01*
Y0071900D01*
X0049300Y0071700D01*
X0048500Y0071300D02*
X0048300Y0071100D01*
Y0070701D01*
X0048500Y0070501D01*
X0048700D01*
X0048900Y0070701D01*
Y0070901D01*
Y0070701D01*
X0049100Y0070501D01*
X0049300D01*
X0049500Y0070701D01*
Y0071100D01*
X0049300Y0071300D01*
Y0070101D02*
X0049500Y0069901D01*
Y0069501D01*
X0049300Y0069301D01*
X0048500D01*
X0048300Y0069501D01*
Y0069901D01*
X0048500Y0070101D01*
X0048700D01*
X0048900Y0069901D01*
Y0069301D01*
X0048500Y0051700D02*
X0048300Y0051900D01*
Y0052300D01*
X0048500Y0052500D01*
X0049300D01*
X0049500Y0052300D01*
Y0051900D01*
X0049300Y0051700D01*
X0049500Y0050701D02*
X0048300D01*
X0048900Y0051300D01*
Y0050501D01*
X0048500Y0050101D02*
X0048300Y0049901D01*
Y0049501D01*
X0048500Y0049301D01*
X0049300D01*
X0049500Y0049501D01*
Y0049901D01*
X0049300Y0050101D01*
X0048500D01*
Y0047700D02*
X0048300Y0047900D01*
Y0048300D01*
X0048500Y0048500D01*
X0049300D01*
X0049500Y0048300D01*
Y0047900D01*
X0049300Y0047700D01*
X0049500Y0046701D02*
X0048300D01*
X0048900Y0047300D01*
Y0046501D01*
X0049500Y0046101D02*
Y0045701D01*
Y0045901D01*
X0048300D01*
X0048500Y0046101D01*
X0063000Y0065700D02*
X0062800Y0065900D01*
Y0066300D01*
X0063000Y0066500D01*
X0063800D01*
X0064000Y0066300D01*
Y0065900D01*
X0063800Y0065700D01*
X0064000Y0064701D02*
X0062800D01*
X0063400Y0065300D01*
Y0064501D01*
X0064000Y0063301D02*
Y0064101D01*
X0063200Y0063301D01*
X0063000D01*
X0062800Y0063501D01*
Y0063901D01*
X0063000Y0064101D01*
X0065000Y0065700D02*
X0064800Y0065900D01*
Y0066300D01*
X0065000Y0066500D01*
X0065800D01*
X0066000Y0066300D01*
Y0065900D01*
X0065800Y0065700D01*
X0066000Y0064701D02*
X0064800D01*
X0065400Y0065300D01*
Y0064501D01*
X0065000Y0064101D02*
X0064800Y0063901D01*
Y0063501D01*
X0065000Y0063301D01*
X0065200D01*
X0065400Y0063501D01*
Y0063701D01*
Y0063501D01*
X0065600Y0063301D01*
X0065800D01*
X0066000Y0063501D01*
Y0063901D01*
X0065800Y0064101D01*
X0058700Y0112900D02*
X0058900Y0113100D01*
X0059300D01*
X0059500Y0112900D01*
Y0112100D01*
X0059300Y0111900D01*
X0058900D01*
X0058700Y0112100D01*
X0057501Y0113100D02*
X0058300D01*
Y0112500D01*
X0057901Y0112700D01*
X0057701D01*
X0057501Y0112500D01*
Y0112100D01*
X0057701Y0111900D01*
X0058100D01*
X0058300Y0112100D01*
X0057101Y0111900D02*
X0056701D01*
X0056901D01*
Y0113100D01*
X0057101Y0112900D01*
X0069000Y0065700D02*
X0068800Y0065900D01*
Y0066300D01*
X0069000Y0066500D01*
X0069800D01*
X0070000Y0066300D01*
Y0065900D01*
X0069800Y0065700D01*
X0070000Y0064701D02*
X0068800D01*
X0069400Y0065300D01*
Y0064501D01*
X0068800Y0063301D02*
Y0064101D01*
X0069400D01*
X0069200Y0063701D01*
Y0063501D01*
X0069400Y0063301D01*
X0069800D01*
X0070000Y0063501D01*
Y0063901D01*
X0069800Y0064101D01*
X0073000Y0065700D02*
X0072800Y0065900D01*
Y0066300D01*
X0073000Y0066500D01*
X0073800D01*
X0074000Y0066300D01*
Y0065900D01*
X0073800Y0065700D01*
X0074000Y0064701D02*
X0072800D01*
X0073400Y0065300D01*
Y0064501D01*
X0072800Y0064101D02*
Y0063301D01*
X0073000D01*
X0073800Y0064101D01*
X0074000D01*
X0067000Y0065700D02*
X0066800Y0065900D01*
Y0066300D01*
X0067000Y0066500D01*
X0067800D01*
X0068000Y0066300D01*
Y0065900D01*
X0067800Y0065700D01*
X0068000Y0064701D02*
X0066800D01*
X0067400Y0065300D01*
Y0064501D01*
X0068000Y0063501D02*
X0066800D01*
X0067400Y0064101D01*
Y0063301D01*
X0075200Y0105000D02*
X0075400Y0105200D01*
X0075800D01*
X0076000Y0105000D01*
Y0104200D01*
X0075800Y0104000D01*
X0075400D01*
X0075200Y0104200D01*
X0074800Y0105200D02*
X0074001D01*
Y0105000D01*
X0074800Y0104200D01*
Y0104000D01*
X0073601Y0105000D02*
X0073401Y0105200D01*
X0073001D01*
X0072801Y0105000D01*
Y0104200D01*
X0073001Y0104000D01*
X0073401D01*
X0073601Y0104200D01*
Y0105000D01*
X0069700Y0104300D02*
X0069900Y0104500D01*
X0070300D01*
X0070500Y0104300D01*
Y0103500D01*
X0070300Y0103300D01*
X0069900D01*
X0069700Y0103500D01*
X0069300Y0104500D02*
X0068501D01*
Y0104300D01*
X0069300Y0103500D01*
Y0103300D01*
X0068101D02*
X0067701D01*
X0067901D01*
Y0104500D01*
X0068101Y0104300D01*
X0076200Y0098500D02*
X0076400Y0098700D01*
X0076800D01*
X0077000Y0098500D01*
Y0097700D01*
X0076800Y0097500D01*
X0076400D01*
X0076200Y0097700D01*
X0075800Y0098700D02*
X0075001D01*
Y0098500D01*
X0075800Y0097700D01*
Y0097500D01*
X0073801D02*
X0074601D01*
X0073801Y0098300D01*
Y0098500D01*
X0074001Y0098700D01*
X0074401D01*
X0074601Y0098500D01*
X0067900Y0094000D02*
X0068100Y0094200D01*
X0068500D01*
X0068700Y0094000D01*
Y0093200D01*
X0068500Y0093000D01*
X0068100D01*
X0067900Y0093200D01*
X0067500Y0094200D02*
X0066701D01*
Y0094000D01*
X0067500Y0093200D01*
Y0093000D01*
X0066301Y0094000D02*
X0066101Y0094200D01*
X0065701D01*
X0065501Y0094000D01*
Y0093800D01*
X0065701Y0093600D01*
X0065901D01*
X0065701D01*
X0065501Y0093400D01*
Y0093200D01*
X0065701Y0093000D01*
X0066101D01*
X0066301Y0093200D01*
X0078300Y0095200D02*
X0078500Y0095400D01*
X0078900D01*
X0079100Y0095200D01*
Y0094400D01*
X0078900Y0094200D01*
X0078500D01*
X0078300Y0094400D01*
X0077900Y0095400D02*
X0077101D01*
Y0095200D01*
X0077900Y0094400D01*
Y0094200D01*
X0076101D02*
Y0095400D01*
X0076701Y0094800D01*
X0075901D01*
X0044500Y0134500D02*
Y0135700D01*
X0043900D01*
X0043700Y0135500D01*
Y0135100D01*
X0043900Y0134900D01*
X0044500D01*
X0044100D02*
X0043700Y0134500D01*
X0043300D02*
X0042901D01*
X0043100D01*
Y0135700D01*
X0043300Y0135500D01*
X0047500Y0130000D02*
Y0131200D01*
X0046900D01*
X0046700Y0131000D01*
Y0130600D01*
X0046900Y0130400D01*
X0047500D01*
X0047100D02*
X0046700Y0130000D01*
X0045501D02*
X0046300D01*
X0045501Y0130800D01*
Y0131000D01*
X0045701Y0131200D01*
X0046100D01*
X0046300Y0131000D01*
X0045000Y0132500D02*
Y0133700D01*
X0044400D01*
X0044200Y0133500D01*
Y0133100D01*
X0044400Y0132900D01*
X0045000D01*
X0044600D02*
X0044200Y0132500D01*
X0043800Y0133500D02*
X0043600Y0133700D01*
X0043201D01*
X0043001Y0133500D01*
Y0133300D01*
X0043201Y0133100D01*
X0043401D01*
X0043201D01*
X0043001Y0132900D01*
Y0132700D01*
X0043201Y0132500D01*
X0043600D01*
X0043800Y0132700D01*
X0047500Y0128000D02*
Y0129200D01*
X0046900D01*
X0046700Y0129000D01*
Y0128600D01*
X0046900Y0128400D01*
X0047500D01*
X0047100D02*
X0046700Y0128000D01*
X0045701D02*
Y0129200D01*
X0046300Y0128600D01*
X0045501D01*
X0045000Y0130500D02*
Y0131700D01*
X0044400D01*
X0044200Y0131500D01*
Y0131100D01*
X0044400Y0130900D01*
X0045000D01*
X0044600D02*
X0044200Y0130500D01*
X0043001Y0131700D02*
X0043800D01*
Y0131100D01*
X0043401Y0131300D01*
X0043201D01*
X0043001Y0131100D01*
Y0130700D01*
X0043201Y0130500D01*
X0043600D01*
X0043800Y0130700D01*
X0047500Y0109500D02*
Y0110700D01*
X0046900D01*
X0046700Y0110500D01*
Y0110100D01*
X0046900Y0109900D01*
X0047500D01*
X0047100D02*
X0046700Y0109500D01*
X0045501Y0110700D02*
X0045901Y0110500D01*
X0046300Y0110100D01*
Y0109700D01*
X0046100Y0109500D01*
X0045701D01*
X0045501Y0109700D01*
Y0109900D01*
X0045701Y0110100D01*
X0046300D01*
X0045000Y0128500D02*
Y0129700D01*
X0044400D01*
X0044200Y0129500D01*
Y0129100D01*
X0044400Y0128900D01*
X0045000D01*
X0044600D02*
X0044200Y0128500D01*
X0043800Y0129700D02*
X0043001D01*
Y0129500D01*
X0043800Y0128700D01*
Y0128500D01*
X0047500Y0107500D02*
Y0108700D01*
X0046900D01*
X0046700Y0108500D01*
Y0108100D01*
X0046900Y0107900D01*
X0047500D01*
X0047100D02*
X0046700Y0107500D01*
X0046300Y0108500D02*
X0046100Y0108700D01*
X0045701D01*
X0045501Y0108500D01*
Y0108300D01*
X0045701Y0108100D01*
X0045501Y0107900D01*
Y0107700D01*
X0045701Y0107500D01*
X0046100D01*
X0046300Y0107700D01*
Y0107900D01*
X0046100Y0108100D01*
X0046300Y0108300D01*
Y0108500D01*
X0046100Y0108100D02*
X0045701D01*
X0046500Y0075500D02*
Y0076700D01*
X0045900D01*
X0045700Y0076500D01*
Y0076100D01*
X0045900Y0075900D01*
X0046500D01*
X0046100D02*
X0045700Y0075500D01*
X0045300Y0076500D02*
X0045100Y0076700D01*
X0044701D01*
X0044501Y0076500D01*
Y0076300D01*
X0044701Y0076100D01*
X0044901D01*
X0044701D01*
X0044501Y0075900D01*
Y0075700D01*
X0044701Y0075500D01*
X0045100D01*
X0045300Y0075700D01*
X0044101Y0076500D02*
X0043901Y0076700D01*
X0043501D01*
X0043301Y0076500D01*
Y0076300D01*
X0043501Y0076100D01*
X0043701D01*
X0043501D01*
X0043301Y0075900D01*
Y0075700D01*
X0043501Y0075500D01*
X0043901D01*
X0044101Y0075700D01*
X0047500Y0073500D02*
Y0074700D01*
X0046900D01*
X0046700Y0074500D01*
Y0074100D01*
X0046900Y0073900D01*
X0047500D01*
X0047100D02*
X0046700Y0073500D01*
X0046300Y0074500D02*
X0046100Y0074700D01*
X0045701D01*
X0045501Y0074500D01*
Y0074300D01*
X0045701Y0074100D01*
X0045901D01*
X0045701D01*
X0045501Y0073900D01*
Y0073700D01*
X0045701Y0073500D01*
X0046100D01*
X0046300Y0073700D01*
X0044501Y0073500D02*
Y0074700D01*
X0045101Y0074100D01*
X0044301D01*
X0046500Y0071500D02*
Y0072700D01*
X0045900D01*
X0045700Y0072500D01*
Y0072100D01*
X0045900Y0071900D01*
X0046500D01*
X0046100D02*
X0045700Y0071500D01*
X0045300Y0072500D02*
X0045100Y0072700D01*
X0044701D01*
X0044501Y0072500D01*
Y0072300D01*
X0044701Y0072100D01*
X0044901D01*
X0044701D01*
X0044501Y0071900D01*
Y0071700D01*
X0044701Y0071500D01*
X0045100D01*
X0045300Y0071700D01*
X0043301Y0072700D02*
X0044101D01*
Y0072100D01*
X0043701Y0072300D01*
X0043501D01*
X0043301Y0072100D01*
Y0071700D01*
X0043501Y0071500D01*
X0043901D01*
X0044101Y0071700D01*
X0047500Y0069500D02*
Y0070700D01*
X0046900D01*
X0046700Y0070500D01*
Y0070100D01*
X0046900Y0069900D01*
X0047500D01*
X0047100D02*
X0046700Y0069500D01*
X0046300Y0070500D02*
X0046100Y0070700D01*
X0045701D01*
X0045501Y0070500D01*
Y0070300D01*
X0045701Y0070100D01*
X0045901D01*
X0045701D01*
X0045501Y0069900D01*
Y0069700D01*
X0045701Y0069500D01*
X0046100D01*
X0046300Y0069700D01*
X0044301Y0070700D02*
X0044701Y0070500D01*
X0045101Y0070100D01*
Y0069700D01*
X0044901Y0069500D01*
X0044501D01*
X0044301Y0069700D01*
Y0069900D01*
X0044501Y0070100D01*
X0045101D01*
X0045000Y0051500D02*
Y0052700D01*
X0044400D01*
X0044200Y0052500D01*
Y0052100D01*
X0044400Y0051900D01*
X0045000D01*
X0044600D02*
X0044200Y0051500D01*
X0043800Y0052500D02*
X0043600Y0052700D01*
X0043201D01*
X0043001Y0052500D01*
Y0052300D01*
X0043201Y0052100D01*
X0043401D01*
X0043201D01*
X0043001Y0051900D01*
Y0051700D01*
X0043201Y0051500D01*
X0043600D01*
X0043800Y0051700D01*
X0042601Y0052700D02*
X0041801D01*
Y0052500D01*
X0042601Y0051700D01*
Y0051500D01*
X0047500Y0049800D02*
Y0051000D01*
X0046900D01*
X0046700Y0050800D01*
Y0050400D01*
X0046900Y0050200D01*
X0047500D01*
X0047100D02*
X0046700Y0049800D01*
X0046300Y0050800D02*
X0046100Y0051000D01*
X0045701D01*
X0045501Y0050800D01*
Y0050600D01*
X0045701Y0050400D01*
X0045901D01*
X0045701D01*
X0045501Y0050200D01*
Y0050000D01*
X0045701Y0049800D01*
X0046100D01*
X0046300Y0050000D01*
X0045101Y0050800D02*
X0044901Y0051000D01*
X0044501D01*
X0044301Y0050800D01*
Y0050600D01*
X0044501Y0050400D01*
X0044301Y0050200D01*
Y0050000D01*
X0044501Y0049800D01*
X0044901D01*
X0045101Y0050000D01*
Y0050200D01*
X0044901Y0050400D01*
X0045101Y0050600D01*
Y0050800D01*
X0044901Y0050400D02*
X0044501D01*
X0044500Y0048000D02*
Y0049200D01*
X0043900D01*
X0043700Y0049000D01*
Y0048600D01*
X0043900Y0048400D01*
X0044500D01*
X0044100D02*
X0043700Y0048000D01*
X0043300Y0049000D02*
X0043100Y0049200D01*
X0042701D01*
X0042501Y0049000D01*
Y0048800D01*
X0042701Y0048600D01*
X0042901D01*
X0042701D01*
X0042501Y0048400D01*
Y0048200D01*
X0042701Y0048000D01*
X0043100D01*
X0043300Y0048200D01*
X0042101D02*
X0041901Y0048000D01*
X0041501D01*
X0041301Y0048200D01*
Y0049000D01*
X0041501Y0049200D01*
X0041901D01*
X0042101Y0049000D01*
Y0048800D01*
X0041901Y0048600D01*
X0041301D01*
X0047500Y0046300D02*
Y0047500D01*
X0046900D01*
X0046700Y0047300D01*
Y0046900D01*
X0046900Y0046700D01*
X0047500D01*
X0047100D02*
X0046700Y0046300D01*
X0045701D02*
Y0047500D01*
X0046300Y0046900D01*
X0045501D01*
X0045101Y0047300D02*
X0044901Y0047500D01*
X0044501D01*
X0044301Y0047300D01*
Y0046500D01*
X0044501Y0046300D01*
X0044901D01*
X0045101Y0046500D01*
Y0047300D01*
X0060200Y0055500D02*
X0060400Y0055700D01*
X0060800D01*
X0061000Y0055500D01*
Y0054700D01*
X0060800Y0054500D01*
X0060400D01*
X0060200Y0054700D01*
X0059001Y0055700D02*
X0059800D01*
Y0055100D01*
X0059401Y0055300D01*
X0059201D01*
X0059001Y0055100D01*
Y0054700D01*
X0059201Y0054500D01*
X0059600D01*
X0059800Y0054700D01*
X0058601Y0055500D02*
X0058401Y0055700D01*
X0058001D01*
X0057801Y0055500D01*
Y0055300D01*
X0058001Y0055100D01*
X0058201D01*
X0058001D01*
X0057801Y0054900D01*
Y0054700D01*
X0058001Y0054500D01*
X0058401D01*
X0058601Y0054700D01*
G54D42*
X0065262Y0080454D02*
Y0083502D01*
X0063738Y0080454D02*
Y0083502D01*
Y0080454D02*
X0065262D01*
X0063738Y0083502D02*
X0065262D01*
Y0095954D02*
Y0099002D01*
X0063738Y0095954D02*
Y0099002D01*
Y0095954D02*
X0065262D01*
X0063738Y0099002D02*
X0065262D01*
X0052098Y0110762D02*
X0055146D01*
X0052098Y0109238D02*
X0055146D01*
Y0110762D01*
X0052098Y0109238D02*
Y0110762D01*
M02*
