M48
;Layer_Color=9474304
;FILE_FORMAT=4:3
METRIC
;TYPE=PLATED
T1F00S00C0.300
T2F00S00C0.400
T3F00S00C0.700
T4F00S00C0.800
T5F00S00C0.900
T6F00S00C1.000
T7F00S00C1.100
T8F00S00C2.300
T9F00S00C2.500
T10F00S00C3.000
%
T01
X0067500Y0079300
X0069500Y0078500
X0071800Y0077500
X0072800
X0073700
X0074700
X0076500Y0078000
X0076500Y0086900
X0077500Y0086500
X0078000Y0085500
X0079000Y0085000
X0079000Y0086500
X0075500Y0087500
X0074200Y0087200
X0073500Y0088000
X0072700Y0087200
X0071800Y0087500
X0070800Y0088500
X0069500
Y0087000
X0067500Y0086500
Y0085500
X0068000Y0084500
X0067500Y0081900
X0068000Y0081000
X0067500Y0080200
X0066500Y0082300
X0066000Y0095000
X0067500
X0068000Y0096500
X0067500Y0097400
X0066500Y0097800
X0068000Y0100000
X0069500Y0102500
X0071800Y0103000
X0072700Y0102700
X0074200
X0073500Y0103500
X0075500Y0103000
X0076500Y0102400
X0077500Y0102000
X0078000Y0101000
X0079000Y0100500
X0076500Y0093500
X0074700Y0093000
X0073700
X0072800
X0071800
X0070500Y0092500
X0069500Y0093000
Y0094000
X0071250Y0104250
X0071500Y0105500
X0080000Y0100000
X0080000Y0086500
X0080000Y0084500
T02
X0046100Y0054000
X0046532Y0056000
X0046100Y0058000
X0046532Y0060000
X0046100Y0062000
X0046532Y0064000
X0046100Y0066000
X0046532Y0068000
X0054500Y0065000
X0057750Y0068250
X0061000Y0065000
X0062000Y0065500
X0059000Y0061500
X0057750Y0061750
X0057750Y0060250
X0054500Y0057000
X0057750Y0053750
X0059000Y0053500
X0061000Y0057000
X0062000Y0057500
X0063500Y0071500
X0065000
X0066500
X0068000
X0070000
X0071500
X0073000
X0074500
Y0109000
X0073000
X0071500
X0070000
X0068000
X0066500
X0065000
X0063500
X0059000Y0112000
X0057750Y0112250
X0061000Y0115500
X0062000Y0116000
X0057750Y0118750
X0054500Y0115500
X0046500Y0114500
X0046100Y0112500
Y0116500
X0046500Y0118500
X0046100Y0120500
X0046500Y0122500
X0046100Y0124500
X0046500Y0126500
X0054500Y0123500
X0057750Y0126750
X0061000Y0123500
X0062000Y0124000
X0059000Y0120000
X0057750Y0120250
T03
X0050500Y0052500
X0057800Y0057000
Y0065000
X0050500Y0080000
X0042000Y0080500
Y0102000
X0050500Y0101300
X0057800Y0115500
X0071000Y0099700
Y0096200
X0074500
Y0099700
X0072800Y0098000
Y0082500
X0074500Y0084200
Y0080700
X0071000
Y0084200
X0080500Y0102500
X0083000Y0124800
X0057800Y0123500
X0050500Y0128000
T04
X0057000Y0091000
T05
X0086892Y0074135
Y0076675
Y0079215
X0088797Y0077945
Y0075405
X0090702Y0076675
Y0079215
X0092607Y0077945
Y0075405
X0090702Y0074135
Y0081755
Y0084295
Y0086835
Y0089375
Y0091915
Y0094455
Y0096995
Y0099535
Y0102075
Y0104615
X0092607Y0105885
Y0103345
Y0100805
Y0098265
Y0095725
Y0093185
Y0090645
Y0088105
Y0085565
Y0083025
Y0080485
X0088797
Y0083025
Y0085565
Y0088105
Y0090645
Y0093185
Y0095725
Y0098265
Y0100805
Y0103345
Y0105885
X0086892Y0104615
Y0102075
Y0099535
Y0096995
Y0094455
Y0091915
Y0089375
Y0086835
Y0084295
Y0081755
T06
X0049000Y0087900
T07
X0034000Y0056150
Y0058450
Y0060750
Y0063050
Y0065350
X0036500Y0064200
Y0061900
Y0059600
Y0057300
Y0055000
X0039000Y0056150
Y0058450
Y0060750
Y0063050
Y0065350
Y0115800
Y0118100
X0036500Y0116950
Y0114650
X0034000Y0115800
Y0118100
Y0120400
Y0122700
Y0125000
X0036500Y0123850
Y0121550
Y0119250
X0039000Y0120400
Y0122700
Y0125000
T08
X0090702Y0070825
Y0109195
T09
X0055000Y0043000
X0075000
X0035000Y0080000
Y0100000
X0055000
Y0080000
Y0137000
X0075000
T10
X0036460Y0048000
Y0073000
Y0107650
Y0132650
M30
