%FSAX43Y43*%
%MOMM*%
G71*
G01*
G75*
G04 Layer_Color=8388736*
%ADD10C,0.200*%
G04:AMPARAMS|DCode=11|XSize=0.8mm|YSize=1mm|CornerRadius=0.08mm|HoleSize=0mm|Usage=FLASHONLY|Rotation=180.000|XOffset=0mm|YOffset=0mm|HoleType=Round|Shape=RoundedRectangle|*
%AMROUNDEDRECTD11*
21,1,0.800,0.840,0,0,180.0*
21,1,0.640,1.000,0,0,180.0*
1,1,0.160,-0.320,0.420*
1,1,0.160,0.320,0.420*
1,1,0.160,0.320,-0.420*
1,1,0.160,-0.320,-0.420*
%
%ADD11ROUNDEDRECTD11*%
%ADD12R,3.048X3.048*%
G04:AMPARAMS|DCode=13|XSize=0.8mm|YSize=1mm|CornerRadius=0.08mm|HoleSize=0mm|Usage=FLASHONLY|Rotation=270.000|XOffset=0mm|YOffset=0mm|HoleType=Round|Shape=RoundedRectangle|*
%AMROUNDEDRECTD13*
21,1,0.800,0.840,0,0,270.0*
21,1,0.640,1.000,0,0,270.0*
1,1,0.160,-0.420,-0.320*
1,1,0.160,-0.420,0.320*
1,1,0.160,0.420,0.320*
1,1,0.160,0.420,-0.320*
%
%ADD13ROUNDEDRECTD13*%
%ADD14R,3.300X2.400*%
%ADD15R,1.000X2.400*%
%ADD16R,5.500X5.500*%
%ADD17R,0.250X0.750*%
%ADD18O,0.250X0.750*%
%ADD19O,0.750X0.250*%
%ADD20R,2.340X2.340*%
%ADD21R,0.900X0.250*%
%ADD22O,0.900X0.250*%
%ADD23O,0.250X0.900*%
%ADD24O,0.762X1.270*%
%ADD25R,0.762X1.270*%
%ADD26C,0.500*%
%ADD27C,0.400*%
%ADD28C,0.175*%
%ADD29C,1.700*%
%ADD30C,4.000*%
%ADD31C,1.524*%
%ADD32C,3.000*%
%ADD33C,0.700*%
%ADD34C,1.500*%
%ADD35C,1.300*%
%ADD36C,0.600*%
%ADD37C,0.800*%
G04:AMPARAMS|DCode=38|XSize=0.8mm|YSize=1mm|CornerRadius=0.08mm|HoleSize=0mm|Usage=FLASHONLY|Rotation=225.000|XOffset=0mm|YOffset=0mm|HoleType=Round|Shape=RoundedRectangle|*
%AMROUNDEDRECTD38*
21,1,0.800,0.840,0,0,225.0*
21,1,0.640,1.000,0,0,225.0*
1,1,0.160,-0.523,0.071*
1,1,0.160,-0.071,0.523*
1,1,0.160,0.523,-0.071*
1,1,0.160,0.071,-0.523*
%
%ADD38ROUNDEDRECTD38*%
G04:AMPARAMS|DCode=39|XSize=1mm|YSize=2mm|CornerRadius=0.1mm|HoleSize=0mm|Usage=FLASHONLY|Rotation=270.000|XOffset=0mm|YOffset=0mm|HoleType=Round|Shape=RoundedRectangle|*
%AMROUNDEDRECTD39*
21,1,1.000,1.800,0,0,270.0*
21,1,0.800,2.000,0,0,270.0*
1,1,0.200,-0.900,-0.400*
1,1,0.200,-0.900,0.400*
1,1,0.200,0.900,0.400*
1,1,0.200,0.900,-0.400*
%
%ADD39ROUNDEDRECTD39*%
G04:AMPARAMS|DCode=40|XSize=1mm|YSize=2mm|CornerRadius=0.1mm|HoleSize=0mm|Usage=FLASHONLY|Rotation=0.000|XOffset=0mm|YOffset=0mm|HoleType=Round|Shape=RoundedRectangle|*
%AMROUNDEDRECTD40*
21,1,1.000,1.800,0,0,0.0*
21,1,0.800,2.000,0,0,0.0*
1,1,0.200,0.400,-0.900*
1,1,0.200,-0.400,-0.900*
1,1,0.200,-0.400,0.900*
1,1,0.200,0.400,0.900*
%
%ADD40ROUNDEDRECTD40*%
%ADD41C,0.250*%
%ADD42C,0.203*%
%ADD43C,0.100*%
%ADD44C,0.254*%
G04:AMPARAMS|DCode=45|XSize=1mm|YSize=1.2mm|CornerRadius=0.18mm|HoleSize=0mm|Usage=FLASHONLY|Rotation=180.000|XOffset=0mm|YOffset=0mm|HoleType=Round|Shape=RoundedRectangle|*
%AMROUNDEDRECTD45*
21,1,1.000,0.840,0,0,180.0*
21,1,0.640,1.200,0,0,180.0*
1,1,0.360,-0.320,0.420*
1,1,0.360,0.320,0.420*
1,1,0.360,0.320,-0.420*
1,1,0.360,-0.320,-0.420*
%
%ADD45ROUNDEDRECTD45*%
%ADD46R,3.248X3.248*%
G04:AMPARAMS|DCode=47|XSize=1mm|YSize=1.2mm|CornerRadius=0.18mm|HoleSize=0mm|Usage=FLASHONLY|Rotation=270.000|XOffset=0mm|YOffset=0mm|HoleType=Round|Shape=RoundedRectangle|*
%AMROUNDEDRECTD47*
21,1,1.000,0.840,0,0,270.0*
21,1,0.640,1.200,0,0,270.0*
1,1,0.360,-0.420,-0.320*
1,1,0.360,-0.420,0.320*
1,1,0.360,0.420,0.320*
1,1,0.360,0.420,-0.320*
%
%ADD47ROUNDEDRECTD47*%
%ADD48R,3.500X2.600*%
%ADD49R,1.200X2.600*%
%ADD50R,5.700X5.700*%
%ADD51R,0.450X0.950*%
%ADD52O,0.450X0.950*%
%ADD53O,0.950X0.450*%
%ADD54R,2.540X2.540*%
%ADD55R,1.100X0.450*%
%ADD56O,1.100X0.450*%
%ADD57O,0.450X1.100*%
%ADD58O,0.962X1.470*%
%ADD59R,0.962X1.470*%
%ADD60C,1.900*%
%ADD61C,4.200*%
%ADD62C,1.724*%
%ADD63C,3.200*%
%ADD64C,0.900*%
%ADD65C,0.800*%
%ADD66C,1.000*%
G54D29*
X0057000Y0091000D02*
D03*
X0049000Y0087900D02*
D03*
G54D34*
X0080500Y0102500D02*
D03*
X0074500Y0084200D02*
D03*
X0042000Y0080500D02*
D03*
X0050500Y0080000D02*
D03*
X0042000Y0102000D02*
D03*
X0071000Y0099700D02*
D03*
X0074500D02*
D03*
Y0096200D02*
D03*
X0071000D02*
D03*
X0072800Y0098000D02*
D03*
Y0082500D02*
D03*
X0050500Y0128000D02*
D03*
Y0052500D02*
D03*
X0057800Y0123500D02*
D03*
Y0115500D02*
D03*
Y0065000D02*
D03*
Y0057000D02*
D03*
X0071000Y0080700D02*
D03*
X0074500D02*
D03*
X0071000Y0084200D02*
D03*
X0050500Y0101300D02*
D03*
X0083000Y0124800D02*
D03*
G54D44*
X0025000Y0040000D02*
Y0140000D01*
Y0040000D02*
X0095000D01*
Y0140000D01*
X0025000D02*
X0095000D01*
G54D45*
X0061200Y0082800D02*
D03*
X0063000D02*
D03*
X0040200Y0083000D02*
D03*
X0042000D02*
D03*
X0045700Y0085500D02*
D03*
X0047500D02*
D03*
X0042000Y0100300D02*
D03*
X0040200D02*
D03*
X0047500Y0096500D02*
D03*
X0045700D02*
D03*
X0063000Y0100000D02*
D03*
X0061200D02*
D03*
Y0084500D02*
D03*
X0063000D02*
D03*
X0079900Y0118800D02*
D03*
X0081700D02*
D03*
X0079300Y0094000D02*
D03*
X0077500D02*
D03*
Y0088000D02*
D03*
X0079300D02*
D03*
Y0078000D02*
D03*
X0077500D02*
D03*
X0061200Y0081000D02*
D03*
X0063000D02*
D03*
X0045300Y0126500D02*
D03*
X0043500D02*
D03*
Y0124500D02*
D03*
X0045300D02*
D03*
Y0122500D02*
D03*
X0043500D02*
D03*
Y0120500D02*
D03*
X0045300D02*
D03*
Y0118500D02*
D03*
X0043500D02*
D03*
Y0116500D02*
D03*
X0045300D02*
D03*
Y0114500D02*
D03*
X0043500D02*
D03*
Y0112500D02*
D03*
X0045300D02*
D03*
Y0068000D02*
D03*
X0043500D02*
D03*
Y0066000D02*
D03*
X0045300D02*
D03*
Y0064000D02*
D03*
X0043500D02*
D03*
Y0062000D02*
D03*
X0045300D02*
D03*
Y0060000D02*
D03*
X0043500D02*
D03*
Y0058000D02*
D03*
X0045300D02*
D03*
Y0056000D02*
D03*
X0043500D02*
D03*
Y0054000D02*
D03*
X0045300D02*
D03*
X0063000Y0096500D02*
D03*
X0061200D02*
D03*
X0077500Y0103500D02*
D03*
X0079300D02*
D03*
X0050000Y0126500D02*
D03*
X0048200D02*
D03*
Y0124500D02*
D03*
X0050000D02*
D03*
Y0122500D02*
D03*
X0048200D02*
D03*
Y0120500D02*
D03*
X0050000D02*
D03*
Y0118500D02*
D03*
X0048200D02*
D03*
Y0116500D02*
D03*
X0050000D02*
D03*
Y0114500D02*
D03*
X0048200D02*
D03*
Y0112500D02*
D03*
X0050000D02*
D03*
X0051700Y0126500D02*
D03*
X0053500D02*
D03*
X0051700Y0124200D02*
D03*
X0053500D02*
D03*
X0051700Y0122800D02*
D03*
X0053500D02*
D03*
X0051700Y0120500D02*
D03*
X0053500D02*
D03*
X0051700Y0118500D02*
D03*
X0053500D02*
D03*
X0051700Y0116200D02*
D03*
X0053500D02*
D03*
X0051700Y0114800D02*
D03*
X0053500D02*
D03*
X0051700Y0112500D02*
D03*
X0053500D02*
D03*
X0050000Y0068000D02*
D03*
X0048200D02*
D03*
Y0066000D02*
D03*
X0050000D02*
D03*
Y0064000D02*
D03*
X0048200D02*
D03*
Y0062000D02*
D03*
X0050000D02*
D03*
Y0060000D02*
D03*
X0048200D02*
D03*
Y0058000D02*
D03*
X0050000D02*
D03*
Y0056000D02*
D03*
X0048200D02*
D03*
Y0054000D02*
D03*
X0050000D02*
D03*
X0051700Y0068000D02*
D03*
X0053500D02*
D03*
X0051700Y0065700D02*
D03*
X0053500D02*
D03*
X0051700Y0064300D02*
D03*
X0053500D02*
D03*
X0051700Y0062000D02*
D03*
X0053500D02*
D03*
X0051700Y0060000D02*
D03*
X0053500D02*
D03*
X0051700Y0057700D02*
D03*
X0053500D02*
D03*
X0051700Y0056300D02*
D03*
X0053500D02*
D03*
X0051700Y0054000D02*
D03*
X0053500D02*
D03*
X0061200Y0098300D02*
D03*
X0063000D02*
D03*
X0075800Y0124500D02*
D03*
X0074000D02*
D03*
G54D46*
X0087100Y0120380D02*
D03*
Y0128000D02*
D03*
G54D47*
X0044000Y0083000D02*
D03*
Y0081200D02*
D03*
X0045690D02*
D03*
Y0083000D02*
D03*
X0047490Y0081200D02*
D03*
Y0083000D02*
D03*
X0043900Y0100300D02*
D03*
Y0098500D02*
D03*
X0045700D02*
D03*
Y0100300D02*
D03*
X0047500Y0098500D02*
D03*
Y0100300D02*
D03*
X0084000Y0129500D02*
D03*
Y0131300D02*
D03*
X0074500Y0112500D02*
D03*
Y0110700D02*
D03*
X0073000Y0110700D02*
D03*
Y0112500D02*
D03*
X0071500Y0112500D02*
D03*
Y0110700D02*
D03*
X0070000D02*
D03*
Y0112500D02*
D03*
X0068000D02*
D03*
Y0110700D02*
D03*
X0066500D02*
D03*
Y0112500D02*
D03*
X0065000D02*
D03*
Y0110700D02*
D03*
X0063500D02*
D03*
Y0112500D02*
D03*
Y0068000D02*
D03*
Y0069800D02*
D03*
X0065000D02*
D03*
Y0068000D02*
D03*
X0066500D02*
D03*
Y0069800D02*
D03*
X0068000D02*
D03*
Y0068000D02*
D03*
X0070000D02*
D03*
Y0069800D02*
D03*
X0071500D02*
D03*
Y0068000D02*
D03*
X0073000D02*
D03*
Y0069800D02*
D03*
X0074500D02*
D03*
Y0068000D02*
D03*
X0075800Y0128300D02*
D03*
Y0126500D02*
D03*
G54D48*
X0080700Y0128300D02*
D03*
G54D49*
X0083000Y0122500D02*
D03*
X0080700D02*
D03*
X0078400D02*
D03*
G54D50*
X0072750Y0082450D02*
D03*
Y0097950D02*
D03*
G54D51*
X0070000Y0079000D02*
D03*
Y0094500D02*
D03*
G54D52*
X0070500Y0079000D02*
D03*
X0071000D02*
D03*
X0071500D02*
D03*
X0072000D02*
D03*
X0072500D02*
D03*
X0073000D02*
D03*
X0073500D02*
D03*
X0074000D02*
D03*
X0074500D02*
D03*
X0075000D02*
D03*
X0075500D02*
D03*
Y0085900D02*
D03*
X0075000D02*
D03*
X0074500D02*
D03*
X0074000D02*
D03*
X0073500D02*
D03*
X0073000D02*
D03*
X0072500D02*
D03*
X0072000D02*
D03*
X0071500D02*
D03*
X0071000D02*
D03*
X0070500D02*
D03*
X0070000D02*
D03*
X0070500Y0094500D02*
D03*
X0071000D02*
D03*
X0071500D02*
D03*
X0072000D02*
D03*
X0072500D02*
D03*
X0073000D02*
D03*
X0073500D02*
D03*
X0074000D02*
D03*
X0074500D02*
D03*
X0075000D02*
D03*
X0075500D02*
D03*
Y0101400D02*
D03*
X0075000D02*
D03*
X0074500D02*
D03*
X0074000D02*
D03*
X0073500D02*
D03*
X0073000D02*
D03*
X0072500D02*
D03*
X0072000D02*
D03*
X0071500D02*
D03*
X0071000D02*
D03*
X0070500D02*
D03*
X0070000D02*
D03*
G54D53*
X0076200Y0079700D02*
D03*
Y0080200D02*
D03*
Y0080700D02*
D03*
Y0081200D02*
D03*
Y0081700D02*
D03*
Y0082200D02*
D03*
Y0082700D02*
D03*
Y0083200D02*
D03*
Y0083700D02*
D03*
Y0084200D02*
D03*
Y0084700D02*
D03*
Y0085200D02*
D03*
X0069294D02*
D03*
Y0084700D02*
D03*
Y0084200D02*
D03*
Y0083700D02*
D03*
Y0083200D02*
D03*
Y0082700D02*
D03*
Y0082200D02*
D03*
Y0081700D02*
D03*
Y0081200D02*
D03*
Y0080700D02*
D03*
Y0080200D02*
D03*
Y0079700D02*
D03*
X0076200Y0095200D02*
D03*
Y0095700D02*
D03*
Y0096200D02*
D03*
Y0096700D02*
D03*
Y0097200D02*
D03*
Y0097700D02*
D03*
Y0098200D02*
D03*
Y0098700D02*
D03*
Y0099200D02*
D03*
Y0099700D02*
D03*
Y0100200D02*
D03*
Y0100700D02*
D03*
X0069294D02*
D03*
Y0100200D02*
D03*
Y0099700D02*
D03*
Y0099200D02*
D03*
Y0098700D02*
D03*
Y0098200D02*
D03*
Y0097700D02*
D03*
Y0097200D02*
D03*
Y0096700D02*
D03*
Y0096200D02*
D03*
Y0095700D02*
D03*
Y0095200D02*
D03*
G54D54*
X0057750Y0057000D02*
D03*
Y0065000D02*
D03*
Y0123500D02*
D03*
Y0115500D02*
D03*
G54D55*
X0055750Y0058250D02*
D03*
Y0066250D02*
D03*
Y0124750D02*
D03*
Y0116750D02*
D03*
G54D56*
Y0057750D02*
D03*
Y0057250D02*
D03*
Y0056750D02*
D03*
Y0056250D02*
D03*
Y0055750D02*
D03*
X0059750D02*
D03*
Y0056250D02*
D03*
Y0056750D02*
D03*
Y0057250D02*
D03*
Y0057750D02*
D03*
Y0058250D02*
D03*
Y0066250D02*
D03*
Y0065750D02*
D03*
Y0065250D02*
D03*
Y0064750D02*
D03*
Y0064250D02*
D03*
Y0063750D02*
D03*
X0055750D02*
D03*
Y0064250D02*
D03*
Y0064750D02*
D03*
Y0065250D02*
D03*
Y0065750D02*
D03*
X0059750Y0124750D02*
D03*
Y0124250D02*
D03*
Y0123750D02*
D03*
Y0123250D02*
D03*
Y0122750D02*
D03*
Y0122250D02*
D03*
X0055750D02*
D03*
Y0122750D02*
D03*
Y0123250D02*
D03*
Y0123750D02*
D03*
Y0124250D02*
D03*
Y0116250D02*
D03*
Y0115750D02*
D03*
Y0115250D02*
D03*
Y0114750D02*
D03*
Y0114250D02*
D03*
X0059750D02*
D03*
Y0114750D02*
D03*
Y0115250D02*
D03*
Y0115750D02*
D03*
Y0116250D02*
D03*
Y0116750D02*
D03*
G54D57*
X0056500Y0055000D02*
D03*
X0057000D02*
D03*
X0057500D02*
D03*
X0058000D02*
D03*
X0058500D02*
D03*
X0059000D02*
D03*
Y0059000D02*
D03*
X0058500D02*
D03*
X0058000D02*
D03*
X0057500D02*
D03*
X0057000D02*
D03*
X0056500D02*
D03*
Y0067000D02*
D03*
X0057000D02*
D03*
X0057500D02*
D03*
X0058000D02*
D03*
X0058500D02*
D03*
X0059000D02*
D03*
Y0063000D02*
D03*
X0058500D02*
D03*
X0058000D02*
D03*
X0057500D02*
D03*
X0057000D02*
D03*
X0056500D02*
D03*
Y0125500D02*
D03*
X0057000D02*
D03*
X0057500D02*
D03*
X0058000D02*
D03*
X0058500D02*
D03*
X0059000D02*
D03*
Y0121500D02*
D03*
X0058500D02*
D03*
X0058000D02*
D03*
X0057500D02*
D03*
X0057000D02*
D03*
X0056500D02*
D03*
Y0113500D02*
D03*
X0057000D02*
D03*
X0057500D02*
D03*
X0058000D02*
D03*
X0058500D02*
D03*
X0059000D02*
D03*
Y0117500D02*
D03*
X0058500D02*
D03*
X0058000D02*
D03*
X0057500D02*
D03*
X0057000D02*
D03*
X0056500D02*
D03*
G54D58*
X0046000Y0087912D02*
D03*
X0044730D02*
D03*
X0043460D02*
D03*
X0042190D02*
D03*
Y0093500D02*
D03*
X0043460D02*
D03*
X0044730D02*
D03*
G54D59*
X0046000D02*
D03*
G54D60*
X0039000Y0125000D02*
D03*
X0036500Y0123850D02*
D03*
X0034000Y0125000D02*
D03*
Y0120400D02*
D03*
X0036500Y0119250D02*
D03*
X0039000Y0120400D02*
D03*
Y0115800D02*
D03*
X0036500Y0114650D02*
D03*
X0034000Y0115800D02*
D03*
Y0118100D02*
D03*
X0036500Y0116950D02*
D03*
X0039000Y0118100D02*
D03*
X0034000Y0122700D02*
D03*
X0036500Y0121550D02*
D03*
X0039000Y0122700D02*
D03*
Y0065350D02*
D03*
X0036500Y0064200D02*
D03*
X0034000Y0065350D02*
D03*
Y0060750D02*
D03*
X0036500Y0059600D02*
D03*
X0039000Y0060750D02*
D03*
Y0056150D02*
D03*
X0036500Y0055000D02*
D03*
X0034000Y0056150D02*
D03*
Y0058450D02*
D03*
X0036500Y0057300D02*
D03*
X0039000Y0058450D02*
D03*
X0034000Y0063050D02*
D03*
X0036500Y0061900D02*
D03*
X0039000Y0063050D02*
D03*
G54D61*
X0036460Y0132650D02*
D03*
Y0107650D02*
D03*
Y0073000D02*
D03*
Y0048000D02*
D03*
G54D62*
X0092607Y0075405D02*
D03*
Y0105885D02*
D03*
Y0103345D02*
D03*
Y0100805D02*
D03*
Y0098265D02*
D03*
Y0095725D02*
D03*
Y0093185D02*
D03*
Y0090645D02*
D03*
Y0088105D02*
D03*
Y0085565D02*
D03*
Y0083025D02*
D03*
Y0080485D02*
D03*
Y0077945D02*
D03*
X0090702Y0076675D02*
D03*
Y0079215D02*
D03*
Y0081755D02*
D03*
Y0084295D02*
D03*
Y0086835D02*
D03*
Y0089375D02*
D03*
Y0091915D02*
D03*
Y0094455D02*
D03*
Y0096995D02*
D03*
Y0099535D02*
D03*
Y0102075D02*
D03*
Y0104615D02*
D03*
Y0074135D02*
D03*
X0086892D02*
D03*
Y0104615D02*
D03*
Y0102075D02*
D03*
Y0099535D02*
D03*
Y0096995D02*
D03*
Y0094455D02*
D03*
Y0091915D02*
D03*
Y0089375D02*
D03*
Y0086835D02*
D03*
Y0084295D02*
D03*
Y0081755D02*
D03*
Y0079215D02*
D03*
Y0076675D02*
D03*
X0088797Y0077945D02*
D03*
Y0080485D02*
D03*
Y0083025D02*
D03*
Y0085565D02*
D03*
Y0088105D02*
D03*
Y0090645D02*
D03*
Y0093185D02*
D03*
Y0095725D02*
D03*
Y0098265D02*
D03*
Y0100805D02*
D03*
Y0103345D02*
D03*
Y0105885D02*
D03*
Y0075405D02*
D03*
G54D63*
X0090702Y0070825D02*
D03*
Y0109195D02*
D03*
X0075000Y0043000D02*
D03*
Y0137000D02*
D03*
X0035000Y0080000D02*
D03*
Y0100000D02*
D03*
X0055000D02*
D03*
Y0080000D02*
D03*
Y0137000D02*
D03*
Y0043000D02*
D03*
G54D64*
X0062000Y0124000D02*
D03*
X0046100Y0054000D02*
D03*
Y0058000D02*
D03*
Y0062000D02*
D03*
Y0066000D02*
D03*
Y0112500D02*
D03*
Y0116500D02*
D03*
Y0120500D02*
D03*
X0046532Y0068000D02*
D03*
Y0060000D02*
D03*
Y0064000D02*
D03*
X0059000Y0120000D02*
D03*
X0062000Y0065500D02*
D03*
X0059000Y0061500D02*
D03*
X0062000Y0057500D02*
D03*
X0059000Y0053500D02*
D03*
X0057750Y0126750D02*
D03*
X0061000Y0123500D02*
D03*
X0057750Y0120250D02*
D03*
X0054500Y0123500D02*
D03*
X0062000Y0116000D02*
D03*
X0059000Y0112000D02*
D03*
X0054500Y0115500D02*
D03*
X0057750Y0112250D02*
D03*
X0061000Y0115500D02*
D03*
X0057750Y0118750D02*
D03*
X0057750Y0061750D02*
D03*
X0061000Y0065000D02*
D03*
X0057750Y0068250D02*
D03*
X0057750Y0053750D02*
D03*
X0061000Y0057000D02*
D03*
X0057750Y0060250D02*
D03*
X0054500Y0057000D02*
D03*
Y0065000D02*
D03*
X0046500Y0126500D02*
D03*
Y0122500D02*
D03*
Y0118500D02*
D03*
Y0114500D02*
D03*
X0046532Y0056000D02*
D03*
X0046100Y0124500D02*
D03*
G54D65*
X0072800Y0093000D02*
D03*
X0073700D02*
D03*
X0080000Y0086500D02*
D03*
X0079000D02*
D03*
X0072700Y0102700D02*
D03*
X0074200D02*
D03*
X0069500Y0093000D02*
D03*
X0070500Y0092500D02*
D03*
X0067500Y0085500D02*
D03*
Y0086500D02*
D03*
X0069500Y0088500D02*
D03*
X0070800D02*
D03*
X0067500Y0080200D02*
D03*
X0067500Y0079300D02*
D03*
Y0097400D02*
D03*
X0066500Y0097800D02*
D03*
Y0082300D02*
D03*
X0067500Y0081900D02*
D03*
X0069500Y0078500D02*
D03*
X0074700Y0077500D02*
D03*
X0071800D02*
D03*
X0075500Y0087500D02*
D03*
X0071800D02*
D03*
X0069500Y0087000D02*
D03*
X0068000Y0084500D02*
D03*
Y0081000D02*
D03*
X0071500Y0105500D02*
D03*
X0071250Y0104250D02*
D03*
X0068000Y0096500D02*
D03*
X0067500Y0095000D02*
D03*
X0066000D02*
D03*
X0068000Y0100000D02*
D03*
X0069500Y0102500D02*
D03*
X0071800Y0103000D02*
D03*
X0075500D02*
D03*
X0071800Y0093000D02*
D03*
X0074700D02*
D03*
X0072800Y0077500D02*
D03*
X0073700D02*
D03*
X0069500Y0094000D02*
D03*
X0072700Y0102700D02*
D03*
X0073500Y0103500D02*
D03*
X0074200Y0102700D02*
D03*
Y0087200D02*
D03*
X0073500Y0088000D02*
D03*
X0072700Y0087200D02*
D03*
X0079000Y0085000D02*
D03*
X0080000Y0084500D02*
D03*
Y0100000D02*
D03*
X0079000Y0100500D02*
D03*
X0078000Y0101000D02*
D03*
X0076500Y0093500D02*
D03*
X0076500Y0102400D02*
D03*
X0077500Y0102000D02*
D03*
Y0086500D02*
D03*
X0076500Y0086900D02*
D03*
X0078000Y0085500D02*
D03*
X0076500Y0078000D02*
D03*
G54D66*
X0063500Y0109000D02*
D03*
X0065000D02*
D03*
X0066500D02*
D03*
X0068000D02*
D03*
X0070000D02*
D03*
X0071500D02*
D03*
X0073000D02*
D03*
X0074500D02*
D03*
X0063500Y0071500D02*
D03*
X0065000D02*
D03*
X0066500D02*
D03*
X0068000D02*
D03*
X0070000D02*
D03*
X0071500D02*
D03*
X0073000D02*
D03*
X0074500D02*
D03*
M02*
