M48
;Layer_Color=9474304
;FILE_FORMAT=4:3
METRIC
;TYPE=PLATED
T1F00S00C0.330
T2F00S00C0.400
T3F00S00C0.600
T4F00S00C0.700
T5F00S00C0.800
T6F00S00C1.016
T7F00S00C1.100
T8F00S00C1.321
%
T01
X0076950Y0083250
Y0084450
Y0085650
Y0086850
X0078150
Y0085650
Y0084450
X0078150Y0083250
X0079350Y0083250
Y0084450
Y0085650
Y0086850
X0080550
Y0085650
Y0084450
Y0083250
T02
X0096000Y0050500
X0096700Y0056800
X0092000Y0055500
X0086700Y0071800
X0082700
X0084300Y0077200
X0086300
X0080300
X0092000Y0078000
X0111500
X0112500Y0077000
X0113500Y0078300
X0110500Y0076500
X0109500Y0075700
X0109300Y0074500
X0079300Y0070500
X0077500
X0077700Y0071800
X0075700Y0070500
X0072000
X0071200Y0071800
X0071800Y0077200
X0070300
X0074300
X0076800
X0065500Y0079100
X0072500Y0065000
X0070900Y0079500
Y0086000
Y0090500
Y0093500
X0072700Y0092900
X0076200
X0078200
X0077300Y0098300
X0070800
X0065500Y0089600
Y0087600
Y0083100
X0086600Y0080100
X0092000Y0081000
Y0086000
Y0089000
X0087200Y0092900
X0084700
X0082200
X0083800Y0098300
X0086300
X0113000Y0091500
Y0090300
X0114000Y0089500
Y0088400
X0115000Y0087500
Y0086300
X0116500Y0086500
X0117000Y0085500
X0117500Y0084300
Y0083100
X0116500Y0082500
X0116200Y0081300
X0115000Y0080500
X0114500Y0079400
T03
X0123730Y0073500
X0125000
Y0074770
X0123730
Y0076040
X0125000
Y0077310
X0123730
Y0078580
X0125000
Y0079850
X0123730
Y0081120
X0125000
Y0082390
X0123730
Y0083660
X0125000
Y0084930
X0123730
T04
X0080500Y0067700
X0093500Y0055000
X0104700Y0053000
X0103500Y0079300
X0103500Y0083000
X0103500Y0086300
X0103500Y0089500
X0103500Y0093300
T05
X0105500Y0048500
Y0065500
X0045000Y0065500
Y0048500
Y0082500
Y0099500
Y0116500
X0068500Y0111000
X0078000
X0073500Y0105500
X0063800
X0072500Y0089000
X0079000Y0080000
X0084000Y0088000
X0082700Y0105500
X0088000Y0111000
X0105500Y0116500
Y0099500
Y0082500
X0086600Y0122500
X0076600
X0067100
X0071960Y0141500
X0074500
X0077040
T06
X0081460Y0042960
Y0045500
X0084000
Y0042960
X0091290Y0043010
Y0045550
X0093830
X0096370
Y0043010
X0093830
X0098910
Y0045550
X0101450
Y0043010
X0078920Y0042960
Y0045500
X0076380
X0073840
Y0042960
X0076380
T07
X0054000Y0044000
X0059080
X0095500Y0102000
X0100580
T08
X0033460Y0052460
X0036000Y0055000
X0038540Y0052460
Y0057540
X0033460
Y0072460
X0036000Y0075000
X0038540Y0072460
Y0077540
X0033460
Y0092460
X0036000Y0095000
X0038540Y0092460
Y0097540
X0033460
Y0112460
X0036000Y0115000
X0038540Y0112460
Y0117540
X0033460
X0113460Y0118460
X0118540
Y0112540
X0116000Y0110000
X0113460Y0107460
X0118540
Y0101540
X0116000Y0099000
X0113460Y0096460
X0118540
X0113460Y0101540
Y0112540
X0116000Y0121000
X0118540Y0123540
X0113460
Y0128960
X0116000Y0131500
X0118540Y0128960
Y0134040
X0113460
M30
