%FSAX43Y43*%
%MOMM*%
G71*
G01*
G75*
G04 Layer_Color=65535*
%ADD10C,0.175*%
G04:AMPARAMS|DCode=11|XSize=0.8mm|YSize=1mm|CornerRadius=0.08mm|HoleSize=0mm|Usage=FLASHONLY|Rotation=180.000|XOffset=0mm|YOffset=0mm|HoleType=Round|Shape=RoundedRectangle|*
%AMROUNDEDRECTD11*
21,1,0.800,0.840,0,0,180.0*
21,1,0.640,1.000,0,0,180.0*
1,1,0.160,-0.320,0.420*
1,1,0.160,0.320,0.420*
1,1,0.160,0.320,-0.420*
1,1,0.160,-0.320,-0.420*
%
%ADD11ROUNDEDRECTD11*%
G04:AMPARAMS|DCode=12|XSize=0.8mm|YSize=1mm|CornerRadius=0.08mm|HoleSize=0mm|Usage=FLASHONLY|Rotation=90.000|XOffset=0mm|YOffset=0mm|HoleType=Round|Shape=RoundedRectangle|*
%AMROUNDEDRECTD12*
21,1,0.800,0.840,0,0,90.0*
21,1,0.640,1.000,0,0,90.0*
1,1,0.160,0.420,0.320*
1,1,0.160,0.420,-0.320*
1,1,0.160,-0.420,-0.320*
1,1,0.160,-0.420,0.320*
%
%ADD12ROUNDEDRECTD12*%
%ADD13R,0.762X2.540*%
%ADD14R,3.048X3.048*%
%ADD15O,6.000X2.100*%
%ADD16O,6.000X2.100*%
%ADD17O,1.270X0.762*%
%ADD18R,1.270X0.762*%
%ADD19R,2.108X1.270*%
G04:AMPARAMS|DCode=20|XSize=2.108mm|YSize=1.27mm|CornerRadius=0mm|HoleSize=0mm|Usage=FLASHONLY|Rotation=180.000|XOffset=0mm|YOffset=0mm|HoleType=Round|Shape=Octagon|*
%AMOCTAGOND20*
4,1,8,-1.054,0.318,-1.054,-0.318,-0.737,-0.635,0.737,-0.635,1.054,-0.318,1.054,0.318,0.737,0.635,-0.737,0.635,-1.054,0.318,0.0*
%
%ADD20OCTAGOND20*%

%ADD21R,4.300X4.300*%
%ADD22O,0.300X1.800*%
%ADD23O,1.800X0.300*%
%ADD24R,1.650X0.300*%
%ADD25C,0.254*%
%ADD26C,0.500*%
%ADD27C,1.000*%
%ADD28C,0.200*%
%ADD29C,0.400*%
%ADD30C,1.524*%
%ADD31C,0.300*%
%ADD32R,1.850X1.850*%
%ADD33C,1.850*%
%ADD34C,2.438*%
%ADD35C,1.575*%
%ADD36R,1.575X1.575*%
%ADD37R,1.000X1.000*%
%ADD38C,1.000*%
%ADD39C,1.200*%
%ADD40C,1.300*%
%ADD41C,0.800*%
%ADD42C,0.660*%
G04:AMPARAMS|DCode=43|XSize=0.4mm|YSize=0.6mm|CornerRadius=0.04mm|HoleSize=0mm|Usage=FLASHONLY|Rotation=90.000|XOffset=0mm|YOffset=0mm|HoleType=Round|Shape=RoundedRectangle|*
%AMROUNDEDRECTD43*
21,1,0.400,0.520,0,0,90.0*
21,1,0.320,0.600,0,0,90.0*
1,1,0.080,0.260,0.160*
1,1,0.080,0.260,-0.160*
1,1,0.080,-0.260,-0.160*
1,1,0.080,-0.260,0.160*
%
%ADD43ROUNDEDRECTD43*%
G04:AMPARAMS|DCode=44|XSize=0.4mm|YSize=0.6mm|CornerRadius=0.04mm|HoleSize=0mm|Usage=FLASHONLY|Rotation=180.000|XOffset=0mm|YOffset=0mm|HoleType=Round|Shape=RoundedRectangle|*
%AMROUNDEDRECTD44*
21,1,0.400,0.520,0,0,180.0*
21,1,0.320,0.600,0,0,180.0*
1,1,0.080,-0.160,0.260*
1,1,0.080,0.160,0.260*
1,1,0.080,0.160,-0.260*
1,1,0.080,-0.160,-0.260*
%
%ADD44ROUNDEDRECTD44*%
%ADD45C,0.250*%
%ADD46C,0.600*%
%ADD47C,0.203*%
%ADD48C,0.305*%
D25*
X0105349Y0050206D02*
G03*
X0104079Y0050206I-0000635J0000000D01*
G01*
X0105349D02*
X0107254D01*
X0102174D02*
X0104079D01*
X0102174D02*
Y0060874D01*
X0107254D01*
Y0050206D02*
Y0060874D01*
Y0052746D02*
X0107508D01*
Y0053254D01*
X0107254D02*
X0107508D01*
X0107254Y0057826D02*
X0107508D01*
Y0058334D01*
X0107254D02*
X0107508D01*
X0101920D02*
X0102174D01*
X0101920Y0057826D02*
Y0058334D01*
Y0057826D02*
X0102174D01*
X0101920Y0053254D02*
X0102174D01*
X0101920Y0052746D02*
Y0053254D01*
Y0052746D02*
X0102174D01*
X0102000Y0097524D02*
Y0096254D01*
X0102254Y0096000D01*
X0102762D01*
X0103016Y0096254D01*
Y0097524D01*
X0104285Y0096000D02*
Y0097524D01*
X0103524Y0096762D01*
X0104539D01*
D28*
X0103490Y0094800D02*
G03*
X0104760Y0094800I0000635J0000000D01*
G01*
X0093760Y0103270D02*
X0102320D01*
Y0100730D02*
Y0103270D01*
X0093760Y0100730D02*
X0102320D01*
X0093760D02*
Y0103270D01*
X0052260Y0045270D02*
X0060820D01*
Y0042730D02*
Y0045270D01*
X0052260Y0042730D02*
X0060820D01*
X0052260D02*
Y0045270D01*
X0082100Y0123300D02*
X0085100D01*
Y0121700D02*
Y0123300D01*
X0082100Y0121700D02*
X0085100D01*
X0082100D02*
Y0123300D01*
X0079100Y0120100D02*
Y0123100D01*
X0077500Y0120100D02*
X0079100D01*
X0077500D02*
Y0123100D01*
X0079100D01*
X0072900Y0123300D02*
X0075900D01*
Y0121700D02*
Y0123300D01*
X0072900Y0121700D02*
X0075900D01*
X0072900D02*
Y0123300D01*
X0069800Y0120100D02*
Y0123100D01*
X0068200Y0120100D02*
X0069800D01*
X0068200D02*
Y0123100D01*
X0069800D01*
X0060300Y0120100D02*
Y0123100D01*
X0058700Y0120100D02*
X0060300D01*
X0058700D02*
Y0123100D01*
X0060300D01*
X0098500Y0115000D02*
Y0118000D01*
X0096900Y0115000D02*
X0098500D01*
X0096900D02*
Y0118000D01*
X0098500D01*
X0063200Y0123300D02*
X0066200D01*
Y0121700D02*
Y0123300D01*
X0063200Y0121700D02*
X0066200D01*
X0063200D02*
Y0123300D01*
X0072000Y0134550D02*
X0074500D01*
X0072000Y0129450D02*
Y0134550D01*
Y0129450D02*
X0077000D01*
Y0134550D01*
X0074500D02*
X0077000D01*
X0069500Y0075800D02*
X0088000D01*
X0069500Y0094300D02*
X0088000D01*
X0069500Y0075800D02*
Y0094300D01*
X0088000Y0075800D02*
Y0094300D01*
X0101725Y0094800D02*
X0103490D01*
X0104760D02*
X0106525D01*
X0101725Y0077700D02*
X0106525D01*
X0101725D02*
Y0094800D01*
X0106525Y0077700D02*
Y0094800D01*
X0097366Y0105083D02*
X0097150Y0105300D01*
X0096717D01*
X0096500Y0105083D01*
Y0104217D01*
X0096717Y0104000D01*
X0097150D01*
X0097366Y0104217D01*
X0097800Y0105300D02*
Y0104000D01*
X0098449D01*
X0098666Y0104217D01*
Y0104433D01*
X0098449Y0104650D01*
X0097800D01*
X0098449D01*
X0098666Y0104866D01*
Y0105083D01*
X0098449Y0105300D01*
X0097800D01*
X0099966Y0104000D02*
X0099099D01*
X0099966Y0104866D01*
Y0105083D01*
X0099749Y0105300D01*
X0099316D01*
X0099099Y0105083D01*
X0055866Y0047083D02*
X0055650Y0047300D01*
X0055217D01*
X0055000Y0047083D01*
Y0046217D01*
X0055217Y0046000D01*
X0055650D01*
X0055866Y0046217D01*
X0056300Y0047300D02*
Y0046000D01*
X0056949D01*
X0057166Y0046217D01*
Y0046433D01*
X0056949Y0046650D01*
X0056300D01*
X0056949D01*
X0057166Y0046866D01*
Y0047083D01*
X0056949Y0047300D01*
X0056300D01*
X0057599Y0046000D02*
X0058032D01*
X0057816D01*
Y0047300D01*
X0057599Y0047083D01*
X0092200Y0110000D02*
X0092000Y0110200D01*
X0091600D01*
X0091400Y0110000D01*
Y0109200D01*
X0091600Y0109000D01*
X0092000D01*
X0092200Y0109200D01*
X0092600Y0109000D02*
X0093199D01*
X0093399Y0109200D01*
X0093199Y0109400D01*
X0092800D01*
X0092600Y0109600D01*
X0092800Y0109800D01*
X0093399D01*
X0093799D02*
Y0109200D01*
X0093999Y0109000D01*
X0094599D01*
Y0109800D01*
X0094999Y0108600D02*
Y0109800D01*
X0095599D01*
X0095799Y0109600D01*
Y0109200D01*
X0095599Y0109000D01*
X0094999D01*
X0096198D02*
X0096598D01*
X0096398D01*
Y0110200D01*
X0096198Y0110000D01*
X0099800Y0117000D02*
X0099600Y0117200D01*
X0099200D01*
X0099000Y0117000D01*
Y0116200D01*
X0099200Y0116000D01*
X0099600D01*
X0099800Y0116200D01*
X0100200Y0116000D02*
X0100799D01*
X0100999Y0116200D01*
X0100799Y0116400D01*
X0100400D01*
X0100200Y0116600D01*
X0100400Y0116800D01*
X0100999D01*
X0101399D02*
Y0116200D01*
X0101599Y0116000D01*
X0102199D01*
Y0116800D01*
X0102599Y0115600D02*
Y0116800D01*
X0103199D01*
X0103399Y0116600D01*
Y0116200D01*
X0103199Y0116000D01*
X0102599D01*
X0103798Y0117000D02*
X0103998Y0117200D01*
X0104398D01*
X0104598Y0117000D01*
Y0116800D01*
X0104398Y0116600D01*
X0104198D01*
X0104398D01*
X0104598Y0116400D01*
Y0116200D01*
X0104398Y0116000D01*
X0103998D01*
X0103798Y0116200D01*
X0063000Y0127000D02*
X0062800Y0127200D01*
X0062400D01*
X0062200Y0127000D01*
Y0126200D01*
X0062400Y0126000D01*
X0062800D01*
X0063000Y0126200D01*
X0063400Y0126000D02*
X0063999D01*
X0064199Y0126200D01*
X0063999Y0126400D01*
X0063600D01*
X0063400Y0126600D01*
X0063600Y0126800D01*
X0064199D01*
X0064599D02*
Y0126200D01*
X0064799Y0126000D01*
X0065399D01*
Y0126800D01*
X0065799Y0125600D02*
Y0126800D01*
X0066399D01*
X0066599Y0126600D01*
Y0126200D01*
X0066399Y0126000D01*
X0065799D01*
X0066998Y0126200D02*
X0067198Y0126000D01*
X0067598D01*
X0067798Y0126200D01*
Y0127000D01*
X0067598Y0127200D01*
X0067198D01*
X0066998Y0127000D01*
Y0126800D01*
X0067198Y0126600D01*
X0067798D01*
X0057000Y0118800D02*
X0056800Y0118600D01*
Y0118200D01*
X0057000Y0118000D01*
X0057800D01*
X0058000Y0118200D01*
Y0118600D01*
X0057800Y0118800D01*
X0058000Y0119200D02*
Y0119799D01*
X0057800Y0119999D01*
X0057600Y0119799D01*
Y0119400D01*
X0057400Y0119200D01*
X0057200Y0119400D01*
Y0119999D01*
Y0120399D02*
X0057800D01*
X0058000Y0120599D01*
Y0121199D01*
X0057200D01*
X0058400Y0121599D02*
X0057200D01*
Y0122199D01*
X0057400Y0122399D01*
X0057800D01*
X0058000Y0122199D01*
Y0121599D01*
Y0123598D02*
Y0122798D01*
X0057200Y0123598D01*
X0057000D01*
X0056800Y0123398D01*
Y0122998D01*
X0057000Y0122798D01*
X0068400Y0114800D02*
X0068200Y0114600D01*
Y0114200D01*
X0068400Y0114000D01*
X0069200D01*
X0069400Y0114200D01*
Y0114600D01*
X0069200Y0114800D01*
X0069400Y0115200D02*
Y0115799D01*
X0069200Y0115999D01*
X0069000Y0115799D01*
Y0115400D01*
X0068800Y0115200D01*
X0068600Y0115400D01*
Y0115999D01*
Y0116399D02*
X0069200D01*
X0069400Y0116599D01*
Y0117199D01*
X0068600D01*
X0069800Y0117599D02*
X0068600D01*
Y0118199D01*
X0068800Y0118399D01*
X0069200D01*
X0069400Y0118199D01*
Y0117599D01*
Y0119398D02*
X0068200D01*
X0068800Y0118798D01*
Y0119598D01*
X0072500Y0127000D02*
X0072300Y0127200D01*
X0071900D01*
X0071700Y0127000D01*
Y0126200D01*
X0071900Y0126000D01*
X0072300D01*
X0072500Y0126200D01*
X0072900Y0126000D02*
X0073499D01*
X0073699Y0126200D01*
X0073499Y0126400D01*
X0073100D01*
X0072900Y0126600D01*
X0073100Y0126800D01*
X0073699D01*
X0074099D02*
Y0126200D01*
X0074299Y0126000D01*
X0074899D01*
Y0126800D01*
X0075299Y0125600D02*
Y0126800D01*
X0075899D01*
X0076099Y0126600D01*
Y0126200D01*
X0075899Y0126000D01*
X0075299D01*
X0076498D02*
X0076898D01*
X0076698D01*
Y0127200D01*
X0076498Y0127000D01*
X0077498D02*
X0077698Y0127200D01*
X0078098D01*
X0078298Y0127000D01*
Y0126200D01*
X0078098Y0126000D01*
X0077698D01*
X0077498Y0126200D01*
Y0127000D01*
X0077600Y0114800D02*
X0077400Y0114600D01*
Y0114200D01*
X0077600Y0114000D01*
X0078400D01*
X0078600Y0114200D01*
Y0114600D01*
X0078400Y0114800D01*
X0078600Y0115200D02*
Y0115799D01*
X0078400Y0115999D01*
X0078200Y0115799D01*
Y0115400D01*
X0078000Y0115200D01*
X0077800Y0115400D01*
Y0115999D01*
Y0116399D02*
X0078400D01*
X0078600Y0116599D01*
Y0117199D01*
X0077800D01*
X0079000Y0117599D02*
X0077800D01*
Y0118199D01*
X0078000Y0118399D01*
X0078400D01*
X0078600Y0118199D01*
Y0117599D01*
X0077400Y0119598D02*
Y0118798D01*
X0078000D01*
X0077800Y0119198D01*
Y0119398D01*
X0078000Y0119598D01*
X0078400D01*
X0078600Y0119398D01*
Y0118998D01*
X0078400Y0118798D01*
X0082300Y0127000D02*
X0082100Y0127200D01*
X0081700D01*
X0081500Y0127000D01*
Y0126200D01*
X0081700Y0126000D01*
X0082100D01*
X0082300Y0126200D01*
X0082700Y0126000D02*
X0083299D01*
X0083499Y0126200D01*
X0083299Y0126400D01*
X0082900D01*
X0082700Y0126600D01*
X0082900Y0126800D01*
X0083499D01*
X0083899D02*
Y0126200D01*
X0084099Y0126000D01*
X0084699D01*
Y0126800D01*
X0085099Y0125600D02*
Y0126800D01*
X0085699D01*
X0085899Y0126600D01*
Y0126200D01*
X0085699Y0126000D01*
X0085099D01*
X0086298D02*
X0086698D01*
X0086498D01*
Y0127200D01*
X0086298Y0127000D01*
X0087298Y0126000D02*
X0087698D01*
X0087498D01*
Y0127200D01*
X0087298Y0127000D01*
X0033155Y0121369D02*
X0032355D01*
Y0120769D01*
X0032755D01*
X0032355D01*
Y0120169D01*
X0033755Y0120969D02*
X0034155D01*
X0034354Y0120769D01*
Y0120169D01*
X0033755D01*
X0033555Y0120369D01*
X0033755Y0120569D01*
X0034354D01*
X0034754Y0120169D02*
X0035354D01*
X0035554Y0120369D01*
X0035354Y0120569D01*
X0034954D01*
X0034754Y0120769D01*
X0034954Y0120969D01*
X0035554D01*
X0036154Y0121169D02*
Y0120969D01*
X0035954D01*
X0036354D01*
X0036154D01*
Y0120369D01*
X0036354Y0120169D01*
X0036954Y0121369D02*
X0037753D01*
X0037353D01*
Y0120169D01*
X0038153Y0120969D02*
Y0120169D01*
Y0120569D01*
X0038353Y0120769D01*
X0038553Y0120969D01*
X0038753D01*
X0039353Y0120169D02*
X0039753D01*
X0039553D01*
Y0120969D01*
X0039353D01*
X0040752Y0119769D02*
X0040952D01*
X0041152Y0119969D01*
Y0120969D01*
X0040552D01*
X0040353Y0120769D01*
Y0120369D01*
X0040552Y0120169D01*
X0041152D01*
X0041552D02*
X0041952D01*
X0041752D01*
Y0121369D01*
X0041552Y0121169D01*
X0033155Y0101369D02*
X0032355D01*
Y0100769D01*
X0032755D01*
X0032355D01*
Y0100169D01*
X0033755Y0100969D02*
X0034155D01*
X0034354Y0100769D01*
Y0100169D01*
X0033755D01*
X0033555Y0100369D01*
X0033755Y0100569D01*
X0034354D01*
X0034754Y0100169D02*
X0035354D01*
X0035554Y0100369D01*
X0035354Y0100569D01*
X0034954D01*
X0034754Y0100769D01*
X0034954Y0100969D01*
X0035554D01*
X0036154Y0101169D02*
Y0100969D01*
X0035954D01*
X0036354D01*
X0036154D01*
Y0100369D01*
X0036354Y0100169D01*
X0036954Y0101369D02*
X0037753D01*
X0037353D01*
Y0100169D01*
X0038153Y0100969D02*
Y0100169D01*
Y0100569D01*
X0038353Y0100769D01*
X0038553Y0100969D01*
X0038753D01*
X0039353Y0100169D02*
X0039753D01*
X0039553D01*
Y0100969D01*
X0039353D01*
X0040752Y0099769D02*
X0040952D01*
X0041152Y0099969D01*
Y0100969D01*
X0040552D01*
X0040353Y0100769D01*
Y0100369D01*
X0040552Y0100169D01*
X0041152D01*
X0042352D02*
X0041552D01*
X0042352Y0100969D01*
Y0101169D01*
X0042152Y0101369D01*
X0041752D01*
X0041552Y0101169D01*
X0033155Y0081369D02*
X0032355D01*
Y0080769D01*
X0032755D01*
X0032355D01*
Y0080169D01*
X0033755Y0080969D02*
X0034155D01*
X0034354Y0080769D01*
Y0080169D01*
X0033755D01*
X0033555Y0080369D01*
X0033755Y0080569D01*
X0034354D01*
X0034754Y0080169D02*
X0035354D01*
X0035554Y0080369D01*
X0035354Y0080569D01*
X0034954D01*
X0034754Y0080769D01*
X0034954Y0080969D01*
X0035554D01*
X0036154Y0081169D02*
Y0080969D01*
X0035954D01*
X0036354D01*
X0036154D01*
Y0080369D01*
X0036354Y0080169D01*
X0036954Y0081369D02*
X0037753D01*
X0037353D01*
Y0080169D01*
X0038153Y0080969D02*
Y0080169D01*
Y0080569D01*
X0038353Y0080769D01*
X0038553Y0080969D01*
X0038753D01*
X0039353Y0080169D02*
X0039753D01*
X0039553D01*
Y0080969D01*
X0039353D01*
X0040752Y0079769D02*
X0040952D01*
X0041152Y0079969D01*
Y0080969D01*
X0040552D01*
X0040353Y0080769D01*
Y0080369D01*
X0040552Y0080169D01*
X0041152D01*
X0041552Y0081169D02*
X0041752Y0081369D01*
X0042152D01*
X0042352Y0081169D01*
Y0080969D01*
X0042152Y0080769D01*
X0041952D01*
X0042152D01*
X0042352Y0080569D01*
Y0080369D01*
X0042152Y0080169D01*
X0041752D01*
X0041552Y0080369D01*
X0033155Y0061369D02*
X0032355D01*
Y0060769D01*
X0032755D01*
X0032355D01*
Y0060169D01*
X0033755Y0060969D02*
X0034155D01*
X0034354Y0060769D01*
Y0060169D01*
X0033755D01*
X0033555Y0060369D01*
X0033755Y0060569D01*
X0034354D01*
X0034754Y0060169D02*
X0035354D01*
X0035554Y0060369D01*
X0035354Y0060569D01*
X0034954D01*
X0034754Y0060769D01*
X0034954Y0060969D01*
X0035554D01*
X0036154Y0061169D02*
Y0060969D01*
X0035954D01*
X0036354D01*
X0036154D01*
Y0060369D01*
X0036354Y0060169D01*
X0036954Y0061369D02*
X0037753D01*
X0037353D01*
Y0060169D01*
X0038153Y0060969D02*
Y0060169D01*
Y0060569D01*
X0038353Y0060769D01*
X0038553Y0060969D01*
X0038753D01*
X0039353Y0060169D02*
X0039753D01*
X0039553D01*
Y0060969D01*
X0039353D01*
X0040752Y0059769D02*
X0040952D01*
X0041152Y0059969D01*
Y0060969D01*
X0040552D01*
X0040353Y0060769D01*
Y0060369D01*
X0040552Y0060169D01*
X0041152D01*
X0042152D02*
Y0061369D01*
X0041552Y0060769D01*
X0042352D01*
X0103500Y0045000D02*
Y0045800D01*
X0103900Y0046200D01*
X0104300Y0045800D01*
Y0045000D01*
Y0045600D01*
X0103500D01*
X0105499Y0045800D02*
X0104900D01*
X0104700Y0045600D01*
Y0045200D01*
X0104900Y0045000D01*
X0105499D01*
X0106099Y0046000D02*
Y0045800D01*
X0105899D01*
X0106299D01*
X0106099D01*
Y0045200D01*
X0106299Y0045000D01*
X0106899D02*
X0107299D01*
X0107099D01*
Y0045800D01*
X0106899D01*
X0107899D02*
X0108298Y0045000D01*
X0108698Y0045800D01*
X0109698Y0045000D02*
X0109298D01*
X0109098Y0045200D01*
Y0045600D01*
X0109298Y0045800D01*
X0109698D01*
X0109898Y0045600D01*
Y0045400D01*
X0109098D01*
X0111098Y0046000D02*
X0110898Y0046200D01*
X0110498D01*
X0110298Y0046000D01*
Y0045800D01*
X0110498Y0045600D01*
X0110898D01*
X0111098Y0045400D01*
Y0045200D01*
X0110898Y0045000D01*
X0110498D01*
X0110298Y0045200D01*
X0112097Y0045000D02*
X0111697D01*
X0111497Y0045200D01*
Y0045600D01*
X0111697Y0045800D01*
X0112097D01*
X0112297Y0045600D01*
Y0045400D01*
X0111497D01*
X0112697Y0045800D02*
Y0045000D01*
Y0045400D01*
X0112897Y0045600D01*
X0113097Y0045800D01*
X0113297D01*
X0104300Y0043700D02*
X0103900D01*
X0104100D01*
Y0042700D01*
X0103900Y0042500D01*
X0103700D01*
X0103500Y0042700D01*
X0105499Y0042500D02*
X0104700D01*
X0105499Y0043300D01*
Y0043500D01*
X0105299Y0043700D01*
X0104900D01*
X0104700Y0043500D01*
X0068300Y0046200D02*
X0067900D01*
X0068100D01*
Y0045200D01*
X0067900Y0045000D01*
X0067700D01*
X0067500Y0045200D01*
X0068700Y0046200D02*
X0069499D01*
X0069099D01*
Y0045000D01*
X0069899D02*
Y0045800D01*
X0070299Y0046200D01*
X0070699Y0045800D01*
Y0045000D01*
Y0045600D01*
X0069899D01*
X0071899Y0046000D02*
X0071699Y0046200D01*
X0071299D01*
X0071099Y0046000D01*
Y0045200D01*
X0071299Y0045000D01*
X0071699D01*
X0071899Y0045200D01*
Y0045600D01*
X0071499D01*
X0070850Y0043650D02*
X0070450D01*
X0070650D01*
Y0042650D01*
X0070450Y0042450D01*
X0070250D01*
X0070050Y0042650D01*
X0071250Y0043450D02*
X0071450Y0043650D01*
X0071849D01*
X0072049Y0043450D01*
Y0043250D01*
X0071849Y0043050D01*
X0071649D01*
X0071849D01*
X0072049Y0042850D01*
Y0042650D01*
X0071849Y0042450D01*
X0071450D01*
X0071250Y0042650D01*
X0078000Y0132500D02*
Y0131300D01*
X0078800D01*
X0079200Y0132100D02*
Y0131300D01*
Y0131700D01*
X0079400Y0131900D01*
X0079599Y0132100D01*
X0079799D01*
X0080999Y0131300D02*
X0080599D01*
X0080399Y0131500D01*
Y0131900D01*
X0080599Y0132100D01*
X0080999D01*
X0081199Y0131900D01*
Y0131700D01*
X0080399D01*
X0081799Y0131300D02*
Y0132300D01*
Y0131900D01*
X0081599D01*
X0081999D01*
X0081799D01*
Y0132300D01*
X0081999Y0132500D01*
X0082599Y0131300D02*
X0082998D01*
X0082798D01*
Y0132500D01*
X0082599Y0132300D01*
X0065041Y0073557D02*
X0066041D01*
X0066241Y0073756D01*
Y0074156D01*
X0066041Y0074356D01*
X0065041D01*
X0066241Y0074756D02*
Y0075156D01*
Y0074956D01*
X0065041D01*
X0065241Y0074756D01*
X0092100Y0051900D02*
Y0050900D01*
X0092300Y0050700D01*
X0092700D01*
X0092900Y0050900D01*
Y0051900D01*
X0094099Y0050700D02*
X0093300D01*
X0094099Y0051500D01*
Y0051700D01*
X0093899Y0051900D01*
X0093500D01*
X0093300Y0051700D01*
X0106000Y0063200D02*
Y0062200D01*
X0106200Y0062000D01*
X0106600D01*
X0106800Y0062200D01*
Y0063200D01*
X0107200Y0063000D02*
X0107400Y0063200D01*
X0107799D01*
X0107999Y0063000D01*
Y0062800D01*
X0107799Y0062600D01*
X0107599D01*
X0107799D01*
X0107999Y0062400D01*
Y0062200D01*
X0107799Y0062000D01*
X0107400D01*
X0107200Y0062200D01*
X0061200Y0109200D02*
Y0108200D01*
X0061400Y0108000D01*
X0061800D01*
X0062000Y0108200D01*
Y0109200D01*
X0062400Y0108000D02*
X0062999D01*
X0063199Y0108200D01*
X0062999Y0108400D01*
X0062600D01*
X0062400Y0108600D01*
X0062600Y0108800D01*
X0063199D01*
X0063599D02*
Y0108200D01*
X0063799Y0108000D01*
X0064399D01*
Y0108800D01*
X0064799Y0107600D02*
Y0108800D01*
X0065399D01*
X0065599Y0108600D01*
Y0108200D01*
X0065399Y0108000D01*
X0064799D01*
X0065998D02*
X0066398D01*
X0066198D01*
Y0109200D01*
X0065998Y0109000D01*
X0070700Y0109200D02*
Y0108200D01*
X0070900Y0108000D01*
X0071300D01*
X0071500Y0108200D01*
Y0109200D01*
X0071900Y0108000D02*
X0072499D01*
X0072699Y0108200D01*
X0072499Y0108400D01*
X0072100D01*
X0071900Y0108600D01*
X0072100Y0108800D01*
X0072699D01*
X0073099D02*
Y0108200D01*
X0073299Y0108000D01*
X0073899D01*
Y0108800D01*
X0074299Y0107600D02*
Y0108800D01*
X0074899D01*
X0075099Y0108600D01*
Y0108200D01*
X0074899Y0108000D01*
X0074299D01*
X0076298D02*
X0075498D01*
X0076298Y0108800D01*
Y0109000D01*
X0076098Y0109200D01*
X0075698D01*
X0075498Y0109000D01*
X0079900Y0109200D02*
Y0108200D01*
X0080100Y0108000D01*
X0080500D01*
X0080700Y0108200D01*
Y0109200D01*
X0081100Y0108000D02*
X0081699D01*
X0081899Y0108200D01*
X0081699Y0108400D01*
X0081300D01*
X0081100Y0108600D01*
X0081300Y0108800D01*
X0081899D01*
X0082299D02*
Y0108200D01*
X0082499Y0108000D01*
X0083099D01*
Y0108800D01*
X0083499Y0107600D02*
Y0108800D01*
X0084099D01*
X0084299Y0108600D01*
Y0108200D01*
X0084099Y0108000D01*
X0083499D01*
X0084698Y0109000D02*
X0084898Y0109200D01*
X0085298D01*
X0085498Y0109000D01*
Y0108800D01*
X0085298Y0108600D01*
X0085098D01*
X0085298D01*
X0085498Y0108400D01*
Y0108200D01*
X0085298Y0108000D01*
X0084898D01*
X0084698Y0108200D01*
X0120593Y0071614D02*
X0121393D01*
X0120993D01*
Y0070414D01*
X0121793Y0071214D02*
Y0070414D01*
Y0070814D01*
X0121993Y0071014D01*
X0122193Y0071214D01*
X0122393D01*
X0122992Y0070414D02*
X0123392D01*
X0123192D01*
Y0071214D01*
X0122992D01*
X0124392Y0070014D02*
X0124592D01*
X0124792Y0070214D01*
Y0071214D01*
X0124192D01*
X0123992Y0071014D01*
Y0070614D01*
X0124192Y0070414D01*
X0124792D01*
X0125791Y0071614D02*
X0125392D01*
X0125192Y0071414D01*
Y0070614D01*
X0125392Y0070414D01*
X0125791D01*
X0125991Y0070614D01*
Y0071414D01*
X0125791Y0071614D01*
X0126391Y0071214D02*
Y0070614D01*
X0126591Y0070414D01*
X0127191D01*
Y0071214D01*
X0127791Y0071414D02*
Y0071214D01*
X0127591D01*
X0127991D01*
X0127791D01*
Y0070614D01*
X0127991Y0070414D01*
X0124200Y0087500D02*
X0123800D01*
X0124000D01*
Y0086500D01*
X0123800Y0086300D01*
X0123600D01*
X0123400Y0086500D01*
X0124600Y0086300D02*
X0124999D01*
X0124800D01*
Y0087500D01*
X0124600Y0087300D01*
X0112000Y0126700D02*
X0112800D01*
X0112400D01*
Y0125500D01*
X0113799D02*
X0113400D01*
X0113200Y0125700D01*
Y0126100D01*
X0113400Y0126300D01*
X0113799D01*
X0113999Y0126100D01*
Y0125900D01*
X0113200D01*
X0114399Y0125500D02*
X0114999D01*
X0115199Y0125700D01*
X0114999Y0125900D01*
X0114599D01*
X0114399Y0126100D01*
X0114599Y0126300D01*
X0115199D01*
X0115799Y0126500D02*
Y0126300D01*
X0115599D01*
X0115999D01*
X0115799D01*
Y0125700D01*
X0115999Y0125500D01*
X0116599D02*
X0116998D01*
X0116798D01*
Y0126700D01*
X0116599Y0126500D01*
X0117598Y0125300D02*
X0118398D01*
X0118798Y0125500D02*
Y0126700D01*
X0119598Y0125500D01*
Y0126700D01*
X0112000Y0137200D02*
X0112800D01*
X0112400D01*
Y0136000D01*
X0113799D02*
X0113400D01*
X0113200Y0136200D01*
Y0136600D01*
X0113400Y0136800D01*
X0113799D01*
X0113999Y0136600D01*
Y0136400D01*
X0113200D01*
X0114399Y0136000D02*
X0114999D01*
X0115199Y0136200D01*
X0114999Y0136400D01*
X0114599D01*
X0114399Y0136600D01*
X0114599Y0136800D01*
X0115199D01*
X0115799Y0137000D02*
Y0136800D01*
X0115599D01*
X0115999D01*
X0115799D01*
Y0136200D01*
X0115999Y0136000D01*
X0116599D02*
X0116998D01*
X0116798D01*
Y0137200D01*
X0116599Y0137000D01*
X0117598Y0135800D02*
X0118398D01*
X0118798Y0136000D02*
Y0137200D01*
X0119398D01*
X0119598Y0137000D01*
Y0136600D01*
X0119398Y0136400D01*
X0118798D01*
X0112000Y0104700D02*
X0112800D01*
X0112400D01*
Y0103500D01*
X0113799D02*
X0113400D01*
X0113200Y0103700D01*
Y0104100D01*
X0113400Y0104300D01*
X0113799D01*
X0113999Y0104100D01*
Y0103900D01*
X0113200D01*
X0114399Y0103500D02*
X0114999D01*
X0115199Y0103700D01*
X0114999Y0103900D01*
X0114599D01*
X0114399Y0104100D01*
X0114599Y0104300D01*
X0115199D01*
X0115799Y0104500D02*
Y0104300D01*
X0115599D01*
X0115999D01*
X0115799D01*
Y0103700D01*
X0115999Y0103500D01*
X0117398D02*
X0116599D01*
X0117398Y0104300D01*
Y0104500D01*
X0117198Y0104700D01*
X0116798D01*
X0116599Y0104500D01*
X0117798Y0103300D02*
X0118598D01*
X0118998Y0103500D02*
Y0104700D01*
X0119797Y0103500D01*
Y0104700D01*
X0112000Y0115700D02*
X0112800D01*
X0112400D01*
Y0114500D01*
X0113799D02*
X0113400D01*
X0113200Y0114700D01*
Y0115100D01*
X0113400Y0115300D01*
X0113799D01*
X0113999Y0115100D01*
Y0114900D01*
X0113200D01*
X0114399Y0114500D02*
X0114999D01*
X0115199Y0114700D01*
X0114999Y0114900D01*
X0114599D01*
X0114399Y0115100D01*
X0114599Y0115300D01*
X0115199D01*
X0115799Y0115500D02*
Y0115300D01*
X0115599D01*
X0115999D01*
X0115799D01*
Y0114700D01*
X0115999Y0114500D01*
X0117398D02*
X0116599D01*
X0117398Y0115300D01*
Y0115500D01*
X0117198Y0115700D01*
X0116798D01*
X0116599Y0115500D01*
X0117798Y0114300D02*
X0118598D01*
X0118998Y0114500D02*
Y0115700D01*
X0119598D01*
X0119797Y0115500D01*
Y0115100D01*
X0119598Y0114900D01*
X0118998D01*
D45*
X0093404Y0101999D02*
G03*
X0093404Y0101999I-0000125J0000000D01*
G01*
X0051904Y0043999D02*
G03*
X0051904Y0043999I-0000125J0000000D01*
G01*
X0069425Y0074500D02*
G03*
X0069425Y0074500I-0000125J0000000D01*
G01*
X0100625Y0094700D02*
G03*
X0100625Y0094700I-0000125J0000000D01*
G01*
D46*
X0070800Y0076800D02*
G03*
X0070800Y0076800I-0000300J0000000D01*
G01*
D47*
X0032190Y0051190D02*
Y0058810D01*
Y0051190D02*
X0039810D01*
Y0058810D01*
X0032190D02*
X0039810D01*
X0079892Y0112634D02*
Y0113142D01*
Y0113650D02*
Y0114158D01*
Y0114666D02*
Y0115174D01*
Y0115682D02*
Y0116190D01*
X0080400D01*
X0080908D02*
X0081416D01*
X0081924D02*
X0082432D01*
X0082940D02*
X0083448D01*
X0083956D02*
X0084464D01*
X0084972D02*
X0085480D01*
Y0115682D02*
Y0116190D01*
Y0114666D02*
Y0115174D01*
Y0113650D02*
Y0114158D01*
Y0112634D02*
Y0113142D01*
X0079892Y0117714D02*
Y0118222D01*
X0080908D01*
Y0117714D02*
Y0118222D01*
X0084464Y0117714D02*
Y0118222D01*
X0085480D01*
Y0117714D02*
Y0118222D01*
X0082178Y0117714D02*
Y0118222D01*
X0083194D01*
Y0117714D02*
Y0118222D01*
X0085480Y0110602D02*
Y0112126D01*
X0079892Y0110602D02*
X0085480D01*
X0079892D02*
Y0112126D01*
X0079384Y0117714D02*
X0085988D01*
X0079384Y0111618D02*
Y0117714D01*
Y0111618D02*
X0085988D01*
Y0117714D01*
X0032190Y0071190D02*
Y0078810D01*
Y0071190D02*
X0039810D01*
Y0078810D01*
X0032190D02*
X0039810D01*
X0032190Y0091190D02*
Y0098810D01*
Y0091190D02*
X0039810D01*
Y0098810D01*
X0032190D02*
X0039810D01*
X0070692Y0112634D02*
Y0113142D01*
Y0113650D02*
Y0114158D01*
Y0114666D02*
Y0115174D01*
Y0115682D02*
Y0116190D01*
X0071200D01*
X0071708D02*
X0072216D01*
X0072724D02*
X0073232D01*
X0073740D02*
X0074248D01*
X0074756D02*
X0075264D01*
X0075772D02*
X0076280D01*
Y0115682D02*
Y0116190D01*
Y0114666D02*
Y0115174D01*
Y0113650D02*
Y0114158D01*
Y0112634D02*
Y0113142D01*
X0070692Y0117714D02*
Y0118222D01*
X0071708D01*
Y0117714D02*
Y0118222D01*
X0075264Y0117714D02*
Y0118222D01*
X0076280D01*
Y0117714D02*
Y0118222D01*
X0072978Y0117714D02*
Y0118222D01*
X0073994D01*
Y0117714D02*
Y0118222D01*
X0076280Y0110602D02*
Y0112126D01*
X0070692Y0110602D02*
X0076280D01*
X0070692D02*
Y0112126D01*
X0070184Y0117714D02*
X0076788D01*
X0070184Y0111618D02*
Y0117714D01*
Y0111618D02*
X0076788D01*
Y0117714D01*
X0032190Y0111190D02*
Y0118810D01*
Y0111190D02*
X0039810D01*
Y0118810D01*
X0032190D02*
X0039810D01*
X0091514Y0120000D02*
X0096086D01*
Y0112380D02*
Y0120000D01*
X0091514Y0112380D02*
X0096086D01*
X0091514D02*
Y0120000D01*
X0095070D02*
Y0120254D01*
X0092530D02*
X0095070D01*
X0092530Y0120000D02*
Y0120254D01*
Y0112126D02*
Y0112380D01*
Y0112126D02*
X0095070D01*
Y0112380D01*
X0091514Y0119746D02*
X0096086D01*
X0091514Y0119492D02*
X0096086D01*
X0091514Y0119238D02*
X0096086D01*
X0091514Y0118984D02*
X0096086D01*
X0093800Y0117460D02*
Y0118476D01*
X0093292Y0117968D02*
X0094308D01*
X0060992Y0112634D02*
Y0113142D01*
Y0113650D02*
Y0114158D01*
Y0114666D02*
Y0115174D01*
Y0115682D02*
Y0116190D01*
X0061500D01*
X0062008D02*
X0062516D01*
X0063024D02*
X0063532D01*
X0064040D02*
X0064548D01*
X0065056D02*
X0065564D01*
X0066072D02*
X0066580D01*
Y0115682D02*
Y0116190D01*
Y0114666D02*
Y0115174D01*
Y0113650D02*
Y0114158D01*
Y0112634D02*
Y0113142D01*
X0060992Y0117714D02*
Y0118222D01*
X0062008D01*
Y0117714D02*
Y0118222D01*
X0065564Y0117714D02*
Y0118222D01*
X0066580D01*
Y0117714D02*
Y0118222D01*
X0063278Y0117714D02*
Y0118222D01*
X0064294D01*
Y0117714D02*
Y0118222D01*
X0066580Y0110602D02*
Y0112126D01*
X0060992Y0110602D02*
X0066580D01*
X0060992D02*
Y0112126D01*
X0060484Y0117714D02*
X0067088D01*
X0060484Y0111618D02*
Y0117714D01*
Y0111618D02*
X0067088D01*
Y0117714D01*
X0094476Y0052492D02*
Y0057318D01*
Y0052492D02*
X0094984D01*
Y0057318D01*
X0094476D02*
X0094984D01*
X0091428D02*
X0094476D01*
X0091428Y0052492D02*
Y0057318D01*
Y0052492D02*
X0094476D01*
X0125700Y0072800D02*
Y0085700D01*
X0123000D02*
X0125700D01*
X0123000Y0072800D02*
X0125700D01*
X0123000D02*
Y0085700D01*
X0124300Y0072800D02*
Y0074200D01*
X0125700D01*
X0112190Y0102810D02*
X0119810D01*
X0112190Y0095190D02*
Y0102810D01*
Y0095190D02*
X0119810D01*
Y0102810D01*
X0112190Y0113810D02*
X0119810D01*
X0112190Y0106190D02*
Y0113810D01*
Y0106190D02*
X0119810D01*
Y0113810D01*
X0112190Y0124810D02*
X0119810D01*
X0112190Y0117190D02*
Y0124810D01*
Y0117190D02*
X0119810D01*
Y0124810D01*
X0112190Y0135310D02*
X0119810D01*
X0112190Y0127690D02*
Y0135310D01*
Y0127690D02*
X0119810D01*
Y0135310D01*
D48*
X0085270Y0041690D02*
Y0046770D01*
X0072570D02*
X0085270D01*
X0072570Y0041690D02*
Y0046770D01*
Y0041690D02*
X0085270D01*
X0082730Y0044230D02*
X0085270D01*
X0082730D02*
Y0046770D01*
X0102720Y0041740D02*
Y0046820D01*
X0090020D02*
X0102720D01*
X0090020Y0041740D02*
Y0046820D01*
Y0041740D02*
X0102720D01*
X0100180Y0044280D02*
X0102720D01*
X0100180D02*
Y0046820D01*
M02*
