M48
;Layer_Color=9474304
;FILE_FORMAT=4:3
METRIC
;TYPE=PLATED
T1F00S00C0.250
T2F00S00C0.300
T3F00S00C0.400
T4F00S00C0.500
T5F00S00C0.600
T6F00S00C0.700
T7F00S00C0.711
T8F00S00C0.800
T9F00S00C0.813
T10F00S00C0.900
T11F00S00C1.000
T12F00S00C1.100
T13F00S00C1.200
T14F00S00C1.270
T15F00S00C1.321
T16F00S00C1.800
T17F00S00C2.300
T18F00S00C2.800
T19F00S00C3.000
%
T01
X0038500Y0117000
X0039000Y0118000
X0038000Y0118500
X0039500Y0116500
X0040500Y0117000
X0041000Y0118000
X0042000Y0118500
X0043000Y0118000
X0042500Y0117000
X0043500Y0116500
X0044500Y0117000
X0045000Y0118000
X0044000Y0118500
X0046500
X0048000
X0048500Y0117000
X0047000
X0045500Y0116500
X0041500
X0040000Y0118500
X0058500
X0059500Y0118000
X0060500Y0118500
X0061500Y0118000
X0061000Y0117000
X0060000Y0116500
X0059000Y0117000
X0062000Y0116500
X0063000Y0117000
X0063500Y0118000
X0064500Y0118500
X0065500Y0118000
X0065000Y0117000
X0066000Y0116500
X0064000
X0062500Y0118500
X0067000
X0068500
X0069000Y0117000
X0067500
X0079000
X0078500Y0118500
X0079500Y0118000
X0080500Y0118500
X0081500Y0118000
X0081000Y0117000
X0082000Y0116500
X0083000Y0117000
X0083500Y0118000
X0082500Y0118500
X0084500
X0085500Y0118000
X0085000Y0117000
X0084000Y0116500
X0086000
X0087500Y0117000
X0089000
X0090000
X0089500Y0118500
X0088500
X0087000
X0080000Y0116500
X0099500Y0117000
X0100000Y0118000
X0099000Y0118500
X0101000
X0102000Y0118000
X0101500Y0117000
X0102500Y0116500
X0103500Y0117000
X0104000Y0118000
X0103000Y0118500
X0105000
X0106000Y0118000
X0105500Y0117000
X0104500Y0116500
X0106500
X0108500Y0117000
X0109500
X0109000Y0118500
X0108000
X0100500Y0116500
X0120000Y0117000
X0120500Y0118000
X0121500Y0118500
X0122500Y0118000
X0122000Y0117000
X0123000Y0116500
X0124000Y0117000
X0124500Y0118000
X0123500Y0118500
X0125500
X0126500Y0118000
X0126000Y0117000
X0127000Y0116500
X0125000
X0121000
X0119500Y0118500
X0128500
X0129000Y0117000
X0140000
X0140500Y0118000
X0141500Y0118500
X0142500Y0118000
X0142000Y0117000
X0143000Y0116500
X0144000Y0117000
X0144500Y0118000
X0143500Y0118500
X0145500
X0146500Y0118000
X0146000Y0117000
X0147000Y0116500
X0145000
X0141000
X0139500Y0118500
X0148000
X0149500
X0150000Y0117000
X0148500
X0160500
X0161000Y0118000
X0162000Y0118500
X0163000Y0118000
X0162500Y0117000
X0161500Y0116500
X0163500
X0164500Y0117000
X0165000Y0118000
X0164000Y0118500
X0166000
X0167000Y0118000
X0166500Y0117000
X0165500Y0116500
X0167500
X0168975Y0117000
X0168475Y0118500
X0160000
X0180000
X0181000Y0118000
X0180500Y0117000
X0181500Y0116500
X0182500Y0117000
X0183000Y0118000
X0182000Y0118500
X0184000
X0185000Y0118000
X0184500Y0117000
X0185500Y0116500
X0186500Y0117000
X0187000Y0118000
X0186000Y0118500
X0188500
X0189500
X0190000Y0117000
X0189000
X0187500Y0116500
X0183500
X0196000Y0107500
X0195500Y0106500
X0195000Y0105000
X0189000Y0082000
X0189500Y0080830
X0318000Y0107000
Y0108000
X0318500Y0107500
Y0108500
X0318000Y0109500
Y0110500
X0318500Y0110000
Y0111000
X0318000Y0113500
Y0114500
X0318500Y0114000
Y0115000
X0318000Y0116000
Y0117000
X0318500Y0116500
Y0117500
X0354500Y0116500
X0355500
Y0114500
X0354500
Y0112500
X0355500
Y0110500
X0354500
X0355530Y0107200
X0355800Y0106200
X0356070Y0105200
X0356640Y0104500
X0361000Y0147100
X0368500
X0381610Y0147250
Y0148520
X0382880Y0149520
Y0150790
X0384150Y0151060
Y0152330
X0385420
Y0153600
X0386690
Y0154870
X0385420Y0156140
Y0157410
X0384150Y0157140
Y0155870
X0382880Y0154600
Y0153330
X0381610
Y0152060
Y0154870
Y0156140
X0382880Y0157140
Y0158410
X0381610Y0158680
X0386690Y0158410
X0387960Y0157410
Y0156140
Y0152330
Y0151060
X0386690
Y0149790
X0390500Y0148250
Y0146980
X0389230Y0145710
Y0144440
X0387960Y0143170
Y0141900
X0389230Y0140630
Y0139360
X0387960Y0138090
X0387690Y0137090
Y0135820
X0385420Y0135550
Y0134280
X0384150Y0133280
Y0132010
X0381610
Y0133280
X0382880Y0134280
Y0135550
Y0137090
Y0138360
X0384150Y0138090
Y0136820
X0385420Y0137090
Y0138360
X0384150Y0139630
Y0140900
X0382880Y0141900
Y0143170
X0381610Y0144440
Y0145710
Y0140900
Y0139630
Y0138090
Y0136820
X0390500Y0137090
Y0135820
X0389230Y0134550
Y0133280
X0390500Y0140900
Y0142170
X0374000Y0135000
X0356000
X0355000
Y0137000
X0356000
Y0133000
X0355000
X0355500Y0126500
X0354500
X0354500Y0124500
X0355500
Y0122500
X0354500
Y0120500
X0355500
X0355000Y0141000
X0356000
X0355000Y0142000
X0354000
X0352500Y0143500
X0351500
X0350500
X0349500
X0349500Y0144500
X0348500
X0347500
X0346500
X0344500Y0145500
X0343500
Y0146500
X0342500
Y0147500
X0341500
Y0148500
X0340500
X0339000Y0150000
X0338000
X0341500Y0155500
X0342500
Y0156500
X0343500
Y0157500
X0344500
X0344500Y0158500
X0345500
X0318500Y0146500
Y0145500
X0318000Y0146000
Y0145000
X0318500Y0144000
Y0143000
X0318000Y0143500
Y0142500
X0318500Y0140000
Y0139000
X0318000Y0139500
Y0138500
X0318500Y0137500
Y0136500
X0318000Y0137000
Y0136000
X0251500Y0140500
X0250500Y0139500
X0250500Y0141500
X0249500
Y0142500
Y0143500
X0250500
Y0142500
X0251500Y0143500
X0250500Y0144500
X0249500
Y0145500
X0250500
Y0146500
X0249500
Y0147500
X0250500
Y0148500
X0249500
Y0149500
X0250500
X0249500Y0150500
Y0151500
X0247500Y0150500
X0246500Y0151500
Y0152500
X0245500
X0244500
X0243500
Y0153500
X0241500Y0152500
Y0150500
X0240500
X0239500
Y0151500
Y0149500
Y0148500
X0240500
Y0149500
X0241500
Y0148500
Y0147500
X0240500
Y0146500
X0241500
X0240500Y0145500
Y0144500
Y0143500
Y0142500
X0241500
X0242500
Y0141500
X0241500
X0240500
X0239500
X0238500
Y0142500
Y0144500
Y0145500
Y0146500
Y0147500
X0239500
Y0146500
Y0145500
Y0144500
X0243500Y0143500
Y0142500
X0244500Y0142500
X0246500Y0142500
X0246500Y0141500
Y0140500
X0247500Y0141500
X0248500Y0143500
X0247500Y0145500
X0246500Y0147500
X0244500
Y0146500
Y0145500
X0245500Y0149500
X0242500
Y0150500
Y0151500
X0240500Y0154500
Y0155500
X0239500
Y0154500
X0238500
Y0155500
Y0153500
X0238500Y0157500
Y0158500
X0239500
Y0157500
X0240500Y0158500
X0241500
X0244500
Y0157500
X0247500Y0155500
X0250500Y0154500
X0251500Y0158500
X0253000Y0151000
X0251500Y0148500
X0248500Y0148500
X0253000Y0146000
X0245000Y0139200
X0242500Y0140500
X0240500
X0240200Y0139500
X0241000Y0130000
X0239500Y0129500
X0246000Y0130000
X0247000Y0132000
X0238500Y0148500
Y0149500
X0237500
Y0148500
Y0147500
Y0146500
X0236500
Y0145500
Y0144500
X0237500
Y0145500
Y0143500
Y0142500
X0236500
Y0143500
Y0141500
X0237500
X0236500Y0140500
Y0139500
X0234500Y0141500
Y0142500
Y0143500
Y0144500
X0233500
Y0143500
Y0142500
Y0141500
X0232500
X0231500
X0230500
Y0142500
Y0143500
Y0144500
X0231500
Y0145500
X0230500
X0229500
Y0146500
Y0147500
Y0148500
X0228500
Y0149500
Y0150500
Y0151500
Y0152500
Y0153500
X0227500
Y0154500
X0226500
Y0155500
Y0153500
Y0152500
X0225500
X0224500
X0223500
X0222500
Y0153500
Y0151500
Y0150500
X0223500
Y0151500
X0224500
Y0150500
X0225500
Y0151500
X0226500
Y0150500
X0227500
Y0151500
Y0152500
X0229500
Y0151500
Y0150500
Y0149500
X0230500
X0231500
Y0150500
X0230500
Y0151500
X0231500
X0232500
Y0150500
Y0149500
X0232500
X0233500
X0234500
Y0150500
Y0151500
Y0152500
Y0153500
Y0154500
Y0155500
X0233500
X0233500Y0157500
X0234500
X0236500
X0237500
Y0158500
X0236500
Y0155500
Y0154500
Y0153500
Y0152500
X0237500
Y0151500
X0236500
Y0150500
Y0149500
Y0148500
Y0147500
X0234500Y0147500
Y0148500
X0233500
X0232500
Y0147500
X0233500
Y0146500
Y0145500
X0234500Y0145500
X0234500Y0146500
X0232500
X0231500
X0230500
Y0147500
X0231500
Y0148500
X0230500
X0227500
Y0147500
X0226500
Y0146500
X0227500
X0228500
Y0147500
Y0145500
X0227500
X0226500
Y0144500
Y0143500
X0225500
X0225500Y0144500
X0224500
Y0143500
X0223500
Y0144500
Y0145500
Y0146500
Y0147500
Y0148500
Y0149500
X0222500
Y0148500
Y0147500
Y0146500
X0221500
X0220500
X0219500
X0218500
X0219500Y0145500
Y0144500
X0220500Y0144500
Y0143500
X0221500
Y0144500
Y0145500
X0220500
X0222500
Y0144500
Y0143500
Y0142500
Y0141500
X0221500
X0220500
Y0142500
X0221500
Y0140500
X0219500Y0139500
X0219500Y0141500
X0218500Y0141500
X0223500Y0141500
Y0142500
X0224500
Y0141500
X0225500
Y0142500
X0226500
Y0141500
X0227500
Y0142500
X0228500
Y0141500
X0229500
Y0142500
Y0143500
Y0144500
X0228500
Y0143500
X0227500
Y0144500
X0225500Y0145500
X0224500
Y0146500
X0225500
Y0147500
X0224500
Y0148500
X0225500
Y0149500
X0224500
X0226500
Y0148500
X0227500Y0149500
X0228500Y0154500
X0229500
Y0153500
X0230500
X0231500
X0232500
X0233500
Y0152500
X0232500
X0230500
Y0154500
X0231500Y0155500
X0231500Y0157500
X0232500
Y0158500
X0231500
X0230500
Y0157500
X0233500Y0158500
X0237500Y0155500
Y0154500
Y0150500
X0233500
Y0151500
X0232500Y0145500
Y0143500
X0231500Y0140500
X0230000Y0139000
X0227500Y0140500
X0226500Y0140500
X0224500Y0140500
Y0139500
X0221500Y0147500
X0220500
Y0148500
X0221500
Y0149500
X0220500
X0219500Y0149500
X0219500Y0150500
X0220500
X0221500
X0218500Y0152500
X0219500Y0154500
X0220500Y0157500
X0223500Y0157500
X0224500Y0154500
X0204800Y0152500
X0205500Y0151500
X0204800Y0157000
X0205500Y0157954
X0216500Y0128000
X0217500
X0224000Y0126500
X0225500Y0127000
X0226000Y0128500
X0227000
X0229500Y0125500
X0231000Y0126500
X0232700Y0125500
X0234000Y0126500
X0236500Y0128500
X0238000Y0129000
X0034500Y0127000
X0033000Y0126500
X0034000Y0180000
X0033500Y0181500
X0035500
X0036000Y0180000
X0040000Y0198000
X0042000
X0044000
X0046000
X0048500
X0058500
X0060500
X0062500
X0064500
X0066500
X0068000
X0069000
X0080500
X0082500
X0084500
X0086500
X0101000
X0103000
X0105000
X0107000
X0108500
X0109500
X0121000
X0123000
X0125000
X0127000
X0141500
X0143500
X0145500
X0147500
X0149000
X0150000
X0162000Y0197500
X0164000Y0198000
X0168000
X0170500
X0165500Y0195000
X0166000Y0193500
X0182000Y0198000
X0184000
X0186000
X0188000
X0219500Y0173500
X0220500
X0221500
Y0172500
Y0171500
X0220500
Y0170500
X0221500
X0222500
X0223500
Y0169500
Y0168500
X0224500
Y0167500
X0225500
Y0166500
X0224500
Y0165500
X0225500
X0226500
X0227500
X0228500
X0229500
X0230500
X0231500
X0232500
X0233500
X0234500
Y0164500
X0233500
X0232500
X0231500
Y0163500
Y0162500
X0230500
Y0163500
Y0164500
X0229500
X0228500
Y0163500
X0229500
Y0162500
X0228500
Y0161500
X0229500
Y0160500
X0228500
Y0159500
X0229500
X0230500
X0231500
X0232500
Y0160500
Y0161500
Y0162500
Y0163500
X0233500
X0234500
Y0162500
X0233500
Y0161500
X0234500
Y0160500
X0233500
Y0159500
X0234500
X0236500Y0159500
X0237500
Y0160500
X0236500
Y0161500
X0237500
Y0162500
X0236500
Y0163500
Y0164500
Y0165500
X0237500
Y0166500
Y0167500
X0236500
Y0166500
Y0168500
X0237500
Y0169500
X0236500
Y0170500
X0237500
Y0171500
X0236500
X0234500
Y0170500
X0233500
Y0171500
X0232500
Y0170500
X0231500
Y0171500
X0230500
Y0170500
Y0169500
X0231500
Y0168500
X0232500
X0233500
X0234500
Y0169500
X0233500
Y0167500
Y0166500
X0234500
Y0167500
X0232500
Y0166500
X0231500
Y0167500
X0230500
Y0166500
X0229500
Y0167500
Y0168500
X0228500
Y0169500
X0229500
Y0170500
Y0171500
X0228500
Y0170500
X0227500
Y0171500
X0226500
Y0170500
Y0169500
X0227500
Y0168500
Y0167500
Y0166500
X0228500
X0226500
Y0167500
Y0168500
X0225500Y0169500
X0224500
Y0170500
X0225500
Y0171500
Y0172500
Y0173500
X0224500Y0172500
X0223500
Y0171500
X0222500
X0222500Y0169500
Y0168500
Y0167500
Y0166500
X0223500
Y0167500
Y0165500
Y0164500
X0224500
X0225500
X0226500
Y0163500
X0227500
Y0162500
Y0161500
Y0160500
Y0159500
X0226500Y0160500
X0225500
Y0161500
X0224500
Y0160500
X0223500Y0161500
Y0162500
Y0163500
X0224500
X0225500
Y0162500
X0224500
X0226500
X0222500
Y0163500
Y0164500
Y0165500
X0221500
Y0166500
Y0167500
Y0168500
Y0169500
X0220500
X0219500
X0218500
Y0170500
X0219500Y0170500
X0218500Y0171500
X0218500Y0167500
X0219500Y0167500
X0220500
Y0166500
Y0165500
Y0164500
X0219500
X0221500
Y0163500
Y0162500
Y0161500
X0222500
X0220500Y0162500
X0219500
X0220500Y0163500
X0218500Y0161500
X0216000Y0167500
X0220500Y0168500
X0224500Y0171500
X0227500Y0172500
X0228500
X0230500
X0230500Y0173500
X0234500Y0173500
Y0172500
X0230500Y0168500
Y0161500
Y0160500
X0231500Y0161500
X0238500
Y0160500
Y0159500
X0239500
X0240500
X0241500
X0243500
X0242500Y0161500
Y0162500
Y0163500
X0243500
Y0164500
X0242500
X0241500
Y0163500
Y0162500
X0240500
Y0163500
Y0164500
Y0165500
X0241500
X0243500
X0242500Y0166500
X0244500Y0167500
Y0168500
X0246500
X0248500
X0249500
Y0167500
Y0166500
Y0165500
Y0164500
X0248500
X0249500Y0163500
Y0162500
X0250500
Y0163500
Y0164500
Y0165500
Y0166500
Y0167500
Y0168500
Y0169500
Y0170500
Y0171500
X0249500
X0248500
Y0170500
X0249500
Y0169500
X0248500
X0247500Y0170500
X0246500
X0245500
Y0171500
X0246500
Y0172500
X0245500
Y0173500
X0244500
X0243500
Y0172500
X0244500Y0172500
X0243500Y0171500
Y0170500
X0243500Y0169500
X0241500Y0168500
X0239500Y0167500
X0238500Y0169500
Y0171500
X0238500Y0172500
X0240500
Y0173500
X0241500Y0173500
X0242500Y0173500
Y0172500
Y0171500
X0240500Y0170500
X0247500Y0171500
X0246500Y0173500
X0249500Y0172500
X0251500Y0173500
X0253000Y0172000
Y0171000
X0251500Y0168500
X0253000Y0166000
X0251500Y0163500
X0252500Y0160500
X0248500Y0159500
X0247500Y0161500
X0245500
Y0160500
X0244500Y0162500
X0246500Y0163500
Y0164500
X0245500Y0165500
X0247500Y0166500
X0248500Y0167500
X0238500Y0164500
Y0162500
X0239500
Y0161500
X0240500Y0160500
X0318000Y0165000
Y0166000
X0318500Y0165500
Y0166500
Y0168000
Y0169000
X0318000Y0168500
Y0167500
Y0171500
Y0172500
X0318500Y0172000
Y0173000
Y0174500
Y0175500
X0318000Y0175000
Y0174000
Y0194000
Y0195000
X0318500Y0194500
Y0195500
X0318000Y0196500
Y0197500
X0318500Y0197000
Y0198000
X0355000Y0198000
X0356000
Y0196000
X0355000
Y0188000
X0356000
Y0186000
X0355000
Y0184000
X0356000
Y0182000
X0355000
Y0180000
X0356000
Y0178000
X0355000
Y0174000
X0356000
Y0172000
X0355000
X0356000Y0169000
X0357000
X0355000Y0167000
X0354000
X0353000Y0165000
X0352000
X0352000Y0164000
X0351000
Y0163000
X0350000
Y0162000
X0349000
X0349000Y0161000
X0348000
X0381610Y0159950
X0382880Y0160950
Y0162220
X0384150Y0162490
Y0163760
X0382880Y0164760
X0381610
Y0163490
X0382880Y0166030
X0384150Y0167300
Y0168570
X0387960
Y0167300
X0386690
Y0166030
X0385420
Y0164760
X0386690Y0163490
Y0162220
X0387960
Y0163490
X0390230Y0164760
Y0166030
X0391500Y0167300
Y0168570
X0390500Y0171380
Y0172650
X0389230Y0173920
Y0175190
X0387960Y0177460
Y0178730
X0380340
Y0177460
X0385420Y0173650
Y0172380
Y0162220
Y0160950
X0384150
Y0159680
X0386690
X0389230
Y0160950
X0391500Y0162220
Y0163490
X0356000Y0200000
X0355000
Y0202000
X0356000
X0318500Y0202000
Y0201000
X0318000Y0201500
Y0200500
Y0203000
Y0204000
X0318500Y0204500
X0318500Y0203500
X0290000Y0207000
Y0209000
X0187500Y0199500
X0187000Y0198500
X0186500Y0200000
X0185500Y0199500
X0185000Y0198500
X0184500Y0200000
X0183500Y0199500
X0183000Y0198500
X0182500Y0200000
X0181500Y0199500
X0181000Y0198500
X0180500Y0200000
X0170000Y0199500
X0167500
X0167000Y0198500
X0166500Y0200000
X0164500
X0163500Y0199500
X0163000Y0198500
X0161500Y0199000
X0160500Y0198500
X0161000Y0200000
X0162500
X0165000Y0198500
X0169500Y0202500
X0169000Y0204000
X0149500Y0199500
X0148500
X0147000
X0146500Y0198500
X0146000Y0200000
X0145000Y0199500
X0144500Y0198500
X0144000Y0200000
X0143000Y0199500
X0142500Y0198500
X0142000Y0200000
X0141000Y0199500
X0140500Y0198500
X0140000Y0200000
X0126500Y0199500
X0126000Y0198500
X0125500Y0200000
X0124500Y0199500
X0124000Y0198500
X0123500Y0200000
X0122500Y0199500
X0122000Y0198500
X0121500Y0200000
X0120500Y0199500
X0120000Y0198500
X0119500Y0200000
X0109000Y0199500
X0108000
X0106500
X0106000Y0198500
X0105500Y0200000
X0104500Y0199500
X0104000Y0198500
X0103500Y0200000
X0102500Y0199500
X0102000Y0198500
X0101500Y0200000
X0100500Y0199500
X0100000Y0198500
X0099500Y0200000
X0088500
X0087500
X0088000Y0198500
X0089000
X0085500
X0086000Y0199500
X0085000Y0200000
X0084000Y0199500
X0083500Y0198500
X0083000Y0200000
X0082000Y0199500
X0081500Y0198500
X0081000Y0200000
X0080000Y0199500
X0079500Y0198500
X0079000Y0200000
X0068500Y0199500
X0067500
X0066000
X0065500Y0198500
X0065000Y0200000
X0064000Y0199500
X0063500Y0198500
X0063000Y0200000
X0062000Y0199500
X0061500Y0198500
X0061000Y0200000
X0060000Y0199500
X0059500Y0198500
X0059000Y0200000
X0058000Y0199500
X0048000
X0045500
X0045000Y0198500
X0044500Y0200000
X0043500Y0199500
X0043000Y0198500
X0042500Y0200000
X0041500Y0199500
X0041000Y0198500
X0040500Y0200000
X0039500Y0199500
X0039000Y0198500
X0038500Y0200000
X0313000Y0242000
Y0243000
Y0244000
Y0245000
Y0246000
Y0247000
Y0248000
Y0249000
Y0250000
Y0251000
X0321000Y0239500
X0322000
X0323000
X0324000
T02
X0387825Y0131875
X0386555Y0134415
Y0139495
X0214500Y0154000
X0193000Y0214000
Y0215350
T03
X0215500Y0104000
X0216500Y0103500
X0217500Y0104000
X0218500Y0103500
X0219500Y0104000
X0220500Y0103500
X0221500Y0104000
X0222500Y0103500
X0225500Y0104000
X0226500Y0103500
X0227500Y0104000
X0228500Y0103500
X0229500Y0104000
X0230500Y0103500
X0231500Y0104000
X0232500Y0103500
X0235500Y0104000
X0236500Y0103500
X0237500Y0104000
X0238500Y0103500
X0239500Y0104000
X0240500Y0103500
X0241500Y0104000
X0242500Y0103500
X0234000Y0181000
X0233000Y0186000
X0233500Y0210000
X0232500Y0211500
X0231500Y0211000
X0229000
X0228000Y0211500
X0227000Y0211000
X0224500Y0211000
T04
X0235500Y0245500
X0240500
X0245500
T05
X0229500Y0185500
X0231500Y0192500
X0227500
X0224000
X0226000Y0204000
X0234000
X0230000Y0212000
X0222500
T06
X0360500Y0041240
Y0076240
X0345500
X0339400Y0049540
X0330000Y0051740
X0318500Y0062300
X0345500Y0041240
X0311000Y0049800
X0301000Y0049740
X0299000Y0045740
X0289500Y0047708
X0287000Y0049740
X0285300Y0045740
X0284000Y0060240
X0285000Y0063240
X0287000Y0067240
X0289310Y0064942
X0299500Y0063240
X0298000Y0061740
X0301000Y0067240
X0298000Y0079240
X0284000Y0079000
X0324000Y0105300
X0324000Y0109000
X0324000Y0112300
X0324000Y0115500
X0324000Y0119300
Y0134300
X0324000Y0138000
X0324000Y0141300
X0324000Y0144500
X0324000Y0148300
Y0163300
X0324000Y0167000
X0324000Y0170300
X0324000Y0173500
X0324000Y0177300
Y0192300
X0324000Y0196000
X0324000Y0199300
X0324000Y0202500
X0324000Y0206300
X0232960Y0251500
X0260000Y0249500
X0258500Y0247200
X0327000Y0248920
X0328000Y0250700
X0327000Y0254000
X0331500Y0248776
X0339500Y0254000
X0343500Y0257500
X0354119Y0259306
X0350997Y0249580
X0354119Y0242796
X0319500Y0257000
T07
X0174240Y0053500
X0177740Y0058500
X0157420
X0153920Y0053500
X0133600
X0137100Y0058500
X0116780
X0113280Y0053500
X0092960
X0096460Y0058500
X0076140
X0072640Y0053500
X0052320
X0055820Y0058500
X0035500
X0032000Y0053500
X0214000Y0099000
X0224000
X0234000
X0244000
X0210500Y0154500
X0030700Y0265000
X0051020
X0071340
X0091660
X0111980
X0132300
X0152620
X0172940
T08
X0190500Y0049700
X0196000Y0054000
Y0081000
X0245000Y0194000
X0283000Y0204770
X0273000Y0211500
X0265000Y0203500
X0263000
X0260000
X0257500Y0203500
X0255000Y0203500
X0196000Y0222000
Y0238000
T09
X0374500Y0237000
Y0239540
T10
X0172503Y0077020
X0174408Y0078290
Y0075750
X0176312Y0077020
X0178217Y0075750
Y0078290
X0157898
Y0075750
X0155992Y0077020
X0154087Y0078290
Y0075750
X0152182Y0077020
X0137577Y0075750
Y0078290
X0135673Y0077020
X0133768Y0078290
Y0075750
X0131863Y0077020
X0117257Y0075750
Y0078290
X0115353Y0077020
X0113448Y0078290
Y0075750
X0111543Y0077020
X0096938Y0075750
Y0078290
X0095033Y0077020
X0093128Y0078290
Y0075750
X0091223Y0077020
X0076618Y0075750
Y0078290
X0074713Y0077020
X0072808Y0078290
Y0075750
X0070902Y0077020
X0056298Y0075750
Y0078290
X0054393Y0077020
X0052487Y0078290
Y0075750
X0050583Y0077020
X0035978Y0075750
Y0078290
X0034072Y0077020
X0032167Y0078290
Y0075750
X0030263Y0077020
Y0079560
Y0082100
Y0084640
Y0087180
Y0089720
Y0092260
Y0094800
Y0097340
Y0099880
Y0102420
Y0104960
Y0107500
X0032167Y0106230
Y0103690
Y0101150
Y0098610
Y0096070
Y0093530
Y0090990
Y0088450
Y0085910
Y0083370
Y0080830
X0034072Y0082100
Y0084640
Y0087180
Y0089720
Y0092260
Y0094800
Y0097340
Y0099880
Y0102420
Y0104960
Y0107500
X0035978Y0106230
Y0103690
Y0101150
Y0098610
Y0096070
Y0093530
Y0090990
Y0088450
Y0085910
Y0083370
Y0080830
X0034072Y0079560
X0050583
Y0082100
Y0084640
Y0087180
Y0089720
Y0092260
Y0094800
Y0097340
Y0099880
Y0102420
Y0104960
Y0107500
X0052487Y0106230
Y0103690
Y0101150
Y0098610
Y0096070
Y0093530
Y0090990
Y0088450
Y0085910
Y0083370
Y0080830
X0054393Y0082100
Y0084640
Y0087180
Y0089720
Y0092260
Y0094800
Y0097340
Y0099880
Y0102420
Y0104960
Y0107500
X0056298Y0106230
Y0103690
Y0101150
Y0098610
Y0096070
Y0093530
Y0090990
Y0088450
Y0085910
Y0083370
Y0080830
X0054393Y0079560
X0070902
Y0082100
Y0084640
Y0087180
Y0089720
Y0092260
Y0094800
Y0097340
Y0099880
Y0102420
Y0104960
Y0107500
X0072808Y0106230
Y0103690
Y0101150
Y0098610
Y0096070
Y0093530
Y0090990
Y0088450
Y0085910
Y0083370
Y0080830
X0074713Y0082100
Y0084640
Y0087180
Y0089720
Y0092260
Y0094800
Y0097340
Y0099880
Y0102420
Y0104960
Y0107500
X0076618Y0106230
Y0103690
Y0101150
Y0098610
Y0096070
Y0093530
Y0090990
Y0088450
Y0085910
Y0083370
Y0080830
X0074713Y0079560
X0091223
Y0082100
Y0084640
Y0087180
Y0089720
Y0092260
Y0094800
Y0097340
Y0099880
Y0102420
Y0104960
Y0107500
X0093128Y0106230
Y0103690
Y0101150
Y0098610
Y0096070
Y0093530
Y0090990
Y0088450
Y0085910
Y0083370
Y0080830
X0095033Y0082100
Y0084640
Y0087180
Y0089720
Y0092260
Y0094800
Y0097340
Y0099880
Y0102420
Y0104960
Y0107500
X0096938Y0106230
Y0103690
Y0101150
Y0098610
Y0096070
Y0093530
Y0090990
Y0088450
Y0085910
Y0083370
Y0080830
X0095033Y0079560
X0111543
Y0082100
Y0084640
Y0087180
Y0089720
Y0092260
Y0094800
Y0097340
Y0099880
Y0102420
Y0104960
Y0107500
X0113448Y0106230
Y0103690
Y0101150
Y0098610
Y0096070
Y0093530
Y0090990
Y0088450
Y0085910
Y0083370
Y0080830
X0115353Y0082100
Y0084640
Y0087180
Y0089720
Y0092260
Y0094800
Y0097340
Y0099880
Y0102420
Y0104960
Y0107500
X0117257Y0106230
Y0103690
Y0101150
Y0098610
Y0096070
Y0093530
Y0090990
Y0088450
Y0085910
Y0083370
Y0080830
X0115353Y0079560
X0131863
Y0082100
Y0084640
Y0087180
Y0089720
Y0092260
Y0094800
Y0097340
Y0099880
Y0102420
Y0104960
Y0107500
X0133768Y0106230
Y0103690
Y0101150
Y0098610
Y0096070
Y0093530
Y0090990
Y0088450
Y0085910
Y0083370
Y0080830
X0135673Y0082100
Y0084640
Y0087180
Y0089720
Y0092260
Y0094800
Y0097340
Y0099880
Y0102420
Y0104960
Y0107500
X0137577Y0106230
Y0103690
Y0101150
Y0098610
Y0096070
Y0093530
Y0090990
Y0088450
Y0085910
Y0083370
Y0080830
X0135673Y0079560
X0152182
Y0082100
Y0084640
Y0087180
Y0089720
Y0092260
Y0094800
Y0097340
Y0099880
Y0102420
Y0104960
Y0107500
X0154087Y0106230
Y0103690
Y0101150
Y0098610
Y0096070
Y0093530
Y0090990
Y0088450
Y0085910
Y0083370
Y0080830
X0155992Y0082100
Y0084640
Y0087180
Y0089720
Y0092260
Y0094800
Y0097340
Y0099880
Y0102420
Y0104960
Y0107500
X0157898Y0106230
Y0103690
Y0101150
Y0098610
Y0096070
Y0093530
Y0090990
Y0088450
Y0085910
Y0083370
Y0080830
X0155992Y0079560
X0172503
Y0082100
Y0084640
Y0087180
Y0089720
Y0092260
Y0094800
Y0097340
Y0099880
Y0102420
Y0104960
Y0107500
X0174408Y0106230
Y0103690
Y0101150
Y0098610
Y0096070
Y0093530
Y0090990
Y0088450
Y0085910
Y0083370
Y0080830
X0176312Y0082100
Y0084640
Y0087180
Y0089720
Y0092260
Y0094800
Y0097340
Y0099880
Y0102420
Y0104960
Y0107500
X0178217Y0106230
Y0103690
Y0101150
Y0098610
Y0096070
Y0093530
Y0090990
Y0088450
Y0085910
Y0083370
Y0080830
X0176312Y0079560
X0213860Y0086043
X0216400
X0218940
X0221480
X0224020
X0226560
X0229100
X0231640
X0234180
X0236720
X0235450Y0087948
X0232910
X0230370
X0227830
X0225290
X0222750
X0220210
X0217670
X0215130
X0212590
X0213860Y0089853
X0216400
X0218940
X0221480
X0224020
X0226560
X0229100
X0231640
X0234180
X0236720
X0237990Y0087948
Y0091757
X0235450
X0232910
X0230370
X0227830
X0225290
X0222750
X0220210
X0217670
X0215130
X0212590
X0218040Y0116690
X0220580
X0223120
X0225660
X0228200
X0230740
X0233280
X0235820
X0237090Y0118595
X0234550
X0232010
X0229470
X0226930
X0224390
X0221850
X0219310
X0216770
X0239630
X0242170
X0244710
X0247250
X0245980Y0116690
X0243440
X0240900
X0238360
X0248520
X0243070Y0091757
X0240530
X0239260Y0089853
X0241800
X0244340
X0243070Y0087948
X0240530
X0241800Y0086043
X0239260
X0244340
X0243440Y0120500
X0245980
X0248520
X0247250Y0122405
X0244710
X0242170
X0239630
X0240900Y0120500
X0238360
X0235820
X0233280
X0230740
X0228200
X0225660
X0223120
X0220580
X0218040
X0219310Y0122405
X0221850
X0224390
X0226930
X0229470
X0232010
X0234550
X0237090
X0216770
X0216500Y0192500
X0214500
Y0194540
Y0196540
X0216500Y0196500
Y0194500
Y0198540
X0214500Y0198580
Y0200620
X0216500Y0200580
Y0202620
X0214500Y0202660
Y0204700
X0216500Y0204660
X0178217Y0209000
Y0211540
Y0214080
Y0216620
Y0219160
Y0221700
Y0224240
Y0226780
Y0229320
Y0231860
Y0234400
Y0236940
X0176312Y0235670
Y0233130
Y0230590
Y0228050
Y0225510
Y0222970
Y0220430
Y0217890
Y0215350
Y0212810
Y0210270
X0174408Y0211540
Y0214080
Y0216620
Y0219160
Y0221700
Y0224240
Y0226780
Y0229320
Y0231860
Y0234400
Y0236940
X0172503Y0235670
Y0233130
Y0230590
Y0228050
Y0225510
Y0222970
Y0220430
Y0217890
Y0215350
Y0212810
Y0210270
X0174408Y0209000
X0157898
Y0211540
Y0214080
Y0216620
Y0219160
Y0221700
Y0224240
Y0226780
Y0229320
Y0231860
Y0234400
Y0236940
X0155992Y0235670
Y0233130
Y0230590
Y0228050
Y0225510
Y0222970
Y0220430
Y0217890
Y0215350
Y0212810
Y0210270
X0154087Y0211540
Y0214080
Y0216620
Y0219160
Y0221700
Y0224240
Y0226780
Y0229320
Y0231860
Y0234400
Y0236940
X0152182Y0235670
Y0233130
Y0230590
Y0228050
Y0225510
Y0222970
Y0220430
Y0217890
Y0215350
Y0212810
Y0210270
X0154087Y0209000
X0137577
Y0211540
Y0214080
Y0216620
Y0219160
Y0221700
Y0224240
Y0226780
Y0229320
Y0231860
Y0234400
Y0236940
X0135673Y0235670
Y0233130
Y0230590
Y0228050
Y0225510
Y0222970
Y0220430
Y0217890
Y0215350
Y0212810
Y0210270
X0133768Y0211540
Y0214080
Y0216620
Y0219160
Y0221700
Y0224240
Y0226780
Y0229320
Y0231860
Y0234400
Y0236940
X0131863Y0235670
Y0233130
Y0230590
Y0228050
Y0225510
Y0222970
Y0220430
Y0217890
Y0215350
Y0212810
Y0210270
X0133768Y0209000
X0117257
Y0211540
Y0214080
Y0216620
Y0219160
Y0221700
Y0224240
Y0226780
Y0229320
Y0231860
Y0234400
Y0236940
X0115353Y0235670
Y0233130
Y0230590
Y0228050
Y0225510
Y0222970
Y0220430
Y0217890
Y0215350
Y0212810
Y0210270
X0113448Y0211540
Y0214080
Y0216620
Y0219160
Y0221700
Y0224240
Y0226780
Y0229320
Y0231860
Y0234400
Y0236940
X0111543Y0235670
Y0233130
Y0230590
Y0228050
Y0225510
Y0222970
Y0220430
Y0217890
Y0215350
Y0212810
Y0210270
X0113448Y0209000
X0096938
Y0211540
Y0214080
Y0216620
Y0219160
Y0221700
Y0224240
Y0226780
Y0229320
Y0231860
Y0234400
Y0236940
X0095033Y0235670
Y0233130
Y0230590
Y0228050
Y0225510
Y0222970
Y0220430
Y0217890
Y0215350
Y0212810
Y0210270
X0093128Y0211540
Y0214080
Y0216620
Y0219160
Y0221700
Y0224240
Y0226780
Y0229320
Y0231860
Y0234400
Y0236940
X0091223Y0235670
Y0233130
Y0230590
Y0228050
Y0225510
Y0222970
Y0220430
Y0217890
Y0215350
Y0212810
Y0210270
X0093128Y0209000
X0076618
Y0211540
Y0214080
Y0216620
Y0219160
Y0221700
Y0224240
Y0226780
Y0229320
Y0231860
Y0234400
Y0236940
X0074713Y0235670
Y0233130
Y0230590
Y0228050
Y0225510
Y0222970
Y0220430
Y0217890
Y0215350
Y0212810
Y0210270
X0072808Y0211540
Y0214080
Y0216620
Y0219160
Y0221700
Y0224240
Y0226780
Y0229320
Y0231860
Y0234400
Y0236940
X0070902Y0235670
Y0233130
Y0230590
Y0228050
Y0225510
Y0222970
Y0220430
Y0217890
Y0215350
Y0212810
Y0210270
X0072808Y0209000
X0056298
Y0211540
Y0214080
Y0216620
Y0219160
Y0221700
Y0224240
Y0226780
Y0229320
Y0231860
Y0234400
Y0236940
X0054393Y0235670
Y0233130
Y0230590
Y0228050
Y0225510
Y0222970
Y0220430
Y0217890
Y0215350
Y0212810
Y0210270
X0052487Y0211540
Y0214080
Y0216620
Y0219160
Y0221700
Y0224240
Y0226780
Y0229320
Y0231860
Y0234400
Y0236940
X0050583Y0235670
Y0233130
Y0230590
Y0228050
Y0225510
Y0222970
Y0220430
Y0217890
Y0215350
Y0212810
Y0210270
X0052487Y0209000
X0035978
Y0211540
Y0214080
Y0216620
Y0219160
Y0221700
Y0224240
Y0226780
Y0229320
Y0231860
Y0234400
Y0236940
X0034072Y0235670
Y0233130
Y0230590
Y0228050
Y0225510
Y0222970
Y0220430
Y0217890
Y0215350
Y0212810
Y0210270
X0032167Y0211540
Y0214080
Y0216620
Y0219160
Y0221700
Y0224240
Y0226780
Y0229320
Y0231860
Y0234400
Y0236940
X0030263Y0235670
Y0233130
Y0230590
Y0228050
Y0225510
Y0222970
Y0220430
Y0217890
Y0215350
Y0212810
Y0210270
X0032167Y0209000
Y0239480
X0034072Y0238210
Y0240750
X0035978Y0239480
X0030263Y0240750
Y0238210
X0050583
Y0240750
X0052487Y0239480
X0054393Y0238210
Y0240750
X0056298Y0239480
X0070902Y0240750
Y0238210
X0072808Y0239480
X0074713Y0238210
Y0240750
X0076618Y0239480
X0091223Y0240750
Y0238210
X0093128Y0239480
X0095033Y0238210
Y0240750
X0096938Y0239480
X0111543Y0240750
Y0238210
X0113448Y0239480
X0115353Y0238210
Y0240750
X0117257Y0239480
X0131863Y0240750
Y0238210
X0133768Y0239480
X0135673Y0238210
Y0240750
X0137577Y0239480
X0152182Y0240750
Y0238210
X0154087Y0239480
X0155992Y0238210
Y0240750
X0157898Y0239480
X0172503Y0240750
Y0238210
X0174408Y0239480
X0176312Y0238210
Y0240750
X0178217Y0239480
T11
X0322500Y0221000
X0325500
X0328500
X0327000Y0223000
X0330000
X0324000
X0321000
T12
X0227600Y0059350
X0232680
X0047500Y0154000
Y0159080
X0223300Y0233200
X0228380
T13
X0327900Y0059700
X0327900Y0070740
X0344500Y0070700
X0344500Y0059660
T14
X0382225Y0127545
X0385275Y0181925
T15
X0357460Y0219960
X0360000Y0222500
X0362540Y0219960
Y0225040
X0357460
X0351540Y0225040
X0349000Y0222500
X0351540Y0219960
X0346460
Y0225040
X0340540Y0225040
X0338000Y0222500
X0340540Y0219960
X0335460
Y0225040
X0286040Y0229460
X0283500Y0232000
X0280960Y0229460
Y0234540
X0286040
X0277540
X0275000Y0232000
X0272460Y0234540
Y0229460
X0277540
T16
X0351500Y0049500
Y0054580
Y0059660
Y0064740
T17
X0175360Y0071940
X0155040
X0134720
X0114400
X0094080
X0073760
X0053440
X0033120
Y0111310
X0053440
X0073760
X0094080
X0114400
X0134720
X0155040
X0175360
X0208780Y0088900
X0248150
X0252330Y0119548
X0212960
X0175360Y0205190
X0155040
X0134720
X0114400
X0094080
X0073760
X0053440
X0033120
Y0244560
X0053440
X0073760
X0094080
X0114400
X0134720
X0155040
X0175360
T18
X0037700Y0028750
X0058020
X0078340
X0098660
X0118980
X0139300
X0159620
X0179940
X0200260
X0220580
X0240900
X0261220
X0281540
X0301860
X0322180
X0342500
X0362820
X0383140
X0159620Y0151250
X0139300
X0118980
X0098660
X0078340
X0058020
X0037700
Y0162100
X0058020
X0078340
X0098660
X0118980
X0139300
X0159620
X0362820Y0284600
X0383140
X0342500
X0322180
X0301860
X0281540
X0261220
X0240900
X0220580
X0200260
X0179940
X0159620
X0139300
X0118980
X0098660
X0078340
X0058020
X0037700
T19
X0353520Y0046970
Y0067270
X0261900Y0110900
X0388100
X0261900Y0190100
X0388100
X0374420Y0244750
Y0257450
M30
