%FSAX43Y43*%
%MOMM*%
G71*
G01*
G75*
G04 Layer_Color=65535*
%ADD10C,0.150*%
%ADD11O,0.305X1.016*%
%ADD12O,0.813X0.305*%
%ADD13R,0.762X2.540*%
%ADD14R,5.000X6.000*%
%ADD15O,1.016X0.305*%
%ADD16O,0.305X0.813*%
%ADD17R,3.048X3.048*%
%ADD18R,2.540X0.762*%
%ADD19R,6.000X5.000*%
%ADD20R,3.048X3.048*%
%ADD21O,0.508X1.016*%
%ADD22O,1.524X0.508*%
%ADD23O,1.016X0.508*%
%ADD24O,0.508X1.524*%
%ADD25O,2.100X6.000*%
%ADD26O,2.100X6.000*%
%ADD27C,0.120*%
%ADD28C,0.175*%
%ADD29C,0.508*%
%ADD30C,0.500*%
%ADD31C,0.200*%
%ADD32C,1.524*%
%ADD33C,1.000*%
%ADD34C,0.254*%
%ADD35C,1.160*%
%ADD36C,1.016*%
%ADD37C,0.400*%
%ADD38C,0.300*%
%ADD39C,0.305*%
%ADD40C,1.850*%
%ADD41R,1.850X1.850*%
%ADD42R,1.850X1.850*%
%ADD43C,4.000*%
%ADD44C,1.422*%
%ADD45C,2.438*%
%ADD46C,1.524*%
%ADD47C,3.000*%
%ADD48C,2.500*%
%ADD49C,1.575*%
%ADD50R,1.575X1.575*%
%ADD51R,1.575X1.575*%
%ADD52C,0.500*%
%ADD53C,1.300*%
%ADD54C,1.000*%
%ADD55C,1.200*%
%ADD56C,1.270*%
%ADD57C,0.600*%
%ADD58C,0.900*%
%ADD59C,2.000*%
G04:AMPARAMS|DCode=60|XSize=1.85mm|YSize=1.85mm|CornerRadius=0mm|HoleSize=0mm|Usage=FLASHONLY|Rotation=0.000|XOffset=0mm|YOffset=0mm|HoleType=Round|Shape=Relief|Width=0.175mm|Gap=0.2mm|Entries=4|*
%AMTHD60*
7,0,0,1.850,1.450,0.175,45*
%
%ADD60THD60*%
%ADD61C,3.400*%
%ADD62C,1.213*%
G04:AMPARAMS|DCode=63|XSize=2.0708mm|YSize=2.0708mm|CornerRadius=0mm|HoleSize=0mm|Usage=FLASHONLY|Rotation=0.000|XOffset=0mm|YOffset=0mm|HoleType=Round|Shape=Relief|Width=0.175mm|Gap=0.2mm|Entries=4|*
%AMTHD63*
7,0,0,2.071,1.671,0.175,45*
%
%ADD63THD63*%
%ADD64C,1.721*%
G04:AMPARAMS|DCode=65|XSize=1.65mm|YSize=1.65mm|CornerRadius=0mm|HoleSize=0mm|Usage=FLASHONLY|Rotation=0.000|XOffset=0mm|YOffset=0mm|HoleType=Round|Shape=Relief|Width=0.175mm|Gap=0.2mm|Entries=4|*
%AMTHD65*
7,0,0,1.650,1.250,0.175,45*
%
%ADD65THD65*%
%ADD66C,2.700*%
%ADD67C,2.200*%
G04:AMPARAMS|DCode=68|XSize=2.55mm|YSize=2.55mm|CornerRadius=0mm|HoleSize=0mm|Usage=FLASHONLY|Rotation=0.000|XOffset=0mm|YOffset=0mm|HoleType=Round|Shape=Relief|Width=0.175mm|Gap=0.2mm|Entries=4|*
%AMTHD68*
7,0,0,2.550,2.150,0.175,45*
%
%ADD68THD68*%
%ADD69C,1.416*%
G04:AMPARAMS|DCode=70|XSize=1.766mm|YSize=1.766mm|CornerRadius=0mm|HoleSize=0mm|Usage=FLASHONLY|Rotation=0.000|XOffset=0mm|YOffset=0mm|HoleType=Round|Shape=Relief|Width=0.175mm|Gap=0.2mm|Entries=4|*
%AMTHD70*
7,0,0,1.766,1.366,0.175,45*
%
%ADD70THD70*%
G04:AMPARAMS|DCode=71|XSize=1.5628mm|YSize=1.5628mm|CornerRadius=0mm|HoleSize=0mm|Usage=FLASHONLY|Rotation=0.000|XOffset=0mm|YOffset=0mm|HoleType=Round|Shape=Relief|Width=0.175mm|Gap=0.2mm|Entries=4|*
%AMTHD71*
7,0,0,1.563,1.163,0.175,45*
%
%ADD71THD71*%
%ADD72C,0.650*%
G04:AMPARAMS|DCode=73|XSize=1mm|YSize=1mm|CornerRadius=0mm|HoleSize=0mm|Usage=FLASHONLY|Rotation=0.000|XOffset=0mm|YOffset=0mm|HoleType=Round|Shape=Relief|Width=0.175mm|Gap=0.2mm|Entries=4|*
%AMTHD73*
7,0,0,1.000,0.600,0.175,45*
%
%ADD73THD73*%
G04:AMPARAMS|DCode=74|XSize=1.05mm|YSize=1.05mm|CornerRadius=0mm|HoleSize=0mm|Usage=FLASHONLY|Rotation=0.000|XOffset=0mm|YOffset=0mm|HoleType=Round|Shape=Relief|Width=0.175mm|Gap=0.2mm|Entries=4|*
%AMTHD74*
7,0,0,1.050,0.650,0.175,45*
%
%ADD74THD74*%
%ADD75C,0.700*%
%ADD76C,1.100*%
%ADD77C,1.111*%
G04:AMPARAMS|DCode=78|XSize=1.4612mm|YSize=1.4612mm|CornerRadius=0mm|HoleSize=0mm|Usage=FLASHONLY|Rotation=0.000|XOffset=0mm|YOffset=0mm|HoleType=Round|Shape=Relief|Width=0.175mm|Gap=0.2mm|Entries=4|*
%AMTHD78*
7,0,0,1.461,1.061,0.175,45*
%
%ADD78THD78*%
G04:AMPARAMS|DCode=79|XSize=1.45mm|YSize=1.45mm|CornerRadius=0mm|HoleSize=0mm|Usage=FLASHONLY|Rotation=0.000|XOffset=0mm|YOffset=0mm|HoleType=Round|Shape=Relief|Width=0.175mm|Gap=0.2mm|Entries=4|*
%AMTHD79*
7,0,0,1.450,1.050,0.175,45*
%
%ADD79THD79*%
%ADD80C,0.900*%
%ADD81C,0.800*%
%ADD82C,1.670*%
%ADD83C,1.000*%
%ADD84O,1.270X0.762*%
%ADD85R,1.270X0.762*%
%ADD86O,0.508X1.778*%
%ADD87R,0.508X1.778*%
%ADD88R,1.270X2.108*%
G04:AMPARAMS|DCode=89|XSize=2.108mm|YSize=1.27mm|CornerRadius=0mm|HoleSize=0mm|Usage=FLASHONLY|Rotation=270.000|XOffset=0mm|YOffset=0mm|HoleType=Round|Shape=Octagon|*
%AMOCTAGOND89*
4,1,8,-0.318,-1.054,0.318,-1.054,0.635,-0.737,0.635,0.737,0.318,1.054,-0.318,1.054,-0.635,0.737,-0.635,-0.737,-0.318,-1.054,0.0*
%
%ADD89OCTAGOND89*%

%ADD90O,0.600X2.200*%
%ADD91R,0.250X1.600*%
%ADD92O,0.250X1.600*%
%ADD93O,1.600X0.250*%
%ADD94R,4.600X0.610*%
%ADD95R,4.600X0.810*%
%ADD96R,1.650X0.300*%
%ADD97O,1.778X0.381*%
%ADD98R,1.778X0.381*%
%ADD99C,0.250*%
%ADD100C,0.203*%
G54D30*
X0280000Y0110000D02*
Y0200000D01*
Y0110000D02*
X0395000D01*
Y0200000D01*
X0280000D02*
X0395000D01*
G54D31*
X0063230Y0160820D02*
X0065770D01*
X0063230Y0152260D02*
Y0160820D01*
Y0152260D02*
X0065770D01*
Y0160820D01*
X0286820Y0088730D02*
Y0091270D01*
X0278260D02*
X0286820D01*
X0278260Y0088730D02*
Y0091270D01*
Y0088730D02*
X0286820D01*
X0285820Y0258730D02*
Y0261270D01*
X0277260D02*
X0285820D01*
X0277260Y0258730D02*
Y0261270D01*
Y0258730D02*
X0285820D01*
X0279050Y0055900D02*
Y0058400D01*
X0273950Y0055900D02*
X0279050D01*
X0273950D02*
Y0060900D01*
X0279050D01*
Y0058400D02*
Y0060900D01*
Y0048300D02*
Y0050800D01*
X0273950D02*
X0279050D01*
X0273950Y0045800D02*
Y0050800D01*
Y0045800D02*
X0279050D01*
Y0048300D01*
X0061617Y0155606D02*
X0061400Y0155390D01*
Y0154957D01*
X0061617Y0154740D01*
X0062483D01*
X0062700Y0154957D01*
Y0155390D01*
X0062483Y0155606D01*
X0061400Y0156040D02*
X0062700D01*
Y0156689D01*
X0062483Y0156906D01*
X0062267D01*
X0062050Y0156689D01*
Y0156040D01*
Y0156689D01*
X0061834Y0156906D01*
X0061617D01*
X0061400Y0156689D01*
Y0156040D01*
X0061617Y0157339D02*
X0061400Y0157556D01*
Y0157989D01*
X0061617Y0158206D01*
X0061834D01*
X0062050Y0157989D01*
Y0157772D01*
Y0157989D01*
X0062267Y0158206D01*
X0062483D01*
X0062700Y0157989D01*
Y0157556D01*
X0062483Y0157339D01*
X0281606Y0092883D02*
X0281390Y0093100D01*
X0280957D01*
X0280740Y0092883D01*
Y0092017D01*
X0280957Y0091800D01*
X0281390D01*
X0281606Y0092017D01*
X0282040Y0093100D02*
Y0091800D01*
X0282689D01*
X0282906Y0092017D01*
Y0092233D01*
X0282689Y0092450D01*
X0282040D01*
X0282689D01*
X0282906Y0092666D01*
Y0092883D01*
X0282689Y0093100D01*
X0282040D01*
X0284206Y0091800D02*
X0283339D01*
X0284206Y0092666D01*
Y0092883D01*
X0283989Y0093100D01*
X0283556D01*
X0283339Y0092883D01*
X0280606Y0262883D02*
X0280390Y0263100D01*
X0279957D01*
X0279740Y0262883D01*
Y0262017D01*
X0279957Y0261800D01*
X0280390D01*
X0280606Y0262017D01*
X0281040Y0263100D02*
Y0261800D01*
X0281689D01*
X0281906Y0262017D01*
Y0262233D01*
X0281689Y0262450D01*
X0281040D01*
X0281689D01*
X0281906Y0262666D01*
Y0262883D01*
X0281689Y0263100D01*
X0281040D01*
X0282339Y0261800D02*
X0282772D01*
X0282556D01*
Y0263100D01*
X0282339Y0262883D01*
X0067300Y0254000D02*
X0068300D01*
X0068500Y0254200D01*
Y0254600D01*
X0068300Y0254800D01*
X0067300D01*
X0068500Y0255200D02*
Y0255799D01*
X0068300Y0255999D01*
X0068100Y0255799D01*
Y0255400D01*
X0067900Y0255200D01*
X0067700Y0255400D01*
Y0255999D01*
Y0256399D02*
X0068300D01*
X0068500Y0256599D01*
Y0257199D01*
X0067700D01*
X0068900Y0257599D02*
X0067700D01*
Y0258199D01*
X0067900Y0258399D01*
X0068300D01*
X0068500Y0258199D01*
Y0257599D01*
X0068700Y0258798D02*
Y0259598D01*
X0067700Y0260798D02*
Y0260198D01*
X0067900Y0259998D01*
X0068300D01*
X0068500Y0260198D01*
Y0260798D01*
X0067300Y0261198D02*
X0068500D01*
X0067900D01*
X0067700Y0261398D01*
Y0261797D01*
X0067900Y0261997D01*
X0068500D01*
Y0262397D02*
Y0262797D01*
Y0262597D01*
X0067300D01*
X0067500Y0262397D01*
X0068500Y0263397D02*
Y0263797D01*
Y0263597D01*
X0067300D01*
X0067500Y0263397D01*
X0230300Y0242500D02*
X0231100D01*
X0231500Y0242900D01*
X0231100Y0243300D01*
X0230300D01*
Y0243700D02*
X0231500D01*
Y0244299D01*
X0231300Y0244499D01*
X0230500D01*
X0230300Y0244299D01*
Y0243700D01*
Y0244899D02*
X0231500D01*
Y0245699D01*
X0230300Y0246899D02*
Y0246099D01*
X0231500D01*
Y0246899D01*
X0230900Y0246099D02*
Y0246499D01*
X0230300Y0247298D02*
X0231500D01*
Y0247898D01*
X0231300Y0248098D01*
X0230500D01*
X0230300Y0247898D01*
Y0247298D01*
X0230500Y0248498D02*
X0230300Y0248698D01*
Y0249098D01*
X0230500Y0249298D01*
X0230700D01*
X0230900Y0249098D01*
Y0248898D01*
Y0249098D01*
X0231100Y0249298D01*
X0231300D01*
X0231500Y0249098D01*
Y0248698D01*
X0231300Y0248498D01*
X0146100Y0064000D02*
X0145900Y0064200D01*
X0145500D01*
X0145300Y0064000D01*
Y0063200D01*
X0145500Y0063000D01*
X0145900D01*
X0146100Y0063200D01*
X0146500Y0063000D02*
X0146899D01*
X0146700D01*
Y0064200D01*
X0146500Y0064000D01*
X0147499D02*
X0147699Y0064200D01*
X0148099D01*
X0148299Y0064000D01*
Y0063800D01*
X0148099Y0063600D01*
X0148299Y0063400D01*
Y0063200D01*
X0148099Y0063000D01*
X0147699D01*
X0147499Y0063200D01*
Y0063400D01*
X0147699Y0063600D01*
X0147499Y0063800D01*
Y0064000D01*
X0147699Y0063600D02*
X0148099D01*
X0168800Y0254000D02*
X0169800D01*
X0170000Y0254200D01*
Y0254600D01*
X0169800Y0254800D01*
X0168800D01*
X0170000Y0255200D02*
Y0255799D01*
X0169800Y0255999D01*
X0169600Y0255799D01*
Y0255400D01*
X0169400Y0255200D01*
X0169200Y0255400D01*
Y0255999D01*
Y0256399D02*
X0169800D01*
X0170000Y0256599D01*
Y0257199D01*
X0169200D01*
X0170400Y0257599D02*
X0169200D01*
Y0258199D01*
X0169400Y0258399D01*
X0169800D01*
X0170000Y0258199D01*
Y0257599D01*
X0170200Y0258798D02*
Y0259598D01*
X0169200Y0260798D02*
Y0260198D01*
X0169400Y0259998D01*
X0169800D01*
X0170000Y0260198D01*
Y0260798D01*
X0168800Y0261198D02*
X0170000D01*
X0169400D01*
X0169200Y0261398D01*
Y0261797D01*
X0169400Y0261997D01*
X0170000D01*
Y0262397D02*
Y0262797D01*
Y0262597D01*
X0168800D01*
X0169000Y0262397D01*
X0168800Y0264197D02*
X0169000Y0263797D01*
X0169400Y0263397D01*
X0169800D01*
X0170000Y0263597D01*
Y0263997D01*
X0169800Y0264197D01*
X0169600D01*
X0169400Y0263997D01*
Y0263397D01*
X0148800Y0254000D02*
X0149800D01*
X0150000Y0254200D01*
Y0254600D01*
X0149800Y0254800D01*
X0148800D01*
X0150000Y0255200D02*
Y0255799D01*
X0149800Y0255999D01*
X0149600Y0255799D01*
Y0255400D01*
X0149400Y0255200D01*
X0149200Y0255400D01*
Y0255999D01*
Y0256399D02*
X0149800D01*
X0150000Y0256599D01*
Y0257199D01*
X0149200D01*
X0150400Y0257599D02*
X0149200D01*
Y0258199D01*
X0149400Y0258399D01*
X0149800D01*
X0150000Y0258199D01*
Y0257599D01*
X0150200Y0258798D02*
Y0259598D01*
X0149200Y0260798D02*
Y0260198D01*
X0149400Y0259998D01*
X0149800D01*
X0150000Y0260198D01*
Y0260798D01*
X0148800Y0261198D02*
X0150000D01*
X0149400D01*
X0149200Y0261398D01*
Y0261797D01*
X0149400Y0261997D01*
X0150000D01*
Y0262397D02*
Y0262797D01*
Y0262597D01*
X0148800D01*
X0149000Y0262397D01*
X0148800Y0264197D02*
Y0263397D01*
X0149400D01*
X0149200Y0263797D01*
Y0263997D01*
X0149400Y0264197D01*
X0149800D01*
X0150000Y0263997D01*
Y0263597D01*
X0149800Y0263397D01*
X0128300Y0254000D02*
X0129300D01*
X0129500Y0254200D01*
Y0254600D01*
X0129300Y0254800D01*
X0128300D01*
X0129500Y0255200D02*
Y0255799D01*
X0129300Y0255999D01*
X0129100Y0255799D01*
Y0255400D01*
X0128900Y0255200D01*
X0128700Y0255400D01*
Y0255999D01*
Y0256399D02*
X0129300D01*
X0129500Y0256599D01*
Y0257199D01*
X0128700D01*
X0129900Y0257599D02*
X0128700D01*
Y0258199D01*
X0128900Y0258399D01*
X0129300D01*
X0129500Y0258199D01*
Y0257599D01*
X0129700Y0258798D02*
Y0259598D01*
X0128700Y0260798D02*
Y0260198D01*
X0128900Y0259998D01*
X0129300D01*
X0129500Y0260198D01*
Y0260798D01*
X0128300Y0261198D02*
X0129500D01*
X0128900D01*
X0128700Y0261398D01*
Y0261797D01*
X0128900Y0261997D01*
X0129500D01*
Y0262397D02*
Y0262797D01*
Y0262597D01*
X0128300D01*
X0128500Y0262397D01*
X0129500Y0263997D02*
X0128300D01*
X0128900Y0263397D01*
Y0264197D01*
X0107800Y0254000D02*
X0108800D01*
X0109000Y0254200D01*
Y0254600D01*
X0108800Y0254800D01*
X0107800D01*
X0109000Y0255200D02*
Y0255799D01*
X0108800Y0255999D01*
X0108600Y0255799D01*
Y0255400D01*
X0108400Y0255200D01*
X0108200Y0255400D01*
Y0255999D01*
Y0256399D02*
X0108800D01*
X0109000Y0256599D01*
Y0257199D01*
X0108200D01*
X0109400Y0257599D02*
X0108200D01*
Y0258199D01*
X0108400Y0258399D01*
X0108800D01*
X0109000Y0258199D01*
Y0257599D01*
X0109200Y0258798D02*
Y0259598D01*
X0108200Y0260798D02*
Y0260198D01*
X0108400Y0259998D01*
X0108800D01*
X0109000Y0260198D01*
Y0260798D01*
X0107800Y0261198D02*
X0109000D01*
X0108400D01*
X0108200Y0261398D01*
Y0261797D01*
X0108400Y0261997D01*
X0109000D01*
Y0262397D02*
Y0262797D01*
Y0262597D01*
X0107800D01*
X0108000Y0262397D01*
Y0263397D02*
X0107800Y0263597D01*
Y0263997D01*
X0108000Y0264197D01*
X0108200D01*
X0108400Y0263997D01*
Y0263797D01*
Y0263997D01*
X0108600Y0264197D01*
X0108800D01*
X0109000Y0263997D01*
Y0263597D01*
X0108800Y0263397D01*
X0087800Y0254000D02*
X0088800D01*
X0089000Y0254200D01*
Y0254600D01*
X0088800Y0254800D01*
X0087800D01*
X0089000Y0255200D02*
Y0255799D01*
X0088800Y0255999D01*
X0088600Y0255799D01*
Y0255400D01*
X0088400Y0255200D01*
X0088200Y0255400D01*
Y0255999D01*
Y0256399D02*
X0088800D01*
X0089000Y0256599D01*
Y0257199D01*
X0088200D01*
X0089400Y0257599D02*
X0088200D01*
Y0258199D01*
X0088400Y0258399D01*
X0088800D01*
X0089000Y0258199D01*
Y0257599D01*
X0089200Y0258798D02*
Y0259598D01*
X0088200Y0260798D02*
Y0260198D01*
X0088400Y0259998D01*
X0088800D01*
X0089000Y0260198D01*
Y0260798D01*
X0087800Y0261198D02*
X0089000D01*
X0088400D01*
X0088200Y0261398D01*
Y0261797D01*
X0088400Y0261997D01*
X0089000D01*
Y0262397D02*
Y0262797D01*
Y0262597D01*
X0087800D01*
X0088000Y0262397D01*
X0089000Y0264197D02*
Y0263397D01*
X0088200Y0264197D01*
X0088000D01*
X0087800Y0263997D01*
Y0263597D01*
X0088000Y0263397D01*
X0046800Y0254000D02*
X0047800D01*
X0048000Y0254200D01*
Y0254600D01*
X0047800Y0254800D01*
X0046800D01*
X0048000Y0255200D02*
Y0255799D01*
X0047800Y0255999D01*
X0047600Y0255799D01*
Y0255400D01*
X0047400Y0255200D01*
X0047200Y0255400D01*
Y0255999D01*
Y0256399D02*
X0047800D01*
X0048000Y0256599D01*
Y0257199D01*
X0047200D01*
X0048400Y0257599D02*
X0047200D01*
Y0258199D01*
X0047400Y0258399D01*
X0047800D01*
X0048000Y0258199D01*
Y0257599D01*
X0048200Y0258798D02*
Y0259598D01*
X0047200Y0260798D02*
Y0260198D01*
X0047400Y0259998D01*
X0047800D01*
X0048000Y0260198D01*
Y0260798D01*
X0046800Y0261198D02*
X0048000D01*
X0047400D01*
X0047200Y0261398D01*
Y0261797D01*
X0047400Y0261997D01*
X0048000D01*
Y0262397D02*
Y0262797D01*
Y0262597D01*
X0046800D01*
X0047000Y0262397D01*
Y0263397D02*
X0046800Y0263597D01*
Y0263997D01*
X0047000Y0264197D01*
X0047800D01*
X0048000Y0263997D01*
Y0263597D01*
X0047800Y0263397D01*
X0047000D01*
X0026800Y0254000D02*
X0027800D01*
X0028000Y0254200D01*
Y0254600D01*
X0027800Y0254800D01*
X0026800D01*
X0028000Y0255200D02*
Y0255799D01*
X0027800Y0255999D01*
X0027600Y0255799D01*
Y0255400D01*
X0027400Y0255200D01*
X0027200Y0255400D01*
Y0255999D01*
Y0256399D02*
X0027800D01*
X0028000Y0256599D01*
Y0257199D01*
X0027200D01*
X0028400Y0257599D02*
X0027200D01*
Y0258199D01*
X0027400Y0258399D01*
X0027800D01*
X0028000Y0258199D01*
Y0257599D01*
X0028200Y0258798D02*
Y0259598D01*
X0027200Y0260798D02*
Y0260198D01*
X0027400Y0259998D01*
X0027800D01*
X0028000Y0260198D01*
Y0260798D01*
X0026800Y0261198D02*
X0028000D01*
X0027400D01*
X0027200Y0261398D01*
Y0261797D01*
X0027400Y0261997D01*
X0028000D01*
X0027800Y0262397D02*
X0028000Y0262597D01*
Y0262997D01*
X0027800Y0263197D01*
X0027000D01*
X0026800Y0262997D01*
Y0262597D01*
X0027000Y0262397D01*
X0027200D01*
X0027400Y0262597D01*
Y0263197D01*
X0178000Y0047200D02*
Y0046200D01*
X0178200Y0046000D01*
X0178600D01*
X0178800Y0046200D01*
Y0047200D01*
X0179200Y0046000D02*
X0179799D01*
X0179999Y0046200D01*
X0179799Y0046400D01*
X0179400D01*
X0179200Y0046600D01*
X0179400Y0046800D01*
X0179999D01*
X0180399D02*
Y0046200D01*
X0180599Y0046000D01*
X0181199D01*
Y0046800D01*
X0181599Y0045600D02*
Y0046800D01*
X0182199D01*
X0182399Y0046600D01*
Y0046200D01*
X0182199Y0046000D01*
X0181599D01*
X0182798Y0045800D02*
X0183598D01*
X0184798Y0046800D02*
X0184198D01*
X0183998Y0046600D01*
Y0046200D01*
X0184198Y0046000D01*
X0184798D01*
X0185198Y0047200D02*
Y0046000D01*
Y0046600D01*
X0185398Y0046800D01*
X0185797D01*
X0185997Y0046600D01*
Y0046000D01*
X0186397Y0047000D02*
X0186597Y0047200D01*
X0186997D01*
X0187197Y0047000D01*
Y0046800D01*
X0186997Y0046600D01*
X0187197Y0046400D01*
Y0046200D01*
X0186997Y0046000D01*
X0186597D01*
X0186397Y0046200D01*
Y0046400D01*
X0186597Y0046600D01*
X0186397Y0046800D01*
Y0047000D01*
X0186597Y0046600D02*
X0186997D01*
X0157500Y0047200D02*
Y0046200D01*
X0157700Y0046000D01*
X0158100D01*
X0158300Y0046200D01*
Y0047200D01*
X0158700Y0046000D02*
X0159299D01*
X0159499Y0046200D01*
X0159299Y0046400D01*
X0158900D01*
X0158700Y0046600D01*
X0158900Y0046800D01*
X0159499D01*
X0159899D02*
Y0046200D01*
X0160099Y0046000D01*
X0160699D01*
Y0046800D01*
X0161099Y0045600D02*
Y0046800D01*
X0161699D01*
X0161899Y0046600D01*
Y0046200D01*
X0161699Y0046000D01*
X0161099D01*
X0162298Y0045800D02*
X0163098D01*
X0164298Y0046800D02*
X0163698D01*
X0163498Y0046600D01*
Y0046200D01*
X0163698Y0046000D01*
X0164298D01*
X0164698Y0047200D02*
Y0046000D01*
Y0046600D01*
X0164898Y0046800D01*
X0165297D01*
X0165497Y0046600D01*
Y0046000D01*
X0165897Y0047200D02*
X0166697D01*
Y0047000D01*
X0165897Y0046200D01*
Y0046000D01*
X0137500Y0047200D02*
Y0046200D01*
X0137700Y0046000D01*
X0138100D01*
X0138300Y0046200D01*
Y0047200D01*
X0138700Y0046000D02*
X0139299D01*
X0139499Y0046200D01*
X0139299Y0046400D01*
X0138900D01*
X0138700Y0046600D01*
X0138900Y0046800D01*
X0139499D01*
X0139899D02*
Y0046200D01*
X0140099Y0046000D01*
X0140699D01*
Y0046800D01*
X0141099Y0045600D02*
Y0046800D01*
X0141699D01*
X0141899Y0046600D01*
Y0046200D01*
X0141699Y0046000D01*
X0141099D01*
X0142298Y0045800D02*
X0143098D01*
X0144298Y0046800D02*
X0143698D01*
X0143498Y0046600D01*
Y0046200D01*
X0143698Y0046000D01*
X0144298D01*
X0144698Y0047200D02*
Y0046000D01*
Y0046600D01*
X0144898Y0046800D01*
X0145297D01*
X0145497Y0046600D01*
Y0046000D01*
X0146697Y0047200D02*
X0146297Y0047000D01*
X0145897Y0046600D01*
Y0046200D01*
X0146097Y0046000D01*
X0146497D01*
X0146697Y0046200D01*
Y0046400D01*
X0146497Y0046600D01*
X0145897D01*
X0334855Y0229115D02*
X0335655D01*
X0335255D01*
Y0227915D01*
X0336655D02*
X0336255D01*
X0336055Y0228115D01*
Y0228515D01*
X0336255Y0228715D01*
X0336655D01*
X0336854Y0228515D01*
Y0228315D01*
X0336055D01*
X0337254Y0227915D02*
X0337854D01*
X0338054Y0228115D01*
X0337854Y0228315D01*
X0337454D01*
X0337254Y0228515D01*
X0337454Y0228715D01*
X0338054D01*
X0338654Y0228915D02*
Y0228715D01*
X0338454D01*
X0338854D01*
X0338654D01*
Y0228115D01*
X0338854Y0227915D01*
X0339454Y0227715D02*
X0340253D01*
X0340853Y0227915D02*
X0341253D01*
X0341453Y0228115D01*
Y0228515D01*
X0341253Y0228715D01*
X0340853D01*
X0340653Y0228515D01*
Y0228115D01*
X0340853Y0227915D01*
X0341853Y0228715D02*
Y0228115D01*
X0342053Y0227915D01*
X0342653D01*
Y0228715D01*
X0343252Y0228915D02*
Y0228715D01*
X0343052D01*
X0343452D01*
X0343252D01*
Y0228115D01*
X0343452Y0227915D01*
X0344052Y0228915D02*
X0344252Y0229115D01*
X0344652D01*
X0344852Y0228915D01*
Y0228715D01*
X0344652Y0228515D01*
X0344452D01*
X0344652D01*
X0344852Y0228315D01*
Y0228115D01*
X0344652Y0227915D01*
X0344252D01*
X0344052Y0228115D01*
X0345855Y0229115D02*
X0346655D01*
X0346255D01*
Y0227915D01*
X0347655D02*
X0347255D01*
X0347055Y0228115D01*
Y0228515D01*
X0347255Y0228715D01*
X0347655D01*
X0347854Y0228515D01*
Y0228315D01*
X0347055D01*
X0348254Y0227915D02*
X0348854D01*
X0349054Y0228115D01*
X0348854Y0228315D01*
X0348454D01*
X0348254Y0228515D01*
X0348454Y0228715D01*
X0349054D01*
X0349654Y0228915D02*
Y0228715D01*
X0349454D01*
X0349854D01*
X0349654D01*
Y0228115D01*
X0349854Y0227915D01*
X0350454Y0227715D02*
X0351253D01*
X0351853Y0227915D02*
X0352253D01*
X0352453Y0228115D01*
Y0228515D01*
X0352253Y0228715D01*
X0351853D01*
X0351653Y0228515D01*
Y0228115D01*
X0351853Y0227915D01*
X0352853Y0228715D02*
Y0228115D01*
X0353053Y0227915D01*
X0353653D01*
Y0228715D01*
X0354252Y0228915D02*
Y0228715D01*
X0354052D01*
X0354452D01*
X0354252D01*
Y0228115D01*
X0354452Y0227915D01*
X0355852D02*
X0355052D01*
X0355852Y0228715D01*
Y0228915D01*
X0355652Y0229115D01*
X0355252D01*
X0355052Y0228915D01*
X0356855Y0229115D02*
X0357655D01*
X0357255D01*
Y0227915D01*
X0358655D02*
X0358255D01*
X0358055Y0228115D01*
Y0228515D01*
X0358255Y0228715D01*
X0358655D01*
X0358854Y0228515D01*
Y0228315D01*
X0358055D01*
X0359254Y0227915D02*
X0359854D01*
X0360054Y0228115D01*
X0359854Y0228315D01*
X0359454D01*
X0359254Y0228515D01*
X0359454Y0228715D01*
X0360054D01*
X0360654Y0228915D02*
Y0228715D01*
X0360454D01*
X0360854D01*
X0360654D01*
Y0228115D01*
X0360854Y0227915D01*
X0361454Y0227715D02*
X0362253D01*
X0362853Y0227915D02*
X0363253D01*
X0363453Y0228115D01*
Y0228515D01*
X0363253Y0228715D01*
X0362853D01*
X0362653Y0228515D01*
Y0228115D01*
X0362853Y0227915D01*
X0363853Y0228715D02*
Y0228115D01*
X0364053Y0227915D01*
X0364653D01*
Y0228715D01*
X0365252Y0228915D02*
Y0228715D01*
X0365052D01*
X0365452D01*
X0365252D01*
Y0228115D01*
X0365452Y0227915D01*
X0366052D02*
X0366452D01*
X0366252D01*
Y0229115D01*
X0366052Y0228915D01*
X0266032Y0133000D02*
Y0134200D01*
X0266632D01*
X0266832Y0134000D01*
Y0133600D01*
X0266632Y0133400D01*
X0266032D01*
X0266432D02*
X0266832Y0133000D01*
X0267831D02*
Y0134200D01*
X0267232Y0133600D01*
X0268031D01*
X0269231Y0133000D02*
X0268431D01*
X0269231Y0133800D01*
Y0134000D01*
X0269031Y0134200D01*
X0268631D01*
X0268431Y0134000D01*
X0258100Y0123600D02*
Y0124800D01*
X0258700D01*
X0258900Y0124600D01*
Y0124200D01*
X0258700Y0124000D01*
X0258100D01*
X0258500D02*
X0258900Y0123600D01*
X0259899D02*
Y0124800D01*
X0259300Y0124200D01*
X0260099D01*
X0260499Y0123600D02*
X0260899D01*
X0260699D01*
Y0124800D01*
X0260499Y0124600D01*
X0253000Y0127000D02*
Y0128200D01*
X0253600D01*
X0253800Y0128000D01*
Y0127600D01*
X0253600Y0127400D01*
X0253000D01*
X0253400D02*
X0253800Y0127000D01*
X0254799D02*
Y0128200D01*
X0254200Y0127600D01*
X0254999D01*
X0255399Y0128000D02*
X0255599Y0128200D01*
X0255999D01*
X0256199Y0128000D01*
Y0127200D01*
X0255999Y0127000D01*
X0255599D01*
X0255399Y0127200D01*
Y0128000D01*
X0268500Y0159500D02*
X0267300D01*
Y0160100D01*
X0267500Y0160300D01*
X0267900D01*
X0268100Y0160100D01*
Y0159500D01*
Y0159900D02*
X0268500Y0160300D01*
X0267500Y0160700D02*
X0267300Y0160900D01*
Y0161299D01*
X0267500Y0161499D01*
X0267700D01*
X0267900Y0161299D01*
Y0161099D01*
Y0161299D01*
X0268100Y0161499D01*
X0268300D01*
X0268500Y0161299D01*
Y0160900D01*
X0268300Y0160700D01*
Y0161899D02*
X0268500Y0162099D01*
Y0162499D01*
X0268300Y0162699D01*
X0267500D01*
X0267300Y0162499D01*
Y0162099D01*
X0267500Y0161899D01*
X0267700D01*
X0267900Y0162099D01*
Y0162699D01*
X0184726Y0246500D02*
Y0247700D01*
X0185326D01*
X0185526Y0247500D01*
Y0247100D01*
X0185326Y0246900D01*
X0184726D01*
X0185126D02*
X0185526Y0246500D01*
X0185926Y0247500D02*
X0186126Y0247700D01*
X0186525D01*
X0186725Y0247500D01*
Y0247300D01*
X0186525Y0247100D01*
X0186325D01*
X0186525D01*
X0186725Y0246900D01*
Y0246700D01*
X0186525Y0246500D01*
X0186126D01*
X0185926Y0246700D01*
X0187925Y0246500D02*
X0187125D01*
X0187925Y0247300D01*
Y0247500D01*
X0187725Y0247700D01*
X0187325D01*
X0187125Y0247500D01*
X0185000Y0250500D02*
Y0251700D01*
X0185600D01*
X0185800Y0251500D01*
Y0251100D01*
X0185600Y0250900D01*
X0185000D01*
X0185400D02*
X0185800Y0250500D01*
X0186200Y0251500D02*
X0186400Y0251700D01*
X0186799D01*
X0186999Y0251500D01*
Y0251300D01*
X0186799Y0251100D01*
X0186599D01*
X0186799D01*
X0186999Y0250900D01*
Y0250700D01*
X0186799Y0250500D01*
X0186400D01*
X0186200Y0250700D01*
X0187399Y0250500D02*
X0187799D01*
X0187599D01*
Y0251700D01*
X0187399Y0251500D01*
X0165006Y0246600D02*
Y0247800D01*
X0165606D01*
X0165806Y0247600D01*
Y0247200D01*
X0165606Y0247000D01*
X0165006D01*
X0165406D02*
X0165806Y0246600D01*
X0166206Y0247600D02*
X0166406Y0247800D01*
X0166805D01*
X0167005Y0247600D01*
Y0247400D01*
X0166805Y0247200D01*
X0166605D01*
X0166805D01*
X0167005Y0247000D01*
Y0246800D01*
X0166805Y0246600D01*
X0166406D01*
X0166206Y0246800D01*
X0167405Y0247600D02*
X0167605Y0247800D01*
X0168005D01*
X0168205Y0247600D01*
Y0246800D01*
X0168005Y0246600D01*
X0167605D01*
X0167405Y0246800D01*
Y0247600D01*
X0165000Y0250500D02*
Y0251700D01*
X0165600D01*
X0165800Y0251500D01*
Y0251100D01*
X0165600Y0250900D01*
X0165000D01*
X0165400D02*
X0165800Y0250500D01*
X0166999D02*
X0166200D01*
X0166999Y0251300D01*
Y0251500D01*
X0166799Y0251700D01*
X0166400D01*
X0166200Y0251500D01*
X0167399Y0250700D02*
X0167599Y0250500D01*
X0167999D01*
X0168199Y0250700D01*
Y0251500D01*
X0167999Y0251700D01*
X0167599D01*
X0167399Y0251500D01*
Y0251300D01*
X0167599Y0251100D01*
X0168199D01*
X0144500Y0246500D02*
Y0247700D01*
X0145100D01*
X0145300Y0247500D01*
Y0247100D01*
X0145100Y0246900D01*
X0144500D01*
X0144900D02*
X0145300Y0246500D01*
X0146499D02*
X0145700D01*
X0146499Y0247300D01*
Y0247500D01*
X0146299Y0247700D01*
X0145900D01*
X0145700Y0247500D01*
X0146899D02*
X0147099Y0247700D01*
X0147499D01*
X0147699Y0247500D01*
Y0247300D01*
X0147499Y0247100D01*
X0147699Y0246900D01*
Y0246700D01*
X0147499Y0246500D01*
X0147099D01*
X0146899Y0246700D01*
Y0246900D01*
X0147099Y0247100D01*
X0146899Y0247300D01*
Y0247500D01*
X0147099Y0247100D02*
X0147499D01*
X0168800Y0220000D02*
Y0220400D01*
Y0220200D01*
X0170000D01*
Y0220000D01*
Y0220400D01*
Y0221000D02*
X0169200D01*
Y0221599D01*
X0169400Y0221799D01*
X0170000D01*
X0169000Y0222999D02*
X0168800Y0222799D01*
Y0222399D01*
X0169000Y0222199D01*
X0169800D01*
X0170000Y0222399D01*
Y0222799D01*
X0169800Y0222999D01*
X0168800Y0223399D02*
X0170000D01*
X0169400D01*
X0169200Y0223599D01*
Y0223999D01*
X0169400Y0224199D01*
X0170000D01*
X0169000Y0225398D02*
X0168800Y0225198D01*
Y0224798D01*
X0169000Y0224599D01*
X0169800D01*
X0170000Y0224798D01*
Y0225198D01*
X0169800Y0225398D01*
X0170000Y0225998D02*
Y0226398D01*
X0169800Y0226598D01*
X0169400D01*
X0169200Y0226398D01*
Y0225998D01*
X0169400Y0225798D01*
X0169800D01*
X0170000Y0225998D01*
Y0226998D02*
X0169200D01*
Y0227598D01*
X0169400Y0227797D01*
X0170000D01*
Y0228197D02*
Y0228597D01*
Y0228397D01*
X0168800D01*
X0169000Y0228197D01*
X0168800Y0229997D02*
X0169000Y0229597D01*
X0169400Y0229197D01*
X0169800D01*
X0170000Y0229397D01*
Y0229797D01*
X0169800Y0229997D01*
X0169600D01*
X0169400Y0229797D01*
Y0229197D01*
X0148300Y0220000D02*
Y0220400D01*
Y0220200D01*
X0149500D01*
Y0220000D01*
Y0220400D01*
Y0221000D02*
X0148700D01*
Y0221599D01*
X0148900Y0221799D01*
X0149500D01*
X0148500Y0222999D02*
X0148300Y0222799D01*
Y0222399D01*
X0148500Y0222199D01*
X0149300D01*
X0149500Y0222399D01*
Y0222799D01*
X0149300Y0222999D01*
X0148300Y0223399D02*
X0149500D01*
X0148900D01*
X0148700Y0223599D01*
Y0223999D01*
X0148900Y0224199D01*
X0149500D01*
X0148500Y0225398D02*
X0148300Y0225198D01*
Y0224798D01*
X0148500Y0224599D01*
X0149300D01*
X0149500Y0224798D01*
Y0225198D01*
X0149300Y0225398D01*
X0149500Y0225998D02*
Y0226398D01*
X0149300Y0226598D01*
X0148900D01*
X0148700Y0226398D01*
Y0225998D01*
X0148900Y0225798D01*
X0149300D01*
X0149500Y0225998D01*
Y0226998D02*
X0148700D01*
Y0227598D01*
X0148900Y0227797D01*
X0149500D01*
Y0228197D02*
Y0228597D01*
Y0228397D01*
X0148300D01*
X0148500Y0228197D01*
X0148300Y0229997D02*
Y0229197D01*
X0148900D01*
X0148700Y0229597D01*
Y0229797D01*
X0148900Y0229997D01*
X0149300D01*
X0149500Y0229797D01*
Y0229397D01*
X0149300Y0229197D01*
X0128059Y0220000D02*
Y0220400D01*
Y0220200D01*
X0129258D01*
Y0220000D01*
Y0220400D01*
Y0221000D02*
X0128459D01*
Y0221599D01*
X0128659Y0221799D01*
X0129258D01*
X0128259Y0222999D02*
X0128059Y0222799D01*
Y0222399D01*
X0128259Y0222199D01*
X0129059D01*
X0129258Y0222399D01*
Y0222799D01*
X0129059Y0222999D01*
X0128059Y0223399D02*
X0129258D01*
X0128659D01*
X0128459Y0223599D01*
Y0223999D01*
X0128659Y0224199D01*
X0129258D01*
X0128259Y0225398D02*
X0128059Y0225198D01*
Y0224798D01*
X0128259Y0224599D01*
X0129059D01*
X0129258Y0224798D01*
Y0225198D01*
X0129059Y0225398D01*
X0129258Y0225998D02*
Y0226398D01*
X0129059Y0226598D01*
X0128659D01*
X0128459Y0226398D01*
Y0225998D01*
X0128659Y0225798D01*
X0129059D01*
X0129258Y0225998D01*
Y0226998D02*
X0128459D01*
Y0227598D01*
X0128659Y0227797D01*
X0129258D01*
Y0228197D02*
Y0228597D01*
Y0228397D01*
X0128059D01*
X0128259Y0228197D01*
X0129258Y0229797D02*
X0128059D01*
X0128659Y0229197D01*
Y0229997D01*
X0107800Y0220000D02*
Y0220400D01*
Y0220200D01*
X0109000D01*
Y0220000D01*
Y0220400D01*
Y0221000D02*
X0108200D01*
Y0221599D01*
X0108400Y0221799D01*
X0109000D01*
X0108000Y0222999D02*
X0107800Y0222799D01*
Y0222399D01*
X0108000Y0222199D01*
X0108800D01*
X0109000Y0222399D01*
Y0222799D01*
X0108800Y0222999D01*
X0107800Y0223399D02*
X0109000D01*
X0108400D01*
X0108200Y0223599D01*
Y0223999D01*
X0108400Y0224199D01*
X0109000D01*
X0108000Y0225398D02*
X0107800Y0225198D01*
Y0224798D01*
X0108000Y0224599D01*
X0108800D01*
X0109000Y0224798D01*
Y0225198D01*
X0108800Y0225398D01*
X0109000Y0225998D02*
Y0226398D01*
X0108800Y0226598D01*
X0108400D01*
X0108200Y0226398D01*
Y0225998D01*
X0108400Y0225798D01*
X0108800D01*
X0109000Y0225998D01*
Y0226998D02*
X0108200D01*
Y0227598D01*
X0108400Y0227797D01*
X0109000D01*
Y0228197D02*
Y0228597D01*
Y0228397D01*
X0107800D01*
X0108000Y0228197D01*
Y0229197D02*
X0107800Y0229397D01*
Y0229797D01*
X0108000Y0229997D01*
X0108200D01*
X0108400Y0229797D01*
Y0229597D01*
Y0229797D01*
X0108600Y0229997D01*
X0108800D01*
X0109000Y0229797D01*
Y0229397D01*
X0108800Y0229197D01*
X0087300Y0220000D02*
Y0220400D01*
Y0220200D01*
X0088500D01*
Y0220000D01*
Y0220400D01*
Y0221000D02*
X0087700D01*
Y0221599D01*
X0087900Y0221799D01*
X0088500D01*
X0087500Y0222999D02*
X0087300Y0222799D01*
Y0222399D01*
X0087500Y0222199D01*
X0088300D01*
X0088500Y0222399D01*
Y0222799D01*
X0088300Y0222999D01*
X0087300Y0223399D02*
X0088500D01*
X0087900D01*
X0087700Y0223599D01*
Y0223999D01*
X0087900Y0224199D01*
X0088500D01*
X0087500Y0225398D02*
X0087300Y0225198D01*
Y0224798D01*
X0087500Y0224599D01*
X0088300D01*
X0088500Y0224798D01*
Y0225198D01*
X0088300Y0225398D01*
X0088500Y0225998D02*
Y0226398D01*
X0088300Y0226598D01*
X0087900D01*
X0087700Y0226398D01*
Y0225998D01*
X0087900Y0225798D01*
X0088300D01*
X0088500Y0225998D01*
Y0226998D02*
X0087700D01*
Y0227598D01*
X0087900Y0227797D01*
X0088500D01*
Y0228197D02*
Y0228597D01*
Y0228397D01*
X0087300D01*
X0087500Y0228197D01*
X0088500Y0229997D02*
Y0229197D01*
X0087700Y0229997D01*
X0087500D01*
X0087300Y0229797D01*
Y0229397D01*
X0087500Y0229197D01*
X0067300Y0220000D02*
Y0220400D01*
Y0220200D01*
X0068500D01*
Y0220000D01*
Y0220400D01*
Y0221000D02*
X0067700D01*
Y0221599D01*
X0067900Y0221799D01*
X0068500D01*
X0067500Y0222999D02*
X0067300Y0222799D01*
Y0222399D01*
X0067500Y0222199D01*
X0068300D01*
X0068500Y0222399D01*
Y0222799D01*
X0068300Y0222999D01*
X0067300Y0223399D02*
X0068500D01*
X0067900D01*
X0067700Y0223599D01*
Y0223999D01*
X0067900Y0224199D01*
X0068500D01*
X0067500Y0225398D02*
X0067300Y0225198D01*
Y0224798D01*
X0067500Y0224599D01*
X0068300D01*
X0068500Y0224798D01*
Y0225198D01*
X0068300Y0225398D01*
X0068500Y0225998D02*
Y0226398D01*
X0068300Y0226598D01*
X0067900D01*
X0067700Y0226398D01*
Y0225998D01*
X0067900Y0225798D01*
X0068300D01*
X0068500Y0225998D01*
Y0226998D02*
X0067700D01*
Y0227598D01*
X0067900Y0227797D01*
X0068500D01*
Y0228197D02*
Y0228597D01*
Y0228397D01*
X0067300D01*
X0067500Y0228197D01*
X0068500Y0229197D02*
Y0229597D01*
Y0229397D01*
X0067300D01*
X0067500Y0229197D01*
X0046700Y0220000D02*
Y0220400D01*
Y0220200D01*
X0047900D01*
Y0220000D01*
Y0220400D01*
Y0221000D02*
X0047100D01*
Y0221599D01*
X0047300Y0221799D01*
X0047900D01*
X0046900Y0222999D02*
X0046700Y0222799D01*
Y0222399D01*
X0046900Y0222199D01*
X0047700D01*
X0047900Y0222399D01*
Y0222799D01*
X0047700Y0222999D01*
X0046700Y0223399D02*
X0047900D01*
X0047300D01*
X0047100Y0223599D01*
Y0223999D01*
X0047300Y0224199D01*
X0047900D01*
X0046900Y0225398D02*
X0046700Y0225198D01*
Y0224798D01*
X0046900Y0224599D01*
X0047700D01*
X0047900Y0224798D01*
Y0225198D01*
X0047700Y0225398D01*
X0047900Y0225998D02*
Y0226398D01*
X0047700Y0226598D01*
X0047300D01*
X0047100Y0226398D01*
Y0225998D01*
X0047300Y0225798D01*
X0047700D01*
X0047900Y0225998D01*
Y0226998D02*
X0047100D01*
Y0227598D01*
X0047300Y0227797D01*
X0047900D01*
Y0228197D02*
Y0228597D01*
Y0228397D01*
X0046700D01*
X0046900Y0228197D01*
Y0229197D02*
X0046700Y0229397D01*
Y0229797D01*
X0046900Y0229997D01*
X0047700D01*
X0047900Y0229797D01*
Y0229397D01*
X0047700Y0229197D01*
X0046900D01*
X0026800Y0220000D02*
Y0220400D01*
Y0220200D01*
X0028000D01*
Y0220000D01*
Y0220400D01*
Y0221000D02*
X0027200D01*
Y0221599D01*
X0027400Y0221799D01*
X0028000D01*
X0027000Y0222999D02*
X0026800Y0222799D01*
Y0222399D01*
X0027000Y0222199D01*
X0027800D01*
X0028000Y0222399D01*
Y0222799D01*
X0027800Y0222999D01*
X0026800Y0223399D02*
X0028000D01*
X0027400D01*
X0027200Y0223599D01*
Y0223999D01*
X0027400Y0224199D01*
X0028000D01*
X0027000Y0225398D02*
X0026800Y0225198D01*
Y0224798D01*
X0027000Y0224599D01*
X0027800D01*
X0028000Y0224798D01*
Y0225198D01*
X0027800Y0225398D01*
X0028000Y0225998D02*
Y0226398D01*
X0027800Y0226598D01*
X0027400D01*
X0027200Y0226398D01*
Y0225998D01*
X0027400Y0225798D01*
X0027800D01*
X0028000Y0225998D01*
Y0226998D02*
X0027200D01*
Y0227598D01*
X0027400Y0227797D01*
X0028000D01*
X0027800Y0228197D02*
X0028000Y0228397D01*
Y0228797D01*
X0027800Y0228997D01*
X0027000D01*
X0026800Y0228797D01*
Y0228397D01*
X0027000Y0228197D01*
X0027200D01*
X0027400Y0228397D01*
Y0228997D01*
X0168800Y0085000D02*
Y0085400D01*
Y0085200D01*
X0170000D01*
Y0085000D01*
Y0085400D01*
Y0086000D02*
X0169200D01*
Y0086599D01*
X0169400Y0086799D01*
X0170000D01*
X0169000Y0087999D02*
X0168800Y0087799D01*
Y0087399D01*
X0169000Y0087199D01*
X0169800D01*
X0170000Y0087399D01*
Y0087799D01*
X0169800Y0087999D01*
X0168800Y0088399D02*
X0170000D01*
X0169400D01*
X0169200Y0088599D01*
Y0088999D01*
X0169400Y0089199D01*
X0170000D01*
X0169000Y0090398D02*
X0168800Y0090198D01*
Y0089798D01*
X0169000Y0089599D01*
X0169800D01*
X0170000Y0089798D01*
Y0090198D01*
X0169800Y0090398D01*
X0170000Y0090998D02*
Y0091398D01*
X0169800Y0091598D01*
X0169400D01*
X0169200Y0091398D01*
Y0090998D01*
X0169400Y0090798D01*
X0169800D01*
X0170000Y0090998D01*
Y0091998D02*
X0169200D01*
Y0092598D01*
X0169400Y0092797D01*
X0170000D01*
X0169000Y0093197D02*
X0168800Y0093397D01*
Y0093797D01*
X0169000Y0093997D01*
X0169200D01*
X0169400Y0093797D01*
X0169600Y0093997D01*
X0169800D01*
X0170000Y0093797D01*
Y0093397D01*
X0169800Y0093197D01*
X0169600D01*
X0169400Y0093397D01*
X0169200Y0093197D01*
X0169000D01*
X0169400Y0093397D02*
Y0093797D01*
X0148800Y0085000D02*
Y0085400D01*
Y0085200D01*
X0150000D01*
Y0085000D01*
Y0085400D01*
Y0086000D02*
X0149200D01*
Y0086599D01*
X0149400Y0086799D01*
X0150000D01*
X0149000Y0087999D02*
X0148800Y0087799D01*
Y0087399D01*
X0149000Y0087199D01*
X0149800D01*
X0150000Y0087399D01*
Y0087799D01*
X0149800Y0087999D01*
X0148800Y0088399D02*
X0150000D01*
X0149400D01*
X0149200Y0088599D01*
Y0088999D01*
X0149400Y0089199D01*
X0150000D01*
X0149000Y0090398D02*
X0148800Y0090198D01*
Y0089798D01*
X0149000Y0089599D01*
X0149800D01*
X0150000Y0089798D01*
Y0090198D01*
X0149800Y0090398D01*
X0150000Y0090998D02*
Y0091398D01*
X0149800Y0091598D01*
X0149400D01*
X0149200Y0091398D01*
Y0090998D01*
X0149400Y0090798D01*
X0149800D01*
X0150000Y0090998D01*
Y0091998D02*
X0149200D01*
Y0092598D01*
X0149400Y0092797D01*
X0150000D01*
X0148800Y0093197D02*
Y0093997D01*
X0149000D01*
X0149800Y0093197D01*
X0150000D01*
X0128300Y0085000D02*
Y0085400D01*
Y0085200D01*
X0129500D01*
Y0085000D01*
Y0085400D01*
Y0086000D02*
X0128700D01*
Y0086599D01*
X0128900Y0086799D01*
X0129500D01*
X0128500Y0087999D02*
X0128300Y0087799D01*
Y0087399D01*
X0128500Y0087199D01*
X0129300D01*
X0129500Y0087399D01*
Y0087799D01*
X0129300Y0087999D01*
X0128300Y0088399D02*
X0129500D01*
X0128900D01*
X0128700Y0088599D01*
Y0088999D01*
X0128900Y0089199D01*
X0129500D01*
X0128500Y0090398D02*
X0128300Y0090198D01*
Y0089798D01*
X0128500Y0089599D01*
X0129300D01*
X0129500Y0089798D01*
Y0090198D01*
X0129300Y0090398D01*
X0129500Y0090998D02*
Y0091398D01*
X0129300Y0091598D01*
X0128900D01*
X0128700Y0091398D01*
Y0090998D01*
X0128900Y0090798D01*
X0129300D01*
X0129500Y0090998D01*
Y0091998D02*
X0128700D01*
Y0092598D01*
X0128900Y0092797D01*
X0129500D01*
X0128300Y0093997D02*
X0128500Y0093597D01*
X0128900Y0093197D01*
X0129300D01*
X0129500Y0093397D01*
Y0093797D01*
X0129300Y0093997D01*
X0129100D01*
X0128900Y0093797D01*
Y0093197D01*
X0228800Y0155000D02*
X0228600Y0155200D01*
X0228200D01*
X0228000Y0155000D01*
Y0154200D01*
X0228200Y0154000D01*
X0228600D01*
X0228800Y0154200D01*
X0229200Y0155200D02*
X0229999D01*
Y0155000D01*
X0229200Y0154200D01*
Y0154000D01*
X0231199D02*
X0230399D01*
X0231199Y0154800D01*
Y0155000D01*
X0230999Y0155200D01*
X0230599D01*
X0230399Y0155000D01*
X0232800D02*
X0232600Y0155200D01*
X0232200D01*
X0232000Y0155000D01*
Y0154200D01*
X0232200Y0154000D01*
X0232600D01*
X0232800Y0154200D01*
X0233200Y0155200D02*
X0233999D01*
Y0155000D01*
X0233200Y0154200D01*
Y0154000D01*
X0234399D02*
X0234799D01*
X0234599D01*
Y0155200D01*
X0234399Y0155000D01*
X0276300Y0155500D02*
X0276100Y0155700D01*
X0275700D01*
X0275500Y0155500D01*
Y0154700D01*
X0275700Y0154500D01*
X0276100D01*
X0276300Y0154700D01*
X0276700Y0155700D02*
X0277499D01*
Y0155500D01*
X0276700Y0154700D01*
Y0154500D01*
X0277899Y0155500D02*
X0278099Y0155700D01*
X0278499D01*
X0278699Y0155500D01*
Y0154700D01*
X0278499Y0154500D01*
X0278099D01*
X0277899Y0154700D01*
Y0155500D01*
X0272300D02*
X0272100Y0155700D01*
X0271700D01*
X0271500Y0155500D01*
Y0154700D01*
X0271700Y0154500D01*
X0272100D01*
X0272300Y0154700D01*
X0273499Y0155700D02*
X0273099Y0155500D01*
X0272700Y0155100D01*
Y0154700D01*
X0272900Y0154500D01*
X0273299D01*
X0273499Y0154700D01*
Y0154900D01*
X0273299Y0155100D01*
X0272700D01*
X0273899Y0154700D02*
X0274099Y0154500D01*
X0274499D01*
X0274699Y0154700D01*
Y0155500D01*
X0274499Y0155700D01*
X0274099D01*
X0273899Y0155500D01*
Y0155300D01*
X0274099Y0155100D01*
X0274699D01*
X0249500Y0133100D02*
X0249300Y0132900D01*
Y0132500D01*
X0249500Y0132300D01*
X0250300D01*
X0250500Y0132500D01*
Y0132900D01*
X0250300Y0133100D01*
X0249300Y0134299D02*
X0249500Y0133899D01*
X0249900Y0133500D01*
X0250300D01*
X0250500Y0133700D01*
Y0134099D01*
X0250300Y0134299D01*
X0250100D01*
X0249900Y0134099D01*
Y0133500D01*
X0249500Y0134699D02*
X0249300Y0134899D01*
Y0135299D01*
X0249500Y0135499D01*
X0249700D01*
X0249900Y0135299D01*
X0250100Y0135499D01*
X0250300D01*
X0250500Y0135299D01*
Y0134899D01*
X0250300Y0134699D01*
X0250100D01*
X0249900Y0134899D01*
X0249700Y0134699D01*
X0249500D01*
X0249900Y0134899D02*
Y0135299D01*
X0249500Y0177300D02*
X0249300Y0177100D01*
Y0176700D01*
X0249500Y0176500D01*
X0250300D01*
X0250500Y0176700D01*
Y0177100D01*
X0250300Y0177300D01*
X0249300Y0178499D02*
X0249500Y0178099D01*
X0249900Y0177700D01*
X0250300D01*
X0250500Y0177900D01*
Y0178299D01*
X0250300Y0178499D01*
X0250100D01*
X0249900Y0178299D01*
Y0177700D01*
X0249300Y0178899D02*
Y0179699D01*
X0249500D01*
X0250300Y0178899D01*
X0250500D01*
X0174600Y0252000D02*
X0174400Y0252200D01*
X0174000D01*
X0173800Y0252000D01*
Y0251200D01*
X0174000Y0251000D01*
X0174400D01*
X0174600Y0251200D01*
X0175599Y0251000D02*
Y0252200D01*
X0175000Y0251600D01*
X0175799D01*
X0176199Y0252000D02*
X0176399Y0252200D01*
X0176799D01*
X0176999Y0252000D01*
Y0251800D01*
X0176799Y0251600D01*
X0176999Y0251400D01*
Y0251200D01*
X0176799Y0251000D01*
X0176399D01*
X0176199Y0251200D01*
Y0251400D01*
X0176399Y0251600D01*
X0176199Y0251800D01*
Y0252000D01*
X0176399Y0251600D02*
X0176799D01*
X0182300Y0265000D02*
X0182100Y0265200D01*
X0181700D01*
X0181500Y0265000D01*
Y0264200D01*
X0181700Y0264000D01*
X0182100D01*
X0182300Y0264200D01*
X0183299Y0264000D02*
Y0265200D01*
X0182700Y0264600D01*
X0183499D01*
X0183899Y0265200D02*
X0184699D01*
Y0265000D01*
X0183899Y0264200D01*
Y0264000D01*
X0171500Y0269000D02*
X0171300Y0269200D01*
X0170900D01*
X0170700Y0269000D01*
Y0268200D01*
X0170900Y0268000D01*
X0171300D01*
X0171500Y0268200D01*
X0172499Y0268000D02*
Y0269200D01*
X0171900Y0268600D01*
X0172699D01*
X0173899Y0269200D02*
X0173499Y0269000D01*
X0173099Y0268600D01*
Y0268200D01*
X0173299Y0268000D01*
X0173699D01*
X0173899Y0268200D01*
Y0268400D01*
X0173699Y0268600D01*
X0173099D01*
X0249500Y0233200D02*
Y0232200D01*
X0249700Y0232000D01*
X0250100D01*
X0250300Y0232200D01*
Y0233200D01*
X0250700Y0232000D02*
X0251299D01*
X0251499Y0232200D01*
X0251299Y0232400D01*
X0250900D01*
X0250700Y0232600D01*
X0250900Y0232800D01*
X0251499D01*
X0251899D02*
Y0232200D01*
X0252099Y0232000D01*
X0252699D01*
Y0232800D01*
X0253099Y0231600D02*
Y0232800D01*
X0253699D01*
X0253899Y0232600D01*
Y0232200D01*
X0253699Y0232000D01*
X0253099D01*
X0254298D02*
X0254698D01*
X0254498D01*
Y0233200D01*
X0254298Y0233000D01*
X0239500Y0239628D02*
X0239300Y0239428D01*
Y0239028D01*
X0239500Y0238828D01*
X0240300D01*
X0240500Y0239028D01*
Y0239428D01*
X0240300Y0239628D01*
X0240500Y0240028D02*
Y0240627D01*
X0240300Y0240827D01*
X0240100Y0240627D01*
Y0240228D01*
X0239900Y0240028D01*
X0239700Y0240228D01*
Y0240827D01*
Y0241227D02*
X0240300D01*
X0240500Y0241427D01*
Y0242027D01*
X0239700D01*
X0240900Y0242427D02*
X0239700D01*
Y0243027D01*
X0239900Y0243227D01*
X0240300D01*
X0240500Y0243027D01*
Y0242427D01*
Y0243626D02*
Y0244026D01*
Y0243826D01*
X0239300D01*
X0239500Y0243626D01*
X0239300Y0244626D02*
Y0245426D01*
X0239500D01*
X0240300Y0244626D01*
X0240500D01*
X0240600Y0233500D02*
X0240400Y0233700D01*
X0240000D01*
X0239800Y0233500D01*
Y0232700D01*
X0240000Y0232500D01*
X0240400D01*
X0240600Y0232700D01*
X0241000Y0232500D02*
X0241599D01*
X0241799Y0232700D01*
X0241599Y0232900D01*
X0241200D01*
X0241000Y0233100D01*
X0241200Y0233300D01*
X0241799D01*
X0242199D02*
Y0232700D01*
X0242399Y0232500D01*
X0242999D01*
Y0233300D01*
X0243399Y0232100D02*
Y0233300D01*
X0243999D01*
X0244199Y0233100D01*
Y0232700D01*
X0243999Y0232500D01*
X0243399D01*
X0244598D02*
X0244998D01*
X0244798D01*
Y0233700D01*
X0244598Y0233500D01*
X0245598Y0232500D02*
X0245998D01*
X0245798D01*
Y0233700D01*
X0245598Y0233500D01*
X0249662Y0247786D02*
X0249462Y0247986D01*
X0249062D01*
X0248862Y0247786D01*
Y0246986D01*
X0249062Y0246786D01*
X0249462D01*
X0249662Y0246986D01*
X0250062Y0246786D02*
X0250662D01*
X0250861Y0246986D01*
X0250662Y0247186D01*
X0250262D01*
X0250062Y0247386D01*
X0250262Y0247586D01*
X0250861D01*
X0251261D02*
Y0246986D01*
X0251461Y0246786D01*
X0252061D01*
Y0247586D01*
X0252461Y0246386D02*
Y0247586D01*
X0253061D01*
X0253261Y0247386D01*
Y0246986D01*
X0253061Y0246786D01*
X0252461D01*
X0253661D02*
X0254060D01*
X0253860D01*
Y0247986D01*
X0253661Y0247786D01*
X0255460Y0246786D02*
X0254660D01*
X0255460Y0247586D01*
Y0247786D01*
X0255260Y0247986D01*
X0254860D01*
X0254660Y0247786D01*
X0216500Y0080200D02*
Y0079200D01*
X0216700Y0079000D01*
X0217100D01*
X0217300Y0079200D01*
Y0080200D01*
X0217700Y0079000D02*
X0218299D01*
X0218499Y0079200D01*
X0218299Y0079400D01*
X0217900D01*
X0217700Y0079600D01*
X0217900Y0079800D01*
X0218499D01*
X0218899D02*
Y0079200D01*
X0219099Y0079000D01*
X0219699D01*
Y0079800D01*
X0220099Y0078600D02*
Y0079800D01*
X0220699D01*
X0220899Y0079600D01*
Y0079200D01*
X0220699Y0079000D01*
X0220099D01*
X0221298Y0080000D02*
X0221498Y0080200D01*
X0221898D01*
X0222098Y0080000D01*
Y0079800D01*
X0221898Y0079600D01*
X0221698D01*
X0221898D01*
X0222098Y0079400D01*
Y0079200D01*
X0221898Y0079000D01*
X0221498D01*
X0221298Y0079200D01*
X0204300Y0225500D02*
X0204100Y0225700D01*
X0203700D01*
X0203500Y0225500D01*
Y0224700D01*
X0203700Y0224500D01*
X0204100D01*
X0204300Y0224700D01*
X0204900Y0225300D02*
X0205299D01*
X0205499Y0225100D01*
Y0224500D01*
X0204900D01*
X0204700Y0224700D01*
X0204900Y0224900D01*
X0205499D01*
X0205899Y0224500D02*
X0206299D01*
X0206099D01*
Y0225700D01*
X0205899D01*
X0206899Y0224500D02*
X0207299D01*
X0207099D01*
Y0225300D01*
X0206899D01*
X0207899Y0225700D02*
Y0224500D01*
X0208498D01*
X0208698Y0224700D01*
Y0224900D01*
Y0225100D01*
X0208498Y0225300D01*
X0207899D01*
X0209098Y0224500D02*
X0209498D01*
X0209298D01*
Y0225700D01*
X0209098Y0225500D01*
X0108300Y0085000D02*
Y0085400D01*
Y0085200D01*
X0109500D01*
Y0085000D01*
Y0085400D01*
Y0086000D02*
X0108700D01*
Y0086599D01*
X0108900Y0086799D01*
X0109500D01*
X0108500Y0087999D02*
X0108300Y0087799D01*
Y0087399D01*
X0108500Y0087199D01*
X0109300D01*
X0109500Y0087399D01*
Y0087799D01*
X0109300Y0087999D01*
X0108300Y0088399D02*
X0109500D01*
X0108900D01*
X0108700Y0088599D01*
Y0088999D01*
X0108900Y0089199D01*
X0109500D01*
X0108500Y0090398D02*
X0108300Y0090198D01*
Y0089798D01*
X0108500Y0089599D01*
X0109300D01*
X0109500Y0089798D01*
Y0090198D01*
X0109300Y0090398D01*
X0109500Y0090998D02*
Y0091398D01*
X0109300Y0091598D01*
X0108900D01*
X0108700Y0091398D01*
Y0090998D01*
X0108900Y0090798D01*
X0109300D01*
X0109500Y0090998D01*
Y0091998D02*
X0108700D01*
Y0092598D01*
X0108900Y0092797D01*
X0109500D01*
X0108300Y0093997D02*
Y0093197D01*
X0108900D01*
X0108700Y0093597D01*
Y0093797D01*
X0108900Y0093997D01*
X0109300D01*
X0109500Y0093797D01*
Y0093397D01*
X0109300Y0093197D01*
X0087800Y0085000D02*
Y0085400D01*
Y0085200D01*
X0089000D01*
Y0085000D01*
Y0085400D01*
Y0086000D02*
X0088200D01*
Y0086599D01*
X0088400Y0086799D01*
X0089000D01*
X0088000Y0087999D02*
X0087800Y0087799D01*
Y0087399D01*
X0088000Y0087199D01*
X0088800D01*
X0089000Y0087399D01*
Y0087799D01*
X0088800Y0087999D01*
X0087800Y0088399D02*
X0089000D01*
X0088400D01*
X0088200Y0088599D01*
Y0088999D01*
X0088400Y0089199D01*
X0089000D01*
X0088000Y0090398D02*
X0087800Y0090198D01*
Y0089798D01*
X0088000Y0089599D01*
X0088800D01*
X0089000Y0089798D01*
Y0090198D01*
X0088800Y0090398D01*
X0089000Y0090998D02*
Y0091398D01*
X0088800Y0091598D01*
X0088400D01*
X0088200Y0091398D01*
Y0090998D01*
X0088400Y0090798D01*
X0088800D01*
X0089000Y0090998D01*
Y0091998D02*
X0088200D01*
Y0092598D01*
X0088400Y0092797D01*
X0089000D01*
Y0093797D02*
X0087800D01*
X0088400Y0093197D01*
Y0093997D01*
X0067300Y0085000D02*
Y0085400D01*
Y0085200D01*
X0068500D01*
Y0085000D01*
Y0085400D01*
Y0086000D02*
X0067700D01*
Y0086599D01*
X0067900Y0086799D01*
X0068500D01*
X0067500Y0087999D02*
X0067300Y0087799D01*
Y0087399D01*
X0067500Y0087199D01*
X0068300D01*
X0068500Y0087399D01*
Y0087799D01*
X0068300Y0087999D01*
X0067300Y0088399D02*
X0068500D01*
X0067900D01*
X0067700Y0088599D01*
Y0088999D01*
X0067900Y0089199D01*
X0068500D01*
X0067500Y0090398D02*
X0067300Y0090198D01*
Y0089798D01*
X0067500Y0089599D01*
X0068300D01*
X0068500Y0089798D01*
Y0090198D01*
X0068300Y0090398D01*
X0068500Y0090998D02*
Y0091398D01*
X0068300Y0091598D01*
X0067900D01*
X0067700Y0091398D01*
Y0090998D01*
X0067900Y0090798D01*
X0068300D01*
X0068500Y0090998D01*
Y0091998D02*
X0067700D01*
Y0092598D01*
X0067900Y0092797D01*
X0068500D01*
X0067500Y0093197D02*
X0067300Y0093397D01*
Y0093797D01*
X0067500Y0093997D01*
X0067700D01*
X0067900Y0093797D01*
Y0093597D01*
Y0093797D01*
X0068100Y0093997D01*
X0068300D01*
X0068500Y0093797D01*
Y0093397D01*
X0068300Y0093197D01*
X0046800Y0085000D02*
Y0085400D01*
Y0085200D01*
X0048000D01*
Y0085000D01*
Y0085400D01*
Y0086000D02*
X0047200D01*
Y0086599D01*
X0047400Y0086799D01*
X0048000D01*
X0047000Y0087999D02*
X0046800Y0087799D01*
Y0087399D01*
X0047000Y0087199D01*
X0047800D01*
X0048000Y0087399D01*
Y0087799D01*
X0047800Y0087999D01*
X0046800Y0088399D02*
X0048000D01*
X0047400D01*
X0047200Y0088599D01*
Y0088999D01*
X0047400Y0089199D01*
X0048000D01*
X0047000Y0090398D02*
X0046800Y0090198D01*
Y0089798D01*
X0047000Y0089599D01*
X0047800D01*
X0048000Y0089798D01*
Y0090198D01*
X0047800Y0090398D01*
X0048000Y0090998D02*
Y0091398D01*
X0047800Y0091598D01*
X0047400D01*
X0047200Y0091398D01*
Y0090998D01*
X0047400Y0090798D01*
X0047800D01*
X0048000Y0090998D01*
Y0091998D02*
X0047200D01*
Y0092598D01*
X0047400Y0092797D01*
X0048000D01*
Y0093997D02*
Y0093197D01*
X0047200Y0093997D01*
X0047000D01*
X0046800Y0093797D01*
Y0093397D01*
X0047000Y0093197D01*
X0026800Y0085000D02*
Y0085400D01*
Y0085200D01*
X0028000D01*
Y0085000D01*
Y0085400D01*
Y0086000D02*
X0027200D01*
Y0086599D01*
X0027400Y0086799D01*
X0028000D01*
X0027000Y0087999D02*
X0026800Y0087799D01*
Y0087399D01*
X0027000Y0087199D01*
X0027800D01*
X0028000Y0087399D01*
Y0087799D01*
X0027800Y0087999D01*
X0026800Y0088399D02*
X0028000D01*
X0027400D01*
X0027200Y0088599D01*
Y0088999D01*
X0027400Y0089199D01*
X0028000D01*
X0027000Y0090398D02*
X0026800Y0090198D01*
Y0089798D01*
X0027000Y0089599D01*
X0027800D01*
X0028000Y0089798D01*
Y0090198D01*
X0027800Y0090398D01*
X0028000Y0090998D02*
Y0091398D01*
X0027800Y0091598D01*
X0027400D01*
X0027200Y0091398D01*
Y0090998D01*
X0027400Y0090798D01*
X0027800D01*
X0028000Y0090998D01*
Y0091998D02*
X0027200D01*
Y0092598D01*
X0027400Y0092797D01*
X0028000D01*
Y0093197D02*
Y0093597D01*
Y0093397D01*
X0026800D01*
X0027000Y0093197D01*
X0220000Y0249200D02*
Y0248400D01*
X0220400Y0248000D01*
X0220800Y0248400D01*
Y0249200D01*
X0221200D02*
Y0248000D01*
X0221799D01*
X0221999Y0248200D01*
Y0249000D01*
X0221799Y0249200D01*
X0221200D01*
X0222399D02*
Y0248000D01*
X0223199D01*
X0224399Y0249200D02*
X0223599D01*
Y0248000D01*
X0224399D01*
X0223599Y0248600D02*
X0223999D01*
X0224798Y0249200D02*
Y0248000D01*
X0225398D01*
X0225598Y0248200D01*
Y0249000D01*
X0225398Y0249200D01*
X0224798D01*
X0225998Y0248000D02*
X0226398D01*
X0226198D01*
Y0249200D01*
X0225998Y0249000D01*
X0214000Y0241500D02*
X0214800D01*
X0215200Y0241900D01*
X0214800Y0242300D01*
X0214000D01*
Y0242700D02*
X0215200D01*
Y0243299D01*
X0215000Y0243499D01*
X0214200D01*
X0214000Y0243299D01*
Y0242700D01*
Y0243899D02*
X0215200D01*
Y0244699D01*
X0214000Y0245899D02*
Y0245099D01*
X0215200D01*
Y0245899D01*
X0214600Y0245099D02*
Y0245499D01*
X0214000Y0246298D02*
X0215200D01*
Y0246898D01*
X0215000Y0247098D01*
X0214200D01*
X0214000Y0246898D01*
Y0246298D01*
X0215200Y0248298D02*
Y0247498D01*
X0214400Y0248298D01*
X0214200D01*
X0214000Y0248098D01*
Y0247698D01*
X0214200Y0247498D01*
X0228800Y0229100D02*
Y0230300D01*
X0229400D01*
X0229600Y0230100D01*
Y0229700D01*
X0229400Y0229500D01*
X0228800D01*
X0229200D02*
X0229600Y0229100D01*
X0230000Y0230300D02*
Y0229100D01*
X0230799D01*
X0231999Y0230300D02*
X0231199D01*
Y0229100D01*
X0231999D01*
X0231199Y0229700D02*
X0231599D01*
X0232399Y0230300D02*
Y0229100D01*
X0232999D01*
X0233199Y0229300D01*
Y0230100D01*
X0232999Y0230300D01*
X0232399D01*
X0233598Y0230100D02*
X0233798Y0230300D01*
X0234198D01*
X0234398Y0230100D01*
Y0229900D01*
X0234198Y0229700D01*
X0233998D01*
X0234198D01*
X0234398Y0229500D01*
Y0229300D01*
X0234198Y0229100D01*
X0233798D01*
X0233598Y0229300D01*
X0221300Y0229100D02*
Y0230300D01*
X0221900D01*
X0222100Y0230100D01*
Y0229700D01*
X0221900Y0229500D01*
X0221300D01*
X0221700D02*
X0222100Y0229100D01*
X0222500Y0230300D02*
Y0229100D01*
X0223299D01*
X0224499Y0230300D02*
X0223699D01*
Y0229100D01*
X0224499D01*
X0223699Y0229700D02*
X0224099D01*
X0224899Y0230300D02*
Y0229100D01*
X0225499D01*
X0225699Y0229300D01*
Y0230100D01*
X0225499Y0230300D01*
X0224899D01*
X0226898Y0229100D02*
X0226098D01*
X0226898Y0229900D01*
Y0230100D01*
X0226698Y0230300D01*
X0226298D01*
X0226098Y0230100D01*
X0212300Y0235100D02*
Y0236300D01*
X0212900D01*
X0213100Y0236100D01*
Y0235700D01*
X0212900Y0235500D01*
X0212300D01*
X0212700D02*
X0213100Y0235100D01*
X0213500Y0236300D02*
Y0235100D01*
X0214299D01*
X0215499Y0236300D02*
X0214699D01*
Y0235100D01*
X0215499D01*
X0214699Y0235700D02*
X0215099D01*
X0215899Y0236300D02*
Y0235100D01*
X0216499D01*
X0216699Y0235300D01*
Y0236100D01*
X0216499Y0236300D01*
X0215899D01*
X0217098Y0235100D02*
X0217498D01*
X0217298D01*
Y0236300D01*
X0217098Y0236100D01*
X0208800Y0242000D02*
X0208600Y0242200D01*
X0208200D01*
X0208000Y0242000D01*
Y0241200D01*
X0208200Y0241000D01*
X0208600D01*
X0208800Y0241200D01*
X0209200Y0242200D02*
Y0241000D01*
X0209999D01*
X0211199Y0242200D02*
X0210399D01*
Y0241000D01*
X0211199D01*
X0210399Y0241600D02*
X0210799D01*
X0211599Y0242200D02*
Y0241000D01*
X0212199D01*
X0212399Y0241200D01*
Y0242000D01*
X0212199Y0242200D01*
X0211599D01*
X0212798Y0241000D02*
X0213198D01*
X0212998D01*
Y0242200D01*
X0212798Y0242000D01*
X0233600Y0233600D02*
X0233400Y0233800D01*
X0233000D01*
X0232800Y0233600D01*
Y0232800D01*
X0233000Y0232600D01*
X0233400D01*
X0233600Y0232800D01*
X0234000Y0233800D02*
Y0232600D01*
X0234799D01*
X0235999Y0233800D02*
X0235199D01*
Y0232600D01*
X0235999D01*
X0235199Y0233200D02*
X0235599D01*
X0236399Y0233800D02*
Y0232600D01*
X0236999D01*
X0237199Y0232800D01*
Y0233600D01*
X0236999Y0233800D01*
X0236399D01*
X0238198Y0232600D02*
Y0233800D01*
X0237598Y0233200D01*
X0238398D01*
X0226600Y0232100D02*
X0226400Y0232300D01*
X0226000D01*
X0225800Y0232100D01*
Y0231300D01*
X0226000Y0231100D01*
X0226400D01*
X0226600Y0231300D01*
X0227000Y0232300D02*
Y0231100D01*
X0227799D01*
X0228999Y0232300D02*
X0228199D01*
Y0231100D01*
X0228999D01*
X0228199Y0231700D02*
X0228599D01*
X0229399Y0232300D02*
Y0231100D01*
X0229999D01*
X0230199Y0231300D01*
Y0232100D01*
X0229999Y0232300D01*
X0229399D01*
X0230598Y0232100D02*
X0230798Y0232300D01*
X0231198D01*
X0231398Y0232100D01*
Y0231900D01*
X0231198Y0231700D01*
X0230998D01*
X0231198D01*
X0231398Y0231500D01*
Y0231300D01*
X0231198Y0231100D01*
X0230798D01*
X0230598Y0231300D01*
X0220100Y0232100D02*
X0219900Y0232300D01*
X0219500D01*
X0219300Y0232100D01*
Y0231300D01*
X0219500Y0231100D01*
X0219900D01*
X0220100Y0231300D01*
X0220500Y0232300D02*
Y0231100D01*
X0221299D01*
X0222499Y0232300D02*
X0221699D01*
Y0231100D01*
X0222499D01*
X0221699Y0231700D02*
X0222099D01*
X0222899Y0232300D02*
Y0231100D01*
X0223499D01*
X0223699Y0231300D01*
Y0232100D01*
X0223499Y0232300D01*
X0222899D01*
X0224898Y0231100D02*
X0224098D01*
X0224898Y0231900D01*
Y0232100D01*
X0224698Y0232300D01*
X0224298D01*
X0224098Y0232100D01*
X0052800Y0062300D02*
X0052600Y0062100D01*
Y0061700D01*
X0052800Y0061500D01*
X0053600D01*
X0053800Y0061700D01*
Y0062100D01*
X0053600Y0062300D01*
X0053800Y0063299D02*
X0052600D01*
X0053200Y0062700D01*
Y0063499D01*
X0073100Y0062300D02*
X0072900Y0062100D01*
Y0061700D01*
X0073100Y0061500D01*
X0073900D01*
X0074100Y0061700D01*
Y0062100D01*
X0073900Y0062300D01*
X0072900Y0062700D02*
Y0063499D01*
X0073100D01*
X0073900Y0062700D01*
X0074100D01*
X0093500Y0062300D02*
X0093300Y0062100D01*
Y0061700D01*
X0093500Y0061500D01*
X0094300D01*
X0094500Y0061700D01*
Y0062100D01*
X0094300Y0062300D01*
X0094500Y0062700D02*
Y0063099D01*
Y0062900D01*
X0093300D01*
X0093500Y0062700D01*
Y0063699D02*
X0093300Y0063899D01*
Y0064299D01*
X0093500Y0064499D01*
X0094300D01*
X0094500Y0064299D01*
Y0063899D01*
X0094300Y0063699D01*
X0093500D01*
X0113800Y0062200D02*
X0113600Y0062000D01*
Y0061600D01*
X0113800Y0061400D01*
X0114600D01*
X0114800Y0061600D01*
Y0062000D01*
X0114600Y0062200D01*
X0114800Y0062600D02*
Y0062999D01*
Y0062800D01*
X0113600D01*
X0113800Y0062600D01*
Y0063599D02*
X0113600Y0063799D01*
Y0064199D01*
X0113800Y0064399D01*
X0114000D01*
X0114200Y0064199D01*
Y0063999D01*
Y0064199D01*
X0114400Y0064399D01*
X0114600D01*
X0114800Y0064199D01*
Y0063799D01*
X0114600Y0063599D01*
X0052800Y0047000D02*
X0052600Y0047200D01*
X0052200D01*
X0052000Y0047000D01*
Y0046200D01*
X0052200Y0046000D01*
X0052600D01*
X0052800Y0046200D01*
X0053999Y0047200D02*
X0053200D01*
Y0046600D01*
X0053599Y0046800D01*
X0053799D01*
X0053999Y0046600D01*
Y0046200D01*
X0053799Y0046000D01*
X0053400D01*
X0053200Y0046200D01*
X0072800Y0047000D02*
X0072600Y0047200D01*
X0072200D01*
X0072000Y0047000D01*
Y0046200D01*
X0072200Y0046000D01*
X0072600D01*
X0072800Y0046200D01*
X0073200Y0047000D02*
X0073400Y0047200D01*
X0073799D01*
X0073999Y0047000D01*
Y0046800D01*
X0073799Y0046600D01*
X0073999Y0046400D01*
Y0046200D01*
X0073799Y0046000D01*
X0073400D01*
X0073200Y0046200D01*
Y0046400D01*
X0073400Y0046600D01*
X0073200Y0046800D01*
Y0047000D01*
X0073400Y0046600D02*
X0073799D01*
X0093000Y0047000D02*
X0092800Y0047200D01*
X0092400D01*
X0092200Y0047000D01*
Y0046200D01*
X0092400Y0046000D01*
X0092800D01*
X0093000Y0046200D01*
X0093400Y0046000D02*
X0093799D01*
X0093600D01*
Y0047200D01*
X0093400Y0047000D01*
X0094399Y0046000D02*
X0094799D01*
X0094599D01*
Y0047200D01*
X0094399Y0047000D01*
X0113200D02*
X0113000Y0047200D01*
X0112600D01*
X0112400Y0047000D01*
Y0046200D01*
X0112600Y0046000D01*
X0113000D01*
X0113200Y0046200D01*
X0113600Y0046000D02*
X0113999D01*
X0113800D01*
Y0047200D01*
X0113600Y0047000D01*
X0115199Y0046000D02*
Y0047200D01*
X0114599Y0046600D01*
X0115399D01*
X0064300Y0064000D02*
X0064100Y0064200D01*
X0063700D01*
X0063500Y0064000D01*
Y0063200D01*
X0063700Y0063000D01*
X0064100D01*
X0064300Y0063200D01*
X0065499Y0064200D02*
X0065099Y0064000D01*
X0064700Y0063600D01*
Y0063200D01*
X0064900Y0063000D01*
X0065299D01*
X0065499Y0063200D01*
Y0063400D01*
X0065299Y0063600D01*
X0064700D01*
X0084800Y0064000D02*
X0084600Y0064200D01*
X0084200D01*
X0084000Y0064000D01*
Y0063200D01*
X0084200Y0063000D01*
X0084600D01*
X0084800Y0063200D01*
X0085200D02*
X0085400Y0063000D01*
X0085799D01*
X0085999Y0063200D01*
Y0064000D01*
X0085799Y0064200D01*
X0085400D01*
X0085200Y0064000D01*
Y0063800D01*
X0085400Y0063600D01*
X0085999D01*
X0105300Y0064000D02*
X0105100Y0064200D01*
X0104700D01*
X0104500Y0064000D01*
Y0063200D01*
X0104700Y0063000D01*
X0105100D01*
X0105300Y0063200D01*
X0105700Y0063000D02*
X0106099D01*
X0105900D01*
Y0064200D01*
X0105700Y0064000D01*
X0107499Y0063000D02*
X0106699D01*
X0107499Y0063800D01*
Y0064000D01*
X0107299Y0064200D01*
X0106899D01*
X0106699Y0064000D01*
X0125800D02*
X0125600Y0064200D01*
X0125200D01*
X0125000Y0064000D01*
Y0063200D01*
X0125200Y0063000D01*
X0125600D01*
X0125800Y0063200D01*
X0126200Y0063000D02*
X0126599D01*
X0126400D01*
Y0064200D01*
X0126200Y0064000D01*
X0127999Y0064200D02*
X0127199D01*
Y0063600D01*
X0127599Y0063800D01*
X0127799D01*
X0127999Y0063600D01*
Y0063200D01*
X0127799Y0063000D01*
X0127399D01*
X0127199Y0063200D01*
X0060000Y0066500D02*
Y0067700D01*
X0060600D01*
X0060800Y0067500D01*
Y0067100D01*
X0060600Y0066900D01*
X0060000D01*
X0060400D02*
X0060800Y0066500D01*
X0061200Y0067500D02*
X0061400Y0067700D01*
X0061799D01*
X0061999Y0067500D01*
Y0067300D01*
X0061799Y0067100D01*
X0061599D01*
X0061799D01*
X0061999Y0066900D01*
Y0066700D01*
X0061799Y0066500D01*
X0061400D01*
X0061200Y0066700D01*
X0080500Y0066500D02*
Y0067700D01*
X0081100D01*
X0081300Y0067500D01*
Y0067100D01*
X0081100Y0066900D01*
X0080500D01*
X0080900D02*
X0081300Y0066500D01*
X0082499Y0067700D02*
X0081700D01*
Y0067100D01*
X0082099Y0067300D01*
X0082299D01*
X0082499Y0067100D01*
Y0066700D01*
X0082299Y0066500D01*
X0081900D01*
X0081700Y0066700D01*
X0100500Y0066500D02*
Y0067700D01*
X0101100D01*
X0101300Y0067500D01*
Y0067100D01*
X0101100Y0066900D01*
X0100500D01*
X0100900D02*
X0101300Y0066500D01*
X0101700Y0067700D02*
X0102499D01*
Y0067500D01*
X0101700Y0066700D01*
Y0066500D01*
X0121000D02*
Y0067700D01*
X0121600D01*
X0121800Y0067500D01*
Y0067100D01*
X0121600Y0066900D01*
X0121000D01*
X0121400D02*
X0121800Y0066500D01*
X0122200Y0066700D02*
X0122400Y0066500D01*
X0122799D01*
X0122999Y0066700D01*
Y0067500D01*
X0122799Y0067700D01*
X0122400D01*
X0122200Y0067500D01*
Y0067300D01*
X0122400Y0067100D01*
X0122999D01*
X0053800Y0065000D02*
X0052600D01*
Y0065600D01*
X0052800Y0065800D01*
X0053200D01*
X0053400Y0065600D01*
Y0065000D01*
Y0065400D02*
X0053800Y0065800D01*
Y0066799D02*
X0052600D01*
X0053200Y0066200D01*
Y0066999D01*
X0074100Y0065000D02*
X0072900D01*
Y0065600D01*
X0073100Y0065800D01*
X0073500D01*
X0073700Y0065600D01*
Y0065000D01*
Y0065400D02*
X0074100Y0065800D01*
X0072900Y0066999D02*
X0073100Y0066599D01*
X0073500Y0066200D01*
X0073900D01*
X0074100Y0066400D01*
Y0066799D01*
X0073900Y0066999D01*
X0073700D01*
X0073500Y0066799D01*
Y0066200D01*
X0094500Y0065000D02*
X0093300D01*
Y0065600D01*
X0093500Y0065800D01*
X0093900D01*
X0094100Y0065600D01*
Y0065000D01*
Y0065400D02*
X0094500Y0065800D01*
X0093500Y0066200D02*
X0093300Y0066400D01*
Y0066799D01*
X0093500Y0066999D01*
X0093700D01*
X0093900Y0066799D01*
X0094100Y0066999D01*
X0094300D01*
X0094500Y0066799D01*
Y0066400D01*
X0094300Y0066200D01*
X0094100D01*
X0093900Y0066400D01*
X0093700Y0066200D01*
X0093500D01*
X0093900Y0066400D02*
Y0066799D01*
X0114800Y0065000D02*
X0113600D01*
Y0065600D01*
X0113800Y0065800D01*
X0114200D01*
X0114400Y0065600D01*
Y0065000D01*
Y0065400D02*
X0114800Y0065800D01*
Y0066200D02*
Y0066599D01*
Y0066400D01*
X0113600D01*
X0113800Y0066200D01*
Y0067199D02*
X0113600Y0067399D01*
Y0067799D01*
X0113800Y0067999D01*
X0114600D01*
X0114800Y0067799D01*
Y0067399D01*
X0114600Y0067199D01*
X0113800D01*
X0056330Y0047150D02*
Y0046150D01*
X0056530Y0045950D01*
X0056930D01*
X0057130Y0046150D01*
Y0047150D01*
X0057530Y0045950D02*
X0058129D01*
X0058329Y0046150D01*
X0058129Y0046350D01*
X0057730D01*
X0057530Y0046550D01*
X0057730Y0046750D01*
X0058329D01*
X0058729D02*
Y0046150D01*
X0058929Y0045950D01*
X0059529D01*
Y0046750D01*
X0059929Y0045550D02*
Y0046750D01*
X0060529D01*
X0060729Y0046550D01*
Y0046150D01*
X0060529Y0045950D01*
X0059929D01*
X0061128Y0045750D02*
X0061928D01*
X0063128Y0046750D02*
X0062528D01*
X0062328Y0046550D01*
Y0046150D01*
X0062528Y0045950D01*
X0063128D01*
X0063528Y0047150D02*
Y0045950D01*
Y0046550D01*
X0063728Y0046750D01*
X0064128D01*
X0064327Y0046550D01*
Y0045950D01*
X0065527D02*
X0064727D01*
X0065527Y0046750D01*
Y0046950D01*
X0065327Y0047150D01*
X0064927D01*
X0064727Y0046950D01*
X0076500Y0047200D02*
Y0046200D01*
X0076700Y0046000D01*
X0077100D01*
X0077300Y0046200D01*
Y0047200D01*
X0077700Y0046000D02*
X0078299D01*
X0078499Y0046200D01*
X0078299Y0046400D01*
X0077900D01*
X0077700Y0046600D01*
X0077900Y0046800D01*
X0078499D01*
X0078899D02*
Y0046200D01*
X0079099Y0046000D01*
X0079699D01*
Y0046800D01*
X0080099Y0045600D02*
Y0046800D01*
X0080699D01*
X0080899Y0046600D01*
Y0046200D01*
X0080699Y0046000D01*
X0080099D01*
X0081298Y0045800D02*
X0082098D01*
X0083298Y0046800D02*
X0082698D01*
X0082498Y0046600D01*
Y0046200D01*
X0082698Y0046000D01*
X0083298D01*
X0083698Y0047200D02*
Y0046000D01*
Y0046600D01*
X0083898Y0046800D01*
X0084297D01*
X0084497Y0046600D01*
Y0046000D01*
X0084897Y0047000D02*
X0085097Y0047200D01*
X0085497D01*
X0085697Y0047000D01*
Y0046800D01*
X0085497Y0046600D01*
X0085297D01*
X0085497D01*
X0085697Y0046400D01*
Y0046200D01*
X0085497Y0046000D01*
X0085097D01*
X0084897Y0046200D01*
X0096500Y0047200D02*
Y0046200D01*
X0096700Y0046000D01*
X0097100D01*
X0097300Y0046200D01*
Y0047200D01*
X0097700Y0046000D02*
X0098299D01*
X0098499Y0046200D01*
X0098299Y0046400D01*
X0097900D01*
X0097700Y0046600D01*
X0097900Y0046800D01*
X0098499D01*
X0098899D02*
Y0046200D01*
X0099099Y0046000D01*
X0099699D01*
Y0046800D01*
X0100099Y0045600D02*
Y0046800D01*
X0100699D01*
X0100899Y0046600D01*
Y0046200D01*
X0100699Y0046000D01*
X0100099D01*
X0101298Y0045800D02*
X0102098D01*
X0103298Y0046800D02*
X0102698D01*
X0102498Y0046600D01*
Y0046200D01*
X0102698Y0046000D01*
X0103298D01*
X0103698Y0047200D02*
Y0046000D01*
Y0046600D01*
X0103898Y0046800D01*
X0104297D01*
X0104497Y0046600D01*
Y0046000D01*
X0105497D02*
Y0047200D01*
X0104897Y0046600D01*
X0105697D01*
X0117000Y0047200D02*
Y0046200D01*
X0117200Y0046000D01*
X0117600D01*
X0117800Y0046200D01*
Y0047200D01*
X0118200Y0046000D02*
X0118799D01*
X0118999Y0046200D01*
X0118799Y0046400D01*
X0118400D01*
X0118200Y0046600D01*
X0118400Y0046800D01*
X0118999D01*
X0119399D02*
Y0046200D01*
X0119599Y0046000D01*
X0120199D01*
Y0046800D01*
X0120599Y0045600D02*
Y0046800D01*
X0121199D01*
X0121399Y0046600D01*
Y0046200D01*
X0121199Y0046000D01*
X0120599D01*
X0121798Y0045800D02*
X0122598D01*
X0123798Y0046800D02*
X0123198D01*
X0122998Y0046600D01*
Y0046200D01*
X0123198Y0046000D01*
X0123798D01*
X0124198Y0047200D02*
Y0046000D01*
Y0046600D01*
X0124398Y0046800D01*
X0124797D01*
X0124997Y0046600D01*
Y0046000D01*
X0126197Y0047200D02*
X0125397D01*
Y0046600D01*
X0125797Y0046800D01*
X0125997D01*
X0126197Y0046600D01*
Y0046200D01*
X0125997Y0046000D01*
X0125597D01*
X0125397Y0046200D01*
X0033500Y0065000D02*
X0032300D01*
Y0065600D01*
X0032500Y0065800D01*
X0032900D01*
X0033100Y0065600D01*
Y0065000D01*
Y0065400D02*
X0033500Y0065800D01*
Y0066999D02*
Y0066200D01*
X0032700Y0066999D01*
X0032500D01*
X0032300Y0066799D01*
Y0066400D01*
X0032500Y0066200D01*
X0039500Y0066500D02*
Y0067700D01*
X0040100D01*
X0040300Y0067500D01*
Y0067100D01*
X0040100Y0066900D01*
X0039500D01*
X0039900D02*
X0040300Y0066500D01*
X0040700D02*
X0041099D01*
X0040900D01*
Y0067700D01*
X0040700Y0067500D01*
X0233500Y0078200D02*
Y0077200D01*
X0233700Y0077000D01*
X0234100D01*
X0234300Y0077200D01*
Y0078200D01*
X0234700Y0077000D02*
X0235299D01*
X0235499Y0077200D01*
X0235299Y0077400D01*
X0234900D01*
X0234700Y0077600D01*
X0234900Y0077800D01*
X0235499D01*
X0235899D02*
Y0077200D01*
X0236099Y0077000D01*
X0236699D01*
Y0077800D01*
X0237099Y0076600D02*
Y0077800D01*
X0237699D01*
X0237899Y0077600D01*
Y0077200D01*
X0237699Y0077000D01*
X0237099D01*
X0239098Y0078200D02*
X0238298D01*
Y0077600D01*
X0238698Y0077800D01*
X0238898D01*
X0239098Y0077600D01*
Y0077200D01*
X0238898Y0077000D01*
X0238498D01*
X0238298Y0077200D01*
X0215500Y0061300D02*
Y0060300D01*
X0215700Y0060100D01*
X0216100D01*
X0216300Y0060300D01*
Y0061300D01*
X0216700Y0060100D02*
X0217299D01*
X0217499Y0060300D01*
X0217299Y0060500D01*
X0216900D01*
X0216700Y0060700D01*
X0216900Y0060900D01*
X0217499D01*
X0217899D02*
Y0060300D01*
X0218099Y0060100D01*
X0218699D01*
Y0060900D01*
X0219099Y0059700D02*
Y0060900D01*
X0219699D01*
X0219899Y0060700D01*
Y0060300D01*
X0219699Y0060100D01*
X0219099D01*
X0220898D02*
Y0061300D01*
X0220298Y0060700D01*
X0221098D01*
X0236000Y0058700D02*
Y0057700D01*
X0236200Y0057500D01*
X0236600D01*
X0236800Y0057700D01*
Y0058700D01*
X0237200Y0057500D02*
X0237799D01*
X0237999Y0057700D01*
X0237799Y0057900D01*
X0237400D01*
X0237200Y0058100D01*
X0237400Y0058300D01*
X0237999D01*
X0238399D02*
Y0057700D01*
X0238599Y0057500D01*
X0239199D01*
Y0058300D01*
X0239599Y0057100D02*
Y0058300D01*
X0240199D01*
X0240399Y0058100D01*
Y0057700D01*
X0240199Y0057500D01*
X0239599D01*
X0241598D02*
X0240798D01*
X0241598Y0058300D01*
Y0058500D01*
X0241398Y0058700D01*
X0240998D01*
X0240798Y0058500D01*
X0274900Y0055100D02*
Y0053900D01*
X0275700D01*
X0276100Y0054700D02*
Y0053900D01*
Y0054300D01*
X0276300Y0054500D01*
X0276500Y0054700D01*
X0276699D01*
X0277899Y0053900D02*
X0277499D01*
X0277299Y0054100D01*
Y0054500D01*
X0277499Y0054700D01*
X0277899D01*
X0278099Y0054500D01*
Y0054300D01*
X0277299D01*
X0278699Y0053900D02*
Y0054900D01*
Y0054500D01*
X0278499D01*
X0278899D01*
X0278699D01*
Y0054900D01*
X0278899Y0055100D01*
X0279499Y0053900D02*
X0279898D01*
X0279698D01*
Y0055100D01*
X0279499Y0054900D01*
X0237800Y0063000D02*
X0237600Y0063200D01*
X0237200D01*
X0237000Y0063000D01*
Y0062200D01*
X0237200Y0062000D01*
X0237600D01*
X0237800Y0062200D01*
X0238200Y0062000D02*
X0238799D01*
X0238999Y0062200D01*
X0238799Y0062400D01*
X0238400D01*
X0238200Y0062600D01*
X0238400Y0062800D01*
X0238999D01*
X0239399D02*
Y0062200D01*
X0239599Y0062000D01*
X0240199D01*
Y0062800D01*
X0240599Y0061600D02*
Y0062800D01*
X0241199D01*
X0241399Y0062600D01*
Y0062200D01*
X0241199Y0062000D01*
X0240599D01*
X0242598D02*
X0241798D01*
X0242598Y0062800D01*
Y0063000D01*
X0242398Y0063200D01*
X0241998D01*
X0241798Y0063000D01*
X0242998Y0062000D02*
X0243398D01*
X0243198D01*
Y0063200D01*
X0242998Y0063000D01*
X0209300Y0045000D02*
X0209100Y0045200D01*
X0208700D01*
X0208500Y0045000D01*
Y0044200D01*
X0208700Y0044000D01*
X0209100D01*
X0209300Y0044200D01*
X0209700Y0044000D02*
X0210299D01*
X0210499Y0044200D01*
X0210299Y0044400D01*
X0209900D01*
X0209700Y0044600D01*
X0209900Y0044800D01*
X0210499D01*
X0210899D02*
Y0044200D01*
X0211099Y0044000D01*
X0211699D01*
Y0044800D01*
X0212099Y0043600D02*
Y0044800D01*
X0212699D01*
X0212899Y0044600D01*
Y0044200D01*
X0212699Y0044000D01*
X0212099D01*
X0214098D02*
X0213298D01*
X0214098Y0044800D01*
Y0045000D01*
X0213898Y0045200D01*
X0213498D01*
X0213298Y0045000D01*
X0214498D02*
X0214698Y0045200D01*
X0215098D01*
X0215298Y0045000D01*
Y0044200D01*
X0215098Y0044000D01*
X0214698D01*
X0214498Y0044200D01*
Y0045000D01*
X0209100Y0064000D02*
X0208900Y0064200D01*
X0208500D01*
X0208300Y0064000D01*
Y0063200D01*
X0208500Y0063000D01*
X0208900D01*
X0209100Y0063200D01*
X0209500Y0063000D02*
X0210099D01*
X0210299Y0063200D01*
X0210099Y0063400D01*
X0209700D01*
X0209500Y0063600D01*
X0209700Y0063800D01*
X0210299D01*
X0210699D02*
Y0063200D01*
X0210899Y0063000D01*
X0211499D01*
Y0063800D01*
X0211899Y0062600D02*
Y0063800D01*
X0212499D01*
X0212699Y0063600D01*
Y0063200D01*
X0212499Y0063000D01*
X0211899D01*
X0213098D02*
X0213498D01*
X0213298D01*
Y0064200D01*
X0213098Y0064000D01*
X0214098Y0063200D02*
X0214298Y0063000D01*
X0214698D01*
X0214898Y0063200D01*
Y0064000D01*
X0214698Y0064200D01*
X0214298D01*
X0214098Y0064000D01*
Y0063800D01*
X0214298Y0063600D01*
X0214898D01*
X0230300Y0043500D02*
X0230100Y0043700D01*
X0229700D01*
X0229500Y0043500D01*
Y0042700D01*
X0229700Y0042500D01*
X0230100D01*
X0230300Y0042700D01*
X0230700Y0042500D02*
X0231299D01*
X0231499Y0042700D01*
X0231299Y0042900D01*
X0230900D01*
X0230700Y0043100D01*
X0230900Y0043300D01*
X0231499D01*
X0231899D02*
Y0042700D01*
X0232099Y0042500D01*
X0232699D01*
Y0043300D01*
X0233099Y0042100D02*
Y0043300D01*
X0233699D01*
X0233899Y0043100D01*
Y0042700D01*
X0233699Y0042500D01*
X0233099D01*
X0234298D02*
X0234698D01*
X0234498D01*
Y0043700D01*
X0234298Y0043500D01*
X0235298D02*
X0235498Y0043700D01*
X0235898D01*
X0236098Y0043500D01*
Y0043300D01*
X0235898Y0043100D01*
X0236098Y0042900D01*
Y0042700D01*
X0235898Y0042500D01*
X0235498D01*
X0235298Y0042700D01*
Y0042900D01*
X0235498Y0043100D01*
X0235298Y0043300D01*
Y0043500D01*
X0235498Y0043100D02*
X0235898D01*
X0224100Y0078000D02*
X0223900Y0078200D01*
X0223500D01*
X0223300Y0078000D01*
Y0077200D01*
X0223500Y0077000D01*
X0223900D01*
X0224100Y0077200D01*
X0224500Y0077000D02*
X0225099D01*
X0225299Y0077200D01*
X0225099Y0077400D01*
X0224700D01*
X0224500Y0077600D01*
X0224700Y0077800D01*
X0225299D01*
X0225699D02*
Y0077200D01*
X0225899Y0077000D01*
X0226499D01*
Y0077800D01*
X0226899Y0076600D02*
Y0077800D01*
X0227499D01*
X0227699Y0077600D01*
Y0077200D01*
X0227499Y0077000D01*
X0226899D01*
X0228098D02*
X0228498D01*
X0228298D01*
Y0078200D01*
X0228098Y0078000D01*
X0229898Y0078200D02*
X0229498Y0078000D01*
X0229098Y0077600D01*
Y0077200D01*
X0229298Y0077000D01*
X0229698D01*
X0229898Y0077200D01*
Y0077400D01*
X0229698Y0077600D01*
X0229098D01*
X0208800Y0060500D02*
X0208600Y0060700D01*
X0208200D01*
X0208000Y0060500D01*
Y0059700D01*
X0208200Y0059500D01*
X0208600D01*
X0208800Y0059700D01*
X0209200Y0059500D02*
X0209799D01*
X0209999Y0059700D01*
X0209799Y0059900D01*
X0209400D01*
X0209200Y0060100D01*
X0209400Y0060300D01*
X0209999D01*
X0210399D02*
Y0059700D01*
X0210599Y0059500D01*
X0211199D01*
Y0060300D01*
X0211599Y0059100D02*
Y0060300D01*
X0212199D01*
X0212399Y0060100D01*
Y0059700D01*
X0212199Y0059500D01*
X0211599D01*
X0212798D02*
X0213198D01*
X0212998D01*
Y0060700D01*
X0212798Y0060500D01*
X0214598Y0060700D02*
X0213798D01*
Y0060100D01*
X0214198Y0060300D01*
X0214398D01*
X0214598Y0060100D01*
Y0059700D01*
X0214398Y0059500D01*
X0213998D01*
X0213798Y0059700D01*
X0210300Y0078000D02*
X0210100Y0078200D01*
X0209700D01*
X0209500Y0078000D01*
Y0077200D01*
X0209700Y0077000D01*
X0210100D01*
X0210300Y0077200D01*
X0210700Y0077000D02*
X0211299D01*
X0211499Y0077200D01*
X0211299Y0077400D01*
X0210900D01*
X0210700Y0077600D01*
X0210900Y0077800D01*
X0211499D01*
X0211899D02*
Y0077200D01*
X0212099Y0077000D01*
X0212699D01*
Y0077800D01*
X0213099Y0076600D02*
Y0077800D01*
X0213699D01*
X0213899Y0077600D01*
Y0077200D01*
X0213699Y0077000D01*
X0213099D01*
X0214298D02*
X0214698D01*
X0214498D01*
Y0078200D01*
X0214298Y0078000D01*
X0215898Y0077000D02*
Y0078200D01*
X0215298Y0077600D01*
X0216098D01*
X0223800Y0060500D02*
X0223600Y0060700D01*
X0223200D01*
X0223000Y0060500D01*
Y0059700D01*
X0223200Y0059500D01*
X0223600D01*
X0223800Y0059700D01*
X0224200Y0059500D02*
X0224799D01*
X0224999Y0059700D01*
X0224799Y0059900D01*
X0224400D01*
X0224200Y0060100D01*
X0224400Y0060300D01*
X0224999D01*
X0225399D02*
Y0059700D01*
X0225599Y0059500D01*
X0226199D01*
Y0060300D01*
X0226599Y0059100D02*
Y0060300D01*
X0227199D01*
X0227399Y0060100D01*
Y0059700D01*
X0227199Y0059500D01*
X0226599D01*
X0227798D02*
X0228198D01*
X0227998D01*
Y0060700D01*
X0227798Y0060500D01*
X0228798D02*
X0228998Y0060700D01*
X0229398D01*
X0229598Y0060500D01*
Y0060300D01*
X0229398Y0060100D01*
X0229198D01*
X0229398D01*
X0229598Y0059900D01*
Y0059700D01*
X0229398Y0059500D01*
X0228998D01*
X0228798Y0059700D01*
X0237800Y0047500D02*
X0237600Y0047700D01*
X0237200D01*
X0237000Y0047500D01*
Y0046700D01*
X0237200Y0046500D01*
X0237600D01*
X0237800Y0046700D01*
X0238200Y0046500D02*
X0238799D01*
X0238999Y0046700D01*
X0238799Y0046900D01*
X0238400D01*
X0238200Y0047100D01*
X0238400Y0047300D01*
X0238999D01*
X0239399D02*
Y0046700D01*
X0239599Y0046500D01*
X0240199D01*
Y0047300D01*
X0240599Y0046100D02*
Y0047300D01*
X0241199D01*
X0241399Y0047100D01*
Y0046700D01*
X0241199Y0046500D01*
X0240599D01*
X0241798D02*
X0242198D01*
X0241998D01*
Y0047700D01*
X0241798Y0047500D01*
X0242798D02*
X0242998Y0047700D01*
X0243398D01*
X0243598Y0047500D01*
Y0046700D01*
X0243398Y0046500D01*
X0242998D01*
X0242798Y0046700D01*
Y0047500D01*
X0222800Y0062500D02*
X0222600Y0062700D01*
X0222200D01*
X0222000Y0062500D01*
Y0061700D01*
X0222200Y0061500D01*
X0222600D01*
X0222800Y0061700D01*
X0223200Y0061500D02*
X0223799D01*
X0223999Y0061700D01*
X0223799Y0061900D01*
X0223400D01*
X0223200Y0062100D01*
X0223400Y0062300D01*
X0223999D01*
X0224399D02*
Y0061700D01*
X0224599Y0061500D01*
X0225199D01*
Y0062300D01*
X0225599Y0061100D02*
Y0062300D01*
X0226199D01*
X0226399Y0062100D01*
Y0061700D01*
X0226199Y0061500D01*
X0225599D01*
X0226798Y0061700D02*
X0226998Y0061500D01*
X0227398D01*
X0227598Y0061700D01*
Y0062500D01*
X0227398Y0062700D01*
X0226998D01*
X0226798Y0062500D01*
Y0062300D01*
X0226998Y0062100D01*
X0227598D01*
X0237990Y0065766D02*
X0237790Y0065966D01*
X0237390D01*
X0237190Y0065766D01*
Y0064966D01*
X0237390Y0064766D01*
X0237790D01*
X0237990Y0064966D01*
X0238390Y0064766D02*
X0238989D01*
X0239189Y0064966D01*
X0238989Y0065166D01*
X0238590D01*
X0238390Y0065366D01*
X0238590Y0065566D01*
X0239189D01*
X0239589D02*
Y0064966D01*
X0239789Y0064766D01*
X0240389D01*
Y0065566D01*
X0240789Y0064366D02*
Y0065566D01*
X0241389D01*
X0241589Y0065366D01*
Y0064966D01*
X0241389Y0064766D01*
X0240789D01*
X0241988Y0065766D02*
X0242188Y0065966D01*
X0242588D01*
X0242788Y0065766D01*
Y0065566D01*
X0242588Y0065366D01*
X0242788Y0065166D01*
Y0064966D01*
X0242588Y0064766D01*
X0242188D01*
X0241988Y0064966D01*
Y0065166D01*
X0242188Y0065366D01*
X0241988Y0065566D01*
Y0065766D01*
X0242188Y0065366D02*
X0242588D01*
X0223300Y0045000D02*
X0223100Y0045200D01*
X0222700D01*
X0222500Y0045000D01*
Y0044200D01*
X0222700Y0044000D01*
X0223100D01*
X0223300Y0044200D01*
X0223700Y0044000D02*
X0224299D01*
X0224499Y0044200D01*
X0224299Y0044400D01*
X0223900D01*
X0223700Y0044600D01*
X0223900Y0044800D01*
X0224499D01*
X0224899D02*
Y0044200D01*
X0225099Y0044000D01*
X0225699D01*
Y0044800D01*
X0226099Y0043600D02*
Y0044800D01*
X0226699D01*
X0226899Y0044600D01*
Y0044200D01*
X0226699Y0044000D01*
X0226099D01*
X0227298Y0045200D02*
X0228098D01*
Y0045000D01*
X0227298Y0044200D01*
Y0044000D01*
X0266800Y0063500D02*
X0266600Y0063700D01*
X0266200D01*
X0266000Y0063500D01*
Y0062700D01*
X0266200Y0062500D01*
X0266600D01*
X0266800Y0062700D01*
X0267200Y0062500D02*
X0267799D01*
X0267999Y0062700D01*
X0267799Y0062900D01*
X0267400D01*
X0267200Y0063100D01*
X0267400Y0063300D01*
X0267999D01*
X0268399D02*
Y0062700D01*
X0268599Y0062500D01*
X0269199D01*
Y0063300D01*
X0269599Y0062100D02*
Y0063300D01*
X0270199D01*
X0270399Y0063100D01*
Y0062700D01*
X0270199Y0062500D01*
X0269599D01*
X0271398D02*
Y0063700D01*
X0270798Y0063100D01*
X0271598D01*
X0258000Y0056300D02*
X0257800Y0056100D01*
Y0055700D01*
X0258000Y0055500D01*
X0258800D01*
X0259000Y0055700D01*
Y0056100D01*
X0258800Y0056300D01*
X0259000Y0056700D02*
Y0057299D01*
X0258800Y0057499D01*
X0258600Y0057299D01*
Y0056900D01*
X0258400Y0056700D01*
X0258200Y0056900D01*
Y0057499D01*
Y0057899D02*
X0258800D01*
X0259000Y0058099D01*
Y0058699D01*
X0258200D01*
X0259400Y0059099D02*
X0258200D01*
Y0059699D01*
X0258400Y0059899D01*
X0258800D01*
X0259000Y0059699D01*
Y0059099D01*
Y0060298D02*
Y0060698D01*
Y0060498D01*
X0257800D01*
X0258000Y0060298D01*
X0110800Y0269000D02*
X0110600Y0269200D01*
X0110200D01*
X0110000Y0269000D01*
Y0268200D01*
X0110200Y0268000D01*
X0110600D01*
X0110800Y0268200D01*
X0111200Y0269000D02*
X0111400Y0269200D01*
X0111799D01*
X0111999Y0269000D01*
Y0268800D01*
X0111799Y0268600D01*
X0111599D01*
X0111799D01*
X0111999Y0268400D01*
Y0268200D01*
X0111799Y0268000D01*
X0111400D01*
X0111200Y0268200D01*
X0112399Y0269200D02*
X0113199D01*
Y0269000D01*
X0112399Y0268200D01*
Y0268000D01*
X0044295Y0064053D02*
X0044095Y0064253D01*
X0043695D01*
X0043495Y0064053D01*
Y0063253D01*
X0043695Y0063053D01*
X0044095D01*
X0044295Y0063253D01*
X0044695Y0064053D02*
X0044895Y0064253D01*
X0045294D01*
X0045494Y0064053D01*
Y0063853D01*
X0045294Y0063653D01*
X0045094D01*
X0045294D01*
X0045494Y0063453D01*
Y0063253D01*
X0045294Y0063053D01*
X0044895D01*
X0044695Y0063253D01*
X0032500Y0062300D02*
X0032300Y0062100D01*
Y0061700D01*
X0032500Y0061500D01*
X0033300D01*
X0033500Y0061700D01*
Y0062100D01*
X0033300Y0062300D01*
X0033500Y0062700D02*
Y0063099D01*
Y0062900D01*
X0032300D01*
X0032500Y0062700D01*
X0032300Y0047000D02*
X0032100Y0047200D01*
X0031700D01*
X0031500Y0047000D01*
Y0046200D01*
X0031700Y0046000D01*
X0032100D01*
X0032300Y0046200D01*
X0033499Y0046000D02*
X0032700D01*
X0033499Y0046800D01*
Y0047000D01*
X0033299Y0047200D01*
X0032900D01*
X0032700Y0047000D01*
X0258000Y0045800D02*
X0257800Y0045600D01*
Y0045200D01*
X0258000Y0045000D01*
X0258800D01*
X0259000Y0045200D01*
Y0045600D01*
X0258800Y0045800D01*
X0259000Y0046200D02*
Y0046799D01*
X0258800Y0046999D01*
X0258600Y0046799D01*
Y0046400D01*
X0258400Y0046200D01*
X0258200Y0046400D01*
Y0046999D01*
Y0047399D02*
X0258800D01*
X0259000Y0047599D01*
Y0048199D01*
X0258200D01*
X0259400Y0048599D02*
X0258200D01*
Y0049199D01*
X0258400Y0049399D01*
X0258800D01*
X0259000Y0049199D01*
Y0048599D01*
X0258000Y0049798D02*
X0257800Y0049998D01*
Y0050398D01*
X0258000Y0050598D01*
X0258200D01*
X0258400Y0050398D01*
Y0050198D01*
Y0050398D01*
X0258600Y0050598D01*
X0258800D01*
X0259000Y0050398D01*
Y0049998D01*
X0258800Y0049798D01*
X0266800Y0053000D02*
X0266600Y0053200D01*
X0266200D01*
X0266000Y0053000D01*
Y0052200D01*
X0266200Y0052000D01*
X0266600D01*
X0266800Y0052200D01*
X0267200Y0052000D02*
X0267799D01*
X0267999Y0052200D01*
X0267799Y0052400D01*
X0267400D01*
X0267200Y0052600D01*
X0267400Y0052800D01*
X0267999D01*
X0268399D02*
Y0052200D01*
X0268599Y0052000D01*
X0269199D01*
Y0052800D01*
X0269599Y0051600D02*
Y0052800D01*
X0270199D01*
X0270399Y0052600D01*
Y0052200D01*
X0270199Y0052000D01*
X0269599D01*
X0271598Y0053200D02*
X0271198Y0053000D01*
X0270798Y0052600D01*
Y0052200D01*
X0270998Y0052000D01*
X0271398D01*
X0271598Y0052200D01*
Y0052400D01*
X0271398Y0052600D01*
X0270798D01*
X0274700Y0045300D02*
Y0044100D01*
X0275500D01*
X0275900Y0044900D02*
Y0044100D01*
Y0044500D01*
X0276100Y0044700D01*
X0276299Y0044900D01*
X0276499D01*
X0277699Y0044100D02*
X0277299D01*
X0277099Y0044300D01*
Y0044700D01*
X0277299Y0044900D01*
X0277699D01*
X0277899Y0044700D01*
Y0044500D01*
X0277099D01*
X0278499Y0044100D02*
Y0045100D01*
Y0044700D01*
X0278299D01*
X0278699D01*
X0278499D01*
Y0045100D01*
X0278699Y0045300D01*
X0279299Y0045100D02*
X0279498Y0045300D01*
X0279898D01*
X0280098Y0045100D01*
Y0044900D01*
X0279898Y0044700D01*
X0279698D01*
X0279898D01*
X0280098Y0044500D01*
Y0044300D01*
X0279898Y0044100D01*
X0279498D01*
X0279299Y0044300D01*
X0036630Y0047350D02*
Y0046350D01*
X0036830Y0046150D01*
X0037230D01*
X0037430Y0046350D01*
Y0047350D01*
X0037830Y0046150D02*
X0038429D01*
X0038629Y0046350D01*
X0038429Y0046550D01*
X0038030D01*
X0037830Y0046750D01*
X0038030Y0046950D01*
X0038629D01*
X0039029D02*
Y0046350D01*
X0039229Y0046150D01*
X0039829D01*
Y0046950D01*
X0040229Y0045750D02*
Y0046950D01*
X0040829D01*
X0041029Y0046750D01*
Y0046350D01*
X0040829Y0046150D01*
X0040229D01*
X0041428Y0045950D02*
X0042228D01*
X0043428Y0046950D02*
X0042828D01*
X0042628Y0046750D01*
Y0046350D01*
X0042828Y0046150D01*
X0043428D01*
X0043828Y0047350D02*
Y0046150D01*
Y0046750D01*
X0044028Y0046950D01*
X0044427D01*
X0044627Y0046750D01*
Y0046150D01*
X0045027D02*
X0045427D01*
X0045227D01*
Y0047350D01*
X0045027Y0047150D01*
X0121400Y0265000D02*
X0121200Y0265200D01*
X0120800D01*
X0120600Y0265000D01*
Y0264200D01*
X0120800Y0264000D01*
X0121200D01*
X0121400Y0264200D01*
X0121800Y0265000D02*
X0122000Y0265200D01*
X0122399D01*
X0122599Y0265000D01*
Y0264800D01*
X0122399Y0264600D01*
X0122199D01*
X0122399D01*
X0122599Y0264400D01*
Y0264200D01*
X0122399Y0264000D01*
X0122000D01*
X0121800Y0264200D01*
X0122999Y0265000D02*
X0123199Y0265200D01*
X0123599D01*
X0123799Y0265000D01*
Y0264800D01*
X0123599Y0264600D01*
X0123799Y0264400D01*
Y0264200D01*
X0123599Y0264000D01*
X0123199D01*
X0122999Y0264200D01*
Y0264400D01*
X0123199Y0264600D01*
X0122999Y0264800D01*
Y0265000D01*
X0123199Y0264600D02*
X0123599D01*
X0049800Y0269000D02*
X0049600Y0269200D01*
X0049200D01*
X0049000Y0269000D01*
Y0268200D01*
X0049200Y0268000D01*
X0049600D01*
X0049800Y0268200D01*
X0050999Y0268000D02*
X0050200D01*
X0050999Y0268800D01*
Y0269000D01*
X0050799Y0269200D01*
X0050400D01*
X0050200Y0269000D01*
X0051399D02*
X0051599Y0269200D01*
X0051999D01*
X0052199Y0269000D01*
Y0268800D01*
X0051999Y0268600D01*
X0052199Y0268400D01*
Y0268200D01*
X0051999Y0268000D01*
X0051599D01*
X0051399Y0268200D01*
Y0268400D01*
X0051599Y0268600D01*
X0051399Y0268800D01*
Y0269000D01*
X0051599Y0268600D02*
X0051999D01*
X0070100Y0269000D02*
X0069900Y0269200D01*
X0069500D01*
X0069300Y0269000D01*
Y0268200D01*
X0069500Y0268000D01*
X0069900D01*
X0070100Y0268200D01*
X0070500Y0269000D02*
X0070700Y0269200D01*
X0071099D01*
X0071299Y0269000D01*
Y0268800D01*
X0071099Y0268600D01*
X0070899D01*
X0071099D01*
X0071299Y0268400D01*
Y0268200D01*
X0071099Y0268000D01*
X0070700D01*
X0070500Y0268200D01*
X0071699Y0268000D02*
X0072099D01*
X0071899D01*
Y0269200D01*
X0071699Y0269000D01*
X0080800Y0265000D02*
X0080600Y0265200D01*
X0080200D01*
X0080000Y0265000D01*
Y0264200D01*
X0080200Y0264000D01*
X0080600D01*
X0080800Y0264200D01*
X0081200Y0265000D02*
X0081400Y0265200D01*
X0081799D01*
X0081999Y0265000D01*
Y0264800D01*
X0081799Y0264600D01*
X0081599D01*
X0081799D01*
X0081999Y0264400D01*
Y0264200D01*
X0081799Y0264000D01*
X0081400D01*
X0081200Y0264200D01*
X0083199Y0264000D02*
X0082399D01*
X0083199Y0264800D01*
Y0265000D01*
X0082999Y0265200D01*
X0082599D01*
X0082399Y0265000D01*
X0073000Y0252000D02*
X0072800Y0252200D01*
X0072400D01*
X0072200Y0252000D01*
Y0251200D01*
X0072400Y0251000D01*
X0072800D01*
X0073000Y0251200D01*
X0073400Y0252000D02*
X0073600Y0252200D01*
X0073999D01*
X0074199Y0252000D01*
Y0251800D01*
X0073999Y0251600D01*
X0073799D01*
X0073999D01*
X0074199Y0251400D01*
Y0251200D01*
X0073999Y0251000D01*
X0073600D01*
X0073400Y0251200D01*
X0074599Y0252000D02*
X0074799Y0252200D01*
X0075199D01*
X0075399Y0252000D01*
Y0251800D01*
X0075199Y0251600D01*
X0074999D01*
X0075199D01*
X0075399Y0251400D01*
Y0251200D01*
X0075199Y0251000D01*
X0074799D01*
X0074599Y0251200D01*
X0331500Y0257200D02*
Y0256000D01*
X0332300D01*
X0332700D02*
X0333099D01*
X0332900D01*
Y0257200D01*
X0332700Y0257000D01*
X0338300Y0256200D02*
Y0255000D01*
X0339100D01*
X0340299D02*
X0339500D01*
X0340299Y0255800D01*
Y0256000D01*
X0340099Y0256200D01*
X0339700D01*
X0339500Y0256000D01*
X0042500Y0246500D02*
Y0247700D01*
X0043100D01*
X0043300Y0247500D01*
Y0247100D01*
X0043100Y0246900D01*
X0042500D01*
X0042900D02*
X0043300Y0246500D01*
X0043700D02*
X0044099D01*
X0043900D01*
Y0247700D01*
X0043700Y0247500D01*
X0044699D02*
X0044899Y0247700D01*
X0045299D01*
X0045499Y0247500D01*
Y0247300D01*
X0045299Y0247100D01*
X0045499Y0246900D01*
Y0246700D01*
X0045299Y0246500D01*
X0044899D01*
X0044699Y0246700D01*
Y0246900D01*
X0044899Y0247100D01*
X0044699Y0247300D01*
Y0247500D01*
X0044899Y0247100D02*
X0045299D01*
X0063000Y0250500D02*
Y0251700D01*
X0063600D01*
X0063800Y0251500D01*
Y0251100D01*
X0063600Y0250900D01*
X0063000D01*
X0063400D02*
X0063800Y0250500D01*
X0064200D02*
X0064599D01*
X0064400D01*
Y0251700D01*
X0064200Y0251500D01*
X0065199Y0250700D02*
X0065399Y0250500D01*
X0065799D01*
X0065999Y0250700D01*
Y0251500D01*
X0065799Y0251700D01*
X0065399D01*
X0065199Y0251500D01*
Y0251300D01*
X0065399Y0251100D01*
X0065999D01*
X0063000Y0246500D02*
Y0247700D01*
X0063600D01*
X0063800Y0247500D01*
Y0247100D01*
X0063600Y0246900D01*
X0063000D01*
X0063400D02*
X0063800Y0246500D01*
X0064999D02*
X0064200D01*
X0064999Y0247300D01*
Y0247500D01*
X0064799Y0247700D01*
X0064400D01*
X0064200Y0247500D01*
X0065399D02*
X0065599Y0247700D01*
X0065999D01*
X0066199Y0247500D01*
Y0246700D01*
X0065999Y0246500D01*
X0065599D01*
X0065399Y0246700D01*
Y0247500D01*
X0161500Y0066500D02*
Y0067700D01*
X0162100D01*
X0162300Y0067500D01*
Y0067100D01*
X0162100Y0066900D01*
X0161500D01*
X0161900D02*
X0162300Y0066500D01*
X0162700D02*
X0163099D01*
X0162900D01*
Y0067700D01*
X0162700Y0067500D01*
X0163699D02*
X0163899Y0067700D01*
X0164299D01*
X0164499Y0067500D01*
Y0067300D01*
X0164299Y0067100D01*
X0164099D01*
X0164299D01*
X0164499Y0066900D01*
Y0066700D01*
X0164299Y0066500D01*
X0163899D01*
X0163699Y0066700D01*
X0155500Y0065000D02*
X0154300D01*
Y0065600D01*
X0154500Y0065800D01*
X0154900D01*
X0155100Y0065600D01*
Y0065000D01*
Y0065400D02*
X0155500Y0065800D01*
Y0066200D02*
Y0066599D01*
Y0066400D01*
X0154300D01*
X0154500Y0066200D01*
X0155500Y0067799D02*
X0154300D01*
X0154900Y0067199D01*
Y0067999D01*
X0182000Y0066500D02*
Y0067700D01*
X0182600D01*
X0182800Y0067500D01*
Y0067100D01*
X0182600Y0066900D01*
X0182000D01*
X0182400D02*
X0182800Y0066500D01*
X0183200D02*
X0183599D01*
X0183400D01*
Y0067700D01*
X0183200Y0067500D01*
X0184999Y0067700D02*
X0184199D01*
Y0067100D01*
X0184599Y0067300D01*
X0184799D01*
X0184999Y0067100D01*
Y0066700D01*
X0184799Y0066500D01*
X0184399D01*
X0184199Y0066700D01*
X0175700Y0065000D02*
X0174500D01*
Y0065600D01*
X0174700Y0065800D01*
X0175100D01*
X0175300Y0065600D01*
Y0065000D01*
Y0065400D02*
X0175700Y0065800D01*
Y0066200D02*
Y0066599D01*
Y0066400D01*
X0174500D01*
X0174700Y0066200D01*
X0174500Y0067999D02*
X0174700Y0067599D01*
X0175100Y0067199D01*
X0175500D01*
X0175700Y0067399D01*
Y0067799D01*
X0175500Y0067999D01*
X0175300D01*
X0175100Y0067799D01*
Y0067199D01*
X0043000Y0250500D02*
Y0251700D01*
X0043600D01*
X0043800Y0251500D01*
Y0251100D01*
X0043600Y0250900D01*
X0043000D01*
X0043400D02*
X0043800Y0250500D01*
X0044200D02*
X0044599D01*
X0044400D01*
Y0251700D01*
X0044200Y0251500D01*
X0045199Y0251700D02*
X0045999D01*
Y0251500D01*
X0045199Y0250700D01*
Y0250500D01*
X0124000Y0246500D02*
Y0247700D01*
X0124600D01*
X0124800Y0247500D01*
Y0247100D01*
X0124600Y0246900D01*
X0124000D01*
X0124400D02*
X0124800Y0246500D01*
X0125999D02*
X0125200D01*
X0125999Y0247300D01*
Y0247500D01*
X0125799Y0247700D01*
X0125400D01*
X0125200Y0247500D01*
X0127199Y0247700D02*
X0126799Y0247500D01*
X0126399Y0247100D01*
Y0246700D01*
X0126599Y0246500D01*
X0126999D01*
X0127199Y0246700D01*
Y0246900D01*
X0126999Y0247100D01*
X0126399D01*
X0144500Y0250500D02*
Y0251700D01*
X0145100D01*
X0145300Y0251500D01*
Y0251100D01*
X0145100Y0250900D01*
X0144500D01*
X0144900D02*
X0145300Y0250500D01*
X0146499D02*
X0145700D01*
X0146499Y0251300D01*
Y0251500D01*
X0146299Y0251700D01*
X0145900D01*
X0145700Y0251500D01*
X0146899Y0251700D02*
X0147699D01*
Y0251500D01*
X0146899Y0250700D01*
Y0250500D01*
X0141500Y0066500D02*
Y0067700D01*
X0142100D01*
X0142300Y0067500D01*
Y0067100D01*
X0142100Y0066900D01*
X0141500D01*
X0141900D02*
X0142300Y0066500D01*
X0142700D02*
X0143099D01*
X0142900D01*
Y0067700D01*
X0142700Y0067500D01*
X0143699Y0066500D02*
X0144099D01*
X0143899D01*
Y0067700D01*
X0143699Y0067500D01*
X0135000Y0065000D02*
X0133800D01*
Y0065600D01*
X0134000Y0065800D01*
X0134400D01*
X0134600Y0065600D01*
Y0065000D01*
Y0065400D02*
X0135000Y0065800D01*
Y0066200D02*
Y0066599D01*
Y0066400D01*
X0133800D01*
X0134000Y0066200D01*
X0135000Y0067999D02*
Y0067199D01*
X0134200Y0067999D01*
X0134000D01*
X0133800Y0067799D01*
Y0067399D01*
X0134000Y0067199D01*
Y0062300D02*
X0133800Y0062100D01*
Y0061700D01*
X0134000Y0061500D01*
X0134800D01*
X0135000Y0061700D01*
Y0062100D01*
X0134800Y0062300D01*
X0135000Y0062700D02*
Y0063099D01*
Y0062900D01*
X0133800D01*
X0134000Y0062700D01*
X0133800Y0064499D02*
X0134000Y0064099D01*
X0134400Y0063699D01*
X0134800D01*
X0135000Y0063899D01*
Y0064299D01*
X0134800Y0064499D01*
X0134600D01*
X0134400Y0064299D01*
Y0063699D01*
X0133300Y0047000D02*
X0133100Y0047200D01*
X0132700D01*
X0132500Y0047000D01*
Y0046200D01*
X0132700Y0046000D01*
X0133100D01*
X0133300Y0046200D01*
X0133700Y0046000D02*
X0134099D01*
X0133900D01*
Y0047200D01*
X0133700Y0047000D01*
X0134699Y0047200D02*
X0135499D01*
Y0047000D01*
X0134699Y0046200D01*
Y0046000D01*
X0154500Y0062300D02*
X0154300Y0062100D01*
Y0061700D01*
X0154500Y0061500D01*
X0155300D01*
X0155500Y0061700D01*
Y0062100D01*
X0155300Y0062300D01*
X0155500Y0062700D02*
Y0063099D01*
Y0062900D01*
X0154300D01*
X0154500Y0062700D01*
X0155300Y0063699D02*
X0155500Y0063899D01*
Y0064299D01*
X0155300Y0064499D01*
X0154500D01*
X0154300Y0064299D01*
Y0063899D01*
X0154500Y0063699D01*
X0154700D01*
X0154900Y0063899D01*
Y0064499D01*
X0153600Y0047000D02*
X0153400Y0047200D01*
X0153000D01*
X0152800Y0047000D01*
Y0046200D01*
X0153000Y0046000D01*
X0153400D01*
X0153600Y0046200D01*
X0154799Y0046000D02*
X0154000D01*
X0154799Y0046800D01*
Y0047000D01*
X0154599Y0047200D01*
X0154200D01*
X0154000Y0047000D01*
X0155199D02*
X0155399Y0047200D01*
X0155799D01*
X0155999Y0047000D01*
Y0046200D01*
X0155799Y0046000D01*
X0155399D01*
X0155199Y0046200D01*
Y0047000D01*
X0166300Y0064000D02*
X0166100Y0064200D01*
X0165700D01*
X0165500Y0064000D01*
Y0063200D01*
X0165700Y0063000D01*
X0166100D01*
X0166300Y0063200D01*
X0167499Y0063000D02*
X0166700D01*
X0167499Y0063800D01*
Y0064000D01*
X0167299Y0064200D01*
X0166900D01*
X0166700Y0064000D01*
X0167899Y0063000D02*
X0168299D01*
X0168099D01*
Y0064200D01*
X0167899Y0064000D01*
X0174700Y0062200D02*
X0174500Y0062000D01*
Y0061600D01*
X0174700Y0061400D01*
X0175500D01*
X0175700Y0061600D01*
Y0062000D01*
X0175500Y0062200D01*
X0175700Y0063399D02*
Y0062600D01*
X0174900Y0063399D01*
X0174700D01*
X0174500Y0063199D01*
Y0062800D01*
X0174700Y0062600D01*
X0175700Y0064599D02*
Y0063799D01*
X0174900Y0064599D01*
X0174700D01*
X0174500Y0064399D01*
Y0063999D01*
X0174700Y0063799D01*
X0174000Y0047000D02*
X0173800Y0047200D01*
X0173400D01*
X0173200Y0047000D01*
Y0046200D01*
X0173400Y0046000D01*
X0173800D01*
X0174000Y0046200D01*
X0175199Y0046000D02*
X0174400D01*
X0175199Y0046800D01*
Y0047000D01*
X0174999Y0047200D01*
X0174600D01*
X0174400Y0047000D01*
X0175599D02*
X0175799Y0047200D01*
X0176199D01*
X0176399Y0047000D01*
Y0046800D01*
X0176199Y0046600D01*
X0175999D01*
X0176199D01*
X0176399Y0046400D01*
Y0046200D01*
X0176199Y0046000D01*
X0175799D01*
X0175599Y0046200D01*
X0186800Y0064000D02*
X0186600Y0064200D01*
X0186200D01*
X0186000Y0064000D01*
Y0063200D01*
X0186200Y0063000D01*
X0186600D01*
X0186800Y0063200D01*
X0187999Y0063000D02*
X0187200D01*
X0187999Y0063800D01*
Y0064000D01*
X0187799Y0064200D01*
X0187400D01*
X0187200Y0064000D01*
X0188999Y0063000D02*
Y0064200D01*
X0188399Y0063600D01*
X0189199D01*
X0029800Y0269000D02*
X0029600Y0269200D01*
X0029200D01*
X0029000Y0269000D01*
Y0268200D01*
X0029200Y0268000D01*
X0029600D01*
X0029800Y0268200D01*
X0030999Y0268000D02*
X0030200D01*
X0030999Y0268800D01*
Y0269000D01*
X0030799Y0269200D01*
X0030400D01*
X0030200Y0269000D01*
X0032199Y0269200D02*
X0031399D01*
Y0268600D01*
X0031799Y0268800D01*
X0031999D01*
X0032199Y0268600D01*
Y0268200D01*
X0031999Y0268000D01*
X0031599D01*
X0031399Y0268200D01*
X0040300Y0265000D02*
X0040100Y0265200D01*
X0039700D01*
X0039500Y0265000D01*
Y0264200D01*
X0039700Y0264000D01*
X0040100D01*
X0040300Y0264200D01*
X0041499Y0264000D02*
X0040700D01*
X0041499Y0264800D01*
Y0265000D01*
X0041299Y0265200D01*
X0040900D01*
X0040700Y0265000D01*
X0042699Y0265200D02*
X0042299Y0265000D01*
X0041899Y0264600D01*
Y0264200D01*
X0042099Y0264000D01*
X0042499D01*
X0042699Y0264200D01*
Y0264400D01*
X0042499Y0264600D01*
X0041899D01*
X0090400Y0269000D02*
X0090200Y0269200D01*
X0089800D01*
X0089600Y0269000D01*
Y0268200D01*
X0089800Y0268000D01*
X0090200D01*
X0090400Y0268200D01*
X0090800Y0269000D02*
X0091000Y0269200D01*
X0091399D01*
X0091599Y0269000D01*
Y0268800D01*
X0091399Y0268600D01*
X0091199D01*
X0091399D01*
X0091599Y0268400D01*
Y0268200D01*
X0091399Y0268000D01*
X0091000D01*
X0090800Y0268200D01*
X0092599Y0268000D02*
Y0269200D01*
X0091999Y0268600D01*
X0092799D01*
X0101100Y0265000D02*
X0100900Y0265200D01*
X0100500D01*
X0100300Y0265000D01*
Y0264200D01*
X0100500Y0264000D01*
X0100900D01*
X0101100Y0264200D01*
X0101500Y0265000D02*
X0101700Y0265200D01*
X0102099D01*
X0102299Y0265000D01*
Y0264800D01*
X0102099Y0264600D01*
X0101899D01*
X0102099D01*
X0102299Y0264400D01*
Y0264200D01*
X0102099Y0264000D01*
X0101700D01*
X0101500Y0264200D01*
X0103499Y0265200D02*
X0102699D01*
Y0264600D01*
X0103099Y0264800D01*
X0103299D01*
X0103499Y0264600D01*
Y0264200D01*
X0103299Y0264000D01*
X0102899D01*
X0102699Y0264200D01*
X0093300Y0252000D02*
X0093100Y0252200D01*
X0092700D01*
X0092500Y0252000D01*
Y0251200D01*
X0092700Y0251000D01*
X0093100D01*
X0093300Y0251200D01*
X0093700Y0252000D02*
X0093900Y0252200D01*
X0094299D01*
X0094499Y0252000D01*
Y0251800D01*
X0094299Y0251600D01*
X0094099D01*
X0094299D01*
X0094499Y0251400D01*
Y0251200D01*
X0094299Y0251000D01*
X0093900D01*
X0093700Y0251200D01*
X0095699Y0252200D02*
X0095299Y0252000D01*
X0094899Y0251600D01*
Y0251200D01*
X0095099Y0251000D01*
X0095499D01*
X0095699Y0251200D01*
Y0251400D01*
X0095499Y0251600D01*
X0094899D01*
X0113800Y0252000D02*
X0113600Y0252200D01*
X0113200D01*
X0113000Y0252000D01*
Y0251200D01*
X0113200Y0251000D01*
X0113600D01*
X0113800Y0251200D01*
X0114200Y0252000D02*
X0114400Y0252200D01*
X0114799D01*
X0114999Y0252000D01*
Y0251800D01*
X0114799Y0251600D01*
X0114599D01*
X0114799D01*
X0114999Y0251400D01*
Y0251200D01*
X0114799Y0251000D01*
X0114400D01*
X0114200Y0251200D01*
X0115399D02*
X0115599Y0251000D01*
X0115999D01*
X0116199Y0251200D01*
Y0252000D01*
X0115999Y0252200D01*
X0115599D01*
X0115399Y0252000D01*
Y0251800D01*
X0115599Y0251600D01*
X0116199D01*
X0130800Y0269000D02*
X0130600Y0269200D01*
X0130200D01*
X0130000Y0269000D01*
Y0268200D01*
X0130200Y0268000D01*
X0130600D01*
X0130800Y0268200D01*
X0131799Y0268000D02*
Y0269200D01*
X0131200Y0268600D01*
X0131999D01*
X0132399Y0269000D02*
X0132599Y0269200D01*
X0132999D01*
X0133199Y0269000D01*
Y0268200D01*
X0132999Y0268000D01*
X0132599D01*
X0132399Y0268200D01*
Y0269000D01*
X0142000Y0265000D02*
X0141800Y0265200D01*
X0141400D01*
X0141200Y0265000D01*
Y0264200D01*
X0141400Y0264000D01*
X0141800D01*
X0142000Y0264200D01*
X0142999Y0264000D02*
Y0265200D01*
X0142400Y0264600D01*
X0143199D01*
X0143599Y0264000D02*
X0143999D01*
X0143799D01*
Y0265200D01*
X0143599Y0265000D01*
X0133800Y0252000D02*
X0133600Y0252200D01*
X0133200D01*
X0133000Y0252000D01*
Y0251200D01*
X0133200Y0251000D01*
X0133600D01*
X0133800Y0251200D01*
X0134799Y0251000D02*
Y0252200D01*
X0134200Y0251600D01*
X0134999D01*
X0136199Y0251000D02*
X0135399D01*
X0136199Y0251800D01*
Y0252000D01*
X0135999Y0252200D01*
X0135599D01*
X0135399Y0252000D01*
X0151300Y0269000D02*
X0151100Y0269200D01*
X0150700D01*
X0150500Y0269000D01*
Y0268200D01*
X0150700Y0268000D01*
X0151100D01*
X0151300Y0268200D01*
X0152299Y0268000D02*
Y0269200D01*
X0151700Y0268600D01*
X0152499D01*
X0152899Y0269000D02*
X0153099Y0269200D01*
X0153499D01*
X0153699Y0269000D01*
Y0268800D01*
X0153499Y0268600D01*
X0153299D01*
X0153499D01*
X0153699Y0268400D01*
Y0268200D01*
X0153499Y0268000D01*
X0153099D01*
X0152899Y0268200D01*
X0162100Y0265000D02*
X0161900Y0265200D01*
X0161500D01*
X0161300Y0265000D01*
Y0264200D01*
X0161500Y0264000D01*
X0161900D01*
X0162100Y0264200D01*
X0163099Y0264000D02*
Y0265200D01*
X0162500Y0264600D01*
X0163299D01*
X0164299Y0264000D02*
Y0265200D01*
X0163699Y0264600D01*
X0164499D01*
X0154300Y0252000D02*
X0154100Y0252200D01*
X0153700D01*
X0153500Y0252000D01*
Y0251200D01*
X0153700Y0251000D01*
X0154100D01*
X0154300Y0251200D01*
X0155299Y0251000D02*
Y0252200D01*
X0154700Y0251600D01*
X0155499D01*
X0156699Y0252200D02*
X0155899D01*
Y0251600D01*
X0156299Y0251800D01*
X0156499D01*
X0156699Y0251600D01*
Y0251200D01*
X0156499Y0251000D01*
X0156099D01*
X0155899Y0251200D01*
X0265800Y0139200D02*
X0265000D01*
Y0138000D01*
X0265800D01*
X0265000Y0138600D02*
X0265400D01*
X0266200Y0138800D02*
X0266999Y0138000D01*
X0266599Y0138400D01*
X0266999Y0138800D01*
X0266200Y0138000D01*
X0267599Y0139000D02*
Y0138800D01*
X0267399D01*
X0267799D01*
X0267599D01*
Y0138200D01*
X0267799Y0138000D01*
X0268399D02*
Y0139200D01*
X0268999D01*
X0269199Y0139000D01*
Y0138600D01*
X0268999Y0138400D01*
X0268399D01*
X0268799D02*
X0269199Y0138000D01*
X0270198D02*
X0269798D01*
X0269599Y0138200D01*
Y0138600D01*
X0269798Y0138800D01*
X0270198D01*
X0270398Y0138600D01*
Y0138400D01*
X0269599D01*
X0270798Y0138000D02*
X0271398D01*
X0271598Y0138200D01*
X0271398Y0138400D01*
X0270998D01*
X0270798Y0138600D01*
X0270998Y0138800D01*
X0271598D01*
X0272598Y0138000D02*
X0272198D01*
X0271998Y0138200D01*
Y0138600D01*
X0272198Y0138800D01*
X0272598D01*
X0272797Y0138600D01*
Y0138400D01*
X0271998D01*
X0273397Y0139000D02*
Y0138800D01*
X0273197D01*
X0273597D01*
X0273397D01*
Y0138200D01*
X0273597Y0138000D01*
X0274197D02*
X0274597D01*
X0274397D01*
Y0139200D01*
X0274197Y0139000D01*
X0083500Y0250500D02*
Y0251700D01*
X0084100D01*
X0084300Y0251500D01*
Y0251100D01*
X0084100Y0250900D01*
X0083500D01*
X0083900D02*
X0084300Y0250500D01*
X0085499D02*
X0084700D01*
X0085499Y0251300D01*
Y0251500D01*
X0085299Y0251700D01*
X0084900D01*
X0084700Y0251500D01*
X0085899Y0250500D02*
X0086299D01*
X0086099D01*
Y0251700D01*
X0085899Y0251500D01*
X0083500Y0246500D02*
Y0247700D01*
X0084100D01*
X0084300Y0247500D01*
Y0247100D01*
X0084100Y0246900D01*
X0083500D01*
X0083900D02*
X0084300Y0246500D01*
X0085499D02*
X0084700D01*
X0085499Y0247300D01*
Y0247500D01*
X0085299Y0247700D01*
X0084900D01*
X0084700Y0247500D01*
X0086699Y0246500D02*
X0085899D01*
X0086699Y0247300D01*
Y0247500D01*
X0086499Y0247700D01*
X0086099D01*
X0085899Y0247500D01*
X0104000Y0250500D02*
Y0251700D01*
X0104600D01*
X0104800Y0251500D01*
Y0251100D01*
X0104600Y0250900D01*
X0104000D01*
X0104400D02*
X0104800Y0250500D01*
X0105999D02*
X0105200D01*
X0105999Y0251300D01*
Y0251500D01*
X0105799Y0251700D01*
X0105400D01*
X0105200Y0251500D01*
X0106399D02*
X0106599Y0251700D01*
X0106999D01*
X0107199Y0251500D01*
Y0251300D01*
X0106999Y0251100D01*
X0106799D01*
X0106999D01*
X0107199Y0250900D01*
Y0250700D01*
X0106999Y0250500D01*
X0106599D01*
X0106399Y0250700D01*
X0104000Y0246500D02*
Y0247700D01*
X0104600D01*
X0104800Y0247500D01*
Y0247100D01*
X0104600Y0246900D01*
X0104000D01*
X0104400D02*
X0104800Y0246500D01*
X0105999D02*
X0105200D01*
X0105999Y0247300D01*
Y0247500D01*
X0105799Y0247700D01*
X0105400D01*
X0105200Y0247500D01*
X0106999Y0246500D02*
Y0247700D01*
X0106399Y0247100D01*
X0107199D01*
X0124000Y0250500D02*
Y0251700D01*
X0124600D01*
X0124800Y0251500D01*
Y0251100D01*
X0124600Y0250900D01*
X0124000D01*
X0124400D02*
X0124800Y0250500D01*
X0125999D02*
X0125200D01*
X0125999Y0251300D01*
Y0251500D01*
X0125799Y0251700D01*
X0125400D01*
X0125200Y0251500D01*
X0127199Y0251700D02*
X0126399D01*
Y0251100D01*
X0126799Y0251300D01*
X0126999D01*
X0127199Y0251100D01*
Y0250700D01*
X0126999Y0250500D01*
X0126599D01*
X0126399Y0250700D01*
X0032800Y0252000D02*
X0032600Y0252200D01*
X0032200D01*
X0032000Y0252000D01*
Y0251200D01*
X0032200Y0251000D01*
X0032600D01*
X0032800Y0251200D01*
X0033999Y0251000D02*
X0033200D01*
X0033999Y0251800D01*
Y0252000D01*
X0033799Y0252200D01*
X0033400D01*
X0033200Y0252000D01*
X0034399Y0252200D02*
X0035199D01*
Y0252000D01*
X0034399Y0251200D01*
Y0251000D01*
X0060300Y0265000D02*
X0060100Y0265200D01*
X0059700D01*
X0059500Y0265000D01*
Y0264200D01*
X0059700Y0264000D01*
X0060100D01*
X0060300Y0264200D01*
X0061499Y0264000D02*
X0060700D01*
X0061499Y0264800D01*
Y0265000D01*
X0061299Y0265200D01*
X0060900D01*
X0060700Y0265000D01*
X0061899Y0264200D02*
X0062099Y0264000D01*
X0062499D01*
X0062699Y0264200D01*
Y0265000D01*
X0062499Y0265200D01*
X0062099D01*
X0061899Y0265000D01*
Y0264800D01*
X0062099Y0264600D01*
X0062699D01*
X0052800Y0252000D02*
X0052600Y0252200D01*
X0052200D01*
X0052000Y0252000D01*
Y0251200D01*
X0052200Y0251000D01*
X0052600D01*
X0052800Y0251200D01*
X0053200Y0252000D02*
X0053400Y0252200D01*
X0053799D01*
X0053999Y0252000D01*
Y0251800D01*
X0053799Y0251600D01*
X0053599D01*
X0053799D01*
X0053999Y0251400D01*
Y0251200D01*
X0053799Y0251000D01*
X0053400D01*
X0053200Y0251200D01*
X0054399Y0252000D02*
X0054599Y0252200D01*
X0054999D01*
X0055199Y0252000D01*
Y0251200D01*
X0054999Y0251000D01*
X0054599D01*
X0054399Y0251200D01*
Y0252000D01*
X0267000Y0141300D02*
X0266800Y0141100D01*
Y0140700D01*
X0267000Y0140500D01*
X0267800D01*
X0268000Y0140700D01*
Y0141100D01*
X0267800Y0141300D01*
X0266800Y0142499D02*
Y0141700D01*
X0267400D01*
X0267200Y0142099D01*
Y0142299D01*
X0267400Y0142499D01*
X0267800D01*
X0268000Y0142299D01*
Y0141900D01*
X0267800Y0141700D01*
X0266800Y0143699D02*
Y0142899D01*
X0267400D01*
X0267200Y0143299D01*
Y0143499D01*
X0267400Y0143699D01*
X0267800D01*
X0268000Y0143499D01*
Y0143099D01*
X0267800Y0142899D01*
X0232500Y0141800D02*
X0232300Y0141600D01*
Y0141200D01*
X0232500Y0141000D01*
X0233300D01*
X0233500Y0141200D01*
Y0141600D01*
X0233300Y0141800D01*
X0232300Y0142999D02*
Y0142200D01*
X0232900D01*
X0232700Y0142599D01*
Y0142799D01*
X0232900Y0142999D01*
X0233300D01*
X0233500Y0142799D01*
Y0142400D01*
X0233300Y0142200D01*
X0232300Y0144199D02*
X0232500Y0143799D01*
X0232900Y0143399D01*
X0233300D01*
X0233500Y0143599D01*
Y0143999D01*
X0233300Y0144199D01*
X0233100D01*
X0232900Y0143999D01*
Y0143399D01*
X0232237Y0167318D02*
X0232037Y0167118D01*
Y0166718D01*
X0232237Y0166518D01*
X0233037D01*
X0233236Y0166718D01*
Y0167118D01*
X0233037Y0167318D01*
X0232037Y0168518D02*
Y0167718D01*
X0232637D01*
X0232437Y0168118D01*
Y0168318D01*
X0232637Y0168518D01*
X0233037D01*
X0233236Y0168318D01*
Y0167918D01*
X0233037Y0167718D01*
X0232037Y0168918D02*
Y0169717D01*
X0232237D01*
X0233037Y0168918D01*
X0233236D01*
X0266500Y0167300D02*
X0266300Y0167100D01*
Y0166700D01*
X0266500Y0166500D01*
X0267300D01*
X0267500Y0166700D01*
Y0167100D01*
X0267300Y0167300D01*
X0266300Y0168499D02*
Y0167700D01*
X0266900D01*
X0266700Y0168099D01*
Y0168299D01*
X0266900Y0168499D01*
X0267300D01*
X0267500Y0168299D01*
Y0167900D01*
X0267300Y0167700D01*
X0266500Y0168899D02*
X0266300Y0169099D01*
Y0169499D01*
X0266500Y0169699D01*
X0266700D01*
X0266900Y0169499D01*
X0267100Y0169699D01*
X0267300D01*
X0267500Y0169499D01*
Y0169099D01*
X0267300Y0168899D01*
X0267100D01*
X0266900Y0169099D01*
X0266700Y0168899D01*
X0266500D01*
X0266900Y0169099D02*
Y0169499D01*
X0267000Y0148800D02*
X0266800Y0148600D01*
Y0148200D01*
X0267000Y0148000D01*
X0267800D01*
X0268000Y0148200D01*
Y0148600D01*
X0267800Y0148800D01*
X0266800Y0149999D02*
Y0149200D01*
X0267400D01*
X0267200Y0149599D01*
Y0149799D01*
X0267400Y0149999D01*
X0267800D01*
X0268000Y0149799D01*
Y0149400D01*
X0267800Y0149200D01*
Y0150399D02*
X0268000Y0150599D01*
Y0150999D01*
X0267800Y0151199D01*
X0267000D01*
X0266800Y0150999D01*
Y0150599D01*
X0267000Y0150399D01*
X0267200D01*
X0267400Y0150599D01*
Y0151199D01*
X0252000Y0170800D02*
X0251800Y0170600D01*
Y0170200D01*
X0252000Y0170000D01*
X0252800D01*
X0253000Y0170200D01*
Y0170600D01*
X0252800Y0170800D01*
X0251800Y0171999D02*
X0252000Y0171599D01*
X0252400Y0171200D01*
X0252800D01*
X0253000Y0171400D01*
Y0171799D01*
X0252800Y0171999D01*
X0252600D01*
X0252400Y0171799D01*
Y0171200D01*
X0252000Y0172399D02*
X0251800Y0172599D01*
Y0172999D01*
X0252000Y0173199D01*
X0252800D01*
X0253000Y0172999D01*
Y0172599D01*
X0252800Y0172399D01*
X0252000D01*
X0247800Y0131500D02*
X0247600Y0131700D01*
X0247200D01*
X0247000Y0131500D01*
Y0130700D01*
X0247200Y0130500D01*
X0247600D01*
X0247800Y0130700D01*
X0248999Y0131700D02*
X0248599Y0131500D01*
X0248200Y0131100D01*
Y0130700D01*
X0248400Y0130500D01*
X0248799D01*
X0248999Y0130700D01*
Y0130900D01*
X0248799Y0131100D01*
X0248200D01*
X0249399Y0130500D02*
X0249799D01*
X0249599D01*
Y0131700D01*
X0249399Y0131500D01*
X0232800Y0157000D02*
X0232600Y0157200D01*
X0232200D01*
X0232000Y0157000D01*
Y0156200D01*
X0232200Y0156000D01*
X0232600D01*
X0232800Y0156200D01*
X0233999Y0157200D02*
X0233599Y0157000D01*
X0233200Y0156600D01*
Y0156200D01*
X0233400Y0156000D01*
X0233799D01*
X0233999Y0156200D01*
Y0156400D01*
X0233799Y0156600D01*
X0233200D01*
X0235199Y0156000D02*
X0234399D01*
X0235199Y0156800D01*
Y0157000D01*
X0234999Y0157200D01*
X0234599D01*
X0234399Y0157000D01*
X0250300Y0139000D02*
X0250100Y0139200D01*
X0249700D01*
X0249500Y0139000D01*
Y0138200D01*
X0249700Y0138000D01*
X0250100D01*
X0250300Y0138200D01*
X0251499Y0139200D02*
X0251099Y0139000D01*
X0250700Y0138600D01*
Y0138200D01*
X0250900Y0138000D01*
X0251299D01*
X0251499Y0138200D01*
Y0138400D01*
X0251299Y0138600D01*
X0250700D01*
X0251899Y0139000D02*
X0252099Y0139200D01*
X0252499D01*
X0252699Y0139000D01*
Y0138800D01*
X0252499Y0138600D01*
X0252299D01*
X0252499D01*
X0252699Y0138400D01*
Y0138200D01*
X0252499Y0138000D01*
X0252099D01*
X0251899Y0138200D01*
X0249500Y0173300D02*
X0249300Y0173100D01*
Y0172700D01*
X0249500Y0172500D01*
X0250300D01*
X0250500Y0172700D01*
Y0173100D01*
X0250300Y0173300D01*
X0249300Y0173700D02*
Y0174499D01*
X0249500D01*
X0250300Y0173700D01*
X0250500D01*
X0249500Y0174899D02*
X0249300Y0175099D01*
Y0175499D01*
X0249500Y0175699D01*
X0249700D01*
X0249900Y0175499D01*
Y0175299D01*
Y0175499D01*
X0250100Y0175699D01*
X0250300D01*
X0250500Y0175499D01*
Y0175099D01*
X0250300Y0174899D01*
X0328500Y0259300D02*
X0328300Y0259100D01*
Y0258700D01*
X0328500Y0258500D01*
X0329300D01*
X0329500Y0258700D01*
Y0259100D01*
X0329300Y0259300D01*
X0328300Y0259700D02*
Y0260499D01*
X0328500D01*
X0329300Y0259700D01*
X0329500D01*
X0328300Y0261699D02*
Y0260899D01*
X0328900D01*
X0328700Y0261299D01*
Y0261499D01*
X0328900Y0261699D01*
X0329300D01*
X0329500Y0261499D01*
Y0261099D01*
X0329300Y0260899D01*
X0328500Y0243800D02*
X0328300Y0243600D01*
Y0243200D01*
X0328500Y0243000D01*
X0329300D01*
X0329500Y0243200D01*
Y0243600D01*
X0329300Y0243800D01*
X0328300Y0244200D02*
Y0244999D01*
X0328500D01*
X0329300Y0244200D01*
X0329500D01*
X0328300Y0246199D02*
X0328500Y0245799D01*
X0328900Y0245399D01*
X0329300D01*
X0329500Y0245599D01*
Y0245999D01*
X0329300Y0246199D01*
X0329100D01*
X0328900Y0245999D01*
Y0245399D01*
X0324800Y0252500D02*
X0324600Y0252700D01*
X0324200D01*
X0324000Y0252500D01*
Y0251700D01*
X0324200Y0251500D01*
X0324600D01*
X0324800Y0251700D01*
X0325200Y0252700D02*
X0325999D01*
Y0252500D01*
X0325200Y0251700D01*
Y0251500D01*
X0326399Y0252700D02*
X0327199D01*
Y0252500D01*
X0326399Y0251700D01*
Y0251500D01*
X0212800Y0160000D02*
X0212600Y0160200D01*
X0212200D01*
X0212000Y0160000D01*
Y0159200D01*
X0212200Y0159000D01*
X0212600D01*
X0212800Y0159200D01*
X0213200Y0160200D02*
X0213999D01*
Y0160000D01*
X0213200Y0159200D01*
Y0159000D01*
X0214399Y0159200D02*
X0214599Y0159000D01*
X0214999D01*
X0215199Y0159200D01*
Y0160000D01*
X0214999Y0160200D01*
X0214599D01*
X0214399Y0160000D01*
Y0159800D01*
X0214599Y0159600D01*
X0215199D01*
X0335900Y0258600D02*
X0335700Y0258400D01*
Y0258000D01*
X0335900Y0257800D01*
X0336700D01*
X0336900Y0258000D01*
Y0258400D01*
X0336700Y0258600D01*
X0335900Y0259000D02*
X0335700Y0259200D01*
Y0259599D01*
X0335900Y0259799D01*
X0336100D01*
X0336300Y0259599D01*
X0336500Y0259799D01*
X0336700D01*
X0336900Y0259599D01*
Y0259200D01*
X0336700Y0259000D01*
X0336500D01*
X0336300Y0259200D01*
X0336100Y0259000D01*
X0335900D01*
X0336300Y0259200D02*
Y0259599D01*
X0335900Y0260199D02*
X0335700Y0260399D01*
Y0260799D01*
X0335900Y0260999D01*
X0336700D01*
X0336900Y0260799D01*
Y0260399D01*
X0336700Y0260199D01*
X0335900D01*
X0346800Y0256500D02*
X0346600Y0256700D01*
X0346200D01*
X0346000Y0256500D01*
Y0255700D01*
X0346200Y0255500D01*
X0346600D01*
X0346800Y0255700D01*
X0347200Y0256500D02*
X0347400Y0256700D01*
X0347799D01*
X0347999Y0256500D01*
Y0256300D01*
X0347799Y0256100D01*
X0347999Y0255900D01*
Y0255700D01*
X0347799Y0255500D01*
X0347400D01*
X0347200Y0255700D01*
Y0255900D01*
X0347400Y0256100D01*
X0347200Y0256300D01*
Y0256500D01*
X0347400Y0256100D02*
X0347799D01*
X0349199Y0255500D02*
X0348399D01*
X0349199Y0256300D01*
Y0256500D01*
X0348999Y0256700D01*
X0348599D01*
X0348399Y0256500D01*
X0266200Y0158532D02*
X0265000D01*
Y0159132D01*
X0265200Y0159332D01*
X0265600D01*
X0265800Y0159132D01*
Y0158532D01*
Y0158932D02*
X0266200Y0159332D01*
X0265200Y0159732D02*
X0265000Y0159932D01*
Y0160331D01*
X0265200Y0160531D01*
X0265400D01*
X0265600Y0160331D01*
Y0160131D01*
Y0160331D01*
X0265800Y0160531D01*
X0266000D01*
X0266200Y0160331D01*
Y0159932D01*
X0266000Y0159732D01*
X0265000Y0160931D02*
Y0161731D01*
X0265200D01*
X0266000Y0160931D01*
X0266200D01*
X0224000Y0154000D02*
Y0155200D01*
X0224600D01*
X0224800Y0155000D01*
Y0154600D01*
X0224600Y0154400D01*
X0224000D01*
X0224400D02*
X0224800Y0154000D01*
X0225200Y0155000D02*
X0225400Y0155200D01*
X0225799D01*
X0225999Y0155000D01*
Y0154800D01*
X0225799Y0154600D01*
X0225599D01*
X0225799D01*
X0225999Y0154400D01*
Y0154200D01*
X0225799Y0154000D01*
X0225400D01*
X0225200Y0154200D01*
X0226399Y0155000D02*
X0226599Y0155200D01*
X0226999D01*
X0227199Y0155000D01*
Y0154800D01*
X0226999Y0154600D01*
X0227199Y0154400D01*
Y0154200D01*
X0226999Y0154000D01*
X0226599D01*
X0226399Y0154200D01*
Y0154400D01*
X0226599Y0154600D01*
X0226399Y0154800D01*
Y0155000D01*
X0226599Y0154600D02*
X0226999D01*
X0246900Y0137800D02*
X0246700Y0138000D01*
X0246300D01*
X0246100Y0137800D01*
Y0137000D01*
X0246300Y0136800D01*
X0246700D01*
X0246900Y0137000D01*
X0247300Y0138000D02*
X0248099D01*
Y0137800D01*
X0247300Y0137000D01*
Y0136800D01*
X0249099D02*
Y0138000D01*
X0248499Y0137400D01*
X0249299D01*
G54D34*
X0172360Y0203840D02*
X0179360D01*
X0172360Y0246910D02*
X0179360D01*
X0172360Y0203840D02*
Y0246910D01*
X0179360Y0203840D02*
Y0246910D01*
X0152040Y0203840D02*
X0159040D01*
X0152040Y0246910D02*
X0159040D01*
X0152040Y0203840D02*
Y0246910D01*
X0159040Y0203840D02*
Y0246910D01*
X0131720Y0203840D02*
X0138720D01*
X0131720Y0246910D02*
X0138720D01*
X0131720Y0203840D02*
Y0246910D01*
X0138720Y0203840D02*
Y0246910D01*
X0111400Y0203840D02*
X0118400D01*
X0111400Y0246910D02*
X0118400D01*
X0111400Y0203840D02*
Y0246910D01*
X0118400Y0203840D02*
Y0246910D01*
X0091080Y0203840D02*
X0098080D01*
X0091080Y0246910D02*
X0098080D01*
X0091080Y0203840D02*
Y0246910D01*
X0098080Y0203840D02*
Y0246910D01*
X0070760Y0203840D02*
X0077760D01*
X0070760Y0246910D02*
X0077760D01*
X0070760Y0203840D02*
Y0246910D01*
X0077760Y0203840D02*
Y0246910D01*
X0050440Y0203840D02*
X0057440D01*
X0050440Y0246910D02*
X0057440D01*
X0050440Y0203840D02*
Y0246910D01*
X0057440Y0203840D02*
Y0246910D01*
X0030120Y0203840D02*
X0037120D01*
X0030120Y0246910D02*
X0037120D01*
X0030120Y0203840D02*
Y0246910D01*
X0037120Y0203840D02*
Y0246910D01*
X0172360Y0070590D02*
X0179360D01*
X0172360Y0113660D02*
X0179360D01*
X0172360Y0070590D02*
Y0113660D01*
X0179360Y0070590D02*
Y0113660D01*
X0152040Y0070590D02*
X0159040D01*
X0152040Y0113660D02*
X0159040D01*
X0152040Y0070590D02*
Y0113660D01*
X0159040Y0070590D02*
Y0113660D01*
X0131720Y0070590D02*
X0138720D01*
X0131720Y0113660D02*
X0138720D01*
X0131720Y0070590D02*
Y0113660D01*
X0138720Y0070590D02*
Y0113660D01*
X0111400Y0070590D02*
X0118400D01*
X0111400Y0113660D02*
X0118400D01*
X0111400Y0070590D02*
Y0113660D01*
X0118400Y0070590D02*
Y0113660D01*
X0091080Y0070590D02*
X0098080D01*
X0091080Y0113660D02*
X0098080D01*
X0091080Y0070590D02*
Y0113660D01*
X0098080Y0070590D02*
Y0113660D01*
X0070760Y0070590D02*
X0077760D01*
X0070760Y0113660D02*
X0077760D01*
X0070760Y0070590D02*
Y0113660D01*
X0077760Y0070590D02*
Y0113660D01*
X0050440Y0070590D02*
X0057440D01*
X0050440Y0113660D02*
X0057440D01*
X0050440Y0070590D02*
Y0113660D01*
X0057440Y0070590D02*
Y0113660D01*
X0030120Y0070590D02*
X0037120D01*
X0030120Y0113660D02*
X0037120D01*
X0030120Y0070590D02*
Y0113660D01*
X0037120Y0070590D02*
Y0113660D01*
G54D99*
X0064624Y0161301D02*
G03*
X0064624Y0161301I-0000125J0000000D01*
G01*
X0287426Y0090001D02*
G03*
X0287426Y0090001I-0000125J0000000D01*
G01*
X0286426Y0260001D02*
G03*
X0286426Y0260001I-0000125J0000000D01*
G01*
G54D100*
X0227222Y0243826D02*
X0228238Y0243064D01*
X0227222Y0242302D02*
X0228238Y0243064D01*
X0227222Y0242302D02*
Y0243826D01*
X0228238Y0242302D02*
Y0243826D01*
Y0243064D02*
X0229000D01*
X0226460D02*
X0227222D01*
X0225952Y0241540D02*
Y0242556D01*
X0226206D01*
Y0246112D01*
X0226714Y0246874D01*
X0227222Y0247128D01*
X0228238D01*
X0228746Y0246874D01*
X0229254Y0246112D01*
Y0242556D02*
Y0246112D01*
Y0242556D02*
X0229508D01*
Y0241540D02*
Y0242556D01*
X0225952Y0241540D02*
X0229508D01*
X0229254Y0239000D02*
Y0241540D01*
X0228746Y0239000D02*
X0229254D01*
X0228746D02*
Y0241540D01*
X0226714Y0239000D02*
Y0241540D01*
X0226206Y0239000D02*
X0226714D01*
X0226206D02*
Y0241540D01*
X0226968Y0246366D02*
X0227222Y0244334D01*
X0226968Y0246366D02*
X0227476Y0245604D01*
X0226460Y0245350D02*
X0226968Y0246366D01*
X0228238Y0244334D02*
X0228746Y0246366D01*
X0229000Y0245350D01*
X0227984Y0245604D02*
X0228746Y0246366D01*
X0142108Y0063119D02*
Y0063881D01*
Y0063119D02*
X0143632D01*
Y0063881D01*
X0142108D02*
X0143632D01*
X0179042Y0255016D02*
Y0261112D01*
X0172438Y0255016D02*
X0179042D01*
X0172438D02*
Y0261112D01*
X0179042D01*
X0172946Y0254000D02*
Y0255524D01*
Y0254000D02*
X0178534D01*
Y0255524D01*
X0176248Y0261112D02*
Y0261620D01*
X0175232D02*
X0176248D01*
X0175232Y0261112D02*
Y0261620D01*
X0178534Y0261112D02*
Y0261620D01*
X0177518D02*
X0178534D01*
X0177518Y0261112D02*
Y0261620D01*
X0173962Y0261112D02*
Y0261620D01*
X0172946D02*
X0173962D01*
X0172946Y0261112D02*
Y0261620D01*
X0178534Y0256032D02*
Y0256540D01*
Y0257048D02*
Y0257556D01*
Y0258064D02*
Y0258572D01*
Y0259080D02*
Y0259588D01*
X0178026D02*
X0178534D01*
X0177010D02*
X0177518D01*
X0175994D02*
X0176502D01*
X0174978D02*
X0175486D01*
X0173962D02*
X0174470D01*
X0172946D02*
X0173454D01*
X0172946Y0259080D02*
Y0259588D01*
Y0258064D02*
Y0258572D01*
Y0257048D02*
Y0257556D01*
Y0256032D02*
Y0256540D01*
X0158722Y0255016D02*
Y0261112D01*
X0152118Y0255016D02*
X0158722D01*
X0152118D02*
Y0261112D01*
X0158722D01*
X0152626Y0254000D02*
Y0255524D01*
Y0254000D02*
X0158214D01*
Y0255524D01*
X0155928Y0261112D02*
Y0261620D01*
X0154912D02*
X0155928D01*
X0154912Y0261112D02*
Y0261620D01*
X0158214Y0261112D02*
Y0261620D01*
X0157198D02*
X0158214D01*
X0157198Y0261112D02*
Y0261620D01*
X0153642Y0261112D02*
Y0261620D01*
X0152626D02*
X0153642D01*
X0152626Y0261112D02*
Y0261620D01*
X0158214Y0256032D02*
Y0256540D01*
Y0257048D02*
Y0257556D01*
Y0258064D02*
Y0258572D01*
Y0259080D02*
Y0259588D01*
X0157706D02*
X0158214D01*
X0156690D02*
X0157198D01*
X0155674D02*
X0156182D01*
X0154658D02*
X0155166D01*
X0153642D02*
X0154150D01*
X0152626D02*
X0153134D01*
X0152626Y0259080D02*
Y0259588D01*
Y0258064D02*
Y0258572D01*
Y0257048D02*
Y0257556D01*
Y0256032D02*
Y0256540D01*
X0138402Y0255016D02*
Y0261112D01*
X0131798Y0255016D02*
X0138402D01*
X0131798D02*
Y0261112D01*
X0138402D01*
X0132306Y0254000D02*
Y0255524D01*
Y0254000D02*
X0137894D01*
Y0255524D01*
X0135608Y0261112D02*
Y0261620D01*
X0134592D02*
X0135608D01*
X0134592Y0261112D02*
Y0261620D01*
X0137894Y0261112D02*
Y0261620D01*
X0136878D02*
X0137894D01*
X0136878Y0261112D02*
Y0261620D01*
X0133322Y0261112D02*
Y0261620D01*
X0132306D02*
X0133322D01*
X0132306Y0261112D02*
Y0261620D01*
X0137894Y0256032D02*
Y0256540D01*
Y0257048D02*
Y0257556D01*
Y0258064D02*
Y0258572D01*
Y0259080D02*
Y0259588D01*
X0137386D02*
X0137894D01*
X0136370D02*
X0136878D01*
X0135354D02*
X0135862D01*
X0134338D02*
X0134846D01*
X0133322D02*
X0133830D01*
X0132306D02*
X0132814D01*
X0132306Y0259080D02*
Y0259588D01*
Y0258064D02*
Y0258572D01*
Y0257048D02*
Y0257556D01*
Y0256032D02*
Y0256540D01*
X0118082Y0255016D02*
Y0261112D01*
X0111478Y0255016D02*
X0118082D01*
X0111478D02*
Y0261112D01*
X0118082D01*
X0111986Y0254000D02*
Y0255524D01*
Y0254000D02*
X0117574D01*
Y0255524D01*
X0115288Y0261112D02*
Y0261620D01*
X0114272D02*
X0115288D01*
X0114272Y0261112D02*
Y0261620D01*
X0117574Y0261112D02*
Y0261620D01*
X0116558D02*
X0117574D01*
X0116558Y0261112D02*
Y0261620D01*
X0113002Y0261112D02*
Y0261620D01*
X0111986D02*
X0113002D01*
X0111986Y0261112D02*
Y0261620D01*
X0117574Y0256032D02*
Y0256540D01*
Y0257048D02*
Y0257556D01*
Y0258064D02*
Y0258572D01*
Y0259080D02*
Y0259588D01*
X0117066D02*
X0117574D01*
X0116050D02*
X0116558D01*
X0115034D02*
X0115542D01*
X0114018D02*
X0114526D01*
X0113002D02*
X0113510D01*
X0111986D02*
X0112494D01*
X0111986Y0259080D02*
Y0259588D01*
Y0258064D02*
Y0258572D01*
Y0257048D02*
Y0257556D01*
Y0256032D02*
Y0256540D01*
X0097762Y0255016D02*
Y0261112D01*
X0091158Y0255016D02*
X0097762D01*
X0091158D02*
Y0261112D01*
X0097762D01*
X0091666Y0254000D02*
Y0255524D01*
Y0254000D02*
X0097254D01*
Y0255524D01*
X0094968Y0261112D02*
Y0261620D01*
X0093952D02*
X0094968D01*
X0093952Y0261112D02*
Y0261620D01*
X0097254Y0261112D02*
Y0261620D01*
X0096238D02*
X0097254D01*
X0096238Y0261112D02*
Y0261620D01*
X0092682Y0261112D02*
Y0261620D01*
X0091666D02*
X0092682D01*
X0091666Y0261112D02*
Y0261620D01*
X0097254Y0256032D02*
Y0256540D01*
Y0257048D02*
Y0257556D01*
Y0258064D02*
Y0258572D01*
Y0259080D02*
Y0259588D01*
X0096746D02*
X0097254D01*
X0095730D02*
X0096238D01*
X0094714D02*
X0095222D01*
X0093698D02*
X0094206D01*
X0092682D02*
X0093190D01*
X0091666D02*
X0092174D01*
X0091666Y0259080D02*
Y0259588D01*
Y0258064D02*
Y0258572D01*
Y0257048D02*
Y0257556D01*
Y0256032D02*
Y0256540D01*
X0057122Y0255018D02*
Y0261114D01*
X0050518Y0255018D02*
X0057122D01*
X0050518D02*
Y0261114D01*
X0057122D01*
X0051026Y0254002D02*
Y0255526D01*
Y0254002D02*
X0056614D01*
Y0255526D01*
X0054328Y0261114D02*
Y0261622D01*
X0053312D02*
X0054328D01*
X0053312Y0261114D02*
Y0261622D01*
X0056614Y0261114D02*
Y0261622D01*
X0055598D02*
X0056614D01*
X0055598Y0261114D02*
Y0261622D01*
X0052042Y0261114D02*
Y0261622D01*
X0051026D02*
X0052042D01*
X0051026Y0261114D02*
Y0261622D01*
X0056614Y0256034D02*
Y0256542D01*
Y0257050D02*
Y0257558D01*
Y0258066D02*
Y0258574D01*
Y0259082D02*
Y0259590D01*
X0056106D02*
X0056614D01*
X0055090D02*
X0055598D01*
X0054074D02*
X0054582D01*
X0053058D02*
X0053566D01*
X0052042D02*
X0052550D01*
X0051026D02*
X0051534D01*
X0051026Y0259082D02*
Y0259590D01*
Y0258066D02*
Y0258574D01*
Y0257050D02*
Y0257558D01*
Y0256034D02*
Y0256542D01*
X0036802Y0255018D02*
Y0261114D01*
X0030198Y0255018D02*
X0036802D01*
X0030198D02*
Y0261114D01*
X0036802D01*
X0030706Y0254002D02*
Y0255526D01*
Y0254002D02*
X0036294D01*
Y0255526D01*
X0034008Y0261114D02*
Y0261622D01*
X0032992D02*
X0034008D01*
X0032992Y0261114D02*
Y0261622D01*
X0036294Y0261114D02*
Y0261622D01*
X0035278D02*
X0036294D01*
X0035278Y0261114D02*
Y0261622D01*
X0031722Y0261114D02*
Y0261622D01*
X0030706D02*
X0031722D01*
X0030706Y0261114D02*
Y0261622D01*
X0036294Y0256034D02*
Y0256542D01*
Y0257050D02*
Y0257558D01*
Y0258066D02*
Y0258574D01*
Y0259082D02*
Y0259590D01*
X0035786D02*
X0036294D01*
X0034770D02*
X0035278D01*
X0033754D02*
X0034262D01*
X0032738D02*
X0033246D01*
X0031722D02*
X0032230D01*
X0030706D02*
X0031214D01*
X0030706Y0259082D02*
Y0259590D01*
Y0258066D02*
Y0258574D01*
Y0257050D02*
Y0257558D01*
Y0256034D02*
Y0256542D01*
X0185542Y0050516D02*
Y0056612D01*
X0178938Y0050516D02*
X0185542D01*
X0178938D02*
Y0056612D01*
X0185542D01*
X0179446Y0049500D02*
Y0051024D01*
Y0049500D02*
X0185034D01*
Y0051024D01*
X0182748Y0056612D02*
Y0057120D01*
X0181732D02*
X0182748D01*
X0181732Y0056612D02*
Y0057120D01*
X0185034Y0056612D02*
Y0057120D01*
X0184018D02*
X0185034D01*
X0184018Y0056612D02*
Y0057120D01*
X0180462Y0056612D02*
Y0057120D01*
X0179446D02*
X0180462D01*
X0179446Y0056612D02*
Y0057120D01*
X0185034Y0051532D02*
Y0052040D01*
Y0052548D02*
Y0053056D01*
Y0053564D02*
Y0054072D01*
Y0054580D02*
Y0055088D01*
X0184526D02*
X0185034D01*
X0183510D02*
X0184018D01*
X0182494D02*
X0183002D01*
X0181478D02*
X0181986D01*
X0180462D02*
X0180970D01*
X0179446D02*
X0179954D01*
X0179446Y0054580D02*
Y0055088D01*
Y0053564D02*
Y0054072D01*
Y0052548D02*
Y0053056D01*
Y0051532D02*
Y0052040D01*
X0165222Y0050516D02*
Y0056612D01*
X0158618Y0050516D02*
X0165222D01*
X0158618D02*
Y0056612D01*
X0165222D01*
X0159126Y0049500D02*
Y0051024D01*
Y0049500D02*
X0164714D01*
Y0051024D01*
X0162428Y0056612D02*
Y0057120D01*
X0161412D02*
X0162428D01*
X0161412Y0056612D02*
Y0057120D01*
X0164714Y0056612D02*
Y0057120D01*
X0163698D02*
X0164714D01*
X0163698Y0056612D02*
Y0057120D01*
X0160142Y0056612D02*
Y0057120D01*
X0159126D02*
X0160142D01*
X0159126Y0056612D02*
Y0057120D01*
X0164714Y0051532D02*
Y0052040D01*
Y0052548D02*
Y0053056D01*
Y0053564D02*
Y0054072D01*
Y0054580D02*
Y0055088D01*
X0164206D02*
X0164714D01*
X0163190D02*
X0163698D01*
X0162174D02*
X0162682D01*
X0161158D02*
X0161666D01*
X0160142D02*
X0160650D01*
X0159126D02*
X0159634D01*
X0159126Y0054580D02*
Y0055088D01*
Y0053564D02*
Y0054072D01*
Y0052548D02*
Y0053056D01*
Y0051532D02*
Y0052040D01*
X0144902Y0050516D02*
Y0056612D01*
X0138298Y0050516D02*
X0144902D01*
X0138298D02*
Y0056612D01*
X0144902D01*
X0138806Y0049500D02*
Y0051024D01*
Y0049500D02*
X0144394D01*
Y0051024D01*
X0142108Y0056612D02*
Y0057120D01*
X0141092D02*
X0142108D01*
X0141092Y0056612D02*
Y0057120D01*
X0144394Y0056612D02*
Y0057120D01*
X0143378D02*
X0144394D01*
X0143378Y0056612D02*
Y0057120D01*
X0139822Y0056612D02*
Y0057120D01*
X0138806D02*
X0139822D01*
X0138806Y0056612D02*
Y0057120D01*
X0144394Y0051532D02*
Y0052040D01*
Y0052548D02*
Y0053056D01*
Y0053564D02*
Y0054072D01*
Y0054580D02*
Y0055088D01*
X0143886D02*
X0144394D01*
X0142870D02*
X0143378D01*
X0141854D02*
X0142362D01*
X0140838D02*
X0141346D01*
X0139822D02*
X0140330D01*
X0138806D02*
X0139314D01*
X0138806Y0054580D02*
Y0055088D01*
Y0053564D02*
Y0054072D01*
Y0052548D02*
Y0053056D01*
Y0051532D02*
Y0052040D01*
X0334690Y0226810D02*
X0342310D01*
Y0219190D02*
Y0226810D01*
X0334690Y0219190D02*
X0342310D01*
X0334690D02*
Y0226810D01*
X0345690Y0226810D02*
X0353310D01*
Y0219190D02*
Y0226810D01*
X0345690Y0219190D02*
X0353310D01*
X0345690D02*
Y0226810D01*
X0356690Y0226810D02*
X0364310D01*
Y0219190D02*
Y0226810D01*
X0356690Y0219190D02*
X0364310D01*
X0356690D02*
Y0226810D01*
X0267381Y0156754D02*
Y0158278D01*
X0266619Y0156754D02*
X0267381D01*
X0266619D02*
Y0158278D01*
X0267381D01*
X0184248Y0248619D02*
X0185772D01*
X0184248D02*
Y0249381D01*
X0185772D01*
Y0248619D02*
Y0249381D01*
X0181962Y0250119D02*
X0183486D01*
X0181962D02*
Y0250881D01*
X0183486D01*
Y0250119D02*
Y0250881D01*
X0163928Y0248619D02*
X0165452D01*
X0163928D02*
Y0249381D01*
X0165452D01*
Y0248619D02*
Y0249381D01*
X0161642Y0250119D02*
X0163166D01*
X0161642D02*
Y0250881D01*
X0163166D01*
Y0250119D02*
Y0250881D01*
X0143608Y0248619D02*
X0145132D01*
X0143608D02*
Y0249381D01*
X0145132D01*
Y0248619D02*
Y0249381D01*
X0243254Y0155381D02*
X0244778D01*
Y0154619D02*
Y0155381D01*
X0243254Y0154619D02*
X0244778D01*
X0243254D02*
Y0155381D01*
X0247254Y0154619D02*
X0248778D01*
X0247254D02*
Y0155381D01*
X0248778D01*
Y0154619D02*
Y0155381D01*
X0255222Y0154619D02*
X0256746D01*
X0255222D02*
Y0155381D01*
X0256746D01*
Y0154619D02*
Y0155381D01*
X0251222Y0155381D02*
X0252746D01*
Y0154619D02*
Y0155381D01*
X0251222Y0154619D02*
X0252746D01*
X0251222D02*
Y0155381D01*
X0249619Y0149454D02*
Y0150978D01*
X0250381D01*
Y0149454D02*
Y0150978D01*
X0249619Y0149454D02*
X0250381D01*
X0250381Y0159022D02*
Y0160546D01*
X0249619Y0159022D02*
X0250381D01*
X0249619D02*
Y0160546D01*
X0250381D01*
X0177962Y0250119D02*
X0179486D01*
X0177962D02*
Y0250881D01*
X0179486D01*
Y0250119D02*
Y0250881D01*
X0182732Y0256032D02*
X0183748D01*
X0183240Y0255524D02*
Y0256540D01*
X0180954Y0255016D02*
X0185526D01*
X0180954Y0254762D02*
X0185526D01*
X0180954Y0254508D02*
X0185526D01*
X0180954Y0254254D02*
X0185526D01*
X0181970Y0261620D02*
Y0261874D01*
X0184510D01*
Y0261620D02*
Y0261874D01*
Y0253746D02*
Y0254000D01*
X0181970Y0253746D02*
X0184510D01*
X0181970D02*
Y0254000D01*
X0185526D02*
Y0261620D01*
X0180954D02*
X0185526D01*
X0180954Y0254000D02*
Y0261620D01*
Y0254000D02*
X0185526D01*
X0171676Y0266605D02*
X0173200D01*
X0171676D02*
Y0267367D01*
X0173200D01*
Y0266605D02*
Y0267367D01*
X0247388Y0240302D02*
X0253484D01*
Y0233698D02*
Y0240302D01*
X0247388Y0233698D02*
X0253484D01*
X0247388D02*
Y0240302D01*
X0252976Y0234206D02*
X0254500D01*
Y0239794D01*
X0252976D02*
X0254500D01*
X0246880Y0237508D02*
X0247388D01*
X0246880Y0236492D02*
Y0237508D01*
Y0236492D02*
X0247388D01*
X0246880Y0239794D02*
X0247388D01*
X0246880Y0238778D02*
Y0239794D01*
Y0238778D02*
X0247388D01*
X0246880Y0235222D02*
X0247388D01*
X0246880Y0234206D02*
Y0235222D01*
Y0234206D02*
X0247388D01*
X0251960Y0239794D02*
X0252468D01*
X0250944D02*
X0251452D01*
X0249928D02*
X0250436D01*
X0248912D02*
X0249420D01*
X0248912Y0239286D02*
Y0239794D01*
Y0238270D02*
Y0238778D01*
Y0237254D02*
Y0237762D01*
Y0236238D02*
Y0236746D01*
Y0235222D02*
Y0235730D01*
Y0234206D02*
Y0234714D01*
Y0234206D02*
X0249420D01*
X0249928D02*
X0250436D01*
X0250944D02*
X0251452D01*
X0251960D02*
X0252468D01*
X0241719Y0237454D02*
Y0238978D01*
X0242481D01*
Y0237454D02*
Y0238978D01*
X0241719Y0237454D02*
X0242481D01*
X0239819Y0235054D02*
Y0236578D01*
X0240581D01*
Y0235054D02*
Y0236578D01*
X0239819Y0235054D02*
X0240581D01*
X0252468Y0243492D02*
Y0244508D01*
X0251960Y0244000D02*
X0252976D01*
X0253484Y0241714D02*
Y0246286D01*
X0253738Y0241714D02*
Y0246286D01*
X0253992Y0241714D02*
Y0246286D01*
X0254246Y0241714D02*
Y0246286D01*
X0246626Y0242730D02*
X0246880D01*
X0246626D02*
Y0245270D01*
X0246880D01*
X0254500D02*
X0254754D01*
Y0242730D02*
Y0245270D01*
X0254500Y0242730D02*
X0254754D01*
X0246880Y0246286D02*
X0254500D01*
X0246880Y0241714D02*
Y0246286D01*
Y0241714D02*
X0254500D01*
Y0246286D01*
X0214698Y0068286D02*
Y0074382D01*
X0221302D01*
Y0068286D02*
Y0074382D01*
X0214698Y0068286D02*
X0221302D01*
X0220794Y0073874D02*
Y0075398D01*
X0215206D02*
X0220794D01*
X0215206Y0073874D02*
Y0075398D01*
X0217492Y0067778D02*
Y0068286D01*
Y0067778D02*
X0218508D01*
Y0068286D01*
X0215206Y0067778D02*
Y0068286D01*
Y0067778D02*
X0216222D01*
Y0068286D01*
X0219778Y0067778D02*
Y0068286D01*
Y0067778D02*
X0220794D01*
Y0068286D01*
X0215206Y0072858D02*
Y0073366D01*
Y0071842D02*
Y0072350D01*
Y0070826D02*
Y0071334D01*
Y0069810D02*
Y0070318D01*
Y0069810D02*
X0215714D01*
X0216222D02*
X0216730D01*
X0217238D02*
X0217746D01*
X0218254D02*
X0218762D01*
X0219270D02*
X0219778D01*
X0220286D02*
X0220794D01*
Y0070318D01*
Y0070826D02*
Y0071334D01*
Y0071842D02*
Y0072350D01*
Y0072858D02*
Y0073366D01*
X0208810Y0216190D02*
Y0223810D01*
X0201190Y0216190D02*
X0208810D01*
X0201190D02*
Y0223810D01*
X0208810D01*
X0222222Y0243826D02*
X0223238Y0243064D01*
X0222222Y0242302D02*
X0223238Y0243064D01*
X0222222Y0242302D02*
Y0243826D01*
X0223238Y0242302D02*
Y0243826D01*
Y0243064D02*
X0224000D01*
X0221460D02*
X0222222D01*
X0220952Y0241540D02*
Y0242556D01*
X0221206D01*
Y0246112D01*
X0221714Y0246874D01*
X0222222Y0247128D01*
X0223238D01*
X0223746Y0246874D01*
X0224254Y0246112D01*
Y0242556D02*
Y0246112D01*
Y0242556D02*
X0224508D01*
Y0241540D02*
Y0242556D01*
X0220952Y0241540D02*
X0224508D01*
X0224254Y0239000D02*
Y0241540D01*
X0223746Y0239000D02*
X0224254D01*
X0223746D02*
Y0241540D01*
X0221714Y0239000D02*
Y0241540D01*
X0221206Y0239000D02*
X0221714D01*
X0221206D02*
Y0241540D01*
X0221968Y0246366D02*
X0222222Y0244334D01*
X0221968Y0246366D02*
X0222476Y0245604D01*
X0221460Y0245350D02*
X0221968Y0246366D01*
X0223238Y0244334D02*
X0223746Y0246366D01*
X0224000Y0245350D01*
X0222984Y0245604D02*
X0223746Y0246366D01*
X0217222Y0243826D02*
X0218238Y0243064D01*
X0217222Y0242302D02*
X0218238Y0243064D01*
X0217222Y0242302D02*
Y0243826D01*
X0218238Y0242302D02*
Y0243826D01*
Y0243064D02*
X0219000D01*
X0216460D02*
X0217222D01*
X0215952Y0241540D02*
Y0242556D01*
X0216206D01*
Y0246112D01*
X0216714Y0246874D01*
X0217222Y0247128D01*
X0218238D01*
X0218746Y0246874D01*
X0219254Y0246112D01*
Y0242556D02*
Y0246112D01*
Y0242556D02*
X0219508D01*
Y0241540D02*
Y0242556D01*
X0215952Y0241540D02*
X0219508D01*
X0219254Y0239000D02*
Y0241540D01*
X0218746Y0239000D02*
X0219254D01*
X0218746D02*
Y0241540D01*
X0216714Y0239000D02*
Y0241540D01*
X0216206Y0239000D02*
X0216714D01*
X0216206D02*
Y0241540D01*
X0216968Y0246366D02*
X0217222Y0244334D01*
X0216968Y0246366D02*
X0217476Y0245604D01*
X0216460Y0245350D02*
X0216968Y0246366D01*
X0218238Y0244334D02*
X0218746Y0246366D01*
X0219000Y0245350D01*
X0217984Y0245604D02*
X0218746Y0246366D01*
X0228365Y0236746D02*
X0229635D01*
Y0234714D02*
Y0236746D01*
X0228365Y0234714D02*
X0229635D01*
X0228365D02*
Y0236746D01*
X0223365D02*
X0224635D01*
Y0234714D02*
Y0236746D01*
X0223365Y0234714D02*
X0224635D01*
X0223365D02*
Y0236746D01*
X0218365D02*
X0219635D01*
Y0234714D02*
Y0236746D01*
X0218365Y0234714D02*
X0219635D01*
X0218365D02*
Y0236746D01*
X0213746Y0238365D02*
Y0239635D01*
X0211714Y0238365D02*
X0213746D01*
X0211714D02*
Y0239635D01*
X0213746D01*
X0230865Y0236746D02*
X0232135D01*
Y0234714D02*
Y0236746D01*
X0230865Y0234714D02*
X0232135D01*
X0230865D02*
Y0236746D01*
X0225865D02*
X0227135D01*
Y0234714D02*
Y0236746D01*
X0225865Y0234714D02*
X0227135D01*
X0225865D02*
Y0236746D01*
X0220865D02*
X0222135D01*
Y0234714D02*
Y0236746D01*
X0220865Y0234714D02*
X0222135D01*
X0220865D02*
Y0236746D01*
X0054439Y0060254D02*
Y0061778D01*
X0055201D01*
Y0060254D02*
Y0061778D01*
X0054439Y0060254D02*
X0055201D01*
X0074759D02*
Y0061778D01*
X0075521D01*
Y0060254D02*
Y0061778D01*
X0074759Y0060254D02*
X0075521D01*
X0095079D02*
Y0061778D01*
X0095841D01*
Y0060254D02*
Y0061778D01*
X0095079Y0060254D02*
X0095841D01*
X0115399D02*
Y0061778D01*
X0116161D01*
Y0060254D02*
Y0061778D01*
X0115399Y0060254D02*
X0116161D01*
X0050534Y0049500D02*
X0055106D01*
X0050534D02*
Y0057120D01*
X0055106D01*
Y0049500D02*
Y0057120D01*
X0051550Y0049246D02*
Y0049500D01*
Y0049246D02*
X0054090D01*
Y0049500D01*
Y0057120D02*
Y0057374D01*
X0051550D02*
X0054090D01*
X0051550Y0057120D02*
Y0057374D01*
X0050534Y0049754D02*
X0055106D01*
X0050534Y0050008D02*
X0055106D01*
X0050534Y0050262D02*
X0055106D01*
X0050534Y0050516D02*
X0055106D01*
X0052820Y0051024D02*
Y0052040D01*
X0052312Y0051532D02*
X0053328D01*
X0070854Y0049500D02*
X0075426D01*
X0070854D02*
Y0057120D01*
X0075426D01*
Y0049500D02*
Y0057120D01*
X0071870Y0049246D02*
Y0049500D01*
Y0049246D02*
X0074410D01*
Y0049500D01*
Y0057120D02*
Y0057374D01*
X0071870D02*
X0074410D01*
X0071870Y0057120D02*
Y0057374D01*
X0070854Y0049754D02*
X0075426D01*
X0070854Y0050008D02*
X0075426D01*
X0070854Y0050262D02*
X0075426D01*
X0070854Y0050516D02*
X0075426D01*
X0073140Y0051024D02*
Y0052040D01*
X0072632Y0051532D02*
X0073648D01*
X0091174Y0049500D02*
X0095746D01*
X0091174D02*
Y0057120D01*
X0095746D01*
Y0049500D02*
Y0057120D01*
X0092190Y0049246D02*
Y0049500D01*
Y0049246D02*
X0094730D01*
Y0049500D01*
Y0057120D02*
Y0057374D01*
X0092190D02*
X0094730D01*
X0092190Y0057120D02*
Y0057374D01*
X0091174Y0049754D02*
X0095746D01*
X0091174Y0050008D02*
X0095746D01*
X0091174Y0050262D02*
X0095746D01*
X0091174Y0050516D02*
X0095746D01*
X0093460Y0051024D02*
Y0052040D01*
X0092952Y0051532D02*
X0093968D01*
X0111494Y0049500D02*
X0116066D01*
X0111494D02*
Y0057120D01*
X0116066D01*
Y0049500D02*
Y0057120D01*
X0112510Y0049246D02*
Y0049500D01*
Y0049246D02*
X0115050D01*
Y0049500D01*
Y0057120D02*
Y0057374D01*
X0112510D02*
X0115050D01*
X0112510Y0057120D02*
Y0057374D01*
X0111494Y0049754D02*
X0116066D01*
X0111494Y0050008D02*
X0116066D01*
X0111494Y0050262D02*
X0116066D01*
X0111494Y0050516D02*
X0116066D01*
X0113780Y0051024D02*
Y0052040D01*
X0113272Y0051532D02*
X0114288D01*
X0060828Y0063881D02*
X0062352D01*
Y0063119D02*
Y0063881D01*
X0060828Y0063119D02*
X0062352D01*
X0060828D02*
Y0063881D01*
X0081148D02*
X0082672D01*
Y0063119D02*
Y0063881D01*
X0081148Y0063119D02*
X0082672D01*
X0081148D02*
Y0063881D01*
X0101468D02*
X0102992D01*
Y0063119D02*
Y0063881D01*
X0101468Y0063119D02*
X0102992D01*
X0101468D02*
Y0063881D01*
X0121788D02*
X0123312D01*
Y0063119D02*
Y0063881D01*
X0121788Y0063119D02*
X0123312D01*
X0121788D02*
Y0063881D01*
X0057074Y0065881D02*
X0058598D01*
Y0065119D02*
Y0065881D01*
X0057074Y0065119D02*
X0058598D01*
X0057074D02*
Y0065881D01*
X0077394Y0065881D02*
X0078918D01*
Y0065119D02*
Y0065881D01*
X0077394Y0065119D02*
X0078918D01*
X0077394D02*
Y0065881D01*
X0097714D02*
X0099238D01*
Y0065119D02*
Y0065881D01*
X0097714Y0065119D02*
X0099238D01*
X0097714D02*
Y0065881D01*
X0118034D02*
X0119558D01*
Y0065119D02*
Y0065881D01*
X0118034Y0065119D02*
X0119558D01*
X0118034D02*
Y0065881D01*
X0054439Y0063754D02*
Y0065278D01*
X0055201D01*
Y0063754D02*
Y0065278D01*
X0054439Y0063754D02*
X0055201D01*
X0074759Y0063722D02*
Y0065246D01*
X0075521D01*
Y0063722D02*
Y0065246D01*
X0074759Y0063722D02*
X0075521D01*
X0095079Y0063754D02*
Y0065278D01*
X0095841D01*
Y0063754D02*
Y0065278D01*
X0095079Y0063754D02*
X0095841D01*
X0115399Y0063754D02*
Y0065278D01*
X0116161D01*
Y0063754D02*
Y0065278D01*
X0115399Y0063754D02*
X0116161D01*
X0057526Y0051532D02*
Y0052040D01*
Y0052548D02*
Y0053056D01*
Y0053564D02*
Y0054072D01*
Y0054580D02*
Y0055088D01*
X0058034D01*
X0058542D02*
X0059050D01*
X0059558D02*
X0060066D01*
X0060574D02*
X0061082D01*
X0061590D02*
X0062098D01*
X0062606D02*
X0063114D01*
Y0054580D02*
Y0055088D01*
Y0053564D02*
Y0054072D01*
Y0052548D02*
Y0053056D01*
Y0051532D02*
Y0052040D01*
X0057526Y0056612D02*
Y0057120D01*
X0058542D01*
Y0056612D02*
Y0057120D01*
X0062098Y0056612D02*
Y0057120D01*
X0063114D01*
Y0056612D02*
Y0057120D01*
X0059812Y0056612D02*
Y0057120D01*
X0060828D01*
Y0056612D02*
Y0057120D01*
X0063114Y0049500D02*
Y0051024D01*
X0057526Y0049500D02*
X0063114D01*
X0057526D02*
Y0051024D01*
X0057018Y0056612D02*
X0063622D01*
X0057018Y0050516D02*
Y0056612D01*
Y0050516D02*
X0063622D01*
Y0056612D01*
X0077846Y0051532D02*
Y0052040D01*
Y0052548D02*
Y0053056D01*
Y0053564D02*
Y0054072D01*
Y0054580D02*
Y0055088D01*
X0078354D01*
X0078862D02*
X0079370D01*
X0079878D02*
X0080386D01*
X0080894D02*
X0081402D01*
X0081910D02*
X0082418D01*
X0082926D02*
X0083434D01*
Y0054580D02*
Y0055088D01*
Y0053564D02*
Y0054072D01*
Y0052548D02*
Y0053056D01*
Y0051532D02*
Y0052040D01*
X0077846Y0056612D02*
Y0057120D01*
X0078862D01*
Y0056612D02*
Y0057120D01*
X0082418Y0056612D02*
Y0057120D01*
X0083434D01*
Y0056612D02*
Y0057120D01*
X0080132Y0056612D02*
Y0057120D01*
X0081148D01*
Y0056612D02*
Y0057120D01*
X0083434Y0049500D02*
Y0051024D01*
X0077846Y0049500D02*
X0083434D01*
X0077846D02*
Y0051024D01*
X0077338Y0056612D02*
X0083942D01*
X0077338Y0050516D02*
Y0056612D01*
Y0050516D02*
X0083942D01*
Y0056612D01*
X0098166Y0051532D02*
Y0052040D01*
Y0052548D02*
Y0053056D01*
Y0053564D02*
Y0054072D01*
Y0054580D02*
Y0055088D01*
X0098674D01*
X0099182D02*
X0099690D01*
X0100198D02*
X0100706D01*
X0101214D02*
X0101722D01*
X0102230D02*
X0102738D01*
X0103246D02*
X0103754D01*
Y0054580D02*
Y0055088D01*
Y0053564D02*
Y0054072D01*
Y0052548D02*
Y0053056D01*
Y0051532D02*
Y0052040D01*
X0098166Y0056612D02*
Y0057120D01*
X0099182D01*
Y0056612D02*
Y0057120D01*
X0102738Y0056612D02*
Y0057120D01*
X0103754D01*
Y0056612D02*
Y0057120D01*
X0100452Y0056612D02*
Y0057120D01*
X0101468D01*
Y0056612D02*
Y0057120D01*
X0103754Y0049500D02*
Y0051024D01*
X0098166Y0049500D02*
X0103754D01*
X0098166D02*
Y0051024D01*
X0097658Y0056612D02*
X0104262D01*
X0097658Y0050516D02*
Y0056612D01*
Y0050516D02*
X0104262D01*
Y0056612D01*
X0118486Y0051532D02*
Y0052040D01*
Y0052548D02*
Y0053056D01*
Y0053564D02*
Y0054072D01*
Y0054580D02*
Y0055088D01*
X0118994D01*
X0119502D02*
X0120010D01*
X0120518D02*
X0121026D01*
X0121534D02*
X0122042D01*
X0122550D02*
X0123058D01*
X0123566D02*
X0124074D01*
Y0054580D02*
Y0055088D01*
Y0053564D02*
Y0054072D01*
Y0052548D02*
Y0053056D01*
Y0051532D02*
Y0052040D01*
X0118486Y0056612D02*
Y0057120D01*
X0119502D01*
Y0056612D02*
Y0057120D01*
X0123058Y0056612D02*
Y0057120D01*
X0124074D01*
Y0056612D02*
Y0057120D01*
X0120772Y0056612D02*
Y0057120D01*
X0121788D01*
Y0056612D02*
Y0057120D01*
X0124074Y0049500D02*
Y0051024D01*
X0118486Y0049500D02*
X0124074D01*
X0118486D02*
Y0051024D01*
X0117978Y0056612D02*
X0124582D01*
X0117978Y0050516D02*
Y0056612D01*
Y0050516D02*
X0124582D01*
Y0056612D01*
X0034119Y0063754D02*
Y0065278D01*
X0034881D01*
Y0063754D02*
Y0065278D01*
X0034119Y0063754D02*
X0034881D01*
X0036754Y0065881D02*
X0038278D01*
Y0065119D02*
Y0065881D01*
X0036754Y0065119D02*
X0038278D01*
X0036754D02*
Y0065881D01*
X0228698Y0068286D02*
Y0074382D01*
X0235302D01*
Y0068286D02*
Y0074382D01*
X0228698Y0068286D02*
X0235302D01*
X0234794Y0073874D02*
Y0075398D01*
X0229206D02*
X0234794D01*
X0229206Y0073874D02*
Y0075398D01*
X0231492Y0067778D02*
Y0068286D01*
Y0067778D02*
X0232508D01*
Y0068286D01*
X0229206Y0067778D02*
Y0068286D01*
Y0067778D02*
X0230222D01*
Y0068286D01*
X0233778Y0067778D02*
Y0068286D01*
Y0067778D02*
X0234794D01*
Y0068286D01*
X0229206Y0072858D02*
Y0073366D01*
Y0071842D02*
Y0072350D01*
Y0070826D02*
Y0071334D01*
Y0069810D02*
Y0070318D01*
Y0069810D02*
X0229714D01*
X0230222D02*
X0230730D01*
X0231238D02*
X0231746D01*
X0232254D02*
X0232762D01*
X0233270D02*
X0233778D01*
X0234286D02*
X0234794D01*
Y0070318D01*
Y0070826D02*
Y0071334D01*
Y0071842D02*
Y0072350D01*
Y0072858D02*
Y0073366D01*
X0214698Y0050786D02*
Y0056882D01*
X0221302D01*
Y0050786D02*
Y0056882D01*
X0214698Y0050786D02*
X0221302D01*
X0220794Y0056374D02*
Y0057898D01*
X0215206D02*
X0220794D01*
X0215206Y0056374D02*
Y0057898D01*
X0217492Y0050278D02*
Y0050786D01*
Y0050278D02*
X0218508D01*
Y0050786D01*
X0215206Y0050278D02*
Y0050786D01*
Y0050278D02*
X0216222D01*
Y0050786D01*
X0219778Y0050278D02*
Y0050786D01*
Y0050278D02*
X0220794D01*
Y0050786D01*
X0215206Y0055358D02*
Y0055866D01*
Y0054342D02*
Y0054850D01*
Y0053326D02*
Y0053834D01*
Y0052310D02*
Y0052818D01*
Y0052310D02*
X0215714D01*
X0216222D02*
X0216730D01*
X0217238D02*
X0217746D01*
X0218254D02*
X0218762D01*
X0219270D02*
X0219778D01*
X0220286D02*
X0220794D01*
Y0052818D01*
Y0053326D02*
Y0053834D01*
Y0054342D02*
Y0054850D01*
Y0055358D02*
Y0055866D01*
X0228698Y0050786D02*
Y0056882D01*
X0235302D01*
Y0050786D02*
Y0056882D01*
X0228698Y0050786D02*
X0235302D01*
X0234794Y0056374D02*
Y0057898D01*
X0229206D02*
X0234794D01*
X0229206Y0056374D02*
Y0057898D01*
X0231492Y0050278D02*
Y0050786D01*
Y0050278D02*
X0232508D01*
Y0050786D01*
X0229206Y0050278D02*
Y0050786D01*
Y0050278D02*
X0230222D01*
Y0050786D01*
X0233778Y0050278D02*
Y0050786D01*
Y0050278D02*
X0234794D01*
Y0050786D01*
X0229206Y0055358D02*
Y0055866D01*
Y0054342D02*
Y0054850D01*
Y0053326D02*
Y0053834D01*
Y0052310D02*
Y0052818D01*
Y0052310D02*
X0229714D01*
X0230222D02*
X0230730D01*
X0231238D02*
X0231746D01*
X0232254D02*
X0232762D01*
X0233270D02*
X0233778D01*
X0234286D02*
X0234794D01*
Y0052818D01*
Y0053326D02*
Y0053834D01*
Y0054342D02*
Y0054850D01*
Y0055358D02*
Y0055866D01*
X0230095Y0062940D02*
X0231619D01*
X0230095D02*
Y0063702D01*
X0231619D01*
Y0062940D02*
Y0063702D01*
X0216222Y0045619D02*
X0217746D01*
X0216222D02*
Y0046381D01*
X0217746D01*
Y0045619D02*
Y0046381D01*
X0216222Y0063119D02*
X0217746D01*
X0216222D02*
Y0063881D01*
X0217746D01*
Y0063119D02*
Y0063881D01*
X0230222Y0045619D02*
X0231746D01*
X0230222D02*
Y0046381D01*
X0231746D01*
Y0045619D02*
Y0046381D01*
X0224888Y0072846D02*
X0225904D01*
X0225396Y0072338D02*
Y0073354D01*
X0223110Y0073862D02*
X0227682D01*
X0223110Y0074116D02*
X0227682D01*
X0223110Y0074370D02*
X0227682D01*
X0223110Y0074624D02*
X0227682D01*
X0226666Y0067004D02*
Y0067258D01*
X0224126Y0067004D02*
X0226666D01*
X0224126D02*
Y0067258D01*
Y0074878D02*
Y0075132D01*
X0226666D01*
Y0074878D02*
Y0075132D01*
X0223110Y0067258D02*
Y0074878D01*
Y0067258D02*
X0227682D01*
Y0074878D01*
X0223110D02*
X0227682D01*
X0210392Y0054868D02*
X0211408D01*
X0210900Y0054360D02*
Y0055376D01*
X0208614Y0055884D02*
X0213186D01*
X0208614Y0056138D02*
X0213186D01*
X0208614Y0056392D02*
X0213186D01*
X0208614Y0056646D02*
X0213186D01*
X0212170Y0049026D02*
Y0049280D01*
X0209630Y0049026D02*
X0212170D01*
X0209630D02*
Y0049280D01*
Y0056900D02*
Y0057154D01*
X0212170D01*
Y0056900D02*
Y0057154D01*
X0208614Y0049280D02*
Y0056900D01*
Y0049280D02*
X0213186D01*
Y0056900D01*
X0208614D02*
X0213186D01*
X0210992Y0072468D02*
X0212008D01*
X0211500Y0071960D02*
Y0072976D01*
X0209214Y0073484D02*
X0213786D01*
X0209214Y0073738D02*
X0213786D01*
X0209214Y0073992D02*
X0213786D01*
X0209214Y0074246D02*
X0213786D01*
X0212770Y0066626D02*
Y0066880D01*
X0210230Y0066626D02*
X0212770D01*
X0210230D02*
Y0066880D01*
Y0074500D02*
Y0074754D01*
X0212770D01*
Y0074500D02*
Y0074754D01*
X0209214Y0066880D02*
Y0074500D01*
Y0066880D02*
X0213786D01*
Y0074500D01*
X0209214D02*
X0213786D01*
X0224992Y0054968D02*
X0226008D01*
X0225500Y0054460D02*
Y0055476D01*
X0223214Y0055984D02*
X0227786D01*
X0223214Y0056238D02*
X0227786D01*
X0223214Y0056492D02*
X0227786D01*
X0223214Y0056746D02*
X0227786D01*
X0226770Y0049126D02*
Y0049380D01*
X0224230Y0049126D02*
X0226770D01*
X0224230D02*
Y0049380D01*
Y0057000D02*
Y0057254D01*
X0226770D01*
Y0057000D02*
Y0057254D01*
X0223214Y0049380D02*
Y0057000D01*
Y0049380D02*
X0227786D01*
Y0057000D01*
X0223214D02*
X0227786D01*
X0236381Y0046722D02*
Y0048246D01*
X0235619Y0046722D02*
X0236381D01*
X0235619D02*
Y0048246D01*
X0236381D01*
X0222381Y0064222D02*
Y0065746D01*
X0221619Y0064222D02*
X0222381D01*
X0221619D02*
Y0065746D01*
X0222381D01*
X0236381Y0064222D02*
Y0065746D01*
X0235619Y0064222D02*
X0236381D01*
X0235619D02*
Y0065746D01*
X0236381D01*
X0222681Y0046722D02*
Y0048246D01*
X0221919Y0046722D02*
X0222681D01*
X0221919D02*
Y0048246D01*
X0222681D01*
X0268222Y0060619D02*
X0269746D01*
X0268222D02*
Y0061381D01*
X0269746D01*
Y0060619D02*
Y0061381D01*
X0267168Y0057192D02*
Y0058208D01*
X0266660Y0057700D02*
X0267676D01*
X0268184Y0055414D02*
Y0059986D01*
X0268438Y0055414D02*
Y0059986D01*
X0268692Y0055414D02*
Y0059986D01*
X0268946Y0055414D02*
Y0059986D01*
X0261326Y0056430D02*
X0261580D01*
X0261326D02*
Y0058970D01*
X0261580D01*
X0269200D02*
X0269454D01*
Y0056430D02*
Y0058970D01*
X0269200Y0056430D02*
X0269454D01*
X0261580Y0059986D02*
X0269200D01*
X0261580Y0055414D02*
Y0059986D01*
Y0055414D02*
X0269200D01*
Y0059986D01*
X0110716Y0266605D02*
X0112240D01*
X0110716D02*
Y0267367D01*
X0112240D01*
Y0266605D02*
Y0267367D01*
X0040754Y0063881D02*
X0042278D01*
Y0063119D02*
Y0063881D01*
X0040754Y0063119D02*
X0042278D01*
X0040754D02*
Y0063881D01*
X0034119Y0060254D02*
Y0061778D01*
X0034881D01*
Y0060254D02*
Y0061778D01*
X0034119Y0060254D02*
X0034881D01*
X0030214Y0049500D02*
X0034786D01*
X0030214D02*
Y0057120D01*
X0034786D01*
Y0049500D02*
Y0057120D01*
X0031230Y0049246D02*
Y0049500D01*
Y0049246D02*
X0033770D01*
Y0049500D01*
Y0057120D02*
Y0057374D01*
X0031230D02*
X0033770D01*
X0031230Y0057120D02*
Y0057374D01*
X0030214Y0049754D02*
X0034786D01*
X0030214Y0050008D02*
X0034786D01*
X0030214Y0050262D02*
X0034786D01*
X0030214Y0050516D02*
X0034786D01*
X0032500Y0051024D02*
Y0052040D01*
X0031992Y0051532D02*
X0033008D01*
X0269200Y0044914D02*
Y0049486D01*
X0261580Y0044914D02*
X0269200D01*
X0261580D02*
Y0049486D01*
X0269200D01*
Y0045930D02*
X0269454D01*
Y0048470D01*
X0269200D02*
X0269454D01*
X0261326D02*
X0261580D01*
X0261326Y0045930D02*
Y0048470D01*
Y0045930D02*
X0261580D01*
X0268946Y0044914D02*
Y0049486D01*
X0268692Y0044914D02*
Y0049486D01*
X0268438Y0044914D02*
Y0049486D01*
X0268184Y0044914D02*
Y0049486D01*
X0266660Y0047200D02*
X0267676D01*
X0267168Y0046692D02*
Y0047708D01*
X0268222Y0050119D02*
X0269746D01*
X0268222D02*
Y0050881D01*
X0269746D01*
Y0050119D02*
Y0050881D01*
X0037206Y0051532D02*
Y0052040D01*
Y0052548D02*
Y0053056D01*
Y0053564D02*
Y0054072D01*
Y0054580D02*
Y0055088D01*
X0037714D01*
X0038222D02*
X0038730D01*
X0039238D02*
X0039746D01*
X0040254D02*
X0040762D01*
X0041270D02*
X0041778D01*
X0042286D02*
X0042794D01*
Y0054580D02*
Y0055088D01*
Y0053564D02*
Y0054072D01*
Y0052548D02*
Y0053056D01*
Y0051532D02*
Y0052040D01*
X0037206Y0056612D02*
Y0057120D01*
X0038222D01*
Y0056612D02*
Y0057120D01*
X0041778Y0056612D02*
Y0057120D01*
X0042794D01*
Y0056612D02*
Y0057120D01*
X0039492Y0056612D02*
Y0057120D01*
X0040508D01*
Y0056612D02*
Y0057120D01*
X0042794Y0049500D02*
Y0051024D01*
X0037206Y0049500D02*
X0042794D01*
X0037206D02*
Y0051024D01*
X0036698Y0056612D02*
X0043302D01*
X0036698Y0050516D02*
Y0056612D01*
Y0050516D02*
X0043302D01*
Y0056612D01*
X0121772Y0256032D02*
X0122788D01*
X0122280Y0255524D02*
Y0256540D01*
X0119994Y0255016D02*
X0124566D01*
X0119994Y0254762D02*
X0124566D01*
X0119994Y0254508D02*
X0124566D01*
X0119994Y0254254D02*
X0124566D01*
X0121010Y0261620D02*
Y0261874D01*
X0123550D01*
Y0261620D02*
Y0261874D01*
Y0253746D02*
Y0254000D01*
X0121010Y0253746D02*
X0123550D01*
X0121010D02*
Y0254000D01*
X0124566D02*
Y0261620D01*
X0119994D02*
X0124566D01*
X0119994Y0254000D02*
Y0261620D01*
Y0254000D02*
X0124566D01*
X0051280Y0266605D02*
Y0267367D01*
X0049756D02*
X0051280D01*
X0049756Y0266605D02*
Y0267367D01*
Y0266605D02*
X0051280D01*
X0071600Y0266605D02*
Y0267367D01*
X0070076D02*
X0071600D01*
X0070076Y0266605D02*
Y0267367D01*
Y0266605D02*
X0071600D01*
X0081132Y0256032D02*
X0082148D01*
X0081640Y0255524D02*
Y0256540D01*
X0079354Y0255016D02*
X0083926D01*
X0079354Y0254762D02*
X0083926D01*
X0079354Y0254508D02*
X0083926D01*
X0079354Y0254254D02*
X0083926D01*
X0080370Y0261620D02*
Y0261874D01*
X0082910D01*
Y0261620D02*
Y0261874D01*
Y0253746D02*
Y0254000D01*
X0080370Y0253746D02*
X0082910D01*
X0080370D02*
Y0254000D01*
X0083926D02*
Y0261620D01*
X0079354D02*
X0083926D01*
X0079354Y0254000D02*
Y0261620D01*
Y0254000D02*
X0083926D01*
X0077886Y0250119D02*
Y0250881D01*
X0076362D02*
X0077886D01*
X0076362Y0250119D02*
Y0250881D01*
Y0250119D02*
X0077886D01*
X0330929Y0253865D02*
X0332961D01*
Y0255135D01*
X0330929D02*
X0332961D01*
X0330929Y0253865D02*
Y0255135D01*
X0339906Y0252865D02*
X0341938D01*
Y0254135D01*
X0339906D02*
X0341938D01*
X0339906Y0252865D02*
Y0254135D01*
X0043532Y0248619D02*
Y0249381D01*
X0042008D02*
X0043532D01*
X0042008Y0248619D02*
Y0249381D01*
Y0248619D02*
X0043532D01*
X0061566Y0250119D02*
Y0250881D01*
X0060042D02*
X0061566D01*
X0060042Y0250119D02*
Y0250881D01*
Y0250119D02*
X0061566D01*
X0063852Y0248619D02*
Y0249381D01*
X0062328D02*
X0063852D01*
X0062328Y0248619D02*
Y0249381D01*
Y0248619D02*
X0063852D01*
X0158674Y0065119D02*
Y0065881D01*
Y0065119D02*
X0160198D01*
Y0065881D01*
X0158674D02*
X0160198D01*
X0156039Y0063722D02*
X0156801D01*
Y0065246D01*
X0156039D02*
X0156801D01*
X0156039Y0063722D02*
Y0065246D01*
X0178994Y0065119D02*
Y0065881D01*
Y0065119D02*
X0180518D01*
Y0065881D01*
X0178994D02*
X0180518D01*
X0176359Y0063722D02*
X0177121D01*
Y0065246D01*
X0176359D02*
X0177121D01*
X0176359Y0063722D02*
Y0065246D01*
X0041246Y0250119D02*
Y0250881D01*
X0039722D02*
X0041246D01*
X0039722Y0250119D02*
Y0250881D01*
Y0250119D02*
X0041246D01*
X0124946Y0248619D02*
Y0249381D01*
X0123422D02*
X0124946D01*
X0123422Y0248619D02*
Y0249381D01*
Y0248619D02*
X0124946D01*
X0142846Y0250119D02*
Y0250881D01*
X0141322D02*
X0142846D01*
X0141322Y0250119D02*
Y0250881D01*
Y0250119D02*
X0142846D01*
X0138354Y0065119D02*
Y0065881D01*
Y0065119D02*
X0139878D01*
Y0065881D01*
X0138354D02*
X0139878D01*
X0135719Y0063722D02*
X0136481D01*
Y0065246D01*
X0135719D02*
X0136481D01*
X0135719Y0063722D02*
Y0065246D01*
Y0060254D02*
X0136481D01*
Y0061778D01*
X0135719D02*
X0136481D01*
X0135719Y0060254D02*
Y0061778D01*
X0133592Y0051532D02*
X0134608D01*
X0134100Y0051024D02*
Y0052040D01*
X0131814Y0050516D02*
X0136386D01*
X0131814Y0050262D02*
X0136386D01*
X0131814Y0050008D02*
X0136386D01*
X0131814Y0049754D02*
X0136386D01*
X0132830Y0057120D02*
Y0057374D01*
X0135370D01*
Y0057120D02*
Y0057374D01*
Y0049246D02*
Y0049500D01*
X0132830Y0049246D02*
X0135370D01*
X0132830D02*
Y0049500D01*
X0136386D02*
Y0057120D01*
X0131814D02*
X0136386D01*
X0131814Y0049500D02*
Y0057120D01*
Y0049500D02*
X0136386D01*
X0156039Y0060254D02*
X0156801D01*
Y0061778D01*
X0156039D02*
X0156801D01*
X0156039Y0060254D02*
Y0061778D01*
X0153912Y0051532D02*
X0154928D01*
X0154420Y0051024D02*
Y0052040D01*
X0152134Y0050516D02*
X0156706D01*
X0152134Y0050262D02*
X0156706D01*
X0152134Y0050008D02*
X0156706D01*
X0152134Y0049754D02*
X0156706D01*
X0153150Y0057120D02*
Y0057374D01*
X0155690D01*
Y0057120D02*
Y0057374D01*
Y0049246D02*
Y0049500D01*
X0153150Y0049246D02*
X0155690D01*
X0153150D02*
Y0049500D01*
X0156706D02*
Y0057120D01*
X0152134D02*
X0156706D01*
X0152134Y0049500D02*
Y0057120D01*
Y0049500D02*
X0156706D01*
X0162428Y0063019D02*
Y0063781D01*
Y0063019D02*
X0163952D01*
Y0063781D01*
X0162428D02*
X0163952D01*
X0176359Y0060254D02*
X0177121D01*
Y0061778D01*
X0176359D02*
X0177121D01*
X0176359Y0060254D02*
Y0061778D01*
X0174232Y0051532D02*
X0175248D01*
X0174740Y0051024D02*
Y0052040D01*
X0172454Y0050516D02*
X0177026D01*
X0172454Y0050262D02*
X0177026D01*
X0172454Y0050008D02*
X0177026D01*
X0172454Y0049754D02*
X0177026D01*
X0173470Y0057120D02*
Y0057374D01*
X0176010D01*
Y0057120D02*
Y0057374D01*
Y0049246D02*
Y0049500D01*
X0173470Y0049246D02*
X0176010D01*
X0173470D02*
Y0049500D01*
X0177026D02*
Y0057120D01*
X0172454D02*
X0177026D01*
X0172454Y0049500D02*
Y0057120D01*
Y0049500D02*
X0177026D01*
X0182748Y0063119D02*
Y0063881D01*
Y0063119D02*
X0184272D01*
Y0063881D01*
X0182748D02*
X0184272D01*
X0030946Y0266619D02*
Y0267381D01*
X0029422D02*
X0030946D01*
X0029422Y0266619D02*
Y0267381D01*
Y0266619D02*
X0030946D01*
X0040492Y0256032D02*
X0041508D01*
X0041000Y0255524D02*
Y0256540D01*
X0038714Y0255016D02*
X0043286D01*
X0038714Y0254762D02*
X0043286D01*
X0038714Y0254508D02*
X0043286D01*
X0038714Y0254254D02*
X0043286D01*
X0039730Y0261620D02*
Y0261874D01*
X0042270D01*
Y0261620D02*
Y0261874D01*
Y0253746D02*
Y0254000D01*
X0039730Y0253746D02*
X0042270D01*
X0039730D02*
Y0254000D01*
X0043286D02*
Y0261620D01*
X0038714D02*
X0043286D01*
X0038714Y0254000D02*
Y0261620D01*
Y0254000D02*
X0043286D01*
X0091920Y0266605D02*
Y0267367D01*
X0090396D02*
X0091920D01*
X0090396Y0266605D02*
Y0267367D01*
Y0266605D02*
X0091920D01*
X0101452Y0256032D02*
X0102468D01*
X0101960Y0255524D02*
Y0256540D01*
X0099674Y0255016D02*
X0104246D01*
X0099674Y0254762D02*
X0104246D01*
X0099674Y0254508D02*
X0104246D01*
X0099674Y0254254D02*
X0104246D01*
X0100690Y0261620D02*
Y0261874D01*
X0103230D01*
Y0261620D02*
Y0261874D01*
Y0253746D02*
Y0254000D01*
X0100690Y0253746D02*
X0103230D01*
X0100690D02*
Y0254000D01*
X0104246D02*
Y0261620D01*
X0099674D02*
X0104246D01*
X0099674Y0254000D02*
Y0261620D01*
Y0254000D02*
X0104246D01*
X0098206Y0250119D02*
Y0250881D01*
X0096682D02*
X0098206D01*
X0096682Y0250119D02*
Y0250881D01*
Y0250119D02*
X0098206D01*
X0118526Y0250119D02*
Y0250881D01*
X0117002D02*
X0118526D01*
X0117002Y0250119D02*
Y0250881D01*
Y0250119D02*
X0118526D01*
X0132560Y0266605D02*
Y0267367D01*
X0131036D02*
X0132560D01*
X0131036Y0266605D02*
Y0267367D01*
Y0266605D02*
X0132560D01*
X0142092Y0256032D02*
X0143108D01*
X0142600Y0255524D02*
Y0256540D01*
X0140314Y0255016D02*
X0144886D01*
X0140314Y0254762D02*
X0144886D01*
X0140314Y0254508D02*
X0144886D01*
X0140314Y0254254D02*
X0144886D01*
X0141330Y0261620D02*
Y0261874D01*
X0143870D01*
Y0261620D02*
Y0261874D01*
Y0253746D02*
Y0254000D01*
X0141330Y0253746D02*
X0143870D01*
X0141330D02*
Y0254000D01*
X0144886D02*
Y0261620D01*
X0140314D02*
X0144886D01*
X0140314Y0254000D02*
Y0261620D01*
Y0254000D02*
X0144886D01*
X0138846Y0250119D02*
Y0250881D01*
X0137322D02*
X0138846D01*
X0137322Y0250119D02*
Y0250881D01*
Y0250119D02*
X0138846D01*
X0151356Y0266605D02*
X0152880D01*
X0151356D02*
Y0267367D01*
X0152880D01*
Y0266605D02*
Y0267367D01*
X0162412Y0256032D02*
X0163428D01*
X0162920Y0255524D02*
Y0256540D01*
X0160634Y0255016D02*
X0165206D01*
X0160634Y0254762D02*
X0165206D01*
X0160634Y0254508D02*
X0165206D01*
X0160634Y0254254D02*
X0165206D01*
X0161650Y0261620D02*
Y0261874D01*
X0164190D01*
Y0261620D02*
Y0261874D01*
Y0253746D02*
Y0254000D01*
X0161650Y0253746D02*
X0164190D01*
X0161650D02*
Y0254000D01*
X0165206D02*
Y0261620D01*
X0160634D02*
X0165206D01*
X0160634Y0254000D02*
Y0261620D01*
Y0254000D02*
X0165206D01*
X0159166Y0250119D02*
Y0250881D01*
X0157642D02*
X0159166D01*
X0157642Y0250119D02*
Y0250881D01*
Y0250119D02*
X0159166D01*
X0262254Y0138119D02*
Y0138881D01*
Y0138119D02*
X0263778D01*
Y0138881D01*
X0262254D02*
X0263778D01*
X0081886Y0250119D02*
Y0250881D01*
X0080362D02*
X0081886D01*
X0080362Y0250119D02*
Y0250881D01*
Y0250119D02*
X0081886D01*
X0084172Y0248619D02*
Y0249381D01*
X0082648D02*
X0084172D01*
X0082648Y0248619D02*
Y0249381D01*
Y0248619D02*
X0084172D01*
X0102206Y0250119D02*
Y0250881D01*
X0100682D02*
X0102206D01*
X0100682Y0250119D02*
Y0250881D01*
Y0250119D02*
X0102206D01*
X0104492Y0248619D02*
Y0249381D01*
X0102968D02*
X0104492D01*
X0102968Y0248619D02*
Y0249381D01*
Y0248619D02*
X0104492D01*
X0122526Y0250119D02*
Y0250881D01*
X0121002D02*
X0122526D01*
X0121002Y0250119D02*
Y0250881D01*
Y0250119D02*
X0122526D01*
X0037246Y0250119D02*
Y0250881D01*
X0035722D02*
X0037246D01*
X0035722Y0250119D02*
Y0250881D01*
Y0250119D02*
X0037246D01*
X0060812Y0256032D02*
X0061828D01*
X0061320Y0255524D02*
Y0256540D01*
X0059034Y0255016D02*
X0063606D01*
X0059034Y0254762D02*
X0063606D01*
X0059034Y0254508D02*
X0063606D01*
X0059034Y0254254D02*
X0063606D01*
X0060050Y0261620D02*
Y0261874D01*
X0062590D01*
Y0261620D02*
Y0261874D01*
Y0253746D02*
Y0254000D01*
X0060050Y0253746D02*
X0062590D01*
X0060050D02*
Y0254000D01*
X0063606D02*
Y0261620D01*
X0059034D02*
X0063606D01*
X0059034Y0254000D02*
Y0261620D01*
Y0254000D02*
X0063606D01*
X0057566Y0250119D02*
Y0250881D01*
X0056042D02*
X0057566D01*
X0056042Y0250119D02*
Y0250881D01*
Y0250119D02*
X0057566D01*
X0077442Y0255018D02*
Y0261114D01*
X0070838Y0255018D02*
X0077442D01*
X0070838D02*
Y0261114D01*
X0077442D01*
X0071346Y0254002D02*
Y0255526D01*
Y0254002D02*
X0076934D01*
Y0255526D01*
X0074648Y0261114D02*
Y0261622D01*
X0073632D02*
X0074648D01*
X0073632Y0261114D02*
Y0261622D01*
X0076934Y0261114D02*
Y0261622D01*
X0075918D02*
X0076934D01*
X0075918Y0261114D02*
Y0261622D01*
X0072362Y0261114D02*
Y0261622D01*
X0071346D02*
X0072362D01*
X0071346Y0261114D02*
Y0261622D01*
X0076934Y0256034D02*
Y0256542D01*
Y0257050D02*
Y0257558D01*
Y0258066D02*
Y0258574D01*
Y0259082D02*
Y0259590D01*
X0076426D02*
X0076934D01*
X0075410D02*
X0075918D01*
X0074394D02*
X0074902D01*
X0073378D02*
X0073886D01*
X0072362D02*
X0072870D01*
X0071346D02*
X0071854D01*
X0071346Y0259082D02*
Y0259590D01*
Y0258066D02*
Y0258574D01*
Y0257050D02*
Y0257558D01*
Y0256034D02*
Y0256542D01*
X0266754Y0131619D02*
X0268278D01*
X0266754D02*
Y0132381D01*
X0268278D01*
Y0131619D02*
Y0132381D01*
X0258754Y0122881D02*
X0260278D01*
Y0122119D02*
Y0122881D01*
X0258754Y0122119D02*
X0260278D01*
X0258754D02*
Y0122881D01*
X0253754Y0126381D02*
X0255278D01*
Y0125619D02*
Y0126381D01*
X0253754Y0125619D02*
X0255278D01*
X0253754D02*
Y0126381D01*
X0210619Y0158246D02*
X0211381D01*
X0210619Y0156722D02*
Y0158246D01*
Y0156722D02*
X0211381D01*
Y0158246D01*
X0336119Y0256546D02*
X0336881D01*
X0336119Y0255022D02*
Y0256546D01*
Y0255022D02*
X0336881D01*
Y0256546D01*
X0249746Y0156519D02*
Y0157281D01*
X0248222D02*
X0249746D01*
X0248222Y0156519D02*
Y0157281D01*
Y0156519D02*
X0249746D01*
X0328354Y0251419D02*
Y0252181D01*
Y0251419D02*
X0329878D01*
Y0252181D01*
X0328354D02*
X0329878D01*
X0328619Y0247254D02*
X0329381D01*
Y0248778D01*
X0328619D02*
X0329381D01*
X0328619Y0247254D02*
Y0248778D01*
X0240746Y0154619D02*
Y0155381D01*
X0239222D02*
X0240746D01*
X0239222Y0154619D02*
Y0155381D01*
Y0154619D02*
X0240746D01*
X0328619Y0255454D02*
X0329381D01*
Y0256978D01*
X0328619D02*
X0329381D01*
X0328619Y0255454D02*
Y0256978D01*
X0234119Y0167254D02*
X0234881D01*
Y0168778D01*
X0234119D02*
X0234881D01*
X0234119Y0167254D02*
Y0168778D01*
X0265119Y0157278D02*
X0265881D01*
X0265119Y0155754D02*
Y0157278D01*
Y0155754D02*
X0265881D01*
Y0157278D01*
X0241746Y0156619D02*
Y0157381D01*
X0240222D02*
X0241746D01*
X0240222Y0156619D02*
Y0157381D01*
Y0156619D02*
X0241746D01*
X0249246Y0147619D02*
Y0148381D01*
X0247722D02*
X0249246D01*
X0247722Y0147619D02*
Y0148381D01*
Y0147619D02*
X0249246D01*
X0250119Y0170746D02*
X0250881D01*
X0250119Y0169222D02*
Y0170746D01*
Y0169222D02*
X0250881D01*
Y0170746D01*
X0265119Y0150246D02*
X0265881D01*
X0265119Y0148722D02*
Y0150246D01*
Y0148722D02*
X0265881D01*
Y0150246D01*
X0265119Y0167254D02*
X0265881D01*
Y0168778D01*
X0265119D02*
X0265881D01*
X0265119Y0167254D02*
Y0168778D01*
X0234119Y0143246D02*
X0234881D01*
X0234119Y0141722D02*
Y0143246D01*
Y0141722D02*
X0234881D01*
Y0143246D01*
X0250254Y0139619D02*
Y0140381D01*
Y0139619D02*
X0251778D01*
Y0140381D01*
X0250254D02*
X0251778D01*
X0265119Y0142746D02*
X0265881D01*
X0265119Y0141222D02*
Y0142746D01*
Y0141222D02*
X0265881D01*
Y0142746D01*
X0250254Y0153381D02*
X0251778D01*
Y0152619D02*
Y0153381D01*
X0250254Y0152619D02*
X0251778D01*
X0250254D02*
X0250254Y0153381D01*
X0344246Y0255619D02*
Y0256381D01*
X0342722D02*
X0344246D01*
X0342722Y0255619D02*
Y0256381D01*
Y0255619D02*
X0344246D01*
M02*
