%FSAX43Y43*%
%MOMM*%
G71*
G01*
G75*
G04 Layer_Color=32896*
%ADD10C,0.150*%
%ADD11O,0.305X1.016*%
%ADD12O,0.813X0.305*%
%ADD13R,0.762X2.540*%
%ADD14R,5.000X6.000*%
%ADD15O,1.016X0.305*%
%ADD16O,0.305X0.813*%
%ADD17R,3.048X3.048*%
%ADD18R,2.540X0.762*%
%ADD19R,6.000X5.000*%
%ADD20R,3.048X3.048*%
%ADD21O,0.508X1.016*%
%ADD22O,1.524X0.508*%
%ADD23O,1.016X0.508*%
%ADD24O,0.508X1.524*%
%ADD25O,2.100X6.000*%
%ADD26O,2.100X6.000*%
%ADD27C,0.120*%
%ADD28C,0.175*%
%ADD29C,0.508*%
%ADD30C,0.500*%
%ADD31C,0.200*%
%ADD32C,1.524*%
%ADD33C,1.000*%
%ADD34C,0.254*%
%ADD35C,1.160*%
%ADD36C,1.016*%
%ADD37C,0.400*%
%ADD38C,0.300*%
%ADD39C,0.305*%
%ADD40C,1.850*%
%ADD41R,1.850X1.850*%
%ADD42R,1.850X1.850*%
%ADD43C,4.000*%
%ADD44C,1.422*%
%ADD45C,2.438*%
%ADD46C,1.524*%
%ADD47C,3.000*%
%ADD48C,2.500*%
%ADD49C,1.575*%
%ADD50R,1.575X1.575*%
%ADD51R,1.575X1.575*%
%ADD52C,0.500*%
%ADD53C,1.300*%
%ADD54C,1.000*%
%ADD55C,1.200*%
%ADD56C,1.270*%
%ADD57C,0.600*%
%ADD58C,0.900*%
%ADD59C,2.000*%
G04:AMPARAMS|DCode=60|XSize=1.85mm|YSize=1.85mm|CornerRadius=0mm|HoleSize=0mm|Usage=FLASHONLY|Rotation=0.000|XOffset=0mm|YOffset=0mm|HoleType=Round|Shape=Relief|Width=0.175mm|Gap=0.2mm|Entries=4|*
%AMTHD60*
7,0,0,1.850,1.450,0.175,45*
%
%ADD60THD60*%
%ADD61C,3.400*%
%ADD62C,1.213*%
G04:AMPARAMS|DCode=63|XSize=2.0708mm|YSize=2.0708mm|CornerRadius=0mm|HoleSize=0mm|Usage=FLASHONLY|Rotation=0.000|XOffset=0mm|YOffset=0mm|HoleType=Round|Shape=Relief|Width=0.175mm|Gap=0.2mm|Entries=4|*
%AMTHD63*
7,0,0,2.071,1.671,0.175,45*
%
%ADD63THD63*%
%ADD64C,1.721*%
G04:AMPARAMS|DCode=65|XSize=1.65mm|YSize=1.65mm|CornerRadius=0mm|HoleSize=0mm|Usage=FLASHONLY|Rotation=0.000|XOffset=0mm|YOffset=0mm|HoleType=Round|Shape=Relief|Width=0.175mm|Gap=0.2mm|Entries=4|*
%AMTHD65*
7,0,0,1.650,1.250,0.175,45*
%
%ADD65THD65*%
%ADD66C,2.700*%
%ADD67C,2.200*%
G04:AMPARAMS|DCode=68|XSize=2.55mm|YSize=2.55mm|CornerRadius=0mm|HoleSize=0mm|Usage=FLASHONLY|Rotation=0.000|XOffset=0mm|YOffset=0mm|HoleType=Round|Shape=Relief|Width=0.175mm|Gap=0.2mm|Entries=4|*
%AMTHD68*
7,0,0,2.550,2.150,0.175,45*
%
%ADD68THD68*%
%ADD69C,1.416*%
G04:AMPARAMS|DCode=70|XSize=1.766mm|YSize=1.766mm|CornerRadius=0mm|HoleSize=0mm|Usage=FLASHONLY|Rotation=0.000|XOffset=0mm|YOffset=0mm|HoleType=Round|Shape=Relief|Width=0.175mm|Gap=0.2mm|Entries=4|*
%AMTHD70*
7,0,0,1.766,1.366,0.175,45*
%
%ADD70THD70*%
G04:AMPARAMS|DCode=71|XSize=1.5628mm|YSize=1.5628mm|CornerRadius=0mm|HoleSize=0mm|Usage=FLASHONLY|Rotation=0.000|XOffset=0mm|YOffset=0mm|HoleType=Round|Shape=Relief|Width=0.175mm|Gap=0.2mm|Entries=4|*
%AMTHD71*
7,0,0,1.563,1.163,0.175,45*
%
%ADD71THD71*%
%ADD72C,0.650*%
G04:AMPARAMS|DCode=73|XSize=1mm|YSize=1mm|CornerRadius=0mm|HoleSize=0mm|Usage=FLASHONLY|Rotation=0.000|XOffset=0mm|YOffset=0mm|HoleType=Round|Shape=Relief|Width=0.175mm|Gap=0.2mm|Entries=4|*
%AMTHD73*
7,0,0,1.000,0.600,0.175,45*
%
%ADD73THD73*%
G04:AMPARAMS|DCode=74|XSize=1.05mm|YSize=1.05mm|CornerRadius=0mm|HoleSize=0mm|Usage=FLASHONLY|Rotation=0.000|XOffset=0mm|YOffset=0mm|HoleType=Round|Shape=Relief|Width=0.175mm|Gap=0.2mm|Entries=4|*
%AMTHD74*
7,0,0,1.050,0.650,0.175,45*
%
%ADD74THD74*%
%ADD75C,0.700*%
%ADD76C,1.100*%
%ADD77C,1.111*%
G04:AMPARAMS|DCode=78|XSize=1.4612mm|YSize=1.4612mm|CornerRadius=0mm|HoleSize=0mm|Usage=FLASHONLY|Rotation=0.000|XOffset=0mm|YOffset=0mm|HoleType=Round|Shape=Relief|Width=0.175mm|Gap=0.2mm|Entries=4|*
%AMTHD78*
7,0,0,1.461,1.061,0.175,45*
%
%ADD78THD78*%
G04:AMPARAMS|DCode=79|XSize=1.45mm|YSize=1.45mm|CornerRadius=0mm|HoleSize=0mm|Usage=FLASHONLY|Rotation=0.000|XOffset=0mm|YOffset=0mm|HoleType=Round|Shape=Relief|Width=0.175mm|Gap=0.2mm|Entries=4|*
%AMTHD79*
7,0,0,1.450,1.050,0.175,45*
%
%ADD79THD79*%
%ADD80C,0.900*%
%ADD81C,0.800*%
%ADD82C,1.670*%
%ADD83C,1.000*%
%ADD84O,1.270X0.762*%
%ADD85R,1.270X0.762*%
%ADD86O,0.508X1.778*%
%ADD87R,0.508X1.778*%
%ADD88R,1.270X2.108*%
G04:AMPARAMS|DCode=89|XSize=2.108mm|YSize=1.27mm|CornerRadius=0mm|HoleSize=0mm|Usage=FLASHONLY|Rotation=270.000|XOffset=0mm|YOffset=0mm|HoleType=Round|Shape=Octagon|*
%AMOCTAGOND89*
4,1,8,-0.318,-1.054,0.318,-1.054,0.635,-0.737,0.635,0.737,0.318,1.054,-0.318,1.054,-0.635,0.737,-0.635,-0.737,-0.318,-1.054,0.0*
%
%ADD89OCTAGOND89*%

%ADD90O,0.600X2.200*%
%ADD91R,0.250X1.600*%
%ADD92O,0.250X1.600*%
%ADD93O,1.600X0.250*%
%ADD94R,4.600X0.610*%
%ADD95R,4.600X0.810*%
%ADD96R,1.650X0.300*%
%ADD97O,1.778X0.381*%
%ADD98R,1.778X0.381*%
%ADD99C,0.250*%
%ADD100C,0.203*%
%ADD101O,0.508X1.219*%
%ADD102R,0.965X2.743*%
%ADD103R,5.203X6.203*%
%ADD104O,1.219X0.508*%
%ADD105R,3.251X3.251*%
%ADD106R,2.743X0.965*%
%ADD107R,6.203X5.203*%
%ADD108R,3.251X3.251*%
%ADD109O,0.711X1.219*%
%ADD110O,1.727X0.711*%
%ADD111O,1.219X0.711*%
%ADD112O,0.711X1.727*%
%ADD113O,2.303X6.203*%
%ADD114O,2.303X6.203*%
%ADD115C,2.053*%
%ADD116R,2.053X2.053*%
%ADD117R,2.053X2.053*%
%ADD118C,0.203*%
%ADD119C,4.203*%
%ADD120C,1.626*%
%ADD121C,2.642*%
%ADD122C,1.727*%
%ADD123C,3.203*%
%ADD124C,2.703*%
%ADD125C,1.778*%
%ADD126R,1.778X1.778*%
%ADD127R,1.778X1.778*%
%ADD128C,0.703*%
%ADD129C,1.503*%
%ADD130C,1.203*%
%ADD131C,1.403*%
%ADD132C,1.473*%
%ADD133C,0.803*%
%ADD134C,2.203*%
%ADD135C,2.500*%
%ADD136O,1.473X0.965*%
%ADD137R,1.473X0.965*%
%ADD138O,0.711X1.981*%
%ADD139R,0.711X1.981*%
%ADD140R,1.473X2.311*%
G04:AMPARAMS|DCode=141|XSize=2.311mm|YSize=1.473mm|CornerRadius=0mm|HoleSize=0mm|Usage=FLASHONLY|Rotation=270.000|XOffset=0mm|YOffset=0mm|HoleType=Round|Shape=Octagon|*
%AMOCTAGOND141*
4,1,8,-0.368,-1.156,0.368,-1.156,0.737,-0.787,0.737,0.787,0.368,1.156,-0.368,1.156,-0.737,0.787,-0.737,-0.787,-0.368,-1.156,0.0*
%
%ADD141OCTAGOND141*%

%ADD142O,0.803X2.403*%
%ADD143R,0.453X1.803*%
%ADD144O,0.453X1.803*%
%ADD145O,1.803X0.453*%
%ADD146R,4.803X0.813*%
%ADD147R,4.803X1.013*%
%ADD148R,1.853X0.503*%
%ADD149O,1.981X0.584*%
%ADD150R,1.981X0.584*%
%ADD151C,1.103*%
%ADD152C,0.127*%
G36*
X0264500Y0168500D02*
X0263500Y0169500D01*
X0264500D01*
Y0168500D01*
D02*
G37*
G54D31*
X0325760Y0191200D02*
G03*
X0324490Y0191200I-0000635J0000000D01*
G01*
X0325760Y0162200D02*
G03*
X0324490Y0162200I-0000635J0000000D01*
G01*
X0325760Y0133200D02*
G03*
X0324490Y0133200I-0000635J0000000D01*
G01*
X0325760Y0104200D02*
G03*
X0324490Y0104200I-0000635J0000000D01*
G01*
X0263500Y0169500D02*
X0264500Y0168500D01*
Y0140500D02*
Y0169500D01*
X0235500Y0140500D02*
Y0169500D01*
X0264500D01*
X0235500Y0140500D02*
X0264500D01*
X0250405Y0208200D02*
Y0210000D01*
X0245405Y0208200D02*
Y0210000D01*
Y0208200D02*
X0250405D01*
X0245405Y0210000D02*
X0250405D01*
X0323650Y0245700D02*
Y0247350D01*
Y0245700D02*
X0325300D01*
X0334200D02*
X0335850D01*
Y0247350D01*
Y0256250D02*
Y0257900D01*
X0334200D02*
X0335850D01*
X0324450D02*
X0325300D01*
X0323650Y0257100D02*
X0324450Y0257900D01*
X0323650Y0256250D02*
Y0257100D01*
X0322725Y0191200D02*
X0324490D01*
X0325760D02*
X0327525D01*
X0322725Y0208300D02*
X0327525D01*
X0322725Y0191200D02*
Y0208300D01*
X0327525Y0191200D02*
Y0208300D01*
X0322725Y0162200D02*
X0324490D01*
X0325760D02*
X0327525D01*
X0322725Y0179300D02*
X0327525D01*
X0322725Y0162200D02*
Y0179300D01*
X0327525Y0162200D02*
Y0179300D01*
X0322725Y0133200D02*
X0324490D01*
X0325760D02*
X0327525D01*
X0322725Y0150300D02*
X0327525D01*
X0322725Y0133200D02*
Y0150300D01*
X0327525Y0133200D02*
Y0150300D01*
X0322725Y0104200D02*
X0324490D01*
X0325760D02*
X0327525D01*
X0322725Y0121300D02*
X0327525D01*
X0322725Y0104200D02*
Y0121300D01*
X0327525Y0104200D02*
Y0121300D01*
X0234500Y0209400D02*
Y0210600D01*
X0233900D01*
X0233700Y0210400D01*
Y0210000D01*
X0233900Y0209800D01*
X0234500D01*
X0234100D02*
X0233700Y0209400D01*
X0232701D02*
Y0210600D01*
X0233300Y0210000D01*
X0232501D01*
X0232101Y0210400D02*
X0231901Y0210600D01*
X0231501D01*
X0231301Y0210400D01*
Y0210200D01*
X0231501Y0210000D01*
X0231701D01*
X0231501D01*
X0231301Y0209800D01*
Y0209600D01*
X0231501Y0209400D01*
X0231901D01*
X0232101Y0209600D01*
X0285000Y0202700D02*
Y0201700D01*
X0284800Y0201500D01*
X0284400D01*
X0284200Y0201700D01*
Y0202700D01*
X0283800D02*
Y0201500D01*
X0283001D01*
X0282601D02*
X0282201D01*
X0282401D01*
Y0202700D01*
X0282601Y0202500D01*
X0293500Y0213500D02*
Y0214700D01*
X0292900D01*
X0292700Y0214500D01*
Y0214100D01*
X0292900Y0213900D01*
X0293500D01*
X0293100D02*
X0292700Y0213500D01*
X0292300Y0214700D02*
Y0213500D01*
X0291501D01*
X0290501D02*
Y0214700D01*
X0291101Y0214100D01*
X0290301D01*
X0293500Y0215500D02*
Y0216700D01*
X0292900D01*
X0292700Y0216500D01*
Y0216100D01*
X0292900Y0215900D01*
X0293500D01*
X0293100D02*
X0292700Y0215500D01*
X0292300Y0216700D02*
Y0215500D01*
X0291501D01*
X0291101Y0216500D02*
X0290901Y0216700D01*
X0290501D01*
X0290301Y0216500D01*
Y0216300D01*
X0290501Y0216100D01*
X0290701D01*
X0290501D01*
X0290301Y0215900D01*
Y0215700D01*
X0290501Y0215500D01*
X0290901D01*
X0291101Y0215700D01*
X0293500Y0217500D02*
Y0218700D01*
X0292900D01*
X0292700Y0218500D01*
Y0218100D01*
X0292900Y0217900D01*
X0293500D01*
X0293100D02*
X0292700Y0217500D01*
X0292300Y0218700D02*
Y0217500D01*
X0291501D01*
X0290301D02*
X0291101D01*
X0290301Y0218300D01*
Y0218500D01*
X0290501Y0218700D01*
X0290901D01*
X0291101Y0218500D01*
X0293500Y0219500D02*
Y0220700D01*
X0292900D01*
X0292700Y0220500D01*
Y0220100D01*
X0292900Y0219900D01*
X0293500D01*
X0293100D02*
X0292700Y0219500D01*
X0292300Y0220700D02*
Y0219500D01*
X0291501D01*
X0291101D02*
X0290701D01*
X0290901D01*
Y0220700D01*
X0291101Y0220500D01*
X0279100Y0209500D02*
X0279300Y0209700D01*
X0279700D01*
X0279900Y0209500D01*
Y0208700D01*
X0279700Y0208500D01*
X0279300D01*
X0279100Y0208700D01*
X0278700Y0209700D02*
Y0208500D01*
X0277901D01*
X0277501D02*
X0277101D01*
X0277301D01*
Y0209700D01*
X0277501Y0209500D01*
X0386900Y0186600D02*
X0387700D01*
Y0186000D01*
X0387300D01*
X0387700D01*
Y0185400D01*
X0385701Y0186400D02*
X0385901Y0186600D01*
X0386300D01*
X0386500Y0186400D01*
Y0185600D01*
X0386300Y0185400D01*
X0385901D01*
X0385701Y0185600D01*
X0385301Y0186600D02*
X0384501D01*
X0384901D01*
Y0185400D01*
X0384101Y0185200D02*
X0383301D01*
X0382102Y0186200D02*
X0382702D01*
X0382902Y0186000D01*
Y0185600D01*
X0382702Y0185400D01*
X0382102D01*
X0381502D02*
X0381102D01*
X0380902Y0185600D01*
Y0186000D01*
X0381102Y0186200D01*
X0381502D01*
X0381702Y0186000D01*
Y0185600D01*
X0381502Y0185400D01*
X0380502D02*
Y0186200D01*
X0379902D01*
X0379703Y0186000D01*
Y0185400D01*
X0379303D02*
X0378903D01*
X0379103D01*
Y0186600D01*
X0379303Y0186400D01*
X0254800Y0209700D02*
Y0208700D01*
X0254600Y0208500D01*
X0254200D01*
X0254000Y0208700D01*
Y0209700D01*
X0252801Y0209500D02*
X0253001Y0209700D01*
X0253400D01*
X0253600Y0209500D01*
Y0208700D01*
X0253400Y0208500D01*
X0253001D01*
X0252801Y0208700D01*
Y0209100D01*
X0253201D01*
X0251601Y0208500D02*
X0252401D01*
X0251601Y0209300D01*
Y0209500D01*
X0251801Y0209700D01*
X0252201D01*
X0252401Y0209500D01*
X0275580Y0214628D02*
Y0213628D01*
X0275380Y0213428D01*
X0274980D01*
X0274780Y0213628D01*
Y0214628D01*
X0273581Y0214428D02*
X0273781Y0214628D01*
X0274180D01*
X0274380Y0214428D01*
Y0213628D01*
X0274180Y0213428D01*
X0273781D01*
X0273581Y0213628D01*
Y0214028D01*
X0273981D01*
X0273181Y0213428D02*
X0272781D01*
X0272981D01*
Y0214628D01*
X0273181Y0214428D01*
X0270496Y0128896D02*
Y0129296D01*
Y0129096D01*
X0271496D01*
X0271696Y0129296D01*
Y0129496D01*
X0271496Y0129696D01*
X0270496Y0128496D02*
Y0127696D01*
Y0128096D01*
X0271696D01*
Y0127296D02*
X0270896D01*
X0270496Y0126897D01*
X0270896Y0126497D01*
X0271696D01*
X0271096D01*
Y0127296D01*
X0270696Y0125297D02*
X0270496Y0125497D01*
Y0125897D01*
X0270696Y0126097D01*
X0271496D01*
X0271696Y0125897D01*
Y0125497D01*
X0271496Y0125297D01*
X0271096D01*
Y0125697D01*
X0272300Y0128200D02*
X0273300D01*
X0273500Y0128000D01*
Y0127600D01*
X0273300Y0127400D01*
X0272300D01*
X0273500Y0126401D02*
X0272300D01*
X0272900Y0127000D01*
Y0126201D01*
X0271232Y0216500D02*
X0271432Y0216700D01*
X0271832D01*
X0272032Y0216500D01*
Y0215700D01*
X0271832Y0215500D01*
X0271432D01*
X0271232Y0215700D01*
X0270433Y0215100D02*
X0270233D01*
X0270033Y0215300D01*
Y0216300D01*
X0270632D01*
X0270832Y0216100D01*
Y0215700D01*
X0270632Y0215500D01*
X0270033D01*
X0269033D02*
X0269433D01*
X0269633Y0215700D01*
Y0216100D01*
X0269433Y0216300D01*
X0269033D01*
X0268833Y0216100D01*
Y0215900D01*
X0269633D01*
X0268433Y0215500D02*
Y0216300D01*
X0267833D01*
X0267633Y0216100D01*
Y0215500D01*
X0267234D02*
X0266834D01*
X0267034D01*
Y0216700D01*
X0267234Y0216500D01*
X0296500Y0069700D02*
Y0068700D01*
X0296300Y0068500D01*
X0295900D01*
X0295700Y0068700D01*
Y0069700D01*
X0295300Y0068500D02*
X0294701D01*
X0294501Y0068700D01*
X0294701Y0068900D01*
X0295100D01*
X0295300Y0069100D01*
X0295100Y0069300D01*
X0294501D01*
X0294101D02*
Y0068700D01*
X0293901Y0068500D01*
X0293301D01*
Y0069300D01*
X0292901Y0068100D02*
Y0069300D01*
X0292301D01*
X0292101Y0069100D01*
Y0068700D01*
X0292301Y0068500D01*
X0292901D01*
X0291702Y0069700D02*
X0291302D01*
X0291502D01*
Y0068500D01*
X0291702D01*
X0291302D01*
X0290702D02*
Y0069300D01*
X0290102D01*
X0289902Y0069100D01*
Y0068500D01*
X0289502D02*
X0289102D01*
X0289302D01*
Y0069700D01*
X0289502Y0069500D01*
X0280500Y0215000D02*
Y0216200D01*
X0279900D01*
X0279700Y0216000D01*
Y0215600D01*
X0279900Y0215400D01*
X0280500D01*
X0280100D02*
X0279700Y0215000D01*
X0279300Y0216200D02*
Y0215000D01*
X0278501D01*
X0277301Y0216200D02*
X0278101D01*
Y0215600D01*
X0277701Y0215800D01*
X0277501D01*
X0277301Y0215600D01*
Y0215200D01*
X0277501Y0215000D01*
X0277901D01*
X0278101Y0215200D01*
X0265303Y0172519D02*
Y0171519D01*
X0265104Y0171320D01*
X0264704D01*
X0264504Y0171519D01*
Y0172519D01*
X0264104Y0171320D02*
X0263704D01*
X0263904D01*
Y0172519D01*
X0264104Y0172319D01*
X0242500Y0201000D02*
Y0201800D01*
X0242100Y0202200D01*
X0241700Y0201800D01*
Y0201000D01*
Y0201600D01*
X0242500D01*
X0240501Y0201800D02*
X0241100D01*
X0241300Y0201600D01*
Y0201200D01*
X0241100Y0201000D01*
X0240501D01*
X0239901Y0202000D02*
Y0201800D01*
X0240101D01*
X0239701D01*
X0239901D01*
Y0201200D01*
X0239701Y0201000D01*
X0239101D02*
X0238701D01*
X0238901D01*
Y0201800D01*
X0239101D01*
X0238101D02*
X0237702Y0201000D01*
X0237302Y0201800D01*
X0236302Y0201000D02*
X0236702D01*
X0236902Y0201200D01*
Y0201600D01*
X0236702Y0201800D01*
X0236302D01*
X0236102Y0201600D01*
Y0201400D01*
X0236902D01*
X0234902Y0202000D02*
X0235102Y0202200D01*
X0235502D01*
X0235702Y0202000D01*
Y0201800D01*
X0235502Y0201600D01*
X0235102D01*
X0234902Y0201400D01*
Y0201200D01*
X0235102Y0201000D01*
X0235502D01*
X0235702Y0201200D01*
X0233903Y0201000D02*
X0234303D01*
X0234503Y0201200D01*
Y0201600D01*
X0234303Y0201800D01*
X0233903D01*
X0233703Y0201600D01*
Y0201400D01*
X0234503D01*
X0233303Y0201800D02*
Y0201000D01*
Y0201400D01*
X0233103Y0201600D01*
X0232903Y0201800D01*
X0232703D01*
X0239000Y0218200D02*
Y0217200D01*
X0238800Y0217000D01*
X0238400D01*
X0238200Y0217200D01*
Y0218200D01*
X0237001Y0217000D02*
X0237800D01*
X0237001Y0217800D01*
Y0218000D01*
X0237201Y0218200D01*
X0237600D01*
X0237800Y0218000D01*
X0252700Y0212200D02*
Y0211200D01*
X0252500Y0211000D01*
X0252100D01*
X0251900Y0211200D01*
Y0212200D01*
X0251500Y0212000D02*
X0251300Y0212200D01*
X0250901D01*
X0250701Y0212000D01*
Y0211800D01*
X0250901Y0211600D01*
X0251101D01*
X0250901D01*
X0250701Y0211400D01*
Y0211200D01*
X0250901Y0211000D01*
X0251300D01*
X0251500Y0211200D01*
X0329500Y0260700D02*
Y0259700D01*
X0329300Y0259500D01*
X0328900D01*
X0328700Y0259700D01*
Y0260700D01*
X0327501D02*
X0328300D01*
Y0260100D01*
X0327901Y0260300D01*
X0327701D01*
X0327501Y0260100D01*
Y0259700D01*
X0327701Y0259500D01*
X0328100D01*
X0328300Y0259700D01*
X0369200Y0262200D02*
X0369600D01*
X0369400D01*
Y0261200D01*
X0369600Y0261000D01*
X0369800D01*
X0370000Y0261200D01*
X0368001Y0262200D02*
X0368800D01*
Y0261000D01*
X0368001D01*
X0368800Y0261600D02*
X0368401D01*
X0367401Y0262000D02*
Y0261800D01*
X0367601D01*
X0367201D01*
X0367401D01*
Y0261200D01*
X0367201Y0261000D01*
X0366601Y0262200D02*
Y0261000D01*
Y0261600D01*
X0366401Y0261800D01*
X0366001D01*
X0365801Y0261600D01*
Y0261000D01*
X0365401D02*
X0365002D01*
X0365202D01*
Y0262200D01*
X0365401Y0262000D01*
X0385432Y0236954D02*
X0384633D01*
X0384233Y0237354D01*
X0384633Y0237754D01*
X0385432D01*
Y0238154D02*
X0384233D01*
Y0238753D01*
X0384433Y0238953D01*
X0385233D01*
X0385432Y0238753D01*
Y0238154D01*
Y0239353D02*
X0384233D01*
Y0240153D01*
X0385432Y0241352D02*
Y0240553D01*
X0384233D01*
Y0241352D01*
X0384833Y0240553D02*
Y0240953D01*
X0385432Y0241752D02*
X0384233D01*
Y0242352D01*
X0384433Y0242552D01*
X0385233D01*
X0385432Y0242352D01*
Y0241752D01*
X0384233Y0243552D02*
X0385432D01*
X0384833Y0242952D01*
Y0243752D01*
X0326025Y0190100D02*
Y0189100D01*
X0325825Y0188900D01*
X0325425D01*
X0325225Y0189100D01*
Y0190100D01*
X0324026D02*
X0324426Y0189900D01*
X0324825Y0189500D01*
Y0189100D01*
X0324625Y0188900D01*
X0324226D01*
X0324026Y0189100D01*
Y0189300D01*
X0324226Y0189500D01*
X0324825D01*
X0326250Y0161700D02*
Y0160700D01*
X0326050Y0160500D01*
X0325650D01*
X0325450Y0160700D01*
Y0161700D01*
X0325050D02*
X0324251D01*
Y0161500D01*
X0325050Y0160700D01*
Y0160500D01*
X0326250Y0132700D02*
Y0131700D01*
X0326050Y0131500D01*
X0325650D01*
X0325450Y0131700D01*
Y0132700D01*
X0325050Y0132500D02*
X0324850Y0132700D01*
X0324451D01*
X0324251Y0132500D01*
Y0132300D01*
X0324451Y0132100D01*
X0324251Y0131900D01*
Y0131700D01*
X0324451Y0131500D01*
X0324850D01*
X0325050Y0131700D01*
Y0131900D01*
X0324850Y0132100D01*
X0325050Y0132300D01*
Y0132500D01*
X0324850Y0132100D02*
X0324451D01*
X0326250Y0103700D02*
Y0102700D01*
X0326050Y0102500D01*
X0325650D01*
X0325450Y0102700D01*
Y0103700D01*
X0325050Y0102700D02*
X0324850Y0102500D01*
X0324451D01*
X0324251Y0102700D01*
Y0103500D01*
X0324451Y0103700D01*
X0324850D01*
X0325050Y0103500D01*
Y0103300D01*
X0324850Y0103100D01*
X0324251D01*
X0213500Y0151200D02*
Y0150200D01*
X0213300Y0150000D01*
X0212900D01*
X0212700Y0150200D01*
Y0151200D01*
X0211501Y0150800D02*
X0212100D01*
X0212300Y0150600D01*
Y0150200D01*
X0212100Y0150000D01*
X0211501D01*
X0211101D02*
X0210701D01*
X0210901D01*
Y0151200D01*
X0211101D01*
X0210101Y0150000D02*
Y0151200D01*
Y0150400D02*
X0209501Y0150800D01*
X0210101Y0150400D02*
X0209501Y0150000D01*
X0243400Y0204400D02*
X0243600Y0204600D01*
X0244000D01*
X0244200Y0204400D01*
Y0203600D01*
X0244000Y0203400D01*
X0243600D01*
X0243400Y0203600D01*
X0243000Y0204600D02*
X0242201D01*
Y0204400D01*
X0243000Y0203600D01*
Y0203400D01*
X0241801Y0204400D02*
X0241601Y0204600D01*
X0241201D01*
X0241001Y0204400D01*
Y0204200D01*
X0241201Y0204000D01*
X0241001Y0203800D01*
Y0203600D01*
X0241201Y0203400D01*
X0241601D01*
X0241801Y0203600D01*
Y0203800D01*
X0241601Y0204000D01*
X0241801Y0204200D01*
Y0204400D01*
X0241601Y0204000D02*
X0241201D01*
X0347000Y0263200D02*
X0346800Y0263400D01*
Y0263800D01*
X0347000Y0264000D01*
X0347800D01*
X0348000Y0263800D01*
Y0263400D01*
X0347800Y0263200D01*
X0347000Y0262800D02*
X0346800Y0262600D01*
Y0262201D01*
X0347000Y0262001D01*
X0347200D01*
X0347400Y0262201D01*
X0347600Y0262001D01*
X0347800D01*
X0348000Y0262201D01*
Y0262600D01*
X0347800Y0262800D01*
X0347600D01*
X0347400Y0262600D01*
X0347200Y0262800D01*
X0347000D01*
X0347400Y0262600D02*
Y0262201D01*
X0348000Y0261601D02*
Y0261201D01*
Y0261401D01*
X0346800D01*
X0347000Y0261601D01*
X0343500Y0263200D02*
X0343300Y0263400D01*
Y0263800D01*
X0343500Y0264000D01*
X0344300D01*
X0344500Y0263800D01*
Y0263400D01*
X0344300Y0263200D01*
X0343500Y0262800D02*
X0343300Y0262600D01*
Y0262201D01*
X0343500Y0262001D01*
X0343700D01*
X0343900Y0262201D01*
X0344100Y0262001D01*
X0344300D01*
X0344500Y0262201D01*
Y0262600D01*
X0344300Y0262800D01*
X0344100D01*
X0343900Y0262600D01*
X0343700Y0262800D01*
X0343500D01*
X0343900Y0262600D02*
Y0262201D01*
X0343500Y0261601D02*
X0343300Y0261401D01*
Y0261001D01*
X0343500Y0260801D01*
X0343700D01*
X0343900Y0261001D01*
Y0261201D01*
Y0261001D01*
X0344100Y0260801D01*
X0344300D01*
X0344500Y0261001D01*
Y0261401D01*
X0344300Y0261601D01*
X0343000Y0250700D02*
X0342800Y0250900D01*
Y0251300D01*
X0343000Y0251500D01*
X0343800D01*
X0344000Y0251300D01*
Y0250900D01*
X0343800Y0250700D01*
X0343000Y0250300D02*
X0342800Y0250100D01*
Y0249701D01*
X0343000Y0249501D01*
X0343200D01*
X0343400Y0249701D01*
X0343600Y0249501D01*
X0343800D01*
X0344000Y0249701D01*
Y0250100D01*
X0343800Y0250300D01*
X0343600D01*
X0343400Y0250100D01*
X0343200Y0250300D01*
X0343000D01*
X0343400Y0250100D02*
Y0249701D01*
X0344000Y0248501D02*
X0342800D01*
X0343400Y0249101D01*
Y0248301D01*
X0323000Y0260500D02*
Y0261700D01*
X0322400D01*
X0322200Y0261500D01*
Y0261100D01*
X0322400Y0260900D01*
X0323000D01*
X0322600D02*
X0322200Y0260500D01*
X0321201D02*
Y0261700D01*
X0321800Y0261100D01*
X0321001D01*
X0320001Y0260500D02*
Y0261700D01*
X0320601Y0261100D01*
X0319801D01*
X0346200Y0268000D02*
X0345000D01*
Y0267400D01*
X0345200Y0267200D01*
X0345600D01*
X0345800Y0267400D01*
Y0268000D01*
Y0267600D02*
X0346200Y0267200D01*
Y0266201D02*
X0345000D01*
X0345600Y0266800D01*
Y0266001D01*
X0345000Y0264801D02*
Y0265601D01*
X0345600D01*
X0345400Y0265201D01*
Y0265001D01*
X0345600Y0264801D01*
X0346000D01*
X0346200Y0265001D01*
Y0265401D01*
X0346000Y0265601D01*
X0346200Y0264000D02*
X0345000D01*
Y0263400D01*
X0345200Y0263200D01*
X0345600D01*
X0345800Y0263400D01*
Y0264000D01*
Y0263600D02*
X0346200Y0263200D01*
Y0262201D02*
X0345000D01*
X0345600Y0262800D01*
Y0262001D01*
X0345000Y0260801D02*
X0345200Y0261201D01*
X0345600Y0261601D01*
X0346000D01*
X0346200Y0261401D01*
Y0261001D01*
X0346000Y0260801D01*
X0345800D01*
X0345600Y0261001D01*
Y0261601D01*
X0336000Y0260500D02*
Y0261700D01*
X0335400D01*
X0335200Y0261500D01*
Y0261100D01*
X0335400Y0260900D01*
X0336000D01*
X0335600D02*
X0335200Y0260500D01*
X0334201D02*
Y0261700D01*
X0334800Y0261100D01*
X0334001D01*
X0333601Y0261700D02*
X0332801D01*
Y0261500D01*
X0333601Y0260700D01*
Y0260500D01*
X0372000Y0236500D02*
X0370800D01*
Y0235900D01*
X0371000Y0235700D01*
X0371400D01*
X0371600Y0235900D01*
Y0236500D01*
Y0236100D02*
X0372000Y0235700D01*
Y0234701D02*
X0370800D01*
X0371400Y0235300D01*
Y0234501D01*
X0371000Y0234101D02*
X0370800Y0233901D01*
Y0233501D01*
X0371000Y0233301D01*
X0371200D01*
X0371400Y0233501D01*
X0371600Y0233301D01*
X0371800D01*
X0372000Y0233501D01*
Y0233901D01*
X0371800Y0234101D01*
X0371600D01*
X0371400Y0233901D01*
X0371200Y0234101D01*
X0371000D01*
X0371400Y0233901D02*
Y0233501D01*
X0347000Y0243300D02*
Y0244500D01*
X0346400D01*
X0346200Y0244300D01*
Y0243900D01*
X0346400Y0243700D01*
X0347000D01*
X0346600D02*
X0346200Y0243300D01*
X0345201D02*
Y0244500D01*
X0345800Y0243900D01*
X0345001D01*
X0344601Y0243500D02*
X0344401Y0243300D01*
X0344001D01*
X0343801Y0243500D01*
Y0244300D01*
X0344001Y0244500D01*
X0344401D01*
X0344601Y0244300D01*
Y0244100D01*
X0344401Y0243900D01*
X0343801D01*
X0351500Y0261500D02*
Y0262700D01*
X0350900D01*
X0350700Y0262500D01*
Y0262100D01*
X0350900Y0261900D01*
X0351500D01*
X0351100D02*
X0350700Y0261500D01*
X0349501Y0262700D02*
X0350300D01*
Y0262100D01*
X0349901Y0262300D01*
X0349701D01*
X0349501Y0262100D01*
Y0261700D01*
X0349701Y0261500D01*
X0350100D01*
X0350300Y0261700D01*
X0349101Y0261500D02*
X0348701D01*
X0348901D01*
Y0262700D01*
X0349101Y0262500D01*
X0374000Y0236500D02*
X0372800D01*
Y0235900D01*
X0373000Y0235700D01*
X0373400D01*
X0373600Y0235900D01*
Y0236500D01*
Y0236100D02*
X0374000Y0235700D01*
X0372800Y0234501D02*
Y0235300D01*
X0373400D01*
X0373200Y0234901D01*
Y0234701D01*
X0373400Y0234501D01*
X0373800D01*
X0374000Y0234701D01*
Y0235100D01*
X0373800Y0235300D01*
X0374000Y0233301D02*
Y0234101D01*
X0373200Y0233301D01*
X0373000D01*
X0372800Y0233501D01*
Y0233901D01*
X0373000Y0234101D01*
X0351000Y0240800D02*
Y0242000D01*
X0350400D01*
X0350200Y0241800D01*
Y0241400D01*
X0350400Y0241200D01*
X0351000D01*
X0350600D02*
X0350200Y0240800D01*
X0349001Y0242000D02*
X0349800D01*
Y0241400D01*
X0349401Y0241600D01*
X0349201D01*
X0349001Y0241400D01*
Y0241000D01*
X0349201Y0240800D01*
X0349600D01*
X0349800Y0241000D01*
X0348601Y0241800D02*
X0348401Y0242000D01*
X0348001D01*
X0347801Y0241800D01*
Y0241600D01*
X0348001Y0241400D01*
X0348201D01*
X0348001D01*
X0347801Y0241200D01*
Y0241000D01*
X0348001Y0240800D01*
X0348401D01*
X0348601Y0241000D01*
X0348000Y0259000D02*
Y0260200D01*
X0347400D01*
X0347200Y0260000D01*
Y0259600D01*
X0347400Y0259400D01*
X0348000D01*
X0347600D02*
X0347200Y0259000D01*
X0346001Y0260200D02*
X0346800D01*
Y0259600D01*
X0346401Y0259800D01*
X0346201D01*
X0346001Y0259600D01*
Y0259200D01*
X0346201Y0259000D01*
X0346600D01*
X0346800Y0259200D01*
X0345601Y0260000D02*
X0345401Y0260200D01*
X0345001D01*
X0344801Y0260000D01*
Y0259200D01*
X0345001Y0259000D01*
X0345401D01*
X0345601Y0259200D01*
Y0260000D01*
X0223400Y0151200D02*
X0224200D01*
Y0150000D01*
X0223400D01*
X0224200Y0150600D02*
X0223800D01*
X0223000Y0150800D02*
Y0150000D01*
Y0150400D01*
X0222800Y0150600D01*
X0222601Y0150800D01*
X0222401D01*
X0221801D02*
Y0150000D01*
Y0150400D01*
X0221601Y0150600D01*
X0221401Y0150800D01*
X0221201D01*
X0220401Y0150000D02*
X0220001D01*
X0219801Y0150200D01*
Y0150600D01*
X0220001Y0150800D01*
X0220401D01*
X0220601Y0150600D01*
Y0150200D01*
X0220401Y0150000D01*
X0219402Y0150800D02*
Y0150000D01*
Y0150400D01*
X0219202Y0150600D01*
X0219002Y0150800D01*
X0218802D01*
X0217402Y0151000D02*
X0217602Y0151200D01*
X0218002D01*
X0218202Y0151000D01*
Y0150200D01*
X0218002Y0150000D01*
X0217602D01*
X0217402Y0150200D01*
X0217002Y0150000D02*
Y0151200D01*
X0216403D01*
X0216203Y0151000D01*
Y0150600D01*
X0216403Y0150400D01*
X0217002D01*
X0216602D02*
X0216203Y0150000D01*
X0215003Y0151000D02*
X0215203Y0151200D01*
X0215603D01*
X0215803Y0151000D01*
Y0150200D01*
X0215603Y0150000D01*
X0215203D01*
X0215003Y0150200D01*
G54D34*
X0265635Y0209827D02*
G03*
X0265635Y0208557I0000000J-0000635D01*
G01*
X0265706Y0208579D02*
G03*
X0265706Y0209849I0000000J0000635D01*
G01*
X0375945Y0155235D02*
X0395945D01*
X0378445Y0127345D02*
X0393125D01*
Y0183125D01*
X0378445Y0127345D02*
Y0183125D01*
X0393125D01*
X0385785Y0125845D02*
Y0185845D01*
X0255475Y0207287D02*
X0265635D01*
X0255475D02*
Y0211097D01*
X0265635D01*
Y0209827D02*
Y0211097D01*
Y0207287D02*
Y0208557D01*
X0268246Y0206420D02*
Y0206674D01*
Y0206420D02*
X0268754D01*
Y0206674D01*
X0273326Y0206420D02*
Y0206674D01*
Y0206420D02*
X0273834D01*
Y0206674D01*
Y0211754D02*
Y0212008D01*
X0273326D02*
X0273834D01*
X0273326Y0211754D02*
Y0212008D01*
X0268754Y0211754D02*
Y0212008D01*
X0268246D02*
X0268754D01*
X0268246Y0211754D02*
Y0212008D01*
X0265706Y0211754D02*
X0276374D01*
Y0206674D02*
Y0211754D01*
X0265706Y0206674D02*
X0276374D01*
X0265706D02*
Y0208579D01*
Y0209849D02*
Y0211754D01*
X0283720Y0055880D02*
X0300220D01*
X0286500Y0044330D02*
Y0067430D01*
X0298820D01*
X0286500Y0044330D02*
X0298820D01*
Y0067430D01*
G54D39*
X0235230Y0203230D02*
X0240310D01*
X0235230D02*
Y0215930D01*
X0240310D01*
Y0203230D02*
Y0215930D01*
X0237770Y0203230D02*
Y0205770D01*
X0235230D02*
X0237770D01*
X0266730Y0124730D02*
Y0127270D01*
X0269270D01*
X0256570Y0129810D02*
X0269270D01*
X0256570Y0124730D02*
Y0129810D01*
Y0124730D02*
X0269270D01*
Y0129810D01*
G54D99*
X0265275Y0168500D02*
G03*
X0265275Y0168500I-0000125J0000000D01*
G01*
X0245275Y0211500D02*
G03*
X0245275Y0211500I-0000125J0000000D01*
G01*
X0321625Y0191300D02*
G03*
X0321625Y0191300I-0000125J0000000D01*
G01*
X0321625Y0162300D02*
G03*
X0321625Y0162300I-0000125J0000000D01*
G01*
Y0133300D02*
G03*
X0321625Y0133300I-0000125J0000000D01*
G01*
Y0104300D02*
G03*
X0321625Y0104300I-0000125J0000000D01*
G01*
G54D100*
X0282524Y0203492D02*
Y0212128D01*
X0282016D02*
X0282524D01*
X0282016Y0203492D02*
Y0212128D01*
Y0203492D02*
X0282524D01*
X0285572D01*
Y0212128D01*
X0282524D02*
X0285572D01*
X0291246Y0206119D02*
Y0206881D01*
X0289722Y0206119D02*
X0291246D01*
X0289722D02*
Y0206881D01*
X0291246D01*
Y0207419D02*
Y0208181D01*
X0289722Y0207419D02*
X0291246D01*
X0289722D02*
Y0208181D01*
X0291246D01*
Y0208719D02*
Y0209481D01*
X0289722Y0208719D02*
X0291246D01*
X0289722D02*
Y0209481D01*
X0291246D01*
Y0210019D02*
Y0210781D01*
X0289722Y0210019D02*
X0291246D01*
X0289722D02*
Y0210781D01*
X0291246D01*
X0278119Y0205954D02*
X0278881D01*
X0278119D02*
Y0207478D01*
X0278881D01*
Y0205954D02*
Y0207478D01*
X0268754Y0214381D02*
X0270278D01*
X0268754Y0213619D02*
Y0214381D01*
Y0213619D02*
X0270278D01*
Y0214381D01*
X0278619Y0212154D02*
X0279381D01*
X0278619D02*
Y0213678D01*
X0279381D01*
Y0212154D02*
Y0213678D01*
X0352746Y0251600D02*
X0355540D01*
X0356048D02*
X0356302D01*
X0356810D02*
X0362906D01*
X0355000Y0259650D02*
X0380400D01*
X0355000Y0243550D02*
Y0259650D01*
Y0243550D02*
X0380400D01*
X0363414Y0251600D02*
X0363668D01*
X0364176D02*
X0368240D01*
X0380400Y0243550D02*
Y0259650D01*
X0368240Y0251600D02*
X0372304D01*
X0372812D02*
X0373066D01*
X0373574D02*
X0379670D01*
X0380178D02*
X0380432D01*
X0380940D02*
X0383734D01*
X0232222Y0208681D02*
X0233746D01*
X0232222Y0207919D02*
Y0208681D01*
Y0207919D02*
X0233746D01*
Y0208681D01*
X0321619Y0257754D02*
X0322381D01*
X0321619D02*
Y0259278D01*
X0322381D01*
Y0257754D02*
Y0259278D01*
X0371119Y0239246D02*
X0371881D01*
Y0237722D02*
Y0239246D01*
X0371119Y0237722D02*
X0371881D01*
X0371119D02*
Y0239246D01*
X0346619Y0252254D02*
X0347381D01*
X0346619D02*
Y0253778D01*
X0347381D01*
Y0252254D02*
Y0253778D01*
X0346805Y0245119D02*
Y0245881D01*
X0348329D01*
Y0245119D02*
Y0245881D01*
X0346805Y0245119D02*
X0348329D01*
X0346954Y0257619D02*
Y0258381D01*
X0348478D01*
Y0257619D02*
Y0258381D01*
X0346954Y0257619D02*
X0348478D01*
X0350278Y0242619D02*
Y0243381D01*
X0348754Y0242619D02*
X0350278D01*
X0348754D02*
Y0243381D01*
X0350278D01*
X0350778Y0260119D02*
Y0260881D01*
X0349254Y0260119D02*
X0350778D01*
X0349254D02*
Y0260881D01*
X0350778D01*
X0335246Y0259119D02*
Y0259881D01*
X0333722Y0259119D02*
X0335246D01*
X0333722D02*
Y0259881D01*
X0335246D01*
X0346619Y0249154D02*
X0347381D01*
X0346619D02*
Y0250678D01*
X0347381D01*
Y0249154D02*
Y0250678D01*
X0348119Y0252754D02*
X0348881D01*
X0348119D02*
Y0254278D01*
X0348881D01*
Y0252754D02*
Y0254278D01*
X0343119Y0254246D02*
X0343881D01*
Y0252722D02*
Y0254246D01*
X0343119Y0252722D02*
X0343881D01*
X0343119D02*
Y0254246D01*
X0345120Y0251268D02*
X0345882D01*
X0345120D02*
Y0252792D01*
X0345882D01*
Y0251268D02*
Y0252792D01*
X0372819Y0237754D02*
X0373581D01*
X0372819D02*
Y0239278D01*
X0373581D01*
Y0237754D02*
Y0239278D01*
X0381604Y0239024D02*
X0382366Y0239786D01*
X0381350Y0240040D02*
X0382366Y0239786D01*
X0380334Y0239278D02*
X0382366Y0239786D01*
X0381350Y0237500D02*
X0382366Y0238008D01*
X0381604Y0238516D02*
X0382366Y0238008D01*
X0380334Y0238262D02*
X0382366Y0238008D01*
X0375000Y0237246D02*
X0377540D01*
X0375000D02*
Y0237754D01*
X0377540D01*
X0375000Y0239786D02*
X0377540D01*
X0375000D02*
Y0240294D01*
X0377540D01*
Y0236992D02*
Y0240548D01*
X0378556D01*
Y0240294D02*
Y0240548D01*
Y0240294D02*
X0382112D01*
X0382874Y0239786D01*
X0383128Y0239278D01*
Y0238262D02*
Y0239278D01*
X0382874Y0237754D02*
X0383128Y0238262D01*
X0382112Y0237246D02*
X0382874Y0237754D01*
X0378556Y0237246D02*
X0382112D01*
X0378556Y0236992D02*
Y0237246D01*
X0377540Y0236992D02*
X0378556D01*
X0379064Y0237500D02*
Y0238262D01*
Y0239278D02*
Y0240040D01*
X0378302Y0239278D02*
X0379826D01*
X0378302Y0238262D02*
X0379826D01*
X0378302D02*
X0379064Y0239278D01*
X0379826Y0238262D01*
X0241119Y0208846D02*
X0241881D01*
Y0207322D02*
Y0208846D01*
X0241119Y0207322D02*
X0241881D01*
X0241119D02*
Y0208846D01*
G54D152*
X0209946Y0157830D02*
G03*
X0211114Y0157830I0000584J0000000D01*
G01*
X0212713D01*
X0208344D02*
X0209946D01*
X0208344D02*
X0208345Y0152625D01*
X0208344Y0152623D02*
X0212713D01*
X0212710Y0152625D02*
X0212713Y0157830D01*
M02*
