%FSAX43Y43*%
%MOMM*%
G71*
G01*
G75*
G04 Layer_Color=16711935*
%ADD10C,0.150*%
%ADD11O,0.305X1.016*%
%ADD12O,0.813X0.305*%
%ADD13R,0.762X2.540*%
%ADD14R,5.000X6.000*%
%ADD15O,1.016X0.305*%
%ADD16O,0.305X0.813*%
%ADD17R,3.048X3.048*%
%ADD18R,2.540X0.762*%
%ADD19R,6.000X5.000*%
%ADD20R,3.048X3.048*%
%ADD21O,0.508X1.016*%
%ADD22O,1.524X0.508*%
%ADD23O,1.016X0.508*%
%ADD24O,0.508X1.524*%
%ADD25O,2.100X6.000*%
%ADD26O,2.100X6.000*%
%ADD27C,0.120*%
%ADD28C,0.175*%
%ADD29C,0.508*%
%ADD30C,0.500*%
%ADD31C,0.200*%
%ADD32C,1.524*%
%ADD33C,1.000*%
%ADD34C,0.254*%
%ADD35C,1.160*%
%ADD36C,1.016*%
%ADD37C,0.400*%
%ADD38C,0.300*%
%ADD39C,0.305*%
%ADD40C,1.850*%
%ADD41R,1.850X1.850*%
%ADD42R,1.850X1.850*%
%ADD43C,4.000*%
%ADD44C,1.422*%
%ADD45C,2.438*%
%ADD46C,1.524*%
%ADD47C,3.000*%
%ADD48C,2.500*%
%ADD49C,1.575*%
%ADD50R,1.575X1.575*%
%ADD51R,1.575X1.575*%
%ADD52C,0.500*%
%ADD53C,1.300*%
%ADD54C,1.000*%
%ADD55C,1.200*%
%ADD56C,1.270*%
%ADD57C,0.600*%
%ADD58C,0.900*%
%ADD59C,2.000*%
G04:AMPARAMS|DCode=60|XSize=1.85mm|YSize=1.85mm|CornerRadius=0mm|HoleSize=0mm|Usage=FLASHONLY|Rotation=0.000|XOffset=0mm|YOffset=0mm|HoleType=Round|Shape=Relief|Width=0.175mm|Gap=0.2mm|Entries=4|*
%AMTHD60*
7,0,0,1.850,1.450,0.175,45*
%
%ADD60THD60*%
%ADD61C,3.400*%
%ADD62C,1.213*%
G04:AMPARAMS|DCode=63|XSize=2.0708mm|YSize=2.0708mm|CornerRadius=0mm|HoleSize=0mm|Usage=FLASHONLY|Rotation=0.000|XOffset=0mm|YOffset=0mm|HoleType=Round|Shape=Relief|Width=0.175mm|Gap=0.2mm|Entries=4|*
%AMTHD63*
7,0,0,2.071,1.671,0.175,45*
%
%ADD63THD63*%
%ADD64C,1.721*%
G04:AMPARAMS|DCode=65|XSize=1.65mm|YSize=1.65mm|CornerRadius=0mm|HoleSize=0mm|Usage=FLASHONLY|Rotation=0.000|XOffset=0mm|YOffset=0mm|HoleType=Round|Shape=Relief|Width=0.175mm|Gap=0.2mm|Entries=4|*
%AMTHD65*
7,0,0,1.650,1.250,0.175,45*
%
%ADD65THD65*%
%ADD66C,2.700*%
%ADD67C,2.200*%
G04:AMPARAMS|DCode=68|XSize=2.55mm|YSize=2.55mm|CornerRadius=0mm|HoleSize=0mm|Usage=FLASHONLY|Rotation=0.000|XOffset=0mm|YOffset=0mm|HoleType=Round|Shape=Relief|Width=0.175mm|Gap=0.2mm|Entries=4|*
%AMTHD68*
7,0,0,2.550,2.150,0.175,45*
%
%ADD68THD68*%
%ADD69C,1.416*%
G04:AMPARAMS|DCode=70|XSize=1.766mm|YSize=1.766mm|CornerRadius=0mm|HoleSize=0mm|Usage=FLASHONLY|Rotation=0.000|XOffset=0mm|YOffset=0mm|HoleType=Round|Shape=Relief|Width=0.175mm|Gap=0.2mm|Entries=4|*
%AMTHD70*
7,0,0,1.766,1.366,0.175,45*
%
%ADD70THD70*%
G04:AMPARAMS|DCode=71|XSize=1.5628mm|YSize=1.5628mm|CornerRadius=0mm|HoleSize=0mm|Usage=FLASHONLY|Rotation=0.000|XOffset=0mm|YOffset=0mm|HoleType=Round|Shape=Relief|Width=0.175mm|Gap=0.2mm|Entries=4|*
%AMTHD71*
7,0,0,1.563,1.163,0.175,45*
%
%ADD71THD71*%
%ADD72C,0.650*%
G04:AMPARAMS|DCode=73|XSize=1mm|YSize=1mm|CornerRadius=0mm|HoleSize=0mm|Usage=FLASHONLY|Rotation=0.000|XOffset=0mm|YOffset=0mm|HoleType=Round|Shape=Relief|Width=0.175mm|Gap=0.2mm|Entries=4|*
%AMTHD73*
7,0,0,1.000,0.600,0.175,45*
%
%ADD73THD73*%
G04:AMPARAMS|DCode=74|XSize=1.05mm|YSize=1.05mm|CornerRadius=0mm|HoleSize=0mm|Usage=FLASHONLY|Rotation=0.000|XOffset=0mm|YOffset=0mm|HoleType=Round|Shape=Relief|Width=0.175mm|Gap=0.2mm|Entries=4|*
%AMTHD74*
7,0,0,1.050,0.650,0.175,45*
%
%ADD74THD74*%
%ADD75C,0.700*%
%ADD76C,1.100*%
%ADD77C,1.111*%
G04:AMPARAMS|DCode=78|XSize=1.4612mm|YSize=1.4612mm|CornerRadius=0mm|HoleSize=0mm|Usage=FLASHONLY|Rotation=0.000|XOffset=0mm|YOffset=0mm|HoleType=Round|Shape=Relief|Width=0.175mm|Gap=0.2mm|Entries=4|*
%AMTHD78*
7,0,0,1.461,1.061,0.175,45*
%
%ADD78THD78*%
G04:AMPARAMS|DCode=79|XSize=1.45mm|YSize=1.45mm|CornerRadius=0mm|HoleSize=0mm|Usage=FLASHONLY|Rotation=0.000|XOffset=0mm|YOffset=0mm|HoleType=Round|Shape=Relief|Width=0.175mm|Gap=0.2mm|Entries=4|*
%AMTHD79*
7,0,0,1.450,1.050,0.175,45*
%
%ADD79THD79*%
%ADD80C,0.900*%
%ADD81C,0.800*%
%ADD82C,1.670*%
%ADD83C,1.000*%
%ADD84O,1.270X0.762*%
%ADD85R,1.270X0.762*%
%ADD86O,0.508X1.778*%
%ADD87R,0.508X1.778*%
%ADD88R,1.270X2.108*%
G04:AMPARAMS|DCode=89|XSize=2.108mm|YSize=1.27mm|CornerRadius=0mm|HoleSize=0mm|Usage=FLASHONLY|Rotation=270.000|XOffset=0mm|YOffset=0mm|HoleType=Round|Shape=Octagon|*
%AMOCTAGOND89*
4,1,8,-0.318,-1.054,0.318,-1.054,0.635,-0.737,0.635,0.737,0.318,1.054,-0.318,1.054,-0.635,0.737,-0.635,-0.737,-0.318,-1.054,0.0*
%
%ADD89OCTAGOND89*%

%ADD90O,0.600X2.200*%
%ADD91R,0.250X1.600*%
%ADD92O,0.250X1.600*%
%ADD93O,1.600X0.250*%
%ADD94R,4.600X0.610*%
%ADD95R,4.600X0.810*%
%ADD96R,1.650X0.300*%
%ADD97O,1.778X0.381*%
%ADD98R,1.778X0.381*%
%ADD99C,0.250*%
%ADD100C,0.203*%
%ADD101O,0.508X1.219*%
%ADD102R,0.965X2.743*%
%ADD103R,5.203X6.203*%
%ADD104O,1.219X0.508*%
%ADD105R,3.251X3.251*%
%ADD106R,2.743X0.965*%
%ADD107R,6.203X5.203*%
%ADD108R,3.251X3.251*%
%ADD109O,0.711X1.219*%
%ADD110O,1.727X0.711*%
%ADD111O,1.219X0.711*%
%ADD112O,0.711X1.727*%
%ADD113O,2.303X6.203*%
%ADD114O,2.303X6.203*%
%ADD115C,2.053*%
%ADD116R,2.053X2.053*%
%ADD117R,2.053X2.053*%
%ADD118C,0.203*%
%ADD119C,4.203*%
%ADD120C,1.626*%
%ADD121C,2.642*%
%ADD122C,1.727*%
%ADD123C,3.203*%
%ADD124C,2.703*%
%ADD125C,1.778*%
%ADD126R,1.778X1.778*%
%ADD127R,1.778X1.778*%
%ADD128C,0.703*%
%ADD129C,1.503*%
%ADD130C,1.203*%
%ADD131C,1.403*%
%ADD132C,1.473*%
%ADD133C,0.803*%
%ADD134C,2.203*%
%ADD135C,2.500*%
%ADD136O,1.473X0.965*%
%ADD137R,1.473X0.965*%
%ADD138O,0.711X1.981*%
%ADD139R,0.711X1.981*%
%ADD140R,1.473X2.311*%
G04:AMPARAMS|DCode=141|XSize=2.311mm|YSize=1.473mm|CornerRadius=0mm|HoleSize=0mm|Usage=FLASHONLY|Rotation=270.000|XOffset=0mm|YOffset=0mm|HoleType=Round|Shape=Octagon|*
%AMOCTAGOND141*
4,1,8,-0.368,-1.156,0.368,-1.156,0.737,-0.787,0.737,0.787,0.368,1.156,-0.368,1.156,-0.737,0.787,-0.737,-0.787,-0.368,-1.156,0.0*
%
%ADD141OCTAGOND141*%

%ADD142O,0.803X2.403*%
%ADD143R,0.453X1.803*%
%ADD144O,0.453X1.803*%
%ADD145O,1.803X0.453*%
%ADD146R,4.803X0.813*%
%ADD147R,4.803X1.013*%
%ADD148R,1.853X0.503*%
%ADD149O,1.981X0.584*%
%ADD150R,1.981X0.584*%
%ADD151C,1.103*%
G54D21*
X0278144Y0205700D02*
D03*
X0278856D02*
D03*
Y0207732D02*
D03*
X0278144D02*
D03*
X0278644Y0211900D02*
D03*
X0279356D02*
D03*
Y0213932D02*
D03*
X0278644D02*
D03*
X0321644Y0257500D02*
D03*
X0322356D02*
D03*
Y0259532D02*
D03*
X0321644D02*
D03*
X0371856Y0239500D02*
D03*
X0371144D02*
D03*
Y0237468D02*
D03*
X0371856D02*
D03*
X0346644Y0252000D02*
D03*
X0347356D02*
D03*
Y0254032D02*
D03*
X0346644D02*
D03*
Y0248900D02*
D03*
X0347356D02*
D03*
Y0250932D02*
D03*
X0346644D02*
D03*
X0348144Y0252500D02*
D03*
X0348856D02*
D03*
Y0254532D02*
D03*
X0348144D02*
D03*
X0343856Y0254500D02*
D03*
X0343144D02*
D03*
Y0252468D02*
D03*
X0343856D02*
D03*
X0345145Y0251014D02*
D03*
X0345857D02*
D03*
Y0253046D02*
D03*
X0345145D02*
D03*
X0372844Y0237500D02*
D03*
X0373556D02*
D03*
Y0239532D02*
D03*
X0372844D02*
D03*
X0241856Y0209100D02*
D03*
X0241144D02*
D03*
Y0207068D02*
D03*
X0241856D02*
D03*
G54D23*
X0291500Y0206144D02*
D03*
Y0206856D02*
D03*
X0289468D02*
D03*
Y0206144D02*
D03*
X0291500Y0207444D02*
D03*
Y0208156D02*
D03*
X0289468D02*
D03*
Y0207444D02*
D03*
X0291500Y0208744D02*
D03*
Y0209456D02*
D03*
X0289468D02*
D03*
Y0208744D02*
D03*
X0291500Y0210044D02*
D03*
Y0210756D02*
D03*
X0289468D02*
D03*
Y0210044D02*
D03*
X0268500Y0213644D02*
D03*
Y0214356D02*
D03*
X0270532D02*
D03*
Y0213644D02*
D03*
X0231968Y0207944D02*
D03*
Y0208656D02*
D03*
X0234000D02*
D03*
Y0207944D02*
D03*
X0346551Y0245856D02*
D03*
Y0245144D02*
D03*
X0348583D02*
D03*
Y0245856D02*
D03*
X0346700Y0258356D02*
D03*
Y0257644D02*
D03*
X0348732D02*
D03*
Y0258356D02*
D03*
X0350532Y0242644D02*
D03*
Y0243356D02*
D03*
X0348500D02*
D03*
Y0242644D02*
D03*
X0351032Y0260144D02*
D03*
Y0260856D02*
D03*
X0349000D02*
D03*
Y0260144D02*
D03*
X0335500Y0259144D02*
D03*
Y0259856D02*
D03*
X0333468D02*
D03*
Y0259144D02*
D03*
G54D33*
X0025000Y0025000D02*
Y0285000D01*
X0400000D01*
X0025000Y0025000D02*
X0400000D01*
Y0025000D02*
Y0285000D01*
G54D101*
X0291500Y0206500D02*
D03*
X0289468D02*
D03*
X0291246D02*
D03*
X0291754D02*
D03*
X0289722D02*
D03*
X0289214D02*
D03*
X0291500Y0207800D02*
D03*
X0289468D02*
D03*
X0291246D02*
D03*
X0291754D02*
D03*
X0289722D02*
D03*
X0289214D02*
D03*
X0291500Y0209100D02*
D03*
X0289468D02*
D03*
X0291246D02*
D03*
X0291754D02*
D03*
X0289722D02*
D03*
X0289214D02*
D03*
X0291500Y0210400D02*
D03*
X0289468D02*
D03*
X0291246D02*
D03*
X0291754D02*
D03*
X0289722D02*
D03*
X0289214D02*
D03*
X0268246Y0214000D02*
D03*
X0268754D02*
D03*
X0270786D02*
D03*
X0270278D02*
D03*
X0268500D02*
D03*
X0270532D02*
D03*
X0231714Y0208300D02*
D03*
X0232222D02*
D03*
X0234254D02*
D03*
X0233746D02*
D03*
X0231968D02*
D03*
X0234000D02*
D03*
X0346551Y0245500D02*
D03*
X0348583D02*
D03*
X0346805D02*
D03*
X0346297D02*
D03*
X0348329D02*
D03*
X0348837D02*
D03*
X0346700Y0258000D02*
D03*
X0348732D02*
D03*
X0346954D02*
D03*
X0346446D02*
D03*
X0348478D02*
D03*
X0348986D02*
D03*
X0350532Y0243000D02*
D03*
X0348500D02*
D03*
X0350278D02*
D03*
X0350786D02*
D03*
X0348754D02*
D03*
X0348246D02*
D03*
X0351032Y0260500D02*
D03*
X0349000D02*
D03*
X0350778D02*
D03*
X0351286D02*
D03*
X0349254D02*
D03*
X0348746D02*
D03*
X0335500Y0259500D02*
D03*
X0333468D02*
D03*
X0335246D02*
D03*
X0335754D02*
D03*
X0333722D02*
D03*
X0333214D02*
D03*
G54D104*
X0278500Y0205700D02*
D03*
Y0207732D02*
D03*
Y0205954D02*
D03*
Y0205446D02*
D03*
Y0207478D02*
D03*
Y0207986D02*
D03*
X0279000Y0211900D02*
D03*
Y0213932D02*
D03*
Y0212154D02*
D03*
Y0211646D02*
D03*
Y0213678D02*
D03*
Y0214186D02*
D03*
X0322000Y0257500D02*
D03*
Y0259532D02*
D03*
Y0257754D02*
D03*
Y0257246D02*
D03*
Y0259278D02*
D03*
Y0259786D02*
D03*
X0371500Y0239500D02*
D03*
Y0237468D02*
D03*
Y0239246D02*
D03*
Y0239754D02*
D03*
Y0237722D02*
D03*
Y0237214D02*
D03*
X0347000Y0252000D02*
D03*
Y0254032D02*
D03*
Y0252254D02*
D03*
Y0251746D02*
D03*
Y0253778D02*
D03*
Y0254286D02*
D03*
Y0248900D02*
D03*
Y0250932D02*
D03*
Y0249154D02*
D03*
Y0248646D02*
D03*
Y0250678D02*
D03*
Y0251186D02*
D03*
X0348500Y0252500D02*
D03*
Y0254532D02*
D03*
Y0252754D02*
D03*
Y0252246D02*
D03*
Y0254278D02*
D03*
Y0254786D02*
D03*
X0343500Y0254500D02*
D03*
Y0252468D02*
D03*
Y0254246D02*
D03*
Y0254754D02*
D03*
Y0252722D02*
D03*
Y0252214D02*
D03*
X0345501Y0251014D02*
D03*
Y0253046D02*
D03*
Y0251268D02*
D03*
Y0250760D02*
D03*
Y0252792D02*
D03*
Y0253300D02*
D03*
X0373200Y0237500D02*
D03*
Y0239532D02*
D03*
Y0237754D02*
D03*
Y0237246D02*
D03*
Y0239278D02*
D03*
Y0239786D02*
D03*
X0241500Y0209100D02*
D03*
Y0207068D02*
D03*
Y0208846D02*
D03*
Y0209354D02*
D03*
Y0207322D02*
D03*
Y0206814D02*
D03*
G54D115*
X0064500Y0154000D02*
D03*
X0280000Y0090000D02*
D03*
X0279000Y0260000D02*
D03*
G54D116*
X0064500Y0159080D02*
D03*
G54D117*
X0285080Y0090000D02*
D03*
X0284080Y0260000D02*
D03*
G54D118*
X0135220Y0162100D02*
D03*
X0114900D02*
D03*
X0094580D02*
D03*
X0074260D02*
D03*
X0053940D02*
D03*
X0155540D02*
D03*
X0175860D02*
D03*
X0196180D02*
D03*
X0135220Y0151250D02*
D03*
X0114900D02*
D03*
X0094580D02*
D03*
X0074260D02*
D03*
X0053940D02*
D03*
X0033620D02*
D03*
X0155540D02*
D03*
X0175860D02*
D03*
X0196180D02*
D03*
X0135220Y0028750D02*
D03*
X0114900D02*
D03*
X0094580D02*
D03*
X0074260D02*
D03*
X0053940D02*
D03*
X0033620D02*
D03*
X0155540D02*
D03*
X0175860D02*
D03*
X0196180D02*
D03*
X0216500D02*
D03*
X0338420D02*
D03*
X0236820D02*
D03*
X0257140D02*
D03*
X0277460D02*
D03*
X0297780D02*
D03*
X0318100D02*
D03*
Y0281250D02*
D03*
X0236820D02*
D03*
X0257140D02*
D03*
X0277460D02*
D03*
X0297780D02*
D03*
X0338420D02*
D03*
X0216500D02*
D03*
X0196180D02*
D03*
X0175860D02*
D03*
X0155540D02*
D03*
X0033620Y0162100D02*
D03*
X0114900Y0281250D02*
D03*
X0094580D02*
D03*
X0074260D02*
D03*
X0053940D02*
D03*
X0033620D02*
D03*
X0135220D02*
D03*
G54D119*
X0285000Y0195000D02*
D03*
Y0115000D02*
D03*
X0390000D02*
D03*
Y0195000D02*
D03*
G54D120*
X0226460Y0239000D02*
D03*
X0229000D02*
D03*
X0221460Y0239000D02*
D03*
X0224000D02*
D03*
X0216460D02*
D03*
X0219000D02*
D03*
X0375000Y0240040D02*
D03*
Y0237500D02*
D03*
G54D121*
X0335960Y0220460D02*
D03*
Y0225540D02*
D03*
X0341040D02*
D03*
Y0220460D02*
D03*
X0338500Y0223000D02*
D03*
X0346960Y0220460D02*
D03*
Y0225540D02*
D03*
X0352040D02*
D03*
Y0220460D02*
D03*
X0349500Y0223000D02*
D03*
X0357960Y0220460D02*
D03*
Y0225540D02*
D03*
X0363040D02*
D03*
Y0220460D02*
D03*
X0360500Y0223000D02*
D03*
X0202460Y0222540D02*
D03*
X0207540D02*
D03*
Y0217460D02*
D03*
X0202460D02*
D03*
X0205000Y0220000D02*
D03*
G54D122*
X0174908Y0239980D02*
D03*
Y0209500D02*
D03*
Y0212040D02*
D03*
Y0214580D02*
D03*
Y0217120D02*
D03*
Y0219660D02*
D03*
Y0222200D02*
D03*
Y0224740D02*
D03*
Y0227280D02*
D03*
Y0229820D02*
D03*
Y0232360D02*
D03*
Y0234900D02*
D03*
Y0237440D02*
D03*
X0173003Y0238710D02*
D03*
Y0236170D02*
D03*
Y0233630D02*
D03*
Y0231090D02*
D03*
Y0228550D02*
D03*
Y0226010D02*
D03*
Y0223470D02*
D03*
Y0220930D02*
D03*
Y0218390D02*
D03*
Y0215850D02*
D03*
Y0213310D02*
D03*
Y0210770D02*
D03*
Y0241250D02*
D03*
X0176812D02*
D03*
Y0210770D02*
D03*
Y0213310D02*
D03*
Y0215850D02*
D03*
Y0218390D02*
D03*
Y0220930D02*
D03*
Y0223470D02*
D03*
Y0226010D02*
D03*
Y0228550D02*
D03*
Y0231090D02*
D03*
Y0233630D02*
D03*
Y0236170D02*
D03*
Y0238710D02*
D03*
X0178717Y0237440D02*
D03*
Y0234900D02*
D03*
Y0232360D02*
D03*
Y0229820D02*
D03*
Y0227280D02*
D03*
Y0224740D02*
D03*
Y0222200D02*
D03*
Y0219660D02*
D03*
Y0217120D02*
D03*
Y0214580D02*
D03*
Y0212040D02*
D03*
Y0209500D02*
D03*
Y0239980D02*
D03*
X0154587D02*
D03*
Y0209500D02*
D03*
Y0212040D02*
D03*
Y0214580D02*
D03*
Y0217120D02*
D03*
Y0219660D02*
D03*
Y0222200D02*
D03*
Y0224740D02*
D03*
Y0227280D02*
D03*
Y0229820D02*
D03*
Y0232360D02*
D03*
Y0234900D02*
D03*
Y0237440D02*
D03*
X0152682Y0238710D02*
D03*
Y0236170D02*
D03*
Y0233630D02*
D03*
Y0231090D02*
D03*
Y0228550D02*
D03*
Y0226010D02*
D03*
Y0223470D02*
D03*
Y0220930D02*
D03*
Y0218390D02*
D03*
Y0215850D02*
D03*
Y0213310D02*
D03*
Y0210770D02*
D03*
Y0241250D02*
D03*
X0156492D02*
D03*
Y0210770D02*
D03*
Y0213310D02*
D03*
Y0215850D02*
D03*
Y0218390D02*
D03*
Y0220930D02*
D03*
Y0223470D02*
D03*
Y0226010D02*
D03*
Y0228550D02*
D03*
Y0231090D02*
D03*
Y0233630D02*
D03*
Y0236170D02*
D03*
Y0238710D02*
D03*
X0158398Y0237440D02*
D03*
Y0234900D02*
D03*
Y0232360D02*
D03*
Y0229820D02*
D03*
Y0227280D02*
D03*
Y0224740D02*
D03*
Y0222200D02*
D03*
Y0219660D02*
D03*
Y0217120D02*
D03*
Y0214580D02*
D03*
Y0212040D02*
D03*
Y0209500D02*
D03*
Y0239980D02*
D03*
X0134268D02*
D03*
Y0209500D02*
D03*
Y0212040D02*
D03*
Y0214580D02*
D03*
Y0217120D02*
D03*
Y0219660D02*
D03*
Y0222200D02*
D03*
Y0224740D02*
D03*
Y0227280D02*
D03*
Y0229820D02*
D03*
Y0232360D02*
D03*
Y0234900D02*
D03*
Y0237440D02*
D03*
X0132363Y0238710D02*
D03*
Y0236170D02*
D03*
Y0233630D02*
D03*
Y0231090D02*
D03*
Y0228550D02*
D03*
Y0226010D02*
D03*
Y0223470D02*
D03*
Y0220930D02*
D03*
Y0218390D02*
D03*
Y0215850D02*
D03*
Y0213310D02*
D03*
Y0210770D02*
D03*
Y0241250D02*
D03*
X0136173D02*
D03*
Y0210770D02*
D03*
Y0213310D02*
D03*
Y0215850D02*
D03*
Y0218390D02*
D03*
Y0220930D02*
D03*
Y0223470D02*
D03*
Y0226010D02*
D03*
Y0228550D02*
D03*
Y0231090D02*
D03*
Y0233630D02*
D03*
Y0236170D02*
D03*
Y0238710D02*
D03*
X0138077Y0237440D02*
D03*
Y0234900D02*
D03*
Y0232360D02*
D03*
Y0229820D02*
D03*
Y0227280D02*
D03*
Y0224740D02*
D03*
Y0222200D02*
D03*
Y0219660D02*
D03*
Y0217120D02*
D03*
Y0214580D02*
D03*
Y0212040D02*
D03*
Y0209500D02*
D03*
Y0239980D02*
D03*
X0113948D02*
D03*
Y0209500D02*
D03*
Y0212040D02*
D03*
Y0214580D02*
D03*
Y0217120D02*
D03*
Y0219660D02*
D03*
Y0222200D02*
D03*
Y0224740D02*
D03*
Y0227280D02*
D03*
Y0229820D02*
D03*
Y0232360D02*
D03*
Y0234900D02*
D03*
Y0237440D02*
D03*
X0112043Y0238710D02*
D03*
Y0236170D02*
D03*
Y0233630D02*
D03*
Y0231090D02*
D03*
Y0228550D02*
D03*
Y0226010D02*
D03*
Y0223470D02*
D03*
Y0220930D02*
D03*
Y0218390D02*
D03*
Y0215850D02*
D03*
Y0213310D02*
D03*
Y0210770D02*
D03*
Y0241250D02*
D03*
X0115853D02*
D03*
Y0210770D02*
D03*
Y0213310D02*
D03*
Y0215850D02*
D03*
Y0218390D02*
D03*
Y0220930D02*
D03*
Y0223470D02*
D03*
Y0226010D02*
D03*
Y0228550D02*
D03*
Y0231090D02*
D03*
Y0233630D02*
D03*
Y0236170D02*
D03*
Y0238710D02*
D03*
X0117757Y0237440D02*
D03*
Y0234900D02*
D03*
Y0232360D02*
D03*
Y0229820D02*
D03*
Y0227280D02*
D03*
Y0224740D02*
D03*
Y0222200D02*
D03*
Y0219660D02*
D03*
Y0217120D02*
D03*
Y0214580D02*
D03*
Y0212040D02*
D03*
Y0209500D02*
D03*
Y0239980D02*
D03*
X0093628D02*
D03*
Y0209500D02*
D03*
Y0212040D02*
D03*
Y0214580D02*
D03*
Y0217120D02*
D03*
Y0219660D02*
D03*
Y0222200D02*
D03*
Y0224740D02*
D03*
Y0227280D02*
D03*
Y0229820D02*
D03*
Y0232360D02*
D03*
Y0234900D02*
D03*
Y0237440D02*
D03*
X0091723Y0238710D02*
D03*
Y0236170D02*
D03*
Y0233630D02*
D03*
Y0231090D02*
D03*
Y0228550D02*
D03*
Y0226010D02*
D03*
Y0223470D02*
D03*
Y0220930D02*
D03*
Y0218390D02*
D03*
Y0215850D02*
D03*
Y0213310D02*
D03*
Y0210770D02*
D03*
Y0241250D02*
D03*
X0095533D02*
D03*
Y0210770D02*
D03*
Y0213310D02*
D03*
Y0215850D02*
D03*
Y0218390D02*
D03*
Y0220930D02*
D03*
Y0223470D02*
D03*
Y0226010D02*
D03*
Y0228550D02*
D03*
Y0231090D02*
D03*
Y0233630D02*
D03*
Y0236170D02*
D03*
Y0238710D02*
D03*
X0097438Y0237440D02*
D03*
Y0234900D02*
D03*
Y0232360D02*
D03*
Y0229820D02*
D03*
Y0227280D02*
D03*
Y0224740D02*
D03*
Y0222200D02*
D03*
Y0219660D02*
D03*
Y0217120D02*
D03*
Y0214580D02*
D03*
Y0212040D02*
D03*
Y0209500D02*
D03*
Y0239980D02*
D03*
X0073308D02*
D03*
Y0209500D02*
D03*
Y0212040D02*
D03*
Y0214580D02*
D03*
Y0217120D02*
D03*
Y0219660D02*
D03*
Y0222200D02*
D03*
Y0224740D02*
D03*
Y0227280D02*
D03*
Y0229820D02*
D03*
Y0232360D02*
D03*
Y0234900D02*
D03*
Y0237440D02*
D03*
X0071402Y0238710D02*
D03*
Y0236170D02*
D03*
Y0233630D02*
D03*
Y0231090D02*
D03*
Y0228550D02*
D03*
Y0226010D02*
D03*
Y0223470D02*
D03*
Y0220930D02*
D03*
Y0218390D02*
D03*
Y0215850D02*
D03*
Y0213310D02*
D03*
Y0210770D02*
D03*
Y0241250D02*
D03*
X0075213D02*
D03*
Y0210770D02*
D03*
Y0213310D02*
D03*
Y0215850D02*
D03*
Y0218390D02*
D03*
Y0220930D02*
D03*
Y0223470D02*
D03*
Y0226010D02*
D03*
Y0228550D02*
D03*
Y0231090D02*
D03*
Y0233630D02*
D03*
Y0236170D02*
D03*
Y0238710D02*
D03*
X0077118Y0237440D02*
D03*
Y0234900D02*
D03*
Y0232360D02*
D03*
Y0229820D02*
D03*
Y0227280D02*
D03*
Y0224740D02*
D03*
Y0222200D02*
D03*
Y0219660D02*
D03*
Y0217120D02*
D03*
Y0214580D02*
D03*
Y0212040D02*
D03*
Y0209500D02*
D03*
Y0239980D02*
D03*
X0052987D02*
D03*
Y0209500D02*
D03*
Y0212040D02*
D03*
Y0214580D02*
D03*
Y0217120D02*
D03*
Y0219660D02*
D03*
Y0222200D02*
D03*
Y0224740D02*
D03*
Y0227280D02*
D03*
Y0229820D02*
D03*
Y0232360D02*
D03*
Y0234900D02*
D03*
Y0237440D02*
D03*
X0051083Y0238710D02*
D03*
Y0236170D02*
D03*
Y0233630D02*
D03*
Y0231090D02*
D03*
Y0228550D02*
D03*
Y0226010D02*
D03*
Y0223470D02*
D03*
Y0220930D02*
D03*
Y0218390D02*
D03*
Y0215850D02*
D03*
Y0213310D02*
D03*
Y0210770D02*
D03*
Y0241250D02*
D03*
X0054893D02*
D03*
Y0210770D02*
D03*
Y0213310D02*
D03*
Y0215850D02*
D03*
Y0218390D02*
D03*
Y0220930D02*
D03*
Y0223470D02*
D03*
Y0226010D02*
D03*
Y0228550D02*
D03*
Y0231090D02*
D03*
Y0233630D02*
D03*
Y0236170D02*
D03*
Y0238710D02*
D03*
X0056798Y0237440D02*
D03*
Y0234900D02*
D03*
Y0232360D02*
D03*
Y0229820D02*
D03*
Y0227280D02*
D03*
Y0224740D02*
D03*
Y0222200D02*
D03*
Y0219660D02*
D03*
Y0217120D02*
D03*
Y0214580D02*
D03*
Y0212040D02*
D03*
Y0209500D02*
D03*
Y0239980D02*
D03*
X0032667D02*
D03*
Y0209500D02*
D03*
Y0212040D02*
D03*
Y0214580D02*
D03*
Y0217120D02*
D03*
Y0219660D02*
D03*
Y0222200D02*
D03*
Y0224740D02*
D03*
Y0227280D02*
D03*
Y0229820D02*
D03*
Y0232360D02*
D03*
Y0234900D02*
D03*
Y0237440D02*
D03*
X0030763Y0238710D02*
D03*
Y0236170D02*
D03*
Y0233630D02*
D03*
Y0231090D02*
D03*
Y0228550D02*
D03*
Y0226010D02*
D03*
Y0223470D02*
D03*
Y0220930D02*
D03*
Y0218390D02*
D03*
Y0215850D02*
D03*
Y0213310D02*
D03*
Y0210770D02*
D03*
Y0241250D02*
D03*
X0034572D02*
D03*
Y0210770D02*
D03*
Y0213310D02*
D03*
Y0215850D02*
D03*
Y0218390D02*
D03*
Y0220930D02*
D03*
Y0223470D02*
D03*
Y0226010D02*
D03*
Y0228550D02*
D03*
Y0231090D02*
D03*
Y0233630D02*
D03*
Y0236170D02*
D03*
Y0238710D02*
D03*
X0036478Y0237440D02*
D03*
Y0234900D02*
D03*
Y0232360D02*
D03*
Y0229820D02*
D03*
Y0227280D02*
D03*
Y0224740D02*
D03*
Y0222200D02*
D03*
Y0219660D02*
D03*
Y0217120D02*
D03*
Y0214580D02*
D03*
Y0212040D02*
D03*
Y0209500D02*
D03*
Y0239980D02*
D03*
X0174908Y0106730D02*
D03*
Y0076250D02*
D03*
Y0078790D02*
D03*
Y0081330D02*
D03*
Y0083870D02*
D03*
Y0086410D02*
D03*
Y0088950D02*
D03*
Y0091490D02*
D03*
Y0094030D02*
D03*
Y0096570D02*
D03*
Y0099110D02*
D03*
Y0101650D02*
D03*
Y0104190D02*
D03*
X0173003Y0105460D02*
D03*
Y0102920D02*
D03*
Y0100380D02*
D03*
Y0097840D02*
D03*
Y0095300D02*
D03*
Y0092760D02*
D03*
Y0090220D02*
D03*
Y0087680D02*
D03*
Y0085140D02*
D03*
Y0082600D02*
D03*
Y0080060D02*
D03*
Y0077520D02*
D03*
Y0108000D02*
D03*
X0176812D02*
D03*
Y0077520D02*
D03*
Y0080060D02*
D03*
Y0082600D02*
D03*
Y0085140D02*
D03*
Y0087680D02*
D03*
Y0090220D02*
D03*
Y0092760D02*
D03*
Y0095300D02*
D03*
Y0097840D02*
D03*
Y0100380D02*
D03*
Y0102920D02*
D03*
Y0105460D02*
D03*
X0178717Y0104190D02*
D03*
Y0101650D02*
D03*
Y0099110D02*
D03*
Y0096570D02*
D03*
Y0094030D02*
D03*
Y0091490D02*
D03*
Y0088950D02*
D03*
Y0086410D02*
D03*
Y0083870D02*
D03*
Y0081330D02*
D03*
Y0078790D02*
D03*
Y0076250D02*
D03*
Y0106730D02*
D03*
X0154587D02*
D03*
Y0076250D02*
D03*
Y0078790D02*
D03*
Y0081330D02*
D03*
Y0083870D02*
D03*
Y0086410D02*
D03*
Y0088950D02*
D03*
Y0091490D02*
D03*
Y0094030D02*
D03*
Y0096570D02*
D03*
Y0099110D02*
D03*
Y0101650D02*
D03*
Y0104190D02*
D03*
X0152682Y0105460D02*
D03*
Y0102920D02*
D03*
Y0100380D02*
D03*
Y0097840D02*
D03*
Y0095300D02*
D03*
Y0092760D02*
D03*
Y0090220D02*
D03*
Y0087680D02*
D03*
Y0085140D02*
D03*
Y0082600D02*
D03*
Y0080060D02*
D03*
Y0077520D02*
D03*
Y0108000D02*
D03*
X0156492D02*
D03*
Y0077520D02*
D03*
Y0080060D02*
D03*
Y0082600D02*
D03*
Y0085140D02*
D03*
Y0087680D02*
D03*
Y0090220D02*
D03*
Y0092760D02*
D03*
Y0095300D02*
D03*
Y0097840D02*
D03*
Y0100380D02*
D03*
Y0102920D02*
D03*
Y0105460D02*
D03*
X0158398Y0104190D02*
D03*
Y0101650D02*
D03*
Y0099110D02*
D03*
Y0096570D02*
D03*
Y0094030D02*
D03*
Y0091490D02*
D03*
Y0088950D02*
D03*
Y0086410D02*
D03*
Y0083870D02*
D03*
Y0081330D02*
D03*
Y0078790D02*
D03*
Y0076250D02*
D03*
Y0106730D02*
D03*
X0134268D02*
D03*
Y0076250D02*
D03*
Y0078790D02*
D03*
Y0081330D02*
D03*
Y0083870D02*
D03*
Y0086410D02*
D03*
Y0088950D02*
D03*
Y0091490D02*
D03*
Y0094030D02*
D03*
Y0096570D02*
D03*
Y0099110D02*
D03*
Y0101650D02*
D03*
Y0104190D02*
D03*
X0132363Y0105460D02*
D03*
Y0102920D02*
D03*
Y0100380D02*
D03*
Y0097840D02*
D03*
Y0095300D02*
D03*
Y0092760D02*
D03*
Y0090220D02*
D03*
Y0087680D02*
D03*
Y0085140D02*
D03*
Y0082600D02*
D03*
Y0080060D02*
D03*
Y0077520D02*
D03*
Y0108000D02*
D03*
X0136173D02*
D03*
Y0077520D02*
D03*
Y0080060D02*
D03*
Y0082600D02*
D03*
Y0085140D02*
D03*
Y0087680D02*
D03*
Y0090220D02*
D03*
Y0092760D02*
D03*
Y0095300D02*
D03*
Y0097840D02*
D03*
Y0100380D02*
D03*
Y0102920D02*
D03*
Y0105460D02*
D03*
X0138077Y0104190D02*
D03*
Y0101650D02*
D03*
Y0099110D02*
D03*
Y0096570D02*
D03*
Y0094030D02*
D03*
Y0091490D02*
D03*
Y0088950D02*
D03*
Y0086410D02*
D03*
Y0083870D02*
D03*
Y0081330D02*
D03*
Y0078790D02*
D03*
Y0076250D02*
D03*
Y0106730D02*
D03*
X0113948D02*
D03*
Y0076250D02*
D03*
Y0078790D02*
D03*
Y0081330D02*
D03*
Y0083870D02*
D03*
Y0086410D02*
D03*
Y0088950D02*
D03*
Y0091490D02*
D03*
Y0094030D02*
D03*
Y0096570D02*
D03*
Y0099110D02*
D03*
Y0101650D02*
D03*
Y0104190D02*
D03*
X0112043Y0105460D02*
D03*
Y0102920D02*
D03*
Y0100380D02*
D03*
Y0097840D02*
D03*
Y0095300D02*
D03*
Y0092760D02*
D03*
Y0090220D02*
D03*
Y0087680D02*
D03*
Y0085140D02*
D03*
Y0082600D02*
D03*
Y0080060D02*
D03*
Y0077520D02*
D03*
Y0108000D02*
D03*
X0115853D02*
D03*
Y0077520D02*
D03*
Y0080060D02*
D03*
Y0082600D02*
D03*
Y0085140D02*
D03*
Y0087680D02*
D03*
Y0090220D02*
D03*
Y0092760D02*
D03*
Y0095300D02*
D03*
Y0097840D02*
D03*
Y0100380D02*
D03*
Y0102920D02*
D03*
Y0105460D02*
D03*
X0117757Y0104190D02*
D03*
Y0101650D02*
D03*
Y0099110D02*
D03*
Y0096570D02*
D03*
Y0094030D02*
D03*
Y0091490D02*
D03*
Y0088950D02*
D03*
Y0086410D02*
D03*
Y0083870D02*
D03*
Y0081330D02*
D03*
Y0078790D02*
D03*
Y0076250D02*
D03*
Y0106730D02*
D03*
X0093628D02*
D03*
Y0076250D02*
D03*
Y0078790D02*
D03*
Y0081330D02*
D03*
Y0083870D02*
D03*
Y0086410D02*
D03*
Y0088950D02*
D03*
Y0091490D02*
D03*
Y0094030D02*
D03*
Y0096570D02*
D03*
Y0099110D02*
D03*
Y0101650D02*
D03*
Y0104190D02*
D03*
X0091723Y0105460D02*
D03*
Y0102920D02*
D03*
Y0100380D02*
D03*
Y0097840D02*
D03*
Y0095300D02*
D03*
Y0092760D02*
D03*
Y0090220D02*
D03*
Y0087680D02*
D03*
Y0085140D02*
D03*
Y0082600D02*
D03*
Y0080060D02*
D03*
Y0077520D02*
D03*
Y0108000D02*
D03*
X0095533D02*
D03*
Y0077520D02*
D03*
Y0080060D02*
D03*
Y0082600D02*
D03*
Y0085140D02*
D03*
Y0087680D02*
D03*
Y0090220D02*
D03*
Y0092760D02*
D03*
Y0095300D02*
D03*
Y0097840D02*
D03*
Y0100380D02*
D03*
Y0102920D02*
D03*
Y0105460D02*
D03*
X0097438Y0104190D02*
D03*
Y0101650D02*
D03*
Y0099110D02*
D03*
Y0096570D02*
D03*
Y0094030D02*
D03*
Y0091490D02*
D03*
Y0088950D02*
D03*
Y0086410D02*
D03*
Y0083870D02*
D03*
Y0081330D02*
D03*
Y0078790D02*
D03*
Y0076250D02*
D03*
Y0106730D02*
D03*
X0073308D02*
D03*
Y0076250D02*
D03*
Y0078790D02*
D03*
Y0081330D02*
D03*
Y0083870D02*
D03*
Y0086410D02*
D03*
Y0088950D02*
D03*
Y0091490D02*
D03*
Y0094030D02*
D03*
Y0096570D02*
D03*
Y0099110D02*
D03*
Y0101650D02*
D03*
Y0104190D02*
D03*
X0071402Y0105460D02*
D03*
Y0102920D02*
D03*
Y0100380D02*
D03*
Y0097840D02*
D03*
Y0095300D02*
D03*
Y0092760D02*
D03*
Y0090220D02*
D03*
Y0087680D02*
D03*
Y0085140D02*
D03*
Y0082600D02*
D03*
Y0080060D02*
D03*
Y0077520D02*
D03*
Y0108000D02*
D03*
X0075213D02*
D03*
Y0077520D02*
D03*
Y0080060D02*
D03*
Y0082600D02*
D03*
Y0085140D02*
D03*
Y0087680D02*
D03*
Y0090220D02*
D03*
Y0092760D02*
D03*
Y0095300D02*
D03*
Y0097840D02*
D03*
Y0100380D02*
D03*
Y0102920D02*
D03*
Y0105460D02*
D03*
X0077118Y0104190D02*
D03*
Y0101650D02*
D03*
Y0099110D02*
D03*
Y0096570D02*
D03*
Y0094030D02*
D03*
Y0091490D02*
D03*
Y0088950D02*
D03*
Y0086410D02*
D03*
Y0083870D02*
D03*
Y0081330D02*
D03*
Y0078790D02*
D03*
Y0076250D02*
D03*
Y0106730D02*
D03*
X0052987D02*
D03*
Y0076250D02*
D03*
Y0078790D02*
D03*
Y0081330D02*
D03*
Y0083870D02*
D03*
Y0086410D02*
D03*
Y0088950D02*
D03*
Y0091490D02*
D03*
Y0094030D02*
D03*
Y0096570D02*
D03*
Y0099110D02*
D03*
Y0101650D02*
D03*
Y0104190D02*
D03*
X0051083Y0105460D02*
D03*
Y0102920D02*
D03*
Y0100380D02*
D03*
Y0097840D02*
D03*
Y0095300D02*
D03*
Y0092760D02*
D03*
Y0090220D02*
D03*
Y0087680D02*
D03*
Y0085140D02*
D03*
Y0082600D02*
D03*
Y0080060D02*
D03*
Y0077520D02*
D03*
Y0108000D02*
D03*
X0054893D02*
D03*
Y0077520D02*
D03*
Y0080060D02*
D03*
Y0082600D02*
D03*
Y0085140D02*
D03*
Y0087680D02*
D03*
Y0090220D02*
D03*
Y0092760D02*
D03*
Y0095300D02*
D03*
Y0097840D02*
D03*
Y0100380D02*
D03*
Y0102920D02*
D03*
Y0105460D02*
D03*
X0056798Y0104190D02*
D03*
Y0101650D02*
D03*
Y0099110D02*
D03*
Y0096570D02*
D03*
Y0094030D02*
D03*
Y0091490D02*
D03*
Y0088950D02*
D03*
Y0086410D02*
D03*
Y0083870D02*
D03*
Y0081330D02*
D03*
Y0078790D02*
D03*
Y0076250D02*
D03*
Y0106730D02*
D03*
X0032667D02*
D03*
Y0076250D02*
D03*
Y0078790D02*
D03*
Y0081330D02*
D03*
Y0083870D02*
D03*
Y0086410D02*
D03*
Y0088950D02*
D03*
Y0091490D02*
D03*
Y0094030D02*
D03*
Y0096570D02*
D03*
Y0099110D02*
D03*
Y0101650D02*
D03*
Y0104190D02*
D03*
X0030763Y0105460D02*
D03*
Y0102920D02*
D03*
Y0100380D02*
D03*
Y0097840D02*
D03*
Y0095300D02*
D03*
Y0092760D02*
D03*
Y0090220D02*
D03*
Y0087680D02*
D03*
Y0085140D02*
D03*
Y0082600D02*
D03*
Y0080060D02*
D03*
Y0077520D02*
D03*
Y0108000D02*
D03*
X0034572D02*
D03*
Y0077520D02*
D03*
Y0080060D02*
D03*
Y0082600D02*
D03*
Y0085140D02*
D03*
Y0087680D02*
D03*
Y0090220D02*
D03*
Y0092760D02*
D03*
Y0095300D02*
D03*
Y0097840D02*
D03*
Y0100380D02*
D03*
Y0102920D02*
D03*
Y0105460D02*
D03*
X0036478Y0104190D02*
D03*
Y0101650D02*
D03*
Y0099110D02*
D03*
Y0096570D02*
D03*
Y0094030D02*
D03*
Y0091490D02*
D03*
Y0088950D02*
D03*
Y0086410D02*
D03*
Y0083870D02*
D03*
Y0081330D02*
D03*
Y0078790D02*
D03*
Y0076250D02*
D03*
Y0106730D02*
D03*
G54D123*
X0175860Y0205690D02*
D03*
Y0245060D02*
D03*
X0155540Y0205690D02*
D03*
Y0245060D02*
D03*
X0135220Y0205690D02*
D03*
Y0245060D02*
D03*
X0114900Y0205690D02*
D03*
Y0245060D02*
D03*
X0094580Y0205690D02*
D03*
Y0245060D02*
D03*
X0074260Y0205690D02*
D03*
Y0245060D02*
D03*
X0053940Y0205690D02*
D03*
Y0245060D02*
D03*
X0033620Y0205690D02*
D03*
Y0245060D02*
D03*
X0175860Y0072440D02*
D03*
Y0111810D02*
D03*
X0155540Y0072440D02*
D03*
Y0111810D02*
D03*
X0135220Y0072440D02*
D03*
Y0111810D02*
D03*
X0114900Y0072440D02*
D03*
Y0111810D02*
D03*
X0094580Y0072440D02*
D03*
Y0111810D02*
D03*
X0074260Y0072440D02*
D03*
Y0111810D02*
D03*
X0053940Y0072440D02*
D03*
Y0111810D02*
D03*
X0033620Y0072440D02*
D03*
Y0111810D02*
D03*
X0374920Y0257950D02*
D03*
Y0245250D02*
D03*
X0287520Y0045730D02*
D03*
Y0066030D02*
D03*
G54D124*
X0285500Y0048260D02*
D03*
Y0053340D02*
D03*
Y0058420D02*
D03*
Y0063500D02*
D03*
G54D125*
X0239040Y0209580D02*
D03*
X0236500D02*
D03*
Y0207040D02*
D03*
Y0212120D02*
D03*
Y0214660D02*
D03*
X0239040Y0212120D02*
D03*
Y0207040D02*
D03*
Y0204500D02*
D03*
Y0214660D02*
D03*
X0257840Y0128500D02*
D03*
X0268000D02*
D03*
X0265460D02*
D03*
X0260400D02*
D03*
X0257840Y0126000D02*
D03*
X0260400D02*
D03*
X0265460D02*
D03*
X0262900D02*
D03*
Y0128500D02*
D03*
G54D126*
X0236500Y0204500D02*
D03*
G54D127*
X0268000Y0126000D02*
D03*
G54D128*
X0262500Y0168500D02*
D03*
X0261500D02*
D03*
X0260500D02*
D03*
X0259500D02*
D03*
X0258500D02*
D03*
X0257500D02*
D03*
X0256500D02*
D03*
X0255500D02*
D03*
X0254500D02*
D03*
X0253500D02*
D03*
X0252500D02*
D03*
X0251500D02*
D03*
X0250500D02*
D03*
X0249500D02*
D03*
X0248500D02*
D03*
X0247500D02*
D03*
X0246500D02*
D03*
X0245500D02*
D03*
X0244500D02*
D03*
X0243500D02*
D03*
X0242500D02*
D03*
X0241500D02*
D03*
X0240500D02*
D03*
X0239500D02*
D03*
X0238500D02*
D03*
X0237500D02*
D03*
X0263500Y0167500D02*
D03*
X0262500D02*
D03*
X0261500D02*
D03*
X0260500D02*
D03*
X0259500D02*
D03*
X0258500D02*
D03*
X0257500D02*
D03*
X0256500D02*
D03*
X0255500D02*
D03*
X0254500D02*
D03*
X0253500D02*
D03*
X0252500D02*
D03*
X0251500D02*
D03*
X0250500D02*
D03*
X0249500D02*
D03*
X0248500D02*
D03*
X0247500D02*
D03*
X0246500D02*
D03*
X0245500D02*
D03*
X0244500D02*
D03*
X0243500D02*
D03*
X0242500D02*
D03*
X0241500D02*
D03*
X0240500D02*
D03*
X0239500D02*
D03*
X0238500D02*
D03*
X0237500D02*
D03*
X0236500D02*
D03*
X0263500Y0166500D02*
D03*
X0262500D02*
D03*
X0261500D02*
D03*
X0260500D02*
D03*
X0259500D02*
D03*
X0258500D02*
D03*
X0257500D02*
D03*
X0256500D02*
D03*
X0255500D02*
D03*
X0254500D02*
D03*
X0253500D02*
D03*
X0252500D02*
D03*
X0251500D02*
D03*
X0250500D02*
D03*
X0249500D02*
D03*
X0248500D02*
D03*
X0247500D02*
D03*
X0246500D02*
D03*
X0245500D02*
D03*
X0244500D02*
D03*
X0243500D02*
D03*
X0242500D02*
D03*
X0241500D02*
D03*
X0240500D02*
D03*
X0239500D02*
D03*
X0238500D02*
D03*
X0237500D02*
D03*
X0236500D02*
D03*
X0263500Y0165500D02*
D03*
X0262500D02*
D03*
X0261500D02*
D03*
X0260500D02*
D03*
X0259500D02*
D03*
X0258500D02*
D03*
X0257500D02*
D03*
X0256500D02*
D03*
X0255500D02*
D03*
X0254500D02*
D03*
X0253500D02*
D03*
X0252500D02*
D03*
X0251500D02*
D03*
X0250500D02*
D03*
X0249500D02*
D03*
X0248500D02*
D03*
X0247500D02*
D03*
X0246500D02*
D03*
X0245500D02*
D03*
X0244500D02*
D03*
X0243500D02*
D03*
X0242500D02*
D03*
X0241500D02*
D03*
X0240500D02*
D03*
X0239500D02*
D03*
X0238500D02*
D03*
X0237500D02*
D03*
X0236500D02*
D03*
X0263500Y0164500D02*
D03*
X0262500D02*
D03*
X0261500D02*
D03*
X0260500D02*
D03*
X0259500D02*
D03*
X0258500D02*
D03*
X0257500D02*
D03*
X0256500D02*
D03*
X0255500D02*
D03*
X0254500D02*
D03*
X0253500D02*
D03*
X0252500D02*
D03*
X0251500D02*
D03*
X0250500D02*
D03*
X0249500D02*
D03*
X0248500D02*
D03*
X0247500D02*
D03*
X0246500D02*
D03*
X0245500D02*
D03*
X0244500D02*
D03*
X0243500D02*
D03*
X0242500D02*
D03*
X0241500D02*
D03*
X0240500D02*
D03*
X0239500D02*
D03*
X0238500D02*
D03*
X0237500D02*
D03*
X0236500D02*
D03*
X0263500Y0163500D02*
D03*
X0262500D02*
D03*
X0261500D02*
D03*
X0260500D02*
D03*
X0259500D02*
D03*
X0258500D02*
D03*
X0257500D02*
D03*
X0256500D02*
D03*
X0255500D02*
D03*
X0254500D02*
D03*
X0253500D02*
D03*
X0252500D02*
D03*
X0251500D02*
D03*
X0250500D02*
D03*
X0249500D02*
D03*
X0248500D02*
D03*
X0247500D02*
D03*
X0246500D02*
D03*
X0245500D02*
D03*
X0244500D02*
D03*
X0243500D02*
D03*
X0242500D02*
D03*
X0241500D02*
D03*
X0240500D02*
D03*
X0239500D02*
D03*
X0238500D02*
D03*
X0237500D02*
D03*
X0236500D02*
D03*
X0263500Y0162500D02*
D03*
X0262500D02*
D03*
X0261500D02*
D03*
X0260500D02*
D03*
X0259500D02*
D03*
X0258500D02*
D03*
X0257500D02*
D03*
X0256500D02*
D03*
X0255500D02*
D03*
X0254500D02*
D03*
X0253500D02*
D03*
X0252500D02*
D03*
X0251500D02*
D03*
X0250500D02*
D03*
X0249500D02*
D03*
X0248500D02*
D03*
X0247500D02*
D03*
X0246500D02*
D03*
X0245500D02*
D03*
X0244500D02*
D03*
X0243500D02*
D03*
X0242500D02*
D03*
X0241500D02*
D03*
X0240500D02*
D03*
X0239500D02*
D03*
X0238500D02*
D03*
X0237500D02*
D03*
X0236500D02*
D03*
X0263500Y0161500D02*
D03*
X0262500D02*
D03*
X0261500D02*
D03*
X0260500D02*
D03*
X0259500D02*
D03*
X0258500D02*
D03*
X0257500D02*
D03*
X0256500D02*
D03*
X0255500D02*
D03*
X0254500D02*
D03*
X0253500D02*
D03*
X0252500D02*
D03*
X0251500D02*
D03*
X0250500D02*
D03*
X0249500D02*
D03*
X0248500D02*
D03*
X0247500D02*
D03*
X0246500D02*
D03*
X0245500D02*
D03*
X0244500D02*
D03*
X0243500D02*
D03*
X0242500D02*
D03*
X0241500D02*
D03*
X0240500D02*
D03*
X0239500D02*
D03*
X0238500D02*
D03*
X0237500D02*
D03*
X0236500D02*
D03*
X0263500Y0160500D02*
D03*
X0262500D02*
D03*
X0261500D02*
D03*
X0260500D02*
D03*
X0259500D02*
D03*
X0258500D02*
D03*
X0257500D02*
D03*
X0256500D02*
D03*
X0255500D02*
D03*
X0254500D02*
D03*
X0253500D02*
D03*
X0252500D02*
D03*
X0251500D02*
D03*
X0250500D02*
D03*
X0249500D02*
D03*
X0248500D02*
D03*
X0247500D02*
D03*
X0246500D02*
D03*
X0245500D02*
D03*
X0244500D02*
D03*
X0243500D02*
D03*
X0242500D02*
D03*
X0241500D02*
D03*
X0240500D02*
D03*
X0239500D02*
D03*
X0238500D02*
D03*
X0237500D02*
D03*
X0236500D02*
D03*
X0263500Y0159500D02*
D03*
X0262500D02*
D03*
X0261500D02*
D03*
X0260500D02*
D03*
X0259500D02*
D03*
X0258500D02*
D03*
X0257500D02*
D03*
X0256500D02*
D03*
X0255500D02*
D03*
X0254500D02*
D03*
X0253500D02*
D03*
X0252500D02*
D03*
X0251500D02*
D03*
X0250500D02*
D03*
X0249500D02*
D03*
X0248500D02*
D03*
X0247500D02*
D03*
X0246500D02*
D03*
X0245500D02*
D03*
X0244500D02*
D03*
X0243500D02*
D03*
X0242500D02*
D03*
X0241500D02*
D03*
X0240500D02*
D03*
X0239500D02*
D03*
X0238500D02*
D03*
X0237500D02*
D03*
X0236500D02*
D03*
X0263500Y0158500D02*
D03*
X0262500D02*
D03*
X0261500D02*
D03*
X0260500D02*
D03*
X0259500D02*
D03*
X0258500D02*
D03*
X0257500D02*
D03*
X0256500D02*
D03*
X0255500D02*
D03*
X0254500D02*
D03*
X0253500D02*
D03*
X0252500D02*
D03*
X0251500D02*
D03*
X0250500D02*
D03*
X0249500D02*
D03*
X0248500D02*
D03*
X0247500D02*
D03*
X0246500D02*
D03*
X0245500D02*
D03*
X0244500D02*
D03*
X0243500D02*
D03*
X0242500D02*
D03*
X0241500D02*
D03*
X0240500D02*
D03*
X0239500D02*
D03*
X0238500D02*
D03*
X0237500D02*
D03*
X0236500D02*
D03*
X0263500Y0157500D02*
D03*
X0262500D02*
D03*
X0261500D02*
D03*
X0260500D02*
D03*
X0259500D02*
D03*
X0258500D02*
D03*
X0257500D02*
D03*
X0256500D02*
D03*
X0255500D02*
D03*
X0254500D02*
D03*
X0253500D02*
D03*
X0252500D02*
D03*
X0251500D02*
D03*
X0250500D02*
D03*
X0249500D02*
D03*
X0248500D02*
D03*
X0247500D02*
D03*
X0246500D02*
D03*
X0245500D02*
D03*
X0244500D02*
D03*
X0243500D02*
D03*
X0242500D02*
D03*
X0241500D02*
D03*
X0240500D02*
D03*
X0239500D02*
D03*
X0238500D02*
D03*
X0237500D02*
D03*
X0236500D02*
D03*
X0263500Y0156500D02*
D03*
X0262500D02*
D03*
X0261500D02*
D03*
X0260500D02*
D03*
X0259500D02*
D03*
X0258500D02*
D03*
X0257500D02*
D03*
X0256500D02*
D03*
X0255500D02*
D03*
X0254500D02*
D03*
X0253500D02*
D03*
X0252500D02*
D03*
X0251500D02*
D03*
X0250500D02*
D03*
X0249500D02*
D03*
X0248500D02*
D03*
X0247500D02*
D03*
X0246500D02*
D03*
X0245500D02*
D03*
X0244500D02*
D03*
X0243500D02*
D03*
X0242500D02*
D03*
X0241500D02*
D03*
X0240500D02*
D03*
X0239500D02*
D03*
X0238500D02*
D03*
X0237500D02*
D03*
X0236500D02*
D03*
X0263500Y0155500D02*
D03*
X0262500D02*
D03*
X0261500D02*
D03*
X0260500D02*
D03*
X0259500D02*
D03*
X0258500D02*
D03*
X0257500D02*
D03*
X0256500D02*
D03*
X0255500D02*
D03*
X0254500D02*
D03*
X0253500D02*
D03*
X0252500D02*
D03*
X0251500D02*
D03*
X0250500D02*
D03*
X0249500D02*
D03*
X0248500D02*
D03*
X0247500D02*
D03*
X0246500D02*
D03*
X0245500D02*
D03*
X0244500D02*
D03*
X0243500D02*
D03*
X0242500D02*
D03*
X0241500D02*
D03*
X0240500D02*
D03*
X0239500D02*
D03*
X0238500D02*
D03*
X0237500D02*
D03*
X0236500D02*
D03*
X0263500Y0154500D02*
D03*
X0262500D02*
D03*
X0261500D02*
D03*
X0260500D02*
D03*
X0259500D02*
D03*
X0258500D02*
D03*
X0257500D02*
D03*
X0256500D02*
D03*
X0255500D02*
D03*
X0254500D02*
D03*
X0253500D02*
D03*
X0252500D02*
D03*
X0251500D02*
D03*
X0250500D02*
D03*
X0249500D02*
D03*
X0248500D02*
D03*
X0247500D02*
D03*
X0246500D02*
D03*
X0245500D02*
D03*
X0244500D02*
D03*
X0243500D02*
D03*
X0242500D02*
D03*
X0241500D02*
D03*
X0240500D02*
D03*
X0239500D02*
D03*
X0238500D02*
D03*
X0237500D02*
D03*
X0236500D02*
D03*
X0263500Y0153500D02*
D03*
X0262500D02*
D03*
X0261500D02*
D03*
X0260500D02*
D03*
X0259500D02*
D03*
X0258500D02*
D03*
X0257500D02*
D03*
X0256500D02*
D03*
X0255500D02*
D03*
X0254500D02*
D03*
X0253500D02*
D03*
X0252500D02*
D03*
X0251500D02*
D03*
X0250500D02*
D03*
X0249500D02*
D03*
X0248500D02*
D03*
X0247500D02*
D03*
X0246500D02*
D03*
X0245500D02*
D03*
X0244500D02*
D03*
X0243500D02*
D03*
X0242500D02*
D03*
X0241500D02*
D03*
X0240500D02*
D03*
X0239500D02*
D03*
X0238500D02*
D03*
X0237500D02*
D03*
X0236500D02*
D03*
X0263500Y0152500D02*
D03*
X0262500D02*
D03*
X0261500D02*
D03*
X0260500D02*
D03*
X0259500D02*
D03*
X0258500D02*
D03*
X0257500D02*
D03*
X0256500D02*
D03*
X0255500D02*
D03*
X0254500D02*
D03*
X0253500D02*
D03*
X0252500D02*
D03*
X0251500D02*
D03*
X0250500D02*
D03*
X0249500D02*
D03*
X0248500D02*
D03*
X0247500D02*
D03*
X0246500D02*
D03*
X0245500D02*
D03*
X0244500D02*
D03*
X0243500D02*
D03*
X0242500D02*
D03*
X0241500D02*
D03*
X0240500D02*
D03*
X0239500D02*
D03*
X0238500D02*
D03*
X0237500D02*
D03*
X0236500D02*
D03*
X0263500Y0151500D02*
D03*
X0262500D02*
D03*
X0261500D02*
D03*
X0260500D02*
D03*
X0259500D02*
D03*
X0258500D02*
D03*
X0257500D02*
D03*
X0256500D02*
D03*
X0255500D02*
D03*
X0254500D02*
D03*
X0253500D02*
D03*
X0252500D02*
D03*
X0251500D02*
D03*
X0250500D02*
D03*
X0249500D02*
D03*
X0248500D02*
D03*
X0247500D02*
D03*
X0246500D02*
D03*
X0245500D02*
D03*
X0244500D02*
D03*
X0243500D02*
D03*
X0242500D02*
D03*
X0241500D02*
D03*
X0240500D02*
D03*
X0239500D02*
D03*
X0238500D02*
D03*
X0237500D02*
D03*
X0236500D02*
D03*
X0263500Y0150500D02*
D03*
X0262500D02*
D03*
X0261500D02*
D03*
X0260500D02*
D03*
X0259500D02*
D03*
X0258500D02*
D03*
X0257500D02*
D03*
X0256500D02*
D03*
X0255500D02*
D03*
X0254500D02*
D03*
X0253500D02*
D03*
X0252500D02*
D03*
X0251500D02*
D03*
X0250500D02*
D03*
X0249500D02*
D03*
X0248500D02*
D03*
X0247500D02*
D03*
X0246500D02*
D03*
X0245500D02*
D03*
X0244500D02*
D03*
X0243500D02*
D03*
X0242500D02*
D03*
X0241500D02*
D03*
X0240500D02*
D03*
X0239500D02*
D03*
X0238500D02*
D03*
X0237500D02*
D03*
X0236500D02*
D03*
X0263500Y0149500D02*
D03*
X0262500D02*
D03*
X0261500D02*
D03*
X0260500D02*
D03*
X0259500D02*
D03*
X0258500D02*
D03*
X0257500D02*
D03*
X0256500D02*
D03*
X0255500D02*
D03*
X0254500D02*
D03*
X0253500D02*
D03*
X0252500D02*
D03*
X0251500D02*
D03*
X0250500D02*
D03*
X0249500D02*
D03*
X0248500D02*
D03*
X0247500D02*
D03*
X0246500D02*
D03*
X0245500D02*
D03*
X0244500D02*
D03*
X0243500D02*
D03*
X0242500D02*
D03*
X0241500D02*
D03*
X0240500D02*
D03*
X0239500D02*
D03*
X0238500D02*
D03*
X0237500D02*
D03*
X0236500D02*
D03*
X0263500Y0148500D02*
D03*
X0262500D02*
D03*
X0261500D02*
D03*
X0260500D02*
D03*
X0259500D02*
D03*
X0258500D02*
D03*
X0257500D02*
D03*
X0256500D02*
D03*
X0255500D02*
D03*
X0254500D02*
D03*
X0253500D02*
D03*
X0252500D02*
D03*
X0251500D02*
D03*
X0250500D02*
D03*
X0249500D02*
D03*
X0248500D02*
D03*
X0247500D02*
D03*
X0246500D02*
D03*
X0245500D02*
D03*
X0244500D02*
D03*
X0243500D02*
D03*
X0242500D02*
D03*
X0241500D02*
D03*
X0240500D02*
D03*
X0239500D02*
D03*
X0238500D02*
D03*
X0237500D02*
D03*
X0236500D02*
D03*
X0263500Y0147500D02*
D03*
X0262500D02*
D03*
X0261500D02*
D03*
X0260500D02*
D03*
X0259500D02*
D03*
X0258500D02*
D03*
X0257500D02*
D03*
X0256500D02*
D03*
X0255500D02*
D03*
X0254500D02*
D03*
X0253500D02*
D03*
X0252500D02*
D03*
X0251500D02*
D03*
X0250500D02*
D03*
X0249500D02*
D03*
X0248500D02*
D03*
X0247500D02*
D03*
X0246500D02*
D03*
X0245500D02*
D03*
X0244500D02*
D03*
X0243500D02*
D03*
X0242500D02*
D03*
X0241500D02*
D03*
X0240500D02*
D03*
X0239500D02*
D03*
X0238500D02*
D03*
X0237500D02*
D03*
X0236500D02*
D03*
X0263500Y0146500D02*
D03*
X0262500D02*
D03*
X0261500D02*
D03*
X0260500D02*
D03*
X0259500D02*
D03*
X0258500D02*
D03*
X0257500D02*
D03*
X0256500D02*
D03*
X0255500D02*
D03*
X0254500D02*
D03*
X0253500D02*
D03*
X0252500D02*
D03*
X0251500D02*
D03*
X0250500D02*
D03*
X0249500D02*
D03*
X0248500D02*
D03*
X0247500D02*
D03*
X0246500D02*
D03*
X0245500D02*
D03*
X0244500D02*
D03*
X0243500D02*
D03*
X0242500D02*
D03*
X0241500D02*
D03*
X0240500D02*
D03*
X0239500D02*
D03*
X0238500D02*
D03*
X0237500D02*
D03*
X0236500D02*
D03*
X0263500Y0145500D02*
D03*
X0262500D02*
D03*
X0261500D02*
D03*
X0260500D02*
D03*
X0259500D02*
D03*
X0258500D02*
D03*
X0257500D02*
D03*
X0256500D02*
D03*
X0255500D02*
D03*
X0254500D02*
D03*
X0253500D02*
D03*
X0252500D02*
D03*
X0251500D02*
D03*
X0250500D02*
D03*
X0249500D02*
D03*
X0248500D02*
D03*
X0247500D02*
D03*
X0246500D02*
D03*
X0245500D02*
D03*
X0244500D02*
D03*
X0243500D02*
D03*
X0242500D02*
D03*
X0241500D02*
D03*
X0240500D02*
D03*
X0239500D02*
D03*
X0238500D02*
D03*
X0237500D02*
D03*
X0236500D02*
D03*
X0263500Y0144500D02*
D03*
X0262500D02*
D03*
X0261500D02*
D03*
X0260500D02*
D03*
X0259500D02*
D03*
X0258500D02*
D03*
X0257500D02*
D03*
X0256500D02*
D03*
X0255500D02*
D03*
X0254500D02*
D03*
X0253500D02*
D03*
X0252500D02*
D03*
X0251500D02*
D03*
X0250500D02*
D03*
X0249500D02*
D03*
X0248500D02*
D03*
X0247500D02*
D03*
X0246500D02*
D03*
X0245500D02*
D03*
X0244500D02*
D03*
X0243500D02*
D03*
X0242500D02*
D03*
X0241500D02*
D03*
X0240500D02*
D03*
X0239500D02*
D03*
X0238500D02*
D03*
X0237500D02*
D03*
X0236500D02*
D03*
X0263500Y0143500D02*
D03*
X0262500D02*
D03*
X0261500D02*
D03*
X0260500D02*
D03*
X0259500D02*
D03*
X0258500D02*
D03*
X0257500D02*
D03*
X0256500D02*
D03*
X0255500D02*
D03*
X0254500D02*
D03*
X0253500D02*
D03*
X0252500D02*
D03*
X0251500D02*
D03*
X0250500D02*
D03*
X0249500D02*
D03*
X0248500D02*
D03*
X0247500D02*
D03*
X0246500D02*
D03*
X0245500D02*
D03*
X0244500D02*
D03*
X0243500D02*
D03*
X0242500D02*
D03*
X0241500D02*
D03*
X0240500D02*
D03*
X0239500D02*
D03*
X0238500D02*
D03*
X0237500D02*
D03*
X0236500D02*
D03*
X0263500Y0142500D02*
D03*
X0262500D02*
D03*
X0261500D02*
D03*
X0260500D02*
D03*
X0259500D02*
D03*
X0258500D02*
D03*
X0257500D02*
D03*
X0256500D02*
D03*
X0255500D02*
D03*
X0254500D02*
D03*
X0253500D02*
D03*
X0252500D02*
D03*
X0251500D02*
D03*
X0250500D02*
D03*
X0249500D02*
D03*
X0248500D02*
D03*
X0247500D02*
D03*
X0246500D02*
D03*
X0245500D02*
D03*
X0244500D02*
D03*
X0243500D02*
D03*
X0242500D02*
D03*
X0241500D02*
D03*
X0240500D02*
D03*
X0239500D02*
D03*
X0238500D02*
D03*
X0237500D02*
D03*
X0236500D02*
D03*
X0262500Y0141500D02*
D03*
X0261500D02*
D03*
X0260500D02*
D03*
X0259500D02*
D03*
X0258500D02*
D03*
X0257500D02*
D03*
X0256500D02*
D03*
X0255500D02*
D03*
X0254500D02*
D03*
X0253500D02*
D03*
X0252500D02*
D03*
X0251500D02*
D03*
X0250500D02*
D03*
X0249500D02*
D03*
X0248500D02*
D03*
X0247500D02*
D03*
X0246500D02*
D03*
X0245500D02*
D03*
X0244500D02*
D03*
X0243500D02*
D03*
X0242500D02*
D03*
X0241500D02*
D03*
X0240500D02*
D03*
X0239500D02*
D03*
X0238500D02*
D03*
X0237500D02*
D03*
X0313500Y0245500D02*
D03*
Y0244500D02*
D03*
Y0250500D02*
D03*
X0361500Y0147600D02*
D03*
X0369000D02*
D03*
X0374500Y0135500D02*
D03*
X0188500Y0197500D02*
D03*
Y0196500D02*
D03*
X0187500Y0197500D02*
D03*
Y0196500D02*
D03*
X0186000Y0197000D02*
D03*
X0186500Y0196500D02*
D03*
X0183500Y0197500D02*
D03*
Y0196500D02*
D03*
X0107500Y0197500D02*
D03*
Y0196500D02*
D03*
X0182500D02*
D03*
Y0197500D02*
D03*
X0181500Y0196500D02*
D03*
Y0197500D02*
D03*
X0168500Y0196500D02*
D03*
Y0197500D02*
D03*
X0167500Y0196500D02*
D03*
Y0197500D02*
D03*
X0165500Y0196500D02*
D03*
Y0197500D02*
D03*
X0166500Y0196500D02*
D03*
X0166000Y0197000D02*
D03*
X0164500Y0196500D02*
D03*
Y0197500D02*
D03*
X0163500Y0196500D02*
D03*
Y0197500D02*
D03*
X0162500D02*
D03*
Y0196500D02*
D03*
X0161000Y0197000D02*
D03*
X0161500Y0196500D02*
D03*
X0148000Y0197500D02*
D03*
Y0196500D02*
D03*
X0145000Y0197500D02*
D03*
Y0196500D02*
D03*
X0144000Y0197500D02*
D03*
Y0196500D02*
D03*
X0142500Y0197000D02*
D03*
X0143000Y0196500D02*
D03*
X0141500Y0197000D02*
D03*
X0142000Y0196500D02*
D03*
X0141000Y0197500D02*
D03*
Y0196500D02*
D03*
X0127500Y0197500D02*
D03*
Y0196500D02*
D03*
X0126500D02*
D03*
Y0197500D02*
D03*
X0184000Y0197000D02*
D03*
X0184500Y0196500D02*
D03*
X0185000Y0197000D02*
D03*
X0185500Y0196500D02*
D03*
X0043500Y0196500D02*
D03*
X0044500Y0196500D02*
D03*
Y0197500D02*
D03*
X0043000Y0197000D02*
D03*
X0046500Y0197500D02*
D03*
Y0196500D02*
D03*
X0042500Y0196500D02*
D03*
Y0197500D02*
D03*
X0041500Y0196500D02*
D03*
Y0197500D02*
D03*
X0040000Y0197000D02*
D03*
X0040500Y0196500D02*
D03*
X0039500D02*
D03*
X0039000Y0197000D02*
D03*
X0045500Y0197500D02*
D03*
Y0196500D02*
D03*
X0145500Y0197000D02*
D03*
X0146000Y0196500D02*
D03*
X0146500Y0197000D02*
D03*
X0147000Y0196500D02*
D03*
X0122000Y0197000D02*
D03*
X0122500Y0196500D02*
D03*
X0100500D02*
D03*
X0100000Y0197000D02*
D03*
X0082500D02*
D03*
X0083000Y0196500D02*
D03*
X0083500Y0197000D02*
D03*
X0084000Y0196500D02*
D03*
X0355500Y0188500D02*
D03*
X0356500D02*
D03*
X0355500Y0186500D02*
D03*
Y0182500D02*
D03*
X0319000Y0205000D02*
D03*
X0318500Y0203500D02*
D03*
Y0198000D02*
D03*
X0319000Y0197500D02*
D03*
X0356500Y0186500D02*
D03*
X0355500Y0184500D02*
D03*
X0356500Y0182500D02*
D03*
Y0180500D02*
D03*
X0319000Y0196000D02*
D03*
X0356500Y0178500D02*
D03*
X0355500D02*
D03*
X0318500Y0194500D02*
D03*
X0319000Y0198500D02*
D03*
X0318500Y0195500D02*
D03*
X0319000Y0117000D02*
D03*
Y0118000D02*
D03*
X0318500Y0116500D02*
D03*
Y0117500D02*
D03*
Y0115000D02*
D03*
Y0114000D02*
D03*
X0319000Y0115500D02*
D03*
Y0114500D02*
D03*
X0318500Y0111000D02*
D03*
Y0110000D02*
D03*
X0319000Y0111500D02*
D03*
Y0110500D02*
D03*
X0318500Y0108500D02*
D03*
Y0107500D02*
D03*
X0319000Y0109000D02*
D03*
Y0108000D02*
D03*
Y0146000D02*
D03*
Y0147000D02*
D03*
X0318500Y0145500D02*
D03*
Y0146500D02*
D03*
Y0144000D02*
D03*
Y0143000D02*
D03*
X0319000Y0144500D02*
D03*
Y0143500D02*
D03*
X0318500Y0140000D02*
D03*
Y0139000D02*
D03*
X0319000Y0140500D02*
D03*
Y0139500D02*
D03*
X0318500Y0137500D02*
D03*
Y0136500D02*
D03*
X0319000Y0138000D02*
D03*
Y0137000D02*
D03*
Y0175000D02*
D03*
Y0176000D02*
D03*
X0318500Y0174500D02*
D03*
Y0175500D02*
D03*
Y0173000D02*
D03*
Y0172000D02*
D03*
X0319000Y0173500D02*
D03*
Y0172500D02*
D03*
X0318500Y0169000D02*
D03*
Y0168000D02*
D03*
X0319000Y0169500D02*
D03*
Y0168500D02*
D03*
X0318500Y0166500D02*
D03*
Y0165500D02*
D03*
X0319000Y0167000D02*
D03*
Y0166000D02*
D03*
Y0195000D02*
D03*
X0318500Y0197000D02*
D03*
X0319000Y0201500D02*
D03*
Y0202500D02*
D03*
X0318500Y0201000D02*
D03*
Y0202000D02*
D03*
Y0204500D02*
D03*
X0319000Y0204000D02*
D03*
X0355500Y0180500D02*
D03*
X0356500Y0196500D02*
D03*
X0355500Y0202500D02*
D03*
X0356500D02*
D03*
Y0200500D02*
D03*
X0355500Y0198500D02*
D03*
X0356500D02*
D03*
X0355500Y0200500D02*
D03*
X0290300Y0207810D02*
D03*
Y0209080D02*
D03*
X0355500Y0196500D02*
D03*
Y0172500D02*
D03*
X0356500D02*
D03*
X0356500Y0169500D02*
D03*
X0357500D02*
D03*
X0354500Y0167500D02*
D03*
X0355500D02*
D03*
X0352500Y0165500D02*
D03*
X0353500D02*
D03*
X0351500Y0164500D02*
D03*
X0352500D02*
D03*
X0350500Y0163500D02*
D03*
X0351500D02*
D03*
X0349500Y0162500D02*
D03*
X0350500D02*
D03*
X0348500Y0161500D02*
D03*
X0349500D02*
D03*
X0345000Y0159000D02*
D03*
X0346000D02*
D03*
X0344000Y0158000D02*
D03*
X0345000D02*
D03*
X0343000Y0157000D02*
D03*
X0344000D02*
D03*
X0343000Y0156000D02*
D03*
X0342000D02*
D03*
X0339500Y0150500D02*
D03*
X0338500D02*
D03*
X0342000Y0149000D02*
D03*
X0341000D02*
D03*
X0343000Y0148000D02*
D03*
X0342000D02*
D03*
X0344000Y0147000D02*
D03*
X0343000D02*
D03*
X0345000Y0146000D02*
D03*
X0344000D02*
D03*
X0348000Y0145000D02*
D03*
X0347000D02*
D03*
X0350000D02*
D03*
X0349000D02*
D03*
X0351000Y0144000D02*
D03*
X0350000D02*
D03*
X0355500Y0142500D02*
D03*
X0354500D02*
D03*
X0352000Y0144000D02*
D03*
X0353000D02*
D03*
X0356500Y0141500D02*
D03*
X0355500D02*
D03*
X0356500Y0137500D02*
D03*
X0355500D02*
D03*
Y0135500D02*
D03*
X0356500D02*
D03*
X0355000Y0127000D02*
D03*
X0356000D02*
D03*
X0355500Y0133500D02*
D03*
X0356500D02*
D03*
X0355000Y0125000D02*
D03*
X0356000D02*
D03*
X0355000Y0123000D02*
D03*
X0356000D02*
D03*
X0355000Y0121000D02*
D03*
X0356000D02*
D03*
X0355000Y0117000D02*
D03*
X0356000D02*
D03*
X0355000Y0115000D02*
D03*
X0356000D02*
D03*
X0355000Y0113000D02*
D03*
X0356000D02*
D03*
X0357140Y0105000D02*
D03*
X0356570Y0105700D02*
D03*
X0356300Y0106700D02*
D03*
X0356030Y0107700D02*
D03*
X0356000Y0111000D02*
D03*
X0355000D02*
D03*
X0356500Y0174500D02*
D03*
X0355500D02*
D03*
X0356500Y0184500D02*
D03*
X0060000Y0196500D02*
D03*
Y0197500D02*
D03*
X0061000Y0196500D02*
D03*
Y0197500D02*
D03*
X0063000Y0196500D02*
D03*
Y0197500D02*
D03*
X0062000Y0196500D02*
D03*
Y0197500D02*
D03*
X0065000D02*
D03*
Y0196500D02*
D03*
X0064000Y0197500D02*
D03*
Y0196500D02*
D03*
X0066000Y0197500D02*
D03*
Y0196500D02*
D03*
X0087000Y0196500D02*
D03*
X0086500Y0197000D02*
D03*
X0067000Y0197500D02*
D03*
Y0196500D02*
D03*
X0080500Y0197000D02*
D03*
X0081000Y0196500D02*
D03*
X0082000Y0197500D02*
D03*
Y0196500D02*
D03*
X0085000Y0197500D02*
D03*
Y0196500D02*
D03*
X0086000Y0196500D02*
D03*
Y0197500D02*
D03*
X0102000Y0197000D02*
D03*
X0102500Y0196500D02*
D03*
X0080000D02*
D03*
X0079500Y0197000D02*
D03*
X0103500Y0196500D02*
D03*
X0103000Y0197000D02*
D03*
X0104500Y0196500D02*
D03*
X0104000Y0197000D02*
D03*
X0101500Y0196500D02*
D03*
Y0197500D02*
D03*
X0105500Y0196500D02*
D03*
Y0197500D02*
D03*
X0106500Y0196500D02*
D03*
Y0197500D02*
D03*
X0120500Y0197500D02*
D03*
Y0196500D02*
D03*
X0121000Y0197000D02*
D03*
X0121500Y0196500D02*
D03*
X0123500D02*
D03*
X0123000Y0197000D02*
D03*
X0124500Y0196500D02*
D03*
X0124000Y0197000D02*
D03*
X0125000D02*
D03*
X0125500Y0196500D02*
D03*
X0190000Y0215850D02*
D03*
X0215500Y0154000D02*
D03*
X0189500Y0214580D02*
D03*
X0205500Y0157500D02*
D03*
X0206000Y0158454D02*
D03*
Y0152000D02*
D03*
X0205500Y0153000D02*
D03*
X0189500Y0082500D02*
D03*
X0190000Y0081330D02*
D03*
Y0108000D02*
D03*
X0189500Y0106756D02*
D03*
X0189000Y0105460D02*
D03*
X0324500Y0240000D02*
D03*
X0323500D02*
D03*
X0322500D02*
D03*
X0321500D02*
D03*
X0313500Y0251500D02*
D03*
Y0249500D02*
D03*
Y0248500D02*
D03*
Y0247500D02*
D03*
Y0246500D02*
D03*
Y0243500D02*
D03*
Y0242500D02*
D03*
G54D129*
X0257500Y0187500D02*
D03*
X0254500D02*
D03*
X0251500D02*
D03*
X0250000Y0190000D02*
D03*
X0253000D02*
D03*
X0256000D02*
D03*
X0259000D02*
D03*
X0283500Y0205270D02*
D03*
X0289500Y0212000D02*
D03*
X0251500Y0048500D02*
D03*
X0221000Y0066000D02*
D03*
X0235000D02*
D03*
X0221000Y0048500D02*
D03*
X0235000D02*
D03*
X0218000Y0059000D02*
D03*
X0273400Y0058400D02*
D03*
Y0048300D02*
D03*
X0218000Y0078000D02*
D03*
X0232000D02*
D03*
Y0060500D02*
D03*
X0264000Y0061000D02*
D03*
Y0050500D02*
D03*
X0223500Y0046468D02*
D03*
X0233000Y0044500D02*
D03*
X0219300D02*
D03*
X0223310Y0063702D02*
D03*
X0233500Y0062000D02*
D03*
X0219000Y0062000D02*
D03*
X0279500Y0075000D02*
D03*
X0294500D02*
D03*
X0279500Y0040000D02*
D03*
X0294500D02*
D03*
G54D130*
X0260500Y0204000D02*
D03*
X0257500D02*
D03*
X0255500D02*
D03*
X0263500D02*
D03*
X0265500D02*
D03*
X0268500Y0158532D02*
D03*
G54D131*
X0242000Y0234700D02*
D03*
X0324500Y0119800D02*
D03*
Y0112800D02*
D03*
Y0105800D02*
D03*
Y0148800D02*
D03*
Y0141800D02*
D03*
Y0134800D02*
D03*
Y0206800D02*
D03*
Y0163800D02*
D03*
Y0170800D02*
D03*
Y0177800D02*
D03*
Y0192800D02*
D03*
Y0199800D02*
D03*
X0324500Y0116000D02*
D03*
X0324500Y0109500D02*
D03*
Y0138500D02*
D03*
X0324500Y0145000D02*
D03*
X0324500Y0167500D02*
D03*
X0324500Y0174000D02*
D03*
X0324500Y0196500D02*
D03*
X0324500Y0203000D02*
D03*
X0243500Y0237000D02*
D03*
X0222500Y0152000D02*
D03*
X0221000Y0153500D02*
D03*
X0213000Y0119000D02*
D03*
G54D132*
X0351497Y0250080D02*
D03*
X0173440Y0265500D02*
D03*
X0153120D02*
D03*
X0132800D02*
D03*
X0112480D02*
D03*
X0092160D02*
D03*
X0071840D02*
D03*
X0051520D02*
D03*
X0031200D02*
D03*
X0037000Y0062500D02*
D03*
X0032500Y0054000D02*
D03*
X0036000Y0059000D02*
D03*
X0354619Y0259806D02*
D03*
X0327500Y0254500D02*
D03*
Y0249420D02*
D03*
X0354619Y0243296D02*
D03*
X0337430Y0253563D02*
D03*
X0344000Y0258000D02*
D03*
X0332000Y0249276D02*
D03*
X0340649Y0249011D02*
D03*
X0056320Y0059000D02*
D03*
X0052820Y0054000D02*
D03*
X0057320Y0062500D02*
D03*
X0076640Y0059000D02*
D03*
X0073140Y0054000D02*
D03*
X0077640Y0062500D02*
D03*
X0096960Y0059000D02*
D03*
X0093460Y0054000D02*
D03*
X0097960Y0062500D02*
D03*
X0117280Y0059000D02*
D03*
X0113780Y0054000D02*
D03*
X0118280Y0062500D02*
D03*
X0137600Y0059000D02*
D03*
X0134100Y0054000D02*
D03*
X0138600Y0062500D02*
D03*
X0157920Y0059000D02*
D03*
X0154420Y0054000D02*
D03*
X0158920Y0062500D02*
D03*
X0178240Y0059000D02*
D03*
X0174740Y0054000D02*
D03*
X0179240Y0062500D02*
D03*
X0211000Y0155000D02*
D03*
X0247500Y0134500D02*
D03*
X0252000Y0126000D02*
D03*
X0259500Y0135000D02*
D03*
X0251500Y0214500D02*
D03*
X0244500Y0207040D02*
D03*
X0266500Y0214000D02*
D03*
X0270500Y0207000D02*
D03*
X0320000Y0257500D02*
D03*
X0251500Y0203000D02*
D03*
X0247500Y0204500D02*
D03*
G54D133*
X0390230Y0180000D02*
D03*
X0391500D02*
D03*
Y0178730D02*
D03*
Y0177460D02*
D03*
Y0176190D02*
D03*
Y0174920D02*
D03*
Y0173650D02*
D03*
Y0172380D02*
D03*
Y0171110D02*
D03*
Y0169840D02*
D03*
Y0168570D02*
D03*
Y0167300D02*
D03*
Y0166030D02*
D03*
Y0164760D02*
D03*
Y0163490D02*
D03*
Y0162220D02*
D03*
Y0160950D02*
D03*
Y0159680D02*
D03*
Y0158410D02*
D03*
Y0157140D02*
D03*
Y0155870D02*
D03*
Y0154600D02*
D03*
Y0153330D02*
D03*
Y0152060D02*
D03*
Y0150790D02*
D03*
Y0149520D02*
D03*
Y0148250D02*
D03*
Y0146980D02*
D03*
Y0145710D02*
D03*
Y0144440D02*
D03*
Y0143170D02*
D03*
Y0141900D02*
D03*
Y0140630D02*
D03*
Y0139360D02*
D03*
Y0138090D02*
D03*
Y0136820D02*
D03*
Y0135550D02*
D03*
Y0134280D02*
D03*
Y0133010D02*
D03*
Y0131740D02*
D03*
Y0130470D02*
D03*
X0390230Y0178730D02*
D03*
Y0177460D02*
D03*
Y0176190D02*
D03*
Y0174920D02*
D03*
Y0173650D02*
D03*
Y0172380D02*
D03*
Y0171110D02*
D03*
Y0169840D02*
D03*
Y0168570D02*
D03*
Y0167300D02*
D03*
Y0166030D02*
D03*
Y0164760D02*
D03*
Y0163490D02*
D03*
Y0162220D02*
D03*
Y0160950D02*
D03*
Y0159680D02*
D03*
Y0158410D02*
D03*
Y0157140D02*
D03*
Y0155870D02*
D03*
Y0154600D02*
D03*
Y0153330D02*
D03*
Y0152060D02*
D03*
Y0150790D02*
D03*
Y0149520D02*
D03*
Y0148250D02*
D03*
Y0146980D02*
D03*
Y0145710D02*
D03*
Y0144440D02*
D03*
Y0143170D02*
D03*
Y0141900D02*
D03*
Y0140630D02*
D03*
Y0139360D02*
D03*
Y0138090D02*
D03*
Y0136820D02*
D03*
Y0135550D02*
D03*
Y0134280D02*
D03*
Y0133010D02*
D03*
Y0131740D02*
D03*
Y0130470D02*
D03*
X0388960Y0180000D02*
D03*
Y0178730D02*
D03*
Y0177460D02*
D03*
Y0176190D02*
D03*
Y0174920D02*
D03*
Y0173650D02*
D03*
Y0172380D02*
D03*
Y0171110D02*
D03*
Y0169840D02*
D03*
Y0168570D02*
D03*
Y0167300D02*
D03*
Y0166030D02*
D03*
Y0164760D02*
D03*
Y0163490D02*
D03*
Y0162220D02*
D03*
Y0160950D02*
D03*
Y0159680D02*
D03*
Y0158410D02*
D03*
Y0157140D02*
D03*
Y0155870D02*
D03*
Y0154600D02*
D03*
Y0153330D02*
D03*
Y0152060D02*
D03*
Y0150790D02*
D03*
Y0149520D02*
D03*
Y0148250D02*
D03*
Y0146980D02*
D03*
Y0145710D02*
D03*
Y0144440D02*
D03*
Y0143170D02*
D03*
Y0141900D02*
D03*
Y0140630D02*
D03*
Y0139360D02*
D03*
Y0138090D02*
D03*
Y0136820D02*
D03*
Y0135550D02*
D03*
Y0134280D02*
D03*
Y0133010D02*
D03*
Y0131740D02*
D03*
Y0130470D02*
D03*
X0387690Y0180000D02*
D03*
Y0178730D02*
D03*
Y0177460D02*
D03*
Y0176190D02*
D03*
Y0174920D02*
D03*
Y0173650D02*
D03*
Y0172380D02*
D03*
Y0171110D02*
D03*
Y0169840D02*
D03*
Y0168570D02*
D03*
Y0167300D02*
D03*
Y0166030D02*
D03*
Y0164760D02*
D03*
Y0163490D02*
D03*
Y0162220D02*
D03*
Y0160950D02*
D03*
Y0159680D02*
D03*
Y0158410D02*
D03*
Y0157140D02*
D03*
Y0155870D02*
D03*
Y0154600D02*
D03*
Y0153330D02*
D03*
Y0152060D02*
D03*
Y0150790D02*
D03*
Y0149520D02*
D03*
Y0148250D02*
D03*
Y0146980D02*
D03*
Y0145710D02*
D03*
Y0144440D02*
D03*
Y0143170D02*
D03*
Y0141900D02*
D03*
Y0140630D02*
D03*
Y0139360D02*
D03*
Y0138090D02*
D03*
Y0136820D02*
D03*
Y0135550D02*
D03*
Y0134280D02*
D03*
Y0133010D02*
D03*
Y0131740D02*
D03*
Y0130470D02*
D03*
X0386420Y0180000D02*
D03*
Y0178730D02*
D03*
Y0177460D02*
D03*
Y0176190D02*
D03*
Y0174920D02*
D03*
Y0173650D02*
D03*
Y0172380D02*
D03*
Y0171110D02*
D03*
Y0169840D02*
D03*
Y0168570D02*
D03*
Y0167300D02*
D03*
Y0166030D02*
D03*
Y0164760D02*
D03*
Y0163490D02*
D03*
Y0162220D02*
D03*
Y0160950D02*
D03*
Y0159680D02*
D03*
Y0158410D02*
D03*
Y0157140D02*
D03*
Y0155870D02*
D03*
Y0154600D02*
D03*
Y0153330D02*
D03*
Y0152060D02*
D03*
Y0150790D02*
D03*
Y0149520D02*
D03*
Y0148250D02*
D03*
Y0146980D02*
D03*
Y0145710D02*
D03*
Y0144440D02*
D03*
Y0143170D02*
D03*
Y0141900D02*
D03*
Y0140630D02*
D03*
Y0139360D02*
D03*
Y0138090D02*
D03*
Y0136820D02*
D03*
Y0135550D02*
D03*
Y0134280D02*
D03*
Y0133010D02*
D03*
Y0131740D02*
D03*
Y0130470D02*
D03*
X0385150Y0180000D02*
D03*
Y0178730D02*
D03*
Y0177460D02*
D03*
Y0176190D02*
D03*
Y0174920D02*
D03*
Y0173650D02*
D03*
Y0172380D02*
D03*
Y0171110D02*
D03*
Y0169840D02*
D03*
Y0168570D02*
D03*
Y0167300D02*
D03*
Y0166030D02*
D03*
Y0164760D02*
D03*
Y0163490D02*
D03*
Y0162220D02*
D03*
Y0160950D02*
D03*
Y0159680D02*
D03*
Y0158410D02*
D03*
Y0157140D02*
D03*
Y0155870D02*
D03*
Y0154600D02*
D03*
Y0153330D02*
D03*
Y0152060D02*
D03*
Y0150790D02*
D03*
Y0149520D02*
D03*
Y0148250D02*
D03*
Y0146980D02*
D03*
Y0145710D02*
D03*
Y0144440D02*
D03*
Y0143170D02*
D03*
Y0141900D02*
D03*
Y0140630D02*
D03*
Y0139360D02*
D03*
Y0138090D02*
D03*
Y0136820D02*
D03*
Y0135550D02*
D03*
Y0134280D02*
D03*
Y0133010D02*
D03*
Y0131740D02*
D03*
Y0130470D02*
D03*
X0383880Y0180000D02*
D03*
Y0178730D02*
D03*
Y0177460D02*
D03*
Y0176190D02*
D03*
Y0174920D02*
D03*
Y0173650D02*
D03*
Y0172380D02*
D03*
Y0171110D02*
D03*
Y0169840D02*
D03*
Y0168570D02*
D03*
Y0167300D02*
D03*
Y0166030D02*
D03*
Y0164760D02*
D03*
Y0163490D02*
D03*
Y0162220D02*
D03*
Y0160950D02*
D03*
Y0159680D02*
D03*
Y0158410D02*
D03*
Y0157140D02*
D03*
Y0155870D02*
D03*
Y0154600D02*
D03*
Y0153330D02*
D03*
Y0152060D02*
D03*
Y0150790D02*
D03*
Y0149520D02*
D03*
Y0148250D02*
D03*
Y0146980D02*
D03*
Y0145710D02*
D03*
Y0144440D02*
D03*
Y0143170D02*
D03*
Y0141900D02*
D03*
Y0140630D02*
D03*
Y0139360D02*
D03*
Y0138090D02*
D03*
Y0136820D02*
D03*
Y0135550D02*
D03*
Y0134280D02*
D03*
Y0133010D02*
D03*
Y0131740D02*
D03*
Y0130470D02*
D03*
X0382610Y0180000D02*
D03*
Y0178730D02*
D03*
Y0177460D02*
D03*
Y0176190D02*
D03*
Y0174920D02*
D03*
Y0173650D02*
D03*
Y0172380D02*
D03*
Y0171110D02*
D03*
Y0169840D02*
D03*
Y0168570D02*
D03*
Y0167300D02*
D03*
Y0166030D02*
D03*
Y0164760D02*
D03*
Y0163490D02*
D03*
Y0162220D02*
D03*
Y0160950D02*
D03*
Y0159680D02*
D03*
Y0158410D02*
D03*
Y0157140D02*
D03*
Y0155870D02*
D03*
Y0154600D02*
D03*
Y0153330D02*
D03*
Y0152060D02*
D03*
Y0150790D02*
D03*
Y0149520D02*
D03*
Y0148250D02*
D03*
Y0146980D02*
D03*
Y0145710D02*
D03*
Y0144440D02*
D03*
Y0143170D02*
D03*
Y0141900D02*
D03*
Y0140630D02*
D03*
Y0139360D02*
D03*
Y0138090D02*
D03*
Y0136820D02*
D03*
Y0135550D02*
D03*
Y0134280D02*
D03*
Y0133010D02*
D03*
Y0131740D02*
D03*
Y0130470D02*
D03*
X0381340Y0180000D02*
D03*
Y0178730D02*
D03*
Y0177460D02*
D03*
Y0176190D02*
D03*
Y0174920D02*
D03*
Y0173650D02*
D03*
Y0172380D02*
D03*
Y0171110D02*
D03*
Y0169840D02*
D03*
Y0168570D02*
D03*
Y0167300D02*
D03*
Y0166030D02*
D03*
Y0164760D02*
D03*
Y0163490D02*
D03*
Y0162220D02*
D03*
Y0160950D02*
D03*
Y0159680D02*
D03*
Y0158410D02*
D03*
Y0157140D02*
D03*
Y0155870D02*
D03*
Y0154600D02*
D03*
Y0153330D02*
D03*
Y0152060D02*
D03*
Y0150790D02*
D03*
Y0149520D02*
D03*
Y0148250D02*
D03*
Y0146980D02*
D03*
Y0145710D02*
D03*
Y0144440D02*
D03*
Y0143170D02*
D03*
Y0141900D02*
D03*
Y0140630D02*
D03*
Y0139360D02*
D03*
Y0138090D02*
D03*
Y0136820D02*
D03*
Y0135550D02*
D03*
Y0134280D02*
D03*
Y0133010D02*
D03*
Y0131740D02*
D03*
Y0130470D02*
D03*
X0380070Y0180000D02*
D03*
Y0178730D02*
D03*
Y0177460D02*
D03*
Y0176190D02*
D03*
Y0174920D02*
D03*
Y0173650D02*
D03*
Y0172380D02*
D03*
Y0171110D02*
D03*
Y0169840D02*
D03*
Y0168570D02*
D03*
Y0167300D02*
D03*
Y0166030D02*
D03*
Y0164760D02*
D03*
Y0163490D02*
D03*
Y0162220D02*
D03*
Y0160950D02*
D03*
Y0159680D02*
D03*
Y0158410D02*
D03*
Y0157140D02*
D03*
Y0155870D02*
D03*
Y0154600D02*
D03*
Y0153330D02*
D03*
Y0152060D02*
D03*
Y0150790D02*
D03*
Y0149520D02*
D03*
Y0148250D02*
D03*
Y0146980D02*
D03*
Y0145710D02*
D03*
Y0144440D02*
D03*
Y0143170D02*
D03*
Y0141900D02*
D03*
Y0140630D02*
D03*
Y0139360D02*
D03*
Y0138090D02*
D03*
Y0136820D02*
D03*
Y0135550D02*
D03*
Y0134280D02*
D03*
Y0133010D02*
D03*
Y0131740D02*
D03*
Y0130470D02*
D03*
G54D134*
X0385775Y0182425D02*
D03*
X0382725Y0128045D02*
D03*
G54D135*
X0136470Y0151250D02*
G03*
X0136470Y0151250I-0001250J0000000D01*
G01*
X0116150D02*
G03*
X0116150Y0151250I-0001250J0000000D01*
G01*
X0095830D02*
G03*
X0095830Y0151250I-0001250J0000000D01*
G01*
X0075510D02*
G03*
X0075510Y0151250I-0001250J0000000D01*
G01*
X0055190D02*
G03*
X0055190Y0151250I-0001250J0000000D01*
G01*
X0034870D02*
G03*
X0034870Y0151250I-0001250J0000000D01*
G01*
X0156790D02*
G03*
X0156790Y0151250I-0001250J0000000D01*
G01*
X0177110D02*
G03*
X0177110Y0151250I-0001250J0000000D01*
G01*
X0197430D02*
G03*
X0197430Y0151250I-0001250J0000000D01*
G01*
X0136470Y0028750D02*
G03*
X0136470Y0028750I-0001250J0000000D01*
G01*
X0116150D02*
G03*
X0116150Y0028750I-0001250J0000000D01*
G01*
X0095830D02*
G03*
X0095830Y0028750I-0001250J0000000D01*
G01*
X0075510D02*
G03*
X0075510Y0028750I-0001250J0000000D01*
G01*
X0055190D02*
G03*
X0055190Y0028750I-0001250J0000000D01*
G01*
X0034870D02*
G03*
X0034870Y0028750I-0001250J0000000D01*
G01*
X0156790D02*
G03*
X0156790Y0028750I-0001250J0000000D01*
G01*
X0177110D02*
G03*
X0177110Y0028750I-0001250J0000000D01*
G01*
X0197430D02*
G03*
X0197430Y0028750I-0001250J0000000D01*
G01*
X0217750D02*
G03*
X0217750Y0028750I-0001250J0000000D01*
G01*
X0339670D02*
G03*
X0339670Y0028750I-0001250J0000000D01*
G01*
X0238070D02*
G03*
X0238070Y0028750I-0001250J0000000D01*
G01*
X0258390D02*
G03*
X0258390Y0028750I-0001250J0000000D01*
G01*
X0278710D02*
G03*
X0278710Y0028750I-0001250J0000000D01*
G01*
X0299030D02*
G03*
X0299030Y0028750I-0001250J0000000D01*
G01*
X0319350D02*
G03*
X0319350Y0028750I-0001250J0000000D01*
G01*
Y0281250D02*
G03*
X0319350Y0281250I-0001250J0000000D01*
G01*
X0238070D02*
G03*
X0238070Y0281250I-0001250J0000000D01*
G01*
X0258390D02*
G03*
X0258390Y0281250I-0001250J0000000D01*
G01*
X0278710D02*
G03*
X0278710Y0281250I-0001250J0000000D01*
G01*
X0299030D02*
G03*
X0299030Y0281250I-0001250J0000000D01*
G01*
X0339670D02*
G03*
X0339670Y0281250I-0001250J0000000D01*
G01*
X0217750D02*
G03*
X0217750Y0281250I-0001250J0000000D01*
G01*
X0197430D02*
G03*
X0197430Y0281250I-0001250J0000000D01*
G01*
Y0162100D02*
G03*
X0197430Y0162100I-0001250J0000000D01*
G01*
X0177110D02*
G03*
X0177110Y0162100I-0001250J0000000D01*
G01*
Y0281250D02*
G03*
X0177110Y0281250I-0001250J0000000D01*
G01*
X0156790D02*
G03*
X0156790Y0281250I-0001250J0000000D01*
G01*
Y0162100D02*
G03*
X0156790Y0162100I-0001250J0000000D01*
G01*
X0034870D02*
G03*
X0034870Y0162100I-0001250J0000000D01*
G01*
X0055190D02*
G03*
X0055190Y0162100I-0001250J0000000D01*
G01*
X0075510D02*
G03*
X0075510Y0162100I-0001250J0000000D01*
G01*
X0095830D02*
G03*
X0095830Y0162100I-0001250J0000000D01*
G01*
X0116150D02*
G03*
X0116150Y0162100I-0001250J0000000D01*
G01*
Y0281250D02*
G03*
X0116150Y0281250I-0001250J0000000D01*
G01*
X0095830D02*
G03*
X0095830Y0281250I-0001250J0000000D01*
G01*
X0075510D02*
G03*
X0075510Y0281250I-0001250J0000000D01*
G01*
X0055190D02*
G03*
X0055190Y0281250I-0001250J0000000D01*
G01*
X0034870D02*
G03*
X0034870Y0281250I-0001250J0000000D01*
G01*
X0136470D02*
G03*
X0136470Y0281250I-0001250J0000000D01*
G01*
Y0162100D02*
G03*
X0136470Y0162100I-0001250J0000000D01*
G01*
G54D136*
X0286588Y0204000D02*
D03*
Y0205270D02*
D03*
Y0206540D02*
D03*
Y0207810D02*
D03*
Y0209080D02*
D03*
Y0210350D02*
D03*
Y0211620D02*
D03*
X0281000D02*
D03*
Y0210350D02*
D03*
Y0209080D02*
D03*
Y0207810D02*
D03*
Y0206540D02*
D03*
Y0205270D02*
D03*
G54D137*
Y0204000D02*
D03*
G54D138*
X0265000Y0211885D02*
D03*
X0256110D02*
D03*
X0257380D02*
D03*
X0258650D02*
D03*
X0259920D02*
D03*
X0261190D02*
D03*
X0262460D02*
D03*
X0263730D02*
D03*
X0256110Y0206500D02*
D03*
X0257380D02*
D03*
X0258650D02*
D03*
X0259920D02*
D03*
X0261190D02*
D03*
X0262460D02*
D03*
X0263730D02*
D03*
G54D139*
X0265000D02*
D03*
G54D140*
X0273580Y0206928D02*
D03*
Y0211500D02*
D03*
X0268500Y0206928D02*
D03*
G54D141*
Y0211500D02*
D03*
G54D142*
X0249810Y0206700D02*
D03*
X0248540D02*
D03*
X0247270D02*
D03*
X0246000D02*
D03*
X0249810Y0211500D02*
D03*
X0248540D02*
D03*
X0247270D02*
D03*
X0246000D02*
D03*
G54D143*
X0326000Y0257500D02*
D03*
G54D144*
X0326500D02*
D03*
X0327000D02*
D03*
X0327500D02*
D03*
X0328000D02*
D03*
X0328500D02*
D03*
X0329000D02*
D03*
X0329500D02*
D03*
X0330000D02*
D03*
X0330500D02*
D03*
X0331000D02*
D03*
X0331500D02*
D03*
X0332000D02*
D03*
X0332500D02*
D03*
X0333000D02*
D03*
X0333500D02*
D03*
Y0246100D02*
D03*
X0333000D02*
D03*
X0332500D02*
D03*
X0332000D02*
D03*
X0331500D02*
D03*
X0331000D02*
D03*
X0330500D02*
D03*
X0330000D02*
D03*
X0329500D02*
D03*
X0329000D02*
D03*
X0328500D02*
D03*
X0328000D02*
D03*
X0327500D02*
D03*
X0327000D02*
D03*
X0326500D02*
D03*
X0326000D02*
D03*
G54D145*
X0335450Y0255550D02*
D03*
Y0255050D02*
D03*
Y0254550D02*
D03*
Y0254050D02*
D03*
Y0253550D02*
D03*
Y0253050D02*
D03*
Y0252550D02*
D03*
Y0252050D02*
D03*
Y0251550D02*
D03*
Y0251050D02*
D03*
Y0250550D02*
D03*
Y0250050D02*
D03*
Y0249550D02*
D03*
Y0249050D02*
D03*
Y0248550D02*
D03*
Y0248050D02*
D03*
X0324050D02*
D03*
Y0248550D02*
D03*
Y0249050D02*
D03*
Y0249550D02*
D03*
Y0250050D02*
D03*
Y0250550D02*
D03*
Y0251050D02*
D03*
Y0251550D02*
D03*
Y0252050D02*
D03*
Y0252550D02*
D03*
Y0253050D02*
D03*
Y0253550D02*
D03*
Y0254050D02*
D03*
Y0254550D02*
D03*
Y0255050D02*
D03*
Y0255550D02*
D03*
G54D146*
X0355000Y0252120D02*
D03*
Y0254160D02*
D03*
Y0253140D02*
D03*
Y0255180D02*
D03*
Y0251100D02*
D03*
Y0250080D02*
D03*
Y0249060D02*
D03*
Y0248040D02*
D03*
G54D147*
Y0256380D02*
D03*
Y0258220D02*
D03*
Y0246840D02*
D03*
Y0245000D02*
D03*
G54D148*
X0321500Y0192000D02*
D03*
Y0192500D02*
D03*
Y0193000D02*
D03*
Y0193500D02*
D03*
Y0194000D02*
D03*
Y0194500D02*
D03*
Y0195000D02*
D03*
Y0195500D02*
D03*
Y0196000D02*
D03*
Y0196500D02*
D03*
Y0197000D02*
D03*
Y0197500D02*
D03*
Y0198000D02*
D03*
Y0198500D02*
D03*
Y0199000D02*
D03*
Y0199500D02*
D03*
Y0200000D02*
D03*
Y0200500D02*
D03*
Y0201000D02*
D03*
Y0201500D02*
D03*
Y0202000D02*
D03*
Y0202500D02*
D03*
Y0203000D02*
D03*
Y0203500D02*
D03*
Y0204000D02*
D03*
Y0204500D02*
D03*
Y0205000D02*
D03*
Y0205500D02*
D03*
Y0206000D02*
D03*
Y0206500D02*
D03*
Y0207000D02*
D03*
Y0207500D02*
D03*
X0328750Y0192000D02*
D03*
Y0192500D02*
D03*
Y0193000D02*
D03*
Y0193500D02*
D03*
Y0194000D02*
D03*
Y0194500D02*
D03*
Y0195000D02*
D03*
Y0195500D02*
D03*
Y0196000D02*
D03*
Y0196500D02*
D03*
Y0197000D02*
D03*
Y0197500D02*
D03*
Y0198000D02*
D03*
Y0198500D02*
D03*
Y0199000D02*
D03*
Y0199500D02*
D03*
Y0200000D02*
D03*
Y0200500D02*
D03*
Y0201000D02*
D03*
Y0201500D02*
D03*
Y0202000D02*
D03*
Y0202500D02*
D03*
Y0203000D02*
D03*
Y0203500D02*
D03*
Y0204000D02*
D03*
Y0204500D02*
D03*
Y0205000D02*
D03*
Y0205500D02*
D03*
Y0206000D02*
D03*
Y0206500D02*
D03*
Y0207000D02*
D03*
Y0207500D02*
D03*
X0321500Y0163000D02*
D03*
Y0163500D02*
D03*
Y0164000D02*
D03*
Y0164500D02*
D03*
Y0165000D02*
D03*
Y0165500D02*
D03*
Y0166000D02*
D03*
Y0166500D02*
D03*
Y0167000D02*
D03*
Y0167500D02*
D03*
Y0168000D02*
D03*
Y0168500D02*
D03*
Y0169000D02*
D03*
Y0169500D02*
D03*
Y0170000D02*
D03*
Y0170500D02*
D03*
Y0171000D02*
D03*
Y0171500D02*
D03*
Y0172000D02*
D03*
Y0172500D02*
D03*
Y0173000D02*
D03*
Y0173500D02*
D03*
Y0174000D02*
D03*
Y0174500D02*
D03*
Y0175000D02*
D03*
Y0175500D02*
D03*
Y0176000D02*
D03*
Y0176500D02*
D03*
Y0177000D02*
D03*
Y0177500D02*
D03*
Y0178000D02*
D03*
Y0178500D02*
D03*
X0328750Y0163000D02*
D03*
Y0163500D02*
D03*
Y0164000D02*
D03*
Y0164500D02*
D03*
Y0165000D02*
D03*
Y0165500D02*
D03*
Y0166000D02*
D03*
Y0166500D02*
D03*
Y0167000D02*
D03*
Y0167500D02*
D03*
Y0168000D02*
D03*
Y0168500D02*
D03*
Y0169000D02*
D03*
Y0169500D02*
D03*
Y0170000D02*
D03*
Y0170500D02*
D03*
Y0171000D02*
D03*
Y0171500D02*
D03*
Y0172000D02*
D03*
Y0172500D02*
D03*
Y0173000D02*
D03*
Y0173500D02*
D03*
Y0174000D02*
D03*
Y0174500D02*
D03*
Y0175000D02*
D03*
Y0175500D02*
D03*
Y0176000D02*
D03*
Y0176500D02*
D03*
Y0177000D02*
D03*
Y0177500D02*
D03*
Y0178000D02*
D03*
Y0178500D02*
D03*
X0321500Y0134000D02*
D03*
Y0134500D02*
D03*
Y0135000D02*
D03*
Y0135500D02*
D03*
Y0136000D02*
D03*
Y0136500D02*
D03*
Y0137000D02*
D03*
Y0137500D02*
D03*
Y0138000D02*
D03*
Y0138500D02*
D03*
Y0139000D02*
D03*
Y0139500D02*
D03*
Y0140000D02*
D03*
Y0140500D02*
D03*
Y0141000D02*
D03*
Y0141500D02*
D03*
Y0142000D02*
D03*
Y0142500D02*
D03*
Y0143000D02*
D03*
Y0143500D02*
D03*
Y0144000D02*
D03*
Y0144500D02*
D03*
Y0145000D02*
D03*
Y0145500D02*
D03*
Y0146000D02*
D03*
Y0146500D02*
D03*
Y0147000D02*
D03*
Y0147500D02*
D03*
Y0148000D02*
D03*
Y0148500D02*
D03*
Y0149000D02*
D03*
Y0149500D02*
D03*
X0328750Y0134000D02*
D03*
Y0134500D02*
D03*
Y0135000D02*
D03*
Y0135500D02*
D03*
Y0136000D02*
D03*
Y0136500D02*
D03*
Y0137000D02*
D03*
Y0137500D02*
D03*
Y0138000D02*
D03*
Y0138500D02*
D03*
Y0139000D02*
D03*
Y0139500D02*
D03*
Y0140000D02*
D03*
Y0140500D02*
D03*
Y0141000D02*
D03*
Y0141500D02*
D03*
Y0142000D02*
D03*
Y0142500D02*
D03*
Y0143000D02*
D03*
Y0143500D02*
D03*
Y0144000D02*
D03*
Y0144500D02*
D03*
Y0145000D02*
D03*
Y0145500D02*
D03*
Y0146000D02*
D03*
Y0146500D02*
D03*
Y0147000D02*
D03*
Y0147500D02*
D03*
Y0148000D02*
D03*
Y0148500D02*
D03*
Y0149000D02*
D03*
Y0149500D02*
D03*
X0321500Y0105000D02*
D03*
Y0105500D02*
D03*
Y0106000D02*
D03*
Y0106500D02*
D03*
Y0107000D02*
D03*
Y0107500D02*
D03*
Y0108000D02*
D03*
Y0108500D02*
D03*
Y0109000D02*
D03*
Y0109500D02*
D03*
Y0110000D02*
D03*
Y0110500D02*
D03*
Y0111000D02*
D03*
Y0111500D02*
D03*
Y0112000D02*
D03*
Y0112500D02*
D03*
Y0113000D02*
D03*
Y0113500D02*
D03*
Y0114000D02*
D03*
Y0114500D02*
D03*
Y0115000D02*
D03*
Y0115500D02*
D03*
Y0116000D02*
D03*
Y0116500D02*
D03*
Y0117000D02*
D03*
Y0117500D02*
D03*
Y0118000D02*
D03*
Y0118500D02*
D03*
Y0119000D02*
D03*
Y0119500D02*
D03*
Y0120000D02*
D03*
Y0120500D02*
D03*
X0328750Y0105000D02*
D03*
Y0105500D02*
D03*
Y0106000D02*
D03*
Y0106500D02*
D03*
Y0107000D02*
D03*
Y0107500D02*
D03*
Y0108000D02*
D03*
Y0108500D02*
D03*
Y0109000D02*
D03*
Y0109500D02*
D03*
Y0110000D02*
D03*
Y0110500D02*
D03*
Y0111000D02*
D03*
Y0111500D02*
D03*
Y0112000D02*
D03*
Y0112500D02*
D03*
Y0113000D02*
D03*
Y0113500D02*
D03*
Y0114000D02*
D03*
Y0114500D02*
D03*
Y0115000D02*
D03*
Y0115500D02*
D03*
Y0116000D02*
D03*
Y0116500D02*
D03*
Y0117000D02*
D03*
Y0117500D02*
D03*
Y0118000D02*
D03*
Y0118500D02*
D03*
Y0119000D02*
D03*
Y0119500D02*
D03*
Y0120000D02*
D03*
Y0120500D02*
D03*
G54D149*
X0213500Y0155550D02*
D03*
X0207560Y0153600D02*
D03*
X0213500Y0156850D02*
D03*
Y0156200D02*
D03*
Y0154250D02*
D03*
Y0153600D02*
D03*
X0207560Y0157500D02*
D03*
Y0156850D02*
D03*
Y0156200D02*
D03*
Y0155550D02*
D03*
Y0154250D02*
D03*
Y0152950D02*
D03*
X0213500Y0154900D02*
D03*
Y0152950D02*
D03*
X0207560Y0154900D02*
D03*
G54D150*
X0213500Y0157500D02*
D03*
G54D151*
X0224000Y0233000D02*
D03*
X0219000D02*
D03*
X0229000D02*
D03*
M02*
