M48
;Layer_Color=9474304
;FILE_FORMAT=4:3
METRIC
;TYPE=PLATED
T1F00S00C0.250
T2F00S00C0.300
T3F00S00C0.400
T4F00S00C0.500
T5F00S00C0.600
T6F00S00C0.700
T7F00S00C0.711
T8F00S00C0.800
T9F00S00C0.813
T10F00S00C0.900
T11F00S00C1.016
T12F00S00C1.100
T13F00S00C1.270
T14F00S00C1.321
T15F00S00C1.800
T16F00S00C2.300
T17F00S00C3.000
%
T01
X0190000Y0081330
X0189500Y0082500
X0189000Y0105460
X0189500Y0106756
X0190000Y0108000
X0318500Y0108500
Y0107500
X0319000Y0108000
Y0109000
X0318500Y0110000
Y0111000
X0319000Y0110500
Y0111500
X0318500Y0114000
Y0115000
X0319000Y0114500
Y0115500
Y0117000
Y0118000
X0318500Y0117500
Y0116500
X0355000Y0117000
X0356000
Y0115000
X0355000
Y0113000
X0356000
Y0111000
X0355000
X0356030Y0107700
X0356300Y0106700
X0356570Y0105700
X0357140Y0105000
X0361500Y0147600
X0369000
X0382110Y0147750
Y0149020
X0383380Y0150020
Y0151290
X0384650Y0151560
Y0152830
X0385920
Y0154100
X0387190
Y0155370
X0388460Y0156640
Y0157910
X0385920
Y0156640
X0384650Y0156370
Y0157640
X0383380
X0382110Y0156640
Y0155370
Y0153830
Y0152560
X0383380Y0153830
Y0155100
X0388460Y0152830
Y0151560
X0387190
Y0150290
X0391000Y0148750
Y0147480
X0389730Y0146210
Y0144940
X0388460Y0143670
Y0142400
X0389730Y0141130
Y0139860
X0388460Y0138590
X0388190Y0137590
Y0136320
X0385920Y0136050
Y0134780
X0384650Y0133780
Y0132510
X0382110
Y0133780
X0383380Y0134780
Y0136050
Y0137590
Y0138860
X0382110Y0138590
Y0137320
X0384650
Y0138590
X0385920Y0138860
Y0137590
X0384650Y0140130
Y0141400
X0383380Y0142400
Y0143670
X0382110Y0144940
Y0146210
Y0141400
Y0140130
X0391000Y0141400
Y0142670
Y0137590
Y0136320
X0389730Y0135050
Y0133780
X0374500Y0135500
X0356500
X0355500
Y0137500
X0356500
Y0141500
X0355500
Y0142500
X0354500
X0353000Y0144000
X0352000
X0351000
X0350000
X0350000Y0145000
X0349000
X0348000
X0347000
X0345000Y0146000
X0344000
Y0147000
X0343000
Y0148000
X0342000
Y0149000
X0341000
X0339500Y0150500
X0338500
X0342000Y0156000
X0343000
Y0157000
X0344000
Y0158000
X0345000
X0355500Y0133500
X0356500
X0356000Y0127000
X0355000
X0355000Y0125000
X0356000
Y0123000
X0355000
Y0121000
X0356000
X0318500Y0136500
Y0137500
X0319000Y0137000
Y0138000
X0318500Y0139000
Y0140000
X0319000Y0139500
Y0140500
X0318500Y0143000
Y0144000
X0319000Y0143500
Y0144500
Y0146000
Y0147000
X0318500Y0146500
Y0145500
X0264000Y0145000
Y0144000
Y0143000
Y0142000
X0263000Y0142000
X0262000
X0261000
X0260000
Y0143000
X0259000
X0258000
X0257000
Y0142000
X0256000
Y0143000
X0255000
Y0144000
Y0145000
X0256000
Y0146000
X0257000
X0258000
X0259000
Y0145000
Y0144000
X0258000
X0257000
Y0145000
X0258000
Y0147000
X0257000
Y0148000
Y0149000
X0256000
Y0148000
X0255000
X0254000
Y0149000
Y0150000
X0253000
Y0151000
Y0152000
X0254000
X0255000
Y0153000
Y0154000
X0256000
Y0153000
Y0152000
Y0151000
Y0150000
X0255000
Y0149000
Y0147000
X0254000
X0253000
Y0148000
Y0149000
X0252000
Y0150000
X0251000
Y0151000
Y0152000
Y0153000
Y0154000
X0252000
X0253000
X0254000
Y0153000
X0253000
X0252000
Y0152000
Y0151000
X0254000
X0255000
X0257000
Y0150000
X0258000
Y0149000
Y0148000
X0259000
Y0147000
X0260000
Y0148000
X0261000
Y0149000
Y0150000
X0260000
Y0149000
X0259000
Y0150000
Y0151000
Y0152000
Y0153000
Y0154000
X0258000
Y0153000
Y0152000
X0257000
Y0153000
Y0154000
X0257000Y0156000
X0258000
Y0157000
X0259000
X0260000
Y0156000
X0261000
Y0157000
X0262000
X0263000
Y0156000
X0262000
Y0158000
X0263000
X0264000Y0158000
Y0157000
Y0156000
X0264000Y0154000
Y0153000
X0263000
X0262000
X0261000
Y0154000
X0260000
Y0153000
Y0152000
X0261000
Y0151000
X0260000
X0258000
X0262000
Y0152000
X0263000
Y0151000
Y0150000
Y0149000
Y0148000
Y0147000
Y0146000
X0262000
X0261000
Y0147000
X0262000
Y0148000
Y0149000
Y0150000
X0264000Y0149000
Y0148000
X0263000Y0145000
Y0144000
X0262000
X0261000
Y0145000
X0262000
X0260000
Y0146000
Y0144000
X0261000Y0143000
X0262000
X0263000
Y0141000
X0262000
X0260000
X0257000
X0256000
X0255000
X0254000
Y0142000
X0253000
X0253000Y0143000
X0253000Y0144000
Y0145000
X0252000
Y0146000
X0253000
X0254000
X0255000
X0256000Y0147000
Y0144000
X0254000
Y0143000
X0255000Y0142000
X0251000
X0250000Y0143000
X0250000Y0144000
X0249000Y0144000
X0248000
Y0145000
Y0146000
X0247000
Y0145000
Y0144000
Y0143000
X0246000
X0245000
X0244000
Y0142000
X0245000
X0246000
X0247000
X0247000Y0141000
X0248000
X0249000Y0142000
Y0143000
X0248000
X0249000Y0145000
Y0146000
Y0147000
X0248000
Y0149000
Y0150000
X0249000
Y0151000
Y0152000
Y0153000
Y0154000
X0248000
X0247000
X0246000
X0245000
X0244000
Y0153000
X0245000
X0246000
X0247000
X0248000
Y0152000
X0247000
Y0151000
X0248000
X0247000Y0150000
X0246000
Y0151000
Y0152000
X0245000
X0244000
X0243000
X0242000
X0243000Y0151000
X0244000
X0245000
Y0150000
X0244000
X0243000
Y0149000
X0242000
Y0150000
X0241000
Y0151000
X0240000
Y0150000
Y0149000
X0239000
Y0148000
Y0147000
X0240000
X0239990Y0146010
X0239000Y0146000
X0240000Y0145000
Y0144000
X0239000
X0239000Y0143000
X0239000Y0142000
X0240000
X0241000
X0242000
Y0143000
Y0144000
Y0145000
X0241000
Y0146000
X0242000
X0243000
X0244000
X0245000
Y0147000
Y0148000
X0244000
Y0149000
X0245000
X0246000
Y0148000
Y0147000
X0243000
X0242000
X0241000Y0148000
Y0149000
X0243000Y0148000
X0244000Y0145000
X0245000
Y0144000
X0244000
X0243000
Y0143000
Y0142000
Y0141000
X0244000
X0242000
X0241000
X0240000
X0239000
X0241000Y0143000
X0239000Y0151000
Y0152000
Y0153000
X0240000
X0241000
Y0154000
X0242000
X0243000
X0244000Y0156000
Y0157000
Y0158000
X0245000
Y0157000
Y0156000
X0246000
X0247000
X0248000
X0249000
Y0157000
X0248000
Y0158000
X0247000
Y0157000
X0246000
Y0158000
X0249000
X0251000
X0252000
X0253000
X0254000
X0255000
Y0157000
X0256000
Y0156000
X0255000
X0254000
X0253000
X0252000
X0251000
Y0157000
X0252000
X0253000
X0254000
X0257000
Y0158000
X0258000
X0259000
X0260000
X0261000
X0259000Y0156000
X0262000Y0154000
X0263000
X0251000Y0149000
Y0148000
X0252000
Y0147000
X0251000
Y0146000
Y0145000
X0252000Y0144000
Y0143000
Y0141000
X0254000Y0145000
X0242000Y0156000
Y0157000
X0241000
X0240000
Y0158000
X0241000
X0242000
X0241000Y0156000
X0240000
X0239000Y0157000
X0239000Y0154000
X0238000
Y0153000
Y0152000
X0237000
Y0153000
X0236000
Y0152000
Y0154000
X0236000Y0157000
Y0158000
X0238000
Y0157000
X0237000
X0238000Y0156000
X0237000Y0151000
X0238000Y0150000
Y0149000
X0237000
Y0148000
X0238000
Y0147000
Y0146000
Y0145000
Y0144000
X0237000
Y0145000
Y0146000
X0236000Y0146500
Y0145500
Y0144500
X0236000Y0143000
Y0142000
X0237000
X0238000
Y0143000
X0237000Y0141000
X0236000Y0148000
Y0149000
X0215500Y0154000
X0205500Y0153000
X0206000Y0152000
X0205500Y0157500
X0206000Y0158454
X0039500Y0196500
X0039000Y0197000
X0040000
X0040500Y0196500
X0041500Y0196500
X0042500
X0043000Y0197000
X0043500Y0196500
X0044500Y0196500
Y0197500
X0045500Y0197500
X0046500
Y0196500
X0045500
X0042500Y0197500
X0041500
X0060000Y0197500
Y0196500
X0061000Y0196500
Y0197500
X0062000
X0063000
X0064000
X0065000
X0066000
Y0196500
X0065000
X0064000Y0196500
X0063000Y0196500
X0062000
X0067000
Y0197500
X0079500Y0197000
X0080500
X0081000Y0196500
X0080000
X0082000Y0196500
X0082500Y0197000
X0083000Y0196500
X0084000
X0083500Y0197000
X0085000Y0196500
Y0197500
X0086000Y0197500
X0086500Y0197000
X0086000Y0196500
X0087000Y0196500
X0082000Y0197500
X0100000Y0197000
X0100500Y0196500
X0101500Y0196500
X0102000Y0197000
X0102500Y0196500
X0103500
X0103000Y0197000
X0104000
X0104500Y0196500
X0105500Y0196500
Y0197500
X0106500
Y0196500
X0107500
Y0197500
X0101500Y0197500
X0120500
Y0196500
X0121000Y0197000
X0122000
X0122500Y0196500
X0121500
X0123500
X0123000Y0197000
X0124000
X0124500Y0196500
X0125500
X0125000Y0197000
X0126500Y0196500
X0127500
Y0197500
X0126500
X0141000Y0197500
X0141500Y0197000
X0142500
X0143000Y0196500
X0142000
X0141000
X0144000Y0196500
X0145000
Y0197500
X0144000
X0145500Y0197000
X0146500
X0146000Y0196500
X0147000
X0148000Y0196500
Y0197500
X0161000Y0197000
X0161500Y0196500
X0162500Y0196500
Y0197500
X0163500
X0164500
X0165500
Y0196500
X0164500
X0163500
X0166500Y0196500
X0167500Y0196500
Y0197500
X0168500
Y0196500
X0166000Y0197000
X0181500Y0197500
X0182500Y0197500
X0183500Y0197500
Y0196500
X0182500
X0181500Y0196500
X0184500
X0184000Y0197000
X0185000
X0186000
X0186500Y0196500
X0187500Y0196500
X0188500
Y0197500
X0187500
X0185500Y0196500
X0236000Y0168000
Y0167000
X0237000
Y0168000
Y0169000
X0238000
Y0168000
Y0167000
Y0166000
Y0165000
X0237000
X0236000
X0236000Y0161000
X0237000Y0161000
Y0160000
X0238000
Y0159000
X0237000
X0236000
Y0160000
X0238000Y0162000
Y0163000
X0239000
Y0162000
Y0161000
Y0160000
X0240000
Y0159000
X0241000
X0242000
Y0160000
X0241000
Y0161000
X0240000
Y0162000
X0241000
X0242000
X0243000
X0244000
X0245000
X0246000
X0247000
Y0161000
X0248000
Y0162000
Y0163000
Y0164000
X0249000
Y0165000
X0248000
X0247000
X0246000
Y0166000
Y0167000
X0245000
X0244000
Y0168000
Y0169000
X0243000Y0168000
X0242000
X0241000
X0240000
Y0169000
X0239000
Y0167000
Y0166000
Y0165000
Y0164000
X0240000
X0241000
Y0165000
X0242000
X0243000
X0244000
Y0164000
X0243000
Y0166000
X0242000
X0240000
Y0165000
Y0167000
X0243000
X0245000Y0166000
Y0165000
X0245000Y0163000
X0244000
Y0161000
X0243000
Y0160000
Y0159000
X0244000
X0245000
X0246000
X0247000
X0248000
Y0160000
X0249000
Y0159000
Y0161000
X0250000Y0162000
X0252000Y0162000
Y0163000
X0253000
Y0162000
Y0161000
X0254000
Y0162000
Y0163000
X0255000
X0256000
Y0162000
X0255000
X0256000Y0161000
Y0160000
X0255000
Y0159000
X0256000
X0257000
Y0160000
Y0161000
X0258000
Y0160000
X0259000
X0260000
Y0161000
Y0162000
X0261000
Y0161000
X0262000
X0263000
Y0162000
X0262000
Y0163000
Y0164000
X0261000
X0260000
X0259000
Y0165000
X0258000
Y0164000
X0257000
X0256000
X0255000Y0164000
Y0165000
X0254000
X0253000
X0252000
Y0164000
X0251000
X0253000
X0254000
Y0166000
X0255000
Y0167000
X0256000Y0167000
Y0168000
X0257000
Y0167000
Y0166000
X0256000
Y0165000
X0257000
Y0163000
Y0162000
X0258000
X0259000
Y0161000
Y0159000
X0260000
X0261000
X0262000
X0263000
Y0160000
X0262000
X0261000
Y0163000
X0260000
X0259000
X0258000
Y0166000
X0259000
X0260000
Y0167000
Y0168000
X0259000
Y0167000
X0258000
Y0168000
X0258000Y0169000
X0259000
X0260000
X0263000
Y0168000
Y0167000
X0262000
Y0166000
X0261000
Y0167000
Y0165000
X0260000
X0262000
X0263000
X0264000Y0167000
Y0168000
Y0162000
Y0161000
Y0160000
Y0159000
X0258000Y0159000
X0254000
Y0160000
X0253000
X0252000
X0251000
Y0161000
X0252000
Y0159000
X0253000
X0251000
X0247000Y0160000
X0246000
X0245000
Y0161000
X0246000Y0163000
X0247000Y0164000
Y0166000
Y0167000
X0248000
X0249000Y0168000
X0249000Y0169000
X0252000Y0169000
X0252000Y0168000
X0254000Y0167000
X0256000Y0169000
X0257000
X0242000Y0163000
X0241000
X0240000
X0239000Y0159000
X0318500Y0165500
Y0166500
X0319000Y0166000
Y0167000
X0318500Y0168000
Y0169000
X0319000Y0168500
Y0169500
X0318500Y0172000
Y0173000
X0319000Y0172500
Y0173500
Y0175000
Y0176000
X0318500Y0175500
Y0174500
Y0194500
Y0195500
X0319000Y0195000
Y0196000
Y0197500
X0318500Y0198000
Y0197000
X0355500Y0196500
X0356500
Y0188500
X0355500
Y0186500
X0356500
Y0184500
X0355500
Y0182500
X0356500
Y0180500
X0355500
Y0178500
X0356500
Y0174500
X0355500
Y0172500
X0356500
X0356500Y0169500
X0355500Y0167500
X0354500
X0353500Y0165500
X0352500
X0352500Y0164500
X0351500
Y0163500
X0350500
Y0162500
X0349500
X0349500Y0161500
X0348500
X0346000Y0159000
X0345000
X0357500Y0169500
X0384650Y0169070
Y0167800
X0387190
Y0166530
X0385920
Y0165260
X0384650Y0164260
Y0162990
Y0161450
Y0160180
X0387190
Y0158910
X0383380
X0382110Y0159180
Y0160450
X0383380Y0161450
Y0162720
X0385920
Y0161450
X0387190Y0162720
X0388460
Y0163990
X0387190
X0392000
Y0162720
X0389730Y0161450
Y0160180
X0390730Y0165260
Y0166530
X0392000Y0167800
Y0169070
X0388460
Y0167800
X0383380Y0166530
Y0165260
X0382110
Y0163990
X0384650Y0170610
Y0171880
X0385920Y0172880
Y0174150
X0389730Y0174420
Y0175690
X0388460Y0177960
Y0179230
X0380840
Y0177960
X0391000Y0173150
Y0171880
X0356500Y0198500
X0355500
Y0200500
X0356500
Y0202500
X0355500
X0319000Y0202500
Y0201500
X0318500Y0202000
Y0201000
Y0203500
Y0204500
X0319000Y0205000
X0319000Y0204000
Y0198500
X0290300Y0207810
Y0209080
X0313500Y0242500
Y0243500
Y0244500
Y0245500
Y0246500
Y0247500
Y0248500
Y0249500
Y0250500
Y0251500
X0321500Y0240000
X0322500
X0323500
X0324500
T02
X0388325Y0132375
X0387055Y0134915
Y0139995
X0236000Y0151000
X0248000Y0166000
X0249000
Y0167000
X0250000Y0168000
X0251000Y0167000
Y0166000
X0252000
X0253000
Y0167000
X0252000
X0189500Y0214580
X0190000Y0215850
T03
X0246000Y0155000
X0250000Y0152000
Y0158000
X0254000Y0155000
T04
X0219000Y0233000
X0224000
X0229000
T05
X0268500Y0158532
T06
X0279500Y0040000
X0294500
Y0075000
X0279500
X0273400Y0058400
Y0048300
X0264000Y0050500
Y0061000
X0251500Y0048500
X0235000
X0233000Y0044500
X0223500Y0046468
X0221000Y0048500
X0219300Y0044500
X0218000Y0059000
X0219000Y0062000
X0221000Y0066000
X0223310Y0063702
X0233500Y0062000
X0232000Y0060500
X0235000Y0066000
X0232000Y0078000
X0218000
X0213000Y0119000
X0324500Y0116000
X0324500Y0112800
X0324500Y0109500
X0324500Y0105800
Y0119800
Y0134800
X0324500Y0138500
X0324500Y0141800
X0324500Y0145000
X0324500Y0148800
Y0163800
X0324500Y0167500
X0324500Y0170800
X0324500Y0174000
X0324500Y0177800
Y0192800
X0324500Y0196500
X0324500Y0199800
X0324500Y0203000
X0324500Y0206800
X0289500Y0212000
X0283500Y0205270
X0265500Y0204000
X0263500
X0260500
X0257500
X0255500
X0242000Y0234700
X0243500Y0237000
T07
X0158920Y0062500
X0179240
X0178240Y0059000
X0174740Y0054000
X0154420
X0157920Y0059000
X0137600
X0138600Y0062500
X0134100Y0054000
X0113780
X0117280Y0059000
X0118280Y0062500
X0097960
X0096960Y0059000
X0093460Y0054000
X0073140
X0076640Y0059000
X0077640Y0062500
X0057320
X0056320Y0059000
X0052820Y0054000
X0032500
X0036000Y0059000
X0037000Y0062500
X0252000Y0126000
X0247500Y0134500
X0259500Y0135000
X0211000Y0155000
X0244500Y0207040
X0247500Y0204500
X0251500Y0203000
Y0214500
X0266500Y0214000
X0270500Y0207000
X0031200Y0265500
X0051520
X0071840
X0092160
X0112480
X0132800
X0153120
X0173440
X0320000Y0257500
X0327500Y0254500
Y0249420
X0332000Y0249276
X0340649Y0249011
X0337430Y0253563
X0344000Y0258000
X0354619Y0259806
X0351497Y0250080
X0354619Y0243296
T08
X0222500Y0152000
X0221000Y0153500
T09
X0375000Y0237500
X0229000Y0239000
X0226460
X0224000Y0239000
X0221460
X0219000
X0216460
X0375000Y0240040
T10
X0173003Y0077520
X0174908Y0076250
Y0078790
X0176812Y0077520
X0178717Y0078790
Y0076250
X0158398
Y0078790
X0156492Y0077520
X0154587Y0076250
Y0078790
X0152682Y0077520
X0138077Y0078790
Y0076250
X0136173Y0077520
X0134268Y0076250
Y0078790
X0132363Y0077520
X0117757Y0078790
Y0076250
X0115853Y0077520
X0113948Y0076250
Y0078790
X0112043Y0077520
X0097438Y0078790
Y0076250
X0095533Y0077520
X0093628Y0076250
Y0078790
X0091723Y0077520
X0077118Y0078790
Y0076250
X0075213Y0077520
X0073308Y0076250
Y0078790
X0071402Y0077520
X0056798Y0078790
Y0076250
X0054893Y0077520
X0052987Y0076250
Y0078790
X0051083Y0077520
X0036478Y0078790
Y0076250
X0034572Y0077520
X0032667Y0076250
Y0078790
X0030763Y0077520
Y0080060
Y0082600
Y0085140
Y0087680
Y0090220
Y0092760
Y0095300
Y0097840
Y0100380
Y0102920
Y0105460
Y0108000
X0032667Y0106730
Y0104190
Y0101650
Y0099110
Y0096570
Y0094030
Y0091490
Y0088950
Y0086410
Y0083870
Y0081330
X0034572Y0080060
Y0082600
Y0085140
Y0087680
Y0090220
Y0092760
Y0095300
Y0097840
Y0100380
Y0102920
Y0105460
Y0108000
X0036478Y0106730
Y0104190
Y0101650
Y0099110
Y0096570
Y0094030
Y0091490
Y0088950
Y0086410
Y0083870
Y0081330
X0051083Y0082600
Y0085140
Y0087680
Y0090220
Y0092760
Y0095300
Y0097840
Y0100380
Y0102920
Y0105460
Y0108000
X0052987Y0106730
Y0104190
Y0101650
Y0099110
Y0096570
Y0094030
Y0091490
Y0088950
Y0086410
Y0083870
Y0081330
X0051083Y0080060
X0054893
Y0082600
Y0085140
Y0087680
Y0090220
Y0092760
Y0095300
Y0097840
Y0100380
Y0102920
Y0105460
Y0108000
X0056798Y0106730
Y0104190
Y0101650
Y0099110
Y0096570
Y0094030
Y0091490
Y0088950
Y0086410
Y0083870
Y0081330
X0071402Y0082600
Y0085140
Y0087680
Y0090220
Y0092760
Y0095300
Y0097840
Y0100380
Y0102920
Y0105460
Y0108000
X0073308Y0106730
Y0104190
Y0101650
Y0099110
Y0096570
Y0094030
Y0091490
Y0088950
Y0086410
Y0083870
Y0081330
X0071402Y0080060
X0075213
Y0082600
Y0085140
Y0087680
Y0090220
Y0092760
Y0095300
Y0097840
Y0100380
Y0102920
Y0105460
Y0108000
X0077118Y0106730
Y0104190
Y0101650
Y0099110
Y0096570
Y0094030
Y0091490
Y0088950
Y0086410
Y0083870
Y0081330
X0091723Y0082600
Y0085140
Y0087680
Y0090220
Y0092760
Y0095300
Y0097840
Y0100380
Y0102920
Y0105460
Y0108000
X0093628Y0106730
Y0104190
Y0101650
Y0099110
Y0096570
Y0094030
Y0091490
Y0088950
Y0086410
Y0083870
Y0081330
X0091723Y0080060
X0095533
Y0082600
Y0085140
Y0087680
Y0090220
Y0092760
Y0095300
Y0097840
Y0100380
Y0102920
Y0105460
Y0108000
X0097438Y0106730
Y0104190
Y0101650
Y0099110
Y0096570
Y0094030
Y0091490
Y0088950
Y0086410
Y0083870
Y0081330
X0112043Y0082600
Y0085140
Y0087680
Y0090220
Y0092760
Y0095300
Y0097840
Y0100380
Y0102920
Y0105460
Y0108000
X0113948Y0106730
Y0104190
Y0101650
Y0099110
Y0096570
Y0094030
Y0091490
Y0088950
Y0086410
Y0083870
Y0081330
X0112043Y0080060
X0115853
Y0082600
Y0085140
Y0087680
Y0090220
Y0092760
Y0095300
Y0097840
Y0100380
Y0102920
Y0105460
Y0108000
X0117757Y0106730
Y0104190
Y0101650
Y0099110
Y0096570
Y0094030
Y0091490
Y0088950
Y0086410
Y0083870
Y0081330
X0132363Y0082600
Y0085140
Y0087680
Y0090220
Y0092760
Y0095300
Y0097840
Y0100380
Y0102920
Y0105460
Y0108000
X0134268Y0106730
Y0104190
Y0101650
Y0099110
Y0096570
Y0094030
Y0091490
Y0088950
Y0086410
Y0083870
Y0081330
X0132363Y0080060
X0136173
Y0082600
Y0085140
Y0087680
Y0090220
Y0092760
Y0095300
Y0097840
Y0100380
Y0102920
Y0105460
Y0108000
X0138077Y0106730
Y0104190
Y0101650
Y0099110
Y0096570
Y0094030
Y0091490
Y0088950
Y0086410
Y0083870
Y0081330
X0152682Y0082600
Y0085140
Y0087680
Y0090220
Y0092760
Y0095300
Y0097840
Y0100380
Y0102920
Y0105460
Y0108000
X0154587Y0106730
Y0104190
Y0101650
Y0099110
Y0096570
Y0094030
Y0091490
Y0088950
Y0086410
Y0083870
Y0081330
X0152682Y0080060
X0156492
Y0082600
Y0085140
Y0087680
Y0090220
Y0092760
Y0095300
Y0097840
Y0100380
Y0102920
Y0105460
Y0108000
X0158398Y0106730
Y0104190
Y0101650
Y0099110
Y0096570
Y0094030
Y0091490
Y0088950
Y0086410
Y0083870
Y0081330
X0173003Y0082600
Y0085140
Y0087680
Y0090220
Y0092760
Y0095300
Y0097840
Y0100380
Y0102920
Y0105460
Y0108000
X0174908Y0106730
Y0104190
Y0101650
Y0099110
Y0096570
Y0094030
Y0091490
Y0088950
Y0086410
Y0083870
Y0081330
X0173003Y0080060
X0176812
Y0082600
Y0085140
Y0087680
Y0090220
Y0092760
Y0095300
Y0097840
Y0100380
Y0102920
Y0105460
Y0108000
X0178717Y0106730
Y0104190
Y0101650
Y0099110
Y0096570
Y0094030
Y0091490
Y0088950
Y0086410
Y0083870
Y0081330
X0251500Y0187500
X0254500
X0257500
X0256000Y0190000
X0259000
X0253000
X0250000
X0178717Y0209500
Y0212040
Y0214580
Y0217120
Y0219660
Y0222200
Y0224740
Y0227280
Y0229820
Y0232360
Y0234900
Y0237440
X0176812Y0236170
Y0233630
Y0231090
Y0228550
Y0226010
Y0223470
Y0220930
Y0218390
Y0215850
Y0213310
Y0210770
X0174908Y0209500
Y0212040
Y0214580
Y0217120
Y0219660
Y0222200
Y0224740
Y0227280
Y0229820
Y0232360
Y0234900
Y0237440
X0173003Y0236170
Y0233630
Y0231090
Y0228550
Y0226010
Y0223470
Y0220930
Y0218390
Y0215850
Y0213310
Y0210770
X0158398Y0212040
Y0214580
Y0217120
Y0219660
Y0222200
Y0224740
Y0227280
Y0229820
Y0232360
Y0234900
Y0237440
X0156492Y0236170
Y0233630
Y0231090
Y0228550
Y0226010
Y0223470
Y0220930
Y0218390
Y0215850
Y0213310
Y0210770
X0154587Y0209500
Y0212040
Y0214580
Y0217120
Y0219660
Y0222200
Y0224740
Y0227280
Y0229820
Y0232360
Y0234900
Y0237440
X0152682Y0236170
Y0233630
Y0231090
Y0228550
Y0226010
Y0223470
Y0220930
Y0218390
Y0215850
Y0213310
Y0210770
X0158398Y0209500
X0138077
Y0212040
Y0214580
Y0217120
Y0219660
Y0222200
Y0224740
Y0227280
Y0229820
Y0232360
Y0234900
Y0237440
X0136173Y0236170
Y0233630
Y0231090
Y0228550
Y0226010
Y0223470
Y0220930
Y0218390
Y0215850
Y0213310
Y0210770
X0134268Y0209500
Y0212040
Y0214580
Y0217120
Y0219660
Y0222200
Y0224740
Y0227280
Y0229820
Y0232360
Y0234900
Y0237440
X0132363Y0236170
Y0233630
Y0231090
Y0228550
Y0226010
Y0223470
Y0220930
Y0218390
Y0215850
Y0213310
Y0210770
X0117757Y0212040
Y0214580
Y0217120
Y0219660
Y0222200
Y0224740
Y0227280
Y0229820
Y0232360
Y0234900
Y0237440
X0115853Y0236170
Y0233630
Y0231090
Y0228550
Y0226010
Y0223470
Y0220930
Y0218390
Y0215850
Y0213310
Y0210770
X0113948Y0209500
Y0212040
Y0214580
Y0217120
Y0219660
Y0222200
Y0224740
Y0227280
Y0229820
Y0232360
Y0234900
Y0237440
X0112043Y0236170
Y0233630
Y0231090
Y0228550
Y0226010
Y0223470
Y0220930
Y0218390
Y0215850
Y0213310
Y0210770
X0117757Y0209500
X0097438
Y0212040
Y0214580
Y0217120
Y0219660
Y0222200
Y0224740
Y0227280
Y0229820
Y0232360
Y0234900
Y0237440
X0095533Y0236170
Y0233630
Y0231090
Y0228550
Y0226010
Y0223470
Y0220930
Y0218390
Y0215850
Y0213310
Y0210770
X0093628Y0209500
Y0212040
Y0214580
Y0217120
Y0219660
Y0222200
Y0224740
Y0227280
Y0229820
Y0232360
Y0234900
Y0237440
X0091723Y0236170
Y0233630
Y0231090
Y0228550
Y0226010
Y0223470
Y0220930
Y0218390
Y0215850
Y0213310
Y0210770
X0077118Y0212040
Y0214580
Y0217120
Y0219660
Y0222200
Y0224740
Y0227280
Y0229820
Y0232360
Y0234900
Y0237440
X0075213Y0236170
Y0233630
Y0231090
Y0228550
Y0226010
Y0223470
Y0220930
Y0218390
Y0215850
Y0213310
Y0210770
X0073308Y0209500
Y0212040
Y0214580
Y0217120
Y0219660
Y0222200
Y0224740
Y0227280
Y0229820
Y0232360
Y0234900
Y0237440
X0071402Y0236170
Y0233630
Y0231090
Y0228550
Y0226010
Y0223470
Y0220930
Y0218390
Y0215850
Y0213310
Y0210770
X0077118Y0209500
X0056798
Y0212040
Y0214580
Y0217120
Y0219660
Y0222200
Y0224740
Y0227280
Y0229820
Y0232360
Y0234900
Y0237440
X0054893Y0236170
Y0233630
Y0231090
Y0228550
Y0226010
Y0223470
Y0220930
Y0218390
Y0215850
Y0213310
Y0210770
X0052987Y0209500
Y0212040
Y0214580
Y0217120
Y0219660
Y0222200
Y0224740
Y0227280
Y0229820
Y0232360
Y0234900
Y0237440
X0051083Y0236170
Y0233630
Y0231090
Y0228550
Y0226010
Y0223470
Y0220930
Y0218390
Y0215850
Y0213310
Y0210770
X0036478Y0212040
Y0214580
Y0217120
Y0219660
Y0222200
Y0224740
Y0227280
Y0229820
Y0232360
Y0234900
Y0237440
X0034572Y0236170
Y0233630
Y0231090
Y0228550
Y0226010
Y0223470
Y0220930
Y0218390
Y0215850
Y0213310
Y0210770
X0032667Y0209500
Y0212040
Y0214580
Y0217120
Y0219660
Y0222200
Y0224740
Y0227280
Y0229820
Y0232360
Y0234900
Y0237440
X0030763Y0236170
Y0233630
Y0231090
Y0228550
Y0226010
Y0223470
Y0220930
Y0218390
Y0215850
Y0213310
Y0210770
X0036478Y0209500
Y0239980
X0034572Y0241250
Y0238710
X0032667Y0239980
X0030763Y0238710
Y0241250
X0051083
Y0238710
X0052987Y0239980
X0054893Y0241250
Y0238710
X0056798Y0239980
X0071402Y0238710
Y0241250
X0073308Y0239980
X0075213Y0241250
Y0238710
X0077118Y0239980
X0091723Y0238710
Y0241250
X0093628Y0239980
X0095533Y0241250
Y0238710
X0097438Y0239980
X0112043Y0238710
Y0241250
X0113948Y0239980
X0115853Y0241250
Y0238710
X0117757Y0239980
X0132363Y0238710
Y0241250
X0134268Y0239980
X0136173Y0241250
Y0238710
X0138077Y0239980
X0152682Y0238710
Y0241250
X0154587Y0239980
X0156492Y0241250
Y0238710
X0158398Y0239980
X0173003Y0238710
Y0241250
X0174908Y0239980
X0176812Y0241250
Y0238710
X0178717Y0239980
T11
X0257840Y0126000
Y0128500
X0260400
X0262900
Y0126000
X0260400
X0265460
Y0128500
X0268000
Y0126000
X0239040Y0204500
Y0207040
Y0209580
Y0212120
Y0214660
X0236500
Y0212120
Y0209580
Y0207040
Y0204500
T12
X0280000Y0090000
X0285080
X0064500Y0154000
Y0159080
X0279000Y0260000
X0284080
T13
X0382725Y0128045
X0385775Y0182425
T14
X0357960Y0220460
Y0225540
X0363040
Y0220460
X0360500Y0223000
X0352040Y0225540
X0346960
Y0220460
X0352040
X0349500Y0223000
X0341040Y0220460
X0335960
Y0225540
X0341040
X0338500Y0223000
X0207540Y0222540
X0202460
Y0217460
X0207540
X0205000Y0220000
T15
X0285500Y0048260
Y0053340
Y0058420
Y0063500
T16
X0175860Y0072440
X0155540
X0135220
X0114900
X0094580
X0074260
X0053940
X0033620
Y0111810
X0053940
X0074260
X0094580
X0114900
X0135220
X0155540
X0175860
Y0205690
X0155540
X0135220
X0114900
X0094580
X0074260
X0053940
X0033620
Y0245060
X0053940
X0074260
X0094580
X0114900
X0135220
X0155540
X0175860
T17
X0033620Y0028750
X0053940
X0074260
X0094580
X0114900
X0135220
X0155540
X0175860
X0196180
X0216500
X0236820
X0257140
X0277460
X0297780
X0318100
X0338420
X0287520Y0045730
Y0066030
X0285000Y0115000
X0390000
X0196180Y0151250
X0175860
X0155540
X0135220
X0114900
X0094580
X0074260
X0053940
X0033620
Y0162100
X0053940
X0074260
X0094580
X0114900
X0135220
X0155540
X0175860
X0196180
X0285000Y0195000
X0390000
X0374920Y0245250
Y0257950
X0338420Y0281250
X0318100
X0297780
X0277460
X0257140
X0236820
X0216500
X0196180
X0175860
X0155540
X0135220
X0114900
X0094580
X0074260
X0053940
X0033620
M30
