%FSAX43Y43*%
%MOMM*%
G71*
G01*
G75*
G04 Layer_Color=8388736*
%ADD10C,0.175*%
%ADD11O,0.305X1.016*%
%ADD12O,0.813X0.305*%
%ADD13R,0.762X2.540*%
%ADD14R,5.000X6.000*%
%ADD15O,1.016X0.305*%
%ADD16O,0.305X0.813*%
%ADD17R,3.048X3.048*%
%ADD18R,2.540X0.762*%
%ADD19R,6.000X5.000*%
%ADD20R,3.048X3.048*%
%ADD21O,0.508X1.016*%
%ADD22O,1.524X0.508*%
%ADD23O,1.016X0.508*%
%ADD24O,0.508X1.524*%
%ADD25O,2.100X6.000*%
%ADD26O,2.100X6.000*%
%ADD27C,0.150*%
%ADD28C,0.200*%
%ADD29C,0.120*%
%ADD30C,0.508*%
%ADD31C,1.524*%
%ADD32C,0.500*%
%ADD33C,1.000*%
%ADD34C,0.254*%
%ADD35C,1.160*%
%ADD36C,1.016*%
%ADD37C,0.400*%
%ADD38C,0.300*%
%ADD39C,0.305*%
%ADD40C,1.850*%
%ADD41R,1.850X1.850*%
%ADD42R,1.850X1.850*%
%ADD43C,4.000*%
%ADD44C,1.422*%
%ADD45C,2.438*%
%ADD46C,1.524*%
%ADD47C,3.000*%
%ADD48C,2.500*%
%ADD49C,1.575*%
%ADD50R,1.575X1.575*%
%ADD51R,1.575X1.575*%
%ADD52C,0.500*%
%ADD53C,1.300*%
%ADD54C,1.000*%
%ADD55C,1.200*%
%ADD56C,1.270*%
%ADD57C,0.600*%
%ADD58C,0.900*%
%ADD59C,2.000*%
G04:AMPARAMS|DCode=60|XSize=1.85mm|YSize=1.85mm|CornerRadius=0mm|HoleSize=0mm|Usage=FLASHONLY|Rotation=0.000|XOffset=0mm|YOffset=0mm|HoleType=Round|Shape=Relief|Width=0.175mm|Gap=0.2mm|Entries=4|*
%AMTHD60*
7,0,0,1.850,1.450,0.175,45*
%
%ADD60THD60*%
%ADD61C,3.400*%
%ADD62C,1.213*%
G04:AMPARAMS|DCode=63|XSize=2.0708mm|YSize=2.0708mm|CornerRadius=0mm|HoleSize=0mm|Usage=FLASHONLY|Rotation=0.000|XOffset=0mm|YOffset=0mm|HoleType=Round|Shape=Relief|Width=0.175mm|Gap=0.2mm|Entries=4|*
%AMTHD63*
7,0,0,2.071,1.671,0.175,45*
%
%ADD63THD63*%
%ADD64C,1.721*%
G04:AMPARAMS|DCode=65|XSize=1.65mm|YSize=1.65mm|CornerRadius=0mm|HoleSize=0mm|Usage=FLASHONLY|Rotation=0.000|XOffset=0mm|YOffset=0mm|HoleType=Round|Shape=Relief|Width=0.175mm|Gap=0.2mm|Entries=4|*
%AMTHD65*
7,0,0,1.650,1.250,0.175,45*
%
%ADD65THD65*%
%ADD66C,2.700*%
%ADD67C,2.200*%
G04:AMPARAMS|DCode=68|XSize=2.55mm|YSize=2.55mm|CornerRadius=0mm|HoleSize=0mm|Usage=FLASHONLY|Rotation=0.000|XOffset=0mm|YOffset=0mm|HoleType=Round|Shape=Relief|Width=0.175mm|Gap=0.2mm|Entries=4|*
%AMTHD68*
7,0,0,2.550,2.150,0.175,45*
%
%ADD68THD68*%
%ADD69C,1.416*%
G04:AMPARAMS|DCode=70|XSize=1.766mm|YSize=1.766mm|CornerRadius=0mm|HoleSize=0mm|Usage=FLASHONLY|Rotation=0.000|XOffset=0mm|YOffset=0mm|HoleType=Round|Shape=Relief|Width=0.175mm|Gap=0.2mm|Entries=4|*
%AMTHD70*
7,0,0,1.766,1.366,0.175,45*
%
%ADD70THD70*%
G04:AMPARAMS|DCode=71|XSize=1.5628mm|YSize=1.5628mm|CornerRadius=0mm|HoleSize=0mm|Usage=FLASHONLY|Rotation=0.000|XOffset=0mm|YOffset=0mm|HoleType=Round|Shape=Relief|Width=0.175mm|Gap=0.2mm|Entries=4|*
%AMTHD71*
7,0,0,1.563,1.163,0.175,45*
%
%ADD71THD71*%
%ADD72C,0.650*%
%ADD73C,0.700*%
G04:AMPARAMS|DCode=74|XSize=1mm|YSize=1mm|CornerRadius=0mm|HoleSize=0mm|Usage=FLASHONLY|Rotation=0.000|XOffset=0mm|YOffset=0mm|HoleType=Round|Shape=Relief|Width=0.175mm|Gap=0.2mm|Entries=4|*
%AMTHD74*
7,0,0,1.000,0.600,0.175,45*
%
%ADD74THD74*%
G04:AMPARAMS|DCode=75|XSize=1.05mm|YSize=1.05mm|CornerRadius=0mm|HoleSize=0mm|Usage=FLASHONLY|Rotation=0.000|XOffset=0mm|YOffset=0mm|HoleType=Round|Shape=Relief|Width=0.175mm|Gap=0.2mm|Entries=4|*
%AMTHD75*
7,0,0,1.050,0.650,0.175,45*
%
%ADD75THD75*%
%ADD76C,1.100*%
%ADD77C,1.111*%
G04:AMPARAMS|DCode=78|XSize=1.4612mm|YSize=1.4612mm|CornerRadius=0mm|HoleSize=0mm|Usage=FLASHONLY|Rotation=0.000|XOffset=0mm|YOffset=0mm|HoleType=Round|Shape=Relief|Width=0.175mm|Gap=0.2mm|Entries=4|*
%AMTHD78*
7,0,0,1.461,1.061,0.175,45*
%
%ADD78THD78*%
G04:AMPARAMS|DCode=79|XSize=1.45mm|YSize=1.45mm|CornerRadius=0mm|HoleSize=0mm|Usage=FLASHONLY|Rotation=0.000|XOffset=0mm|YOffset=0mm|HoleType=Round|Shape=Relief|Width=0.175mm|Gap=0.2mm|Entries=4|*
%AMTHD79*
7,0,0,1.450,1.050,0.175,45*
%
%ADD79THD79*%
%ADD80C,0.900*%
%ADD81C,1.670*%
%ADD82C,1.000*%
%ADD83O,1.270X0.762*%
%ADD84R,1.270X0.762*%
%ADD85O,0.508X1.778*%
%ADD86R,0.508X1.778*%
%ADD87R,1.270X2.108*%
G04:AMPARAMS|DCode=88|XSize=2.108mm|YSize=1.27mm|CornerRadius=0mm|HoleSize=0mm|Usage=FLASHONLY|Rotation=270.000|XOffset=0mm|YOffset=0mm|HoleType=Round|Shape=Octagon|*
%AMOCTAGOND88*
4,1,8,-0.318,-1.054,0.318,-1.054,0.635,-0.737,0.635,0.737,0.318,1.054,-0.318,1.054,-0.635,0.737,-0.635,-0.737,-0.318,-1.054,0.0*
%
%ADD88OCTAGOND88*%

%ADD89O,0.600X2.200*%
%ADD90R,0.250X1.600*%
%ADD91O,0.250X1.600*%
%ADD92O,1.600X0.250*%
%ADD93R,4.600X0.610*%
%ADD94R,4.600X0.810*%
%ADD95R,1.650X0.300*%
%ADD96O,1.778X0.381*%
%ADD97R,1.778X0.381*%
%ADD98C,0.250*%
%ADD99C,0.203*%
%ADD100O,0.508X1.219*%
%ADD101R,0.965X2.743*%
%ADD102R,5.203X6.203*%
%ADD103O,1.219X0.508*%
%ADD104R,3.251X3.251*%
%ADD105R,2.743X0.965*%
%ADD106R,6.203X5.203*%
%ADD107R,3.251X3.251*%
%ADD108O,0.711X1.219*%
%ADD109O,1.727X0.711*%
%ADD110O,1.219X0.711*%
%ADD111O,0.711X1.727*%
%ADD112O,2.303X6.203*%
%ADD113O,2.303X6.203*%
%ADD114C,2.053*%
%ADD115R,2.053X2.053*%
%ADD116R,2.053X2.053*%
%ADD117C,0.203*%
%ADD118C,4.203*%
%ADD119C,1.626*%
%ADD120C,2.642*%
%ADD121C,1.727*%
%ADD122C,3.203*%
%ADD123C,2.703*%
%ADD124C,1.778*%
%ADD125R,1.778X1.778*%
%ADD126R,1.778X1.778*%
%ADD127C,0.703*%
%ADD128C,1.503*%
%ADD129C,1.203*%
%ADD130C,1.403*%
%ADD131C,1.473*%
%ADD132C,0.803*%
%ADD133C,2.203*%
G54D21*
X0266644Y0156500D02*
D03*
X0267356D02*
D03*
Y0158532D02*
D03*
X0266644D02*
D03*
X0250356Y0151232D02*
D03*
X0249644D02*
D03*
Y0149200D02*
D03*
X0250356D02*
D03*
X0249644Y0158768D02*
D03*
X0250356D02*
D03*
Y0160800D02*
D03*
X0249644D02*
D03*
X0242456Y0239232D02*
D03*
X0241744D02*
D03*
Y0237200D02*
D03*
X0242456D02*
D03*
X0240556Y0236832D02*
D03*
X0239844D02*
D03*
Y0234800D02*
D03*
X0240556D02*
D03*
X0055176Y0062032D02*
D03*
X0054464D02*
D03*
Y0060000D02*
D03*
X0055176D02*
D03*
X0075496Y0062032D02*
D03*
X0074784D02*
D03*
Y0060000D02*
D03*
X0075496D02*
D03*
X0095816Y0062032D02*
D03*
X0095104D02*
D03*
Y0060000D02*
D03*
X0095816D02*
D03*
X0116136Y0062032D02*
D03*
X0115424D02*
D03*
Y0060000D02*
D03*
X0116136D02*
D03*
X0055176Y0065532D02*
D03*
X0054464D02*
D03*
Y0063500D02*
D03*
X0055176D02*
D03*
X0075496Y0065500D02*
D03*
X0074784D02*
D03*
Y0063468D02*
D03*
X0075496D02*
D03*
X0095816Y0065532D02*
D03*
X0095104D02*
D03*
Y0063500D02*
D03*
X0095816D02*
D03*
X0116136Y0065532D02*
D03*
X0115424D02*
D03*
Y0063500D02*
D03*
X0116136D02*
D03*
X0034856Y0065532D02*
D03*
X0034144D02*
D03*
Y0063500D02*
D03*
X0034856D02*
D03*
X0235644Y0046468D02*
D03*
X0236356D02*
D03*
Y0048500D02*
D03*
X0235644D02*
D03*
X0221644Y0063968D02*
D03*
X0222356D02*
D03*
Y0066000D02*
D03*
X0221644D02*
D03*
X0235644Y0063968D02*
D03*
X0236356D02*
D03*
Y0066000D02*
D03*
X0235644D02*
D03*
X0221944Y0046468D02*
D03*
X0222656D02*
D03*
Y0048500D02*
D03*
X0221944D02*
D03*
X0034856Y0062032D02*
D03*
X0034144D02*
D03*
Y0060000D02*
D03*
X0034856D02*
D03*
X0156776Y0063468D02*
D03*
X0156064D02*
D03*
Y0065500D02*
D03*
X0156776D02*
D03*
X0177096Y0063468D02*
D03*
X0176384D02*
D03*
Y0065500D02*
D03*
X0177096D02*
D03*
X0136456Y0063468D02*
D03*
X0135744D02*
D03*
Y0065500D02*
D03*
X0136456D02*
D03*
Y0060000D02*
D03*
X0135744D02*
D03*
Y0062032D02*
D03*
X0136456D02*
D03*
X0156776Y0060000D02*
D03*
X0156064D02*
D03*
Y0062032D02*
D03*
X0156776D02*
D03*
X0177096Y0060000D02*
D03*
X0176384D02*
D03*
Y0062032D02*
D03*
X0177096D02*
D03*
X0210644Y0158500D02*
D03*
X0211356D02*
D03*
Y0156468D02*
D03*
X0210644D02*
D03*
X0336144Y0256800D02*
D03*
X0336856D02*
D03*
Y0254768D02*
D03*
X0336144D02*
D03*
X0329356Y0247000D02*
D03*
X0328644D02*
D03*
Y0249032D02*
D03*
X0329356D02*
D03*
Y0255200D02*
D03*
X0328644D02*
D03*
Y0257232D02*
D03*
X0329356D02*
D03*
X0234856Y0167000D02*
D03*
X0234144D02*
D03*
Y0169032D02*
D03*
X0234856D02*
D03*
X0265144Y0157532D02*
D03*
X0265856D02*
D03*
Y0155500D02*
D03*
X0265144D02*
D03*
X0250144Y0171000D02*
D03*
X0250856D02*
D03*
Y0168968D02*
D03*
X0250144D02*
D03*
X0265144Y0150500D02*
D03*
X0265856D02*
D03*
Y0148468D02*
D03*
X0265144D02*
D03*
X0265856Y0167000D02*
D03*
X0265144D02*
D03*
Y0169032D02*
D03*
X0265856D02*
D03*
X0234144Y0143500D02*
D03*
X0234856D02*
D03*
Y0141468D02*
D03*
X0234144D02*
D03*
X0265144Y0143000D02*
D03*
X0265856D02*
D03*
Y0140968D02*
D03*
X0265144D02*
D03*
G54D23*
X0141854Y0063144D02*
D03*
Y0063856D02*
D03*
X0143886D02*
D03*
Y0063144D02*
D03*
X0183994Y0249356D02*
D03*
Y0248644D02*
D03*
X0186026D02*
D03*
Y0249356D02*
D03*
X0181708Y0250856D02*
D03*
Y0250144D02*
D03*
X0183740D02*
D03*
Y0250856D02*
D03*
X0163674Y0249356D02*
D03*
Y0248644D02*
D03*
X0165706D02*
D03*
Y0249356D02*
D03*
X0161388Y0250856D02*
D03*
Y0250144D02*
D03*
X0163420D02*
D03*
Y0250856D02*
D03*
X0143354Y0249356D02*
D03*
Y0248644D02*
D03*
X0145386D02*
D03*
Y0249356D02*
D03*
X0245032Y0154644D02*
D03*
Y0155356D02*
D03*
X0243000D02*
D03*
Y0154644D02*
D03*
X0247000Y0155356D02*
D03*
Y0154644D02*
D03*
X0249032D02*
D03*
Y0155356D02*
D03*
X0254968Y0155356D02*
D03*
Y0154644D02*
D03*
X0257000D02*
D03*
Y0155356D02*
D03*
X0253000Y0154644D02*
D03*
Y0155356D02*
D03*
X0250968D02*
D03*
Y0154644D02*
D03*
X0177708Y0250856D02*
D03*
Y0250144D02*
D03*
X0179740D02*
D03*
Y0250856D02*
D03*
X0171422Y0267342D02*
D03*
Y0266630D02*
D03*
X0173454D02*
D03*
Y0267342D02*
D03*
X0062606Y0063144D02*
D03*
Y0063856D02*
D03*
X0060574D02*
D03*
Y0063144D02*
D03*
X0082926D02*
D03*
Y0063856D02*
D03*
X0080894D02*
D03*
Y0063144D02*
D03*
X0103246D02*
D03*
Y0063856D02*
D03*
X0101214D02*
D03*
Y0063144D02*
D03*
X0123566D02*
D03*
Y0063856D02*
D03*
X0121534D02*
D03*
Y0063144D02*
D03*
X0058852Y0065144D02*
D03*
Y0065856D02*
D03*
X0056820D02*
D03*
Y0065144D02*
D03*
X0079172Y0065144D02*
D03*
Y0065856D02*
D03*
X0077140D02*
D03*
Y0065144D02*
D03*
X0099492D02*
D03*
Y0065856D02*
D03*
X0097460D02*
D03*
Y0065144D02*
D03*
X0119812D02*
D03*
Y0065856D02*
D03*
X0117780D02*
D03*
Y0065144D02*
D03*
X0038532D02*
D03*
Y0065856D02*
D03*
X0036500D02*
D03*
Y0065144D02*
D03*
X0229841Y0063677D02*
D03*
Y0062965D02*
D03*
X0231873D02*
D03*
Y0063677D02*
D03*
X0215968Y0046356D02*
D03*
Y0045644D02*
D03*
X0218000D02*
D03*
Y0046356D02*
D03*
X0215968Y0063856D02*
D03*
Y0063144D02*
D03*
X0218000D02*
D03*
Y0063856D02*
D03*
X0229968Y0046356D02*
D03*
Y0045644D02*
D03*
X0232000D02*
D03*
Y0046356D02*
D03*
X0267968Y0061356D02*
D03*
Y0060644D02*
D03*
X0270000D02*
D03*
Y0061356D02*
D03*
X0110462Y0267342D02*
D03*
Y0266630D02*
D03*
X0112494D02*
D03*
Y0267342D02*
D03*
X0042532Y0063144D02*
D03*
Y0063856D02*
D03*
X0040500D02*
D03*
Y0063144D02*
D03*
X0267968Y0050856D02*
D03*
Y0050144D02*
D03*
X0270000D02*
D03*
Y0050856D02*
D03*
X0051534Y0267342D02*
D03*
Y0266630D02*
D03*
X0049502D02*
D03*
Y0267342D02*
D03*
X0071854Y0267342D02*
D03*
Y0266630D02*
D03*
X0069822D02*
D03*
Y0267342D02*
D03*
X0078140Y0250856D02*
D03*
Y0250144D02*
D03*
X0076108D02*
D03*
Y0250856D02*
D03*
X0043786Y0249356D02*
D03*
Y0248644D02*
D03*
X0041754D02*
D03*
Y0249356D02*
D03*
X0061820Y0250856D02*
D03*
Y0250144D02*
D03*
X0059788D02*
D03*
Y0250856D02*
D03*
X0064106Y0249356D02*
D03*
Y0248644D02*
D03*
X0062074D02*
D03*
Y0249356D02*
D03*
X0158420Y0065144D02*
D03*
Y0065856D02*
D03*
X0160452D02*
D03*
Y0065144D02*
D03*
X0178740D02*
D03*
Y0065856D02*
D03*
X0180772D02*
D03*
Y0065144D02*
D03*
X0041500Y0250856D02*
D03*
Y0250144D02*
D03*
X0039468D02*
D03*
Y0250856D02*
D03*
X0125200Y0249356D02*
D03*
Y0248644D02*
D03*
X0123168D02*
D03*
Y0249356D02*
D03*
X0143100Y0250856D02*
D03*
Y0250144D02*
D03*
X0141068D02*
D03*
Y0250856D02*
D03*
X0138100Y0065144D02*
D03*
Y0065856D02*
D03*
X0140132D02*
D03*
Y0065144D02*
D03*
X0162174Y0063044D02*
D03*
Y0063756D02*
D03*
X0164206D02*
D03*
Y0063044D02*
D03*
X0182494Y0063144D02*
D03*
Y0063856D02*
D03*
X0184526D02*
D03*
Y0063144D02*
D03*
X0031200Y0267356D02*
D03*
Y0266644D02*
D03*
X0029168D02*
D03*
Y0267356D02*
D03*
X0092174Y0267342D02*
D03*
Y0266630D02*
D03*
X0090142D02*
D03*
Y0267342D02*
D03*
X0098460Y0250856D02*
D03*
Y0250144D02*
D03*
X0096428D02*
D03*
Y0250856D02*
D03*
X0118780Y0250856D02*
D03*
Y0250144D02*
D03*
X0116748D02*
D03*
Y0250856D02*
D03*
X0132814Y0267342D02*
D03*
Y0266630D02*
D03*
X0130782D02*
D03*
Y0267342D02*
D03*
X0139100Y0250856D02*
D03*
Y0250144D02*
D03*
X0137068D02*
D03*
Y0250856D02*
D03*
X0151102Y0267342D02*
D03*
Y0266630D02*
D03*
X0153134D02*
D03*
Y0267342D02*
D03*
X0159420Y0250856D02*
D03*
Y0250144D02*
D03*
X0157388D02*
D03*
Y0250856D02*
D03*
X0262000Y0138144D02*
D03*
Y0138856D02*
D03*
X0264032D02*
D03*
Y0138144D02*
D03*
X0082140Y0250856D02*
D03*
Y0250144D02*
D03*
X0080108D02*
D03*
Y0250856D02*
D03*
X0084426Y0249356D02*
D03*
Y0248644D02*
D03*
X0082394D02*
D03*
Y0249356D02*
D03*
X0102460Y0250856D02*
D03*
Y0250144D02*
D03*
X0100428D02*
D03*
Y0250856D02*
D03*
X0104746Y0249356D02*
D03*
Y0248644D02*
D03*
X0102714D02*
D03*
Y0249356D02*
D03*
X0122780Y0250856D02*
D03*
Y0250144D02*
D03*
X0120748D02*
D03*
Y0250856D02*
D03*
X0037500Y0250856D02*
D03*
Y0250144D02*
D03*
X0035468D02*
D03*
Y0250856D02*
D03*
X0057820Y0250856D02*
D03*
Y0250144D02*
D03*
X0055788D02*
D03*
Y0250856D02*
D03*
X0266500Y0132356D02*
D03*
Y0131644D02*
D03*
X0268532D02*
D03*
Y0132356D02*
D03*
X0260532Y0122144D02*
D03*
Y0122856D02*
D03*
X0258500D02*
D03*
Y0122144D02*
D03*
X0255532Y0125644D02*
D03*
Y0126356D02*
D03*
X0253500D02*
D03*
Y0125644D02*
D03*
X0250000Y0157256D02*
D03*
Y0156544D02*
D03*
X0247968D02*
D03*
Y0157256D02*
D03*
X0328100Y0251444D02*
D03*
Y0252156D02*
D03*
X0330132D02*
D03*
Y0251444D02*
D03*
X0241000Y0155356D02*
D03*
Y0154644D02*
D03*
X0238968D02*
D03*
Y0155356D02*
D03*
X0242000Y0157356D02*
D03*
Y0156644D02*
D03*
X0239968D02*
D03*
Y0157356D02*
D03*
X0249500Y0148356D02*
D03*
Y0147644D02*
D03*
X0247468D02*
D03*
Y0148356D02*
D03*
X0250000Y0139644D02*
D03*
Y0140356D02*
D03*
X0252032D02*
D03*
Y0139644D02*
D03*
X0252032Y0152644D02*
D03*
Y0153356D02*
D03*
X0250000D02*
D03*
Y0152644D02*
D03*
X0344500Y0256356D02*
D03*
Y0255644D02*
D03*
X0342468D02*
D03*
Y0256356D02*
D03*
G54D33*
X0025000Y0025000D02*
X0400000D01*
X0025000Y0285000D02*
X0400000D01*
X0025000Y0025000D02*
Y0285000D01*
X0400000Y0025000D02*
Y0285000D01*
G54D100*
X0141854Y0063500D02*
D03*
X0143886D02*
D03*
X0142108D02*
D03*
X0141600D02*
D03*
X0143632D02*
D03*
X0144140D02*
D03*
X0183740Y0249000D02*
D03*
X0184248D02*
D03*
X0186280D02*
D03*
X0185772D02*
D03*
X0183994D02*
D03*
X0186026D02*
D03*
X0181454Y0250500D02*
D03*
X0181962D02*
D03*
X0183994D02*
D03*
X0183486D02*
D03*
X0181708D02*
D03*
X0183740D02*
D03*
X0163420Y0249000D02*
D03*
X0163928D02*
D03*
X0165960D02*
D03*
X0165452D02*
D03*
X0163674D02*
D03*
X0165706D02*
D03*
X0161134Y0250500D02*
D03*
X0161642D02*
D03*
X0163674D02*
D03*
X0163166D02*
D03*
X0161388D02*
D03*
X0163420D02*
D03*
X0143100Y0249000D02*
D03*
X0143608D02*
D03*
X0145640D02*
D03*
X0145132D02*
D03*
X0143354D02*
D03*
X0145386D02*
D03*
X0245286Y0155000D02*
D03*
X0244778D02*
D03*
X0242746D02*
D03*
X0243254D02*
D03*
X0245032D02*
D03*
X0243000D02*
D03*
X0246746Y0155000D02*
D03*
X0247254D02*
D03*
X0249286D02*
D03*
X0248778D02*
D03*
X0247000D02*
D03*
X0249032D02*
D03*
X0254714Y0155000D02*
D03*
X0255222D02*
D03*
X0257254D02*
D03*
X0256746D02*
D03*
X0254968D02*
D03*
X0257000D02*
D03*
X0253254Y0155000D02*
D03*
X0252746D02*
D03*
X0250714D02*
D03*
X0251222D02*
D03*
X0253000D02*
D03*
X0250968D02*
D03*
X0177454Y0250500D02*
D03*
X0177962D02*
D03*
X0179994D02*
D03*
X0179486D02*
D03*
X0177708D02*
D03*
X0179740D02*
D03*
X0171168Y0266986D02*
D03*
X0171676D02*
D03*
X0173708D02*
D03*
X0173200D02*
D03*
X0171422D02*
D03*
X0173454D02*
D03*
X0062860Y0063500D02*
D03*
X0062352D02*
D03*
X0060320D02*
D03*
X0060828D02*
D03*
X0062606D02*
D03*
X0060574D02*
D03*
X0083180D02*
D03*
X0082672D02*
D03*
X0080640D02*
D03*
X0081148D02*
D03*
X0082926D02*
D03*
X0080894D02*
D03*
X0103500D02*
D03*
X0102992D02*
D03*
X0100960D02*
D03*
X0101468D02*
D03*
X0103246D02*
D03*
X0101214D02*
D03*
X0123820D02*
D03*
X0123312D02*
D03*
X0121280D02*
D03*
X0121788D02*
D03*
X0123566D02*
D03*
X0121534D02*
D03*
X0059106Y0065500D02*
D03*
X0058598D02*
D03*
X0056566D02*
D03*
X0057074D02*
D03*
X0058852D02*
D03*
X0056820D02*
D03*
X0079426Y0065500D02*
D03*
X0078918D02*
D03*
X0076886D02*
D03*
X0077394D02*
D03*
X0079172D02*
D03*
X0077140D02*
D03*
X0099746D02*
D03*
X0099238D02*
D03*
X0097206D02*
D03*
X0097714D02*
D03*
X0099492D02*
D03*
X0097460D02*
D03*
X0120066D02*
D03*
X0119558D02*
D03*
X0117526D02*
D03*
X0118034D02*
D03*
X0119812D02*
D03*
X0117780D02*
D03*
X0038786D02*
D03*
X0038278D02*
D03*
X0036246D02*
D03*
X0036754D02*
D03*
X0038532D02*
D03*
X0036500D02*
D03*
X0229587Y0063321D02*
D03*
X0230095D02*
D03*
X0232127D02*
D03*
X0231619D02*
D03*
X0229841D02*
D03*
X0231873D02*
D03*
X0215714Y0046000D02*
D03*
X0216222D02*
D03*
X0218254D02*
D03*
X0217746D02*
D03*
X0215968D02*
D03*
X0218000D02*
D03*
X0215714Y0063500D02*
D03*
X0216222D02*
D03*
X0218254D02*
D03*
X0217746D02*
D03*
X0215968D02*
D03*
X0218000D02*
D03*
X0229714Y0046000D02*
D03*
X0230222D02*
D03*
X0232254D02*
D03*
X0231746D02*
D03*
X0229968D02*
D03*
X0232000D02*
D03*
X0267714Y0061000D02*
D03*
X0268222D02*
D03*
X0270254D02*
D03*
X0269746D02*
D03*
X0267968D02*
D03*
X0270000D02*
D03*
X0110208Y0266986D02*
D03*
X0110716D02*
D03*
X0112748D02*
D03*
X0112240D02*
D03*
X0110462D02*
D03*
X0112494D02*
D03*
X0042786Y0063500D02*
D03*
X0042278D02*
D03*
X0040246D02*
D03*
X0040754D02*
D03*
X0042532D02*
D03*
X0040500D02*
D03*
X0267714Y0050500D02*
D03*
X0268222D02*
D03*
X0270254D02*
D03*
X0269746D02*
D03*
X0267968D02*
D03*
X0270000D02*
D03*
X0051534Y0266986D02*
D03*
X0049502D02*
D03*
X0051280D02*
D03*
X0051788D02*
D03*
X0049756D02*
D03*
X0049248D02*
D03*
X0071854Y0266986D02*
D03*
X0069822D02*
D03*
X0071600D02*
D03*
X0072108D02*
D03*
X0070076D02*
D03*
X0069568D02*
D03*
X0078140Y0250500D02*
D03*
X0076108D02*
D03*
X0077886D02*
D03*
X0078394D02*
D03*
X0076362D02*
D03*
X0075854D02*
D03*
X0043786Y0249000D02*
D03*
X0041754D02*
D03*
X0043532D02*
D03*
X0044040D02*
D03*
X0042008D02*
D03*
X0041500D02*
D03*
X0061820Y0250500D02*
D03*
X0059788D02*
D03*
X0061566D02*
D03*
X0062074D02*
D03*
X0060042D02*
D03*
X0059534D02*
D03*
X0064106Y0249000D02*
D03*
X0062074D02*
D03*
X0063852D02*
D03*
X0064360D02*
D03*
X0062328D02*
D03*
X0061820D02*
D03*
X0158420Y0065500D02*
D03*
X0160452D02*
D03*
X0158674D02*
D03*
X0158166D02*
D03*
X0160198D02*
D03*
X0160706D02*
D03*
X0178740D02*
D03*
X0180772D02*
D03*
X0178994D02*
D03*
X0178486D02*
D03*
X0180518D02*
D03*
X0181026D02*
D03*
X0041500Y0250500D02*
D03*
X0039468D02*
D03*
X0041246D02*
D03*
X0041754D02*
D03*
X0039722D02*
D03*
X0039214D02*
D03*
X0125200Y0249000D02*
D03*
X0123168D02*
D03*
X0124946D02*
D03*
X0125454D02*
D03*
X0123422D02*
D03*
X0122914D02*
D03*
X0143100Y0250500D02*
D03*
X0141068D02*
D03*
X0142846D02*
D03*
X0143354D02*
D03*
X0141322D02*
D03*
X0140814D02*
D03*
X0138100Y0065500D02*
D03*
X0140132D02*
D03*
X0138354D02*
D03*
X0137846D02*
D03*
X0139878D02*
D03*
X0140386D02*
D03*
X0162174Y0063400D02*
D03*
X0164206D02*
D03*
X0162428D02*
D03*
X0161920D02*
D03*
X0163952D02*
D03*
X0164460D02*
D03*
X0182494Y0063500D02*
D03*
X0184526D02*
D03*
X0182748D02*
D03*
X0182240D02*
D03*
X0184272D02*
D03*
X0184780D02*
D03*
X0031200Y0267000D02*
D03*
X0029168D02*
D03*
X0030946D02*
D03*
X0031454D02*
D03*
X0029422D02*
D03*
X0028914D02*
D03*
X0092174Y0266986D02*
D03*
X0090142D02*
D03*
X0091920D02*
D03*
X0092428D02*
D03*
X0090396D02*
D03*
X0089888D02*
D03*
X0098460Y0250500D02*
D03*
X0096428D02*
D03*
X0098206D02*
D03*
X0098714D02*
D03*
X0096682D02*
D03*
X0096174D02*
D03*
X0118780Y0250500D02*
D03*
X0116748D02*
D03*
X0118526D02*
D03*
X0119034D02*
D03*
X0117002D02*
D03*
X0116494D02*
D03*
X0132814Y0266986D02*
D03*
X0130782D02*
D03*
X0132560D02*
D03*
X0133068D02*
D03*
X0131036D02*
D03*
X0130528D02*
D03*
X0139100Y0250500D02*
D03*
X0137068D02*
D03*
X0138846D02*
D03*
X0139354D02*
D03*
X0137322D02*
D03*
X0136814D02*
D03*
X0150848Y0266986D02*
D03*
X0151356D02*
D03*
X0153388D02*
D03*
X0152880D02*
D03*
X0151102D02*
D03*
X0153134D02*
D03*
X0159420Y0250500D02*
D03*
X0157388D02*
D03*
X0159166D02*
D03*
X0159674D02*
D03*
X0157642D02*
D03*
X0157134D02*
D03*
X0262000Y0138500D02*
D03*
X0264032D02*
D03*
X0262254D02*
D03*
X0261746D02*
D03*
X0263778D02*
D03*
X0264286D02*
D03*
X0082140Y0250500D02*
D03*
X0080108D02*
D03*
X0081886D02*
D03*
X0082394D02*
D03*
X0080362D02*
D03*
X0079854D02*
D03*
X0084426Y0249000D02*
D03*
X0082394D02*
D03*
X0084172D02*
D03*
X0084680D02*
D03*
X0082648D02*
D03*
X0082140D02*
D03*
X0102460Y0250500D02*
D03*
X0100428D02*
D03*
X0102206D02*
D03*
X0102714D02*
D03*
X0100682D02*
D03*
X0100174D02*
D03*
X0104746Y0249000D02*
D03*
X0102714D02*
D03*
X0104492D02*
D03*
X0105000D02*
D03*
X0102968D02*
D03*
X0102460D02*
D03*
X0122780Y0250500D02*
D03*
X0120748D02*
D03*
X0122526D02*
D03*
X0123034D02*
D03*
X0121002D02*
D03*
X0120494D02*
D03*
X0037500Y0250500D02*
D03*
X0035468D02*
D03*
X0037246D02*
D03*
X0037754D02*
D03*
X0035722D02*
D03*
X0035214D02*
D03*
X0057820Y0250500D02*
D03*
X0055788D02*
D03*
X0057566D02*
D03*
X0058074D02*
D03*
X0056042D02*
D03*
X0055534D02*
D03*
X0266246Y0132000D02*
D03*
X0266754D02*
D03*
X0268786D02*
D03*
X0268278D02*
D03*
X0266500D02*
D03*
X0268532D02*
D03*
X0260786Y0122500D02*
D03*
X0260278D02*
D03*
X0258246D02*
D03*
X0258754D02*
D03*
X0260532D02*
D03*
X0258500D02*
D03*
X0255786Y0126000D02*
D03*
X0255278D02*
D03*
X0253246D02*
D03*
X0253754D02*
D03*
X0255532D02*
D03*
X0253500D02*
D03*
X0250000Y0156900D02*
D03*
X0247968D02*
D03*
X0249746D02*
D03*
X0250254D02*
D03*
X0248222D02*
D03*
X0247714D02*
D03*
X0328100Y0251800D02*
D03*
X0330132D02*
D03*
X0328354D02*
D03*
X0327846D02*
D03*
X0329878D02*
D03*
X0330386D02*
D03*
X0241000Y0155000D02*
D03*
X0238968D02*
D03*
X0240746D02*
D03*
X0241254D02*
D03*
X0239222D02*
D03*
X0238714D02*
D03*
X0242000Y0157000D02*
D03*
X0239968D02*
D03*
X0241746D02*
D03*
X0242254D02*
D03*
X0240222D02*
D03*
X0239714D02*
D03*
X0249500Y0148000D02*
D03*
X0247468D02*
D03*
X0249246D02*
D03*
X0249754D02*
D03*
X0247722D02*
D03*
X0247214D02*
D03*
X0250000Y0140000D02*
D03*
X0252032D02*
D03*
X0250254D02*
D03*
X0249746D02*
D03*
X0251778D02*
D03*
X0252286D02*
D03*
Y0153000D02*
D03*
X0251778Y0153000D02*
D03*
X0249746Y0153000D02*
D03*
X0250254D02*
D03*
X0252032Y0153000D02*
D03*
X0250000Y0153000D02*
D03*
X0344500Y0256000D02*
D03*
X0342468D02*
D03*
X0344246D02*
D03*
X0344754D02*
D03*
X0342722D02*
D03*
X0342214D02*
D03*
G54D101*
X0173454Y0263398D02*
D03*
X0178026D02*
D03*
X0175740D02*
D03*
X0153134D02*
D03*
X0157706D02*
D03*
X0155420D02*
D03*
X0132814D02*
D03*
X0137386D02*
D03*
X0135100D02*
D03*
X0112494D02*
D03*
X0117066D02*
D03*
X0114780D02*
D03*
X0092174D02*
D03*
X0096746D02*
D03*
X0094460D02*
D03*
X0051534Y0263400D02*
D03*
X0056106D02*
D03*
X0053820D02*
D03*
X0031214D02*
D03*
X0035786D02*
D03*
X0033500D02*
D03*
X0179954Y0058898D02*
D03*
X0184526D02*
D03*
X0182240D02*
D03*
X0159634D02*
D03*
X0164206D02*
D03*
X0161920D02*
D03*
X0139314D02*
D03*
X0143886D02*
D03*
X0141600D02*
D03*
X0220286Y0066000D02*
D03*
X0215714D02*
D03*
X0218000D02*
D03*
X0060320Y0058898D02*
D03*
X0062606D02*
D03*
X0058034D02*
D03*
X0080640D02*
D03*
X0082926D02*
D03*
X0078354D02*
D03*
X0100960D02*
D03*
X0103246D02*
D03*
X0098674D02*
D03*
X0121280D02*
D03*
X0123566D02*
D03*
X0118994D02*
D03*
X0234286Y0066000D02*
D03*
X0229714D02*
D03*
X0232000D02*
D03*
X0220286Y0048500D02*
D03*
X0215714D02*
D03*
X0218000D02*
D03*
X0234286D02*
D03*
X0229714D02*
D03*
X0232000D02*
D03*
X0040000Y0058898D02*
D03*
X0042286D02*
D03*
X0037714D02*
D03*
X0071854Y0263400D02*
D03*
X0076426D02*
D03*
X0074140D02*
D03*
G54D102*
X0175740Y0256500D02*
D03*
X0155420D02*
D03*
X0135100D02*
D03*
X0114780D02*
D03*
X0094460D02*
D03*
X0053820Y0256502D02*
D03*
X0033500Y0256500D02*
D03*
X0182240Y0052000D02*
D03*
X0161920D02*
D03*
X0141600D02*
D03*
X0218000Y0073000D02*
D03*
X0060320Y0052000D02*
D03*
X0080640D02*
D03*
X0100960D02*
D03*
X0121280D02*
D03*
X0232000Y0073000D02*
D03*
X0218000Y0055500D02*
D03*
X0232000D02*
D03*
X0040000Y0052000D02*
D03*
X0074140Y0256500D02*
D03*
G54D103*
X0267000Y0156246D02*
D03*
Y0156754D02*
D03*
Y0158786D02*
D03*
Y0158278D02*
D03*
Y0156500D02*
D03*
Y0158532D02*
D03*
X0250000Y0151486D02*
D03*
Y0150978D02*
D03*
Y0148946D02*
D03*
Y0149454D02*
D03*
Y0151232D02*
D03*
Y0149200D02*
D03*
X0250000Y0158514D02*
D03*
Y0159022D02*
D03*
Y0161054D02*
D03*
Y0160546D02*
D03*
Y0158768D02*
D03*
Y0160800D02*
D03*
X0242100Y0239486D02*
D03*
Y0238978D02*
D03*
Y0236946D02*
D03*
Y0237454D02*
D03*
Y0239232D02*
D03*
Y0237200D02*
D03*
X0240200Y0237086D02*
D03*
Y0236578D02*
D03*
Y0234546D02*
D03*
Y0235054D02*
D03*
Y0236832D02*
D03*
Y0234800D02*
D03*
X0054820Y0062286D02*
D03*
Y0061778D02*
D03*
Y0059746D02*
D03*
Y0060254D02*
D03*
Y0062032D02*
D03*
Y0060000D02*
D03*
X0075140Y0062286D02*
D03*
Y0061778D02*
D03*
Y0059746D02*
D03*
Y0060254D02*
D03*
Y0062032D02*
D03*
Y0060000D02*
D03*
X0095460Y0062286D02*
D03*
Y0061778D02*
D03*
Y0059746D02*
D03*
Y0060254D02*
D03*
Y0062032D02*
D03*
Y0060000D02*
D03*
X0115780Y0062286D02*
D03*
Y0061778D02*
D03*
Y0059746D02*
D03*
Y0060254D02*
D03*
Y0062032D02*
D03*
Y0060000D02*
D03*
X0054820Y0065786D02*
D03*
Y0065278D02*
D03*
Y0063246D02*
D03*
Y0063754D02*
D03*
Y0065532D02*
D03*
Y0063500D02*
D03*
X0075140Y0065754D02*
D03*
Y0065246D02*
D03*
Y0063214D02*
D03*
Y0063722D02*
D03*
Y0065500D02*
D03*
Y0063468D02*
D03*
X0095460Y0065786D02*
D03*
Y0065278D02*
D03*
Y0063246D02*
D03*
Y0063754D02*
D03*
Y0065532D02*
D03*
Y0063500D02*
D03*
X0115780Y0065786D02*
D03*
Y0065278D02*
D03*
Y0063246D02*
D03*
Y0063754D02*
D03*
Y0065532D02*
D03*
Y0063500D02*
D03*
X0034500Y0065786D02*
D03*
Y0065278D02*
D03*
Y0063246D02*
D03*
Y0063754D02*
D03*
Y0065532D02*
D03*
Y0063500D02*
D03*
X0236000Y0046214D02*
D03*
Y0046722D02*
D03*
Y0048754D02*
D03*
Y0048246D02*
D03*
Y0046468D02*
D03*
Y0048500D02*
D03*
X0222000Y0063714D02*
D03*
Y0064222D02*
D03*
Y0066254D02*
D03*
Y0065746D02*
D03*
Y0063968D02*
D03*
Y0066000D02*
D03*
X0236000Y0063714D02*
D03*
Y0064222D02*
D03*
Y0066254D02*
D03*
Y0065746D02*
D03*
Y0063968D02*
D03*
Y0066000D02*
D03*
X0222300Y0046214D02*
D03*
Y0046722D02*
D03*
Y0048754D02*
D03*
Y0048246D02*
D03*
Y0046468D02*
D03*
Y0048500D02*
D03*
X0034500Y0062286D02*
D03*
Y0061778D02*
D03*
Y0059746D02*
D03*
Y0060254D02*
D03*
Y0062032D02*
D03*
Y0060000D02*
D03*
X0156420Y0063468D02*
D03*
Y0065500D02*
D03*
Y0063722D02*
D03*
Y0063214D02*
D03*
Y0065246D02*
D03*
Y0065754D02*
D03*
X0176740Y0063468D02*
D03*
Y0065500D02*
D03*
Y0063722D02*
D03*
Y0063214D02*
D03*
Y0065246D02*
D03*
Y0065754D02*
D03*
X0136100Y0063468D02*
D03*
Y0065500D02*
D03*
Y0063722D02*
D03*
Y0063214D02*
D03*
Y0065246D02*
D03*
Y0065754D02*
D03*
Y0060000D02*
D03*
Y0062032D02*
D03*
Y0060254D02*
D03*
Y0059746D02*
D03*
Y0061778D02*
D03*
Y0062286D02*
D03*
X0156420Y0060000D02*
D03*
Y0062032D02*
D03*
Y0060254D02*
D03*
Y0059746D02*
D03*
Y0061778D02*
D03*
Y0062286D02*
D03*
X0176740Y0060000D02*
D03*
Y0062032D02*
D03*
Y0060254D02*
D03*
Y0059746D02*
D03*
Y0061778D02*
D03*
Y0062286D02*
D03*
X0211000Y0158500D02*
D03*
Y0156468D02*
D03*
Y0158246D02*
D03*
Y0158754D02*
D03*
Y0156722D02*
D03*
Y0156214D02*
D03*
X0336500Y0256800D02*
D03*
Y0254768D02*
D03*
Y0256546D02*
D03*
Y0257054D02*
D03*
Y0255022D02*
D03*
Y0254514D02*
D03*
X0329000Y0247000D02*
D03*
Y0249032D02*
D03*
Y0247254D02*
D03*
Y0246746D02*
D03*
Y0248778D02*
D03*
Y0249286D02*
D03*
Y0255200D02*
D03*
Y0257232D02*
D03*
Y0255454D02*
D03*
Y0254946D02*
D03*
Y0256978D02*
D03*
Y0257486D02*
D03*
X0234500Y0167000D02*
D03*
Y0169032D02*
D03*
Y0167254D02*
D03*
Y0166746D02*
D03*
Y0168778D02*
D03*
Y0169286D02*
D03*
X0265500Y0157532D02*
D03*
Y0155500D02*
D03*
Y0157278D02*
D03*
Y0157786D02*
D03*
Y0155754D02*
D03*
Y0155246D02*
D03*
X0250500Y0171000D02*
D03*
Y0168968D02*
D03*
Y0170746D02*
D03*
Y0171254D02*
D03*
Y0169222D02*
D03*
Y0168714D02*
D03*
X0265500Y0150500D02*
D03*
Y0148468D02*
D03*
Y0150246D02*
D03*
Y0150754D02*
D03*
Y0148722D02*
D03*
Y0148214D02*
D03*
Y0167000D02*
D03*
Y0169032D02*
D03*
Y0167254D02*
D03*
Y0166746D02*
D03*
Y0168778D02*
D03*
Y0169286D02*
D03*
X0234500Y0143500D02*
D03*
Y0141468D02*
D03*
Y0143246D02*
D03*
Y0143754D02*
D03*
Y0141722D02*
D03*
Y0141214D02*
D03*
X0265500Y0143000D02*
D03*
Y0140968D02*
D03*
Y0142746D02*
D03*
Y0143254D02*
D03*
Y0141222D02*
D03*
Y0140714D02*
D03*
G54D104*
X0183240Y0261620D02*
D03*
Y0254000D02*
D03*
X0052820Y0049500D02*
D03*
Y0057120D02*
D03*
X0073140Y0049500D02*
D03*
Y0057120D02*
D03*
X0093460Y0049500D02*
D03*
Y0057120D02*
D03*
X0113780Y0049500D02*
D03*
Y0057120D02*
D03*
X0225396Y0067258D02*
D03*
Y0074878D02*
D03*
X0210900Y0049280D02*
D03*
Y0056900D02*
D03*
X0211500Y0066880D02*
D03*
Y0074500D02*
D03*
X0225500Y0049380D02*
D03*
Y0057000D02*
D03*
X0032500Y0049500D02*
D03*
Y0057120D02*
D03*
X0122280Y0261620D02*
D03*
Y0254000D02*
D03*
X0081640Y0261620D02*
D03*
Y0254000D02*
D03*
X0134100Y0057120D02*
D03*
Y0049500D02*
D03*
X0154420Y0057120D02*
D03*
Y0049500D02*
D03*
X0174740Y0057120D02*
D03*
Y0049500D02*
D03*
X0041000Y0261620D02*
D03*
Y0254000D02*
D03*
X0101960Y0261620D02*
D03*
Y0254000D02*
D03*
X0142600Y0261620D02*
D03*
Y0254000D02*
D03*
X0162920Y0261620D02*
D03*
Y0254000D02*
D03*
X0061320Y0261620D02*
D03*
Y0254000D02*
D03*
G54D105*
X0245102Y0234714D02*
D03*
Y0239286D02*
D03*
Y0237000D02*
D03*
G54D106*
X0252102D02*
D03*
G54D107*
X0246880Y0244000D02*
D03*
X0254500D02*
D03*
X0261580Y0057700D02*
D03*
X0269200D02*
D03*
Y0047200D02*
D03*
X0261580D02*
D03*
G54D108*
X0228492Y0237000D02*
D03*
X0229508D02*
D03*
Y0234460D02*
D03*
X0228492D02*
D03*
X0223492Y0237000D02*
D03*
X0224508D02*
D03*
Y0234460D02*
D03*
X0223492D02*
D03*
X0218492Y0237000D02*
D03*
X0219508D02*
D03*
Y0234460D02*
D03*
X0218492D02*
D03*
X0230992Y0237000D02*
D03*
X0232008D02*
D03*
Y0234460D02*
D03*
X0230992D02*
D03*
X0225992Y0237000D02*
D03*
X0227008D02*
D03*
Y0234460D02*
D03*
X0225992D02*
D03*
X0220992Y0237000D02*
D03*
X0222008D02*
D03*
Y0234460D02*
D03*
X0220992D02*
D03*
G54D109*
X0229000Y0237254D02*
D03*
Y0236746D02*
D03*
Y0237000D02*
D03*
Y0234460D02*
D03*
Y0234714D02*
D03*
Y0234206D02*
D03*
X0224000Y0237254D02*
D03*
Y0236746D02*
D03*
Y0237000D02*
D03*
Y0234460D02*
D03*
Y0234714D02*
D03*
Y0234206D02*
D03*
X0219000Y0237254D02*
D03*
Y0236746D02*
D03*
Y0237000D02*
D03*
Y0234460D02*
D03*
Y0234714D02*
D03*
Y0234206D02*
D03*
X0231500Y0237254D02*
D03*
Y0236746D02*
D03*
Y0237000D02*
D03*
Y0234460D02*
D03*
Y0234714D02*
D03*
Y0234206D02*
D03*
X0226500Y0237254D02*
D03*
Y0236746D02*
D03*
Y0237000D02*
D03*
Y0234460D02*
D03*
Y0234714D02*
D03*
Y0234206D02*
D03*
X0221500Y0237254D02*
D03*
Y0236746D02*
D03*
Y0237000D02*
D03*
Y0234460D02*
D03*
Y0234714D02*
D03*
Y0234206D02*
D03*
G54D110*
X0214000Y0239508D02*
D03*
Y0238492D02*
D03*
X0211460D02*
D03*
Y0239508D02*
D03*
X0333215Y0253992D02*
D03*
Y0255008D02*
D03*
X0330675D02*
D03*
Y0253992D02*
D03*
X0342192Y0252992D02*
D03*
Y0254008D02*
D03*
X0339652D02*
D03*
Y0252992D02*
D03*
G54D111*
X0214254Y0239000D02*
D03*
X0213746D02*
D03*
X0214000D02*
D03*
X0211460D02*
D03*
X0211714D02*
D03*
X0211206D02*
D03*
X0333469Y0254500D02*
D03*
X0332961D02*
D03*
X0333215D02*
D03*
X0330675D02*
D03*
X0330929D02*
D03*
X0330421D02*
D03*
X0342446Y0253500D02*
D03*
X0341938D02*
D03*
X0342192D02*
D03*
X0339652D02*
D03*
X0339906D02*
D03*
X0339398D02*
D03*
G54D112*
X0278500Y0058400D02*
D03*
Y0048300D02*
D03*
G54D113*
X0274500Y0058400D02*
D03*
Y0048300D02*
D03*
G54D114*
X0064500Y0154000D02*
D03*
X0280000Y0090000D02*
D03*
X0279000Y0260000D02*
D03*
G54D115*
X0064500Y0159080D02*
D03*
G54D116*
X0285080Y0090000D02*
D03*
X0284080Y0260000D02*
D03*
G54D117*
X0135220Y0162100D02*
D03*
X0114900D02*
D03*
X0094580D02*
D03*
X0074260D02*
D03*
X0053940D02*
D03*
X0155540D02*
D03*
X0175860D02*
D03*
X0196180D02*
D03*
X0135220Y0151250D02*
D03*
X0114900D02*
D03*
X0094580D02*
D03*
X0074260D02*
D03*
X0053940D02*
D03*
X0033620D02*
D03*
X0155540D02*
D03*
X0175860D02*
D03*
X0196180D02*
D03*
X0135220Y0028750D02*
D03*
X0114900D02*
D03*
X0094580D02*
D03*
X0074260D02*
D03*
X0053940D02*
D03*
X0033620D02*
D03*
X0155540D02*
D03*
X0175860D02*
D03*
X0196180D02*
D03*
X0216500D02*
D03*
X0338420D02*
D03*
X0236820D02*
D03*
X0257140D02*
D03*
X0277460D02*
D03*
X0297780D02*
D03*
X0318100D02*
D03*
Y0281250D02*
D03*
X0236820D02*
D03*
X0257140D02*
D03*
X0277460D02*
D03*
X0297780D02*
D03*
X0338420D02*
D03*
X0216500D02*
D03*
X0196180D02*
D03*
X0175860D02*
D03*
X0155540D02*
D03*
X0033620Y0162100D02*
D03*
X0114900Y0281250D02*
D03*
X0094580D02*
D03*
X0074260D02*
D03*
X0053940D02*
D03*
X0033620D02*
D03*
X0135220D02*
D03*
G54D118*
X0285000Y0195000D02*
D03*
Y0115000D02*
D03*
X0390000D02*
D03*
Y0195000D02*
D03*
G54D119*
X0226460Y0239000D02*
D03*
X0229000D02*
D03*
X0221460Y0239000D02*
D03*
X0224000D02*
D03*
X0216460D02*
D03*
X0219000D02*
D03*
X0375000Y0240040D02*
D03*
Y0237500D02*
D03*
G54D120*
X0335960Y0220460D02*
D03*
Y0225540D02*
D03*
X0341040D02*
D03*
Y0220460D02*
D03*
X0338500Y0223000D02*
D03*
X0346960Y0220460D02*
D03*
Y0225540D02*
D03*
X0352040D02*
D03*
Y0220460D02*
D03*
X0349500Y0223000D02*
D03*
X0357960Y0220460D02*
D03*
Y0225540D02*
D03*
X0363040D02*
D03*
Y0220460D02*
D03*
X0360500Y0223000D02*
D03*
X0202460Y0222540D02*
D03*
X0207540D02*
D03*
Y0217460D02*
D03*
X0202460D02*
D03*
X0205000Y0220000D02*
D03*
G54D121*
X0174908Y0239980D02*
D03*
Y0209500D02*
D03*
Y0212040D02*
D03*
Y0214580D02*
D03*
Y0217120D02*
D03*
Y0219660D02*
D03*
Y0222200D02*
D03*
Y0224740D02*
D03*
Y0227280D02*
D03*
Y0229820D02*
D03*
Y0232360D02*
D03*
Y0234900D02*
D03*
Y0237440D02*
D03*
X0173003Y0238710D02*
D03*
Y0236170D02*
D03*
Y0233630D02*
D03*
Y0231090D02*
D03*
Y0228550D02*
D03*
Y0226010D02*
D03*
Y0223470D02*
D03*
Y0220930D02*
D03*
Y0218390D02*
D03*
Y0215850D02*
D03*
Y0213310D02*
D03*
Y0210770D02*
D03*
Y0241250D02*
D03*
X0176812D02*
D03*
Y0210770D02*
D03*
Y0213310D02*
D03*
Y0215850D02*
D03*
Y0218390D02*
D03*
Y0220930D02*
D03*
Y0223470D02*
D03*
Y0226010D02*
D03*
Y0228550D02*
D03*
Y0231090D02*
D03*
Y0233630D02*
D03*
Y0236170D02*
D03*
Y0238710D02*
D03*
X0178717Y0237440D02*
D03*
Y0234900D02*
D03*
Y0232360D02*
D03*
Y0229820D02*
D03*
Y0227280D02*
D03*
Y0224740D02*
D03*
Y0222200D02*
D03*
Y0219660D02*
D03*
Y0217120D02*
D03*
Y0214580D02*
D03*
Y0212040D02*
D03*
Y0209500D02*
D03*
Y0239980D02*
D03*
X0154587D02*
D03*
Y0209500D02*
D03*
Y0212040D02*
D03*
Y0214580D02*
D03*
Y0217120D02*
D03*
Y0219660D02*
D03*
Y0222200D02*
D03*
Y0224740D02*
D03*
Y0227280D02*
D03*
Y0229820D02*
D03*
Y0232360D02*
D03*
Y0234900D02*
D03*
Y0237440D02*
D03*
X0152682Y0238710D02*
D03*
Y0236170D02*
D03*
Y0233630D02*
D03*
Y0231090D02*
D03*
Y0228550D02*
D03*
Y0226010D02*
D03*
Y0223470D02*
D03*
Y0220930D02*
D03*
Y0218390D02*
D03*
Y0215850D02*
D03*
Y0213310D02*
D03*
Y0210770D02*
D03*
Y0241250D02*
D03*
X0156492D02*
D03*
Y0210770D02*
D03*
Y0213310D02*
D03*
Y0215850D02*
D03*
Y0218390D02*
D03*
Y0220930D02*
D03*
Y0223470D02*
D03*
Y0226010D02*
D03*
Y0228550D02*
D03*
Y0231090D02*
D03*
Y0233630D02*
D03*
Y0236170D02*
D03*
Y0238710D02*
D03*
X0158398Y0237440D02*
D03*
Y0234900D02*
D03*
Y0232360D02*
D03*
Y0229820D02*
D03*
Y0227280D02*
D03*
Y0224740D02*
D03*
Y0222200D02*
D03*
Y0219660D02*
D03*
Y0217120D02*
D03*
Y0214580D02*
D03*
Y0212040D02*
D03*
Y0209500D02*
D03*
Y0239980D02*
D03*
X0134268D02*
D03*
Y0209500D02*
D03*
Y0212040D02*
D03*
Y0214580D02*
D03*
Y0217120D02*
D03*
Y0219660D02*
D03*
Y0222200D02*
D03*
Y0224740D02*
D03*
Y0227280D02*
D03*
Y0229820D02*
D03*
Y0232360D02*
D03*
Y0234900D02*
D03*
Y0237440D02*
D03*
X0132363Y0238710D02*
D03*
Y0236170D02*
D03*
Y0233630D02*
D03*
Y0231090D02*
D03*
Y0228550D02*
D03*
Y0226010D02*
D03*
Y0223470D02*
D03*
Y0220930D02*
D03*
Y0218390D02*
D03*
Y0215850D02*
D03*
Y0213310D02*
D03*
Y0210770D02*
D03*
Y0241250D02*
D03*
X0136173D02*
D03*
Y0210770D02*
D03*
Y0213310D02*
D03*
Y0215850D02*
D03*
Y0218390D02*
D03*
Y0220930D02*
D03*
Y0223470D02*
D03*
Y0226010D02*
D03*
Y0228550D02*
D03*
Y0231090D02*
D03*
Y0233630D02*
D03*
Y0236170D02*
D03*
Y0238710D02*
D03*
X0138077Y0237440D02*
D03*
Y0234900D02*
D03*
Y0232360D02*
D03*
Y0229820D02*
D03*
Y0227280D02*
D03*
Y0224740D02*
D03*
Y0222200D02*
D03*
Y0219660D02*
D03*
Y0217120D02*
D03*
Y0214580D02*
D03*
Y0212040D02*
D03*
Y0209500D02*
D03*
Y0239980D02*
D03*
X0113948D02*
D03*
Y0209500D02*
D03*
Y0212040D02*
D03*
Y0214580D02*
D03*
Y0217120D02*
D03*
Y0219660D02*
D03*
Y0222200D02*
D03*
Y0224740D02*
D03*
Y0227280D02*
D03*
Y0229820D02*
D03*
Y0232360D02*
D03*
Y0234900D02*
D03*
Y0237440D02*
D03*
X0112043Y0238710D02*
D03*
Y0236170D02*
D03*
Y0233630D02*
D03*
Y0231090D02*
D03*
Y0228550D02*
D03*
Y0226010D02*
D03*
Y0223470D02*
D03*
Y0220930D02*
D03*
Y0218390D02*
D03*
Y0215850D02*
D03*
Y0213310D02*
D03*
Y0210770D02*
D03*
Y0241250D02*
D03*
X0115853D02*
D03*
Y0210770D02*
D03*
Y0213310D02*
D03*
Y0215850D02*
D03*
Y0218390D02*
D03*
Y0220930D02*
D03*
Y0223470D02*
D03*
Y0226010D02*
D03*
Y0228550D02*
D03*
Y0231090D02*
D03*
Y0233630D02*
D03*
Y0236170D02*
D03*
Y0238710D02*
D03*
X0117757Y0237440D02*
D03*
Y0234900D02*
D03*
Y0232360D02*
D03*
Y0229820D02*
D03*
Y0227280D02*
D03*
Y0224740D02*
D03*
Y0222200D02*
D03*
Y0219660D02*
D03*
Y0217120D02*
D03*
Y0214580D02*
D03*
Y0212040D02*
D03*
Y0209500D02*
D03*
Y0239980D02*
D03*
X0093628D02*
D03*
Y0209500D02*
D03*
Y0212040D02*
D03*
Y0214580D02*
D03*
Y0217120D02*
D03*
Y0219660D02*
D03*
Y0222200D02*
D03*
Y0224740D02*
D03*
Y0227280D02*
D03*
Y0229820D02*
D03*
Y0232360D02*
D03*
Y0234900D02*
D03*
Y0237440D02*
D03*
X0091723Y0238710D02*
D03*
Y0236170D02*
D03*
Y0233630D02*
D03*
Y0231090D02*
D03*
Y0228550D02*
D03*
Y0226010D02*
D03*
Y0223470D02*
D03*
Y0220930D02*
D03*
Y0218390D02*
D03*
Y0215850D02*
D03*
Y0213310D02*
D03*
Y0210770D02*
D03*
Y0241250D02*
D03*
X0095533D02*
D03*
Y0210770D02*
D03*
Y0213310D02*
D03*
Y0215850D02*
D03*
Y0218390D02*
D03*
Y0220930D02*
D03*
Y0223470D02*
D03*
Y0226010D02*
D03*
Y0228550D02*
D03*
Y0231090D02*
D03*
Y0233630D02*
D03*
Y0236170D02*
D03*
Y0238710D02*
D03*
X0097438Y0237440D02*
D03*
Y0234900D02*
D03*
Y0232360D02*
D03*
Y0229820D02*
D03*
Y0227280D02*
D03*
Y0224740D02*
D03*
Y0222200D02*
D03*
Y0219660D02*
D03*
Y0217120D02*
D03*
Y0214580D02*
D03*
Y0212040D02*
D03*
Y0209500D02*
D03*
Y0239980D02*
D03*
X0073308D02*
D03*
Y0209500D02*
D03*
Y0212040D02*
D03*
Y0214580D02*
D03*
Y0217120D02*
D03*
Y0219660D02*
D03*
Y0222200D02*
D03*
Y0224740D02*
D03*
Y0227280D02*
D03*
Y0229820D02*
D03*
Y0232360D02*
D03*
Y0234900D02*
D03*
Y0237440D02*
D03*
X0071402Y0238710D02*
D03*
Y0236170D02*
D03*
Y0233630D02*
D03*
Y0231090D02*
D03*
Y0228550D02*
D03*
Y0226010D02*
D03*
Y0223470D02*
D03*
Y0220930D02*
D03*
Y0218390D02*
D03*
Y0215850D02*
D03*
Y0213310D02*
D03*
Y0210770D02*
D03*
Y0241250D02*
D03*
X0075213D02*
D03*
Y0210770D02*
D03*
Y0213310D02*
D03*
Y0215850D02*
D03*
Y0218390D02*
D03*
Y0220930D02*
D03*
Y0223470D02*
D03*
Y0226010D02*
D03*
Y0228550D02*
D03*
Y0231090D02*
D03*
Y0233630D02*
D03*
Y0236170D02*
D03*
Y0238710D02*
D03*
X0077118Y0237440D02*
D03*
Y0234900D02*
D03*
Y0232360D02*
D03*
Y0229820D02*
D03*
Y0227280D02*
D03*
Y0224740D02*
D03*
Y0222200D02*
D03*
Y0219660D02*
D03*
Y0217120D02*
D03*
Y0214580D02*
D03*
Y0212040D02*
D03*
Y0209500D02*
D03*
Y0239980D02*
D03*
X0052987D02*
D03*
Y0209500D02*
D03*
Y0212040D02*
D03*
Y0214580D02*
D03*
Y0217120D02*
D03*
Y0219660D02*
D03*
Y0222200D02*
D03*
Y0224740D02*
D03*
Y0227280D02*
D03*
Y0229820D02*
D03*
Y0232360D02*
D03*
Y0234900D02*
D03*
Y0237440D02*
D03*
X0051083Y0238710D02*
D03*
Y0236170D02*
D03*
Y0233630D02*
D03*
Y0231090D02*
D03*
Y0228550D02*
D03*
Y0226010D02*
D03*
Y0223470D02*
D03*
Y0220930D02*
D03*
Y0218390D02*
D03*
Y0215850D02*
D03*
Y0213310D02*
D03*
Y0210770D02*
D03*
Y0241250D02*
D03*
X0054893D02*
D03*
Y0210770D02*
D03*
Y0213310D02*
D03*
Y0215850D02*
D03*
Y0218390D02*
D03*
Y0220930D02*
D03*
Y0223470D02*
D03*
Y0226010D02*
D03*
Y0228550D02*
D03*
Y0231090D02*
D03*
Y0233630D02*
D03*
Y0236170D02*
D03*
Y0238710D02*
D03*
X0056798Y0237440D02*
D03*
Y0234900D02*
D03*
Y0232360D02*
D03*
Y0229820D02*
D03*
Y0227280D02*
D03*
Y0224740D02*
D03*
Y0222200D02*
D03*
Y0219660D02*
D03*
Y0217120D02*
D03*
Y0214580D02*
D03*
Y0212040D02*
D03*
Y0209500D02*
D03*
Y0239980D02*
D03*
X0032667D02*
D03*
Y0209500D02*
D03*
Y0212040D02*
D03*
Y0214580D02*
D03*
Y0217120D02*
D03*
Y0219660D02*
D03*
Y0222200D02*
D03*
Y0224740D02*
D03*
Y0227280D02*
D03*
Y0229820D02*
D03*
Y0232360D02*
D03*
Y0234900D02*
D03*
Y0237440D02*
D03*
X0030763Y0238710D02*
D03*
Y0236170D02*
D03*
Y0233630D02*
D03*
Y0231090D02*
D03*
Y0228550D02*
D03*
Y0226010D02*
D03*
Y0223470D02*
D03*
Y0220930D02*
D03*
Y0218390D02*
D03*
Y0215850D02*
D03*
Y0213310D02*
D03*
Y0210770D02*
D03*
Y0241250D02*
D03*
X0034572D02*
D03*
Y0210770D02*
D03*
Y0213310D02*
D03*
Y0215850D02*
D03*
Y0218390D02*
D03*
Y0220930D02*
D03*
Y0223470D02*
D03*
Y0226010D02*
D03*
Y0228550D02*
D03*
Y0231090D02*
D03*
Y0233630D02*
D03*
Y0236170D02*
D03*
Y0238710D02*
D03*
X0036478Y0237440D02*
D03*
Y0234900D02*
D03*
Y0232360D02*
D03*
Y0229820D02*
D03*
Y0227280D02*
D03*
Y0224740D02*
D03*
Y0222200D02*
D03*
Y0219660D02*
D03*
Y0217120D02*
D03*
Y0214580D02*
D03*
Y0212040D02*
D03*
Y0209500D02*
D03*
Y0239980D02*
D03*
X0174908Y0106730D02*
D03*
Y0076250D02*
D03*
Y0078790D02*
D03*
Y0081330D02*
D03*
Y0083870D02*
D03*
Y0086410D02*
D03*
Y0088950D02*
D03*
Y0091490D02*
D03*
Y0094030D02*
D03*
Y0096570D02*
D03*
Y0099110D02*
D03*
Y0101650D02*
D03*
Y0104190D02*
D03*
X0173003Y0105460D02*
D03*
Y0102920D02*
D03*
Y0100380D02*
D03*
Y0097840D02*
D03*
Y0095300D02*
D03*
Y0092760D02*
D03*
Y0090220D02*
D03*
Y0087680D02*
D03*
Y0085140D02*
D03*
Y0082600D02*
D03*
Y0080060D02*
D03*
Y0077520D02*
D03*
Y0108000D02*
D03*
X0176812D02*
D03*
Y0077520D02*
D03*
Y0080060D02*
D03*
Y0082600D02*
D03*
Y0085140D02*
D03*
Y0087680D02*
D03*
Y0090220D02*
D03*
Y0092760D02*
D03*
Y0095300D02*
D03*
Y0097840D02*
D03*
Y0100380D02*
D03*
Y0102920D02*
D03*
Y0105460D02*
D03*
X0178717Y0104190D02*
D03*
Y0101650D02*
D03*
Y0099110D02*
D03*
Y0096570D02*
D03*
Y0094030D02*
D03*
Y0091490D02*
D03*
Y0088950D02*
D03*
Y0086410D02*
D03*
Y0083870D02*
D03*
Y0081330D02*
D03*
Y0078790D02*
D03*
Y0076250D02*
D03*
Y0106730D02*
D03*
X0154587D02*
D03*
Y0076250D02*
D03*
Y0078790D02*
D03*
Y0081330D02*
D03*
Y0083870D02*
D03*
Y0086410D02*
D03*
Y0088950D02*
D03*
Y0091490D02*
D03*
Y0094030D02*
D03*
Y0096570D02*
D03*
Y0099110D02*
D03*
Y0101650D02*
D03*
Y0104190D02*
D03*
X0152682Y0105460D02*
D03*
Y0102920D02*
D03*
Y0100380D02*
D03*
Y0097840D02*
D03*
Y0095300D02*
D03*
Y0092760D02*
D03*
Y0090220D02*
D03*
Y0087680D02*
D03*
Y0085140D02*
D03*
Y0082600D02*
D03*
Y0080060D02*
D03*
Y0077520D02*
D03*
Y0108000D02*
D03*
X0156492D02*
D03*
Y0077520D02*
D03*
Y0080060D02*
D03*
Y0082600D02*
D03*
Y0085140D02*
D03*
Y0087680D02*
D03*
Y0090220D02*
D03*
Y0092760D02*
D03*
Y0095300D02*
D03*
Y0097840D02*
D03*
Y0100380D02*
D03*
Y0102920D02*
D03*
Y0105460D02*
D03*
X0158398Y0104190D02*
D03*
Y0101650D02*
D03*
Y0099110D02*
D03*
Y0096570D02*
D03*
Y0094030D02*
D03*
Y0091490D02*
D03*
Y0088950D02*
D03*
Y0086410D02*
D03*
Y0083870D02*
D03*
Y0081330D02*
D03*
Y0078790D02*
D03*
Y0076250D02*
D03*
Y0106730D02*
D03*
X0134268D02*
D03*
Y0076250D02*
D03*
Y0078790D02*
D03*
Y0081330D02*
D03*
Y0083870D02*
D03*
Y0086410D02*
D03*
Y0088950D02*
D03*
Y0091490D02*
D03*
Y0094030D02*
D03*
Y0096570D02*
D03*
Y0099110D02*
D03*
Y0101650D02*
D03*
Y0104190D02*
D03*
X0132363Y0105460D02*
D03*
Y0102920D02*
D03*
Y0100380D02*
D03*
Y0097840D02*
D03*
Y0095300D02*
D03*
Y0092760D02*
D03*
Y0090220D02*
D03*
Y0087680D02*
D03*
Y0085140D02*
D03*
Y0082600D02*
D03*
Y0080060D02*
D03*
Y0077520D02*
D03*
Y0108000D02*
D03*
X0136173D02*
D03*
Y0077520D02*
D03*
Y0080060D02*
D03*
Y0082600D02*
D03*
Y0085140D02*
D03*
Y0087680D02*
D03*
Y0090220D02*
D03*
Y0092760D02*
D03*
Y0095300D02*
D03*
Y0097840D02*
D03*
Y0100380D02*
D03*
Y0102920D02*
D03*
Y0105460D02*
D03*
X0138077Y0104190D02*
D03*
Y0101650D02*
D03*
Y0099110D02*
D03*
Y0096570D02*
D03*
Y0094030D02*
D03*
Y0091490D02*
D03*
Y0088950D02*
D03*
Y0086410D02*
D03*
Y0083870D02*
D03*
Y0081330D02*
D03*
Y0078790D02*
D03*
Y0076250D02*
D03*
Y0106730D02*
D03*
X0113948D02*
D03*
Y0076250D02*
D03*
Y0078790D02*
D03*
Y0081330D02*
D03*
Y0083870D02*
D03*
Y0086410D02*
D03*
Y0088950D02*
D03*
Y0091490D02*
D03*
Y0094030D02*
D03*
Y0096570D02*
D03*
Y0099110D02*
D03*
Y0101650D02*
D03*
Y0104190D02*
D03*
X0112043Y0105460D02*
D03*
Y0102920D02*
D03*
Y0100380D02*
D03*
Y0097840D02*
D03*
Y0095300D02*
D03*
Y0092760D02*
D03*
Y0090220D02*
D03*
Y0087680D02*
D03*
Y0085140D02*
D03*
Y0082600D02*
D03*
Y0080060D02*
D03*
Y0077520D02*
D03*
Y0108000D02*
D03*
X0115853D02*
D03*
Y0077520D02*
D03*
Y0080060D02*
D03*
Y0082600D02*
D03*
Y0085140D02*
D03*
Y0087680D02*
D03*
Y0090220D02*
D03*
Y0092760D02*
D03*
Y0095300D02*
D03*
Y0097840D02*
D03*
Y0100380D02*
D03*
Y0102920D02*
D03*
Y0105460D02*
D03*
X0117757Y0104190D02*
D03*
Y0101650D02*
D03*
Y0099110D02*
D03*
Y0096570D02*
D03*
Y0094030D02*
D03*
Y0091490D02*
D03*
Y0088950D02*
D03*
Y0086410D02*
D03*
Y0083870D02*
D03*
Y0081330D02*
D03*
Y0078790D02*
D03*
Y0076250D02*
D03*
Y0106730D02*
D03*
X0093628D02*
D03*
Y0076250D02*
D03*
Y0078790D02*
D03*
Y0081330D02*
D03*
Y0083870D02*
D03*
Y0086410D02*
D03*
Y0088950D02*
D03*
Y0091490D02*
D03*
Y0094030D02*
D03*
Y0096570D02*
D03*
Y0099110D02*
D03*
Y0101650D02*
D03*
Y0104190D02*
D03*
X0091723Y0105460D02*
D03*
Y0102920D02*
D03*
Y0100380D02*
D03*
Y0097840D02*
D03*
Y0095300D02*
D03*
Y0092760D02*
D03*
Y0090220D02*
D03*
Y0087680D02*
D03*
Y0085140D02*
D03*
Y0082600D02*
D03*
Y0080060D02*
D03*
Y0077520D02*
D03*
Y0108000D02*
D03*
X0095533D02*
D03*
Y0077520D02*
D03*
Y0080060D02*
D03*
Y0082600D02*
D03*
Y0085140D02*
D03*
Y0087680D02*
D03*
Y0090220D02*
D03*
Y0092760D02*
D03*
Y0095300D02*
D03*
Y0097840D02*
D03*
Y0100380D02*
D03*
Y0102920D02*
D03*
Y0105460D02*
D03*
X0097438Y0104190D02*
D03*
Y0101650D02*
D03*
Y0099110D02*
D03*
Y0096570D02*
D03*
Y0094030D02*
D03*
Y0091490D02*
D03*
Y0088950D02*
D03*
Y0086410D02*
D03*
Y0083870D02*
D03*
Y0081330D02*
D03*
Y0078790D02*
D03*
Y0076250D02*
D03*
Y0106730D02*
D03*
X0073308D02*
D03*
Y0076250D02*
D03*
Y0078790D02*
D03*
Y0081330D02*
D03*
Y0083870D02*
D03*
Y0086410D02*
D03*
Y0088950D02*
D03*
Y0091490D02*
D03*
Y0094030D02*
D03*
Y0096570D02*
D03*
Y0099110D02*
D03*
Y0101650D02*
D03*
Y0104190D02*
D03*
X0071402Y0105460D02*
D03*
Y0102920D02*
D03*
Y0100380D02*
D03*
Y0097840D02*
D03*
Y0095300D02*
D03*
Y0092760D02*
D03*
Y0090220D02*
D03*
Y0087680D02*
D03*
Y0085140D02*
D03*
Y0082600D02*
D03*
Y0080060D02*
D03*
Y0077520D02*
D03*
Y0108000D02*
D03*
X0075213D02*
D03*
Y0077520D02*
D03*
Y0080060D02*
D03*
Y0082600D02*
D03*
Y0085140D02*
D03*
Y0087680D02*
D03*
Y0090220D02*
D03*
Y0092760D02*
D03*
Y0095300D02*
D03*
Y0097840D02*
D03*
Y0100380D02*
D03*
Y0102920D02*
D03*
Y0105460D02*
D03*
X0077118Y0104190D02*
D03*
Y0101650D02*
D03*
Y0099110D02*
D03*
Y0096570D02*
D03*
Y0094030D02*
D03*
Y0091490D02*
D03*
Y0088950D02*
D03*
Y0086410D02*
D03*
Y0083870D02*
D03*
Y0081330D02*
D03*
Y0078790D02*
D03*
Y0076250D02*
D03*
Y0106730D02*
D03*
X0052987D02*
D03*
Y0076250D02*
D03*
Y0078790D02*
D03*
Y0081330D02*
D03*
Y0083870D02*
D03*
Y0086410D02*
D03*
Y0088950D02*
D03*
Y0091490D02*
D03*
Y0094030D02*
D03*
Y0096570D02*
D03*
Y0099110D02*
D03*
Y0101650D02*
D03*
Y0104190D02*
D03*
X0051083Y0105460D02*
D03*
Y0102920D02*
D03*
Y0100380D02*
D03*
Y0097840D02*
D03*
Y0095300D02*
D03*
Y0092760D02*
D03*
Y0090220D02*
D03*
Y0087680D02*
D03*
Y0085140D02*
D03*
Y0082600D02*
D03*
Y0080060D02*
D03*
Y0077520D02*
D03*
Y0108000D02*
D03*
X0054893D02*
D03*
Y0077520D02*
D03*
Y0080060D02*
D03*
Y0082600D02*
D03*
Y0085140D02*
D03*
Y0087680D02*
D03*
Y0090220D02*
D03*
Y0092760D02*
D03*
Y0095300D02*
D03*
Y0097840D02*
D03*
Y0100380D02*
D03*
Y0102920D02*
D03*
Y0105460D02*
D03*
X0056798Y0104190D02*
D03*
Y0101650D02*
D03*
Y0099110D02*
D03*
Y0096570D02*
D03*
Y0094030D02*
D03*
Y0091490D02*
D03*
Y0088950D02*
D03*
Y0086410D02*
D03*
Y0083870D02*
D03*
Y0081330D02*
D03*
Y0078790D02*
D03*
Y0076250D02*
D03*
Y0106730D02*
D03*
X0032667D02*
D03*
Y0076250D02*
D03*
Y0078790D02*
D03*
Y0081330D02*
D03*
Y0083870D02*
D03*
Y0086410D02*
D03*
Y0088950D02*
D03*
Y0091490D02*
D03*
Y0094030D02*
D03*
Y0096570D02*
D03*
Y0099110D02*
D03*
Y0101650D02*
D03*
Y0104190D02*
D03*
X0030763Y0105460D02*
D03*
Y0102920D02*
D03*
Y0100380D02*
D03*
Y0097840D02*
D03*
Y0095300D02*
D03*
Y0092760D02*
D03*
Y0090220D02*
D03*
Y0087680D02*
D03*
Y0085140D02*
D03*
Y0082600D02*
D03*
Y0080060D02*
D03*
Y0077520D02*
D03*
Y0108000D02*
D03*
X0034572D02*
D03*
Y0077520D02*
D03*
Y0080060D02*
D03*
Y0082600D02*
D03*
Y0085140D02*
D03*
Y0087680D02*
D03*
Y0090220D02*
D03*
Y0092760D02*
D03*
Y0095300D02*
D03*
Y0097840D02*
D03*
Y0100380D02*
D03*
Y0102920D02*
D03*
Y0105460D02*
D03*
X0036478Y0104190D02*
D03*
Y0101650D02*
D03*
Y0099110D02*
D03*
Y0096570D02*
D03*
Y0094030D02*
D03*
Y0091490D02*
D03*
Y0088950D02*
D03*
Y0086410D02*
D03*
Y0083870D02*
D03*
Y0081330D02*
D03*
Y0078790D02*
D03*
Y0076250D02*
D03*
Y0106730D02*
D03*
G54D122*
X0175860Y0205690D02*
D03*
Y0245060D02*
D03*
X0155540Y0205690D02*
D03*
Y0245060D02*
D03*
X0135220Y0205690D02*
D03*
Y0245060D02*
D03*
X0114900Y0205690D02*
D03*
Y0245060D02*
D03*
X0094580Y0205690D02*
D03*
Y0245060D02*
D03*
X0074260Y0205690D02*
D03*
Y0245060D02*
D03*
X0053940Y0205690D02*
D03*
Y0245060D02*
D03*
X0033620Y0205690D02*
D03*
Y0245060D02*
D03*
X0175860Y0072440D02*
D03*
Y0111810D02*
D03*
X0155540Y0072440D02*
D03*
Y0111810D02*
D03*
X0135220Y0072440D02*
D03*
Y0111810D02*
D03*
X0114900Y0072440D02*
D03*
Y0111810D02*
D03*
X0094580Y0072440D02*
D03*
Y0111810D02*
D03*
X0074260Y0072440D02*
D03*
Y0111810D02*
D03*
X0053940Y0072440D02*
D03*
Y0111810D02*
D03*
X0033620Y0072440D02*
D03*
Y0111810D02*
D03*
X0374920Y0257950D02*
D03*
Y0245250D02*
D03*
G54D123*
X0285500Y0048260D02*
D03*
Y0053340D02*
D03*
Y0058420D02*
D03*
Y0063500D02*
D03*
G54D124*
X0239040Y0209580D02*
D03*
X0236500D02*
D03*
Y0207040D02*
D03*
Y0212120D02*
D03*
Y0214660D02*
D03*
X0239040Y0212120D02*
D03*
Y0207040D02*
D03*
Y0204500D02*
D03*
Y0214660D02*
D03*
X0257840Y0128500D02*
D03*
X0268000D02*
D03*
X0265460D02*
D03*
X0260400D02*
D03*
X0257840Y0126000D02*
D03*
X0260400D02*
D03*
X0265460D02*
D03*
X0262900D02*
D03*
Y0128500D02*
D03*
G54D125*
X0236500Y0204500D02*
D03*
G54D126*
X0268000Y0126000D02*
D03*
G54D127*
X0190000Y0214500D02*
D03*
X0244000Y0167000D02*
D03*
Y0168000D02*
D03*
Y0169000D02*
D03*
X0245000Y0167000D02*
D03*
X0246000D02*
D03*
X0247000D02*
D03*
X0246000Y0165000D02*
D03*
X0247000D02*
D03*
X0248000Y0167000D02*
D03*
X0249000Y0169000D02*
D03*
X0249000Y0168000D02*
D03*
X0250000D02*
D03*
X0251000Y0167000D02*
D03*
X0249000D02*
D03*
X0251000Y0166000D02*
D03*
X0252000D02*
D03*
Y0165000D02*
D03*
X0254000D02*
D03*
X0252000Y0164000D02*
D03*
X0249000Y0165000D02*
D03*
X0250000Y0162000D02*
D03*
X0249000Y0164000D02*
D03*
X0252000Y0162000D02*
D03*
X0251000Y0160000D02*
D03*
X0248000Y0163000D02*
D03*
X0247000Y0162000D02*
D03*
Y0161000D02*
D03*
X0248000Y0162000D02*
D03*
X0247000Y0164000D02*
D03*
X0248000D02*
D03*
Y0165000D02*
D03*
Y0161000D02*
D03*
X0246000Y0162000D02*
D03*
X0245000D02*
D03*
X0244000Y0165000D02*
D03*
X0245000Y0163000D02*
D03*
X0244000Y0164000D02*
D03*
Y0163000D02*
D03*
Y0162000D02*
D03*
X0242000Y0168000D02*
D03*
X0243000Y0164000D02*
D03*
X0244000Y0161000D02*
D03*
X0248000Y0166000D02*
D03*
X0251000Y0164000D02*
D03*
X0252000Y0163000D02*
D03*
X0253000Y0164000D02*
D03*
Y0165000D02*
D03*
Y0166000D02*
D03*
X0252000Y0167000D02*
D03*
Y0168000D02*
D03*
X0252000Y0169000D02*
D03*
X0253000Y0167000D02*
D03*
X0255000Y0166000D02*
D03*
Y0167000D02*
D03*
X0256000Y0168000D02*
D03*
Y0169000D02*
D03*
Y0167000D02*
D03*
X0257000Y0169000D02*
D03*
X0258000Y0157000D02*
D03*
X0258000Y0154000D02*
D03*
X0258000Y0156000D02*
D03*
X0259000Y0154000D02*
D03*
X0260000D02*
D03*
X0261000D02*
D03*
X0260000Y0142000D02*
D03*
X0254000Y0167000D02*
D03*
X0260000Y0153000D02*
D03*
X0259000D02*
D03*
X0261000D02*
D03*
X0262000D02*
D03*
X0246000Y0166000D02*
D03*
X0245000Y0166000D02*
D03*
X0243000Y0168000D02*
D03*
Y0165000D02*
D03*
X0242000D02*
D03*
X0243000Y0162000D02*
D03*
X0242000Y0160000D02*
D03*
X0238000D02*
D03*
X0240000Y0159000D02*
D03*
Y0160000D02*
D03*
Y0158000D02*
D03*
Y0157000D02*
D03*
X0241000D02*
D03*
Y0158000D02*
D03*
X0243000Y0159000D02*
D03*
X0238000Y0156000D02*
D03*
X0240000D02*
D03*
X0238000Y0154000D02*
D03*
X0236000Y0153000D02*
D03*
X0238000D02*
D03*
Y0152000D02*
D03*
X0240000Y0151000D02*
D03*
X0242000Y0152000D02*
D03*
X0243000D02*
D03*
Y0151000D02*
D03*
X0241000D02*
D03*
X0244000Y0152000D02*
D03*
Y0151000D02*
D03*
X0239000Y0152000D02*
D03*
X0236000D02*
D03*
Y0149000D02*
D03*
X0237000Y0148000D02*
D03*
X0238000Y0150000D02*
D03*
X0242000Y0158000D02*
D03*
Y0159000D02*
D03*
X0238000Y0158000D02*
D03*
X0236000Y0159000D02*
D03*
Y0157000D02*
D03*
X0241000Y0160000D02*
D03*
Y0159000D02*
D03*
X0243000Y0161000D02*
D03*
Y0160000D02*
D03*
X0238000Y0159000D02*
D03*
X0251000Y0161000D02*
D03*
X0237000Y0149000D02*
D03*
X0240000Y0147000D02*
D03*
X0241000Y0148000D02*
D03*
X0242000Y0149000D02*
D03*
X0243000Y0166000D02*
D03*
X0236000Y0151000D02*
D03*
X0243000Y0150000D02*
D03*
X0241000D02*
D03*
X0260000Y0168000D02*
D03*
Y0160000D02*
D03*
Y0157000D02*
D03*
X0392000Y0169070D02*
D03*
X0257000Y0143000D02*
D03*
X0392000Y0167800D02*
D03*
X0253000Y0143000D02*
D03*
X0236000Y0168000D02*
D03*
X0263000Y0169000D02*
D03*
X0256000Y0166000D02*
D03*
X0257000Y0168000D02*
D03*
X0107500Y0197500D02*
D03*
Y0195500D02*
D03*
X0255000Y0164000D02*
D03*
X0253000Y0161000D02*
D03*
Y0162000D02*
D03*
X0168500Y0196500D02*
D03*
Y0197500D02*
D03*
X0167500Y0195500D02*
D03*
Y0197500D02*
D03*
X0165500Y0195500D02*
D03*
Y0197500D02*
D03*
X0166500Y0196500D02*
D03*
X0166000Y0198500D02*
D03*
X0252000Y0160000D02*
D03*
X0164500Y0196500D02*
D03*
Y0197500D02*
D03*
X0249000Y0160000D02*
D03*
X0163500Y0196500D02*
D03*
X0163500Y0197500D02*
D03*
X0162500D02*
D03*
X0249000Y0166000D02*
D03*
X0162500Y0195500D02*
D03*
X0161000Y0197000D02*
D03*
X0161500Y0196500D02*
D03*
X0144000Y0195500D02*
D03*
X0246000Y0163000D02*
D03*
X0247000Y0166000D02*
D03*
X0127500Y0197500D02*
D03*
Y0195500D02*
D03*
X0239000Y0169000D02*
D03*
X0240000D02*
D03*
X0126500Y0196500D02*
D03*
Y0197500D02*
D03*
X0043500Y0196500D02*
D03*
X0044500Y0195500D02*
D03*
X0044500Y0197500D02*
D03*
X0239000Y0159000D02*
D03*
X0238000Y0162000D02*
D03*
X0043000Y0197000D02*
D03*
X0236000Y0161000D02*
D03*
X0242000Y0157000D02*
D03*
X0244000Y0158000D02*
D03*
Y0157000D02*
D03*
X0237000D02*
D03*
Y0161000D02*
D03*
X0239000Y0160000D02*
D03*
X0238000Y0157000D02*
D03*
X0237000Y0159000D02*
D03*
X0244000D02*
D03*
X0240000Y0161000D02*
D03*
X0241000D02*
D03*
X0236000Y0158000D02*
D03*
X0046500Y0197500D02*
D03*
Y0196500D02*
D03*
X0042500Y0196500D02*
D03*
X0042500Y0198500D02*
D03*
X0041500Y0195500D02*
D03*
X0041500Y0197500D02*
D03*
X0040000Y0198000D02*
D03*
X0040500Y0196500D02*
D03*
X0039500Y0195500D02*
D03*
X0039000Y0197000D02*
D03*
X0045500Y0198500D02*
D03*
Y0196500D02*
D03*
X0122000Y0197000D02*
D03*
X0100500Y0196500D02*
D03*
X0100000Y0197000D02*
D03*
X0082500D02*
D03*
X0083000Y0196500D02*
D03*
X0083500Y0197000D02*
D03*
X0084000Y0196500D02*
D03*
X0244000Y0142000D02*
D03*
X0242000Y0144000D02*
D03*
X0236000Y0143000D02*
D03*
Y0142000D02*
D03*
X0237000Y0141000D02*
D03*
X0240000D02*
D03*
X0238000Y0142000D02*
D03*
X0240000D02*
D03*
X0237000D02*
D03*
X0239000D02*
D03*
X0239000Y0141000D02*
D03*
X0237000Y0144000D02*
D03*
X0238000D02*
D03*
X0240000D02*
D03*
X0238000Y0143000D02*
D03*
X0239000Y0143000D02*
D03*
X0244000Y0143000D02*
D03*
Y0141000D02*
D03*
X0241000Y0143000D02*
D03*
X0245000Y0143000D02*
D03*
X0240000Y0145000D02*
D03*
X0238000D02*
D03*
X0241000D02*
D03*
X0243000Y0146000D02*
D03*
X0236000Y0146500D02*
D03*
X0238000Y0148000D02*
D03*
X0236000Y0154000D02*
D03*
X0237000Y0152000D02*
D03*
X0380840Y0179230D02*
D03*
Y0177960D02*
D03*
X0384650Y0161450D02*
D03*
Y0160180D02*
D03*
X0382110Y0160450D02*
D03*
Y0159180D02*
D03*
X0387190Y0160180D02*
D03*
Y0158910D02*
D03*
X0388460Y0157910D02*
D03*
Y0156640D02*
D03*
X0385920Y0157910D02*
D03*
Y0156640D02*
D03*
Y0152830D02*
D03*
Y0154100D02*
D03*
X0387190D02*
D03*
Y0155370D02*
D03*
X0382110D02*
D03*
Y0156640D02*
D03*
X0383380Y0157640D02*
D03*
Y0158910D02*
D03*
X0384650Y0156370D02*
D03*
Y0157640D02*
D03*
X0391000Y0142670D02*
D03*
Y0141400D02*
D03*
X0382110Y0153830D02*
D03*
Y0152560D02*
D03*
X0384650Y0152830D02*
D03*
Y0151560D02*
D03*
X0388460Y0152830D02*
D03*
Y0151560D02*
D03*
X0387190D02*
D03*
Y0150290D02*
D03*
X0383380Y0151290D02*
D03*
X0389730Y0144940D02*
D03*
Y0146210D02*
D03*
X0382110Y0144940D02*
D03*
Y0146210D02*
D03*
X0391000Y0147480D02*
D03*
Y0148750D02*
D03*
X0382110Y0147750D02*
D03*
Y0149020D02*
D03*
X0383380Y0150020D02*
D03*
Y0142400D02*
D03*
Y0143670D02*
D03*
X0382110Y0140130D02*
D03*
Y0141400D02*
D03*
X0384650Y0137320D02*
D03*
X0388190Y0136320D02*
D03*
X0383380Y0134780D02*
D03*
Y0136050D02*
D03*
X0385920Y0134780D02*
D03*
Y0136050D02*
D03*
X0391000Y0136320D02*
D03*
Y0137590D02*
D03*
X0382110Y0137320D02*
D03*
Y0138590D02*
D03*
X0384650D02*
D03*
X0382110Y0132510D02*
D03*
Y0133780D02*
D03*
X0384650Y0132510D02*
D03*
Y0133780D02*
D03*
X0388190Y0137590D02*
D03*
X0388460Y0138590D02*
D03*
X0385920Y0137590D02*
D03*
Y0138860D02*
D03*
X0383380Y0137590D02*
D03*
Y0138860D02*
D03*
X0384650Y0140130D02*
D03*
Y0141400D02*
D03*
X0389730Y0139860D02*
D03*
Y0141130D02*
D03*
X0388460Y0142400D02*
D03*
Y0143670D02*
D03*
X0383380Y0153830D02*
D03*
Y0155100D02*
D03*
X0389730Y0160180D02*
D03*
Y0161450D02*
D03*
X0383380Y0162720D02*
D03*
Y0161450D02*
D03*
X0385920D02*
D03*
Y0162720D02*
D03*
X0388460D02*
D03*
Y0163990D02*
D03*
X0387190Y0162720D02*
D03*
Y0163990D02*
D03*
Y0166530D02*
D03*
Y0167800D02*
D03*
X0385920Y0165260D02*
D03*
Y0166530D02*
D03*
X0384650Y0162990D02*
D03*
Y0164260D02*
D03*
X0383380Y0166530D02*
D03*
Y0165260D02*
D03*
X0382110Y0163990D02*
D03*
Y0165260D02*
D03*
X0392000Y0162720D02*
D03*
Y0163990D02*
D03*
X0390730Y0165260D02*
D03*
Y0166530D02*
D03*
X0388460Y0167800D02*
D03*
Y0169070D02*
D03*
X0384650Y0167800D02*
D03*
Y0169070D02*
D03*
Y0170610D02*
D03*
Y0171880D02*
D03*
X0385920Y0172880D02*
D03*
Y0174150D02*
D03*
X0388460Y0177960D02*
D03*
Y0179230D02*
D03*
X0391000Y0171880D02*
D03*
Y0173150D02*
D03*
X0389730Y0174420D02*
D03*
Y0175690D02*
D03*
X0244000Y0156000D02*
D03*
X0241000D02*
D03*
X0242000D02*
D03*
X0248000D02*
D03*
X0245000D02*
D03*
X0246000D02*
D03*
X0247000D02*
D03*
X0249000D02*
D03*
X0256000Y0154000D02*
D03*
X0252000D02*
D03*
X0255000D02*
D03*
X0254000D02*
D03*
X0253000D02*
D03*
X0251000D02*
D03*
X0260000Y0156000D02*
D03*
X0261000D02*
D03*
X0256000D02*
D03*
X0259000D02*
D03*
X0257000D02*
D03*
X0255000D02*
D03*
X0254000D02*
D03*
X0253000D02*
D03*
X0252000D02*
D03*
X0251000D02*
D03*
X0244000Y0154000D02*
D03*
X0245000D02*
D03*
X0246000D02*
D03*
X0247000D02*
D03*
X0248000D02*
D03*
X0249000D02*
D03*
Y0142000D02*
D03*
Y0150000D02*
D03*
Y0151000D02*
D03*
Y0152000D02*
D03*
Y0153000D02*
D03*
X0248000D02*
D03*
Y0152000D02*
D03*
X0247000Y0153000D02*
D03*
Y0152000D02*
D03*
X0248000Y0151000D02*
D03*
X0247000D02*
D03*
Y0150000D02*
D03*
X0248000Y0149000D02*
D03*
Y0146000D02*
D03*
Y0145000D02*
D03*
X0246000Y0153000D02*
D03*
Y0152000D02*
D03*
X0245000Y0153000D02*
D03*
Y0152000D02*
D03*
X0246000Y0151000D02*
D03*
Y0150000D02*
D03*
X0245000Y0151000D02*
D03*
Y0150000D02*
D03*
X0246000Y0149000D02*
D03*
Y0148000D02*
D03*
X0251000Y0142000D02*
D03*
Y0150000D02*
D03*
Y0151000D02*
D03*
Y0152000D02*
D03*
Y0153000D02*
D03*
X0253000Y0152000D02*
D03*
X0254000D02*
D03*
X0255000D02*
D03*
X0253000Y0153000D02*
D03*
X0254000D02*
D03*
X0255000D02*
D03*
X0252000Y0152000D02*
D03*
Y0153000D02*
D03*
X0253000Y0150000D02*
D03*
X0254000D02*
D03*
X0253000Y0151000D02*
D03*
X0254000D02*
D03*
X0252000Y0150000D02*
D03*
Y0151000D02*
D03*
X0254000Y0148000D02*
D03*
Y0149000D02*
D03*
X0255000Y0147000D02*
D03*
X0252000Y0146000D02*
D03*
Y0145000D02*
D03*
X0256000Y0142000D02*
D03*
X0259000Y0145000D02*
D03*
X0256000D02*
D03*
X0259000Y0146000D02*
D03*
X0256000D02*
D03*
X0257000Y0149000D02*
D03*
X0256000Y0148000D02*
D03*
Y0149000D02*
D03*
X0263000Y0142000D02*
D03*
X0244000Y0145000D02*
D03*
X0241000Y0146000D02*
D03*
X0244000D02*
D03*
X0243000Y0149000D02*
D03*
X0244000Y0148000D02*
D03*
Y0149000D02*
D03*
X0241000Y0153000D02*
D03*
X0244000D02*
D03*
X0240000D02*
D03*
Y0150000D02*
D03*
X0263000Y0168000D02*
D03*
Y0165000D02*
D03*
X0262000Y0166000D02*
D03*
X0261000Y0164000D02*
D03*
X0263000Y0161000D02*
D03*
Y0162000D02*
D03*
Y0157000D02*
D03*
X0256000D02*
D03*
X0259000D02*
D03*
Y0158000D02*
D03*
X0256000Y0159000D02*
D03*
Y0160000D02*
D03*
X0259000D02*
D03*
X0257000D02*
D03*
X0256000Y0161000D02*
D03*
Y0162000D02*
D03*
X0257000Y0161000D02*
D03*
X0256000Y0164000D02*
D03*
X0259000D02*
D03*
X0256000Y0165000D02*
D03*
X0259000D02*
D03*
X0240000Y0168000D02*
D03*
X0237000D02*
D03*
X0241000Y0164000D02*
D03*
Y0165000D02*
D03*
X0248000Y0159000D02*
D03*
Y0160000D02*
D03*
X0245000Y0159000D02*
D03*
X0246000D02*
D03*
X0247000D02*
D03*
X0245000Y0160000D02*
D03*
X0246000D02*
D03*
X0247000D02*
D03*
X0248000Y0157000D02*
D03*
Y0158000D02*
D03*
X0245000Y0157000D02*
D03*
X0246000D02*
D03*
X0247000D02*
D03*
X0245000Y0158000D02*
D03*
X0246000D02*
D03*
X0247000D02*
D03*
X0249000Y0157000D02*
D03*
Y0158000D02*
D03*
Y0159000D02*
D03*
Y0161000D02*
D03*
X0254000Y0162000D02*
D03*
Y0161000D02*
D03*
X0255000Y0160000D02*
D03*
Y0159000D02*
D03*
X0254000Y0160000D02*
D03*
Y0159000D02*
D03*
X0255000Y0158000D02*
D03*
Y0157000D02*
D03*
X0254000Y0158000D02*
D03*
Y0157000D02*
D03*
X0252000Y0161000D02*
D03*
X0253000Y0160000D02*
D03*
Y0159000D02*
D03*
X0252000D02*
D03*
X0253000Y0158000D02*
D03*
Y0157000D02*
D03*
X0252000Y0158000D02*
D03*
Y0157000D02*
D03*
X0251000D02*
D03*
Y0158000D02*
D03*
Y0159000D02*
D03*
X0263000Y0156000D02*
D03*
X0251000Y0148000D02*
D03*
Y0149000D02*
D03*
X0255000Y0150000D02*
D03*
X0253000Y0148000D02*
D03*
X0255000D02*
D03*
X0253000Y0149000D02*
D03*
X0255000D02*
D03*
X0252000Y0148000D02*
D03*
Y0149000D02*
D03*
X0253000Y0146000D02*
D03*
Y0147000D02*
D03*
X0254000D02*
D03*
X0252000D02*
D03*
X0255000Y0144000D02*
D03*
X0253000Y0145000D02*
D03*
X0257000Y0142000D02*
D03*
X0258000Y0143000D02*
D03*
X0259000D02*
D03*
X0256000D02*
D03*
X0257000Y0144000D02*
D03*
X0258000D02*
D03*
X0259000D02*
D03*
X0258000Y0145000D02*
D03*
X0257000Y0146000D02*
D03*
X0258000D02*
D03*
X0257000Y0147000D02*
D03*
X0258000D02*
D03*
X0259000D02*
D03*
X0257000Y0148000D02*
D03*
X0258000D02*
D03*
X0259000D02*
D03*
X0258000Y0149000D02*
D03*
X0256000Y0150000D02*
D03*
Y0153000D02*
D03*
X0261000Y0152000D02*
D03*
Y0150000D02*
D03*
Y0148000D02*
D03*
Y0149000D02*
D03*
X0260000Y0148000D02*
D03*
X0261000Y0146000D02*
D03*
X0262000D02*
D03*
X0263000D02*
D03*
X0261000Y0147000D02*
D03*
X0260000Y0146000D02*
D03*
Y0147000D02*
D03*
X0261000Y0144000D02*
D03*
X0262000D02*
D03*
X0263000D02*
D03*
X0261000Y0145000D02*
D03*
X0262000D02*
D03*
X0263000D02*
D03*
X0260000Y0144000D02*
D03*
Y0145000D02*
D03*
X0261000Y0142000D02*
D03*
X0262000D02*
D03*
X0261000Y0143000D02*
D03*
X0262000D02*
D03*
X0263000D02*
D03*
X0260000D02*
D03*
X0242000Y0145000D02*
D03*
X0260000Y0167000D02*
D03*
X0262000D02*
D03*
X0261000D02*
D03*
X0260000Y0166000D02*
D03*
X0261000D02*
D03*
X0262000Y0163000D02*
D03*
X0260000Y0161000D02*
D03*
Y0162000D02*
D03*
X0262000Y0161000D02*
D03*
X0261000D02*
D03*
X0262000Y0162000D02*
D03*
X0261000D02*
D03*
X0260000Y0159000D02*
D03*
X0263000D02*
D03*
X0262000D02*
D03*
X0261000D02*
D03*
X0263000Y0160000D02*
D03*
X0262000D02*
D03*
X0261000D02*
D03*
X0260000Y0158000D02*
D03*
X0262000Y0157000D02*
D03*
X0261000D02*
D03*
X0263000Y0158000D02*
D03*
X0262000D02*
D03*
X0261000D02*
D03*
X0257000Y0157000D02*
D03*
X0258000Y0158000D02*
D03*
X0257000D02*
D03*
X0259000Y0159000D02*
D03*
X0258000D02*
D03*
X0257000D02*
D03*
X0258000Y0160000D02*
D03*
X0259000Y0161000D02*
D03*
X0258000D02*
D03*
X0259000Y0162000D02*
D03*
X0258000D02*
D03*
X0257000D02*
D03*
X0256000Y0163000D02*
D03*
X0259000D02*
D03*
X0257000D02*
D03*
X0258000Y0164000D02*
D03*
X0257000D02*
D03*
X0258000Y0165000D02*
D03*
X0257000D02*
D03*
X0259000Y0166000D02*
D03*
X0258000D02*
D03*
X0257000D02*
D03*
X0259000Y0167000D02*
D03*
X0258000D02*
D03*
X0257000D02*
D03*
X0259000Y0168000D02*
D03*
X0258000D02*
D03*
X0255000Y0165000D02*
D03*
X0254000Y0166000D02*
D03*
X0255000Y0163000D02*
D03*
X0254000Y0164000D02*
D03*
Y0163000D02*
D03*
X0255000Y0162000D02*
D03*
X0253000Y0163000D02*
D03*
X0357140Y0105000D02*
D03*
X0389730Y0133780D02*
D03*
Y0135050D02*
D03*
X0236000Y0148000D02*
D03*
X0236000Y0167000D02*
D03*
X0264000Y0148000D02*
D03*
Y0142000D02*
D03*
Y0143000D02*
D03*
X0248000Y0141000D02*
D03*
X0262000Y0141000D02*
D03*
X0257000D02*
D03*
X0255000D02*
D03*
X0260000D02*
D03*
X0263000D02*
D03*
X0256000D02*
D03*
X0252000D02*
D03*
X0264000Y0167000D02*
D03*
Y0162000D02*
D03*
Y0160000D02*
D03*
Y0159000D02*
D03*
Y0158000D02*
D03*
Y0168000D02*
D03*
Y0161000D02*
D03*
Y0157000D02*
D03*
Y0156000D02*
D03*
X0237000Y0169000D02*
D03*
X0259000Y0169000D02*
D03*
X0258000D02*
D03*
X0260000D02*
D03*
X0239000Y0149000D02*
D03*
X0258000Y0152000D02*
D03*
X0255000Y0151000D02*
D03*
X0256000Y0152000D02*
D03*
Y0151000D02*
D03*
X0259000Y0152000D02*
D03*
X0263000Y0149000D02*
D03*
X0262000Y0147000D02*
D03*
X0263000Y0150000D02*
D03*
Y0148000D02*
D03*
Y0147000D02*
D03*
X0259000Y0149000D02*
D03*
X0260000D02*
D03*
X0259000Y0150000D02*
D03*
X0257000D02*
D03*
X0258000D02*
D03*
X0260000D02*
D03*
X0257000Y0151000D02*
D03*
Y0152000D02*
D03*
X0258000Y0151000D02*
D03*
X0261000D02*
D03*
X0263000Y0152000D02*
D03*
X0259000Y0151000D02*
D03*
X0257000Y0153000D02*
D03*
X0258000D02*
D03*
X0260000Y0151000D02*
D03*
Y0152000D02*
D03*
X0262000D02*
D03*
X0257000Y0154000D02*
D03*
X0262000Y0156000D02*
D03*
X0262000Y0154000D02*
D03*
X0263000Y0153000D02*
D03*
Y0154000D02*
D03*
X0264000D02*
D03*
Y0153000D02*
D03*
X0263000Y0151000D02*
D03*
X0262000D02*
D03*
Y0150000D02*
D03*
Y0149000D02*
D03*
X0264000D02*
D03*
X0262000Y0148000D02*
D03*
X0239000Y0153000D02*
D03*
Y0154000D02*
D03*
X0242000D02*
D03*
X0239000Y0151000D02*
D03*
X0237000Y0153000D02*
D03*
X0241000Y0154000D02*
D03*
X0243000D02*
D03*
X0244000Y0150000D02*
D03*
X0239000Y0147000D02*
D03*
X0237000Y0151000D02*
D03*
X0239000Y0148000D02*
D03*
X0240000Y0149000D02*
D03*
X0242000Y0150000D02*
D03*
X0241000Y0149000D02*
D03*
X0236000Y0145500D02*
D03*
Y0144500D02*
D03*
X0238000Y0147000D02*
D03*
X0237000Y0146000D02*
D03*
X0238000D02*
D03*
X0242000Y0147000D02*
D03*
X0243000Y0148000D02*
D03*
X0238000Y0149000D02*
D03*
X0239000Y0146000D02*
D03*
X0239990Y0146010D02*
D03*
X0242000Y0146000D02*
D03*
X0243000Y0147000D02*
D03*
X0237000Y0145000D02*
D03*
X0264000Y0144000D02*
D03*
Y0145000D02*
D03*
X0243000Y0143000D02*
D03*
X0239000Y0144000D02*
D03*
X0241000Y0142000D02*
D03*
X0242000Y0143000D02*
D03*
X0243000Y0141000D02*
D03*
X0242000Y0142000D02*
D03*
X0245000Y0144000D02*
D03*
X0241000Y0141000D02*
D03*
X0245000Y0142000D02*
D03*
X0242000Y0141000D02*
D03*
X0243000Y0142000D02*
D03*
X0247000Y0146000D02*
D03*
X0243000Y0144000D02*
D03*
X0245000Y0149000D02*
D03*
Y0146000D02*
D03*
Y0147000D02*
D03*
Y0148000D02*
D03*
X0246000Y0147000D02*
D03*
X0244000Y0144000D02*
D03*
X0245000Y0145000D02*
D03*
X0246000Y0143000D02*
D03*
X0247000Y0145000D02*
D03*
Y0144000D02*
D03*
X0246000Y0142000D02*
D03*
X0247000Y0141000D02*
D03*
X0248000Y0150000D02*
D03*
Y0147000D02*
D03*
Y0144000D02*
D03*
X0249000Y0147000D02*
D03*
Y0146000D02*
D03*
Y0144000D02*
D03*
Y0145000D02*
D03*
X0248000Y0143000D02*
D03*
X0247000D02*
D03*
Y0142000D02*
D03*
X0249000Y0143000D02*
D03*
X0250000Y0144000D02*
D03*
X0250000Y0143000D02*
D03*
X0252000Y0144000D02*
D03*
X0251000Y0146000D02*
D03*
X0253000Y0142000D02*
D03*
X0251000Y0145000D02*
D03*
X0255000Y0143000D02*
D03*
X0254000D02*
D03*
Y0141000D02*
D03*
X0251000Y0147000D02*
D03*
X0255000Y0146000D02*
D03*
X0257000Y0145000D02*
D03*
X0253000Y0144000D02*
D03*
X0255000Y0142000D02*
D03*
X0256000Y0147000D02*
D03*
X0255000Y0145000D02*
D03*
X0254000Y0142000D02*
D03*
Y0144000D02*
D03*
X0256000D02*
D03*
X0252000Y0143000D02*
D03*
X0254000Y0145000D02*
D03*
Y0146000D02*
D03*
X0060000Y0195500D02*
D03*
Y0197500D02*
D03*
X0241000Y0162000D02*
D03*
X0239000Y0161000D02*
D03*
X0061000Y0196500D02*
D03*
Y0197500D02*
D03*
X0239000Y0162000D02*
D03*
X0063000Y0196500D02*
D03*
Y0197500D02*
D03*
X0242000Y0162000D02*
D03*
X0240000D02*
D03*
X0062000Y0195500D02*
D03*
X0062000Y0197500D02*
D03*
X0240000Y0164000D02*
D03*
X0237000Y0160000D02*
D03*
X0065000Y0197500D02*
D03*
Y0196500D02*
D03*
X0239000Y0163000D02*
D03*
X0064000Y0197500D02*
D03*
Y0195500D02*
D03*
X0239000Y0165000D02*
D03*
X0236000Y0160000D02*
D03*
X0066000Y0197500D02*
D03*
Y0195500D02*
D03*
X0240000Y0163000D02*
D03*
X0087000Y0195500D02*
D03*
X0239000Y0157000D02*
D03*
X0086500Y0197000D02*
D03*
X0237000Y0165000D02*
D03*
X0067000Y0197500D02*
D03*
Y0196500D02*
D03*
X0238000Y0163000D02*
D03*
X0080500Y0197000D02*
D03*
X0241000Y0163000D02*
D03*
X0081000Y0195500D02*
D03*
X0236000Y0165000D02*
D03*
X0242000Y0163000D02*
D03*
X0082000Y0197500D02*
D03*
Y0196500D02*
D03*
X0239000Y0164000D02*
D03*
X0237000Y0167000D02*
D03*
X0085000Y0197500D02*
D03*
X0085000Y0195500D02*
D03*
X0238000Y0165000D02*
D03*
X0240000D02*
D03*
X0086000Y0196500D02*
D03*
Y0197500D02*
D03*
X0245000Y0161000D02*
D03*
X0239000Y0166000D02*
D03*
X0102000Y0197000D02*
D03*
X0240000Y0166000D02*
D03*
X0102500Y0196500D02*
D03*
X0080000D02*
D03*
X0079500Y0197000D02*
D03*
X0239000Y0167000D02*
D03*
X0103500Y0195500D02*
D03*
X0103000Y0197000D02*
D03*
X0238000Y0167000D02*
D03*
X0104500Y0196500D02*
D03*
X0238000Y0166000D02*
D03*
X0104000Y0197000D02*
D03*
X0238000Y0169000D02*
D03*
X0101500Y0195500D02*
D03*
Y0197500D02*
D03*
X0105500Y0195500D02*
D03*
X0105500Y0197500D02*
D03*
X0240000Y0167000D02*
D03*
X0238000Y0168000D02*
D03*
X0242000Y0166000D02*
D03*
X0106500Y0196500D02*
D03*
Y0197500D02*
D03*
X0241000Y0168000D02*
D03*
X0245000Y0165000D02*
D03*
X0243000Y0167000D02*
D03*
X0190000Y0215850D02*
D03*
X0250000Y0152000D02*
D03*
Y0158000D02*
D03*
X0246000Y0155000D02*
D03*
X0254000D02*
D03*
X0190000Y0108000D02*
D03*
X0189500Y0106756D02*
D03*
X0189000Y0105460D02*
D03*
X0260000Y0165000D02*
D03*
X0258000Y0163000D02*
D03*
X0260000Y0164000D02*
D03*
Y0163000D02*
D03*
X0262000Y0164000D02*
D03*
X0261000Y0165000D02*
D03*
Y0163000D02*
D03*
X0263000Y0167000D02*
D03*
X0262000Y0165000D02*
D03*
X0125000Y0197000D02*
D03*
X0121500Y0195500D02*
D03*
X0124000Y0197000D02*
D03*
X0123000D02*
D03*
X0120500Y0196500D02*
D03*
Y0197500D02*
D03*
X0121000Y0197000D02*
D03*
X0125500Y0195500D02*
D03*
X0124500Y0196500D02*
D03*
X0123500Y0195500D02*
D03*
X0122500Y0196500D02*
D03*
X0146500Y0197000D02*
D03*
X0141000Y0197500D02*
D03*
X0145500Y0197000D02*
D03*
X0141500D02*
D03*
X0142500D02*
D03*
X0144000Y0197500D02*
D03*
X0145000D02*
D03*
X0148000D02*
D03*
X0148000Y0195500D02*
D03*
X0147000Y0196500D02*
D03*
X0146000D02*
D03*
X0145000Y0196500D02*
D03*
X0141000Y0196500D02*
D03*
X0142000Y0195500D02*
D03*
X0143000Y0196500D02*
D03*
X0187500Y0196500D02*
D03*
X0188500Y0198500D02*
D03*
X0181500Y0196500D02*
D03*
Y0197500D02*
D03*
X0186500Y0195500D02*
D03*
X0183500Y0197500D02*
D03*
X0184500Y0196500D02*
D03*
X0188500Y0195500D02*
D03*
X0182500D02*
D03*
X0183500Y0196500D02*
D03*
X0182500Y0197500D02*
D03*
X0185500Y0196500D02*
D03*
X0184000Y0197000D02*
D03*
X0185000D02*
D03*
X0186000D02*
D03*
X0187500Y0197500D02*
D03*
G54D128*
X0257500Y0187500D02*
D03*
X0254500D02*
D03*
X0251500D02*
D03*
X0250000Y0190000D02*
D03*
X0253000D02*
D03*
X0256000D02*
D03*
X0259000D02*
D03*
X0283500Y0205270D02*
D03*
X0289500Y0212000D02*
D03*
X0251500Y0048500D02*
D03*
X0221000Y0066000D02*
D03*
X0235000D02*
D03*
X0221000Y0048500D02*
D03*
X0235000D02*
D03*
X0218000Y0059000D02*
D03*
X0273400Y0058400D02*
D03*
Y0048300D02*
D03*
X0218000Y0078000D02*
D03*
X0232000D02*
D03*
Y0060500D02*
D03*
X0264000Y0061000D02*
D03*
Y0050500D02*
D03*
X0223500Y0046468D02*
D03*
X0233000Y0044500D02*
D03*
X0219300D02*
D03*
X0223310Y0063702D02*
D03*
X0233500Y0062000D02*
D03*
X0219000Y0062000D02*
D03*
X0279500Y0075000D02*
D03*
X0294500D02*
D03*
X0279500Y0040000D02*
D03*
X0294500D02*
D03*
G54D129*
X0260500Y0204000D02*
D03*
X0257500D02*
D03*
X0255500D02*
D03*
X0263500D02*
D03*
X0265500D02*
D03*
X0268500Y0158532D02*
D03*
G54D130*
X0242000Y0234700D02*
D03*
X0324500Y0119800D02*
D03*
Y0112800D02*
D03*
Y0105800D02*
D03*
Y0148800D02*
D03*
Y0141800D02*
D03*
Y0134800D02*
D03*
Y0206800D02*
D03*
Y0163800D02*
D03*
Y0170800D02*
D03*
Y0177800D02*
D03*
Y0192800D02*
D03*
Y0199800D02*
D03*
X0324500Y0116000D02*
D03*
X0324500Y0109500D02*
D03*
Y0138500D02*
D03*
X0324500Y0145000D02*
D03*
X0324500Y0167500D02*
D03*
X0324500Y0174000D02*
D03*
X0324500Y0196500D02*
D03*
X0324500Y0203000D02*
D03*
X0243500Y0237000D02*
D03*
X0222500Y0152000D02*
D03*
X0221000Y0153500D02*
D03*
X0213000Y0119000D02*
D03*
G54D131*
X0351497Y0250080D02*
D03*
X0173440Y0265500D02*
D03*
X0153120D02*
D03*
X0132800D02*
D03*
X0112480D02*
D03*
X0092160D02*
D03*
X0071840D02*
D03*
X0051520D02*
D03*
X0031200D02*
D03*
X0037000Y0062500D02*
D03*
X0032500Y0054000D02*
D03*
X0036000Y0059000D02*
D03*
X0354619Y0259806D02*
D03*
X0327500Y0254500D02*
D03*
Y0249420D02*
D03*
X0354619Y0243296D02*
D03*
X0337430Y0253563D02*
D03*
X0344000Y0258000D02*
D03*
X0332000Y0249276D02*
D03*
X0340649Y0249011D02*
D03*
X0056320Y0059000D02*
D03*
X0052820Y0054000D02*
D03*
X0057320Y0062500D02*
D03*
X0076640Y0059000D02*
D03*
X0073140Y0054000D02*
D03*
X0077640Y0062500D02*
D03*
X0096960Y0059000D02*
D03*
X0093460Y0054000D02*
D03*
X0097960Y0062500D02*
D03*
X0117280Y0059000D02*
D03*
X0113780Y0054000D02*
D03*
X0118280Y0062500D02*
D03*
X0137600Y0059000D02*
D03*
X0134100Y0054000D02*
D03*
X0138600Y0062500D02*
D03*
X0157920Y0059000D02*
D03*
X0154420Y0054000D02*
D03*
X0158920Y0062500D02*
D03*
X0178240Y0059000D02*
D03*
X0174740Y0054000D02*
D03*
X0179240Y0062500D02*
D03*
X0211000Y0155000D02*
D03*
X0247500Y0134500D02*
D03*
X0252000Y0126000D02*
D03*
X0259500Y0135000D02*
D03*
X0251500Y0214500D02*
D03*
X0244500Y0207040D02*
D03*
X0266500Y0214000D02*
D03*
X0270500Y0207000D02*
D03*
X0320000Y0257500D02*
D03*
X0251500Y0203000D02*
D03*
X0247500Y0204500D02*
D03*
G54D132*
X0388325Y0132375D02*
D03*
X0387055Y0139995D02*
D03*
Y0134915D02*
D03*
G54D133*
X0385775Y0182425D02*
D03*
X0382725Y0128045D02*
D03*
M02*
