%FSAX43Y43*%
%MOMM*%
G71*
G01*
G75*
G04 Layer_Color=8388736*
%ADD10C,0.200*%
%ADD11R,0.500X0.600*%
%ADD12R,0.600X0.500*%
G04:AMPARAMS|DCode=13|XSize=0.5mm|YSize=0.6mm|CornerRadius=0mm|HoleSize=0mm|Usage=FLASHONLY|Rotation=225.000|XOffset=0mm|YOffset=0mm|HoleType=Round|Shape=Rectangle|*
%AMROTATEDRECTD13*
4,1,4,-0.035,0.389,0.389,-0.035,0.035,-0.389,-0.389,0.035,-0.035,0.389,0.0*
%
%ADD13ROTATEDRECTD13*%

G04:AMPARAMS|DCode=14|XSize=0.5mm|YSize=0.6mm|CornerRadius=0mm|HoleSize=0mm|Usage=FLASHONLY|Rotation=315.000|XOffset=0mm|YOffset=0mm|HoleType=Round|Shape=Rectangle|*
%AMROTATEDRECTD14*
4,1,4,-0.389,-0.035,0.035,0.389,0.389,0.035,-0.035,-0.389,-0.389,-0.035,0.0*
%
%ADD14ROTATEDRECTD14*%

%ADD15R,3.048X3.048*%
G04:AMPARAMS|DCode=16|XSize=1mm|YSize=2mm|CornerRadius=0.1mm|HoleSize=0mm|Usage=FLASHONLY|Rotation=270.000|XOffset=0mm|YOffset=0mm|HoleType=Round|Shape=RoundedRectangle|*
%AMROUNDEDRECTD16*
21,1,1.000,1.800,0,0,270.0*
21,1,0.800,2.000,0,0,270.0*
1,1,0.200,-0.900,-0.400*
1,1,0.200,-0.900,0.400*
1,1,0.200,0.900,0.400*
1,1,0.200,0.900,-0.400*
%
%ADD16ROUNDEDRECTD16*%
G04:AMPARAMS|DCode=17|XSize=1mm|YSize=1.5mm|CornerRadius=0.1mm|HoleSize=0mm|Usage=FLASHONLY|Rotation=270.000|XOffset=0mm|YOffset=0mm|HoleType=Round|Shape=RoundedRectangle|*
%AMROUNDEDRECTD17*
21,1,1.000,1.300,0,0,270.0*
21,1,0.800,1.500,0,0,270.0*
1,1,0.200,-0.650,-0.400*
1,1,0.200,-0.650,0.400*
1,1,0.200,0.650,0.400*
1,1,0.200,0.650,-0.400*
%
%ADD17ROUNDEDRECTD17*%
G04:AMPARAMS|DCode=18|XSize=0.8mm|YSize=1mm|CornerRadius=0.08mm|HoleSize=0mm|Usage=FLASHONLY|Rotation=270.000|XOffset=0mm|YOffset=0mm|HoleType=Round|Shape=RoundedRectangle|*
%AMROUNDEDRECTD18*
21,1,0.800,0.840,0,0,270.0*
21,1,0.640,1.000,0,0,270.0*
1,1,0.160,-0.420,-0.320*
1,1,0.160,-0.420,0.320*
1,1,0.160,0.420,0.320*
1,1,0.160,0.420,-0.320*
%
%ADD18ROUNDEDRECTD18*%
G04:AMPARAMS|DCode=19|XSize=0.8mm|YSize=1mm|CornerRadius=0.08mm|HoleSize=0mm|Usage=FLASHONLY|Rotation=0.000|XOffset=0mm|YOffset=0mm|HoleType=Round|Shape=RoundedRectangle|*
%AMROUNDEDRECTD19*
21,1,0.800,0.840,0,0,0.0*
21,1,0.640,1.000,0,0,0.0*
1,1,0.160,0.320,-0.420*
1,1,0.160,-0.320,-0.420*
1,1,0.160,-0.320,0.420*
1,1,0.160,0.320,0.420*
%
%ADD19ROUNDEDRECTD19*%
%ADD20R,0.762X2.540*%
%ADD21R,5.000X6.000*%
%ADD22R,2.540X0.762*%
%ADD23R,6.000X5.000*%
%ADD24R,3.048X3.048*%
%ADD25O,0.305X1.016*%
%ADD26O,0.813X0.305*%
%ADD27O,1.016X0.305*%
%ADD28O,0.305X0.813*%
%ADD29O,2.100X6.000*%
%ADD30O,2.100X6.000*%
%ADD31C,0.120*%
%ADD32C,0.150*%
%ADD33C,1.524*%
%ADD34C,0.508*%
%ADD35C,0.500*%
%ADD36C,1.000*%
%ADD37C,1.016*%
%ADD38C,1.160*%
%ADD39C,0.254*%
%ADD40C,0.175*%
%ADD41C,0.400*%
%ADD42C,0.300*%
%ADD43R,1.850X1.850*%
%ADD44C,1.850*%
%ADD45R,1.850X1.850*%
%ADD46C,4.000*%
%ADD47C,4.500*%
%ADD48C,1.500*%
%ADD49R,1.500X1.500*%
%ADD50C,1.524*%
%ADD51C,3.000*%
%ADD52C,2.500*%
%ADD53C,1.422*%
%ADD54C,2.438*%
%ADD55C,0.600*%
%ADD56C,1.200*%
%ADD57C,0.500*%
%ADD58C,0.800*%
%ADD59C,1.000*%
%ADD60C,0.900*%
%ADD61C,1.270*%
%ADD62C,0.700*%
%ADD63C,1.300*%
%ADD64C,1.800*%
%ADD65C,2.000*%
G04:AMPARAMS|DCode=66|XSize=1.7mm|YSize=1.7mm|CornerRadius=0mm|HoleSize=0mm|Usage=FLASHONLY|Rotation=0.000|XOffset=0mm|YOffset=0mm|HoleType=Round|Shape=Relief|Width=0.15mm|Gap=0.15mm|Entries=4|*
%AMTHD66*
7,0,0,1.700,1.400,0.150,45*
%
%ADD66THD66*%
G04:AMPARAMS|DCode=67|XSize=3.6mm|YSize=3.6mm|CornerRadius=0mm|HoleSize=0mm|Usage=FLASHONLY|Rotation=0.000|XOffset=0mm|YOffset=0mm|HoleType=Round|Shape=Relief|Width=0.15mm|Gap=0.15mm|Entries=4|*
%AMTHD67*
7,0,0,3.600,3.300,0.150,45*
%
%ADD67THD67*%
G04:AMPARAMS|DCode=68|XSize=3.4mm|YSize=3.4mm|CornerRadius=0mm|HoleSize=0mm|Usage=FLASHONLY|Rotation=0.000|XOffset=0mm|YOffset=0mm|HoleType=Round|Shape=Relief|Width=0.15mm|Gap=0.15mm|Entries=4|*
%AMTHD68*
7,0,0,3.400,3.100,0.150,45*
%
%ADD68THD68*%
%ADD69C,1.400*%
G04:AMPARAMS|DCode=70|XSize=1.5mm|YSize=1.5mm|CornerRadius=0mm|HoleSize=0mm|Usage=FLASHONLY|Rotation=0.000|XOffset=0mm|YOffset=0mm|HoleType=Round|Shape=Relief|Width=0.15mm|Gap=0.15mm|Entries=4|*
%AMTHD70*
7,0,0,1.500,1.200,0.150,45*
%
%ADD70THD70*%
%ADD71C,2.800*%
%ADD72C,2.300*%
%ADD73C,3.500*%
G04:AMPARAMS|DCode=74|XSize=1.4128mm|YSize=1.4128mm|CornerRadius=0mm|HoleSize=0mm|Usage=FLASHONLY|Rotation=0.000|XOffset=0mm|YOffset=0mm|HoleType=Round|Shape=Relief|Width=0.15mm|Gap=0.15mm|Entries=4|*
%AMTHD74*
7,0,0,1.413,1.113,0.150,45*
%
%ADD74THD74*%
%ADD75C,1.313*%
G04:AMPARAMS|DCode=76|XSize=1.9208mm|YSize=1.9208mm|CornerRadius=0mm|HoleSize=0mm|Usage=FLASHONLY|Rotation=0.000|XOffset=0mm|YOffset=0mm|HoleType=Round|Shape=Relief|Width=0.15mm|Gap=0.15mm|Entries=4|*
%AMTHD76*
7,0,0,1.921,1.621,0.150,45*
%
%ADD76THD76*%
%ADD77C,1.821*%
G04:AMPARAMS|DCode=78|XSize=0.9mm|YSize=0.9mm|CornerRadius=0mm|HoleSize=0mm|Usage=FLASHONLY|Rotation=0.000|XOffset=0mm|YOffset=0mm|HoleType=Round|Shape=Relief|Width=0.15mm|Gap=0.15mm|Entries=4|*
%AMTHD78*
7,0,0,0.900,0.600,0.150,45*
%
%ADD78THD78*%
%ADD79C,0.800*%
%ADD80C,0.750*%
G04:AMPARAMS|DCode=81|XSize=1.4mm|YSize=1.4mm|CornerRadius=0mm|HoleSize=0mm|Usage=FLASHONLY|Rotation=0.000|XOffset=0mm|YOffset=0mm|HoleType=Round|Shape=Relief|Width=0.15mm|Gap=0.15mm|Entries=4|*
%AMTHD81*
7,0,0,1.400,1.100,0.150,45*
%
%ADD81THD81*%
G04:AMPARAMS|DCode=82|XSize=1.3mm|YSize=1.3mm|CornerRadius=0mm|HoleSize=0mm|Usage=FLASHONLY|Rotation=0.000|XOffset=0mm|YOffset=0mm|HoleType=Round|Shape=Relief|Width=0.15mm|Gap=0.15mm|Entries=4|*
%AMTHD82*
7,0,0,1.300,1.000,0.150,45*
%
%ADD82THD82*%
%ADD83C,0.900*%
G04:AMPARAMS|DCode=84|XSize=0.85mm|YSize=0.85mm|CornerRadius=0mm|HoleSize=0mm|Usage=FLASHONLY|Rotation=0.000|XOffset=0mm|YOffset=0mm|HoleType=Round|Shape=Relief|Width=0.15mm|Gap=0.15mm|Entries=4|*
%AMTHD84*
7,0,0,0.850,0.550,0.150,45*
%
%ADD84THD84*%
%ADD85C,1.100*%
%ADD86C,1.000*%
G04:AMPARAMS|DCode=87|XSize=1.3112mm|YSize=1.3112mm|CornerRadius=0mm|HoleSize=0mm|Usage=FLASHONLY|Rotation=0.000|XOffset=0mm|YOffset=0mm|HoleType=Round|Shape=Relief|Width=0.15mm|Gap=0.15mm|Entries=4|*
%AMTHD87*
7,0,0,1.311,1.011,0.150,45*
%
%ADD87THD87*%
%ADD88C,1.211*%
G04:AMPARAMS|DCode=89|XSize=1.8mm|YSize=1.8mm|CornerRadius=0mm|HoleSize=0mm|Usage=FLASHONLY|Rotation=0.000|XOffset=0mm|YOffset=0mm|HoleType=Round|Shape=Relief|Width=0.15mm|Gap=0.15mm|Entries=4|*
%AMTHD89*
7,0,0,1.800,1.500,0.150,45*
%
%ADD89THD89*%
%ADD90C,1.700*%
%ADD91C,1.770*%
%ADD92C,1.600*%
%ADD93C,3.300*%
G04:AMPARAMS|DCode=94|XSize=1.2mm|YSize=1.2mm|CornerRadius=0mm|HoleSize=0mm|Usage=FLASHONLY|Rotation=0.000|XOffset=0mm|YOffset=0mm|HoleType=Round|Shape=Relief|Width=0.15mm|Gap=0.15mm|Entries=4|*
%AMTHD94*
7,0,0,1.200,0.900,0.150,45*
%
%ADD94THD94*%
%ADD95R,1.650X0.300*%
%ADD96R,0.300X1.650*%
%ADD97O,1.270X0.762*%
%ADD98R,1.270X0.762*%
%ADD99O,0.300X1.700*%
%ADD100O,1.600X0.250*%
%ADD101O,0.250X1.600*%
%ADD102R,0.250X1.600*%
%ADD103O,0.508X1.778*%
%ADD104R,0.508X1.778*%
%ADD105R,1.500X1.600*%
G04:AMPARAMS|DCode=106|XSize=1.6mm|YSize=1.5mm|CornerRadius=0mm|HoleSize=0mm|Usage=FLASHONLY|Rotation=270.000|XOffset=0mm|YOffset=0mm|HoleType=Round|Shape=Octagon|*
%AMOCTAGOND106*
4,1,8,-0.375,-0.800,0.375,-0.800,0.750,-0.425,0.750,0.425,0.375,0.800,-0.375,0.800,-0.750,0.425,-0.750,-0.425,-0.375,-0.800,0.0*
%
%ADD106OCTAGOND106*%

%ADD107R,4.600X0.610*%
%ADD108R,4.600X0.810*%
%ADD109O,1.778X0.381*%
%ADD110R,1.778X0.381*%
%ADD111C,0.305*%
%ADD112C,0.250*%
%ADD113C,0.203*%
%ADD114R,0.900X1.000*%
%ADD115R,1.000X0.900*%
G04:AMPARAMS|DCode=116|XSize=0.9mm|YSize=1mm|CornerRadius=0mm|HoleSize=0mm|Usage=FLASHONLY|Rotation=225.000|XOffset=0mm|YOffset=0mm|HoleType=Round|Shape=Rectangle|*
%AMROTATEDRECTD116*
4,1,4,-0.035,0.672,0.672,-0.035,0.035,-0.672,-0.672,0.035,-0.035,0.672,0.0*
%
%ADD116ROTATEDRECTD116*%

G04:AMPARAMS|DCode=117|XSize=0.9mm|YSize=1mm|CornerRadius=0mm|HoleSize=0mm|Usage=FLASHONLY|Rotation=315.000|XOffset=0mm|YOffset=0mm|HoleType=Round|Shape=Rectangle|*
%AMROTATEDRECTD117*
4,1,4,-0.672,-0.035,0.035,0.672,0.672,0.035,-0.035,-0.672,-0.672,-0.035,0.0*
%
%ADD117ROTATEDRECTD117*%

%ADD118R,3.448X3.448*%
G04:AMPARAMS|DCode=119|XSize=1.4mm|YSize=2.4mm|CornerRadius=0.3mm|HoleSize=0mm|Usage=FLASHONLY|Rotation=270.000|XOffset=0mm|YOffset=0mm|HoleType=Round|Shape=RoundedRectangle|*
%AMROUNDEDRECTD119*
21,1,1.400,1.800,0,0,270.0*
21,1,0.800,2.400,0,0,270.0*
1,1,0.600,-0.900,-0.400*
1,1,0.600,-0.900,0.400*
1,1,0.600,0.900,0.400*
1,1,0.600,0.900,-0.400*
%
%ADD119ROUNDEDRECTD119*%
G04:AMPARAMS|DCode=120|XSize=1.4mm|YSize=1.9mm|CornerRadius=0.3mm|HoleSize=0mm|Usage=FLASHONLY|Rotation=270.000|XOffset=0mm|YOffset=0mm|HoleType=Round|Shape=RoundedRectangle|*
%AMROUNDEDRECTD120*
21,1,1.400,1.300,0,0,270.0*
21,1,0.800,1.900,0,0,270.0*
1,1,0.600,-0.650,-0.400*
1,1,0.600,-0.650,0.400*
1,1,0.600,0.650,0.400*
1,1,0.600,0.650,-0.400*
%
%ADD120ROUNDEDRECTD120*%
G04:AMPARAMS|DCode=121|XSize=1.2mm|YSize=1.4mm|CornerRadius=0.28mm|HoleSize=0mm|Usage=FLASHONLY|Rotation=270.000|XOffset=0mm|YOffset=0mm|HoleType=Round|Shape=RoundedRectangle|*
%AMROUNDEDRECTD121*
21,1,1.200,0.840,0,0,270.0*
21,1,0.640,1.400,0,0,270.0*
1,1,0.560,-0.420,-0.320*
1,1,0.560,-0.420,0.320*
1,1,0.560,0.420,0.320*
1,1,0.560,0.420,-0.320*
%
%ADD121ROUNDEDRECTD121*%
G04:AMPARAMS|DCode=122|XSize=1.2mm|YSize=1.4mm|CornerRadius=0.28mm|HoleSize=0mm|Usage=FLASHONLY|Rotation=0.000|XOffset=0mm|YOffset=0mm|HoleType=Round|Shape=RoundedRectangle|*
%AMROUNDEDRECTD122*
21,1,1.200,0.840,0,0,0.0*
21,1,0.640,1.400,0,0,0.0*
1,1,0.560,0.320,-0.420*
1,1,0.560,-0.320,-0.420*
1,1,0.560,-0.320,0.420*
1,1,0.560,0.320,0.420*
%
%ADD122ROUNDEDRECTD122*%
%ADD123R,1.162X2.940*%
%ADD124R,5.400X6.400*%
%ADD125R,2.940X1.162*%
%ADD126R,6.400X5.400*%
%ADD127R,3.448X3.448*%
%ADD128O,0.705X1.416*%
%ADD129O,1.213X0.705*%
%ADD130O,1.416X0.705*%
%ADD131O,0.705X1.213*%
%ADD132O,2.500X6.400*%
%ADD133O,2.500X6.400*%
%ADD134R,2.250X2.250*%
%ADD135C,2.250*%
%ADD136R,2.250X2.250*%
%ADD137C,4.400*%
%ADD138C,4.900*%
%ADD139C,4.703*%
%ADD140C,1.900*%
%ADD141R,1.900X1.900*%
%ADD142C,1.924*%
%ADD143C,3.400*%
%ADD144C,2.900*%
%ADD145C,1.822*%
%ADD146C,2.838*%
%ADD147C,1.670*%
%ADD148C,1.100*%
%ADD149C,2.200*%
%ADD150C,2.400*%
G54D36*
X0025000Y0025000D02*
Y0288350D01*
X0399000D01*
Y0025000D02*
Y0288350D01*
X0025000Y0025000D02*
X0399000D01*
G54D56*
X0212500Y0228550D02*
D03*
X0252600Y0137900D02*
D03*
X0282500Y0204500D02*
D03*
G54D69*
X0222500Y0212000D02*
D03*
X0230000D02*
D03*
X0253500Y0157500D02*
D03*
Y0156000D02*
D03*
X0229500Y0185500D02*
D03*
X0234000Y0204000D02*
D03*
X0226000D02*
D03*
X0231500Y0192500D02*
D03*
X0227500D02*
D03*
X0224000D02*
D03*
G54D83*
X0242500Y0168500D02*
D03*
X0243500Y0167500D02*
D03*
X0225000Y0236000D02*
D03*
X0227600D02*
D03*
X0228900D02*
D03*
X0225650Y0237500D02*
D03*
X0226950Y0236000D02*
D03*
X0227000Y0237500D02*
D03*
X0228250D02*
D03*
X0229000D02*
D03*
X0215500Y0236000D02*
D03*
X0218100D02*
D03*
X0219400D02*
D03*
X0216150Y0237500D02*
D03*
X0217450Y0236000D02*
D03*
X0217500Y0237500D02*
D03*
X0218750D02*
D03*
X0219500D02*
D03*
X0210000D02*
D03*
X0209250D02*
D03*
X0208000D02*
D03*
X0207950Y0236000D02*
D03*
X0206650Y0237500D02*
D03*
X0209900Y0236000D02*
D03*
X0208600D02*
D03*
X0206000D02*
D03*
X0203000Y0215500D02*
D03*
X0203500Y0216000D02*
D03*
X0204000Y0217000D02*
D03*
X0204500Y0217500D02*
D03*
X0229000Y0224000D02*
D03*
X0228000D02*
D03*
X0226500D02*
D03*
X0225500D02*
D03*
X0216000D02*
D03*
X0217000D02*
D03*
X0218500D02*
D03*
X0219500D02*
D03*
X0206500D02*
D03*
X0207500D02*
D03*
X0209000D02*
D03*
X0210000D02*
D03*
X0216800Y0108500D02*
D03*
Y0107500D02*
D03*
X0243500Y0141500D02*
D03*
Y0142500D02*
D03*
Y0143500D02*
D03*
Y0144500D02*
D03*
X0246500Y0140500D02*
D03*
X0247500Y0142500D02*
D03*
X0250000Y0139200D02*
D03*
X0251000D02*
D03*
X0249500Y0142500D02*
D03*
X0251500Y0143500D02*
D03*
X0250500Y0144500D02*
D03*
Y0145500D02*
D03*
Y0146500D02*
D03*
Y0143500D02*
D03*
X0249500D02*
D03*
X0250500Y0141500D02*
D03*
X0248500Y0142500D02*
D03*
X0247500Y0143500D02*
D03*
X0248500Y0143500D02*
D03*
X0247500Y0141500D02*
D03*
X0249500Y0141500D02*
D03*
X0253000Y0146000D02*
D03*
X0246500Y0141500D02*
D03*
X0246500Y0142500D02*
D03*
X0245500Y0143500D02*
D03*
X0245500Y0142500D02*
D03*
X0246500Y0143500D02*
D03*
X0248500Y0141500D02*
D03*
X0250500Y0142500D02*
D03*
X0249500Y0144500D02*
D03*
X0248500Y0144500D02*
D03*
X0247500D02*
D03*
X0249500Y0145500D02*
D03*
X0247500D02*
D03*
X0246500Y0144500D02*
D03*
X0245000Y0139200D02*
D03*
X0237500Y0141500D02*
D03*
X0239500Y0144500D02*
D03*
X0237500Y0158500D02*
D03*
Y0162500D02*
D03*
Y0160500D02*
D03*
X0237500Y0166500D02*
D03*
Y0168500D02*
D03*
X0245500Y0172500D02*
D03*
X0246500Y0173500D02*
D03*
X0246500Y0172500D02*
D03*
X0240500Y0162500D02*
D03*
Y0160500D02*
D03*
Y0158500D02*
D03*
Y0165500D02*
D03*
Y0163500D02*
D03*
Y0159500D02*
D03*
X0245500Y0171500D02*
D03*
X0246500D02*
D03*
X0248500D02*
D03*
X0253000Y0172000D02*
D03*
X0245500Y0173500D02*
D03*
X0250500Y0171500D02*
D03*
Y0170500D02*
D03*
X0253000Y0171000D02*
D03*
X0247500Y0171500D02*
D03*
X0249500Y0170500D02*
D03*
X0250500Y0169500D02*
D03*
Y0168500D02*
D03*
X0251500Y0168500D02*
D03*
X0249500Y0168500D02*
D03*
Y0167500D02*
D03*
Y0169500D02*
D03*
X0250500Y0167500D02*
D03*
Y0166500D02*
D03*
Y0165500D02*
D03*
Y0164500D02*
D03*
X0245500Y0170500D02*
D03*
X0220000Y0085500D02*
D03*
X0221000D02*
D03*
X0222500D02*
D03*
X0223500D02*
D03*
X0210500D02*
D03*
X0211500D02*
D03*
X0213000D02*
D03*
X0214000D02*
D03*
X0234500Y0164500D02*
D03*
X0233500Y0142500D02*
D03*
X0231500Y0145500D02*
D03*
Y0146500D02*
D03*
Y0148500D02*
D03*
X0229500Y0146500D02*
D03*
Y0147500D02*
D03*
X0230500Y0146500D02*
D03*
Y0148500D02*
D03*
X0236500Y0147500D02*
D03*
X0237500D02*
D03*
X0236500Y0145500D02*
D03*
X0236500Y0146500D02*
D03*
X0237500Y0148500D02*
D03*
Y0149500D02*
D03*
Y0144500D02*
D03*
X0238500D02*
D03*
X0237500Y0145500D02*
D03*
X0238500Y0146500D02*
D03*
Y0147500D02*
D03*
Y0148500D02*
D03*
X0237500Y0146500D02*
D03*
X0239500Y0147500D02*
D03*
X0240500D02*
D03*
X0239500Y0146500D02*
D03*
Y0148500D02*
D03*
X0238500Y0149500D02*
D03*
X0239500D02*
D03*
Y0150500D02*
D03*
X0240500Y0149500D02*
D03*
Y0146500D02*
D03*
X0231500Y0147500D02*
D03*
Y0149500D02*
D03*
X0233500Y0145500D02*
D03*
X0232500Y0148500D02*
D03*
X0233500Y0146500D02*
D03*
Y0148500D02*
D03*
X0234500D02*
D03*
Y0147500D02*
D03*
X0236500Y0148500D02*
D03*
X0248500Y0170500D02*
D03*
X0204500Y0085500D02*
D03*
X0203500D02*
D03*
X0202000D02*
D03*
X0201000D02*
D03*
X0197000Y0089000D02*
D03*
X0197500Y0088500D02*
D03*
X0198000Y0087500D02*
D03*
X0198500Y0087000D02*
D03*
X0238500Y0166500D02*
D03*
X0234500Y0169500D02*
D03*
X0245500Y0144500D02*
D03*
X0244500Y0143500D02*
D03*
Y0144500D02*
D03*
X0242500Y0142500D02*
D03*
Y0143500D02*
D03*
Y0144500D02*
D03*
X0241500Y0143500D02*
D03*
Y0144500D02*
D03*
X0240500Y0142500D02*
D03*
Y0143500D02*
D03*
X0239500D02*
D03*
Y0142500D02*
D03*
X0234500Y0142500D02*
D03*
X0236500Y0144500D02*
D03*
X0234500Y0145500D02*
D03*
X0238500Y0168500D02*
D03*
X0232500Y0155500D02*
D03*
X0233500Y0154500D02*
D03*
X0232500D02*
D03*
X0216000Y0167500D02*
D03*
X0224500Y0161500D02*
D03*
Y0160500D02*
D03*
X0225500Y0161500D02*
D03*
Y0160500D02*
D03*
X0224500Y0162500D02*
D03*
X0226500Y0160500D02*
D03*
X0224500Y0169500D02*
D03*
Y0170500D02*
D03*
X0224500Y0171500D02*
D03*
X0033500Y0181500D02*
D03*
X0034000Y0180000D02*
D03*
X0165500Y0195000D02*
D03*
X0218500Y0167500D02*
D03*
X0167500Y0199500D02*
D03*
X0168000Y0198000D02*
D03*
X0085500Y0198500D02*
D03*
X0084500Y0198000D02*
D03*
X0083500Y0198500D02*
D03*
X0082500Y0198000D02*
D03*
X0081500Y0198500D02*
D03*
X0080500Y0198000D02*
D03*
X0079500Y0198500D02*
D03*
X0085000Y0200000D02*
D03*
X0086000Y0199500D02*
D03*
X0084000D02*
D03*
X0083000Y0200000D02*
D03*
X0082000Y0199500D02*
D03*
X0081000Y0200000D02*
D03*
X0080000Y0199500D02*
D03*
X0079000Y0200000D02*
D03*
X0086500Y0198000D02*
D03*
X0106000Y0198500D02*
D03*
X0105000Y0198000D02*
D03*
X0104000Y0198500D02*
D03*
X0103000Y0198000D02*
D03*
X0102000Y0198500D02*
D03*
X0101000Y0198000D02*
D03*
X0100000Y0198500D02*
D03*
X0105500Y0200000D02*
D03*
X0106500Y0199500D02*
D03*
X0104500D02*
D03*
X0103500Y0200000D02*
D03*
X0102500Y0199500D02*
D03*
X0101500Y0200000D02*
D03*
X0100500Y0199500D02*
D03*
X0099500Y0200000D02*
D03*
X0107000Y0198000D02*
D03*
X0126000Y0198500D02*
D03*
X0125000Y0198000D02*
D03*
X0124000Y0198500D02*
D03*
X0123000Y0198000D02*
D03*
X0122000Y0198500D02*
D03*
X0121000Y0198000D02*
D03*
X0120000Y0198500D02*
D03*
X0125500Y0200000D02*
D03*
X0126500Y0199500D02*
D03*
X0124500D02*
D03*
X0123500Y0200000D02*
D03*
X0122500Y0199500D02*
D03*
X0121500Y0200000D02*
D03*
X0120500Y0199500D02*
D03*
X0119500Y0200000D02*
D03*
X0127000Y0198000D02*
D03*
X0146500Y0198500D02*
D03*
X0145500Y0198000D02*
D03*
X0144500Y0198500D02*
D03*
X0143500Y0198000D02*
D03*
X0142500Y0198500D02*
D03*
X0141500Y0198000D02*
D03*
X0140500Y0198500D02*
D03*
X0146000Y0200000D02*
D03*
X0147000Y0199500D02*
D03*
X0145000D02*
D03*
X0144000Y0200000D02*
D03*
X0143000Y0199500D02*
D03*
X0142000Y0200000D02*
D03*
X0141000Y0199500D02*
D03*
X0140000Y0200000D02*
D03*
X0147500Y0198000D02*
D03*
X0167000Y0198500D02*
D03*
X0166000Y0193500D02*
D03*
X0165000Y0198500D02*
D03*
X0164000Y0198000D02*
D03*
X0163000Y0198500D02*
D03*
X0161000Y0200000D02*
D03*
X0166500D02*
D03*
X0164500D02*
D03*
X0163500Y0199500D02*
D03*
X0162500Y0200000D02*
D03*
X0161500Y0199000D02*
D03*
X0160500Y0198500D02*
D03*
X0187000D02*
D03*
X0186000Y0198000D02*
D03*
X0185000Y0198500D02*
D03*
X0184000Y0198000D02*
D03*
X0183000Y0198500D02*
D03*
X0182000Y0198000D02*
D03*
X0181000Y0198500D02*
D03*
X0186500Y0200000D02*
D03*
X0187500Y0199500D02*
D03*
X0185500D02*
D03*
X0184500Y0200000D02*
D03*
X0183500Y0199500D02*
D03*
X0182500Y0200000D02*
D03*
X0181500Y0199500D02*
D03*
X0180500Y0200000D02*
D03*
X0188000Y0198000D02*
D03*
X0065500Y0198500D02*
D03*
X0064500Y0198000D02*
D03*
X0063500Y0198500D02*
D03*
X0062500Y0198000D02*
D03*
X0061500Y0198500D02*
D03*
X0060500Y0198000D02*
D03*
X0059500Y0198500D02*
D03*
X0065000Y0200000D02*
D03*
X0066000Y0199500D02*
D03*
X0064000D02*
D03*
X0063000Y0200000D02*
D03*
X0062000Y0199500D02*
D03*
X0061000Y0200000D02*
D03*
X0060000Y0199500D02*
D03*
X0059000Y0200000D02*
D03*
X0066500Y0198000D02*
D03*
X0045000Y0198500D02*
D03*
X0044000Y0198000D02*
D03*
X0043000Y0198500D02*
D03*
X0042000Y0198000D02*
D03*
X0041000Y0198500D02*
D03*
X0040000Y0198000D02*
D03*
X0039000Y0198500D02*
D03*
X0044500Y0200000D02*
D03*
X0045500Y0199500D02*
D03*
X0043500D02*
D03*
X0042500Y0200000D02*
D03*
X0041500Y0199500D02*
D03*
X0040500Y0200000D02*
D03*
X0039500Y0199500D02*
D03*
X0038500Y0200000D02*
D03*
X0046000Y0198000D02*
D03*
X0218500Y0170500D02*
D03*
Y0169500D02*
D03*
X0219500D02*
D03*
Y0162500D02*
D03*
Y0164500D02*
D03*
X0232500Y0146500D02*
D03*
X0233500Y0150500D02*
D03*
Y0151500D02*
D03*
X0232500Y0143500D02*
D03*
Y0145500D02*
D03*
X0233500Y0141500D02*
D03*
X0227500Y0140500D02*
D03*
Y0141500D02*
D03*
X0228500D02*
D03*
X0229500D02*
D03*
X0230500Y0145500D02*
D03*
Y0141500D02*
D03*
X0231500D02*
D03*
X0226500D02*
D03*
X0225500D02*
D03*
Y0142500D02*
D03*
X0224500Y0140500D02*
D03*
X0227500Y0144500D02*
D03*
X0226500Y0142500D02*
D03*
X0226500Y0140500D02*
D03*
X0224500Y0139500D02*
D03*
Y0142500D02*
D03*
X0222500Y0141500D02*
D03*
X0221500Y0140500D02*
D03*
X0223500Y0142500D02*
D03*
Y0141500D02*
D03*
X0224500D02*
D03*
X0222500Y0142500D02*
D03*
Y0143500D02*
D03*
Y0144500D02*
D03*
X0223500Y0145500D02*
D03*
X0224500Y0146500D02*
D03*
Y0147500D02*
D03*
Y0148500D02*
D03*
Y0149500D02*
D03*
X0226500D02*
D03*
X0227500D02*
D03*
X0222500Y0145500D02*
D03*
X0224500Y0143500D02*
D03*
X0190000Y0117000D02*
D03*
X0189500Y0118500D02*
D03*
X0189000Y0117000D02*
D03*
X0188500Y0118500D02*
D03*
X0168975Y0117000D02*
D03*
X0168475Y0118500D02*
D03*
X0087000D02*
D03*
X0067000D02*
D03*
X0108000D02*
D03*
X0148500Y0117000D02*
D03*
X0148000Y0118500D02*
D03*
X0160000D02*
D03*
X0160500Y0117000D02*
D03*
X0234500Y0160500D02*
D03*
X0233500D02*
D03*
Y0159500D02*
D03*
X0234500D02*
D03*
X0233500Y0147500D02*
D03*
X0230500D02*
D03*
X0233500Y0149500D02*
D03*
X0234500D02*
D03*
X0237500Y0150500D02*
D03*
X0239500Y0141500D02*
D03*
X0238500D02*
D03*
Y0142500D02*
D03*
X0239500Y0145500D02*
D03*
X0238500D02*
D03*
X0240500D02*
D03*
Y0144500D02*
D03*
X0241500Y0146500D02*
D03*
Y0142500D02*
D03*
X0240500Y0141500D02*
D03*
X0241500D02*
D03*
X0242500Y0140500D02*
D03*
X0240500D02*
D03*
X0240200Y0139500D02*
D03*
X0244500Y0142500D02*
D03*
X0242500Y0141500D02*
D03*
X0234500Y0162500D02*
D03*
X0233500D02*
D03*
Y0161500D02*
D03*
X0234500D02*
D03*
X0231000Y0126500D02*
D03*
X0234500Y0146500D02*
D03*
X0229500Y0145500D02*
D03*
Y0144500D02*
D03*
X0228500D02*
D03*
X0229500Y0143500D02*
D03*
X0227500D02*
D03*
Y0145500D02*
D03*
X0228500Y0142500D02*
D03*
X0229500D02*
D03*
X0230000Y0139000D02*
D03*
X0231500Y0140500D02*
D03*
X0232500Y0147500D02*
D03*
X0232500Y0149500D02*
D03*
X0230500D02*
D03*
X0232500Y0152500D02*
D03*
Y0151500D02*
D03*
Y0150500D02*
D03*
X0230500Y0143500D02*
D03*
X0228500Y0145500D02*
D03*
Y0143500D02*
D03*
X0227500Y0142500D02*
D03*
X0228500Y0146500D02*
D03*
Y0147500D02*
D03*
X0225500Y0146500D02*
D03*
Y0147500D02*
D03*
X0236500Y0139500D02*
D03*
X0225500Y0127000D02*
D03*
X0236500Y0163500D02*
D03*
Y0162500D02*
D03*
X0237500Y0161500D02*
D03*
X0236500D02*
D03*
Y0160500D02*
D03*
Y0159500D02*
D03*
X0233500Y0163500D02*
D03*
X0234500D02*
D03*
X0232500Y0161500D02*
D03*
X0231500D02*
D03*
X0232500Y0149500D02*
D03*
X0229500Y0148500D02*
D03*
X0231500Y0150500D02*
D03*
Y0151500D02*
D03*
X0230500Y0150500D02*
D03*
X0232500Y0162500D02*
D03*
Y0163500D02*
D03*
X0240500Y0148500D02*
D03*
X0043000Y0118000D02*
D03*
X0043500Y0116500D02*
D03*
X0041000Y0118000D02*
D03*
X0041500Y0116500D02*
D03*
X0040000Y0118500D02*
D03*
X0040500Y0117000D02*
D03*
X0039000Y0118000D02*
D03*
X0039500Y0116500D02*
D03*
X0038000Y0118500D02*
D03*
X0038500Y0117000D02*
D03*
X0251500Y0163500D02*
D03*
X0250500Y0163500D02*
D03*
X0253000Y0166000D02*
D03*
Y0151000D02*
D03*
X0251500Y0148500D02*
D03*
X0218500Y0171500D02*
D03*
X0219500Y0173500D02*
D03*
X0251500Y0158500D02*
D03*
X0252500Y0160500D02*
D03*
X0249500Y0172500D02*
D03*
X0220500Y0173500D02*
D03*
X0222500Y0171500D02*
D03*
X0218500Y0161500D02*
D03*
X0251500Y0173500D02*
D03*
X0250500Y0154500D02*
D03*
Y0149500D02*
D03*
Y0148500D02*
D03*
Y0147500D02*
D03*
X0243500Y0153500D02*
D03*
Y0152500D02*
D03*
X0244500Y0145500D02*
D03*
Y0146500D02*
D03*
Y0147500D02*
D03*
Y0152500D02*
D03*
X0245500Y0149500D02*
D03*
Y0152500D02*
D03*
X0246500Y0147500D02*
D03*
Y0152500D02*
D03*
Y0151500D02*
D03*
X0247500Y0150500D02*
D03*
Y0155500D02*
D03*
X0248500Y0148500D02*
D03*
X0249500Y0146500D02*
D03*
Y0147500D02*
D03*
Y0148500D02*
D03*
Y0149500D02*
D03*
Y0150500D02*
D03*
Y0151500D02*
D03*
X0242500D02*
D03*
Y0150500D02*
D03*
Y0149500D02*
D03*
X0241500Y0152500D02*
D03*
Y0150500D02*
D03*
Y0149500D02*
D03*
Y0148500D02*
D03*
X0240500Y0154500D02*
D03*
Y0155500D02*
D03*
Y0150500D02*
D03*
X0239500Y0154500D02*
D03*
Y0155500D02*
D03*
X0238500Y0154500D02*
D03*
Y0155500D02*
D03*
X0237500Y0154500D02*
D03*
Y0155500D02*
D03*
X0236500Y0154500D02*
D03*
Y0155500D02*
D03*
X0249500Y0171500D02*
D03*
X0220500Y0157500D02*
D03*
Y0162500D02*
D03*
Y0163500D02*
D03*
Y0164500D02*
D03*
Y0165500D02*
D03*
Y0166500D02*
D03*
Y0167500D02*
D03*
Y0169500D02*
D03*
X0221500Y0161500D02*
D03*
Y0162500D02*
D03*
Y0163500D02*
D03*
Y0164500D02*
D03*
Y0165500D02*
D03*
Y0167500D02*
D03*
Y0168500D02*
D03*
Y0169500D02*
D03*
X0248500Y0169500D02*
D03*
X0222500Y0161500D02*
D03*
Y0162500D02*
D03*
Y0163500D02*
D03*
Y0164500D02*
D03*
Y0165500D02*
D03*
Y0166500D02*
D03*
Y0167500D02*
D03*
Y0168500D02*
D03*
Y0169500D02*
D03*
Y0170500D02*
D03*
X0244500Y0168500D02*
D03*
X0246500D02*
D03*
X0248500D02*
D03*
X0223500Y0157500D02*
D03*
Y0161500D02*
D03*
Y0162500D02*
D03*
Y0163500D02*
D03*
Y0164500D02*
D03*
Y0167500D02*
D03*
Y0169500D02*
D03*
X0244500Y0167500D02*
D03*
X0248500D02*
D03*
X0224500Y0165500D02*
D03*
Y0166500D02*
D03*
Y0167500D02*
D03*
Y0168500D02*
D03*
X0247500Y0166500D02*
D03*
X0249500D02*
D03*
X0243500Y0165500D02*
D03*
X0245500D02*
D03*
X0249500D02*
D03*
X0226500Y0165500D02*
D03*
Y0166500D02*
D03*
X0238500Y0164500D02*
D03*
X0242500D02*
D03*
X0243500D02*
D03*
X0246500D02*
D03*
X0248500D02*
D03*
X0249500D02*
D03*
X0227500Y0161500D02*
D03*
Y0162500D02*
D03*
Y0163500D02*
D03*
Y0165500D02*
D03*
Y0166500D02*
D03*
Y0168500D02*
D03*
X0242500Y0163500D02*
D03*
X0243500D02*
D03*
X0246500D02*
D03*
X0249500D02*
D03*
X0228500Y0162500D02*
D03*
Y0163500D02*
D03*
Y0164500D02*
D03*
Y0165500D02*
D03*
Y0166500D02*
D03*
Y0169500D02*
D03*
Y0170500D02*
D03*
Y0171500D02*
D03*
X0239500Y0162500D02*
D03*
X0238500D02*
D03*
X0242500D02*
D03*
X0244500D02*
D03*
X0249500D02*
D03*
X0250500D02*
D03*
X0229500Y0161500D02*
D03*
Y0163500D02*
D03*
Y0164500D02*
D03*
Y0165500D02*
D03*
Y0167500D02*
D03*
Y0169500D02*
D03*
X0239500Y0161500D02*
D03*
X0238500D02*
D03*
X0242500D02*
D03*
X0245500D02*
D03*
X0247500D02*
D03*
X0230500Y0157500D02*
D03*
Y0160500D02*
D03*
Y0161500D02*
D03*
Y0162500D02*
D03*
Y0164500D02*
D03*
Y0165500D02*
D03*
Y0166500D02*
D03*
Y0167500D02*
D03*
X0238500Y0160500D02*
D03*
X0245500D02*
D03*
X0231500Y0157500D02*
D03*
Y0162500D02*
D03*
Y0166500D02*
D03*
Y0167500D02*
D03*
X0239500Y0159500D02*
D03*
X0238500D02*
D03*
X0237500D02*
D03*
X0243500D02*
D03*
X0248500D02*
D03*
X0232500Y0157500D02*
D03*
Y0160500D02*
D03*
X0239500Y0158500D02*
D03*
X0238500D02*
D03*
X0236500D02*
D03*
X0244500D02*
D03*
X0233500Y0157500D02*
D03*
X0239500D02*
D03*
X0238500D02*
D03*
X0237500D02*
D03*
X0236500D02*
D03*
X0244500D02*
D03*
X0234500D02*
D03*
X0193000Y0214000D02*
D03*
X0361000Y0147100D02*
D03*
X0368500D02*
D03*
X0374000Y0135000D02*
D03*
X0193000Y0215350D02*
D03*
X0236500Y0150500D02*
D03*
Y0153500D02*
D03*
Y0152500D02*
D03*
Y0151500D02*
D03*
X0237500Y0152500D02*
D03*
Y0151500D02*
D03*
X0238500Y0153500D02*
D03*
X0239500Y0151500D02*
D03*
X0048500Y0117000D02*
D03*
X0048000Y0118500D02*
D03*
X0059000Y0117000D02*
D03*
X0058500Y0118500D02*
D03*
X0060000Y0116500D02*
D03*
X0059500Y0118000D02*
D03*
X0061000Y0117000D02*
D03*
X0060500Y0118500D02*
D03*
X0034500Y0127000D02*
D03*
X0033000Y0126500D02*
D03*
X0042500Y0117000D02*
D03*
X0042000Y0118500D02*
D03*
X0044500Y0117000D02*
D03*
X0044000Y0118500D02*
D03*
X0045500Y0116500D02*
D03*
X0045000Y0118000D02*
D03*
X0047000Y0117000D02*
D03*
X0046500Y0118500D02*
D03*
X0241500Y0147500D02*
D03*
X0236500Y0149500D02*
D03*
X0231500Y0153500D02*
D03*
X0232500D02*
D03*
X0231500Y0155500D02*
D03*
X0234500Y0150500D02*
D03*
Y0151500D02*
D03*
Y0152500D02*
D03*
X0233500D02*
D03*
X0234500Y0153500D02*
D03*
X0233500D02*
D03*
Y0155500D02*
D03*
X0234500D02*
D03*
Y0154500D02*
D03*
X0225500Y0145500D02*
D03*
X0214500Y0154000D02*
D03*
X0222500Y0151500D02*
D03*
X0223500D02*
D03*
X0224500D02*
D03*
X0225500D02*
D03*
X0220500Y0150500D02*
D03*
X0222500D02*
D03*
X0220500Y0149500D02*
D03*
X0221500D02*
D03*
X0224500Y0145500D02*
D03*
X0221500D02*
D03*
X0220500D02*
D03*
X0223500Y0146500D02*
D03*
X0221500D02*
D03*
X0220500D02*
D03*
X0221500Y0147500D02*
D03*
X0220500D02*
D03*
X0221500Y0148500D02*
D03*
X0220500D02*
D03*
X0219500Y0149500D02*
D03*
X0218500Y0146500D02*
D03*
X0219500D02*
D03*
Y0145500D02*
D03*
X0221500Y0150500D02*
D03*
X0219500D02*
D03*
X0222500Y0149500D02*
D03*
Y0148500D02*
D03*
Y0147500D02*
D03*
Y0146500D02*
D03*
X0226500Y0151500D02*
D03*
X0222500Y0152500D02*
D03*
X0230500Y0154500D02*
D03*
Y0153500D02*
D03*
X0229500Y0154500D02*
D03*
X0223500Y0152500D02*
D03*
X0229500Y0153500D02*
D03*
Y0150500D02*
D03*
X0230500Y0151500D02*
D03*
Y0152500D02*
D03*
X0226500Y0145500D02*
D03*
Y0148500D02*
D03*
X0225500Y0150500D02*
D03*
Y0148500D02*
D03*
X0226500Y0150500D02*
D03*
X0229500Y0149500D02*
D03*
X0224500Y0152500D02*
D03*
X0227500Y0151500D02*
D03*
X0229500D02*
D03*
Y0152500D02*
D03*
X0218500Y0152500D02*
D03*
X0219500Y0154500D02*
D03*
X0227500Y0146500D02*
D03*
X0226500D02*
D03*
Y0147500D02*
D03*
X0228500Y0148500D02*
D03*
X0227500D02*
D03*
Y0147500D02*
D03*
X0228500Y0149500D02*
D03*
Y0150500D02*
D03*
Y0151500D02*
D03*
X0227500Y0150500D02*
D03*
Y0152500D02*
D03*
X0226500D02*
D03*
X0228500Y0154500D02*
D03*
X0226500Y0153500D02*
D03*
X0222500D02*
D03*
X0226500Y0154500D02*
D03*
Y0155500D02*
D03*
X0227500Y0154500D02*
D03*
Y0153500D02*
D03*
X0228500D02*
D03*
Y0152500D02*
D03*
X0225500D02*
D03*
X0224500Y0150500D02*
D03*
X0223500D02*
D03*
X0225500Y0149500D02*
D03*
X0223500D02*
D03*
Y0148500D02*
D03*
Y0147500D02*
D03*
X0120000Y0117000D02*
D03*
X0119500Y0118500D02*
D03*
X0121000Y0116500D02*
D03*
X0120500Y0118000D02*
D03*
X0122000Y0117000D02*
D03*
X0121500Y0118500D02*
D03*
X0123000Y0116500D02*
D03*
X0122500Y0118000D02*
D03*
X0125000Y0116500D02*
D03*
X0124500Y0118000D02*
D03*
X0126000Y0117000D02*
D03*
X0125500Y0118500D02*
D03*
X0127000Y0116500D02*
D03*
X0126500Y0118000D02*
D03*
X0123500Y0118500D02*
D03*
X0124000Y0117000D02*
D03*
X0140000D02*
D03*
X0139500Y0118500D02*
D03*
X0141000Y0116500D02*
D03*
X0140500Y0118000D02*
D03*
X0142000Y0117000D02*
D03*
X0141500Y0118500D02*
D03*
X0143000Y0116500D02*
D03*
X0142500Y0118000D02*
D03*
X0145000Y0116500D02*
D03*
X0144500Y0118000D02*
D03*
X0146000Y0117000D02*
D03*
X0145500Y0118500D02*
D03*
X0147000Y0116500D02*
D03*
X0146500Y0118000D02*
D03*
X0143500Y0118500D02*
D03*
X0144000Y0117000D02*
D03*
X0230500Y0142500D02*
D03*
X0218500Y0141500D02*
D03*
X0219500Y0141500D02*
D03*
X0220500Y0142500D02*
D03*
X0219500Y0139500D02*
D03*
X0221500Y0142500D02*
D03*
Y0141500D02*
D03*
X0220500D02*
D03*
X0225500Y0143500D02*
D03*
X0219500Y0144500D02*
D03*
X0220500Y0144500D02*
D03*
X0221500D02*
D03*
X0223500D02*
D03*
X0224500D02*
D03*
X0226500D02*
D03*
X0220500Y0143500D02*
D03*
X0221500D02*
D03*
X0223500D02*
D03*
X0226500D02*
D03*
X0225500Y0144500D02*
D03*
X0087500Y0117000D02*
D03*
X0236500Y0142500D02*
D03*
X0236500Y0140500D02*
D03*
X0234500Y0144500D02*
D03*
X0196000Y0107500D02*
D03*
X0195000Y0105000D02*
D03*
X0164500Y0117000D02*
D03*
X0164000Y0118500D02*
D03*
X0167000Y0118000D02*
D03*
X0167500Y0116500D02*
D03*
X0166000Y0118500D02*
D03*
X0166500Y0117000D02*
D03*
X0165000Y0118000D02*
D03*
X0165500Y0116500D02*
D03*
X0163000Y0118000D02*
D03*
X0163500Y0116500D02*
D03*
X0162000Y0118500D02*
D03*
X0162500Y0117000D02*
D03*
X0161000Y0118000D02*
D03*
X0161500Y0116500D02*
D03*
X0180000Y0118500D02*
D03*
X0180500Y0117000D02*
D03*
X0181500Y0116500D02*
D03*
X0182500Y0117000D02*
D03*
X0183500Y0116500D02*
D03*
X0187500D02*
D03*
X0186500Y0117000D02*
D03*
X0185500Y0116500D02*
D03*
X0184500Y0117000D02*
D03*
X0187000Y0118000D02*
D03*
X0186000Y0118500D02*
D03*
X0185000Y0118000D02*
D03*
X0184000Y0118500D02*
D03*
X0183000Y0118000D02*
D03*
X0182000Y0118500D02*
D03*
X0181000Y0118000D02*
D03*
X0067500Y0117000D02*
D03*
X0061500Y0118000D02*
D03*
X0062000Y0116500D02*
D03*
X0063000Y0117000D02*
D03*
X0062500Y0118500D02*
D03*
X0068500D02*
D03*
X0069000Y0117000D02*
D03*
X0065500Y0118000D02*
D03*
X0066000Y0116500D02*
D03*
X0064500Y0118500D02*
D03*
X0065000Y0117000D02*
D03*
X0063500Y0118000D02*
D03*
X0064000Y0116500D02*
D03*
X0189500Y0080830D02*
D03*
X0189000Y0082000D02*
D03*
X0086000Y0116500D02*
D03*
X0078500Y0118500D02*
D03*
X0079500Y0118000D02*
D03*
X0080500Y0118500D02*
D03*
X0081500Y0118000D02*
D03*
X0082500Y0118500D02*
D03*
X0083500Y0118000D02*
D03*
X0085500D02*
D03*
X0084500Y0118500D02*
D03*
X0079000Y0117000D02*
D03*
X0080000Y0116500D02*
D03*
X0081000Y0117000D02*
D03*
X0082000Y0116500D02*
D03*
X0083000Y0117000D02*
D03*
X0084000Y0116500D02*
D03*
X0085000Y0117000D02*
D03*
X0106500Y0116500D02*
D03*
X0101000Y0118500D02*
D03*
X0103000D02*
D03*
X0105000D02*
D03*
X0106000Y0118000D02*
D03*
X0104000D02*
D03*
X0102000D02*
D03*
X0099000Y0118500D02*
D03*
X0100000Y0118000D02*
D03*
X0099500Y0117000D02*
D03*
X0100500Y0116500D02*
D03*
X0101500Y0117000D02*
D03*
X0102500Y0116500D02*
D03*
X0103500Y0117000D02*
D03*
X0104500Y0116500D02*
D03*
X0105500Y0117000D02*
D03*
X0089000D02*
D03*
X0088500Y0118500D02*
D03*
X0090000Y0117000D02*
D03*
X0089500Y0118500D02*
D03*
X0108500Y0117000D02*
D03*
X0109500D02*
D03*
X0109000Y0118500D02*
D03*
X0129000Y0117000D02*
D03*
X0128500Y0118500D02*
D03*
X0229500Y0125500D02*
D03*
X0224000Y0126500D02*
D03*
X0238000Y0129000D02*
D03*
X0236500Y0128500D02*
D03*
X0241000Y0130000D02*
D03*
X0239500Y0129500D02*
D03*
X0247000Y0132000D02*
D03*
X0246000Y0130000D02*
D03*
X0195500Y0106500D02*
D03*
X0149500Y0118500D02*
D03*
X0150000Y0117000D02*
D03*
X0221500Y0173500D02*
D03*
X0036000Y0180000D02*
D03*
X0035500Y0181500D02*
D03*
X0088000Y0198500D02*
D03*
X0087500Y0200000D02*
D03*
X0089000Y0198500D02*
D03*
X0088500Y0200000D02*
D03*
X0149000Y0198000D02*
D03*
X0148500Y0199500D02*
D03*
X0150000Y0198000D02*
D03*
X0149500Y0199500D02*
D03*
X0048500Y0198000D02*
D03*
X0048000Y0199500D02*
D03*
X0058500Y0198000D02*
D03*
X0058000Y0199500D02*
D03*
X0068000Y0198000D02*
D03*
X0067500Y0199500D02*
D03*
X0069000Y0198000D02*
D03*
X0068500Y0199500D02*
D03*
X0108500Y0198000D02*
D03*
X0108000Y0199500D02*
D03*
X0109500Y0198000D02*
D03*
X0109000Y0199500D02*
D03*
X0170500Y0198000D02*
D03*
X0170000Y0199500D02*
D03*
X0247500Y0170500D02*
D03*
X0246500D02*
D03*
X0169000Y0204000D02*
D03*
X0169500Y0202500D02*
D03*
X0224500Y0154500D02*
D03*
X0233500Y0144500D02*
D03*
Y0143500D02*
D03*
X0234500D02*
D03*
X0236500Y0143500D02*
D03*
X0232500Y0141500D02*
D03*
X0232500Y0167500D02*
D03*
X0237500Y0165500D02*
D03*
Y0167500D02*
D03*
X0239500D02*
D03*
X0238500Y0169500D02*
D03*
X0236500Y0171500D02*
D03*
X0234500Y0165500D02*
D03*
X0237500Y0169500D02*
D03*
X0236500D02*
D03*
Y0168500D02*
D03*
X0234500Y0167500D02*
D03*
X0236500Y0166500D02*
D03*
Y0167500D02*
D03*
X0186575Y0087675D02*
D03*
X0185575Y0086675D02*
D03*
X0187075Y0085175D02*
D03*
X0186575Y0084175D02*
D03*
X0201100Y0073800D02*
D03*
X0200800Y0072500D02*
D03*
X0203400D02*
D03*
X0203700Y0073800D02*
D03*
X0201700Y0072500D02*
D03*
X0202400Y0073800D02*
D03*
X0205000D02*
D03*
X0204300Y0072500D02*
D03*
X0213800D02*
D03*
X0214500Y0073800D02*
D03*
X0211900D02*
D03*
X0213200Y0073800D02*
D03*
X0212900Y0072500D02*
D03*
X0210600Y0073800D02*
D03*
X0223300Y0072500D02*
D03*
X0224000Y0073800D02*
D03*
X0221400D02*
D03*
X0220700Y0072500D02*
D03*
X0222700Y0073800D02*
D03*
X0222400Y0072500D02*
D03*
X0219800D02*
D03*
X0220100Y0073800D02*
D03*
X0210300Y0072500D02*
D03*
X0211200D02*
D03*
X0194000Y0216000D02*
D03*
X0193200Y0218600D02*
D03*
X0194000Y0219900D02*
D03*
X0192500Y0216650D02*
D03*
X0194000Y0217950D02*
D03*
X0192500Y0217900D02*
D03*
Y0219250D02*
D03*
Y0220000D02*
D03*
X0227500Y0170500D02*
D03*
Y0169500D02*
D03*
X0226500D02*
D03*
X0225500D02*
D03*
X0226500Y0167500D02*
D03*
X0227500D02*
D03*
X0226500Y0168500D02*
D03*
X0229500Y0166500D02*
D03*
X0230500Y0171500D02*
D03*
X0242500Y0166500D02*
D03*
X0239500Y0166500D02*
D03*
X0239500Y0168500D02*
D03*
X0240500Y0164500D02*
D03*
X0230500Y0173500D02*
D03*
X0232500Y0168500D02*
D03*
X0243500Y0172500D02*
D03*
Y0170500D02*
D03*
X0243500Y0169500D02*
D03*
X0242500Y0169500D02*
D03*
X0230500Y0163500D02*
D03*
X0231500D02*
D03*
Y0164500D02*
D03*
X0233500D02*
D03*
X0232500D02*
D03*
X0231500Y0165500D02*
D03*
X0232500Y0165500D02*
D03*
X0233500Y0167500D02*
D03*
X0232500Y0166500D02*
D03*
X0233500Y0168500D02*
D03*
X0233500Y0171500D02*
D03*
X0231500Y0168500D02*
D03*
Y0169500D02*
D03*
X0230500Y0170500D02*
D03*
X0233500Y0169500D02*
D03*
Y0170500D02*
D03*
Y0165500D02*
D03*
Y0166500D02*
D03*
X0234500D02*
D03*
X0236500Y0164500D02*
D03*
X0236500Y0165500D02*
D03*
X0238500Y0171500D02*
D03*
X0239500Y0170500D02*
D03*
X0239500Y0169500D02*
D03*
X0241500Y0159500D02*
D03*
Y0163500D02*
D03*
Y0165500D02*
D03*
Y0169500D02*
D03*
Y0162500D02*
D03*
Y0158500D02*
D03*
Y0170500D02*
D03*
Y0168500D02*
D03*
Y0164500D02*
D03*
X0242500Y0171500D02*
D03*
Y0172500D02*
D03*
X0244500Y0172500D02*
D03*
X0243500Y0171500D02*
D03*
X0244500Y0173500D02*
D03*
X0243500D02*
D03*
X0242500D02*
D03*
X0241500Y0173500D02*
D03*
X0240500Y0170500D02*
D03*
X0240500Y0171500D02*
D03*
X0237500Y0171500D02*
D03*
X0238500Y0172500D02*
D03*
X0237500Y0170500D02*
D03*
X0225500Y0163500D02*
D03*
Y0164500D02*
D03*
X0224500Y0163500D02*
D03*
Y0164500D02*
D03*
X0223500Y0165500D02*
D03*
X0221500Y0166500D02*
D03*
X0223500D02*
D03*
X0219500Y0167500D02*
D03*
X0220500Y0168500D02*
D03*
X0221500Y0170500D02*
D03*
X0229500Y0171500D02*
D03*
X0230500Y0172500D02*
D03*
Y0168500D02*
D03*
Y0169500D02*
D03*
X0236500Y0170500D02*
D03*
X0234500Y0170500D02*
D03*
Y0168500D02*
D03*
X0234500Y0172500D02*
D03*
Y0173500D02*
D03*
X0234500Y0171500D02*
D03*
X0232500Y0171500D02*
D03*
Y0170500D02*
D03*
X0228500Y0172500D02*
D03*
X0227500Y0171500D02*
D03*
X0226500Y0170500D02*
D03*
X0229500D02*
D03*
Y0159500D02*
D03*
X0231500Y0171500D02*
D03*
Y0170500D02*
D03*
X0230500Y0158500D02*
D03*
Y0159500D02*
D03*
X0231500Y0158500D02*
D03*
X0232500Y0159500D02*
D03*
Y0158500D02*
D03*
X0233500D02*
D03*
X0231500Y0159500D02*
D03*
X0227500Y0160500D02*
D03*
X0228500Y0159500D02*
D03*
X0227500D02*
D03*
X0229500Y0160500D02*
D03*
X0228500D02*
D03*
Y0161500D02*
D03*
X0229500Y0162500D02*
D03*
X0226500D02*
D03*
X0225500D02*
D03*
X0226500Y0163500D02*
D03*
Y0164500D02*
D03*
X0225500Y0165500D02*
D03*
Y0166500D02*
D03*
Y0167500D02*
D03*
X0223500Y0168500D02*
D03*
X0220500Y0170500D02*
D03*
X0219500Y0170500D02*
D03*
X0220500Y0171500D02*
D03*
X0221500D02*
D03*
Y0172500D02*
D03*
X0223500D02*
D03*
X0223500Y0170500D02*
D03*
X0223500Y0171500D02*
D03*
X0225500D02*
D03*
Y0173500D02*
D03*
Y0170500D02*
D03*
X0224500Y0172500D02*
D03*
X0225500D02*
D03*
X0226500Y0171500D02*
D03*
X0227500Y0172500D02*
D03*
X0228500Y0168500D02*
D03*
X0229500D02*
D03*
G54D86*
X0199000Y0217000D02*
D03*
X0207000Y0228550D02*
D03*
X0216500D02*
D03*
X0226000D02*
D03*
X0193000Y0085000D02*
D03*
X0204000Y0081000D02*
D03*
X0213500D02*
D03*
X0223000D02*
D03*
G54D90*
X0311000Y0049800D02*
D03*
X0287000Y0067240D02*
D03*
X0301000D02*
D03*
X0287000Y0049740D02*
D03*
X0301000D02*
D03*
X0284000Y0060240D02*
D03*
X0339400Y0049540D02*
D03*
X0284000Y0079000D02*
D03*
X0298000Y0079240D02*
D03*
Y0061740D02*
D03*
X0318500Y0062300D02*
D03*
X0330000Y0051740D02*
D03*
X0289500Y0047708D02*
D03*
X0299000Y0045740D02*
D03*
X0285300D02*
D03*
X0289310Y0064942D02*
D03*
X0299500Y0063240D02*
D03*
X0285000Y0063240D02*
D03*
X0345500Y0076240D02*
D03*
X0360500D02*
D03*
X0345500Y0041240D02*
D03*
X0360500D02*
D03*
G54D92*
X0245000Y0199500D02*
D03*
X0246500Y0198500D02*
D03*
X0253000Y0127000D02*
D03*
X0273500D02*
D03*
X0294000D02*
D03*
X0303000Y0157000D02*
D03*
X0282500D02*
D03*
X0262000D02*
D03*
X0199000Y0246000D02*
D03*
Y0266500D02*
D03*
X0191000Y0246000D02*
D03*
Y0266500D02*
D03*
X0337500Y0241500D02*
D03*
Y0262000D02*
D03*
X0329500Y0241500D02*
D03*
Y0262000D02*
D03*
X0366500Y0240500D02*
D03*
Y0261000D02*
D03*
X0358500Y0240500D02*
D03*
Y0261000D02*
D03*
X0249000Y0258000D02*
D03*
Y0237500D02*
D03*
X0257000Y0258000D02*
D03*
Y0237500D02*
D03*
X0334000Y0100000D02*
D03*
X0313500D02*
D03*
X0334000Y0092000D02*
D03*
X0313500D02*
D03*
X0334000Y0130500D02*
D03*
X0313500D02*
D03*
X0334000Y0122500D02*
D03*
X0313500D02*
D03*
X0334000Y0159000D02*
D03*
X0313500D02*
D03*
X0334000Y0151000D02*
D03*
X0313500D02*
D03*
Y0180000D02*
D03*
X0334000D02*
D03*
X0313500Y0188000D02*
D03*
X0334000D02*
D03*
X0257000Y0176000D02*
D03*
X0277500D02*
D03*
X0319000Y0227000D02*
D03*
X0302500D02*
D03*
X0322500Y0245000D02*
D03*
X0255500Y0227000D02*
D03*
X0235000D02*
D03*
X0276000D02*
D03*
X0337500D02*
D03*
X0358000D02*
D03*
X0378500D02*
D03*
X0260500Y0087000D02*
D03*
X0240000D02*
D03*
X0281000D02*
D03*
X0301500D02*
D03*
X0322000D02*
D03*
X0342500D02*
D03*
X0363000D02*
D03*
X0383500D02*
D03*
X0060000Y0273000D02*
D03*
X0039500D02*
D03*
X0080500D02*
D03*
X0101000D02*
D03*
X0121500D02*
D03*
X0142000D02*
D03*
X0162500D02*
D03*
X0183000D02*
D03*
Y0043000D02*
D03*
X0162500D02*
D03*
X0142000D02*
D03*
X0121500D02*
D03*
X0101000D02*
D03*
X0080500D02*
D03*
X0039500D02*
D03*
X0060000D02*
D03*
X0324000Y0196000D02*
D03*
X0324000Y0192300D02*
D03*
Y0206300D02*
D03*
Y0199300D02*
D03*
X0324000Y0202500D02*
D03*
X0324000Y0173500D02*
D03*
X0324000Y0167000D02*
D03*
X0324000Y0144500D02*
D03*
X0324000Y0138000D02*
D03*
X0324000Y0177300D02*
D03*
Y0170300D02*
D03*
Y0163300D02*
D03*
Y0134300D02*
D03*
Y0141300D02*
D03*
Y0148300D02*
D03*
Y0119300D02*
D03*
Y0112300D02*
D03*
Y0105300D02*
D03*
X0324000Y0115500D02*
D03*
X0324000Y0109000D02*
D03*
X0232960Y0251500D02*
D03*
X0265000Y0203500D02*
D03*
X0263000D02*
D03*
X0319500Y0257000D02*
D03*
X0343500Y0257500D02*
D03*
X0354119Y0242796D02*
D03*
Y0259306D02*
D03*
X0350997Y0249580D02*
D03*
X0260000Y0203500D02*
D03*
X0258500Y0247200D02*
D03*
X0260000Y0249500D02*
D03*
X0273000Y0211500D02*
D03*
X0255000Y0203500D02*
D03*
X0331500Y0248776D02*
D03*
X0339500Y0254000D02*
D03*
X0327000Y0248920D02*
D03*
Y0254000D02*
D03*
X0257500Y0203500D02*
D03*
X0328000Y0250700D02*
D03*
X0245000Y0194000D02*
D03*
X0196000Y0238000D02*
D03*
Y0081000D02*
D03*
Y0222000D02*
D03*
G54D114*
X0219600Y0142500D02*
D03*
Y0143500D02*
D03*
X0230800Y0152300D02*
D03*
Y0153300D02*
D03*
X0233800Y0140900D02*
D03*
Y0139900D02*
D03*
X0244600Y0171000D02*
D03*
Y0172000D02*
D03*
X0234900Y0150500D02*
D03*
Y0149500D02*
D03*
X0230800Y0148300D02*
D03*
Y0147300D02*
D03*
X0233800Y0168800D02*
D03*
Y0167800D02*
D03*
X0248500Y0164100D02*
D03*
Y0163100D02*
D03*
X0223700Y0140700D02*
D03*
Y0139700D02*
D03*
X0243500Y0158500D02*
D03*
Y0157500D02*
D03*
X0245500Y0168500D02*
D03*
Y0169500D02*
D03*
X0225800Y0151500D02*
D03*
Y0152500D02*
D03*
X0226800Y0144800D02*
D03*
Y0145800D02*
D03*
X0241500Y0140700D02*
D03*
Y0139700D02*
D03*
X0235300Y0144500D02*
D03*
Y0143500D02*
D03*
X0251500Y0163900D02*
D03*
Y0164900D02*
D03*
X0237200Y0159700D02*
D03*
Y0160700D02*
D03*
X0244900Y0147500D02*
D03*
Y0146500D02*
D03*
X0246900Y0151400D02*
D03*
Y0152400D02*
D03*
X0240900Y0145400D02*
D03*
Y0144400D02*
D03*
X0227200Y0160600D02*
D03*
Y0159600D02*
D03*
X0226200Y0167600D02*
D03*
Y0166600D02*
D03*
X0226800Y0165500D02*
D03*
Y0166500D02*
D03*
X0224200Y0148700D02*
D03*
Y0149700D02*
D03*
X0251800Y0173500D02*
D03*
Y0172500D02*
D03*
X0233800Y0146600D02*
D03*
Y0147600D02*
D03*
X0224200Y0160600D02*
D03*
Y0161600D02*
D03*
X0246100Y0163400D02*
D03*
Y0164400D02*
D03*
X0232200Y0158500D02*
D03*
Y0157500D02*
D03*
X0227200Y0148700D02*
D03*
Y0149700D02*
D03*
X0242500Y0152500D02*
D03*
Y0153500D02*
D03*
X0246500Y0160500D02*
D03*
Y0161500D02*
D03*
X0230200Y0167500D02*
D03*
Y0168500D02*
D03*
X0237300Y0165000D02*
D03*
Y0164000D02*
D03*
X0247500Y0149100D02*
D03*
Y0150100D02*
D03*
X0243500Y0161500D02*
D03*
Y0162500D02*
D03*
X0236200Y0139500D02*
D03*
Y0140500D02*
D03*
X0244100Y0146500D02*
D03*
Y0145500D02*
D03*
X0231300Y0172400D02*
D03*
Y0173400D02*
D03*
X0219500Y0171500D02*
D03*
Y0170500D02*
D03*
X0232800Y0158500D02*
D03*
Y0159500D02*
D03*
X0234800Y0173500D02*
D03*
Y0172500D02*
D03*
X0241500Y0172100D02*
D03*
Y0173100D02*
D03*
X0237800Y0172500D02*
D03*
Y0171500D02*
D03*
X0234800Y0160200D02*
D03*
Y0159200D02*
D03*
G54D115*
X0230300Y0139400D02*
D03*
X0231300D02*
D03*
X0223700Y0173300D02*
D03*
X0224700D02*
D03*
X0228600Y0163600D02*
D03*
X0229600D02*
D03*
X0237900Y0152500D02*
D03*
X0238900D02*
D03*
X0240600Y0149200D02*
D03*
X0241600D02*
D03*
X0239400Y0148200D02*
D03*
X0238400D02*
D03*
X0252600Y0166000D02*
D03*
X0251600D02*
D03*
X0238000Y0156800D02*
D03*
X0237000D02*
D03*
X0238400Y0145800D02*
D03*
X0237400D02*
D03*
X0218300Y0167500D02*
D03*
X0217300D02*
D03*
X0232300Y0167200D02*
D03*
X0233300D02*
D03*
X0231300Y0158200D02*
D03*
X0230300D02*
D03*
X0234300Y0160800D02*
D03*
X0233300D02*
D03*
X0250000Y0139800D02*
D03*
X0251000D02*
D03*
X0249100Y0146500D02*
D03*
X0248100D02*
D03*
X0219300Y0173500D02*
D03*
X0220300D02*
D03*
X0251900Y0149500D02*
D03*
X0250900D02*
D03*
X0225300Y0154200D02*
D03*
X0226300D02*
D03*
X0245300Y0142000D02*
D03*
X0244300D02*
D03*
X0248500Y0140800D02*
D03*
X0247500D02*
D03*
G54D116*
X0234346Y0154654D02*
D03*
X0235054Y0153946D02*
D03*
X0240946Y0147954D02*
D03*
X0241654Y0147246D02*
D03*
X0241946Y0151054D02*
D03*
X0242654Y0150346D02*
D03*
X0229946Y0149954D02*
D03*
X0230654Y0149246D02*
D03*
X0238954Y0150046D02*
D03*
X0238246Y0150754D02*
D03*
X0230054Y0154046D02*
D03*
X0229346Y0154754D02*
D03*
X0229054Y0162046D02*
D03*
X0228346Y0162754D02*
D03*
X0240946Y0158954D02*
D03*
X0241654Y0158246D02*
D03*
X0239046Y0159054D02*
D03*
X0239754Y0158346D02*
D03*
X0239046Y0160954D02*
D03*
X0239754Y0160246D02*
D03*
X0240954Y0162946D02*
D03*
X0240246Y0163654D02*
D03*
X0229246Y0165654D02*
D03*
X0229954Y0164946D02*
D03*
X0240246Y0165654D02*
D03*
X0240954Y0164946D02*
D03*
X0252254Y0144646D02*
D03*
X0251546Y0145354D02*
D03*
G54D117*
X0232046Y0150946D02*
D03*
X0232754Y0151654D02*
D03*
X0228946Y0148046D02*
D03*
X0229654Y0148754D02*
D03*
X0231946Y0152946D02*
D03*
X0232654Y0153654D02*
D03*
X0234054Y0152954D02*
D03*
X0233346Y0152246D02*
D03*
X0220346Y0139246D02*
D03*
X0221054Y0139954D02*
D03*
X0239054Y0154954D02*
D03*
X0238346Y0154246D02*
D03*
X0237046Y0154946D02*
D03*
X0237754Y0155654D02*
D03*
X0231054Y0162954D02*
D03*
X0230346Y0162246D02*
D03*
X0232046Y0163946D02*
D03*
X0232754Y0164654D02*
D03*
X0238946Y0162046D02*
D03*
X0239654Y0162754D02*
D03*
X0234054Y0158054D02*
D03*
X0233346Y0157346D02*
D03*
X0243054Y0163954D02*
D03*
X0242346Y0163246D02*
D03*
X0235646Y0146646D02*
D03*
X0236354Y0147354D02*
D03*
X0236793Y0152793D02*
D03*
X0237500Y0153500D02*
D03*
G54D118*
X0162420Y0261120D02*
D03*
Y0253500D02*
D03*
X0142100Y0261120D02*
D03*
Y0253500D02*
D03*
X0121780Y0261120D02*
D03*
Y0253500D02*
D03*
X0133600Y0049000D02*
D03*
Y0056620D02*
D03*
X0182740Y0261120D02*
D03*
Y0253500D02*
D03*
X0052320Y0049000D02*
D03*
Y0056620D02*
D03*
X0072640Y0049000D02*
D03*
Y0056620D02*
D03*
X0092960Y0049000D02*
D03*
Y0056620D02*
D03*
X0113280Y0049000D02*
D03*
Y0056620D02*
D03*
X0291396Y0068498D02*
D03*
Y0076118D02*
D03*
X0276900Y0050520D02*
D03*
Y0058140D02*
D03*
X0277500Y0068120D02*
D03*
Y0075740D02*
D03*
X0291500Y0050620D02*
D03*
Y0058240D02*
D03*
X0032000Y0049000D02*
D03*
Y0056620D02*
D03*
X0153920Y0049000D02*
D03*
Y0056620D02*
D03*
X0174240Y0049000D02*
D03*
Y0056620D02*
D03*
X0040500Y0253500D02*
D03*
Y0261120D02*
D03*
X0060820Y0253500D02*
D03*
Y0261120D02*
D03*
X0081140Y0253500D02*
D03*
Y0261120D02*
D03*
X0101460Y0253500D02*
D03*
Y0261120D02*
D03*
G54D119*
X0245500Y0251500D02*
D03*
Y0255000D02*
D03*
X0240500Y0251500D02*
D03*
Y0255000D02*
D03*
G54D120*
X0235500Y0251500D02*
D03*
Y0254000D02*
D03*
X0251000Y0251000D02*
D03*
Y0248500D02*
D03*
X0238000Y0249794D02*
D03*
Y0247294D02*
D03*
X0243000Y0249794D02*
D03*
Y0247294D02*
D03*
X0248000Y0249794D02*
D03*
Y0247294D02*
D03*
X0342000Y0250500D02*
D03*
Y0253000D02*
D03*
X0235500Y0249794D02*
D03*
Y0247294D02*
D03*
X0240500Y0249794D02*
D03*
Y0247294D02*
D03*
X0245500Y0249794D02*
D03*
Y0247294D02*
D03*
G54D121*
X0229500Y0203000D02*
D03*
Y0204800D02*
D03*
X0227500Y0203000D02*
D03*
Y0204800D02*
D03*
X0328000Y0252200D02*
D03*
Y0254000D02*
D03*
X0172954Y0266486D02*
D03*
Y0268286D02*
D03*
X0152634Y0266486D02*
D03*
Y0268286D02*
D03*
X0132314Y0266486D02*
D03*
Y0268286D02*
D03*
X0111994Y0266486D02*
D03*
Y0268286D02*
D03*
X0030714Y0266486D02*
D03*
Y0268286D02*
D03*
X0175240Y0266484D02*
D03*
Y0268284D02*
D03*
X0154920Y0266484D02*
D03*
Y0268284D02*
D03*
X0134600Y0266484D02*
D03*
Y0268284D02*
D03*
X0114280Y0266484D02*
D03*
Y0268284D02*
D03*
X0093960Y0266484D02*
D03*
Y0268284D02*
D03*
X0033000Y0266486D02*
D03*
Y0268286D02*
D03*
X0071354D02*
D03*
Y0266486D02*
D03*
X0053320Y0268286D02*
D03*
Y0266486D02*
D03*
X0051034Y0268286D02*
D03*
Y0266486D02*
D03*
X0073640Y0268286D02*
D03*
Y0266486D02*
D03*
X0091674Y0268286D02*
D03*
Y0266486D02*
D03*
X0256000Y0245200D02*
D03*
Y0247000D02*
D03*
X0258000Y0251300D02*
D03*
Y0249500D02*
D03*
X0206700Y0080800D02*
D03*
Y0079000D02*
D03*
G54D122*
X0344000Y0255000D02*
D03*
X0342200D02*
D03*
X0181740Y0062500D02*
D03*
X0179940D02*
D03*
X0172503D02*
D03*
X0174303D02*
D03*
X0161400D02*
D03*
X0159600D02*
D03*
X0120780D02*
D03*
X0118980D02*
D03*
X0111600D02*
D03*
X0113400D02*
D03*
X0100500D02*
D03*
X0098700D02*
D03*
X0091300D02*
D03*
X0093100D02*
D03*
X0080140D02*
D03*
X0078340D02*
D03*
X0071000D02*
D03*
X0072800D02*
D03*
X0059800D02*
D03*
X0058000D02*
D03*
X0050600D02*
D03*
X0052400D02*
D03*
X0039500D02*
D03*
X0037700D02*
D03*
X0030300D02*
D03*
X0032100D02*
D03*
X0154000D02*
D03*
X0152200D02*
D03*
X0139300D02*
D03*
X0141100D02*
D03*
X0133700D02*
D03*
X0131900D02*
D03*
X0343800Y0248500D02*
D03*
X0342000D02*
D03*
G54D123*
X0071354Y0262900D02*
D03*
X0075926D02*
D03*
X0073640D02*
D03*
X0172954Y0262898D02*
D03*
X0177526D02*
D03*
X0175240D02*
D03*
X0152634D02*
D03*
X0157206D02*
D03*
X0154920D02*
D03*
X0132314D02*
D03*
X0136886D02*
D03*
X0134600D02*
D03*
X0111994D02*
D03*
X0116566D02*
D03*
X0114280D02*
D03*
X0091674D02*
D03*
X0096246D02*
D03*
X0093960D02*
D03*
X0051034Y0262900D02*
D03*
X0055606D02*
D03*
X0053320D02*
D03*
X0030714D02*
D03*
X0035286D02*
D03*
X0033000D02*
D03*
X0179454Y0058398D02*
D03*
X0184026D02*
D03*
X0181740D02*
D03*
X0159134D02*
D03*
X0163706D02*
D03*
X0161420D02*
D03*
X0138814D02*
D03*
X0143386D02*
D03*
X0141100D02*
D03*
X0286286Y0067240D02*
D03*
X0281714D02*
D03*
X0284000D02*
D03*
X0059820Y0058398D02*
D03*
X0062106D02*
D03*
X0057534D02*
D03*
X0080140D02*
D03*
X0082426D02*
D03*
X0077854D02*
D03*
X0100460D02*
D03*
X0102746D02*
D03*
X0098174D02*
D03*
X0120780D02*
D03*
X0123066D02*
D03*
X0118494D02*
D03*
X0300286Y0067240D02*
D03*
X0295714D02*
D03*
X0298000D02*
D03*
X0286286Y0049740D02*
D03*
X0281714D02*
D03*
X0284000D02*
D03*
X0300286D02*
D03*
X0295714D02*
D03*
X0298000D02*
D03*
X0039500Y0058398D02*
D03*
X0041786D02*
D03*
X0037214D02*
D03*
G54D124*
X0073640Y0256000D02*
D03*
X0175240D02*
D03*
X0154920D02*
D03*
X0134600D02*
D03*
X0114280D02*
D03*
X0093960D02*
D03*
X0053320Y0256002D02*
D03*
X0033000Y0256000D02*
D03*
X0181740Y0051500D02*
D03*
X0161420D02*
D03*
X0141100D02*
D03*
X0284000Y0074240D02*
D03*
X0059820Y0051500D02*
D03*
X0080140D02*
D03*
X0100460D02*
D03*
X0120780D02*
D03*
X0298000Y0074240D02*
D03*
X0284000Y0056740D02*
D03*
X0298000D02*
D03*
X0039500Y0051500D02*
D03*
G54D125*
X0261602Y0247214D02*
D03*
Y0251786D02*
D03*
Y0249500D02*
D03*
G54D126*
X0268602D02*
D03*
G54D127*
X0263380Y0256500D02*
D03*
X0271000D02*
D03*
X0316080Y0059000D02*
D03*
X0323700D02*
D03*
X0335200Y0048440D02*
D03*
X0327580D02*
D03*
G54D128*
X0295587Y0064561D02*
D03*
X0296095D02*
D03*
X0298127D02*
D03*
X0297619D02*
D03*
X0295841D02*
D03*
X0297873D02*
D03*
X0281714Y0047240D02*
D03*
X0282222D02*
D03*
X0284254D02*
D03*
X0283746D02*
D03*
X0281968D02*
D03*
X0284000D02*
D03*
X0281714Y0064740D02*
D03*
X0282222D02*
D03*
X0284254D02*
D03*
X0283746D02*
D03*
X0281968D02*
D03*
X0284000D02*
D03*
X0295714Y0047240D02*
D03*
X0296222D02*
D03*
X0298254D02*
D03*
X0297746D02*
D03*
X0295968D02*
D03*
X0298000D02*
D03*
X0322214Y0062300D02*
D03*
X0322722D02*
D03*
X0324754D02*
D03*
X0324246D02*
D03*
X0322468D02*
D03*
X0324500D02*
D03*
X0333714Y0051740D02*
D03*
X0334222D02*
D03*
X0336254D02*
D03*
X0335746D02*
D03*
X0333968D02*
D03*
X0336000D02*
D03*
G54D129*
X0295841Y0064917D02*
D03*
Y0064205D02*
D03*
X0297873D02*
D03*
Y0064917D02*
D03*
X0281968Y0047596D02*
D03*
Y0046884D02*
D03*
X0284000D02*
D03*
Y0047596D02*
D03*
X0281968Y0065096D02*
D03*
Y0064384D02*
D03*
X0284000D02*
D03*
Y0065096D02*
D03*
X0295968Y0047596D02*
D03*
Y0046884D02*
D03*
X0298000D02*
D03*
Y0047596D02*
D03*
X0322468Y0062656D02*
D03*
Y0061944D02*
D03*
X0324500D02*
D03*
Y0062656D02*
D03*
X0333968Y0052096D02*
D03*
Y0051384D02*
D03*
X0336000D02*
D03*
Y0052096D02*
D03*
G54D130*
X0302000Y0047454D02*
D03*
Y0047962D02*
D03*
Y0049994D02*
D03*
Y0049486D02*
D03*
Y0047708D02*
D03*
Y0049740D02*
D03*
X0288000Y0064954D02*
D03*
Y0065462D02*
D03*
Y0067494D02*
D03*
Y0066986D02*
D03*
Y0065208D02*
D03*
Y0067240D02*
D03*
X0302000Y0064954D02*
D03*
Y0065462D02*
D03*
Y0067494D02*
D03*
Y0066986D02*
D03*
Y0065208D02*
D03*
Y0067240D02*
D03*
X0288300Y0047454D02*
D03*
Y0047962D02*
D03*
Y0049994D02*
D03*
Y0049486D02*
D03*
Y0047708D02*
D03*
Y0049740D02*
D03*
G54D131*
X0301644Y0047708D02*
D03*
X0302356D02*
D03*
Y0049740D02*
D03*
X0301644D02*
D03*
X0287644Y0065208D02*
D03*
X0288356D02*
D03*
Y0067240D02*
D03*
X0287644D02*
D03*
X0301644Y0065208D02*
D03*
X0302356D02*
D03*
Y0067240D02*
D03*
X0301644D02*
D03*
X0287944Y0047708D02*
D03*
X0288656D02*
D03*
Y0049740D02*
D03*
X0287944D02*
D03*
G54D132*
X0340500Y0049540D02*
D03*
G54D133*
X0344500D02*
D03*
G54D134*
X0194000Y0151500D02*
D03*
X0283000Y0243000D02*
D03*
Y0093000D02*
D03*
G54D135*
X0194000Y0156580D02*
D03*
X0268520Y0157900D02*
D03*
X0100920Y0036000D02*
D03*
X0101920Y0276500D02*
D03*
X0283000Y0248080D02*
D03*
Y0098080D02*
D03*
G54D136*
X0273600Y0157900D02*
D03*
X0106000Y0036000D02*
D03*
X0107000Y0276500D02*
D03*
G54D137*
X0261900Y0190100D02*
D03*
Y0109900D02*
D03*
X0388100D02*
D03*
Y0190100D02*
D03*
G54D138*
X0139300Y0028750D02*
D03*
X0118980D02*
D03*
X0098660D02*
D03*
X0078340D02*
D03*
X0058020D02*
D03*
X0159620D02*
D03*
X0179940D02*
D03*
X0200260D02*
D03*
X0037700D02*
D03*
X0322180D02*
D03*
X0301860D02*
D03*
X0281540D02*
D03*
X0220580D02*
D03*
X0240900D02*
D03*
X0261220D02*
D03*
X0342500D02*
D03*
X0362820D02*
D03*
X0383140D02*
D03*
X0159620Y0162100D02*
D03*
X0139300D02*
D03*
X0118980D02*
D03*
X0098660D02*
D03*
X0078340Y0151250D02*
D03*
Y0162100D02*
D03*
X0058020Y0151250D02*
D03*
X0037700D02*
D03*
Y0162100D02*
D03*
X0058020D02*
D03*
X0383140Y0284600D02*
D03*
X0342500D02*
D03*
X0362820D02*
D03*
X0261220D02*
D03*
X0220580D02*
D03*
X0240900D02*
D03*
X0281540D02*
D03*
X0301860D02*
D03*
X0037700D02*
D03*
X0200260D02*
D03*
X0179940D02*
D03*
X0159620D02*
D03*
X0118980D02*
D03*
X0098660D02*
D03*
X0078340D02*
D03*
X0058020D02*
D03*
X0139300D02*
D03*
X0098660Y0151250D02*
D03*
X0118980D02*
D03*
X0139300D02*
D03*
X0159620D02*
D03*
G54D139*
X0322180Y0284600D02*
D03*
G54D140*
X0216500Y0204660D02*
D03*
X0214500Y0204700D02*
D03*
X0216500Y0202620D02*
D03*
X0214500Y0202660D02*
D03*
X0216500Y0200580D02*
D03*
X0214500Y0200620D02*
D03*
X0216500Y0198540D02*
D03*
X0214500Y0198580D02*
D03*
X0216500Y0196500D02*
D03*
X0214500Y0196540D02*
D03*
X0216500Y0194500D02*
D03*
X0214500Y0194540D02*
D03*
X0216500Y0192500D02*
D03*
X0324000Y0223000D02*
D03*
X0321000D02*
D03*
X0322500Y0221000D02*
D03*
X0325500D02*
D03*
X0330000Y0223000D02*
D03*
X0327000D02*
D03*
X0328500Y0221000D02*
D03*
G54D141*
X0214500Y0192500D02*
D03*
G54D142*
X0217520Y0097810D02*
D03*
X0248000D02*
D03*
X0245460D02*
D03*
X0242920D02*
D03*
X0240380D02*
D03*
X0237840D02*
D03*
X0235300D02*
D03*
X0232760D02*
D03*
X0230220D02*
D03*
X0227680D02*
D03*
X0225140D02*
D03*
X0222600D02*
D03*
X0220060D02*
D03*
X0218790Y0099715D02*
D03*
X0221330D02*
D03*
X0223870D02*
D03*
X0226410D02*
D03*
X0228950D02*
D03*
X0231490D02*
D03*
X0234030D02*
D03*
X0236570D02*
D03*
X0239110D02*
D03*
X0241650D02*
D03*
X0244190D02*
D03*
X0246730D02*
D03*
X0216250D02*
D03*
Y0095905D02*
D03*
X0246730D02*
D03*
X0244190D02*
D03*
X0241650D02*
D03*
X0239110D02*
D03*
X0236570D02*
D03*
X0234030D02*
D03*
X0231490D02*
D03*
X0228950D02*
D03*
X0226410D02*
D03*
X0223870D02*
D03*
X0221330D02*
D03*
X0218790D02*
D03*
X0220060Y0094000D02*
D03*
X0222600D02*
D03*
X0225140D02*
D03*
X0227680D02*
D03*
X0230220D02*
D03*
X0232760D02*
D03*
X0235300D02*
D03*
X0237840D02*
D03*
X0240380D02*
D03*
X0242920D02*
D03*
X0245460D02*
D03*
X0248000D02*
D03*
X0217520D02*
D03*
X0218040Y0120500D02*
D03*
X0248520D02*
D03*
X0245980D02*
D03*
X0243440D02*
D03*
X0240900D02*
D03*
X0238360D02*
D03*
X0235820D02*
D03*
X0233280D02*
D03*
X0230740D02*
D03*
X0228200D02*
D03*
X0225660D02*
D03*
X0223120D02*
D03*
X0220580D02*
D03*
X0219310Y0122405D02*
D03*
X0221850D02*
D03*
X0224390D02*
D03*
X0226930D02*
D03*
X0229470D02*
D03*
X0232010D02*
D03*
X0234550D02*
D03*
X0237090D02*
D03*
X0239630D02*
D03*
X0242170D02*
D03*
X0244710D02*
D03*
X0247250D02*
D03*
X0216770D02*
D03*
Y0118595D02*
D03*
X0247250D02*
D03*
X0244710D02*
D03*
X0242170D02*
D03*
X0239630D02*
D03*
X0237090D02*
D03*
X0234550D02*
D03*
X0232010D02*
D03*
X0229470D02*
D03*
X0226930D02*
D03*
X0224390D02*
D03*
X0221850D02*
D03*
X0219310D02*
D03*
X0220580Y0116690D02*
D03*
X0223120D02*
D03*
X0225660D02*
D03*
X0228200D02*
D03*
X0230740D02*
D03*
X0233280D02*
D03*
X0235820D02*
D03*
X0238360D02*
D03*
X0240900D02*
D03*
X0243440D02*
D03*
X0245980D02*
D03*
X0248520D02*
D03*
X0218040D02*
D03*
X0178217Y0239480D02*
D03*
Y0209000D02*
D03*
Y0211540D02*
D03*
Y0214080D02*
D03*
Y0216620D02*
D03*
Y0219160D02*
D03*
Y0221700D02*
D03*
Y0224240D02*
D03*
Y0226780D02*
D03*
Y0229320D02*
D03*
Y0231860D02*
D03*
Y0234400D02*
D03*
Y0236940D02*
D03*
X0176312Y0238210D02*
D03*
Y0235670D02*
D03*
Y0233130D02*
D03*
Y0230590D02*
D03*
Y0228050D02*
D03*
Y0225510D02*
D03*
Y0222970D02*
D03*
Y0220430D02*
D03*
Y0217890D02*
D03*
Y0215350D02*
D03*
Y0212810D02*
D03*
Y0210270D02*
D03*
Y0240750D02*
D03*
X0172503D02*
D03*
Y0210270D02*
D03*
Y0212810D02*
D03*
Y0215350D02*
D03*
Y0217890D02*
D03*
Y0220430D02*
D03*
Y0222970D02*
D03*
Y0225510D02*
D03*
Y0228050D02*
D03*
Y0230590D02*
D03*
Y0233130D02*
D03*
Y0235670D02*
D03*
Y0238210D02*
D03*
X0174408Y0236940D02*
D03*
Y0234400D02*
D03*
Y0231860D02*
D03*
Y0229320D02*
D03*
Y0226780D02*
D03*
Y0224240D02*
D03*
Y0221700D02*
D03*
Y0219160D02*
D03*
Y0216620D02*
D03*
Y0214080D02*
D03*
Y0211540D02*
D03*
Y0209000D02*
D03*
Y0239480D02*
D03*
X0157898D02*
D03*
Y0209000D02*
D03*
Y0211540D02*
D03*
Y0214080D02*
D03*
Y0216620D02*
D03*
Y0219160D02*
D03*
Y0221700D02*
D03*
Y0224240D02*
D03*
Y0226780D02*
D03*
Y0229320D02*
D03*
Y0231860D02*
D03*
Y0234400D02*
D03*
Y0236940D02*
D03*
X0155992Y0238210D02*
D03*
Y0235670D02*
D03*
Y0233130D02*
D03*
Y0230590D02*
D03*
Y0228050D02*
D03*
Y0225510D02*
D03*
Y0222970D02*
D03*
Y0220430D02*
D03*
Y0217890D02*
D03*
Y0215350D02*
D03*
Y0212810D02*
D03*
Y0210270D02*
D03*
Y0240750D02*
D03*
X0152182D02*
D03*
Y0210270D02*
D03*
Y0212810D02*
D03*
Y0215350D02*
D03*
Y0217890D02*
D03*
Y0220430D02*
D03*
Y0222970D02*
D03*
Y0225510D02*
D03*
Y0228050D02*
D03*
Y0230590D02*
D03*
Y0233130D02*
D03*
Y0235670D02*
D03*
Y0238210D02*
D03*
X0154087Y0236940D02*
D03*
Y0234400D02*
D03*
Y0231860D02*
D03*
Y0229320D02*
D03*
Y0226780D02*
D03*
Y0224240D02*
D03*
Y0221700D02*
D03*
Y0219160D02*
D03*
Y0216620D02*
D03*
Y0214080D02*
D03*
Y0211540D02*
D03*
Y0209000D02*
D03*
Y0239480D02*
D03*
X0137577D02*
D03*
Y0209000D02*
D03*
Y0211540D02*
D03*
Y0214080D02*
D03*
Y0216620D02*
D03*
Y0219160D02*
D03*
Y0221700D02*
D03*
Y0224240D02*
D03*
Y0226780D02*
D03*
Y0229320D02*
D03*
Y0231860D02*
D03*
Y0234400D02*
D03*
Y0236940D02*
D03*
X0135673Y0238210D02*
D03*
Y0235670D02*
D03*
Y0233130D02*
D03*
Y0230590D02*
D03*
Y0228050D02*
D03*
Y0225510D02*
D03*
Y0222970D02*
D03*
Y0220430D02*
D03*
Y0217890D02*
D03*
Y0215350D02*
D03*
Y0212810D02*
D03*
Y0210270D02*
D03*
Y0240750D02*
D03*
X0131863D02*
D03*
Y0210270D02*
D03*
Y0212810D02*
D03*
Y0215350D02*
D03*
Y0217890D02*
D03*
Y0220430D02*
D03*
Y0222970D02*
D03*
Y0225510D02*
D03*
Y0228050D02*
D03*
Y0230590D02*
D03*
Y0233130D02*
D03*
Y0235670D02*
D03*
Y0238210D02*
D03*
X0133768Y0236940D02*
D03*
Y0234400D02*
D03*
Y0231860D02*
D03*
Y0229320D02*
D03*
Y0226780D02*
D03*
Y0224240D02*
D03*
Y0221700D02*
D03*
Y0219160D02*
D03*
Y0216620D02*
D03*
Y0214080D02*
D03*
Y0211540D02*
D03*
Y0209000D02*
D03*
Y0239480D02*
D03*
X0117257D02*
D03*
Y0209000D02*
D03*
Y0211540D02*
D03*
Y0214080D02*
D03*
Y0216620D02*
D03*
Y0219160D02*
D03*
Y0221700D02*
D03*
Y0224240D02*
D03*
Y0226780D02*
D03*
Y0229320D02*
D03*
Y0231860D02*
D03*
Y0234400D02*
D03*
Y0236940D02*
D03*
X0115353Y0238210D02*
D03*
Y0235670D02*
D03*
Y0233130D02*
D03*
Y0230590D02*
D03*
Y0228050D02*
D03*
Y0225510D02*
D03*
Y0222970D02*
D03*
Y0220430D02*
D03*
Y0217890D02*
D03*
Y0215350D02*
D03*
Y0212810D02*
D03*
Y0210270D02*
D03*
Y0240750D02*
D03*
X0111543D02*
D03*
Y0210270D02*
D03*
Y0212810D02*
D03*
Y0215350D02*
D03*
Y0217890D02*
D03*
Y0220430D02*
D03*
Y0222970D02*
D03*
Y0225510D02*
D03*
Y0228050D02*
D03*
Y0230590D02*
D03*
Y0233130D02*
D03*
Y0235670D02*
D03*
Y0238210D02*
D03*
X0113448Y0236940D02*
D03*
Y0234400D02*
D03*
Y0231860D02*
D03*
Y0229320D02*
D03*
Y0226780D02*
D03*
Y0224240D02*
D03*
Y0221700D02*
D03*
Y0219160D02*
D03*
Y0216620D02*
D03*
Y0214080D02*
D03*
Y0211540D02*
D03*
Y0209000D02*
D03*
Y0239480D02*
D03*
X0096938D02*
D03*
Y0209000D02*
D03*
Y0211540D02*
D03*
Y0214080D02*
D03*
Y0216620D02*
D03*
Y0219160D02*
D03*
Y0221700D02*
D03*
Y0224240D02*
D03*
Y0226780D02*
D03*
Y0229320D02*
D03*
Y0231860D02*
D03*
Y0234400D02*
D03*
Y0236940D02*
D03*
X0095033Y0238210D02*
D03*
Y0235670D02*
D03*
Y0233130D02*
D03*
Y0230590D02*
D03*
Y0228050D02*
D03*
Y0225510D02*
D03*
Y0222970D02*
D03*
Y0220430D02*
D03*
Y0217890D02*
D03*
Y0215350D02*
D03*
Y0212810D02*
D03*
Y0210270D02*
D03*
Y0240750D02*
D03*
X0091223D02*
D03*
Y0210270D02*
D03*
Y0212810D02*
D03*
Y0215350D02*
D03*
Y0217890D02*
D03*
Y0220430D02*
D03*
Y0222970D02*
D03*
Y0225510D02*
D03*
Y0228050D02*
D03*
Y0230590D02*
D03*
Y0233130D02*
D03*
Y0235670D02*
D03*
Y0238210D02*
D03*
X0093128Y0236940D02*
D03*
Y0234400D02*
D03*
Y0231860D02*
D03*
Y0229320D02*
D03*
Y0226780D02*
D03*
Y0224240D02*
D03*
Y0221700D02*
D03*
Y0219160D02*
D03*
Y0216620D02*
D03*
Y0214080D02*
D03*
Y0211540D02*
D03*
Y0209000D02*
D03*
Y0239480D02*
D03*
X0076618D02*
D03*
Y0209000D02*
D03*
Y0211540D02*
D03*
Y0214080D02*
D03*
Y0216620D02*
D03*
Y0219160D02*
D03*
Y0221700D02*
D03*
Y0224240D02*
D03*
Y0226780D02*
D03*
Y0229320D02*
D03*
Y0231860D02*
D03*
Y0234400D02*
D03*
Y0236940D02*
D03*
X0074713Y0238210D02*
D03*
Y0235670D02*
D03*
Y0233130D02*
D03*
Y0230590D02*
D03*
Y0228050D02*
D03*
Y0225510D02*
D03*
Y0222970D02*
D03*
Y0220430D02*
D03*
Y0217890D02*
D03*
Y0215350D02*
D03*
Y0212810D02*
D03*
Y0210270D02*
D03*
Y0240750D02*
D03*
X0070902D02*
D03*
Y0210270D02*
D03*
Y0212810D02*
D03*
Y0215350D02*
D03*
Y0217890D02*
D03*
Y0220430D02*
D03*
Y0222970D02*
D03*
Y0225510D02*
D03*
Y0228050D02*
D03*
Y0230590D02*
D03*
Y0233130D02*
D03*
Y0235670D02*
D03*
Y0238210D02*
D03*
X0072808Y0236940D02*
D03*
Y0234400D02*
D03*
Y0231860D02*
D03*
Y0229320D02*
D03*
Y0226780D02*
D03*
Y0224240D02*
D03*
Y0221700D02*
D03*
Y0219160D02*
D03*
Y0216620D02*
D03*
Y0214080D02*
D03*
Y0211540D02*
D03*
Y0209000D02*
D03*
Y0239480D02*
D03*
X0056298D02*
D03*
Y0209000D02*
D03*
Y0211540D02*
D03*
Y0214080D02*
D03*
Y0216620D02*
D03*
Y0219160D02*
D03*
Y0221700D02*
D03*
Y0224240D02*
D03*
Y0226780D02*
D03*
Y0229320D02*
D03*
Y0231860D02*
D03*
Y0234400D02*
D03*
Y0236940D02*
D03*
X0054393Y0238210D02*
D03*
Y0235670D02*
D03*
Y0233130D02*
D03*
Y0230590D02*
D03*
Y0228050D02*
D03*
Y0225510D02*
D03*
Y0222970D02*
D03*
Y0220430D02*
D03*
Y0217890D02*
D03*
Y0215350D02*
D03*
Y0212810D02*
D03*
Y0210270D02*
D03*
Y0240750D02*
D03*
X0050583D02*
D03*
Y0210270D02*
D03*
Y0212810D02*
D03*
Y0215350D02*
D03*
Y0217890D02*
D03*
Y0220430D02*
D03*
Y0222970D02*
D03*
Y0225510D02*
D03*
Y0228050D02*
D03*
Y0230590D02*
D03*
Y0233130D02*
D03*
Y0235670D02*
D03*
Y0238210D02*
D03*
X0052487Y0236940D02*
D03*
Y0234400D02*
D03*
Y0231860D02*
D03*
Y0229320D02*
D03*
Y0226780D02*
D03*
Y0224240D02*
D03*
Y0221700D02*
D03*
Y0219160D02*
D03*
Y0216620D02*
D03*
Y0214080D02*
D03*
Y0211540D02*
D03*
Y0209000D02*
D03*
Y0239480D02*
D03*
X0035978D02*
D03*
Y0209000D02*
D03*
Y0211540D02*
D03*
Y0214080D02*
D03*
Y0216620D02*
D03*
Y0219160D02*
D03*
Y0221700D02*
D03*
Y0224240D02*
D03*
Y0226780D02*
D03*
Y0229320D02*
D03*
Y0231860D02*
D03*
Y0234400D02*
D03*
Y0236940D02*
D03*
X0034072Y0238210D02*
D03*
Y0235670D02*
D03*
Y0233130D02*
D03*
Y0230590D02*
D03*
Y0228050D02*
D03*
Y0225510D02*
D03*
Y0222970D02*
D03*
Y0220430D02*
D03*
Y0217890D02*
D03*
Y0215350D02*
D03*
Y0212810D02*
D03*
Y0210270D02*
D03*
Y0240750D02*
D03*
X0030263D02*
D03*
Y0210270D02*
D03*
Y0212810D02*
D03*
Y0215350D02*
D03*
Y0217890D02*
D03*
Y0220430D02*
D03*
Y0222970D02*
D03*
Y0225510D02*
D03*
Y0228050D02*
D03*
Y0230590D02*
D03*
Y0233130D02*
D03*
Y0235670D02*
D03*
Y0238210D02*
D03*
X0032167Y0236940D02*
D03*
Y0234400D02*
D03*
Y0231860D02*
D03*
Y0229320D02*
D03*
Y0226780D02*
D03*
Y0224240D02*
D03*
Y0221700D02*
D03*
Y0219160D02*
D03*
Y0216620D02*
D03*
Y0214080D02*
D03*
Y0211540D02*
D03*
Y0209000D02*
D03*
Y0239480D02*
D03*
X0178217Y0106230D02*
D03*
Y0075750D02*
D03*
Y0078290D02*
D03*
Y0080830D02*
D03*
Y0083370D02*
D03*
Y0085910D02*
D03*
Y0088450D02*
D03*
Y0090990D02*
D03*
Y0093530D02*
D03*
Y0096070D02*
D03*
Y0098610D02*
D03*
Y0101150D02*
D03*
Y0103690D02*
D03*
X0176312Y0104960D02*
D03*
Y0102420D02*
D03*
Y0099880D02*
D03*
Y0097340D02*
D03*
Y0094800D02*
D03*
Y0092260D02*
D03*
Y0089720D02*
D03*
Y0087180D02*
D03*
Y0084640D02*
D03*
Y0082100D02*
D03*
Y0079560D02*
D03*
Y0077020D02*
D03*
Y0107500D02*
D03*
X0172503D02*
D03*
Y0077020D02*
D03*
Y0079560D02*
D03*
Y0082100D02*
D03*
Y0084640D02*
D03*
Y0087180D02*
D03*
Y0089720D02*
D03*
Y0092260D02*
D03*
Y0094800D02*
D03*
Y0097340D02*
D03*
Y0099880D02*
D03*
Y0102420D02*
D03*
Y0104960D02*
D03*
X0174408Y0103690D02*
D03*
Y0101150D02*
D03*
Y0098610D02*
D03*
Y0096070D02*
D03*
Y0093530D02*
D03*
Y0090990D02*
D03*
Y0088450D02*
D03*
Y0085910D02*
D03*
Y0083370D02*
D03*
Y0080830D02*
D03*
Y0078290D02*
D03*
Y0075750D02*
D03*
Y0106230D02*
D03*
X0157898D02*
D03*
Y0075750D02*
D03*
Y0078290D02*
D03*
Y0080830D02*
D03*
Y0083370D02*
D03*
Y0085910D02*
D03*
Y0088450D02*
D03*
Y0090990D02*
D03*
Y0093530D02*
D03*
Y0096070D02*
D03*
Y0098610D02*
D03*
Y0101150D02*
D03*
Y0103690D02*
D03*
X0155992Y0104960D02*
D03*
Y0102420D02*
D03*
Y0099880D02*
D03*
Y0097340D02*
D03*
Y0094800D02*
D03*
Y0092260D02*
D03*
Y0089720D02*
D03*
Y0087180D02*
D03*
Y0084640D02*
D03*
Y0082100D02*
D03*
Y0079560D02*
D03*
Y0077020D02*
D03*
Y0107500D02*
D03*
X0152182D02*
D03*
Y0077020D02*
D03*
Y0079560D02*
D03*
Y0082100D02*
D03*
Y0084640D02*
D03*
Y0087180D02*
D03*
Y0089720D02*
D03*
Y0092260D02*
D03*
Y0094800D02*
D03*
Y0097340D02*
D03*
Y0099880D02*
D03*
Y0102420D02*
D03*
Y0104960D02*
D03*
X0154087Y0103690D02*
D03*
Y0101150D02*
D03*
Y0098610D02*
D03*
Y0096070D02*
D03*
Y0093530D02*
D03*
Y0090990D02*
D03*
Y0088450D02*
D03*
Y0085910D02*
D03*
Y0083370D02*
D03*
Y0080830D02*
D03*
Y0078290D02*
D03*
Y0075750D02*
D03*
Y0106230D02*
D03*
X0137577D02*
D03*
Y0075750D02*
D03*
Y0078290D02*
D03*
Y0080830D02*
D03*
Y0083370D02*
D03*
Y0085910D02*
D03*
Y0088450D02*
D03*
Y0090990D02*
D03*
Y0093530D02*
D03*
Y0096070D02*
D03*
Y0098610D02*
D03*
Y0101150D02*
D03*
Y0103690D02*
D03*
X0135673Y0104960D02*
D03*
Y0102420D02*
D03*
Y0099880D02*
D03*
Y0097340D02*
D03*
Y0094800D02*
D03*
Y0092260D02*
D03*
Y0089720D02*
D03*
Y0087180D02*
D03*
Y0084640D02*
D03*
Y0082100D02*
D03*
Y0079560D02*
D03*
Y0077020D02*
D03*
Y0107500D02*
D03*
X0131863D02*
D03*
Y0077020D02*
D03*
Y0079560D02*
D03*
Y0082100D02*
D03*
Y0084640D02*
D03*
Y0087180D02*
D03*
Y0089720D02*
D03*
Y0092260D02*
D03*
Y0094800D02*
D03*
Y0097340D02*
D03*
Y0099880D02*
D03*
Y0102420D02*
D03*
Y0104960D02*
D03*
X0133768Y0103690D02*
D03*
Y0101150D02*
D03*
Y0098610D02*
D03*
Y0096070D02*
D03*
Y0093530D02*
D03*
Y0090990D02*
D03*
Y0088450D02*
D03*
Y0085910D02*
D03*
Y0083370D02*
D03*
Y0080830D02*
D03*
Y0078290D02*
D03*
Y0075750D02*
D03*
Y0106230D02*
D03*
X0117257D02*
D03*
Y0075750D02*
D03*
Y0078290D02*
D03*
Y0080830D02*
D03*
Y0083370D02*
D03*
Y0085910D02*
D03*
Y0088450D02*
D03*
Y0090990D02*
D03*
Y0093530D02*
D03*
Y0096070D02*
D03*
Y0098610D02*
D03*
Y0101150D02*
D03*
Y0103690D02*
D03*
X0115353Y0104960D02*
D03*
Y0102420D02*
D03*
Y0099880D02*
D03*
Y0097340D02*
D03*
Y0094800D02*
D03*
Y0092260D02*
D03*
Y0089720D02*
D03*
Y0087180D02*
D03*
Y0084640D02*
D03*
Y0082100D02*
D03*
Y0079560D02*
D03*
Y0077020D02*
D03*
Y0107500D02*
D03*
X0111543D02*
D03*
Y0077020D02*
D03*
Y0079560D02*
D03*
Y0082100D02*
D03*
Y0084640D02*
D03*
Y0087180D02*
D03*
Y0089720D02*
D03*
Y0092260D02*
D03*
Y0094800D02*
D03*
Y0097340D02*
D03*
Y0099880D02*
D03*
Y0102420D02*
D03*
Y0104960D02*
D03*
X0113448Y0103690D02*
D03*
Y0101150D02*
D03*
Y0098610D02*
D03*
Y0096070D02*
D03*
Y0093530D02*
D03*
Y0090990D02*
D03*
Y0088450D02*
D03*
Y0085910D02*
D03*
Y0083370D02*
D03*
Y0080830D02*
D03*
Y0078290D02*
D03*
Y0075750D02*
D03*
Y0106230D02*
D03*
X0096938D02*
D03*
Y0075750D02*
D03*
Y0078290D02*
D03*
Y0080830D02*
D03*
Y0083370D02*
D03*
Y0085910D02*
D03*
Y0088450D02*
D03*
Y0090990D02*
D03*
Y0093530D02*
D03*
Y0096070D02*
D03*
Y0098610D02*
D03*
Y0101150D02*
D03*
Y0103690D02*
D03*
X0095033Y0104960D02*
D03*
Y0102420D02*
D03*
Y0099880D02*
D03*
Y0097340D02*
D03*
Y0094800D02*
D03*
Y0092260D02*
D03*
Y0089720D02*
D03*
Y0087180D02*
D03*
Y0084640D02*
D03*
Y0082100D02*
D03*
Y0079560D02*
D03*
Y0077020D02*
D03*
Y0107500D02*
D03*
X0091223D02*
D03*
Y0077020D02*
D03*
Y0079560D02*
D03*
Y0082100D02*
D03*
Y0084640D02*
D03*
Y0087180D02*
D03*
Y0089720D02*
D03*
Y0092260D02*
D03*
Y0094800D02*
D03*
Y0097340D02*
D03*
Y0099880D02*
D03*
Y0102420D02*
D03*
Y0104960D02*
D03*
X0093128Y0103690D02*
D03*
Y0101150D02*
D03*
Y0098610D02*
D03*
Y0096070D02*
D03*
Y0093530D02*
D03*
Y0090990D02*
D03*
Y0088450D02*
D03*
Y0085910D02*
D03*
Y0083370D02*
D03*
Y0080830D02*
D03*
Y0078290D02*
D03*
Y0075750D02*
D03*
Y0106230D02*
D03*
X0076618D02*
D03*
Y0075750D02*
D03*
Y0078290D02*
D03*
Y0080830D02*
D03*
Y0083370D02*
D03*
Y0085910D02*
D03*
Y0088450D02*
D03*
Y0090990D02*
D03*
Y0093530D02*
D03*
Y0096070D02*
D03*
Y0098610D02*
D03*
Y0101150D02*
D03*
Y0103690D02*
D03*
X0074713Y0104960D02*
D03*
Y0102420D02*
D03*
Y0099880D02*
D03*
Y0097340D02*
D03*
Y0094800D02*
D03*
Y0092260D02*
D03*
Y0089720D02*
D03*
Y0087180D02*
D03*
Y0084640D02*
D03*
Y0082100D02*
D03*
Y0079560D02*
D03*
Y0077020D02*
D03*
Y0107500D02*
D03*
X0070902D02*
D03*
Y0077020D02*
D03*
Y0079560D02*
D03*
Y0082100D02*
D03*
Y0084640D02*
D03*
Y0087180D02*
D03*
Y0089720D02*
D03*
Y0092260D02*
D03*
Y0094800D02*
D03*
Y0097340D02*
D03*
Y0099880D02*
D03*
Y0102420D02*
D03*
Y0104960D02*
D03*
X0072808Y0103690D02*
D03*
Y0101150D02*
D03*
Y0098610D02*
D03*
Y0096070D02*
D03*
Y0093530D02*
D03*
Y0090990D02*
D03*
Y0088450D02*
D03*
Y0085910D02*
D03*
Y0083370D02*
D03*
Y0080830D02*
D03*
Y0078290D02*
D03*
Y0075750D02*
D03*
Y0106230D02*
D03*
X0056298D02*
D03*
Y0075750D02*
D03*
Y0078290D02*
D03*
Y0080830D02*
D03*
Y0083370D02*
D03*
Y0085910D02*
D03*
Y0088450D02*
D03*
Y0090990D02*
D03*
Y0093530D02*
D03*
Y0096070D02*
D03*
Y0098610D02*
D03*
Y0101150D02*
D03*
Y0103690D02*
D03*
X0054393Y0104960D02*
D03*
Y0102420D02*
D03*
Y0099880D02*
D03*
Y0097340D02*
D03*
Y0094800D02*
D03*
Y0092260D02*
D03*
Y0089720D02*
D03*
Y0087180D02*
D03*
Y0084640D02*
D03*
Y0082100D02*
D03*
Y0079560D02*
D03*
Y0077020D02*
D03*
Y0107500D02*
D03*
X0050583D02*
D03*
Y0077020D02*
D03*
Y0079560D02*
D03*
Y0082100D02*
D03*
Y0084640D02*
D03*
Y0087180D02*
D03*
Y0089720D02*
D03*
Y0092260D02*
D03*
Y0094800D02*
D03*
Y0097340D02*
D03*
Y0099880D02*
D03*
Y0102420D02*
D03*
Y0104960D02*
D03*
X0052487Y0103690D02*
D03*
Y0101150D02*
D03*
Y0098610D02*
D03*
Y0096070D02*
D03*
Y0093530D02*
D03*
Y0090990D02*
D03*
Y0088450D02*
D03*
Y0085910D02*
D03*
Y0083370D02*
D03*
Y0080830D02*
D03*
Y0078290D02*
D03*
Y0075750D02*
D03*
Y0106230D02*
D03*
X0035978D02*
D03*
Y0075750D02*
D03*
Y0078290D02*
D03*
Y0080830D02*
D03*
Y0083370D02*
D03*
Y0085910D02*
D03*
Y0088450D02*
D03*
Y0090990D02*
D03*
Y0093530D02*
D03*
Y0096070D02*
D03*
Y0098610D02*
D03*
Y0101150D02*
D03*
Y0103690D02*
D03*
X0034072Y0104960D02*
D03*
Y0102420D02*
D03*
Y0099880D02*
D03*
Y0097340D02*
D03*
Y0094800D02*
D03*
Y0092260D02*
D03*
Y0089720D02*
D03*
Y0087180D02*
D03*
Y0084640D02*
D03*
Y0082100D02*
D03*
Y0079560D02*
D03*
Y0077020D02*
D03*
Y0107500D02*
D03*
X0030263D02*
D03*
Y0077020D02*
D03*
Y0079560D02*
D03*
Y0082100D02*
D03*
Y0084640D02*
D03*
Y0087180D02*
D03*
Y0089720D02*
D03*
Y0092260D02*
D03*
Y0094800D02*
D03*
Y0097340D02*
D03*
Y0099880D02*
D03*
Y0102420D02*
D03*
Y0104960D02*
D03*
X0032167Y0103690D02*
D03*
Y0101150D02*
D03*
Y0098610D02*
D03*
Y0096070D02*
D03*
Y0093530D02*
D03*
Y0090990D02*
D03*
Y0088450D02*
D03*
Y0085910D02*
D03*
Y0083370D02*
D03*
Y0080830D02*
D03*
Y0078290D02*
D03*
Y0075750D02*
D03*
Y0106230D02*
D03*
G54D143*
X0251810Y0096857D02*
D03*
X0212440D02*
D03*
X0252330Y0119548D02*
D03*
X0212960D02*
D03*
X0374420Y0257450D02*
D03*
Y0244750D02*
D03*
X0175360Y0244560D02*
D03*
Y0205190D02*
D03*
X0155040Y0244560D02*
D03*
Y0205190D02*
D03*
X0134720Y0244560D02*
D03*
Y0205190D02*
D03*
X0114400Y0244560D02*
D03*
Y0205190D02*
D03*
X0094080Y0244560D02*
D03*
Y0205190D02*
D03*
X0073760Y0244560D02*
D03*
Y0205190D02*
D03*
X0053440Y0244560D02*
D03*
Y0205190D02*
D03*
X0033120Y0244560D02*
D03*
Y0205190D02*
D03*
X0175360Y0111310D02*
D03*
Y0071940D02*
D03*
X0155040Y0111310D02*
D03*
Y0071940D02*
D03*
X0134720Y0111310D02*
D03*
Y0071940D02*
D03*
X0114400Y0111310D02*
D03*
Y0071940D02*
D03*
X0094080Y0111310D02*
D03*
Y0071940D02*
D03*
X0073760Y0111310D02*
D03*
Y0071940D02*
D03*
X0053440Y0111310D02*
D03*
Y0071940D02*
D03*
X0033120Y0111310D02*
D03*
Y0071940D02*
D03*
G54D144*
X0351500Y0049500D02*
D03*
Y0054580D02*
D03*
Y0059660D02*
D03*
Y0064740D02*
D03*
G54D145*
X0374500Y0239540D02*
D03*
Y0237000D02*
D03*
G54D146*
X0277540Y0234540D02*
D03*
Y0229460D02*
D03*
X0272460D02*
D03*
Y0234540D02*
D03*
X0275000Y0232000D02*
D03*
X0280960Y0234540D02*
D03*
X0286040D02*
D03*
Y0229460D02*
D03*
X0280960D02*
D03*
X0283500Y0232000D02*
D03*
X0335460Y0219960D02*
D03*
Y0225040D02*
D03*
X0340540D02*
D03*
Y0219960D02*
D03*
X0338000Y0222500D02*
D03*
X0346460Y0219960D02*
D03*
Y0225040D02*
D03*
X0351540D02*
D03*
Y0219960D02*
D03*
X0349000Y0222500D02*
D03*
X0357460Y0219960D02*
D03*
Y0225040D02*
D03*
X0362540D02*
D03*
Y0219960D02*
D03*
X0360000Y0222500D02*
D03*
G54D147*
X0256000Y0155500D02*
D03*
Y0158000D02*
D03*
X0133600Y0053500D02*
D03*
X0172940Y0265000D02*
D03*
X0152620D02*
D03*
X0132300D02*
D03*
X0111980D02*
D03*
X0091660D02*
D03*
X0071340D02*
D03*
X0051020D02*
D03*
X0030700D02*
D03*
X0032000Y0053500D02*
D03*
X0035500Y0058500D02*
D03*
X0055820D02*
D03*
X0052320Y0053500D02*
D03*
X0076140Y0058500D02*
D03*
X0072640Y0053500D02*
D03*
X0096460Y0058500D02*
D03*
X0092960Y0053500D02*
D03*
X0116780Y0058500D02*
D03*
X0113280Y0053500D02*
D03*
X0137100Y0058500D02*
D03*
X0157420D02*
D03*
X0153920Y0053500D02*
D03*
X0177740Y0058500D02*
D03*
X0174240Y0053500D02*
D03*
X0210500Y0154500D02*
D03*
G54D148*
X0232500Y0211500D02*
D03*
X0231500Y0211000D02*
D03*
X0234000Y0181000D02*
D03*
X0233000Y0186000D02*
D03*
X0224500Y0211000D02*
D03*
X0227000Y0211000D02*
D03*
X0228000Y0211500D02*
D03*
X0229000Y0211000D02*
D03*
X0233500Y0210000D02*
D03*
G54D149*
X0330500Y0075100D02*
D03*
X0330460Y0058500D02*
D03*
X0341500Y0058500D02*
D03*
X0341540Y0075100D02*
D03*
G54D150*
X0385275Y0181925D02*
D03*
X0382225Y0127545D02*
D03*
M02*
