%FSAX43Y43*%
%MOMM*%
G71*
G01*
G75*
G04 Layer_Color=16711935*
%ADD10C,0.200*%
%ADD11R,0.500X0.600*%
%ADD12R,0.600X0.500*%
G04:AMPARAMS|DCode=13|XSize=0.5mm|YSize=0.6mm|CornerRadius=0mm|HoleSize=0mm|Usage=FLASHONLY|Rotation=225.000|XOffset=0mm|YOffset=0mm|HoleType=Round|Shape=Rectangle|*
%AMROTATEDRECTD13*
4,1,4,-0.035,0.389,0.389,-0.035,0.035,-0.389,-0.389,0.035,-0.035,0.389,0.0*
%
%ADD13ROTATEDRECTD13*%

G04:AMPARAMS|DCode=14|XSize=0.5mm|YSize=0.6mm|CornerRadius=0mm|HoleSize=0mm|Usage=FLASHONLY|Rotation=315.000|XOffset=0mm|YOffset=0mm|HoleType=Round|Shape=Rectangle|*
%AMROTATEDRECTD14*
4,1,4,-0.389,-0.035,0.035,0.389,0.389,0.035,-0.035,-0.389,-0.389,-0.035,0.0*
%
%ADD14ROTATEDRECTD14*%

%ADD15R,3.048X3.048*%
G04:AMPARAMS|DCode=16|XSize=1mm|YSize=2mm|CornerRadius=0.1mm|HoleSize=0mm|Usage=FLASHONLY|Rotation=270.000|XOffset=0mm|YOffset=0mm|HoleType=Round|Shape=RoundedRectangle|*
%AMROUNDEDRECTD16*
21,1,1.000,1.800,0,0,270.0*
21,1,0.800,2.000,0,0,270.0*
1,1,0.200,-0.900,-0.400*
1,1,0.200,-0.900,0.400*
1,1,0.200,0.900,0.400*
1,1,0.200,0.900,-0.400*
%
%ADD16ROUNDEDRECTD16*%
G04:AMPARAMS|DCode=17|XSize=1mm|YSize=1.5mm|CornerRadius=0.1mm|HoleSize=0mm|Usage=FLASHONLY|Rotation=270.000|XOffset=0mm|YOffset=0mm|HoleType=Round|Shape=RoundedRectangle|*
%AMROUNDEDRECTD17*
21,1,1.000,1.300,0,0,270.0*
21,1,0.800,1.500,0,0,270.0*
1,1,0.200,-0.650,-0.400*
1,1,0.200,-0.650,0.400*
1,1,0.200,0.650,0.400*
1,1,0.200,0.650,-0.400*
%
%ADD17ROUNDEDRECTD17*%
G04:AMPARAMS|DCode=18|XSize=0.8mm|YSize=1mm|CornerRadius=0.08mm|HoleSize=0mm|Usage=FLASHONLY|Rotation=270.000|XOffset=0mm|YOffset=0mm|HoleType=Round|Shape=RoundedRectangle|*
%AMROUNDEDRECTD18*
21,1,0.800,0.840,0,0,270.0*
21,1,0.640,1.000,0,0,270.0*
1,1,0.160,-0.420,-0.320*
1,1,0.160,-0.420,0.320*
1,1,0.160,0.420,0.320*
1,1,0.160,0.420,-0.320*
%
%ADD18ROUNDEDRECTD18*%
G04:AMPARAMS|DCode=19|XSize=0.8mm|YSize=1mm|CornerRadius=0.08mm|HoleSize=0mm|Usage=FLASHONLY|Rotation=0.000|XOffset=0mm|YOffset=0mm|HoleType=Round|Shape=RoundedRectangle|*
%AMROUNDEDRECTD19*
21,1,0.800,0.840,0,0,0.0*
21,1,0.640,1.000,0,0,0.0*
1,1,0.160,0.320,-0.420*
1,1,0.160,-0.320,-0.420*
1,1,0.160,-0.320,0.420*
1,1,0.160,0.320,0.420*
%
%ADD19ROUNDEDRECTD19*%
%ADD20R,0.762X2.540*%
%ADD21R,5.000X6.000*%
%ADD22R,2.540X0.762*%
%ADD23R,6.000X5.000*%
%ADD24R,3.048X3.048*%
%ADD25O,0.305X1.016*%
%ADD26O,0.813X0.305*%
%ADD27O,1.016X0.305*%
%ADD28O,0.305X0.813*%
%ADD29O,2.100X6.000*%
%ADD30O,2.100X6.000*%
%ADD31C,0.120*%
%ADD32C,0.150*%
%ADD33C,1.524*%
%ADD34C,0.508*%
%ADD35C,0.500*%
%ADD36C,1.000*%
%ADD37C,1.016*%
%ADD38C,1.160*%
%ADD39C,0.254*%
%ADD40C,0.175*%
%ADD41C,0.400*%
%ADD42C,0.300*%
%ADD43R,1.850X1.850*%
%ADD44C,1.850*%
%ADD45R,1.850X1.850*%
%ADD46C,4.000*%
%ADD47C,4.500*%
%ADD48C,1.500*%
%ADD49R,1.500X1.500*%
%ADD50C,1.524*%
%ADD51C,3.000*%
%ADD52C,2.500*%
%ADD53C,1.422*%
%ADD54C,2.438*%
%ADD55C,0.600*%
%ADD56C,1.200*%
%ADD57C,0.500*%
%ADD58C,0.800*%
%ADD59C,1.000*%
%ADD60C,0.900*%
%ADD61C,1.270*%
%ADD62C,0.700*%
%ADD63C,1.300*%
%ADD64C,1.800*%
%ADD65C,2.000*%
G04:AMPARAMS|DCode=66|XSize=1.7mm|YSize=1.7mm|CornerRadius=0mm|HoleSize=0mm|Usage=FLASHONLY|Rotation=0.000|XOffset=0mm|YOffset=0mm|HoleType=Round|Shape=Relief|Width=0.15mm|Gap=0.15mm|Entries=4|*
%AMTHD66*
7,0,0,1.700,1.400,0.150,45*
%
%ADD66THD66*%
G04:AMPARAMS|DCode=67|XSize=3.6mm|YSize=3.6mm|CornerRadius=0mm|HoleSize=0mm|Usage=FLASHONLY|Rotation=0.000|XOffset=0mm|YOffset=0mm|HoleType=Round|Shape=Relief|Width=0.15mm|Gap=0.15mm|Entries=4|*
%AMTHD67*
7,0,0,3.600,3.300,0.150,45*
%
%ADD67THD67*%
G04:AMPARAMS|DCode=68|XSize=3.4mm|YSize=3.4mm|CornerRadius=0mm|HoleSize=0mm|Usage=FLASHONLY|Rotation=0.000|XOffset=0mm|YOffset=0mm|HoleType=Round|Shape=Relief|Width=0.15mm|Gap=0.15mm|Entries=4|*
%AMTHD68*
7,0,0,3.400,3.100,0.150,45*
%
%ADD68THD68*%
%ADD69C,1.400*%
G04:AMPARAMS|DCode=70|XSize=1.5mm|YSize=1.5mm|CornerRadius=0mm|HoleSize=0mm|Usage=FLASHONLY|Rotation=0.000|XOffset=0mm|YOffset=0mm|HoleType=Round|Shape=Relief|Width=0.15mm|Gap=0.15mm|Entries=4|*
%AMTHD70*
7,0,0,1.500,1.200,0.150,45*
%
%ADD70THD70*%
%ADD71C,2.800*%
%ADD72C,2.300*%
%ADD73C,3.500*%
G04:AMPARAMS|DCode=74|XSize=1.4128mm|YSize=1.4128mm|CornerRadius=0mm|HoleSize=0mm|Usage=FLASHONLY|Rotation=0.000|XOffset=0mm|YOffset=0mm|HoleType=Round|Shape=Relief|Width=0.15mm|Gap=0.15mm|Entries=4|*
%AMTHD74*
7,0,0,1.413,1.113,0.150,45*
%
%ADD74THD74*%
%ADD75C,1.313*%
G04:AMPARAMS|DCode=76|XSize=1.9208mm|YSize=1.9208mm|CornerRadius=0mm|HoleSize=0mm|Usage=FLASHONLY|Rotation=0.000|XOffset=0mm|YOffset=0mm|HoleType=Round|Shape=Relief|Width=0.15mm|Gap=0.15mm|Entries=4|*
%AMTHD76*
7,0,0,1.921,1.621,0.150,45*
%
%ADD76THD76*%
%ADD77C,1.821*%
G04:AMPARAMS|DCode=78|XSize=0.9mm|YSize=0.9mm|CornerRadius=0mm|HoleSize=0mm|Usage=FLASHONLY|Rotation=0.000|XOffset=0mm|YOffset=0mm|HoleType=Round|Shape=Relief|Width=0.15mm|Gap=0.15mm|Entries=4|*
%AMTHD78*
7,0,0,0.900,0.600,0.150,45*
%
%ADD78THD78*%
%ADD79C,0.800*%
%ADD80C,0.750*%
G04:AMPARAMS|DCode=81|XSize=1.4mm|YSize=1.4mm|CornerRadius=0mm|HoleSize=0mm|Usage=FLASHONLY|Rotation=0.000|XOffset=0mm|YOffset=0mm|HoleType=Round|Shape=Relief|Width=0.15mm|Gap=0.15mm|Entries=4|*
%AMTHD81*
7,0,0,1.400,1.100,0.150,45*
%
%ADD81THD81*%
G04:AMPARAMS|DCode=82|XSize=1.3mm|YSize=1.3mm|CornerRadius=0mm|HoleSize=0mm|Usage=FLASHONLY|Rotation=0.000|XOffset=0mm|YOffset=0mm|HoleType=Round|Shape=Relief|Width=0.15mm|Gap=0.15mm|Entries=4|*
%AMTHD82*
7,0,0,1.300,1.000,0.150,45*
%
%ADD82THD82*%
%ADD83C,0.900*%
G04:AMPARAMS|DCode=84|XSize=0.85mm|YSize=0.85mm|CornerRadius=0mm|HoleSize=0mm|Usage=FLASHONLY|Rotation=0.000|XOffset=0mm|YOffset=0mm|HoleType=Round|Shape=Relief|Width=0.15mm|Gap=0.15mm|Entries=4|*
%AMTHD84*
7,0,0,0.850,0.550,0.150,45*
%
%ADD84THD84*%
%ADD85C,1.100*%
%ADD86C,1.000*%
G04:AMPARAMS|DCode=87|XSize=1.3112mm|YSize=1.3112mm|CornerRadius=0mm|HoleSize=0mm|Usage=FLASHONLY|Rotation=0.000|XOffset=0mm|YOffset=0mm|HoleType=Round|Shape=Relief|Width=0.15mm|Gap=0.15mm|Entries=4|*
%AMTHD87*
7,0,0,1.311,1.011,0.150,45*
%
%ADD87THD87*%
%ADD88C,1.211*%
G04:AMPARAMS|DCode=89|XSize=1.8mm|YSize=1.8mm|CornerRadius=0mm|HoleSize=0mm|Usage=FLASHONLY|Rotation=0.000|XOffset=0mm|YOffset=0mm|HoleType=Round|Shape=Relief|Width=0.15mm|Gap=0.15mm|Entries=4|*
%AMTHD89*
7,0,0,1.800,1.500,0.150,45*
%
%ADD89THD89*%
%ADD90C,1.700*%
%ADD91C,1.770*%
%ADD92C,1.600*%
%ADD93C,3.300*%
G04:AMPARAMS|DCode=94|XSize=1.2mm|YSize=1.2mm|CornerRadius=0mm|HoleSize=0mm|Usage=FLASHONLY|Rotation=0.000|XOffset=0mm|YOffset=0mm|HoleType=Round|Shape=Relief|Width=0.15mm|Gap=0.15mm|Entries=4|*
%AMTHD94*
7,0,0,1.200,0.900,0.150,45*
%
%ADD94THD94*%
%ADD95R,1.650X0.300*%
%ADD96R,0.300X1.650*%
%ADD97O,1.270X0.762*%
%ADD98R,1.270X0.762*%
%ADD99O,0.300X1.700*%
%ADD100O,1.600X0.250*%
%ADD101O,0.250X1.600*%
%ADD102R,0.250X1.600*%
%ADD103O,0.508X1.778*%
%ADD104R,0.508X1.778*%
%ADD105R,1.500X1.600*%
G04:AMPARAMS|DCode=106|XSize=1.6mm|YSize=1.5mm|CornerRadius=0mm|HoleSize=0mm|Usage=FLASHONLY|Rotation=270.000|XOffset=0mm|YOffset=0mm|HoleType=Round|Shape=Octagon|*
%AMOCTAGOND106*
4,1,8,-0.375,-0.800,0.375,-0.800,0.750,-0.425,0.750,0.425,0.375,0.800,-0.375,0.800,-0.750,0.425,-0.750,-0.425,-0.375,-0.800,0.0*
%
%ADD106OCTAGOND106*%

%ADD107R,4.600X0.610*%
%ADD108R,4.600X0.810*%
%ADD109O,1.778X0.381*%
%ADD110R,1.778X0.381*%
%ADD111C,0.305*%
%ADD112C,0.250*%
%ADD113C,0.203*%
%ADD114R,0.900X1.000*%
%ADD115R,1.000X0.900*%
G04:AMPARAMS|DCode=116|XSize=0.9mm|YSize=1mm|CornerRadius=0mm|HoleSize=0mm|Usage=FLASHONLY|Rotation=225.000|XOffset=0mm|YOffset=0mm|HoleType=Round|Shape=Rectangle|*
%AMROTATEDRECTD116*
4,1,4,-0.035,0.672,0.672,-0.035,0.035,-0.672,-0.672,0.035,-0.035,0.672,0.0*
%
%ADD116ROTATEDRECTD116*%

G04:AMPARAMS|DCode=117|XSize=0.9mm|YSize=1mm|CornerRadius=0mm|HoleSize=0mm|Usage=FLASHONLY|Rotation=315.000|XOffset=0mm|YOffset=0mm|HoleType=Round|Shape=Rectangle|*
%AMROTATEDRECTD117*
4,1,4,-0.672,-0.035,0.035,0.672,0.672,0.035,-0.035,-0.672,-0.672,-0.035,0.0*
%
%ADD117ROTATEDRECTD117*%

%ADD118R,3.448X3.448*%
G04:AMPARAMS|DCode=119|XSize=1.4mm|YSize=2.4mm|CornerRadius=0.3mm|HoleSize=0mm|Usage=FLASHONLY|Rotation=270.000|XOffset=0mm|YOffset=0mm|HoleType=Round|Shape=RoundedRectangle|*
%AMROUNDEDRECTD119*
21,1,1.400,1.800,0,0,270.0*
21,1,0.800,2.400,0,0,270.0*
1,1,0.600,-0.900,-0.400*
1,1,0.600,-0.900,0.400*
1,1,0.600,0.900,0.400*
1,1,0.600,0.900,-0.400*
%
%ADD119ROUNDEDRECTD119*%
G04:AMPARAMS|DCode=120|XSize=1.4mm|YSize=1.9mm|CornerRadius=0.3mm|HoleSize=0mm|Usage=FLASHONLY|Rotation=270.000|XOffset=0mm|YOffset=0mm|HoleType=Round|Shape=RoundedRectangle|*
%AMROUNDEDRECTD120*
21,1,1.400,1.300,0,0,270.0*
21,1,0.800,1.900,0,0,270.0*
1,1,0.600,-0.650,-0.400*
1,1,0.600,-0.650,0.400*
1,1,0.600,0.650,0.400*
1,1,0.600,0.650,-0.400*
%
%ADD120ROUNDEDRECTD120*%
G04:AMPARAMS|DCode=121|XSize=1.2mm|YSize=1.4mm|CornerRadius=0.28mm|HoleSize=0mm|Usage=FLASHONLY|Rotation=270.000|XOffset=0mm|YOffset=0mm|HoleType=Round|Shape=RoundedRectangle|*
%AMROUNDEDRECTD121*
21,1,1.200,0.840,0,0,270.0*
21,1,0.640,1.400,0,0,270.0*
1,1,0.560,-0.420,-0.320*
1,1,0.560,-0.420,0.320*
1,1,0.560,0.420,0.320*
1,1,0.560,0.420,-0.320*
%
%ADD121ROUNDEDRECTD121*%
G04:AMPARAMS|DCode=122|XSize=1.2mm|YSize=1.4mm|CornerRadius=0.28mm|HoleSize=0mm|Usage=FLASHONLY|Rotation=0.000|XOffset=0mm|YOffset=0mm|HoleType=Round|Shape=RoundedRectangle|*
%AMROUNDEDRECTD122*
21,1,1.200,0.840,0,0,0.0*
21,1,0.640,1.400,0,0,0.0*
1,1,0.560,0.320,-0.420*
1,1,0.560,-0.320,-0.420*
1,1,0.560,-0.320,0.420*
1,1,0.560,0.320,0.420*
%
%ADD122ROUNDEDRECTD122*%
%ADD123R,1.162X2.940*%
%ADD124R,5.400X6.400*%
%ADD125R,2.940X1.162*%
%ADD126R,6.400X5.400*%
%ADD127R,3.448X3.448*%
%ADD128O,0.705X1.416*%
%ADD129O,1.213X0.705*%
%ADD130O,1.416X0.705*%
%ADD131O,0.705X1.213*%
%ADD132O,2.500X6.400*%
%ADD133O,2.500X6.400*%
%ADD134R,2.250X2.250*%
%ADD135C,2.250*%
%ADD136R,2.250X2.250*%
%ADD137C,4.400*%
%ADD138C,4.900*%
%ADD139C,4.703*%
%ADD140C,1.900*%
%ADD141R,1.900X1.900*%
%ADD142C,1.924*%
%ADD143C,3.400*%
%ADD144C,2.900*%
%ADD145C,1.822*%
%ADD146C,2.838*%
%ADD147C,1.670*%
%ADD148C,1.100*%
%ADD149C,2.200*%
%ADD150C,2.400*%
%ADD151R,2.050X0.700*%
%ADD152R,0.700X2.050*%
%ADD153O,1.670X1.162*%
%ADD154R,1.670X1.162*%
%ADD155O,0.700X2.100*%
%ADD156O,2.000X0.650*%
%ADD157O,0.650X2.000*%
%ADD158R,0.650X2.000*%
%ADD159O,0.908X2.178*%
%ADD160R,0.908X2.178*%
%ADD161R,1.900X2.000*%
G04:AMPARAMS|DCode=162|XSize=2mm|YSize=1.9mm|CornerRadius=0mm|HoleSize=0mm|Usage=FLASHONLY|Rotation=270.000|XOffset=0mm|YOffset=0mm|HoleType=Round|Shape=Octagon|*
%AMOCTAGOND162*
4,1,8,-0.475,-1.000,0.475,-1.000,0.950,-0.525,0.950,0.525,0.475,1.000,-0.475,1.000,-0.950,0.525,-0.950,-0.525,-0.475,-1.000,0.0*
%
%ADD162OCTAGOND162*%

%ADD163R,5.000X1.010*%
%ADD164R,5.000X1.210*%
%ADD165O,2.178X0.781*%
%ADD166R,2.178X0.781*%
G54D36*
X0025000Y0025000D02*
Y0288350D01*
X0399000D01*
Y0025000D02*
Y0288350D01*
X0025000Y0025000D02*
X0399000D01*
G54D56*
X0212500Y0228550D02*
D03*
X0282500Y0204500D02*
D03*
G54D63*
X0235500Y0245500D02*
D03*
X0240500Y0245500D02*
D03*
X0245500D02*
D03*
G54D69*
X0253500Y0157500D02*
D03*
Y0156000D02*
D03*
G54D83*
X0220000Y0140000D02*
D03*
X0221000D02*
D03*
X0222000D02*
D03*
X0223000D02*
D03*
X0224000D02*
D03*
X0225000D02*
D03*
X0226000D02*
D03*
X0227000D02*
D03*
X0228000D02*
D03*
X0229000D02*
D03*
X0230000D02*
D03*
X0231000D02*
D03*
X0232000D02*
D03*
X0233000D02*
D03*
X0234000D02*
D03*
X0235000D02*
D03*
X0236000D02*
D03*
X0237000D02*
D03*
X0238000D02*
D03*
X0239000D02*
D03*
X0240000D02*
D03*
X0241000D02*
D03*
X0242000D02*
D03*
X0243000D02*
D03*
X0244000D02*
D03*
X0245000D02*
D03*
X0246000D02*
D03*
X0247000D02*
D03*
X0248000D02*
D03*
X0249000D02*
D03*
X0250000D02*
D03*
X0251000D02*
D03*
X0219000Y0141000D02*
D03*
X0220000D02*
D03*
X0221000D02*
D03*
X0222000D02*
D03*
X0223000D02*
D03*
X0224000D02*
D03*
X0225000D02*
D03*
X0226000D02*
D03*
X0227000D02*
D03*
X0228000D02*
D03*
X0229000D02*
D03*
X0230000D02*
D03*
X0231000D02*
D03*
X0232000D02*
D03*
X0233000D02*
D03*
X0234000D02*
D03*
X0235000D02*
D03*
X0236000D02*
D03*
X0237000D02*
D03*
X0238000D02*
D03*
X0239000D02*
D03*
X0240000D02*
D03*
X0241000D02*
D03*
X0242000D02*
D03*
X0243000D02*
D03*
X0244000D02*
D03*
X0245000D02*
D03*
X0246000D02*
D03*
X0247000D02*
D03*
X0248000D02*
D03*
X0249000D02*
D03*
X0250000D02*
D03*
X0251000D02*
D03*
X0252000D02*
D03*
X0219000Y0142000D02*
D03*
X0220000D02*
D03*
X0221000D02*
D03*
X0222000D02*
D03*
X0223000D02*
D03*
X0224000D02*
D03*
X0225000D02*
D03*
X0226000D02*
D03*
X0227000D02*
D03*
X0228000D02*
D03*
X0229000D02*
D03*
X0230000D02*
D03*
X0231000D02*
D03*
X0232000D02*
D03*
X0233000D02*
D03*
X0234000D02*
D03*
X0235000D02*
D03*
X0236000D02*
D03*
X0237000D02*
D03*
X0238000D02*
D03*
X0239000D02*
D03*
X0240000D02*
D03*
X0241000D02*
D03*
X0242000D02*
D03*
X0243000D02*
D03*
X0244000D02*
D03*
X0245000D02*
D03*
X0246000D02*
D03*
X0247000D02*
D03*
X0248000D02*
D03*
X0249000D02*
D03*
X0250000D02*
D03*
X0251000D02*
D03*
X0252000D02*
D03*
X0219000Y0143000D02*
D03*
X0220000D02*
D03*
X0221000D02*
D03*
X0222000D02*
D03*
X0223000D02*
D03*
X0224000D02*
D03*
X0225000D02*
D03*
X0226000D02*
D03*
X0227000D02*
D03*
X0228000D02*
D03*
X0229000D02*
D03*
X0230000D02*
D03*
X0231000D02*
D03*
X0232000D02*
D03*
X0233000D02*
D03*
X0234000D02*
D03*
X0235000D02*
D03*
X0236000D02*
D03*
X0237000D02*
D03*
X0238000D02*
D03*
X0239000D02*
D03*
X0240000D02*
D03*
X0241000D02*
D03*
X0242000D02*
D03*
X0243000D02*
D03*
X0244000D02*
D03*
X0245000D02*
D03*
X0246000D02*
D03*
X0247000D02*
D03*
X0248000D02*
D03*
X0249000D02*
D03*
X0250000D02*
D03*
X0251000D02*
D03*
X0252000D02*
D03*
X0219000Y0144000D02*
D03*
X0220000D02*
D03*
X0221000D02*
D03*
X0222000D02*
D03*
X0223000D02*
D03*
X0224000D02*
D03*
X0225000D02*
D03*
X0226000D02*
D03*
X0227000D02*
D03*
X0228000D02*
D03*
X0229000D02*
D03*
X0230000D02*
D03*
X0231000D02*
D03*
X0232000D02*
D03*
X0233000D02*
D03*
X0234000D02*
D03*
X0235000D02*
D03*
X0236000D02*
D03*
X0237000D02*
D03*
X0238000D02*
D03*
X0239000D02*
D03*
X0240000D02*
D03*
X0241000D02*
D03*
X0242000D02*
D03*
X0243000D02*
D03*
X0244000D02*
D03*
X0245000D02*
D03*
X0246000D02*
D03*
X0247000D02*
D03*
X0248000D02*
D03*
X0249000D02*
D03*
X0250000D02*
D03*
X0251000D02*
D03*
X0252000D02*
D03*
X0219000Y0145000D02*
D03*
X0220000D02*
D03*
X0221000D02*
D03*
X0222000D02*
D03*
X0223000D02*
D03*
X0224000D02*
D03*
X0225000D02*
D03*
X0226000D02*
D03*
X0227000D02*
D03*
X0228000D02*
D03*
X0229000D02*
D03*
X0230000D02*
D03*
X0231000D02*
D03*
X0232000D02*
D03*
X0233000D02*
D03*
X0234000D02*
D03*
X0235000D02*
D03*
X0236000D02*
D03*
X0237000D02*
D03*
X0238000D02*
D03*
X0239000D02*
D03*
X0240000D02*
D03*
X0241000D02*
D03*
X0242000D02*
D03*
X0243000D02*
D03*
X0244000D02*
D03*
X0245000D02*
D03*
X0246000D02*
D03*
X0247000D02*
D03*
X0248000D02*
D03*
X0249000D02*
D03*
X0250000D02*
D03*
X0251000D02*
D03*
X0252000D02*
D03*
X0219000Y0146000D02*
D03*
X0220000D02*
D03*
X0221000D02*
D03*
X0222000D02*
D03*
X0223000D02*
D03*
X0224000D02*
D03*
X0225000D02*
D03*
X0226000D02*
D03*
X0227000D02*
D03*
X0228000D02*
D03*
X0229000D02*
D03*
X0230000D02*
D03*
X0231000D02*
D03*
X0232000D02*
D03*
X0233000D02*
D03*
X0234000D02*
D03*
X0235000D02*
D03*
X0236000D02*
D03*
X0237000D02*
D03*
X0238000D02*
D03*
X0239000D02*
D03*
X0240000D02*
D03*
X0241000D02*
D03*
X0242000D02*
D03*
X0243000D02*
D03*
X0244000D02*
D03*
X0245000D02*
D03*
X0246000D02*
D03*
X0247000D02*
D03*
X0248000D02*
D03*
X0249000D02*
D03*
X0250000D02*
D03*
X0251000D02*
D03*
X0252000D02*
D03*
X0219000Y0147000D02*
D03*
X0220000D02*
D03*
X0221000D02*
D03*
X0222000D02*
D03*
X0223000D02*
D03*
X0224000D02*
D03*
X0225000D02*
D03*
X0226000D02*
D03*
X0227000D02*
D03*
X0228000D02*
D03*
X0229000D02*
D03*
X0230000D02*
D03*
X0231000D02*
D03*
X0232000D02*
D03*
X0233000D02*
D03*
X0234000D02*
D03*
X0235000D02*
D03*
X0236000D02*
D03*
X0237000D02*
D03*
X0238000D02*
D03*
X0239000D02*
D03*
X0240000D02*
D03*
X0241000D02*
D03*
X0242000D02*
D03*
X0243000D02*
D03*
X0244000D02*
D03*
X0245000D02*
D03*
X0246000D02*
D03*
X0247000D02*
D03*
X0248000D02*
D03*
X0249000D02*
D03*
X0250000D02*
D03*
X0251000D02*
D03*
X0252000D02*
D03*
X0219000Y0148000D02*
D03*
X0220000D02*
D03*
X0221000D02*
D03*
X0222000D02*
D03*
X0223000D02*
D03*
X0224000D02*
D03*
X0225000D02*
D03*
X0226000D02*
D03*
X0227000D02*
D03*
X0228000D02*
D03*
X0229000D02*
D03*
X0230000D02*
D03*
X0231000D02*
D03*
X0232000D02*
D03*
X0233000D02*
D03*
X0234000D02*
D03*
X0235000D02*
D03*
X0236000D02*
D03*
X0237000D02*
D03*
X0238000D02*
D03*
X0239000D02*
D03*
X0240000D02*
D03*
X0241000D02*
D03*
X0242000D02*
D03*
X0243000D02*
D03*
X0244000D02*
D03*
X0245000D02*
D03*
X0246000D02*
D03*
X0247000D02*
D03*
X0248000D02*
D03*
X0249000D02*
D03*
X0250000D02*
D03*
X0251000D02*
D03*
X0252000D02*
D03*
X0219000Y0149000D02*
D03*
X0220000D02*
D03*
X0221000D02*
D03*
X0222000D02*
D03*
X0223000D02*
D03*
X0224000D02*
D03*
X0225000D02*
D03*
X0226000D02*
D03*
X0227000D02*
D03*
X0228000D02*
D03*
X0229000D02*
D03*
X0230000D02*
D03*
X0231000D02*
D03*
X0232000D02*
D03*
X0233000D02*
D03*
X0234000D02*
D03*
X0235000D02*
D03*
X0236000D02*
D03*
X0237000D02*
D03*
X0238000D02*
D03*
X0239000D02*
D03*
X0240000D02*
D03*
X0241000D02*
D03*
X0242000D02*
D03*
X0243000D02*
D03*
X0244000D02*
D03*
X0245000D02*
D03*
X0246000D02*
D03*
X0247000D02*
D03*
X0248000D02*
D03*
X0249000D02*
D03*
X0250000D02*
D03*
X0251000D02*
D03*
X0252000D02*
D03*
X0219000Y0150000D02*
D03*
X0220000D02*
D03*
X0221000D02*
D03*
X0222000D02*
D03*
X0223000D02*
D03*
X0224000D02*
D03*
X0225000D02*
D03*
X0226000D02*
D03*
X0227000D02*
D03*
X0228000D02*
D03*
X0229000D02*
D03*
X0230000D02*
D03*
X0231000D02*
D03*
X0232000D02*
D03*
X0233000D02*
D03*
X0234000D02*
D03*
X0235000D02*
D03*
X0236000D02*
D03*
X0237000D02*
D03*
X0238000D02*
D03*
X0239000D02*
D03*
X0240000D02*
D03*
X0241000D02*
D03*
X0242000D02*
D03*
X0243000D02*
D03*
X0244000D02*
D03*
X0245000D02*
D03*
X0246000D02*
D03*
X0247000D02*
D03*
X0248000D02*
D03*
X0249000D02*
D03*
X0250000D02*
D03*
X0251000D02*
D03*
X0252000D02*
D03*
X0219000Y0151000D02*
D03*
X0220000D02*
D03*
X0221000D02*
D03*
X0222000D02*
D03*
X0223000D02*
D03*
X0224000D02*
D03*
X0225000D02*
D03*
X0226000D02*
D03*
X0227000D02*
D03*
X0228000D02*
D03*
X0229000D02*
D03*
X0230000D02*
D03*
X0231000D02*
D03*
X0232000D02*
D03*
X0233000D02*
D03*
X0234000D02*
D03*
X0235000D02*
D03*
X0236000D02*
D03*
X0237000D02*
D03*
X0238000D02*
D03*
X0239000D02*
D03*
X0240000D02*
D03*
X0241000D02*
D03*
X0242000D02*
D03*
X0243000D02*
D03*
X0244000D02*
D03*
X0245000D02*
D03*
X0246000D02*
D03*
X0247000D02*
D03*
X0248000D02*
D03*
X0249000D02*
D03*
X0250000D02*
D03*
X0251000D02*
D03*
X0252000D02*
D03*
X0219000Y0152000D02*
D03*
X0220000D02*
D03*
X0221000D02*
D03*
X0222000D02*
D03*
X0223000D02*
D03*
X0224000D02*
D03*
X0225000D02*
D03*
X0226000D02*
D03*
X0227000D02*
D03*
X0228000D02*
D03*
X0229000D02*
D03*
X0230000D02*
D03*
X0231000D02*
D03*
X0232000D02*
D03*
X0233000D02*
D03*
X0234000D02*
D03*
X0235000D02*
D03*
X0236000D02*
D03*
X0237000D02*
D03*
X0238000D02*
D03*
X0239000D02*
D03*
X0240000D02*
D03*
X0241000D02*
D03*
X0242000D02*
D03*
X0243000D02*
D03*
X0244000D02*
D03*
X0245000D02*
D03*
X0246000D02*
D03*
X0247000D02*
D03*
X0248000D02*
D03*
X0249000D02*
D03*
X0250000D02*
D03*
X0251000D02*
D03*
X0252000D02*
D03*
X0219000Y0153000D02*
D03*
X0220000D02*
D03*
X0221000D02*
D03*
X0222000D02*
D03*
X0223000D02*
D03*
X0224000D02*
D03*
X0225000D02*
D03*
X0226000D02*
D03*
X0227000D02*
D03*
X0228000D02*
D03*
X0229000D02*
D03*
X0230000D02*
D03*
X0231000D02*
D03*
X0233000D02*
D03*
X0234000D02*
D03*
X0235000D02*
D03*
X0236000D02*
D03*
X0237000D02*
D03*
X0238000D02*
D03*
X0240000D02*
D03*
X0241000D02*
D03*
X0242000D02*
D03*
X0243000D02*
D03*
X0244000D02*
D03*
X0245000D02*
D03*
X0246000D02*
D03*
X0247000D02*
D03*
X0248000D02*
D03*
X0249000D02*
D03*
X0250000D02*
D03*
X0251000D02*
D03*
X0252000D02*
D03*
X0219000Y0154000D02*
D03*
X0220000D02*
D03*
X0221000D02*
D03*
X0222000D02*
D03*
X0223000D02*
D03*
X0224000D02*
D03*
X0225000D02*
D03*
X0226000D02*
D03*
X0227000D02*
D03*
X0228000D02*
D03*
X0229000D02*
D03*
X0230000D02*
D03*
X0231000D02*
D03*
X0232000D02*
D03*
X0233000D02*
D03*
X0234000D02*
D03*
X0235000D02*
D03*
X0236000D02*
D03*
X0237000D02*
D03*
X0238000D02*
D03*
X0239000D02*
D03*
X0240000D02*
D03*
X0241000D02*
D03*
X0242000D02*
D03*
X0243000D02*
D03*
X0244000D02*
D03*
X0245000D02*
D03*
X0246000D02*
D03*
X0247000D02*
D03*
X0248000D02*
D03*
X0249000D02*
D03*
X0250000D02*
D03*
X0251000D02*
D03*
X0252000D02*
D03*
X0219000Y0155000D02*
D03*
X0220000D02*
D03*
X0221000D02*
D03*
X0222000D02*
D03*
X0223000D02*
D03*
X0224000D02*
D03*
X0225000D02*
D03*
X0226000D02*
D03*
X0227000D02*
D03*
X0228000D02*
D03*
X0229000D02*
D03*
X0230000D02*
D03*
X0231000D02*
D03*
X0232000D02*
D03*
X0233000D02*
D03*
X0234000D02*
D03*
X0235000D02*
D03*
X0236000D02*
D03*
X0237000D02*
D03*
X0238000D02*
D03*
X0239000D02*
D03*
X0240000D02*
D03*
X0241000D02*
D03*
X0242000D02*
D03*
X0243000D02*
D03*
X0244000D02*
D03*
X0245000D02*
D03*
X0246000D02*
D03*
X0247000D02*
D03*
X0248000D02*
D03*
X0249000D02*
D03*
X0250000D02*
D03*
X0251000D02*
D03*
X0252000D02*
D03*
X0219000Y0156000D02*
D03*
X0220000D02*
D03*
X0221000D02*
D03*
X0222000D02*
D03*
X0223000D02*
D03*
X0224000D02*
D03*
X0225000D02*
D03*
X0226000D02*
D03*
X0227000D02*
D03*
X0228000D02*
D03*
X0229000D02*
D03*
X0230000D02*
D03*
X0231000D02*
D03*
X0232000D02*
D03*
X0233000D02*
D03*
X0234000D02*
D03*
X0235000D02*
D03*
X0236000D02*
D03*
X0237000D02*
D03*
X0238000D02*
D03*
X0239000D02*
D03*
X0240000D02*
D03*
X0241000D02*
D03*
X0242000D02*
D03*
X0243000D02*
D03*
X0244000D02*
D03*
X0245000D02*
D03*
X0246000D02*
D03*
X0247000D02*
D03*
X0248000D02*
D03*
X0249000D02*
D03*
X0250000D02*
D03*
X0251000D02*
D03*
X0252000D02*
D03*
X0219000Y0157000D02*
D03*
X0220000D02*
D03*
X0221000D02*
D03*
X0222000D02*
D03*
X0223000D02*
D03*
X0224000D02*
D03*
X0225000D02*
D03*
X0226000D02*
D03*
X0227000D02*
D03*
X0228000D02*
D03*
X0229000D02*
D03*
X0230000D02*
D03*
X0231000D02*
D03*
X0232000D02*
D03*
X0233000D02*
D03*
X0234000D02*
D03*
X0235000D02*
D03*
X0236000D02*
D03*
X0237000D02*
D03*
X0238000D02*
D03*
X0239000D02*
D03*
X0240000D02*
D03*
X0241000D02*
D03*
X0242000D02*
D03*
X0243000D02*
D03*
X0244000D02*
D03*
X0245000D02*
D03*
X0246000D02*
D03*
X0247000D02*
D03*
X0248000D02*
D03*
X0249000D02*
D03*
X0250000D02*
D03*
X0251000D02*
D03*
X0252000D02*
D03*
X0219000Y0158000D02*
D03*
X0220000D02*
D03*
X0221000D02*
D03*
X0222000D02*
D03*
X0223000D02*
D03*
X0224000D02*
D03*
X0225000D02*
D03*
X0226000D02*
D03*
X0227000D02*
D03*
X0228000D02*
D03*
X0229000D02*
D03*
X0230000D02*
D03*
X0231000D02*
D03*
X0232000D02*
D03*
X0233000D02*
D03*
X0234000D02*
D03*
X0235000D02*
D03*
X0236000D02*
D03*
X0237000D02*
D03*
X0238000D02*
D03*
X0239000D02*
D03*
X0240000D02*
D03*
X0241000D02*
D03*
X0242000D02*
D03*
X0243000D02*
D03*
X0244000D02*
D03*
X0245000D02*
D03*
X0246000D02*
D03*
X0247000D02*
D03*
X0248000D02*
D03*
X0249000D02*
D03*
X0250000D02*
D03*
X0251000D02*
D03*
X0252000D02*
D03*
X0219000Y0159000D02*
D03*
X0220000D02*
D03*
X0221000D02*
D03*
X0222000D02*
D03*
X0223000D02*
D03*
X0224000D02*
D03*
X0225000D02*
D03*
X0226000D02*
D03*
X0227000D02*
D03*
X0228000D02*
D03*
X0229000D02*
D03*
X0230000D02*
D03*
X0231000D02*
D03*
X0232000D02*
D03*
X0233000D02*
D03*
X0234000D02*
D03*
X0235000D02*
D03*
X0236000D02*
D03*
X0237000D02*
D03*
X0238000D02*
D03*
X0239000D02*
D03*
X0240000D02*
D03*
X0241000D02*
D03*
X0242000D02*
D03*
X0243000D02*
D03*
X0244000D02*
D03*
X0245000D02*
D03*
X0246000D02*
D03*
X0247000D02*
D03*
X0248000D02*
D03*
X0249000D02*
D03*
X0250000D02*
D03*
X0251000D02*
D03*
X0252000D02*
D03*
X0219000Y0160000D02*
D03*
X0220000D02*
D03*
X0221000D02*
D03*
X0222000D02*
D03*
X0223000D02*
D03*
X0224000D02*
D03*
X0225000D02*
D03*
X0226000D02*
D03*
X0227000D02*
D03*
X0228000D02*
D03*
X0229000D02*
D03*
X0230000D02*
D03*
X0231000D02*
D03*
X0233000D02*
D03*
X0234000D02*
D03*
X0235000D02*
D03*
X0236000D02*
D03*
X0237000D02*
D03*
X0238000D02*
D03*
X0240000D02*
D03*
X0241000D02*
D03*
X0242000D02*
D03*
X0243000D02*
D03*
X0244000D02*
D03*
X0245000D02*
D03*
X0246000D02*
D03*
X0247000D02*
D03*
X0248000D02*
D03*
X0249000D02*
D03*
X0250000D02*
D03*
X0251000D02*
D03*
X0252000D02*
D03*
X0219000Y0161000D02*
D03*
X0220000D02*
D03*
X0221000D02*
D03*
X0222000D02*
D03*
X0223000D02*
D03*
X0224000D02*
D03*
X0225000D02*
D03*
X0226000D02*
D03*
X0227000D02*
D03*
X0228000D02*
D03*
X0229000D02*
D03*
X0230000D02*
D03*
X0231000D02*
D03*
X0232000D02*
D03*
X0233000D02*
D03*
X0234000D02*
D03*
X0235000D02*
D03*
X0236000D02*
D03*
X0237000D02*
D03*
X0238000D02*
D03*
X0239000D02*
D03*
X0240000D02*
D03*
X0241000D02*
D03*
X0242000D02*
D03*
X0243000D02*
D03*
X0244000D02*
D03*
X0245000D02*
D03*
X0246000D02*
D03*
X0247000D02*
D03*
X0248000D02*
D03*
X0249000D02*
D03*
X0250000D02*
D03*
X0251000D02*
D03*
X0252000D02*
D03*
X0219000Y0162000D02*
D03*
X0220000D02*
D03*
X0221000D02*
D03*
X0222000D02*
D03*
X0223000D02*
D03*
X0224000D02*
D03*
X0225000D02*
D03*
X0226000D02*
D03*
X0227000D02*
D03*
X0228000D02*
D03*
X0229000D02*
D03*
X0230000D02*
D03*
X0231000D02*
D03*
X0232000D02*
D03*
X0233000D02*
D03*
X0234000D02*
D03*
X0235000D02*
D03*
X0236000D02*
D03*
X0237000D02*
D03*
X0238000D02*
D03*
X0239000D02*
D03*
X0240000D02*
D03*
X0241000D02*
D03*
X0242000D02*
D03*
X0243000D02*
D03*
X0244000D02*
D03*
X0245000D02*
D03*
X0246000D02*
D03*
X0247000D02*
D03*
X0248000D02*
D03*
X0249000D02*
D03*
X0250000D02*
D03*
X0251000D02*
D03*
X0252000D02*
D03*
X0219000Y0163000D02*
D03*
X0220000D02*
D03*
X0221000D02*
D03*
X0222000D02*
D03*
X0223000D02*
D03*
X0224000D02*
D03*
X0225000D02*
D03*
X0226000D02*
D03*
X0227000D02*
D03*
X0228000D02*
D03*
X0229000D02*
D03*
X0230000D02*
D03*
X0231000D02*
D03*
X0232000D02*
D03*
X0233000D02*
D03*
X0234000D02*
D03*
X0235000D02*
D03*
X0236000D02*
D03*
X0237000D02*
D03*
X0238000D02*
D03*
X0239000D02*
D03*
X0240000D02*
D03*
X0241000D02*
D03*
X0242000D02*
D03*
X0243000D02*
D03*
X0244000D02*
D03*
X0245000D02*
D03*
X0246000D02*
D03*
X0247000D02*
D03*
X0248000D02*
D03*
X0249000D02*
D03*
X0250000D02*
D03*
X0251000D02*
D03*
X0252000D02*
D03*
X0219000Y0164000D02*
D03*
X0220000D02*
D03*
X0221000D02*
D03*
X0222000D02*
D03*
X0223000D02*
D03*
X0224000D02*
D03*
X0225000D02*
D03*
X0226000D02*
D03*
X0227000D02*
D03*
X0228000D02*
D03*
X0229000D02*
D03*
X0230000D02*
D03*
X0231000D02*
D03*
X0232000D02*
D03*
X0233000D02*
D03*
X0234000D02*
D03*
X0235000D02*
D03*
X0236000D02*
D03*
X0237000D02*
D03*
X0238000D02*
D03*
X0239000D02*
D03*
X0240000D02*
D03*
X0241000D02*
D03*
X0242000D02*
D03*
X0243000D02*
D03*
X0244000D02*
D03*
X0245000D02*
D03*
X0246000D02*
D03*
X0247000D02*
D03*
X0248000D02*
D03*
X0249000D02*
D03*
X0250000D02*
D03*
X0251000D02*
D03*
X0252000D02*
D03*
X0219000Y0165000D02*
D03*
X0220000D02*
D03*
X0221000D02*
D03*
X0222000D02*
D03*
X0223000D02*
D03*
X0224000D02*
D03*
X0225000D02*
D03*
X0226000D02*
D03*
X0227000D02*
D03*
X0228000D02*
D03*
X0229000D02*
D03*
X0230000D02*
D03*
X0231000D02*
D03*
X0232000D02*
D03*
X0233000D02*
D03*
X0234000D02*
D03*
X0235000D02*
D03*
X0236000D02*
D03*
X0237000D02*
D03*
X0238000D02*
D03*
X0239000D02*
D03*
X0240000D02*
D03*
X0241000D02*
D03*
X0242000D02*
D03*
X0243000D02*
D03*
X0244000D02*
D03*
X0245000D02*
D03*
X0246000D02*
D03*
X0247000D02*
D03*
X0248000D02*
D03*
X0249000D02*
D03*
X0250000D02*
D03*
X0251000D02*
D03*
X0252000D02*
D03*
X0219000Y0166000D02*
D03*
X0220000D02*
D03*
X0221000D02*
D03*
X0222000D02*
D03*
X0223000D02*
D03*
X0224000D02*
D03*
X0225000D02*
D03*
X0226000D02*
D03*
X0227000D02*
D03*
X0228000D02*
D03*
X0229000D02*
D03*
X0230000D02*
D03*
X0231000D02*
D03*
X0232000D02*
D03*
X0233000D02*
D03*
X0234000D02*
D03*
X0235000D02*
D03*
X0236000D02*
D03*
X0237000D02*
D03*
X0238000D02*
D03*
X0239000D02*
D03*
X0240000D02*
D03*
X0241000D02*
D03*
X0242000D02*
D03*
X0243000D02*
D03*
X0244000D02*
D03*
X0245000D02*
D03*
X0246000D02*
D03*
X0247000D02*
D03*
X0248000D02*
D03*
X0249000D02*
D03*
X0250000D02*
D03*
X0251000D02*
D03*
X0252000D02*
D03*
X0219000Y0167000D02*
D03*
X0220000D02*
D03*
X0221000D02*
D03*
X0222000D02*
D03*
X0223000D02*
D03*
X0224000D02*
D03*
X0225000D02*
D03*
X0226000D02*
D03*
X0227000D02*
D03*
X0228000D02*
D03*
X0229000D02*
D03*
X0230000D02*
D03*
X0231000D02*
D03*
X0232000D02*
D03*
X0233000D02*
D03*
X0234000D02*
D03*
X0235000D02*
D03*
X0236000D02*
D03*
X0237000D02*
D03*
X0238000D02*
D03*
X0239000D02*
D03*
X0240000D02*
D03*
X0241000D02*
D03*
X0242000D02*
D03*
X0243000D02*
D03*
X0244000D02*
D03*
X0245000D02*
D03*
X0246000D02*
D03*
X0247000D02*
D03*
X0248000D02*
D03*
X0249000D02*
D03*
X0250000D02*
D03*
X0251000D02*
D03*
X0252000D02*
D03*
X0219000Y0168000D02*
D03*
X0220000D02*
D03*
X0221000D02*
D03*
X0222000D02*
D03*
X0223000D02*
D03*
X0224000D02*
D03*
X0225000D02*
D03*
X0226000D02*
D03*
X0227000D02*
D03*
X0228000D02*
D03*
X0229000D02*
D03*
X0230000D02*
D03*
X0231000D02*
D03*
X0232000D02*
D03*
X0233000D02*
D03*
X0234000D02*
D03*
X0235000D02*
D03*
X0236000D02*
D03*
X0237000D02*
D03*
X0238000D02*
D03*
X0239000D02*
D03*
X0240000D02*
D03*
X0241000D02*
D03*
X0242000D02*
D03*
X0243000D02*
D03*
X0244000D02*
D03*
X0245000D02*
D03*
X0246000D02*
D03*
X0247000D02*
D03*
X0248000D02*
D03*
X0249000D02*
D03*
X0250000D02*
D03*
X0251000D02*
D03*
X0252000D02*
D03*
X0219000Y0169000D02*
D03*
X0220000D02*
D03*
X0221000D02*
D03*
X0222000D02*
D03*
X0223000D02*
D03*
X0224000D02*
D03*
X0225000D02*
D03*
X0226000D02*
D03*
X0227000D02*
D03*
X0228000D02*
D03*
X0229000D02*
D03*
X0230000D02*
D03*
X0231000D02*
D03*
X0232000D02*
D03*
X0233000D02*
D03*
X0234000D02*
D03*
X0235000D02*
D03*
X0236000D02*
D03*
X0237000D02*
D03*
X0238000D02*
D03*
X0239000D02*
D03*
X0240000D02*
D03*
X0241000D02*
D03*
X0242000D02*
D03*
X0243000D02*
D03*
X0244000D02*
D03*
X0245000D02*
D03*
X0246000D02*
D03*
X0247000D02*
D03*
X0248000D02*
D03*
X0249000D02*
D03*
X0250000D02*
D03*
X0251000D02*
D03*
X0252000D02*
D03*
X0219000Y0170000D02*
D03*
X0220000D02*
D03*
X0221000D02*
D03*
X0222000D02*
D03*
X0223000D02*
D03*
X0224000D02*
D03*
X0225000D02*
D03*
X0226000D02*
D03*
X0227000D02*
D03*
X0228000D02*
D03*
X0229000D02*
D03*
X0230000D02*
D03*
X0231000D02*
D03*
X0232000D02*
D03*
X0233000D02*
D03*
X0234000D02*
D03*
X0235000D02*
D03*
X0236000D02*
D03*
X0237000D02*
D03*
X0238000D02*
D03*
X0239000D02*
D03*
X0240000D02*
D03*
X0241000D02*
D03*
X0242000D02*
D03*
X0243000D02*
D03*
X0244000D02*
D03*
X0245000D02*
D03*
X0246000D02*
D03*
X0247000D02*
D03*
X0248000D02*
D03*
X0249000D02*
D03*
X0250000D02*
D03*
X0251000D02*
D03*
X0252000D02*
D03*
X0219000Y0171000D02*
D03*
X0220000D02*
D03*
X0221000D02*
D03*
X0222000D02*
D03*
X0223000D02*
D03*
X0224000D02*
D03*
X0225000D02*
D03*
X0226000D02*
D03*
X0227000D02*
D03*
X0228000D02*
D03*
X0229000D02*
D03*
X0230000D02*
D03*
X0231000D02*
D03*
X0232000D02*
D03*
X0233000D02*
D03*
X0234000D02*
D03*
X0235000D02*
D03*
X0236000D02*
D03*
X0237000D02*
D03*
X0238000D02*
D03*
X0239000D02*
D03*
X0240000D02*
D03*
X0241000D02*
D03*
X0242000D02*
D03*
X0243000D02*
D03*
X0244000D02*
D03*
X0245000D02*
D03*
X0246000D02*
D03*
X0247000D02*
D03*
X0248000D02*
D03*
X0249000D02*
D03*
X0250000D02*
D03*
X0251000D02*
D03*
X0252000D02*
D03*
X0219000Y0172000D02*
D03*
X0220000D02*
D03*
X0221000D02*
D03*
X0222000D02*
D03*
X0223000D02*
D03*
X0224000D02*
D03*
X0225000D02*
D03*
X0226000D02*
D03*
X0227000D02*
D03*
X0228000D02*
D03*
X0229000D02*
D03*
X0230000D02*
D03*
X0231000D02*
D03*
X0232000D02*
D03*
X0233000D02*
D03*
X0234000D02*
D03*
X0235000D02*
D03*
X0236000D02*
D03*
X0237000D02*
D03*
X0238000D02*
D03*
X0239000D02*
D03*
X0240000D02*
D03*
X0241000D02*
D03*
X0242000D02*
D03*
X0243000D02*
D03*
X0244000D02*
D03*
X0245000D02*
D03*
X0246000D02*
D03*
X0247000D02*
D03*
X0248000D02*
D03*
X0249000D02*
D03*
X0250000D02*
D03*
X0251000D02*
D03*
X0252000D02*
D03*
X0220000Y0173000D02*
D03*
X0221000D02*
D03*
X0222000D02*
D03*
X0223000D02*
D03*
X0224000D02*
D03*
X0225000D02*
D03*
X0226000D02*
D03*
X0227000D02*
D03*
X0228000D02*
D03*
X0229000D02*
D03*
X0230000D02*
D03*
X0231000D02*
D03*
X0232000D02*
D03*
X0233000D02*
D03*
X0234000D02*
D03*
X0235000D02*
D03*
X0236000D02*
D03*
X0237000D02*
D03*
X0238000D02*
D03*
X0239000D02*
D03*
X0240000D02*
D03*
X0241000D02*
D03*
X0242000D02*
D03*
X0243000D02*
D03*
X0244000D02*
D03*
X0245000D02*
D03*
X0246000D02*
D03*
X0247000D02*
D03*
X0248000D02*
D03*
X0249000D02*
D03*
X0250000D02*
D03*
X0251000D02*
D03*
X0225000Y0236000D02*
D03*
X0227600D02*
D03*
X0228900D02*
D03*
X0225650Y0237500D02*
D03*
X0226950Y0236000D02*
D03*
X0227000Y0237500D02*
D03*
X0228250D02*
D03*
X0229000D02*
D03*
X0215500Y0236000D02*
D03*
X0218100D02*
D03*
X0219400D02*
D03*
X0216150Y0237500D02*
D03*
X0217450Y0236000D02*
D03*
X0217500Y0237500D02*
D03*
X0218750D02*
D03*
X0219500D02*
D03*
X0210000D02*
D03*
X0209250D02*
D03*
X0208000D02*
D03*
X0207950Y0236000D02*
D03*
X0206650Y0237500D02*
D03*
X0209900Y0236000D02*
D03*
X0208600D02*
D03*
X0206000D02*
D03*
X0203000Y0215500D02*
D03*
X0203500Y0216000D02*
D03*
X0204000Y0217000D02*
D03*
X0204500Y0217500D02*
D03*
X0229000Y0224000D02*
D03*
X0228000D02*
D03*
X0226500D02*
D03*
X0225500D02*
D03*
X0216000D02*
D03*
X0217000D02*
D03*
X0218500D02*
D03*
X0219500D02*
D03*
X0206500D02*
D03*
X0207500D02*
D03*
X0209000D02*
D03*
X0210000D02*
D03*
X0216800Y0108500D02*
D03*
Y0107500D02*
D03*
X0220000Y0085500D02*
D03*
X0221000D02*
D03*
X0222500D02*
D03*
X0223500D02*
D03*
X0210500D02*
D03*
X0211500D02*
D03*
X0213000D02*
D03*
X0214000D02*
D03*
X0204500D02*
D03*
X0203500D02*
D03*
X0202000D02*
D03*
X0201000D02*
D03*
X0197000Y0089000D02*
D03*
X0197500Y0088500D02*
D03*
X0198000Y0087500D02*
D03*
X0198500Y0087000D02*
D03*
X0216000Y0167500D02*
D03*
X0033500Y0181500D02*
D03*
X0034000Y0180000D02*
D03*
X0165500Y0195000D02*
D03*
X0167500Y0199500D02*
D03*
X0168000Y0198000D02*
D03*
X0085500Y0198500D02*
D03*
X0084500Y0198000D02*
D03*
X0083500Y0198500D02*
D03*
X0082500Y0198000D02*
D03*
X0081500Y0198500D02*
D03*
X0080500Y0198000D02*
D03*
X0079500Y0198500D02*
D03*
X0085000Y0200000D02*
D03*
X0086000Y0199500D02*
D03*
X0084000D02*
D03*
X0083000Y0200000D02*
D03*
X0082000Y0199500D02*
D03*
X0081000Y0200000D02*
D03*
X0080000Y0199500D02*
D03*
X0079000Y0200000D02*
D03*
X0086500Y0198000D02*
D03*
X0106000Y0198500D02*
D03*
X0105000Y0198000D02*
D03*
X0104000Y0198500D02*
D03*
X0103000Y0198000D02*
D03*
X0102000Y0198500D02*
D03*
X0101000Y0198000D02*
D03*
X0100000Y0198500D02*
D03*
X0105500Y0200000D02*
D03*
X0106500Y0199500D02*
D03*
X0104500D02*
D03*
X0103500Y0200000D02*
D03*
X0102500Y0199500D02*
D03*
X0101500Y0200000D02*
D03*
X0100500Y0199500D02*
D03*
X0099500Y0200000D02*
D03*
X0107000Y0198000D02*
D03*
X0126000Y0198500D02*
D03*
X0125000Y0198000D02*
D03*
X0124000Y0198500D02*
D03*
X0123000Y0198000D02*
D03*
X0122000Y0198500D02*
D03*
X0121000Y0198000D02*
D03*
X0120000Y0198500D02*
D03*
X0125500Y0200000D02*
D03*
X0126500Y0199500D02*
D03*
X0124500D02*
D03*
X0123500Y0200000D02*
D03*
X0122500Y0199500D02*
D03*
X0121500Y0200000D02*
D03*
X0120500Y0199500D02*
D03*
X0119500Y0200000D02*
D03*
X0127000Y0198000D02*
D03*
X0146500Y0198500D02*
D03*
X0145500Y0198000D02*
D03*
X0144500Y0198500D02*
D03*
X0143500Y0198000D02*
D03*
X0142500Y0198500D02*
D03*
X0141500Y0198000D02*
D03*
X0140500Y0198500D02*
D03*
X0146000Y0200000D02*
D03*
X0147000Y0199500D02*
D03*
X0145000D02*
D03*
X0144000Y0200000D02*
D03*
X0143000Y0199500D02*
D03*
X0142000Y0200000D02*
D03*
X0141000Y0199500D02*
D03*
X0140000Y0200000D02*
D03*
X0147500Y0198000D02*
D03*
X0167000Y0198500D02*
D03*
X0166000Y0193500D02*
D03*
X0165000Y0198500D02*
D03*
X0164000Y0198000D02*
D03*
X0163000Y0198500D02*
D03*
X0161000Y0200000D02*
D03*
X0166500D02*
D03*
X0164500D02*
D03*
X0163500Y0199500D02*
D03*
X0162500Y0200000D02*
D03*
X0161500Y0199000D02*
D03*
X0160500Y0198500D02*
D03*
X0187000D02*
D03*
X0186000Y0198000D02*
D03*
X0185000Y0198500D02*
D03*
X0184000Y0198000D02*
D03*
X0183000Y0198500D02*
D03*
X0182000Y0198000D02*
D03*
X0181000Y0198500D02*
D03*
X0186500Y0200000D02*
D03*
X0187500Y0199500D02*
D03*
X0185500D02*
D03*
X0184500Y0200000D02*
D03*
X0183500Y0199500D02*
D03*
X0182500Y0200000D02*
D03*
X0181500Y0199500D02*
D03*
X0180500Y0200000D02*
D03*
X0188000Y0198000D02*
D03*
X0065500Y0198500D02*
D03*
X0064500Y0198000D02*
D03*
X0063500Y0198500D02*
D03*
X0062500Y0198000D02*
D03*
X0061500Y0198500D02*
D03*
X0060500Y0198000D02*
D03*
X0059500Y0198500D02*
D03*
X0065000Y0200000D02*
D03*
X0066000Y0199500D02*
D03*
X0064000D02*
D03*
X0063000Y0200000D02*
D03*
X0062000Y0199500D02*
D03*
X0061000Y0200000D02*
D03*
X0060000Y0199500D02*
D03*
X0059000Y0200000D02*
D03*
X0066500Y0198000D02*
D03*
X0045000Y0198500D02*
D03*
X0044000Y0198000D02*
D03*
X0043000Y0198500D02*
D03*
X0042000Y0198000D02*
D03*
X0041000Y0198500D02*
D03*
X0040000Y0198000D02*
D03*
X0039000Y0198500D02*
D03*
X0044500Y0200000D02*
D03*
X0045500Y0199500D02*
D03*
X0043500D02*
D03*
X0042500Y0200000D02*
D03*
X0041500Y0199500D02*
D03*
X0040500Y0200000D02*
D03*
X0039500Y0199500D02*
D03*
X0038500Y0200000D02*
D03*
X0046000Y0198000D02*
D03*
X0190000Y0117000D02*
D03*
X0189500Y0118500D02*
D03*
X0189000Y0117000D02*
D03*
X0188500Y0118500D02*
D03*
X0168975Y0117000D02*
D03*
X0168475Y0118500D02*
D03*
X0087000D02*
D03*
X0067000D02*
D03*
X0108000D02*
D03*
X0148500Y0117000D02*
D03*
X0148000Y0118500D02*
D03*
X0160000D02*
D03*
X0160500Y0117000D02*
D03*
X0231000Y0126500D02*
D03*
X0225500Y0127000D02*
D03*
X0043000Y0118000D02*
D03*
X0043500Y0116500D02*
D03*
X0041000Y0118000D02*
D03*
X0041500Y0116500D02*
D03*
X0040000Y0118500D02*
D03*
X0040500Y0117000D02*
D03*
X0039000Y0118000D02*
D03*
X0039500Y0116500D02*
D03*
X0038000Y0118500D02*
D03*
X0038500Y0117000D02*
D03*
X0318500Y0203500D02*
D03*
X0318000Y0204000D02*
D03*
Y0201500D02*
D03*
Y0200500D02*
D03*
X0318500Y0202000D02*
D03*
Y0201000D02*
D03*
Y0198000D02*
D03*
X0318000Y0203000D02*
D03*
X0318500Y0204500D02*
D03*
X0290000Y0207000D02*
D03*
Y0209000D02*
D03*
X0318500Y0107500D02*
D03*
Y0108500D02*
D03*
Y0110000D02*
D03*
Y0111000D02*
D03*
Y0114000D02*
D03*
Y0115000D02*
D03*
Y0117500D02*
D03*
Y0116500D02*
D03*
X0318000Y0165000D02*
D03*
Y0166000D02*
D03*
Y0167500D02*
D03*
Y0168500D02*
D03*
Y0171500D02*
D03*
Y0172500D02*
D03*
Y0175000D02*
D03*
Y0174000D02*
D03*
X0318500Y0145500D02*
D03*
Y0146500D02*
D03*
X0318000Y0107000D02*
D03*
Y0108000D02*
D03*
Y0109500D02*
D03*
Y0110500D02*
D03*
Y0113500D02*
D03*
Y0114500D02*
D03*
Y0117000D02*
D03*
Y0116000D02*
D03*
X0193000Y0214000D02*
D03*
X0391500Y0168570D02*
D03*
Y0167300D02*
D03*
X0361000Y0147100D02*
D03*
X0368500D02*
D03*
X0374000Y0135000D02*
D03*
X0355000Y0188000D02*
D03*
X0356000D02*
D03*
X0355000Y0186000D02*
D03*
Y0182000D02*
D03*
X0318000Y0197500D02*
D03*
X0318500Y0197000D02*
D03*
X0356000Y0186000D02*
D03*
X0355000Y0184000D02*
D03*
X0356000Y0182000D02*
D03*
Y0180000D02*
D03*
X0318500Y0195500D02*
D03*
X0356000Y0178000D02*
D03*
X0355000D02*
D03*
X0318000Y0194000D02*
D03*
Y0195000D02*
D03*
Y0145000D02*
D03*
Y0146000D02*
D03*
Y0143500D02*
D03*
Y0142500D02*
D03*
X0318500Y0144000D02*
D03*
Y0143000D02*
D03*
X0318000Y0139500D02*
D03*
Y0138500D02*
D03*
X0318500Y0140000D02*
D03*
Y0139000D02*
D03*
X0318000Y0137000D02*
D03*
Y0136000D02*
D03*
X0318500Y0137500D02*
D03*
Y0136500D02*
D03*
Y0174500D02*
D03*
Y0175500D02*
D03*
Y0173000D02*
D03*
Y0172000D02*
D03*
Y0169000D02*
D03*
Y0168000D02*
D03*
Y0166500D02*
D03*
Y0165500D02*
D03*
Y0194500D02*
D03*
X0318000Y0196500D02*
D03*
X0355000Y0180000D02*
D03*
X0356000Y0196000D02*
D03*
X0355000Y0202000D02*
D03*
X0356000D02*
D03*
Y0200000D02*
D03*
X0355000Y0198000D02*
D03*
X0356000D02*
D03*
X0355000Y0200000D02*
D03*
Y0196000D02*
D03*
Y0172000D02*
D03*
X0356000D02*
D03*
X0356000Y0169000D02*
D03*
X0357000D02*
D03*
X0354000Y0167000D02*
D03*
X0355000D02*
D03*
X0352000Y0165000D02*
D03*
X0353000D02*
D03*
X0351000Y0164000D02*
D03*
X0352000D02*
D03*
X0350000Y0163000D02*
D03*
X0351000D02*
D03*
X0349000Y0162000D02*
D03*
X0350000D02*
D03*
X0348000Y0161000D02*
D03*
X0349000D02*
D03*
X0344500Y0158500D02*
D03*
X0345500D02*
D03*
X0343500Y0157500D02*
D03*
X0344500D02*
D03*
X0342500Y0156500D02*
D03*
X0343500D02*
D03*
X0342500Y0155500D02*
D03*
X0384150Y0160950D02*
D03*
Y0159680D02*
D03*
X0381610Y0159950D02*
D03*
Y0158680D02*
D03*
X0386690Y0159680D02*
D03*
Y0158410D02*
D03*
X0387960Y0157410D02*
D03*
Y0156140D02*
D03*
X0385420Y0157410D02*
D03*
Y0156140D02*
D03*
Y0152330D02*
D03*
Y0153600D02*
D03*
X0386690D02*
D03*
Y0154870D02*
D03*
X0381610D02*
D03*
Y0156140D02*
D03*
X0382880Y0157140D02*
D03*
Y0158410D02*
D03*
X0384150Y0155870D02*
D03*
Y0157140D02*
D03*
X0341500Y0155500D02*
D03*
X0339000Y0150000D02*
D03*
X0338000D02*
D03*
X0341500Y0148500D02*
D03*
X0340500D02*
D03*
X0342500Y0147500D02*
D03*
X0341500D02*
D03*
X0343500Y0146500D02*
D03*
X0342500D02*
D03*
X0344500Y0145500D02*
D03*
X0343500D02*
D03*
X0347500Y0144500D02*
D03*
X0346500D02*
D03*
X0349500D02*
D03*
X0348500D02*
D03*
X0350500Y0143500D02*
D03*
X0349500D02*
D03*
X0355000Y0142000D02*
D03*
X0354000D02*
D03*
X0351500Y0143500D02*
D03*
X0352500D02*
D03*
X0390500Y0142170D02*
D03*
Y0140900D02*
D03*
X0381610Y0153330D02*
D03*
Y0152060D02*
D03*
X0384150Y0152330D02*
D03*
Y0151060D02*
D03*
X0387960Y0152330D02*
D03*
Y0151060D02*
D03*
X0386690D02*
D03*
Y0149790D02*
D03*
X0382880Y0150790D02*
D03*
X0389230Y0144440D02*
D03*
Y0145710D02*
D03*
X0381610Y0144440D02*
D03*
Y0145710D02*
D03*
X0390500Y0146980D02*
D03*
Y0148250D02*
D03*
X0381610Y0147250D02*
D03*
Y0148520D02*
D03*
X0382880Y0149520D02*
D03*
Y0141900D02*
D03*
Y0143170D02*
D03*
X0356000Y0141000D02*
D03*
X0355000D02*
D03*
X0356000Y0137000D02*
D03*
X0355000D02*
D03*
X0381610Y0139630D02*
D03*
Y0140900D02*
D03*
X0384150Y0136820D02*
D03*
X0355000Y0135000D02*
D03*
X0356000D02*
D03*
X0354500Y0126500D02*
D03*
X0355500D02*
D03*
X0355000Y0133000D02*
D03*
X0356000D02*
D03*
X0354500Y0124500D02*
D03*
X0355500D02*
D03*
X0354500Y0122500D02*
D03*
X0355500D02*
D03*
X0354500Y0120500D02*
D03*
X0355500D02*
D03*
X0354500Y0116500D02*
D03*
X0355500D02*
D03*
X0354500Y0114500D02*
D03*
X0355500D02*
D03*
X0354500Y0112500D02*
D03*
X0387690Y0135820D02*
D03*
X0355500Y0112500D02*
D03*
X0382880Y0134280D02*
D03*
Y0135550D02*
D03*
X0385420Y0134280D02*
D03*
Y0135550D02*
D03*
X0390500Y0135820D02*
D03*
Y0137090D02*
D03*
X0381610Y0136820D02*
D03*
Y0138090D02*
D03*
X0384150D02*
D03*
X0381610Y0132010D02*
D03*
Y0133280D02*
D03*
X0384150Y0132010D02*
D03*
Y0133280D02*
D03*
X0387690Y0137090D02*
D03*
X0387960Y0138090D02*
D03*
X0385420Y0137090D02*
D03*
Y0138360D02*
D03*
X0382880Y0137090D02*
D03*
Y0138360D02*
D03*
X0384150Y0139630D02*
D03*
Y0140900D02*
D03*
X0389230Y0139360D02*
D03*
Y0140630D02*
D03*
X0387960Y0141900D02*
D03*
Y0143170D02*
D03*
X0382880Y0153330D02*
D03*
Y0154600D02*
D03*
X0389230Y0159680D02*
D03*
Y0160950D02*
D03*
X0382880Y0162220D02*
D03*
Y0160950D02*
D03*
X0385420D02*
D03*
Y0162220D02*
D03*
X0387960D02*
D03*
Y0163490D02*
D03*
X0386690Y0162220D02*
D03*
Y0163490D02*
D03*
Y0166030D02*
D03*
Y0167300D02*
D03*
X0385420Y0164760D02*
D03*
Y0166030D02*
D03*
X0384150Y0162490D02*
D03*
Y0163760D02*
D03*
X0382880Y0166030D02*
D03*
Y0164760D02*
D03*
X0381610Y0163490D02*
D03*
Y0164760D02*
D03*
X0391500Y0162220D02*
D03*
Y0163490D02*
D03*
X0390230Y0164760D02*
D03*
Y0166030D02*
D03*
X0387960Y0167300D02*
D03*
Y0168570D02*
D03*
X0384150Y0167300D02*
D03*
Y0168570D02*
D03*
X0385420Y0172380D02*
D03*
Y0173650D02*
D03*
X0387960Y0177460D02*
D03*
Y0178730D02*
D03*
X0390500Y0171380D02*
D03*
Y0172650D02*
D03*
X0389230Y0173920D02*
D03*
Y0175190D02*
D03*
X0356640Y0104500D02*
D03*
X0356070Y0105200D02*
D03*
X0355800Y0106200D02*
D03*
X0355530Y0107200D02*
D03*
X0389230Y0133280D02*
D03*
Y0134550D02*
D03*
X0355500Y0110500D02*
D03*
X0354500D02*
D03*
X0356000Y0174000D02*
D03*
X0355000D02*
D03*
X0356000Y0184000D02*
D03*
X0193000Y0215350D02*
D03*
X0204800Y0157000D02*
D03*
X0205500Y0157954D02*
D03*
X0313000Y0242000D02*
D03*
Y0243000D02*
D03*
Y0246000D02*
D03*
Y0247000D02*
D03*
Y0248000D02*
D03*
Y0249000D02*
D03*
Y0251000D02*
D03*
X0321000Y0239500D02*
D03*
X0322000D02*
D03*
X0323000D02*
D03*
X0324000D02*
D03*
X0313000Y0250000D02*
D03*
Y0244000D02*
D03*
Y0245000D02*
D03*
X0048500Y0117000D02*
D03*
X0048000Y0118500D02*
D03*
X0059000Y0117000D02*
D03*
X0058500Y0118500D02*
D03*
X0060000Y0116500D02*
D03*
X0059500Y0118000D02*
D03*
X0061000Y0117000D02*
D03*
X0060500Y0118500D02*
D03*
X0034500Y0127000D02*
D03*
X0033000Y0126500D02*
D03*
X0042500Y0117000D02*
D03*
X0042000Y0118500D02*
D03*
X0044500Y0117000D02*
D03*
X0044000Y0118500D02*
D03*
X0045500Y0116500D02*
D03*
X0045000Y0118000D02*
D03*
X0047000Y0117000D02*
D03*
X0046500Y0118500D02*
D03*
X0214500Y0154000D02*
D03*
X0204800Y0152500D02*
D03*
X0205500Y0151500D02*
D03*
X0120000Y0117000D02*
D03*
X0119500Y0118500D02*
D03*
X0121000Y0116500D02*
D03*
X0120500Y0118000D02*
D03*
X0122000Y0117000D02*
D03*
X0121500Y0118500D02*
D03*
X0123000Y0116500D02*
D03*
X0122500Y0118000D02*
D03*
X0125000Y0116500D02*
D03*
X0124500Y0118000D02*
D03*
X0126000Y0117000D02*
D03*
X0125500Y0118500D02*
D03*
X0127000Y0116500D02*
D03*
X0126500Y0118000D02*
D03*
X0123500Y0118500D02*
D03*
X0124000Y0117000D02*
D03*
X0140000D02*
D03*
X0139500Y0118500D02*
D03*
X0141000Y0116500D02*
D03*
X0140500Y0118000D02*
D03*
X0142000Y0117000D02*
D03*
X0141500Y0118500D02*
D03*
X0143000Y0116500D02*
D03*
X0142500Y0118000D02*
D03*
X0145000Y0116500D02*
D03*
X0144500Y0118000D02*
D03*
X0146000Y0117000D02*
D03*
X0145500Y0118500D02*
D03*
X0147000Y0116500D02*
D03*
X0146500Y0118000D02*
D03*
X0143500Y0118500D02*
D03*
X0144000Y0117000D02*
D03*
X0087500D02*
D03*
X0196000Y0107500D02*
D03*
X0195000Y0105000D02*
D03*
X0164500Y0117000D02*
D03*
X0164000Y0118500D02*
D03*
X0167000Y0118000D02*
D03*
X0167500Y0116500D02*
D03*
X0166000Y0118500D02*
D03*
X0166500Y0117000D02*
D03*
X0165000Y0118000D02*
D03*
X0165500Y0116500D02*
D03*
X0163000Y0118000D02*
D03*
X0163500Y0116500D02*
D03*
X0162000Y0118500D02*
D03*
X0162500Y0117000D02*
D03*
X0161000Y0118000D02*
D03*
X0161500Y0116500D02*
D03*
X0180000Y0118500D02*
D03*
X0180500Y0117000D02*
D03*
X0181500Y0116500D02*
D03*
X0182500Y0117000D02*
D03*
X0183500Y0116500D02*
D03*
X0187500D02*
D03*
X0186500Y0117000D02*
D03*
X0185500Y0116500D02*
D03*
X0184500Y0117000D02*
D03*
X0187000Y0118000D02*
D03*
X0186000Y0118500D02*
D03*
X0185000Y0118000D02*
D03*
X0184000Y0118500D02*
D03*
X0183000Y0118000D02*
D03*
X0182000Y0118500D02*
D03*
X0181000Y0118000D02*
D03*
X0067500Y0117000D02*
D03*
X0061500Y0118000D02*
D03*
X0062000Y0116500D02*
D03*
X0063000Y0117000D02*
D03*
X0062500Y0118500D02*
D03*
X0068500D02*
D03*
X0069000Y0117000D02*
D03*
X0065500Y0118000D02*
D03*
X0066000Y0116500D02*
D03*
X0064500Y0118500D02*
D03*
X0065000Y0117000D02*
D03*
X0063500Y0118000D02*
D03*
X0064000Y0116500D02*
D03*
X0189500Y0080830D02*
D03*
X0189000Y0082000D02*
D03*
X0086000Y0116500D02*
D03*
X0078500Y0118500D02*
D03*
X0079500Y0118000D02*
D03*
X0080500Y0118500D02*
D03*
X0081500Y0118000D02*
D03*
X0082500Y0118500D02*
D03*
X0083500Y0118000D02*
D03*
X0085500D02*
D03*
X0084500Y0118500D02*
D03*
X0079000Y0117000D02*
D03*
X0080000Y0116500D02*
D03*
X0081000Y0117000D02*
D03*
X0082000Y0116500D02*
D03*
X0083000Y0117000D02*
D03*
X0084000Y0116500D02*
D03*
X0085000Y0117000D02*
D03*
X0106500Y0116500D02*
D03*
X0101000Y0118500D02*
D03*
X0103000D02*
D03*
X0105000D02*
D03*
X0106000Y0118000D02*
D03*
X0104000D02*
D03*
X0102000D02*
D03*
X0099000Y0118500D02*
D03*
X0100000Y0118000D02*
D03*
X0099500Y0117000D02*
D03*
X0100500Y0116500D02*
D03*
X0101500Y0117000D02*
D03*
X0102500Y0116500D02*
D03*
X0103500Y0117000D02*
D03*
X0104500Y0116500D02*
D03*
X0105500Y0117000D02*
D03*
X0089000D02*
D03*
X0088500Y0118500D02*
D03*
X0090000Y0117000D02*
D03*
X0089500Y0118500D02*
D03*
X0108500Y0117000D02*
D03*
X0109500D02*
D03*
X0109000Y0118500D02*
D03*
X0129000Y0117000D02*
D03*
X0128500Y0118500D02*
D03*
X0229500Y0125500D02*
D03*
X0224000Y0126500D02*
D03*
X0238000Y0129000D02*
D03*
X0236500Y0128500D02*
D03*
X0241000Y0130000D02*
D03*
X0239500Y0129500D02*
D03*
X0247000Y0132000D02*
D03*
X0246000Y0130000D02*
D03*
X0195500Y0106500D02*
D03*
X0149500Y0118500D02*
D03*
X0150000Y0117000D02*
D03*
X0036000Y0180000D02*
D03*
X0035500Y0181500D02*
D03*
X0088000Y0198500D02*
D03*
X0087500Y0200000D02*
D03*
X0089000Y0198500D02*
D03*
X0088500Y0200000D02*
D03*
X0149000Y0198000D02*
D03*
X0148500Y0199500D02*
D03*
X0150000Y0198000D02*
D03*
X0149500Y0199500D02*
D03*
X0048500Y0198000D02*
D03*
X0048000Y0199500D02*
D03*
X0058500Y0198000D02*
D03*
X0058000Y0199500D02*
D03*
X0068000Y0198000D02*
D03*
X0067500Y0199500D02*
D03*
X0069000Y0198000D02*
D03*
X0068500Y0199500D02*
D03*
X0108500Y0198000D02*
D03*
X0108000Y0199500D02*
D03*
X0109500Y0198000D02*
D03*
X0109000Y0199500D02*
D03*
X0170500Y0198000D02*
D03*
X0170000Y0199500D02*
D03*
X0380340Y0177460D02*
D03*
Y0178730D02*
D03*
X0169000Y0204000D02*
D03*
X0169500Y0202500D02*
D03*
X0186575Y0087675D02*
D03*
X0185575Y0086675D02*
D03*
X0187075Y0085175D02*
D03*
X0186575Y0084175D02*
D03*
X0201100Y0073800D02*
D03*
X0200800Y0072500D02*
D03*
X0203400D02*
D03*
X0203700Y0073800D02*
D03*
X0201700Y0072500D02*
D03*
X0202400Y0073800D02*
D03*
X0205000D02*
D03*
X0204300Y0072500D02*
D03*
X0213800D02*
D03*
X0214500Y0073800D02*
D03*
X0211900D02*
D03*
X0213200Y0073800D02*
D03*
X0212900Y0072500D02*
D03*
X0210600Y0073800D02*
D03*
X0223300Y0072500D02*
D03*
X0224000Y0073800D02*
D03*
X0221400D02*
D03*
X0220700Y0072500D02*
D03*
X0222700Y0073800D02*
D03*
X0222400Y0072500D02*
D03*
X0219800D02*
D03*
X0220100Y0073800D02*
D03*
X0210300Y0072500D02*
D03*
X0211200D02*
D03*
X0194000Y0216000D02*
D03*
X0193200Y0218600D02*
D03*
X0194000Y0219900D02*
D03*
X0192500Y0216650D02*
D03*
X0194000Y0217950D02*
D03*
X0192500Y0217900D02*
D03*
Y0219250D02*
D03*
Y0220000D02*
D03*
G54D86*
X0389730Y0179500D02*
D03*
X0391000D02*
D03*
Y0178230D02*
D03*
Y0176960D02*
D03*
Y0175690D02*
D03*
Y0174420D02*
D03*
Y0173150D02*
D03*
Y0171880D02*
D03*
Y0170610D02*
D03*
Y0169340D02*
D03*
Y0168070D02*
D03*
Y0166800D02*
D03*
Y0165530D02*
D03*
Y0164260D02*
D03*
Y0162990D02*
D03*
Y0161720D02*
D03*
Y0160450D02*
D03*
Y0159180D02*
D03*
Y0157910D02*
D03*
Y0156640D02*
D03*
Y0155370D02*
D03*
Y0154100D02*
D03*
Y0152830D02*
D03*
Y0151560D02*
D03*
Y0150290D02*
D03*
Y0149020D02*
D03*
Y0147750D02*
D03*
Y0146480D02*
D03*
Y0145210D02*
D03*
Y0143940D02*
D03*
Y0142670D02*
D03*
Y0141400D02*
D03*
Y0140130D02*
D03*
Y0138860D02*
D03*
Y0137590D02*
D03*
Y0136320D02*
D03*
Y0135050D02*
D03*
Y0133780D02*
D03*
Y0132510D02*
D03*
Y0131240D02*
D03*
Y0129970D02*
D03*
X0389730Y0178230D02*
D03*
Y0176960D02*
D03*
Y0175690D02*
D03*
Y0174420D02*
D03*
Y0173150D02*
D03*
Y0171880D02*
D03*
Y0170610D02*
D03*
Y0169340D02*
D03*
Y0168070D02*
D03*
Y0166800D02*
D03*
Y0165530D02*
D03*
Y0164260D02*
D03*
Y0162990D02*
D03*
Y0161720D02*
D03*
Y0160450D02*
D03*
Y0159180D02*
D03*
Y0157910D02*
D03*
Y0156640D02*
D03*
Y0155370D02*
D03*
Y0154100D02*
D03*
Y0152830D02*
D03*
Y0151560D02*
D03*
Y0150290D02*
D03*
Y0149020D02*
D03*
Y0147750D02*
D03*
Y0146480D02*
D03*
Y0145210D02*
D03*
Y0143940D02*
D03*
Y0142670D02*
D03*
Y0141400D02*
D03*
Y0140130D02*
D03*
Y0138860D02*
D03*
Y0137590D02*
D03*
Y0136320D02*
D03*
Y0135050D02*
D03*
Y0133780D02*
D03*
Y0132510D02*
D03*
Y0131240D02*
D03*
Y0129970D02*
D03*
X0388460Y0179500D02*
D03*
Y0178230D02*
D03*
Y0176960D02*
D03*
Y0175690D02*
D03*
Y0174420D02*
D03*
Y0173150D02*
D03*
Y0171880D02*
D03*
Y0170610D02*
D03*
Y0169340D02*
D03*
Y0168070D02*
D03*
Y0166800D02*
D03*
Y0165530D02*
D03*
Y0164260D02*
D03*
Y0162990D02*
D03*
Y0161720D02*
D03*
Y0160450D02*
D03*
Y0159180D02*
D03*
Y0157910D02*
D03*
Y0156640D02*
D03*
Y0155370D02*
D03*
Y0154100D02*
D03*
Y0152830D02*
D03*
Y0151560D02*
D03*
Y0150290D02*
D03*
Y0149020D02*
D03*
Y0147750D02*
D03*
Y0146480D02*
D03*
Y0145210D02*
D03*
Y0143940D02*
D03*
Y0142670D02*
D03*
Y0141400D02*
D03*
Y0140130D02*
D03*
Y0138860D02*
D03*
Y0137590D02*
D03*
Y0136320D02*
D03*
Y0135050D02*
D03*
Y0133780D02*
D03*
Y0132510D02*
D03*
Y0131240D02*
D03*
Y0129970D02*
D03*
X0387190Y0179500D02*
D03*
Y0178230D02*
D03*
Y0176960D02*
D03*
Y0175690D02*
D03*
Y0174420D02*
D03*
Y0173150D02*
D03*
Y0171880D02*
D03*
Y0170610D02*
D03*
Y0169340D02*
D03*
Y0168070D02*
D03*
Y0166800D02*
D03*
Y0165530D02*
D03*
Y0164260D02*
D03*
Y0162990D02*
D03*
Y0161720D02*
D03*
Y0160450D02*
D03*
Y0159180D02*
D03*
Y0157910D02*
D03*
Y0156640D02*
D03*
Y0155370D02*
D03*
Y0154100D02*
D03*
Y0152830D02*
D03*
Y0151560D02*
D03*
Y0150290D02*
D03*
Y0149020D02*
D03*
Y0147750D02*
D03*
Y0146480D02*
D03*
Y0145210D02*
D03*
Y0143940D02*
D03*
Y0142670D02*
D03*
Y0141400D02*
D03*
Y0140130D02*
D03*
Y0138860D02*
D03*
Y0137590D02*
D03*
Y0136320D02*
D03*
Y0135050D02*
D03*
Y0133780D02*
D03*
Y0132510D02*
D03*
Y0131240D02*
D03*
Y0129970D02*
D03*
X0385920Y0179500D02*
D03*
Y0178230D02*
D03*
Y0176960D02*
D03*
Y0175690D02*
D03*
Y0174420D02*
D03*
Y0173150D02*
D03*
Y0171880D02*
D03*
Y0170610D02*
D03*
Y0169340D02*
D03*
Y0168070D02*
D03*
Y0166800D02*
D03*
Y0165530D02*
D03*
Y0164260D02*
D03*
Y0162990D02*
D03*
Y0161720D02*
D03*
Y0160450D02*
D03*
Y0159180D02*
D03*
Y0157910D02*
D03*
Y0156640D02*
D03*
Y0155370D02*
D03*
Y0154100D02*
D03*
Y0152830D02*
D03*
Y0151560D02*
D03*
Y0150290D02*
D03*
Y0149020D02*
D03*
Y0147750D02*
D03*
Y0146480D02*
D03*
Y0145210D02*
D03*
Y0143940D02*
D03*
Y0142670D02*
D03*
Y0141400D02*
D03*
Y0140130D02*
D03*
Y0138860D02*
D03*
Y0137590D02*
D03*
Y0136320D02*
D03*
Y0135050D02*
D03*
Y0133780D02*
D03*
Y0132510D02*
D03*
Y0131240D02*
D03*
Y0129970D02*
D03*
X0384650Y0179500D02*
D03*
Y0178230D02*
D03*
Y0176960D02*
D03*
Y0175690D02*
D03*
Y0174420D02*
D03*
Y0173150D02*
D03*
Y0171880D02*
D03*
Y0170610D02*
D03*
Y0169340D02*
D03*
Y0168070D02*
D03*
Y0166800D02*
D03*
Y0165530D02*
D03*
Y0164260D02*
D03*
Y0162990D02*
D03*
Y0161720D02*
D03*
Y0160450D02*
D03*
Y0159180D02*
D03*
Y0157910D02*
D03*
Y0156640D02*
D03*
Y0155370D02*
D03*
Y0154100D02*
D03*
Y0152830D02*
D03*
Y0151560D02*
D03*
Y0150290D02*
D03*
Y0149020D02*
D03*
Y0147750D02*
D03*
Y0146480D02*
D03*
Y0145210D02*
D03*
Y0143940D02*
D03*
Y0142670D02*
D03*
Y0141400D02*
D03*
Y0140130D02*
D03*
Y0138860D02*
D03*
Y0137590D02*
D03*
Y0136320D02*
D03*
Y0135050D02*
D03*
Y0133780D02*
D03*
Y0132510D02*
D03*
Y0131240D02*
D03*
Y0129970D02*
D03*
X0383380Y0179500D02*
D03*
Y0178230D02*
D03*
Y0176960D02*
D03*
Y0175690D02*
D03*
Y0174420D02*
D03*
Y0173150D02*
D03*
Y0171880D02*
D03*
Y0170610D02*
D03*
Y0169340D02*
D03*
Y0168070D02*
D03*
Y0166800D02*
D03*
Y0165530D02*
D03*
Y0164260D02*
D03*
Y0162990D02*
D03*
Y0161720D02*
D03*
Y0160450D02*
D03*
Y0159180D02*
D03*
Y0157910D02*
D03*
Y0156640D02*
D03*
Y0155370D02*
D03*
Y0154100D02*
D03*
Y0152830D02*
D03*
Y0151560D02*
D03*
Y0150290D02*
D03*
Y0149020D02*
D03*
Y0147750D02*
D03*
Y0146480D02*
D03*
Y0145210D02*
D03*
Y0143940D02*
D03*
Y0142670D02*
D03*
Y0141400D02*
D03*
Y0140130D02*
D03*
Y0138860D02*
D03*
Y0137590D02*
D03*
Y0136320D02*
D03*
Y0135050D02*
D03*
Y0133780D02*
D03*
Y0132510D02*
D03*
Y0131240D02*
D03*
Y0129970D02*
D03*
X0382110Y0179500D02*
D03*
Y0178230D02*
D03*
Y0176960D02*
D03*
Y0175690D02*
D03*
Y0174420D02*
D03*
Y0173150D02*
D03*
Y0171880D02*
D03*
Y0170610D02*
D03*
Y0169340D02*
D03*
Y0168070D02*
D03*
Y0166800D02*
D03*
Y0165530D02*
D03*
Y0164260D02*
D03*
Y0162990D02*
D03*
Y0161720D02*
D03*
Y0160450D02*
D03*
Y0159180D02*
D03*
Y0157910D02*
D03*
Y0156640D02*
D03*
Y0155370D02*
D03*
Y0154100D02*
D03*
Y0152830D02*
D03*
Y0151560D02*
D03*
Y0150290D02*
D03*
Y0149020D02*
D03*
Y0147750D02*
D03*
Y0146480D02*
D03*
Y0145210D02*
D03*
Y0143940D02*
D03*
Y0142670D02*
D03*
Y0141400D02*
D03*
Y0140130D02*
D03*
Y0138860D02*
D03*
Y0137590D02*
D03*
Y0136320D02*
D03*
Y0135050D02*
D03*
Y0133780D02*
D03*
Y0132510D02*
D03*
Y0131240D02*
D03*
Y0129970D02*
D03*
X0380840Y0179500D02*
D03*
Y0178230D02*
D03*
Y0176960D02*
D03*
Y0175690D02*
D03*
Y0174420D02*
D03*
Y0173150D02*
D03*
Y0171880D02*
D03*
Y0170610D02*
D03*
Y0169340D02*
D03*
Y0168070D02*
D03*
Y0166800D02*
D03*
Y0165530D02*
D03*
Y0164260D02*
D03*
Y0162990D02*
D03*
Y0161720D02*
D03*
Y0160450D02*
D03*
Y0159180D02*
D03*
Y0157910D02*
D03*
Y0156640D02*
D03*
Y0155370D02*
D03*
Y0154100D02*
D03*
Y0152830D02*
D03*
Y0151560D02*
D03*
Y0150290D02*
D03*
Y0149020D02*
D03*
Y0147750D02*
D03*
Y0146480D02*
D03*
Y0145210D02*
D03*
Y0143940D02*
D03*
Y0142670D02*
D03*
Y0141400D02*
D03*
Y0140130D02*
D03*
Y0138860D02*
D03*
Y0137590D02*
D03*
Y0136320D02*
D03*
Y0135050D02*
D03*
Y0133780D02*
D03*
Y0132510D02*
D03*
Y0131240D02*
D03*
Y0129970D02*
D03*
X0379570Y0179500D02*
D03*
Y0178230D02*
D03*
Y0176960D02*
D03*
Y0175690D02*
D03*
Y0174420D02*
D03*
Y0173150D02*
D03*
Y0171880D02*
D03*
Y0170610D02*
D03*
Y0169340D02*
D03*
Y0168070D02*
D03*
Y0166800D02*
D03*
Y0165530D02*
D03*
Y0164260D02*
D03*
Y0162990D02*
D03*
Y0161720D02*
D03*
Y0160450D02*
D03*
Y0159180D02*
D03*
Y0157910D02*
D03*
Y0156640D02*
D03*
Y0155370D02*
D03*
Y0154100D02*
D03*
Y0152830D02*
D03*
Y0151560D02*
D03*
Y0150290D02*
D03*
Y0149020D02*
D03*
Y0147750D02*
D03*
Y0146480D02*
D03*
Y0145210D02*
D03*
Y0143940D02*
D03*
Y0142670D02*
D03*
Y0141400D02*
D03*
Y0140130D02*
D03*
Y0138860D02*
D03*
Y0137590D02*
D03*
Y0136320D02*
D03*
Y0135050D02*
D03*
Y0133780D02*
D03*
Y0132510D02*
D03*
Y0131240D02*
D03*
Y0129970D02*
D03*
X0385285Y0129335D02*
D03*
X0382745D02*
D03*
X0384015D02*
D03*
X0386555D02*
D03*
X0199000Y0217000D02*
D03*
X0207000Y0228550D02*
D03*
X0216500D02*
D03*
X0226000D02*
D03*
X0387825Y0131875D02*
D03*
X0386555Y0139495D02*
D03*
Y0134415D02*
D03*
X0193000Y0085000D02*
D03*
X0204000Y0081000D02*
D03*
X0213500D02*
D03*
X0223000D02*
D03*
G54D90*
X0311000Y0049800D02*
D03*
X0287000Y0067240D02*
D03*
X0301000D02*
D03*
X0287000Y0049740D02*
D03*
X0301000D02*
D03*
X0284000Y0060240D02*
D03*
X0339400Y0049540D02*
D03*
X0284000Y0079000D02*
D03*
X0298000Y0079240D02*
D03*
Y0061740D02*
D03*
X0318500Y0062300D02*
D03*
X0330000Y0051740D02*
D03*
X0289500Y0047708D02*
D03*
X0299000Y0045740D02*
D03*
X0285300D02*
D03*
X0289310Y0064942D02*
D03*
X0299500Y0063240D02*
D03*
X0285000Y0063240D02*
D03*
X0345500Y0076240D02*
D03*
X0360500D02*
D03*
X0345500Y0041240D02*
D03*
X0360500D02*
D03*
G54D92*
X0245000Y0199500D02*
D03*
X0246500Y0198500D02*
D03*
X0253000Y0127000D02*
D03*
X0273500D02*
D03*
X0294000D02*
D03*
X0303000Y0157000D02*
D03*
X0282500D02*
D03*
X0262000D02*
D03*
X0199000Y0246000D02*
D03*
Y0266500D02*
D03*
X0191000Y0246000D02*
D03*
Y0266500D02*
D03*
X0337500Y0241500D02*
D03*
Y0262000D02*
D03*
X0329500Y0241500D02*
D03*
Y0262000D02*
D03*
X0366500Y0240500D02*
D03*
Y0261000D02*
D03*
X0358500Y0240500D02*
D03*
Y0261000D02*
D03*
X0249000Y0258000D02*
D03*
Y0237500D02*
D03*
X0257000Y0258000D02*
D03*
Y0237500D02*
D03*
X0334000Y0100000D02*
D03*
X0313500D02*
D03*
X0334000Y0092000D02*
D03*
X0313500D02*
D03*
X0334000Y0130500D02*
D03*
X0313500D02*
D03*
X0334000Y0122500D02*
D03*
X0313500D02*
D03*
X0334000Y0159000D02*
D03*
X0313500D02*
D03*
X0334000Y0151000D02*
D03*
X0313500D02*
D03*
Y0180000D02*
D03*
X0334000D02*
D03*
X0313500Y0188000D02*
D03*
X0334000D02*
D03*
X0257000Y0176000D02*
D03*
X0277500D02*
D03*
X0319000Y0227000D02*
D03*
X0302500D02*
D03*
X0322500Y0245000D02*
D03*
X0255500Y0227000D02*
D03*
X0235000D02*
D03*
X0276000D02*
D03*
X0337500D02*
D03*
X0358000D02*
D03*
X0378500D02*
D03*
X0260500Y0087000D02*
D03*
X0240000D02*
D03*
X0281000D02*
D03*
X0301500D02*
D03*
X0322000D02*
D03*
X0342500D02*
D03*
X0363000D02*
D03*
X0383500D02*
D03*
X0060000Y0273000D02*
D03*
X0039500D02*
D03*
X0080500D02*
D03*
X0101000D02*
D03*
X0121500D02*
D03*
X0142000D02*
D03*
X0162500D02*
D03*
X0183000D02*
D03*
Y0043000D02*
D03*
X0162500D02*
D03*
X0142000D02*
D03*
X0121500D02*
D03*
X0101000D02*
D03*
X0080500D02*
D03*
X0039500D02*
D03*
X0060000D02*
D03*
X0324000Y0196000D02*
D03*
X0324000Y0192300D02*
D03*
Y0206300D02*
D03*
Y0199300D02*
D03*
X0324000Y0202500D02*
D03*
X0324000Y0173500D02*
D03*
X0324000Y0167000D02*
D03*
X0324000Y0144500D02*
D03*
X0324000Y0138000D02*
D03*
X0324000Y0177300D02*
D03*
Y0170300D02*
D03*
Y0163300D02*
D03*
Y0134300D02*
D03*
Y0141300D02*
D03*
Y0148300D02*
D03*
Y0119300D02*
D03*
Y0112300D02*
D03*
Y0105300D02*
D03*
X0324000Y0115500D02*
D03*
X0324000Y0109000D02*
D03*
X0232960Y0251500D02*
D03*
X0265000Y0203500D02*
D03*
X0263000D02*
D03*
X0319500Y0257000D02*
D03*
X0343500Y0257500D02*
D03*
X0354119Y0242796D02*
D03*
Y0259306D02*
D03*
X0350997Y0249580D02*
D03*
X0260000Y0203500D02*
D03*
X0258500Y0247200D02*
D03*
X0260000Y0249500D02*
D03*
X0273000Y0211500D02*
D03*
X0255000Y0203500D02*
D03*
X0331500Y0248776D02*
D03*
X0339500Y0254000D02*
D03*
X0327000Y0248920D02*
D03*
Y0254000D02*
D03*
X0257500Y0203500D02*
D03*
X0328000Y0250700D02*
D03*
X0245000Y0194000D02*
D03*
X0196000Y0238000D02*
D03*
Y0081000D02*
D03*
Y0222000D02*
D03*
G54D120*
X0338000Y0255500D02*
D03*
Y0253000D02*
D03*
G54D121*
X0274000Y0208300D02*
D03*
Y0210100D02*
D03*
X0348500Y0252000D02*
D03*
Y0253800D02*
D03*
X0350000Y0243200D02*
D03*
Y0245000D02*
D03*
X0372500Y0237200D02*
D03*
Y0239000D02*
D03*
X0370500Y0239000D02*
D03*
Y0237200D02*
D03*
X0335000Y0259000D02*
D03*
Y0260800D02*
D03*
X0347000Y0248700D02*
D03*
Y0250500D02*
D03*
Y0252000D02*
D03*
Y0253800D02*
D03*
X0321000Y0257000D02*
D03*
Y0258800D02*
D03*
X0343000Y0254000D02*
D03*
Y0252200D02*
D03*
X0345001Y0251200D02*
D03*
Y0253000D02*
D03*
X0216000Y0155151D02*
D03*
Y0156951D02*
D03*
X0263000Y0215800D02*
D03*
Y0214000D02*
D03*
G54D122*
X0253500Y0137000D02*
D03*
X0255300D02*
D03*
X0278500Y0204500D02*
D03*
X0276700D02*
D03*
X0291100Y0205000D02*
D03*
X0289300D02*
D03*
X0291100Y0209000D02*
D03*
X0289300D02*
D03*
X0291100Y0207000D02*
D03*
X0289300D02*
D03*
X0291100Y0211000D02*
D03*
X0289300D02*
D03*
X0350300Y0260000D02*
D03*
X0348500D02*
D03*
X0346200Y0257500D02*
D03*
X0348000D02*
D03*
X0346000Y0245000D02*
D03*
X0347800D02*
D03*
G54D134*
X0194000Y0151500D02*
D03*
X0283000Y0243000D02*
D03*
Y0093000D02*
D03*
G54D135*
X0194000Y0156580D02*
D03*
X0268520Y0157900D02*
D03*
X0100920Y0036000D02*
D03*
X0101920Y0276500D02*
D03*
X0283000Y0248080D02*
D03*
Y0098080D02*
D03*
G54D136*
X0273600Y0157900D02*
D03*
X0106000Y0036000D02*
D03*
X0107000Y0276500D02*
D03*
G54D137*
X0261900Y0190100D02*
D03*
Y0109900D02*
D03*
X0388100D02*
D03*
Y0190100D02*
D03*
G54D138*
X0139300Y0028750D02*
D03*
X0118980D02*
D03*
X0098660D02*
D03*
X0078340D02*
D03*
X0058020D02*
D03*
X0159620D02*
D03*
X0179940D02*
D03*
X0200260D02*
D03*
X0037700D02*
D03*
X0322180D02*
D03*
X0301860D02*
D03*
X0281540D02*
D03*
X0220580D02*
D03*
X0240900D02*
D03*
X0261220D02*
D03*
X0342500D02*
D03*
X0362820D02*
D03*
X0383140D02*
D03*
X0159620Y0162100D02*
D03*
X0139300D02*
D03*
X0118980D02*
D03*
X0098660D02*
D03*
X0078340Y0151250D02*
D03*
Y0162100D02*
D03*
X0058020Y0151250D02*
D03*
X0037700D02*
D03*
Y0162100D02*
D03*
X0058020D02*
D03*
X0383140Y0284600D02*
D03*
X0342500D02*
D03*
X0362820D02*
D03*
X0261220D02*
D03*
X0220580D02*
D03*
X0240900D02*
D03*
X0281540D02*
D03*
X0301860D02*
D03*
X0037700D02*
D03*
X0200260D02*
D03*
X0179940D02*
D03*
X0159620D02*
D03*
X0118980D02*
D03*
X0098660D02*
D03*
X0078340D02*
D03*
X0058020D02*
D03*
X0139300D02*
D03*
X0098660Y0151250D02*
D03*
X0118980D02*
D03*
X0139300D02*
D03*
X0159620D02*
D03*
G54D139*
X0322180Y0284600D02*
D03*
G54D140*
X0216500Y0204660D02*
D03*
X0214500Y0204700D02*
D03*
X0216500Y0202620D02*
D03*
X0214500Y0202660D02*
D03*
X0216500Y0200580D02*
D03*
X0214500Y0200620D02*
D03*
X0216500Y0198540D02*
D03*
X0214500Y0198580D02*
D03*
X0216500Y0196500D02*
D03*
X0214500Y0196540D02*
D03*
X0216500Y0194500D02*
D03*
X0214500Y0194540D02*
D03*
X0216500Y0192500D02*
D03*
X0324000Y0223000D02*
D03*
X0321000D02*
D03*
X0322500Y0221000D02*
D03*
X0325500D02*
D03*
X0330000Y0223000D02*
D03*
X0327000D02*
D03*
X0328500Y0221000D02*
D03*
G54D141*
X0214500Y0192500D02*
D03*
G54D142*
X0246000Y0200500D02*
D03*
X0248000Y0199000D02*
D03*
X0217520Y0097810D02*
D03*
X0248000D02*
D03*
X0245460D02*
D03*
X0242920D02*
D03*
X0240380D02*
D03*
X0237840D02*
D03*
X0235300D02*
D03*
X0232760D02*
D03*
X0230220D02*
D03*
X0227680D02*
D03*
X0225140D02*
D03*
X0222600D02*
D03*
X0220060D02*
D03*
X0218790Y0099715D02*
D03*
X0221330D02*
D03*
X0223870D02*
D03*
X0226410D02*
D03*
X0228950D02*
D03*
X0231490D02*
D03*
X0234030D02*
D03*
X0236570D02*
D03*
X0239110D02*
D03*
X0241650D02*
D03*
X0244190D02*
D03*
X0246730D02*
D03*
X0216250D02*
D03*
Y0095905D02*
D03*
X0246730D02*
D03*
X0244190D02*
D03*
X0241650D02*
D03*
X0239110D02*
D03*
X0236570D02*
D03*
X0234030D02*
D03*
X0231490D02*
D03*
X0228950D02*
D03*
X0226410D02*
D03*
X0223870D02*
D03*
X0221330D02*
D03*
X0218790D02*
D03*
X0220060Y0094000D02*
D03*
X0222600D02*
D03*
X0225140D02*
D03*
X0227680D02*
D03*
X0230220D02*
D03*
X0232760D02*
D03*
X0235300D02*
D03*
X0237840D02*
D03*
X0240380D02*
D03*
X0242920D02*
D03*
X0245460D02*
D03*
X0248000D02*
D03*
X0217520D02*
D03*
X0218040Y0120500D02*
D03*
X0248520D02*
D03*
X0245980D02*
D03*
X0243440D02*
D03*
X0240900D02*
D03*
X0238360D02*
D03*
X0235820D02*
D03*
X0233280D02*
D03*
X0230740D02*
D03*
X0228200D02*
D03*
X0225660D02*
D03*
X0223120D02*
D03*
X0220580D02*
D03*
X0219310Y0122405D02*
D03*
X0221850D02*
D03*
X0224390D02*
D03*
X0226930D02*
D03*
X0229470D02*
D03*
X0232010D02*
D03*
X0234550D02*
D03*
X0237090D02*
D03*
X0239630D02*
D03*
X0242170D02*
D03*
X0244710D02*
D03*
X0247250D02*
D03*
X0216770D02*
D03*
Y0118595D02*
D03*
X0247250D02*
D03*
X0244710D02*
D03*
X0242170D02*
D03*
X0239630D02*
D03*
X0237090D02*
D03*
X0234550D02*
D03*
X0232010D02*
D03*
X0229470D02*
D03*
X0226930D02*
D03*
X0224390D02*
D03*
X0221850D02*
D03*
X0219310D02*
D03*
X0220580Y0116690D02*
D03*
X0223120D02*
D03*
X0225660D02*
D03*
X0228200D02*
D03*
X0230740D02*
D03*
X0233280D02*
D03*
X0235820D02*
D03*
X0238360D02*
D03*
X0240900D02*
D03*
X0243440D02*
D03*
X0245980D02*
D03*
X0248520D02*
D03*
X0218040D02*
D03*
X0178217Y0239480D02*
D03*
Y0209000D02*
D03*
Y0211540D02*
D03*
Y0214080D02*
D03*
Y0216620D02*
D03*
Y0219160D02*
D03*
Y0221700D02*
D03*
Y0224240D02*
D03*
Y0226780D02*
D03*
Y0229320D02*
D03*
Y0231860D02*
D03*
Y0234400D02*
D03*
Y0236940D02*
D03*
X0176312Y0238210D02*
D03*
Y0235670D02*
D03*
Y0233130D02*
D03*
Y0230590D02*
D03*
Y0228050D02*
D03*
Y0225510D02*
D03*
Y0222970D02*
D03*
Y0220430D02*
D03*
Y0217890D02*
D03*
Y0215350D02*
D03*
Y0212810D02*
D03*
Y0210270D02*
D03*
Y0240750D02*
D03*
X0172503D02*
D03*
Y0210270D02*
D03*
Y0212810D02*
D03*
Y0215350D02*
D03*
Y0217890D02*
D03*
Y0220430D02*
D03*
Y0222970D02*
D03*
Y0225510D02*
D03*
Y0228050D02*
D03*
Y0230590D02*
D03*
Y0233130D02*
D03*
Y0235670D02*
D03*
Y0238210D02*
D03*
X0174408Y0236940D02*
D03*
Y0234400D02*
D03*
Y0231860D02*
D03*
Y0229320D02*
D03*
Y0226780D02*
D03*
Y0224240D02*
D03*
Y0221700D02*
D03*
Y0219160D02*
D03*
Y0216620D02*
D03*
Y0214080D02*
D03*
Y0211540D02*
D03*
Y0209000D02*
D03*
Y0239480D02*
D03*
X0157898D02*
D03*
Y0209000D02*
D03*
Y0211540D02*
D03*
Y0214080D02*
D03*
Y0216620D02*
D03*
Y0219160D02*
D03*
Y0221700D02*
D03*
Y0224240D02*
D03*
Y0226780D02*
D03*
Y0229320D02*
D03*
Y0231860D02*
D03*
Y0234400D02*
D03*
Y0236940D02*
D03*
X0155992Y0238210D02*
D03*
Y0235670D02*
D03*
Y0233130D02*
D03*
Y0230590D02*
D03*
Y0228050D02*
D03*
Y0225510D02*
D03*
Y0222970D02*
D03*
Y0220430D02*
D03*
Y0217890D02*
D03*
Y0215350D02*
D03*
Y0212810D02*
D03*
Y0210270D02*
D03*
Y0240750D02*
D03*
X0152182D02*
D03*
Y0210270D02*
D03*
Y0212810D02*
D03*
Y0215350D02*
D03*
Y0217890D02*
D03*
Y0220430D02*
D03*
Y0222970D02*
D03*
Y0225510D02*
D03*
Y0228050D02*
D03*
Y0230590D02*
D03*
Y0233130D02*
D03*
Y0235670D02*
D03*
Y0238210D02*
D03*
X0154087Y0236940D02*
D03*
Y0234400D02*
D03*
Y0231860D02*
D03*
Y0229320D02*
D03*
Y0226780D02*
D03*
Y0224240D02*
D03*
Y0221700D02*
D03*
Y0219160D02*
D03*
Y0216620D02*
D03*
Y0214080D02*
D03*
Y0211540D02*
D03*
Y0209000D02*
D03*
Y0239480D02*
D03*
X0137577D02*
D03*
Y0209000D02*
D03*
Y0211540D02*
D03*
Y0214080D02*
D03*
Y0216620D02*
D03*
Y0219160D02*
D03*
Y0221700D02*
D03*
Y0224240D02*
D03*
Y0226780D02*
D03*
Y0229320D02*
D03*
Y0231860D02*
D03*
Y0234400D02*
D03*
Y0236940D02*
D03*
X0135673Y0238210D02*
D03*
Y0235670D02*
D03*
Y0233130D02*
D03*
Y0230590D02*
D03*
Y0228050D02*
D03*
Y0225510D02*
D03*
Y0222970D02*
D03*
Y0220430D02*
D03*
Y0217890D02*
D03*
Y0215350D02*
D03*
Y0212810D02*
D03*
Y0210270D02*
D03*
Y0240750D02*
D03*
X0131863D02*
D03*
Y0210270D02*
D03*
Y0212810D02*
D03*
Y0215350D02*
D03*
Y0217890D02*
D03*
Y0220430D02*
D03*
Y0222970D02*
D03*
Y0225510D02*
D03*
Y0228050D02*
D03*
Y0230590D02*
D03*
Y0233130D02*
D03*
Y0235670D02*
D03*
Y0238210D02*
D03*
X0133768Y0236940D02*
D03*
Y0234400D02*
D03*
Y0231860D02*
D03*
Y0229320D02*
D03*
Y0226780D02*
D03*
Y0224240D02*
D03*
Y0221700D02*
D03*
Y0219160D02*
D03*
Y0216620D02*
D03*
Y0214080D02*
D03*
Y0211540D02*
D03*
Y0209000D02*
D03*
Y0239480D02*
D03*
X0117257D02*
D03*
Y0209000D02*
D03*
Y0211540D02*
D03*
Y0214080D02*
D03*
Y0216620D02*
D03*
Y0219160D02*
D03*
Y0221700D02*
D03*
Y0224240D02*
D03*
Y0226780D02*
D03*
Y0229320D02*
D03*
Y0231860D02*
D03*
Y0234400D02*
D03*
Y0236940D02*
D03*
X0115353Y0238210D02*
D03*
Y0235670D02*
D03*
Y0233130D02*
D03*
Y0230590D02*
D03*
Y0228050D02*
D03*
Y0225510D02*
D03*
Y0222970D02*
D03*
Y0220430D02*
D03*
Y0217890D02*
D03*
Y0215350D02*
D03*
Y0212810D02*
D03*
Y0210270D02*
D03*
Y0240750D02*
D03*
X0111543D02*
D03*
Y0210270D02*
D03*
Y0212810D02*
D03*
Y0215350D02*
D03*
Y0217890D02*
D03*
Y0220430D02*
D03*
Y0222970D02*
D03*
Y0225510D02*
D03*
Y0228050D02*
D03*
Y0230590D02*
D03*
Y0233130D02*
D03*
Y0235670D02*
D03*
Y0238210D02*
D03*
X0113448Y0236940D02*
D03*
Y0234400D02*
D03*
Y0231860D02*
D03*
Y0229320D02*
D03*
Y0226780D02*
D03*
Y0224240D02*
D03*
Y0221700D02*
D03*
Y0219160D02*
D03*
Y0216620D02*
D03*
Y0214080D02*
D03*
Y0211540D02*
D03*
Y0209000D02*
D03*
Y0239480D02*
D03*
X0096938D02*
D03*
Y0209000D02*
D03*
Y0211540D02*
D03*
Y0214080D02*
D03*
Y0216620D02*
D03*
Y0219160D02*
D03*
Y0221700D02*
D03*
Y0224240D02*
D03*
Y0226780D02*
D03*
Y0229320D02*
D03*
Y0231860D02*
D03*
Y0234400D02*
D03*
Y0236940D02*
D03*
X0095033Y0238210D02*
D03*
Y0235670D02*
D03*
Y0233130D02*
D03*
Y0230590D02*
D03*
Y0228050D02*
D03*
Y0225510D02*
D03*
Y0222970D02*
D03*
Y0220430D02*
D03*
Y0217890D02*
D03*
Y0215350D02*
D03*
Y0212810D02*
D03*
Y0210270D02*
D03*
Y0240750D02*
D03*
X0091223D02*
D03*
Y0210270D02*
D03*
Y0212810D02*
D03*
Y0215350D02*
D03*
Y0217890D02*
D03*
Y0220430D02*
D03*
Y0222970D02*
D03*
Y0225510D02*
D03*
Y0228050D02*
D03*
Y0230590D02*
D03*
Y0233130D02*
D03*
Y0235670D02*
D03*
Y0238210D02*
D03*
X0093128Y0236940D02*
D03*
Y0234400D02*
D03*
Y0231860D02*
D03*
Y0229320D02*
D03*
Y0226780D02*
D03*
Y0224240D02*
D03*
Y0221700D02*
D03*
Y0219160D02*
D03*
Y0216620D02*
D03*
Y0214080D02*
D03*
Y0211540D02*
D03*
Y0209000D02*
D03*
Y0239480D02*
D03*
X0076618D02*
D03*
Y0209000D02*
D03*
Y0211540D02*
D03*
Y0214080D02*
D03*
Y0216620D02*
D03*
Y0219160D02*
D03*
Y0221700D02*
D03*
Y0224240D02*
D03*
Y0226780D02*
D03*
Y0229320D02*
D03*
Y0231860D02*
D03*
Y0234400D02*
D03*
Y0236940D02*
D03*
X0074713Y0238210D02*
D03*
Y0235670D02*
D03*
Y0233130D02*
D03*
Y0230590D02*
D03*
Y0228050D02*
D03*
Y0225510D02*
D03*
Y0222970D02*
D03*
Y0220430D02*
D03*
Y0217890D02*
D03*
Y0215350D02*
D03*
Y0212810D02*
D03*
Y0210270D02*
D03*
Y0240750D02*
D03*
X0070902D02*
D03*
Y0210270D02*
D03*
Y0212810D02*
D03*
Y0215350D02*
D03*
Y0217890D02*
D03*
Y0220430D02*
D03*
Y0222970D02*
D03*
Y0225510D02*
D03*
Y0228050D02*
D03*
Y0230590D02*
D03*
Y0233130D02*
D03*
Y0235670D02*
D03*
Y0238210D02*
D03*
X0072808Y0236940D02*
D03*
Y0234400D02*
D03*
Y0231860D02*
D03*
Y0229320D02*
D03*
Y0226780D02*
D03*
Y0224240D02*
D03*
Y0221700D02*
D03*
Y0219160D02*
D03*
Y0216620D02*
D03*
Y0214080D02*
D03*
Y0211540D02*
D03*
Y0209000D02*
D03*
Y0239480D02*
D03*
X0056298D02*
D03*
Y0209000D02*
D03*
Y0211540D02*
D03*
Y0214080D02*
D03*
Y0216620D02*
D03*
Y0219160D02*
D03*
Y0221700D02*
D03*
Y0224240D02*
D03*
Y0226780D02*
D03*
Y0229320D02*
D03*
Y0231860D02*
D03*
Y0234400D02*
D03*
Y0236940D02*
D03*
X0054393Y0238210D02*
D03*
Y0235670D02*
D03*
Y0233130D02*
D03*
Y0230590D02*
D03*
Y0228050D02*
D03*
Y0225510D02*
D03*
Y0222970D02*
D03*
Y0220430D02*
D03*
Y0217890D02*
D03*
Y0215350D02*
D03*
Y0212810D02*
D03*
Y0210270D02*
D03*
Y0240750D02*
D03*
X0050583D02*
D03*
Y0210270D02*
D03*
Y0212810D02*
D03*
Y0215350D02*
D03*
Y0217890D02*
D03*
Y0220430D02*
D03*
Y0222970D02*
D03*
Y0225510D02*
D03*
Y0228050D02*
D03*
Y0230590D02*
D03*
Y0233130D02*
D03*
Y0235670D02*
D03*
Y0238210D02*
D03*
X0052487Y0236940D02*
D03*
Y0234400D02*
D03*
Y0231860D02*
D03*
Y0229320D02*
D03*
Y0226780D02*
D03*
Y0224240D02*
D03*
Y0221700D02*
D03*
Y0219160D02*
D03*
Y0216620D02*
D03*
Y0214080D02*
D03*
Y0211540D02*
D03*
Y0209000D02*
D03*
Y0239480D02*
D03*
X0035978D02*
D03*
Y0209000D02*
D03*
Y0211540D02*
D03*
Y0214080D02*
D03*
Y0216620D02*
D03*
Y0219160D02*
D03*
Y0221700D02*
D03*
Y0224240D02*
D03*
Y0226780D02*
D03*
Y0229320D02*
D03*
Y0231860D02*
D03*
Y0234400D02*
D03*
Y0236940D02*
D03*
X0034072Y0238210D02*
D03*
Y0235670D02*
D03*
Y0233130D02*
D03*
Y0230590D02*
D03*
Y0228050D02*
D03*
Y0225510D02*
D03*
Y0222970D02*
D03*
Y0220430D02*
D03*
Y0217890D02*
D03*
Y0215350D02*
D03*
Y0212810D02*
D03*
Y0210270D02*
D03*
Y0240750D02*
D03*
X0030263D02*
D03*
Y0210270D02*
D03*
Y0212810D02*
D03*
Y0215350D02*
D03*
Y0217890D02*
D03*
Y0220430D02*
D03*
Y0222970D02*
D03*
Y0225510D02*
D03*
Y0228050D02*
D03*
Y0230590D02*
D03*
Y0233130D02*
D03*
Y0235670D02*
D03*
Y0238210D02*
D03*
X0032167Y0236940D02*
D03*
Y0234400D02*
D03*
Y0231860D02*
D03*
Y0229320D02*
D03*
Y0226780D02*
D03*
Y0224240D02*
D03*
Y0221700D02*
D03*
Y0219160D02*
D03*
Y0216620D02*
D03*
Y0214080D02*
D03*
Y0211540D02*
D03*
Y0209000D02*
D03*
Y0239480D02*
D03*
X0178217Y0106230D02*
D03*
Y0075750D02*
D03*
Y0078290D02*
D03*
Y0080830D02*
D03*
Y0083370D02*
D03*
Y0085910D02*
D03*
Y0088450D02*
D03*
Y0090990D02*
D03*
Y0093530D02*
D03*
Y0096070D02*
D03*
Y0098610D02*
D03*
Y0101150D02*
D03*
Y0103690D02*
D03*
X0176312Y0104960D02*
D03*
Y0102420D02*
D03*
Y0099880D02*
D03*
Y0097340D02*
D03*
Y0094800D02*
D03*
Y0092260D02*
D03*
Y0089720D02*
D03*
Y0087180D02*
D03*
Y0084640D02*
D03*
Y0082100D02*
D03*
Y0079560D02*
D03*
Y0077020D02*
D03*
Y0107500D02*
D03*
X0172503D02*
D03*
Y0077020D02*
D03*
Y0079560D02*
D03*
Y0082100D02*
D03*
Y0084640D02*
D03*
Y0087180D02*
D03*
Y0089720D02*
D03*
Y0092260D02*
D03*
Y0094800D02*
D03*
Y0097340D02*
D03*
Y0099880D02*
D03*
Y0102420D02*
D03*
Y0104960D02*
D03*
X0174408Y0103690D02*
D03*
Y0101150D02*
D03*
Y0098610D02*
D03*
Y0096070D02*
D03*
Y0093530D02*
D03*
Y0090990D02*
D03*
Y0088450D02*
D03*
Y0085910D02*
D03*
Y0083370D02*
D03*
Y0080830D02*
D03*
Y0078290D02*
D03*
Y0075750D02*
D03*
Y0106230D02*
D03*
X0157898D02*
D03*
Y0075750D02*
D03*
Y0078290D02*
D03*
Y0080830D02*
D03*
Y0083370D02*
D03*
Y0085910D02*
D03*
Y0088450D02*
D03*
Y0090990D02*
D03*
Y0093530D02*
D03*
Y0096070D02*
D03*
Y0098610D02*
D03*
Y0101150D02*
D03*
Y0103690D02*
D03*
X0155992Y0104960D02*
D03*
Y0102420D02*
D03*
Y0099880D02*
D03*
Y0097340D02*
D03*
Y0094800D02*
D03*
Y0092260D02*
D03*
Y0089720D02*
D03*
Y0087180D02*
D03*
Y0084640D02*
D03*
Y0082100D02*
D03*
Y0079560D02*
D03*
Y0077020D02*
D03*
Y0107500D02*
D03*
X0152182D02*
D03*
Y0077020D02*
D03*
Y0079560D02*
D03*
Y0082100D02*
D03*
Y0084640D02*
D03*
Y0087180D02*
D03*
Y0089720D02*
D03*
Y0092260D02*
D03*
Y0094800D02*
D03*
Y0097340D02*
D03*
Y0099880D02*
D03*
Y0102420D02*
D03*
Y0104960D02*
D03*
X0154087Y0103690D02*
D03*
Y0101150D02*
D03*
Y0098610D02*
D03*
Y0096070D02*
D03*
Y0093530D02*
D03*
Y0090990D02*
D03*
Y0088450D02*
D03*
Y0085910D02*
D03*
Y0083370D02*
D03*
Y0080830D02*
D03*
Y0078290D02*
D03*
Y0075750D02*
D03*
Y0106230D02*
D03*
X0137577D02*
D03*
Y0075750D02*
D03*
Y0078290D02*
D03*
Y0080830D02*
D03*
Y0083370D02*
D03*
Y0085910D02*
D03*
Y0088450D02*
D03*
Y0090990D02*
D03*
Y0093530D02*
D03*
Y0096070D02*
D03*
Y0098610D02*
D03*
Y0101150D02*
D03*
Y0103690D02*
D03*
X0135673Y0104960D02*
D03*
Y0102420D02*
D03*
Y0099880D02*
D03*
Y0097340D02*
D03*
Y0094800D02*
D03*
Y0092260D02*
D03*
Y0089720D02*
D03*
Y0087180D02*
D03*
Y0084640D02*
D03*
Y0082100D02*
D03*
Y0079560D02*
D03*
Y0077020D02*
D03*
Y0107500D02*
D03*
X0131863D02*
D03*
Y0077020D02*
D03*
Y0079560D02*
D03*
Y0082100D02*
D03*
Y0084640D02*
D03*
Y0087180D02*
D03*
Y0089720D02*
D03*
Y0092260D02*
D03*
Y0094800D02*
D03*
Y0097340D02*
D03*
Y0099880D02*
D03*
Y0102420D02*
D03*
Y0104960D02*
D03*
X0133768Y0103690D02*
D03*
Y0101150D02*
D03*
Y0098610D02*
D03*
Y0096070D02*
D03*
Y0093530D02*
D03*
Y0090990D02*
D03*
Y0088450D02*
D03*
Y0085910D02*
D03*
Y0083370D02*
D03*
Y0080830D02*
D03*
Y0078290D02*
D03*
Y0075750D02*
D03*
Y0106230D02*
D03*
X0117257D02*
D03*
Y0075750D02*
D03*
Y0078290D02*
D03*
Y0080830D02*
D03*
Y0083370D02*
D03*
Y0085910D02*
D03*
Y0088450D02*
D03*
Y0090990D02*
D03*
Y0093530D02*
D03*
Y0096070D02*
D03*
Y0098610D02*
D03*
Y0101150D02*
D03*
Y0103690D02*
D03*
X0115353Y0104960D02*
D03*
Y0102420D02*
D03*
Y0099880D02*
D03*
Y0097340D02*
D03*
Y0094800D02*
D03*
Y0092260D02*
D03*
Y0089720D02*
D03*
Y0087180D02*
D03*
Y0084640D02*
D03*
Y0082100D02*
D03*
Y0079560D02*
D03*
Y0077020D02*
D03*
Y0107500D02*
D03*
X0111543D02*
D03*
Y0077020D02*
D03*
Y0079560D02*
D03*
Y0082100D02*
D03*
Y0084640D02*
D03*
Y0087180D02*
D03*
Y0089720D02*
D03*
Y0092260D02*
D03*
Y0094800D02*
D03*
Y0097340D02*
D03*
Y0099880D02*
D03*
Y0102420D02*
D03*
Y0104960D02*
D03*
X0113448Y0103690D02*
D03*
Y0101150D02*
D03*
Y0098610D02*
D03*
Y0096070D02*
D03*
Y0093530D02*
D03*
Y0090990D02*
D03*
Y0088450D02*
D03*
Y0085910D02*
D03*
Y0083370D02*
D03*
Y0080830D02*
D03*
Y0078290D02*
D03*
Y0075750D02*
D03*
Y0106230D02*
D03*
X0096938D02*
D03*
Y0075750D02*
D03*
Y0078290D02*
D03*
Y0080830D02*
D03*
Y0083370D02*
D03*
Y0085910D02*
D03*
Y0088450D02*
D03*
Y0090990D02*
D03*
Y0093530D02*
D03*
Y0096070D02*
D03*
Y0098610D02*
D03*
Y0101150D02*
D03*
Y0103690D02*
D03*
X0095033Y0104960D02*
D03*
Y0102420D02*
D03*
Y0099880D02*
D03*
Y0097340D02*
D03*
Y0094800D02*
D03*
Y0092260D02*
D03*
Y0089720D02*
D03*
Y0087180D02*
D03*
Y0084640D02*
D03*
Y0082100D02*
D03*
Y0079560D02*
D03*
Y0077020D02*
D03*
Y0107500D02*
D03*
X0091223D02*
D03*
Y0077020D02*
D03*
Y0079560D02*
D03*
Y0082100D02*
D03*
Y0084640D02*
D03*
Y0087180D02*
D03*
Y0089720D02*
D03*
Y0092260D02*
D03*
Y0094800D02*
D03*
Y0097340D02*
D03*
Y0099880D02*
D03*
Y0102420D02*
D03*
Y0104960D02*
D03*
X0093128Y0103690D02*
D03*
Y0101150D02*
D03*
Y0098610D02*
D03*
Y0096070D02*
D03*
Y0093530D02*
D03*
Y0090990D02*
D03*
Y0088450D02*
D03*
Y0085910D02*
D03*
Y0083370D02*
D03*
Y0080830D02*
D03*
Y0078290D02*
D03*
Y0075750D02*
D03*
Y0106230D02*
D03*
X0076618D02*
D03*
Y0075750D02*
D03*
Y0078290D02*
D03*
Y0080830D02*
D03*
Y0083370D02*
D03*
Y0085910D02*
D03*
Y0088450D02*
D03*
Y0090990D02*
D03*
Y0093530D02*
D03*
Y0096070D02*
D03*
Y0098610D02*
D03*
Y0101150D02*
D03*
Y0103690D02*
D03*
X0074713Y0104960D02*
D03*
Y0102420D02*
D03*
Y0099880D02*
D03*
Y0097340D02*
D03*
Y0094800D02*
D03*
Y0092260D02*
D03*
Y0089720D02*
D03*
Y0087180D02*
D03*
Y0084640D02*
D03*
Y0082100D02*
D03*
Y0079560D02*
D03*
Y0077020D02*
D03*
Y0107500D02*
D03*
X0070902D02*
D03*
Y0077020D02*
D03*
Y0079560D02*
D03*
Y0082100D02*
D03*
Y0084640D02*
D03*
Y0087180D02*
D03*
Y0089720D02*
D03*
Y0092260D02*
D03*
Y0094800D02*
D03*
Y0097340D02*
D03*
Y0099880D02*
D03*
Y0102420D02*
D03*
Y0104960D02*
D03*
X0072808Y0103690D02*
D03*
Y0101150D02*
D03*
Y0098610D02*
D03*
Y0096070D02*
D03*
Y0093530D02*
D03*
Y0090990D02*
D03*
Y0088450D02*
D03*
Y0085910D02*
D03*
Y0083370D02*
D03*
Y0080830D02*
D03*
Y0078290D02*
D03*
Y0075750D02*
D03*
Y0106230D02*
D03*
X0056298D02*
D03*
Y0075750D02*
D03*
Y0078290D02*
D03*
Y0080830D02*
D03*
Y0083370D02*
D03*
Y0085910D02*
D03*
Y0088450D02*
D03*
Y0090990D02*
D03*
Y0093530D02*
D03*
Y0096070D02*
D03*
Y0098610D02*
D03*
Y0101150D02*
D03*
Y0103690D02*
D03*
X0054393Y0104960D02*
D03*
Y0102420D02*
D03*
Y0099880D02*
D03*
Y0097340D02*
D03*
Y0094800D02*
D03*
Y0092260D02*
D03*
Y0089720D02*
D03*
Y0087180D02*
D03*
Y0084640D02*
D03*
Y0082100D02*
D03*
Y0079560D02*
D03*
Y0077020D02*
D03*
Y0107500D02*
D03*
X0050583D02*
D03*
Y0077020D02*
D03*
Y0079560D02*
D03*
Y0082100D02*
D03*
Y0084640D02*
D03*
Y0087180D02*
D03*
Y0089720D02*
D03*
Y0092260D02*
D03*
Y0094800D02*
D03*
Y0097340D02*
D03*
Y0099880D02*
D03*
Y0102420D02*
D03*
Y0104960D02*
D03*
X0052487Y0103690D02*
D03*
Y0101150D02*
D03*
Y0098610D02*
D03*
Y0096070D02*
D03*
Y0093530D02*
D03*
Y0090990D02*
D03*
Y0088450D02*
D03*
Y0085910D02*
D03*
Y0083370D02*
D03*
Y0080830D02*
D03*
Y0078290D02*
D03*
Y0075750D02*
D03*
Y0106230D02*
D03*
X0035978D02*
D03*
Y0075750D02*
D03*
Y0078290D02*
D03*
Y0080830D02*
D03*
Y0083370D02*
D03*
Y0085910D02*
D03*
Y0088450D02*
D03*
Y0090990D02*
D03*
Y0093530D02*
D03*
Y0096070D02*
D03*
Y0098610D02*
D03*
Y0101150D02*
D03*
Y0103690D02*
D03*
X0034072Y0104960D02*
D03*
Y0102420D02*
D03*
Y0099880D02*
D03*
Y0097340D02*
D03*
Y0094800D02*
D03*
Y0092260D02*
D03*
Y0089720D02*
D03*
Y0087180D02*
D03*
Y0084640D02*
D03*
Y0082100D02*
D03*
Y0079560D02*
D03*
Y0077020D02*
D03*
Y0107500D02*
D03*
X0030263D02*
D03*
Y0077020D02*
D03*
Y0079560D02*
D03*
Y0082100D02*
D03*
Y0084640D02*
D03*
Y0087180D02*
D03*
Y0089720D02*
D03*
Y0092260D02*
D03*
Y0094800D02*
D03*
Y0097340D02*
D03*
Y0099880D02*
D03*
Y0102420D02*
D03*
Y0104960D02*
D03*
X0032167Y0103690D02*
D03*
Y0101150D02*
D03*
Y0098610D02*
D03*
Y0096070D02*
D03*
Y0093530D02*
D03*
Y0090990D02*
D03*
Y0088450D02*
D03*
Y0085910D02*
D03*
Y0083370D02*
D03*
Y0080830D02*
D03*
Y0078290D02*
D03*
Y0075750D02*
D03*
Y0106230D02*
D03*
G54D143*
X0251810Y0096857D02*
D03*
X0212440D02*
D03*
X0252330Y0119548D02*
D03*
X0212960D02*
D03*
X0374420Y0257450D02*
D03*
Y0244750D02*
D03*
X0175360Y0244560D02*
D03*
Y0205190D02*
D03*
X0155040Y0244560D02*
D03*
Y0205190D02*
D03*
X0134720Y0244560D02*
D03*
Y0205190D02*
D03*
X0114400Y0244560D02*
D03*
Y0205190D02*
D03*
X0094080Y0244560D02*
D03*
Y0205190D02*
D03*
X0073760Y0244560D02*
D03*
Y0205190D02*
D03*
X0053440Y0244560D02*
D03*
Y0205190D02*
D03*
X0033120Y0244560D02*
D03*
Y0205190D02*
D03*
X0175360Y0111310D02*
D03*
Y0071940D02*
D03*
X0155040Y0111310D02*
D03*
Y0071940D02*
D03*
X0134720Y0111310D02*
D03*
Y0071940D02*
D03*
X0114400Y0111310D02*
D03*
Y0071940D02*
D03*
X0094080Y0111310D02*
D03*
Y0071940D02*
D03*
X0073760Y0111310D02*
D03*
Y0071940D02*
D03*
X0053440Y0111310D02*
D03*
Y0071940D02*
D03*
X0033120Y0111310D02*
D03*
Y0071940D02*
D03*
X0353520Y0046970D02*
D03*
Y0067270D02*
D03*
G54D144*
X0351500Y0049500D02*
D03*
Y0054580D02*
D03*
Y0059660D02*
D03*
Y0064740D02*
D03*
G54D145*
X0374500Y0239540D02*
D03*
Y0237000D02*
D03*
G54D146*
X0277540Y0234540D02*
D03*
Y0229460D02*
D03*
X0272460D02*
D03*
Y0234540D02*
D03*
X0275000Y0232000D02*
D03*
X0280960Y0234540D02*
D03*
X0286040D02*
D03*
Y0229460D02*
D03*
X0280960D02*
D03*
X0283500Y0232000D02*
D03*
X0335460Y0219960D02*
D03*
Y0225040D02*
D03*
X0340540D02*
D03*
Y0219960D02*
D03*
X0338000Y0222500D02*
D03*
X0346460Y0219960D02*
D03*
Y0225040D02*
D03*
X0351540D02*
D03*
Y0219960D02*
D03*
X0349000Y0222500D02*
D03*
X0357460Y0219960D02*
D03*
Y0225040D02*
D03*
X0362540D02*
D03*
Y0219960D02*
D03*
X0360000Y0222500D02*
D03*
G54D147*
X0256000Y0155500D02*
D03*
Y0158000D02*
D03*
X0133600Y0053500D02*
D03*
X0172940Y0265000D02*
D03*
X0152620D02*
D03*
X0132300D02*
D03*
X0111980D02*
D03*
X0091660D02*
D03*
X0071340D02*
D03*
X0051020D02*
D03*
X0030700D02*
D03*
X0032000Y0053500D02*
D03*
X0035500Y0058500D02*
D03*
X0055820D02*
D03*
X0052320Y0053500D02*
D03*
X0076140Y0058500D02*
D03*
X0072640Y0053500D02*
D03*
X0096460Y0058500D02*
D03*
X0092960Y0053500D02*
D03*
X0116780Y0058500D02*
D03*
X0113280Y0053500D02*
D03*
X0137100Y0058500D02*
D03*
X0157420D02*
D03*
X0153920Y0053500D02*
D03*
X0177740Y0058500D02*
D03*
X0174240Y0053500D02*
D03*
X0210500Y0154500D02*
D03*
G54D149*
X0330500Y0075100D02*
D03*
X0330460Y0058500D02*
D03*
X0341500Y0058500D02*
D03*
X0341540Y0075100D02*
D03*
G54D150*
X0385275Y0181925D02*
D03*
X0382225Y0127545D02*
D03*
G54D151*
X0201050Y0220550D02*
D03*
Y0219900D02*
D03*
Y0219250D02*
D03*
Y0218600D02*
D03*
Y0217950D02*
D03*
Y0217300D02*
D03*
Y0216650D02*
D03*
Y0216000D02*
D03*
X0195500Y0220550D02*
D03*
Y0219900D02*
D03*
Y0219250D02*
D03*
Y0218600D02*
D03*
Y0217950D02*
D03*
Y0217300D02*
D03*
Y0216650D02*
D03*
Y0216000D02*
D03*
X0328250Y0207000D02*
D03*
Y0206500D02*
D03*
Y0206000D02*
D03*
Y0205500D02*
D03*
Y0205000D02*
D03*
Y0204500D02*
D03*
Y0204000D02*
D03*
Y0203500D02*
D03*
Y0203000D02*
D03*
Y0202500D02*
D03*
Y0202000D02*
D03*
Y0201500D02*
D03*
Y0201000D02*
D03*
Y0200500D02*
D03*
Y0200000D02*
D03*
Y0199500D02*
D03*
Y0199000D02*
D03*
Y0198500D02*
D03*
Y0198000D02*
D03*
Y0197500D02*
D03*
Y0197000D02*
D03*
Y0196500D02*
D03*
Y0196000D02*
D03*
Y0195500D02*
D03*
Y0195000D02*
D03*
Y0194500D02*
D03*
Y0194000D02*
D03*
Y0193500D02*
D03*
Y0193000D02*
D03*
Y0192500D02*
D03*
Y0192000D02*
D03*
Y0191500D02*
D03*
X0321000Y0207000D02*
D03*
Y0206500D02*
D03*
Y0206000D02*
D03*
Y0205500D02*
D03*
Y0205000D02*
D03*
Y0204500D02*
D03*
Y0204000D02*
D03*
Y0203500D02*
D03*
Y0203000D02*
D03*
Y0202500D02*
D03*
Y0202000D02*
D03*
Y0201500D02*
D03*
Y0201000D02*
D03*
Y0200500D02*
D03*
Y0200000D02*
D03*
Y0199500D02*
D03*
Y0199000D02*
D03*
Y0198500D02*
D03*
Y0198000D02*
D03*
Y0197500D02*
D03*
Y0197000D02*
D03*
Y0196500D02*
D03*
Y0196000D02*
D03*
Y0195500D02*
D03*
Y0195000D02*
D03*
Y0194500D02*
D03*
Y0194000D02*
D03*
Y0193500D02*
D03*
Y0193000D02*
D03*
Y0192500D02*
D03*
Y0192000D02*
D03*
Y0191500D02*
D03*
X0328250Y0120000D02*
D03*
Y0119500D02*
D03*
Y0119000D02*
D03*
Y0118500D02*
D03*
Y0118000D02*
D03*
Y0117500D02*
D03*
Y0117000D02*
D03*
Y0116500D02*
D03*
Y0116000D02*
D03*
Y0115500D02*
D03*
Y0115000D02*
D03*
Y0114500D02*
D03*
Y0114000D02*
D03*
Y0113500D02*
D03*
Y0113000D02*
D03*
Y0112500D02*
D03*
Y0112000D02*
D03*
Y0111500D02*
D03*
Y0111000D02*
D03*
Y0110500D02*
D03*
Y0110000D02*
D03*
Y0109500D02*
D03*
Y0109000D02*
D03*
Y0108500D02*
D03*
Y0108000D02*
D03*
Y0107500D02*
D03*
Y0107000D02*
D03*
Y0106500D02*
D03*
Y0106000D02*
D03*
Y0105500D02*
D03*
Y0105000D02*
D03*
Y0104500D02*
D03*
X0321000Y0120000D02*
D03*
Y0119500D02*
D03*
Y0119000D02*
D03*
Y0118500D02*
D03*
Y0118000D02*
D03*
Y0117500D02*
D03*
Y0117000D02*
D03*
Y0116500D02*
D03*
Y0116000D02*
D03*
Y0115500D02*
D03*
Y0115000D02*
D03*
Y0114500D02*
D03*
Y0114000D02*
D03*
Y0113500D02*
D03*
Y0113000D02*
D03*
Y0112500D02*
D03*
Y0112000D02*
D03*
Y0111500D02*
D03*
Y0111000D02*
D03*
Y0110500D02*
D03*
Y0110000D02*
D03*
Y0109500D02*
D03*
Y0109000D02*
D03*
Y0108500D02*
D03*
Y0108000D02*
D03*
Y0107500D02*
D03*
Y0107000D02*
D03*
Y0106500D02*
D03*
Y0106000D02*
D03*
Y0105500D02*
D03*
Y0105000D02*
D03*
Y0104500D02*
D03*
X0328250Y0178000D02*
D03*
Y0177500D02*
D03*
Y0177000D02*
D03*
Y0176500D02*
D03*
Y0176000D02*
D03*
Y0175500D02*
D03*
Y0175000D02*
D03*
Y0174500D02*
D03*
Y0174000D02*
D03*
Y0173500D02*
D03*
Y0173000D02*
D03*
Y0172500D02*
D03*
Y0172000D02*
D03*
Y0171500D02*
D03*
Y0171000D02*
D03*
Y0170500D02*
D03*
Y0170000D02*
D03*
Y0169500D02*
D03*
Y0169000D02*
D03*
Y0168500D02*
D03*
Y0168000D02*
D03*
Y0167500D02*
D03*
Y0167000D02*
D03*
Y0166500D02*
D03*
Y0166000D02*
D03*
Y0165500D02*
D03*
Y0165000D02*
D03*
Y0164500D02*
D03*
Y0164000D02*
D03*
Y0163500D02*
D03*
Y0163000D02*
D03*
Y0162500D02*
D03*
X0321000Y0178000D02*
D03*
Y0177500D02*
D03*
Y0177000D02*
D03*
Y0176500D02*
D03*
Y0176000D02*
D03*
Y0175500D02*
D03*
Y0175000D02*
D03*
Y0174500D02*
D03*
Y0174000D02*
D03*
Y0173500D02*
D03*
Y0173000D02*
D03*
Y0172500D02*
D03*
Y0172000D02*
D03*
Y0171500D02*
D03*
Y0171000D02*
D03*
Y0170500D02*
D03*
Y0170000D02*
D03*
Y0169500D02*
D03*
Y0169000D02*
D03*
Y0168500D02*
D03*
Y0168000D02*
D03*
Y0167500D02*
D03*
Y0167000D02*
D03*
Y0166500D02*
D03*
Y0166000D02*
D03*
Y0165500D02*
D03*
Y0165000D02*
D03*
Y0164500D02*
D03*
Y0164000D02*
D03*
Y0163500D02*
D03*
Y0163000D02*
D03*
Y0162500D02*
D03*
X0328250Y0149000D02*
D03*
Y0148500D02*
D03*
Y0148000D02*
D03*
Y0147500D02*
D03*
Y0147000D02*
D03*
Y0146500D02*
D03*
Y0146000D02*
D03*
Y0145500D02*
D03*
Y0145000D02*
D03*
Y0144500D02*
D03*
Y0144000D02*
D03*
Y0143500D02*
D03*
Y0143000D02*
D03*
Y0142500D02*
D03*
Y0142000D02*
D03*
Y0141500D02*
D03*
Y0141000D02*
D03*
Y0140500D02*
D03*
Y0140000D02*
D03*
Y0139500D02*
D03*
Y0139000D02*
D03*
Y0138500D02*
D03*
Y0138000D02*
D03*
Y0137500D02*
D03*
Y0137000D02*
D03*
Y0136500D02*
D03*
Y0136000D02*
D03*
Y0135500D02*
D03*
Y0135000D02*
D03*
Y0134500D02*
D03*
Y0134000D02*
D03*
Y0133500D02*
D03*
X0321000Y0149000D02*
D03*
Y0148500D02*
D03*
Y0148000D02*
D03*
Y0147500D02*
D03*
Y0147000D02*
D03*
Y0146500D02*
D03*
Y0146000D02*
D03*
Y0145500D02*
D03*
Y0145000D02*
D03*
Y0144500D02*
D03*
Y0144000D02*
D03*
Y0143500D02*
D03*
Y0143000D02*
D03*
Y0142500D02*
D03*
Y0142000D02*
D03*
Y0141500D02*
D03*
Y0141000D02*
D03*
Y0140500D02*
D03*
Y0140000D02*
D03*
Y0139500D02*
D03*
Y0139000D02*
D03*
Y0138500D02*
D03*
Y0138000D02*
D03*
Y0137500D02*
D03*
Y0137000D02*
D03*
Y0136500D02*
D03*
Y0136000D02*
D03*
Y0135500D02*
D03*
Y0135000D02*
D03*
Y0134500D02*
D03*
Y0134000D02*
D03*
Y0133500D02*
D03*
X0195050Y0088550D02*
D03*
Y0087900D02*
D03*
Y0087250D02*
D03*
Y0086600D02*
D03*
Y0085950D02*
D03*
Y0085300D02*
D03*
Y0084650D02*
D03*
Y0084000D02*
D03*
X0189500Y0088550D02*
D03*
Y0087900D02*
D03*
Y0087250D02*
D03*
Y0086600D02*
D03*
Y0085950D02*
D03*
Y0085300D02*
D03*
Y0084650D02*
D03*
Y0084000D02*
D03*
G54D152*
X0210550Y0226500D02*
D03*
X0209900D02*
D03*
X0209250D02*
D03*
X0208600D02*
D03*
X0207950D02*
D03*
X0207300D02*
D03*
X0206650D02*
D03*
X0206000D02*
D03*
X0210550Y0232050D02*
D03*
X0209900D02*
D03*
X0209250D02*
D03*
X0208600D02*
D03*
X0207950D02*
D03*
X0207300D02*
D03*
X0206650D02*
D03*
X0206000D02*
D03*
X0220050Y0226500D02*
D03*
X0219400D02*
D03*
X0218750D02*
D03*
X0218100D02*
D03*
X0217450D02*
D03*
X0216800D02*
D03*
X0216150D02*
D03*
X0215500D02*
D03*
X0220050Y0232050D02*
D03*
X0219400D02*
D03*
X0218750D02*
D03*
X0218100D02*
D03*
X0217450D02*
D03*
X0216800D02*
D03*
X0216150D02*
D03*
X0215500D02*
D03*
X0229550Y0226500D02*
D03*
X0228900D02*
D03*
X0228250D02*
D03*
X0227600D02*
D03*
X0226950D02*
D03*
X0226300D02*
D03*
X0225650D02*
D03*
X0225000D02*
D03*
X0229550Y0232050D02*
D03*
X0228900D02*
D03*
X0228250D02*
D03*
X0227600D02*
D03*
X0226950D02*
D03*
X0226300D02*
D03*
X0225650D02*
D03*
X0225000D02*
D03*
X0200450Y0083050D02*
D03*
X0201100D02*
D03*
X0201750D02*
D03*
X0202400D02*
D03*
X0203050D02*
D03*
X0203700D02*
D03*
X0204350D02*
D03*
X0205000D02*
D03*
X0200450Y0077500D02*
D03*
X0201100D02*
D03*
X0201750D02*
D03*
X0202400D02*
D03*
X0203050D02*
D03*
X0203700D02*
D03*
X0204350D02*
D03*
X0205000D02*
D03*
X0209950Y0083050D02*
D03*
X0210600D02*
D03*
X0211250D02*
D03*
X0211900D02*
D03*
X0212550D02*
D03*
X0213200D02*
D03*
X0213850D02*
D03*
X0214500D02*
D03*
X0209950Y0077500D02*
D03*
X0210600D02*
D03*
X0211250D02*
D03*
X0211900D02*
D03*
X0212550D02*
D03*
X0213200D02*
D03*
X0213850D02*
D03*
X0214500D02*
D03*
X0224000D02*
D03*
X0223350D02*
D03*
X0222700D02*
D03*
X0222050D02*
D03*
X0221400D02*
D03*
X0220750D02*
D03*
X0220100D02*
D03*
X0219450D02*
D03*
X0224000Y0083050D02*
D03*
X0223350D02*
D03*
X0222700D02*
D03*
X0222050D02*
D03*
X0221400D02*
D03*
X0220750D02*
D03*
X0220100D02*
D03*
X0219450D02*
D03*
G54D153*
X0286088Y0203500D02*
D03*
X0286088Y0204770D02*
D03*
Y0206040D02*
D03*
X0286088Y0207310D02*
D03*
Y0208580D02*
D03*
X0286088Y0209850D02*
D03*
X0286088Y0211120D02*
D03*
X0280500Y0211120D02*
D03*
X0280500Y0209850D02*
D03*
Y0208580D02*
D03*
Y0207310D02*
D03*
Y0206040D02*
D03*
Y0204770D02*
D03*
G54D154*
Y0203500D02*
D03*
G54D155*
X0222500Y0208000D02*
D03*
X0223000D02*
D03*
X0223500D02*
D03*
X0224000D02*
D03*
X0224500D02*
D03*
X0225000D02*
D03*
X0225500D02*
D03*
X0226000D02*
D03*
X0226500D02*
D03*
X0227000D02*
D03*
X0227500D02*
D03*
X0228000D02*
D03*
X0228500D02*
D03*
X0229000D02*
D03*
X0229500D02*
D03*
X0230000D02*
D03*
X0230500D02*
D03*
X0231000D02*
D03*
X0231500D02*
D03*
X0232000D02*
D03*
X0232500D02*
D03*
X0233000D02*
D03*
X0233500D02*
D03*
X0234000D02*
D03*
X0222500Y0188800D02*
D03*
X0223000D02*
D03*
X0223500D02*
D03*
X0224000D02*
D03*
X0224500D02*
D03*
X0225000D02*
D03*
X0225500D02*
D03*
X0226000D02*
D03*
X0226500D02*
D03*
X0227000D02*
D03*
X0227500D02*
D03*
X0228000D02*
D03*
X0228500D02*
D03*
X0229000D02*
D03*
X0229500D02*
D03*
X0230000D02*
D03*
X0230500D02*
D03*
X0231000D02*
D03*
X0231500D02*
D03*
X0232000D02*
D03*
X0232500D02*
D03*
X0233000D02*
D03*
X0233500D02*
D03*
X0234000D02*
D03*
G54D156*
X0323550Y0255050D02*
D03*
Y0254550D02*
D03*
Y0254050D02*
D03*
Y0253550D02*
D03*
Y0253050D02*
D03*
Y0252550D02*
D03*
Y0252050D02*
D03*
Y0251550D02*
D03*
Y0251050D02*
D03*
Y0250550D02*
D03*
Y0250050D02*
D03*
Y0249550D02*
D03*
Y0249050D02*
D03*
Y0248550D02*
D03*
Y0248050D02*
D03*
Y0247550D02*
D03*
X0334950D02*
D03*
Y0248050D02*
D03*
Y0248550D02*
D03*
Y0249050D02*
D03*
Y0249550D02*
D03*
Y0250050D02*
D03*
Y0250550D02*
D03*
Y0251050D02*
D03*
Y0251550D02*
D03*
Y0252050D02*
D03*
Y0252550D02*
D03*
Y0253050D02*
D03*
Y0253550D02*
D03*
Y0254050D02*
D03*
Y0254550D02*
D03*
Y0255050D02*
D03*
G54D157*
X0325500Y0245600D02*
D03*
X0326000D02*
D03*
X0326500D02*
D03*
X0327000D02*
D03*
X0327500D02*
D03*
X0328000D02*
D03*
X0328500D02*
D03*
X0329000D02*
D03*
X0329500D02*
D03*
X0330000D02*
D03*
X0330500D02*
D03*
X0331000D02*
D03*
X0331500D02*
D03*
X0332000D02*
D03*
X0332500D02*
D03*
X0333000D02*
D03*
Y0257000D02*
D03*
X0332500D02*
D03*
X0332000D02*
D03*
X0331500D02*
D03*
X0331000D02*
D03*
X0330500D02*
D03*
X0330000D02*
D03*
X0329500D02*
D03*
X0329000D02*
D03*
X0328500D02*
D03*
X0328000D02*
D03*
X0327500D02*
D03*
X0327000D02*
D03*
X0326500D02*
D03*
X0326000D02*
D03*
G54D158*
X0325500D02*
D03*
G54D159*
X0264500Y0211385D02*
D03*
X0255610D02*
D03*
X0256880D02*
D03*
X0258150D02*
D03*
X0259420D02*
D03*
X0260690D02*
D03*
X0261960D02*
D03*
X0263230D02*
D03*
X0255610Y0206000D02*
D03*
X0256880D02*
D03*
X0258150D02*
D03*
X0259420D02*
D03*
X0260690D02*
D03*
X0261960D02*
D03*
X0263230D02*
D03*
G54D160*
X0264500D02*
D03*
G54D161*
X0268800Y0207900D02*
D03*
X0271500D02*
D03*
X0268800Y0210500D02*
D03*
G54D162*
X0271500D02*
D03*
G54D163*
X0354500Y0251620D02*
D03*
Y0253660D02*
D03*
Y0252640D02*
D03*
Y0254680D02*
D03*
Y0250600D02*
D03*
Y0249580D02*
D03*
Y0248560D02*
D03*
Y0247540D02*
D03*
G54D164*
Y0255880D02*
D03*
Y0257720D02*
D03*
Y0246340D02*
D03*
Y0244500D02*
D03*
G54D165*
X0213000Y0155050D02*
D03*
X0207060Y0153100D02*
D03*
X0213000Y0156350D02*
D03*
Y0155700D02*
D03*
Y0153750D02*
D03*
Y0153100D02*
D03*
X0207060Y0157000D02*
D03*
Y0156350D02*
D03*
Y0155700D02*
D03*
Y0155050D02*
D03*
Y0153750D02*
D03*
Y0152450D02*
D03*
X0213000Y0154400D02*
D03*
Y0152450D02*
D03*
X0207060Y0154400D02*
D03*
G54D166*
X0213000Y0157000D02*
D03*
M02*
